<meta message midi_port port=0 time=0>
<meta message track_name name=u'Drums' time=0>
program_change channel=9 program=16 time=0
control_change channel=9 control=7 value=127 time=0
control_change channel=9 control=10 value=64 time=0
note_on channel=9 note=36 velocity=119 time=768
note_on channel=9 note=49 velocity=104 time=0
note_on channel=9 note=49 velocity=0 time=53
note_on channel=9 note=36 velocity=0 time=1
note_on channel=9 note=36 velocity=119 time=138
note_on channel=9 note=49 velocity=98 time=0
note_on channel=9 note=49 velocity=0 time=41
note_on channel=9 note=36 velocity=0 time=2
note_on channel=9 note=36 velocity=119 time=29
note_on channel=9 note=57 velocity=115 time=0
note_on channel=9 note=36 velocity=0 time=41
note_on channel=9 note=57 velocity=0 time=11
note_on channel=9 note=36 velocity=127 time=20
note_on channel=9 note=49 velocity=98 time=0
note_on channel=9 note=49 velocity=0 time=42
note_on channel=9 note=36 velocity=0 time=4
note_on channel=9 note=36 velocity=119 time=194
note_on channel=9 note=49 velocity=104 time=0
note_on channel=9 note=36 velocity=0 time=39
note_on channel=9 note=49 velocity=0 time=5
note_on channel=9 note=36 velocity=108 time=28
note_on channel=9 note=57 velocity=115 time=0
note_on channel=9 note=36 velocity=0 time=41
note_on channel=9 note=57 velocity=0 time=27
note_on channel=9 note=36 velocity=119 time=4
note_on channel=9 note=49 velocity=98 time=0
note_on channel=9 note=49 velocity=0 time=36
note_on channel=9 note=36 velocity=0 time=10
note_on channel=9 note=36 velocity=125 time=194
note_on channel=9 note=49 velocity=92 time=0
note_on channel=9 note=36 velocity=0 time=41
note_on channel=9 note=49 velocity=0 time=18
note_on channel=9 note=36 velocity=119 time=13
note_on channel=9 note=57 velocity=115 time=0
note_on channel=9 note=36 velocity=0 time=38
note_on channel=9 note=57 velocity=0 time=10
note_on channel=9 note=36 velocity=127 time=24
note_on channel=9 note=49 velocity=92 time=0
note_on channel=9 note=49 velocity=0 time=72
note_on channel=9 note=36 velocity=0 time=22
note_on channel=9 note=36 velocity=127 time=338
note_on channel=9 note=49 velocity=92 time=0
note_on channel=9 note=49 velocity=0 time=50
note_on channel=9 note=36 velocity=0 time=5
note_on channel=9 note=36 velocity=125 time=137
note_on channel=9 note=49 velocity=98 time=0
note_on channel=9 note=49 velocity=0 time=38
note_on channel=9 note=36 velocity=0 time=5
note_on channel=9 note=36 velocity=119 time=29
note_on channel=9 note=57 velocity=104 time=0
note_on channel=9 note=36 velocity=0 time=38
note_on channel=9 note=57 velocity=0 time=5
note_on channel=9 note=36 velocity=125 time=29
note_on channel=9 note=49 velocity=98 time=0
note_on channel=9 note=49 velocity=0 time=36
note_on channel=9 note=36 velocity=0 time=5
note_on channel=9 note=36 velocity=127 time=247
note_on channel=9 note=49 velocity=98 time=0
note_on channel=9 note=36 velocity=0 time=43
note_on channel=9 note=49 velocity=0 time=10
note_on channel=9 note=36 velocity=125 time=19
note_on channel=9 note=57 velocity=115 time=0
note_on channel=9 note=36 velocity=0 time=38
note_on channel=9 note=57 velocity=0 time=4
note_on channel=9 note=36 velocity=127 time=30
note_on channel=9 note=49 velocity=98 time=0
note_on channel=9 note=49 velocity=0 time=37
note_on channel=9 note=36 velocity=0 time=5
note_on channel=9 note=36 velocity=125 time=150
note_on channel=9 note=49 velocity=98 time=0
note_on channel=9 note=36 velocity=0 time=41
note_on channel=9 note=49 velocity=0 time=1
note_on channel=9 note=36 velocity=125 time=30
note_on channel=9 note=57 velocity=115 time=0
note_on channel=9 note=57 velocity=0 time=39
note_on channel=9 note=36 velocity=0 time=2
note_on channel=9 note=36 velocity=127 time=31
note_on channel=9 note=49 velocity=98 time=0
note_on channel=9 note=49 velocity=0 time=45
note_on channel=9 note=36 velocity=0 time=6
note_on channel=9 note=36 velocity=117 time=381
note_on channel=9 note=42 velocity=113 time=0
note_on channel=9 note=42 velocity=0 time=30
note_on channel=9 note=42 velocity=64 time=18
note_on channel=9 note=36 velocity=0 time=11
note_on channel=9 note=42 velocity=0 time=7
note_on channel=9 note=40 velocity=121 time=30
note_on channel=9 note=42 velocity=108 time=0
note_on channel=9 note=54 velocity=106 time=0
note_on channel=9 note=42 velocity=0 time=26
note_on channel=9 note=40 velocity=0 time=21
note_on channel=9 note=42 velocity=58 time=1
note_on channel=9 note=42 velocity=0 time=13
note_on channel=9 note=36 velocity=119 time=35
note_on channel=9 note=42 velocity=113 time=0
note_on channel=9 note=54 velocity=0 time=21
note_on channel=9 note=42 velocity=0 time=3
note_on channel=9 note=42 velocity=47 time=24
note_on channel=9 note=36 velocity=0 time=1
note_on channel=9 note=42 velocity=0 time=11
note_on channel=9 note=40 velocity=121 time=36
note_on channel=9 note=42 velocity=119 time=0
note_on channel=9 note=42 velocity=0 time=24
note_on channel=9 note=42 velocity=47 time=24
note_on channel=9 note=40 velocity=0 time=12
note_on channel=9 note=42 velocity=0 time=2
note_on channel=9 note=36 velocity=113 time=34
note_on channel=9 note=42 velocity=113 time=0
note_on channel=9 note=42 velocity=0 time=26
note_on channel=9 note=42 velocity=53 time=22
note_on channel=9 note=36 velocity=0 time=7
note_on channel=9 note=42 velocity=0 time=8
note_on channel=9 note=40 velocity=121 time=33
note_on channel=9 note=42 velocity=119 time=0
note_on channel=9 note=54 velocity=111 time=0
note_on channel=9 note=42 velocity=0 time=28
note_on channel=9 note=42 velocity=48 time=20
note_on channel=9 note=54 velocity=0 time=1
note_on channel=9 note=42 velocity=0 time=15
note_on channel=9 note=40 velocity=0 time=1
note_on channel=9 note=36 velocity=108 time=31
note_on channel=9 note=42 velocity=113 time=0
note_on channel=9 note=42 velocity=0 time=24
note_on channel=9 note=42 velocity=66 time=24
note_on channel=9 note=36 velocity=0 time=7
note_on channel=9 note=42 velocity=0 time=10
note_on channel=9 note=40 velocity=115 time=31
note_on channel=9 note=42 velocity=108 time=0
note_on channel=9 note=42 velocity=0 time=24
note_on channel=9 note=42 velocity=70 time=24
note_on channel=9 note=42 velocity=0 time=16
note_on channel=9 note=40 velocity=0 time=3
note_on channel=9 note=36 velocity=119 time=29
note_on channel=9 note=42 velocity=113 time=0
note_on channel=9 note=42 velocity=0 time=25
note_on channel=9 note=42 velocity=64 time=23
note_on channel=9 note=36 velocity=0 time=1
note_on channel=9 note=42 velocity=0 time=13
note_on channel=9 note=40 velocity=127 time=34
note_on channel=9 note=42 velocity=113 time=0
note_on channel=9 note=54 velocity=111 time=0
note_on channel=9 note=42 velocity=0 time=23
note_on channel=9 note=42 velocity=72 time=25
note_on channel=9 note=54 velocity=0 time=1
note_on channel=9 note=42 velocity=0 time=13
note_on channel=9 note=40 velocity=0 time=3
note_on channel=9 note=36 velocity=108 time=31
note_on channel=9 note=42 velocity=119 time=0
note_on channel=9 note=42 velocity=0 time=21
note_on channel=9 note=42 velocity=51 time=27
note_on channel=9 note=36 velocity=0 time=12
note_on channel=9 note=42 velocity=0 time=1
note_on channel=9 note=40 velocity=121 time=35
note_on channel=9 note=42 velocity=108 time=0
note_on channel=9 note=42 velocity=0 time=20
note_on channel=9 note=42 velocity=58 time=28
note_on channel=9 note=42 velocity=0 time=15
note_on channel=9 note=40 velocity=0 time=3
note_on channel=9 note=36 velocity=108 time=30
note_on channel=9 note=42 velocity=113 time=0
note_on channel=9 note=42 velocity=0 time=21
note_on channel=9 note=42 velocity=56 time=27
note_on channel=9 note=36 velocity=0 time=10
note_on channel=9 note=42 velocity=0 time=6
note_on channel=9 note=40 velocity=121 time=32
note_on channel=9 note=42 velocity=113 time=0
note_on channel=9 note=54 velocity=111 time=0
note_on channel=9 note=42 velocity=0 time=21
note_on channel=9 note=42 velocity=58 time=27
note_on channel=9 note=40 velocity=0 time=16
note_on channel=9 note=42 velocity=0 time=2
note_on channel=9 note=36 velocity=102 time=30
note_on channel=9 note=42 velocity=113 time=0
note_on channel=9 note=42 velocity=0 time=20
note_on channel=9 note=54 velocity=0 time=4
note_on channel=9 note=42 velocity=76 time=24
note_on channel=9 note=36 velocity=0 time=10
note_on channel=9 note=42 velocity=0 time=4
note_on channel=9 note=40 velocity=121 time=34
note_on channel=9 note=42 velocity=113 time=0
note_on channel=9 note=42 velocity=0 time=23
note_on channel=9 note=42 velocity=72 time=25
note_on channel=9 note=42 velocity=0 time=14
note_on channel=9 note=40 velocity=0 time=3
note_on channel=9 note=36 velocity=113 time=31
note_on channel=9 note=42 velocity=113 time=0
note_on channel=9 note=42 velocity=0 time=20
note_on channel=9 note=42 velocity=56 time=28
note_on channel=9 note=36 velocity=0 time=5
note_on channel=9 note=42 velocity=0 time=13
note_on channel=9 note=40 velocity=121 time=30
note_on channel=9 note=42 velocity=113 time=0
note_on channel=9 note=54 velocity=106 time=0
note_on channel=9 note=42 velocity=0 time=24
note_on channel=9 note=54 velocity=0 time=21
note_on channel=9 note=42 velocity=74 time=3
note_on channel=9 note=40 velocity=0 time=12
note_on channel=9 note=42 velocity=0 time=3
note_on channel=9 note=36 velocity=119 time=33
note_on channel=9 note=42 velocity=108 time=0
note_on channel=9 note=42 velocity=0 time=21
note_on channel=9 note=36 velocity=0 time=3
note_on channel=9 note=42 velocity=74 time=24
note_on channel=9 note=42 velocity=0 time=16
note_on channel=9 note=40 velocity=127 time=32
note_on channel=9 note=42 velocity=102 time=0
note_on channel=9 note=42 velocity=0 time=19
note_on channel=9 note=42 velocity=78 time=29
note_on channel=9 note=40 velocity=0 time=10
note_on channel=9 note=42 velocity=0 time=5
note_on channel=9 note=36 velocity=119 time=33
note_on channel=9 note=42 velocity=108 time=0
note_on channel=9 note=42 velocity=0 time=22
note_on channel=9 note=42 velocity=74 time=26
note_on channel=9 note=36 velocity=0 time=8
note_on channel=9 note=42 velocity=0 time=7
note_on channel=9 note=40 velocity=127 time=33
note_on channel=9 note=42 velocity=108 time=0
note_on channel=9 note=54 velocity=100 time=0
note_on channel=9 note=42 velocity=0 time=24
note_on channel=9 note=42 velocity=68 time=24
note_on channel=9 note=54 velocity=0 time=13
note_on channel=9 note=40 velocity=0 time=0
note_on channel=9 note=42 velocity=0 time=3
note_on channel=9 note=36 velocity=113 time=32
note_on channel=9 note=42 velocity=108 time=0
note_on channel=9 note=42 velocity=0 time=24
note_on channel=9 note=42 velocity=78 time=24
note_on channel=9 note=36 velocity=0 time=8
note_on channel=9 note=42 velocity=0 time=8
note_on channel=9 note=40 velocity=121 time=32
note_on channel=9 note=42 velocity=102 time=0
note_on channel=9 note=42 velocity=0 time=23
note_on channel=9 note=42 velocity=76 time=25
note_on channel=9 note=40 velocity=0 time=12
note_on channel=9 note=42 velocity=0 time=5
note_on channel=9 note=36 velocity=108 time=31
note_on channel=9 note=42 velocity=102 time=0
note_on channel=9 note=42 velocity=0 time=24
note_on channel=9 note=42 velocity=72 time=24
note_on channel=9 note=36 velocity=0 time=8
note_on channel=9 note=42 velocity=0 time=7
note_on channel=9 note=40 velocity=127 time=33
note_on channel=9 note=42 velocity=108 time=0
note_on channel=9 note=54 velocity=106 time=0
note_on channel=9 note=42 velocity=0 time=22
note_on channel=9 note=54 velocity=0 time=22
note_on channel=9 note=42 velocity=68 time=4
note_on channel=9 note=40 velocity=0 time=4
note_on channel=9 note=42 velocity=0 time=11
note_on channel=9 note=36 velocity=119 time=33
note_on channel=9 note=42 velocity=102 time=0
note_on channel=9 note=42 velocity=0 time=23
note_on channel=9 note=42 velocity=64 time=25
note_on channel=9 note=36 velocity=0 time=8
note_on channel=9 note=42 velocity=0 time=9
note_on channel=9 note=40 velocity=127 time=31
note_on channel=9 note=42 velocity=102 time=0
note_on channel=9 note=42 velocity=0 time=22
note_on channel=9 note=42 velocity=76 time=26
note_on channel=9 note=40 velocity=0 time=12
note_on channel=9 note=42 velocity=0 time=4
note_on channel=9 note=36 velocity=102 time=32
note_on channel=9 note=42 velocity=113 time=0
note_on channel=9 note=42 velocity=0 time=20
note_on channel=9 note=42 velocity=78 time=28
note_on channel=9 note=36 velocity=0 time=8
note_on channel=9 note=42 velocity=0 time=5
note_on channel=9 note=40 velocity=127 time=35
note_on channel=9 note=42 velocity=108 time=0
note_on channel=9 note=54 velocity=106 time=0
note_on channel=9 note=42 velocity=0 time=22
note_on channel=9 note=54 velocity=0 time=24
note_on channel=9 note=42 velocity=76 time=2
note_on channel=9 note=40 velocity=0 time=11
note_on channel=9 note=42 velocity=0 time=1
note_on channel=9 note=36 velocity=113 time=36
note_on channel=9 note=42 velocity=108 time=0
note_on channel=9 note=42 velocity=0 time=19
note_on channel=9 note=42 velocity=72 time=29
note_on channel=9 note=36 velocity=0 time=3
note_on channel=9 note=42 velocity=0 time=10
note_on channel=9 note=36 velocity=102 time=11
note_on channel=9 note=36 velocity=0 time=19
note_on channel=9 note=40 velocity=121 time=5
note_on channel=9 note=46 velocity=104 time=0
note_on channel=9 note=54 velocity=106 time=0
note_on channel=9 note=46 velocity=0 time=23
note_on channel=9 note=54 velocity=0 time=28
note_on channel=9 note=40 velocity=0 time=6
note_on channel=9 note=36 velocity=102 time=39
note_on channel=9 note=42 velocity=102 time=0
note_on channel=9 note=42 velocity=0 time=23
note_on channel=9 note=42 velocity=43 time=25
note_on channel=9 note=36 velocity=0 time=12
note_on channel=9 note=42 velocity=0 time=3
note_on channel=9 note=40 velocity=121 time=33
note_on channel=9 note=42 velocity=108 time=0
note_on channel=9 note=42 velocity=0 time=21
note_on channel=9 note=42 velocity=74 time=27
note_on channel=9 note=40 velocity=0 time=11
note_on channel=9 note=42 velocity=0 time=5
note_on channel=9 note=36 velocity=113 time=32
note_on channel=9 note=42 velocity=108 time=0
note_on channel=9 note=42 velocity=0 time=22
note_on channel=9 note=42 velocity=76 time=26
note_on channel=9 note=36 velocity=0 time=8
note_on channel=9 note=42 velocity=0 time=8
note_on channel=9 note=40 velocity=121 time=32
note_on channel=9 note=42 velocity=113 time=0
note_on channel=9 note=42 velocity=0 time=23
note_on channel=9 note=42 velocity=68 time=25
note_on channel=9 note=42 velocity=0 time=16
note_on channel=9 note=40 velocity=0 time=2
note_on channel=9 note=36 velocity=113 time=30
note_on channel=9 note=42 velocity=108 time=0
note_on channel=9 note=42 velocity=0 time=22
note_on channel=9 note=36 velocity=0 time=25
note_on channel=9 note=42 velocity=74 time=1
note_on channel=9 note=42 velocity=0 time=15
note_on channel=9 note=40 velocity=121 time=33
note_on channel=9 note=42 velocity=108 time=0
note_on channel=9 note=42 velocity=0 time=22
note_on channel=9 note=42 velocity=62 time=26
note_on channel=9 note=40 velocity=0 time=11
note_on channel=9 note=42 velocity=0 time=7
note_on channel=9 note=36 velocity=108 time=30
note_on channel=9 note=42 velocity=102 time=0
note_on channel=9 note=42 velocity=0 time=22
note_on channel=9 note=42 velocity=96 time=26
note_on channel=9 note=36 velocity=0 time=8
note_on channel=9 note=42 velocity=0 time=9
note_on channel=9 note=40 velocity=127 time=31
note_on channel=9 note=42 velocity=102 time=0
note_on channel=9 note=42 velocity=0 time=19
note_on channel=9 note=40 velocity=0 time=27
note_on channel=9 note=42 velocity=90 time=2
note_on channel=9 note=42 velocity=0 time=19
note_on channel=9 note=42 velocity=108 time=28
note_on channel=9 note=36 velocity=113 time=1
note_on channel=9 note=42 velocity=0 time=27
note_on channel=9 note=42 velocity=41 time=21
note_on channel=9 note=36 velocity=0 time=3
note_on channel=9 note=42 velocity=0 time=18
note_on channel=9 note=40 velocity=127 time=27
note_on channel=9 note=42 velocity=102 time=0
note_on channel=9 note=42 velocity=0 time=25
note_on channel=9 note=40 velocity=0 time=15
note_on channel=9 note=42 velocity=51 time=8
note_on channel=9 note=42 velocity=0 time=22
note_on channel=9 note=36 velocity=113 time=26
note_on channel=9 note=42 velocity=102 time=0
note_on channel=9 note=42 velocity=0 time=28
note_on channel=9 note=36 velocity=0 time=7
note_on channel=9 note=42 velocity=76 time=13
note_on channel=9 note=42 velocity=0 time=16
note_on channel=9 note=40 velocity=127 time=32
note_on channel=9 note=42 velocity=108 time=0
note_on channel=9 note=42 velocity=0 time=26
note_on channel=9 note=40 velocity=0 time=13
note_on channel=9 note=42 velocity=62 time=9
note_on channel=9 note=42 velocity=0 time=18
note_on channel=9 note=36 velocity=119 time=30
note_on channel=9 note=42 velocity=108 time=0
note_on channel=9 note=42 velocity=0 time=24
note_on channel=9 note=36 velocity=0 time=9
note_on channel=9 note=42 velocity=64 time=15
note_on channel=9 note=42 velocity=0 time=16
note_on channel=9 note=40 velocity=121 time=32
note_on channel=9 note=42 velocity=113 time=0
note_on channel=9 note=42 velocity=0 time=27
note_on channel=9 note=40 velocity=0 time=13
note_on channel=9 note=42 velocity=68 time=8
note_on channel=9 note=42 velocity=0 time=20
note_on channel=9 note=36 velocity=119 time=28
note_on channel=9 note=42 velocity=113 time=0
note_on channel=9 note=42 velocity=0 time=25
note_on channel=9 note=36 velocity=0 time=12
note_on channel=9 note=42 velocity=70 time=11
note_on channel=9 note=42 velocity=0 time=17
note_on channel=9 note=40 velocity=127 time=31
note_on channel=9 note=42 velocity=108 time=0
note_on channel=9 note=42 velocity=0 time=22
note_on channel=9 note=40 velocity=0 time=19
note_on channel=9 note=42 velocity=72 time=7
note_on channel=9 note=42 velocity=0 time=18
note_on channel=9 note=36 velocity=113 time=30
note_on channel=9 note=42 velocity=113 time=0
note_on channel=9 note=42 velocity=0 time=25
note_on channel=9 note=36 velocity=0 time=11
note_on channel=9 note=42 velocity=76 time=12
note_on channel=9 note=42 velocity=0 time=18
note_on channel=9 note=40 velocity=127 time=30
note_on channel=9 note=42 velocity=108 time=0
note_on channel=9 note=42 velocity=0 time=24
note_on channel=9 note=40 velocity=0 time=14
note_on channel=9 note=42 velocity=70 time=10
note_on channel=9 note=42 velocity=0 time=20
note_on channel=9 note=36 velocity=108 time=28
note_on channel=9 note=42 velocity=102 time=0
note_on channel=9 note=42 velocity=0 time=22
note_on channel=9 note=36 velocity=0 time=5
note_on channel=9 note=42 velocity=78 time=21
note_on channel=9 note=42 velocity=0 time=16
note_on channel=9 note=40 velocity=127 time=32
note_on channel=9 note=42 velocity=113 time=0
note_on channel=9 note=42 velocity=0 time=21
note_on channel=9 note=40 velocity=0 time=14
note_on channel=9 note=42 velocity=80 time=13
note_on channel=9 note=42 velocity=0 time=16
note_on channel=9 note=36 velocity=119 time=32
note_on channel=9 note=42 velocity=113 time=0
note_on channel=9 note=42 velocity=0 time=23
note_on channel=9 note=36 velocity=0 time=10
note_on channel=9 note=42 velocity=78 time=15
note_on channel=9 note=42 velocity=0 time=16
note_on channel=9 note=40 velocity=127 time=32
note_on channel=9 note=42 velocity=113 time=0
note_on channel=9 note=42 velocity=0 time=24
note_on channel=9 note=40 velocity=0 time=14
note_on channel=9 note=42 velocity=76 time=10
note_on channel=9 note=42 velocity=0 time=17
note_on channel=9 note=36 velocity=113 time=31
note_on channel=9 note=42 velocity=108 time=0
note_on channel=9 note=42 velocity=0 time=22
note_on channel=9 note=36 velocity=0 time=12
note_on channel=9 note=42 velocity=78 time=14
note_on channel=9 note=42 velocity=0 time=17
note_on channel=9 note=40 velocity=127 time=31
note_on channel=9 note=42 velocity=108 time=0
note_on channel=9 note=42 velocity=0 time=22
note_on channel=9 note=40 velocity=0 time=13
note_on channel=9 note=42 velocity=78 time=13
note_on channel=9 note=42 velocity=0 time=16
note_on channel=9 note=36 velocity=125 time=32
note_on channel=9 note=42 velocity=108 time=0
note_on channel=9 note=42 velocity=0 time=24
note_on channel=9 note=36 velocity=0 time=13
note_on channel=9 note=42 velocity=74 time=11
note_on channel=9 note=42 velocity=0 time=18
note_on channel=9 note=40 velocity=127 time=30
note_on channel=9 note=42 velocity=108 time=0
note_on channel=9 note=42 velocity=0 time=21
note_on channel=9 note=40 velocity=0 time=15
note_on channel=9 note=42 velocity=76 time=12
note_on channel=9 note=42 velocity=0 time=16
note_on channel=9 note=36 velocity=113 time=32
note_on channel=9 note=42 velocity=108 time=0
note_on channel=9 note=42 velocity=0 time=22
note_on channel=9 note=36 velocity=0 time=15
note_on channel=9 note=42 velocity=76 time=11
note_on channel=9 note=42 velocity=0 time=17
note_on channel=9 note=40 velocity=121 time=31
note_on channel=9 note=42 velocity=113 time=0
note_on channel=9 note=42 velocity=0 time=22
note_on channel=9 note=40 velocity=0 time=18
note_on channel=9 note=42 velocity=76 time=8
note_on channel=9 note=42 velocity=0 time=16
note_on channel=9 note=36 velocity=119 time=32
note_on channel=9 note=42 velocity=108 time=0
note_on channel=9 note=42 velocity=0 time=23
note_on channel=9 note=36 velocity=0 time=9
note_on channel=9 note=42 velocity=72 time=16
note_on channel=9 note=42 velocity=0 time=16
note_on channel=9 note=40 velocity=127 time=32
note_on channel=9 note=42 velocity=113 time=0
note_on channel=9 note=42 velocity=0 time=21
note_on channel=9 note=40 velocity=0 time=24
note_on channel=9 note=42 velocity=78 time=3
note_on channel=9 note=42 velocity=0 time=16
note_on channel=9 note=36 velocity=108 time=32
note_on channel=9 note=42 velocity=108 time=0
note_on channel=9 note=42 velocity=0 time=22
note_on channel=9 note=36 velocity=0 time=11
note_on channel=9 note=42 velocity=76 time=15
note_on channel=9 note=42 velocity=0 time=14
note_on channel=9 note=40 velocity=127 time=34
note_on channel=9 note=42 velocity=113 time=0
note_on channel=9 note=42 velocity=0 time=19
note_on channel=9 note=40 velocity=0 time=19
note_on channel=9 note=42 velocity=82 time=10
note_on channel=9 note=42 velocity=0 time=12
note_on channel=9 note=36 velocity=127 time=36
note_on channel=9 note=42 velocity=113 time=0
note_on channel=9 note=42 velocity=0 time=22
note_on channel=9 note=36 velocity=0 time=17
note_on channel=9 note=42 velocity=78 time=9
note_on channel=9 note=42 velocity=0 time=15
note_on channel=9 note=40 velocity=127 time=33
note_on channel=9 note=42 velocity=119 time=0
note_on channel=9 note=42 velocity=0 time=20
note_on channel=9 note=40 velocity=0 time=16
note_on channel=9 note=42 velocity=76 time=12
note_on channel=9 note=42 velocity=0 time=14
note_on channel=9 note=36 velocity=119 time=34
note_on channel=9 note=42 velocity=108 time=0
note_on channel=9 note=42 velocity=0 time=18
note_on channel=9 note=36 velocity=0 time=14
note_on channel=9 note=42 velocity=82 time=16
note_on channel=9 note=42 velocity=0 time=13
note_on channel=9 note=40 velocity=127 time=35
note_on channel=9 note=42 velocity=113 time=0
note_on channel=9 note=42 velocity=0 time=19
note_on channel=9 note=40 velocity=0 time=24
note_on channel=9 note=42 velocity=82 time=5
note_on channel=9 note=42 velocity=0 time=17
note_on channel=9 note=36 velocity=125 time=31
note_on channel=9 note=42 velocity=113 time=0
note_on channel=9 note=42 velocity=0 time=19
note_on channel=9 note=36 velocity=0 time=16
note_on channel=9 note=42 velocity=82 time=13
note_on channel=9 note=42 velocity=0 time=17
note_on channel=9 note=40 velocity=127 time=31
note_on channel=9 note=42 velocity=113 time=0
note_on channel=9 note=42 velocity=0 time=19
note_on channel=9 note=40 velocity=0 time=28
note_on channel=9 note=42 velocity=82 time=1
note_on channel=9 note=42 velocity=0 time=17
note_on channel=9 note=40 velocity=127 time=31
note_on channel=9 note=46 velocity=92 time=0
note_on channel=9 note=46 velocity=0 time=11
note_on channel=9 note=40 velocity=0 time=15
note_on channel=9 note=43 velocity=121 time=22
note_on channel=9 note=43 velocity=0 time=32
note_on channel=9 note=40 velocity=121 time=16
note_on channel=9 note=40 velocity=0 time=14
note_on channel=9 note=40 velocity=121 time=10
note_on channel=9 note=40 velocity=0 time=22
note_on channel=9 note=36 velocity=125 time=2
note_on channel=9 note=46 velocity=86 time=0
note_on channel=9 note=46 velocity=0 time=15
note_on channel=9 note=36 velocity=0 time=20
note_on channel=9 note=36 velocity=108 time=13
note_on channel=9 note=42 velocity=102 time=0
note_on channel=9 note=42 velocity=0 time=25
note_on channel=9 note=42 velocity=57 time=23
note_on channel=9 note=36 velocity=0 time=5
note_on channel=9 note=42 velocity=0 time=16
note_on channel=9 note=40 velocity=127 time=27
note_on channel=9 note=42 velocity=102 time=0
note_on channel=9 note=42 velocity=0 time=25
note_on channel=9 note=42 velocity=51 time=23
note_on channel=9 note=40 velocity=0 time=3
note_on channel=9 note=42 velocity=0 time=19
note_on channel=9 note=36 velocity=119 time=26
note_on channel=9 note=42 velocity=102 time=0
note_on channel=9 note=42 velocity=0 time=28
note_on channel=9 note=36 velocity=0 time=15
note_on channel=9 note=42 velocity=76 time=5
note_on channel=9 note=42 velocity=0 time=16
note_on channel=9 note=40 velocity=121 time=32
note_on channel=9 note=42 velocity=108 time=0
note_on channel=9 note=42 velocity=0 time=26
note_on channel=9 note=42 velocity=62 time=22
note_on channel=9 note=40 velocity=0 time=3
note_on channel=9 note=42 velocity=0 time=15
note_on channel=9 note=36 velocity=119 time=30
note_on channel=9 note=42 velocity=108 time=0
note_on channel=9 note=42 velocity=0 time=24
note_on channel=9 note=42 velocity=64 time=24
note_on channel=9 note=36 velocity=0 time=2
note_on channel=9 note=42 velocity=0 time=14
note_on channel=9 note=40 velocity=127 time=32
note_on channel=9 note=42 velocity=113 time=0
note_on channel=9 note=42 velocity=0 time=27
note_on channel=9 note=40 velocity=0 time=18
note_on channel=9 note=42 velocity=68 time=3
note_on channel=9 note=42 velocity=0 time=20
note_on channel=9 note=36 velocity=102 time=28
note_on channel=9 note=42 velocity=113 time=0
note_on channel=9 note=42 velocity=0 time=25
note_on channel=9 note=36 velocity=0 time=13
note_on channel=9 note=42 velocity=70 time=10
note_on channel=9 note=42 velocity=0 time=17
note_on channel=9 note=40 velocity=127 time=31
note_on channel=9 note=42 velocity=108 time=0
note_on channel=9 note=42 velocity=0 time=22
note_on channel=9 note=40 velocity=0 time=24
note_on channel=9 note=42 velocity=72 time=2
note_on channel=9 note=42 velocity=0 time=18
note_on channel=9 note=36 velocity=113 time=30
note_on channel=9 note=42 velocity=113 time=0
note_on channel=9 note=42 velocity=0 time=25
note_on channel=9 note=36 velocity=0 time=12
note_on channel=9 note=42 velocity=76 time=11
note_on channel=9 note=42 velocity=0 time=18
note_on channel=9 note=40 velocity=127 time=30
note_on channel=9 note=42 velocity=108 time=0
note_on channel=9 note=42 velocity=0 time=24
note_on channel=9 note=40 velocity=0 time=22
note_on channel=9 note=42 velocity=70 time=2
note_on channel=9 note=42 velocity=0 time=20
note_on channel=9 note=36 velocity=125 time=28
note_on channel=9 note=42 velocity=102 time=0
note_on channel=9 note=42 velocity=0 time=22
note_on channel=9 note=36 velocity=0 time=13
note_on channel=9 note=42 velocity=78 time=13
note_on channel=9 note=42 velocity=0 time=16
note_on channel=9 note=40 velocity=127 time=32
note_on channel=9 note=42 velocity=113 time=0
note_on channel=9 note=42 velocity=0 time=21
note_on channel=9 note=40 velocity=0 time=18
note_on channel=9 note=42 velocity=80 time=9
note_on channel=9 note=42 velocity=0 time=16
note_on channel=9 note=36 velocity=127 time=32
note_on channel=9 note=42 velocity=113 time=0
note_on channel=9 note=42 velocity=0 time=23
note_on channel=9 note=36 velocity=0 time=15
note_on channel=9 note=42 velocity=78 time=10
note_on channel=9 note=42 velocity=0 time=16
note_on channel=9 note=40 velocity=127 time=32
note_on channel=9 note=42 velocity=113 time=0
note_on channel=9 note=42 velocity=0 time=24
note_on channel=9 note=40 velocity=0 time=15
note_on channel=9 note=42 velocity=76 time=9
note_on channel=9 note=42 velocity=0 time=17
note_on channel=9 note=36 velocity=125 time=31
note_on channel=9 note=42 velocity=108 time=0
note_on channel=9 note=42 velocity=0 time=22
note_on channel=9 note=36 velocity=0 time=15
note_on channel=9 note=42 velocity=78 time=11
note_on channel=9 note=42 velocity=0 time=17
note_on channel=9 note=40 velocity=127 time=31
note_on channel=9 note=42 velocity=108 time=0
note_on channel=9 note=42 velocity=0 time=22
note_on channel=9 note=40 velocity=0 time=15
note_on channel=9 note=42 velocity=78 time=11
note_on channel=9 note=42 velocity=0 time=16
note_on channel=9 note=36 velocity=119 time=32
note_on channel=9 note=42 velocity=108 time=0
note_on channel=9 note=42 velocity=0 time=24
note_on channel=9 note=36 velocity=0 time=16
note_on channel=9 note=42 velocity=74 time=8
note_on channel=9 note=42 velocity=0 time=18
note_on channel=9 note=40 velocity=127 time=30
note_on channel=9 note=42 velocity=108 time=0
note_on channel=9 note=42 velocity=0 time=21
note_on channel=9 note=40 velocity=0 time=17
note_on channel=9 note=42 velocity=76 time=10
note_on channel=9 note=42 velocity=0 time=16
note_on channel=9 note=36 velocity=119 time=32
note_on channel=9 note=42 velocity=108 time=0
note_on channel=9 note=42 velocity=0 time=22
note_on channel=9 note=36 velocity=0 time=19
note_on channel=9 note=42 velocity=76 time=7
note_on channel=9 note=42 velocity=0 time=17
note_on channel=9 note=40 velocity=121 time=31
note_on channel=9 note=42 velocity=113 time=0
note_on channel=9 note=42 velocity=0 time=22
note_on channel=9 note=40 velocity=0 time=16
note_on channel=9 note=42 velocity=76 time=10
note_on channel=9 note=42 velocity=0 time=16
note_on channel=9 note=36 velocity=125 time=32
note_on channel=9 note=42 velocity=108 time=0
note_on channel=9 note=42 velocity=0 time=23
note_on channel=9 note=36 velocity=0 time=17
note_on channel=9 note=42 velocity=72 time=8
note_on channel=9 note=42 velocity=0 time=16
note_on channel=9 note=40 velocity=127 time=32
note_on channel=9 note=42 velocity=113 time=0
note_on channel=9 note=42 velocity=0 time=21
note_on channel=9 note=40 velocity=0 time=13
note_on channel=9 note=42 velocity=78 time=14
note_on channel=9 note=42 velocity=0 time=16
note_on channel=9 note=36 velocity=113 time=32
note_on channel=9 note=42 velocity=108 time=0
note_on channel=9 note=42 velocity=0 time=22
note_on channel=9 note=36 velocity=0 time=16
note_on channel=9 note=42 velocity=76 time=10
note_on channel=9 note=42 velocity=0 time=14
note_on channel=9 note=40 velocity=127 time=34
note_on channel=9 note=42 velocity=113 time=0
note_on channel=9 note=42 velocity=0 time=19
note_on channel=9 note=40 velocity=0 time=19
note_on channel=9 note=42 velocity=82 time=10
note_on channel=9 note=42 velocity=0 time=12
note_on channel=9 note=36 velocity=119 time=36
note_on channel=9 note=42 velocity=113 time=0
note_on channel=9 note=42 velocity=0 time=22
note_on channel=9 note=36 velocity=0 time=24
note_on channel=9 note=42 velocity=78 time=2
note_on channel=9 note=42 velocity=0 time=15
note_on channel=9 note=40 velocity=127 time=33
note_on channel=9 note=42 velocity=119 time=0
note_on channel=9 note=42 velocity=0 time=20
note_on channel=9 note=40 velocity=0 time=17
note_on channel=9 note=42 velocity=76 time=11
note_on channel=9 note=42 velocity=0 time=14
note_on channel=9 note=36 velocity=119 time=34
note_on channel=9 note=42 velocity=108 time=0
note_on channel=9 note=42 velocity=0 time=18
note_on channel=9 note=36 velocity=0 time=21
note_on channel=9 note=42 velocity=82 time=9
note_on channel=9 note=42 velocity=0 time=13
note_on channel=9 note=40 velocity=127 time=35
note_on channel=9 note=42 velocity=113 time=0
note_on channel=9 note=42 velocity=0 time=19
note_on channel=9 note=40 velocity=0 time=22
note_on channel=9 note=42 velocity=82 time=7
note_on channel=9 note=42 velocity=0 time=17
note_on channel=9 note=36 velocity=127 time=31
note_on channel=9 note=42 velocity=113 time=0
note_on channel=9 note=42 velocity=0 time=19
note_on channel=9 note=36 velocity=0 time=15
note_on channel=9 note=42 velocity=82 time=14
note_on channel=9 note=42 velocity=0 time=17
note_on channel=9 note=40 velocity=127 time=31
note_on channel=9 note=42 velocity=113 time=0
note_on channel=9 note=42 velocity=0 time=19
note_on channel=9 note=40 velocity=0 time=24
note_on channel=9 note=42 velocity=82 time=5
note_on channel=9 note=42 velocity=0 time=17
note_on channel=9 note=36 velocity=125 time=31
note_on channel=9 note=42 velocity=113 time=0
note_on channel=9 note=42 velocity=0 time=19
note_on channel=9 note=36 velocity=0 time=20
note_on channel=9 note=42 velocity=82 time=9
note_on channel=9 note=42 velocity=0 time=17
note_on channel=9 note=40 velocity=127 time=31
note_on channel=9 note=42 velocity=115 time=0
note_on channel=9 note=40 velocity=0 time=5
note_on channel=9 note=40 velocity=127 time=0
note_on channel=9 note=42 velocity=0 time=12
note_on channel=9 note=40 velocity=0 time=21
note_on channel=9 note=36 velocity=125 time=58
note_on channel=9 note=42 velocity=102 time=0
note_on channel=9 note=49 velocity=98 time=0
note_on channel=9 note=42 velocity=0 time=25
note_on channel=9 note=42 velocity=57 time=23
note_on channel=9 note=36 velocity=0 time=3
note_on channel=9 note=42 velocity=0 time=18
note_on channel=9 note=40 velocity=127 time=27
note_on channel=9 note=42 velocity=102 time=0
note_on channel=9 note=42 velocity=0 time=25
note_on channel=9 note=49 velocity=0 time=12
note_on channel=9 note=40 velocity=0 time=8
note_on channel=9 note=42 velocity=51 time=3
note_on channel=9 note=42 velocity=0 time=22
note_on channel=9 note=36 velocity=113 time=26
note_on channel=9 note=42 velocity=102 time=0
note_on channel=9 note=42 velocity=0 time=28
note_on channel=9 note=36 velocity=0 time=12
note_on channel=9 note=42 velocity=76 time=8
note_on channel=9 note=42 velocity=0 time=16
note_on channel=9 note=40 velocity=127 time=32
note_on channel=9 note=42 velocity=108 time=0
note_on channel=9 note=42 velocity=0 time=26
note_on channel=9 note=40 velocity=0 time=11
note_on channel=9 note=42 velocity=62 time=11
note_on channel=9 note=42 velocity=0 time=18
note_on channel=9 note=36 velocity=108 time=30
note_on channel=9 note=42 velocity=108 time=0
note_on channel=9 note=42 velocity=0 time=24
note_on channel=9 note=36 velocity=0 time=10
note_on channel=9 note=42 velocity=64 time=14
note_on channel=9 note=42 velocity=0 time=16
note_on channel=9 note=40 velocity=127 time=32
note_on channel=9 note=42 velocity=113 time=0
note_on channel=9 note=42 velocity=0 time=27
note_on channel=9 note=40 velocity=0 time=11
note_on channel=9 note=42 velocity=68 time=10
note_on channel=9 note=42 velocity=0 time=20
note_on channel=9 note=36 velocity=113 time=28
note_on channel=9 note=42 velocity=113 time=0
note_on channel=9 note=42 velocity=0 time=25
note_on channel=9 note=36 velocity=0 time=10
note_on channel=9 note=42 velocity=70 time=13
note_on channel=9 note=42 velocity=0 time=17
note_on channel=9 note=40 velocity=127 time=31
note_on channel=9 note=42 velocity=108 time=0
note_on channel=9 note=42 velocity=0 time=22
note_on channel=9 note=40 velocity=0 time=13
note_on channel=9 note=42 velocity=72 time=13
note_on channel=9 note=42 velocity=0 time=18
note_on channel=9 note=36 velocity=108 time=30
note_on channel=9 note=42 velocity=113 time=0
note_on channel=9 note=42 velocity=0 time=25
note_on channel=9 note=36 velocity=0 time=14
note_on channel=9 note=42 velocity=76 time=9
note_on channel=9 note=42 velocity=0 time=18
note_on channel=9 note=40 velocity=121 time=30
note_on channel=9 note=42 velocity=108 time=0
note_on channel=9 note=42 velocity=0 time=24
note_on channel=9 note=40 velocity=0 time=6
note_on channel=9 note=42 velocity=70 time=18
note_on channel=9 note=42 velocity=0 time=20
note_on channel=9 note=36 velocity=102 time=28
note_on channel=9 note=42 velocity=102 time=0
note_on channel=9 note=42 velocity=0 time=22
note_on channel=9 note=36 velocity=0 time=18
note_on channel=9 note=42 velocity=78 time=8
note_on channel=9 note=42 velocity=0 time=16
note_on channel=9 note=40 velocity=127 time=32
note_on channel=9 note=42 velocity=113 time=0
note_on channel=9 note=42 velocity=0 time=21
note_on channel=9 note=40 velocity=0 time=12
note_on channel=9 note=42 velocity=80 time=15
note_on channel=9 note=42 velocity=0 time=16
note_on channel=9 note=36 velocity=119 time=32
note_on channel=9 note=42 velocity=113 time=0
note_on channel=9 note=42 velocity=0 time=23
note_on channel=9 note=36 velocity=0 time=17
note_on channel=9 note=42 velocity=78 time=8
note_on channel=9 note=42 velocity=0 time=16
note_on channel=9 note=40 velocity=121 time=32
note_on channel=9 note=42 velocity=113 time=0
note_on channel=9 note=42 velocity=0 time=24
note_on channel=9 note=40 velocity=0 time=13
note_on channel=9 note=42 velocity=76 time=11
note_on channel=9 note=42 velocity=0 time=17
note_on channel=9 note=36 velocity=119 time=31
note_on channel=9 note=42 velocity=108 time=0
note_on channel=9 note=42 velocity=0 time=22
note_on channel=9 note=36 velocity=0 time=21
note_on channel=9 note=42 velocity=78 time=5
note_on channel=9 note=42 velocity=0 time=17
note_on channel=9 note=40 velocity=121 time=31
note_on channel=9 note=42 velocity=111 time=0
note_on channel=9 note=42 velocity=0 time=22
note_on channel=9 note=40 velocity=0 time=7
note_on channel=9 note=46 velocity=97 time=19
note_on channel=9 note=46 velocity=0 time=16
note_on channel=9 note=36 velocity=108 time=32
note_on channel=9 note=42 velocity=111 time=0
note_on channel=9 note=42 velocity=0 time=24
note_on channel=9 note=36 velocity=0 time=8
note_on channel=9 note=42 velocity=74 time=16
note_on channel=9 note=42 velocity=0 time=18
note_on channel=9 note=40 velocity=127 time=30
note_on channel=9 note=42 velocity=108 time=0
note_on channel=9 note=42 velocity=0 time=21
note_on channel=9 note=40 velocity=0 time=11
note_on channel=9 note=42 velocity=76 time=16
note_on channel=9 note=42 velocity=0 time=16
note_on channel=9 note=36 velocity=113 time=32
note_on channel=9 note=42 velocity=108 time=0
note_on channel=9 note=42 velocity=0 time=22
note_on channel=9 note=36 velocity=0 time=16
note_on channel=9 note=42 velocity=76 time=10
note_on channel=9 note=42 velocity=0 time=17
note_on channel=9 note=40 velocity=127 time=31
note_on channel=9 note=42 velocity=113 time=0
note_on channel=9 note=42 velocity=0 time=22
note_on channel=9 note=40 velocity=0 time=13
note_on channel=9 note=42 velocity=76 time=13
note_on channel=9 note=42 velocity=0 time=16
note_on channel=9 note=36 velocity=113 time=32
note_on channel=9 note=42 velocity=108 time=0
note_on channel=9 note=42 velocity=0 time=23
note_on channel=9 note=36 velocity=0 time=12
note_on channel=9 note=42 velocity=72 time=13
note_on channel=9 note=42 velocity=0 time=16
note_on channel=9 note=40 velocity=127 time=32
note_on channel=9 note=42 velocity=113 time=0
note_on channel=9 note=42 velocity=0 time=21
note_on channel=9 note=40 velocity=0 time=16
note_on channel=9 note=42 velocity=78 time=11
note_on channel=9 note=42 velocity=0 time=16
note_on channel=9 note=36 velocity=119 time=32
note_on channel=9 note=42 velocity=108 time=0
note_on channel=9 note=42 velocity=0 time=22
note_on channel=9 note=36 velocity=0 time=8
note_on channel=9 note=42 velocity=76 time=18
note_on channel=9 note=42 velocity=0 time=14
note_on channel=9 note=40 velocity=127 time=34
note_on channel=9 note=42 velocity=113 time=0
note_on channel=9 note=42 velocity=0 time=19
note_on channel=9 note=40 velocity=0 time=15
note_on channel=9 note=42 velocity=82 time=14
note_on channel=9 note=42 velocity=0 time=12
note_on channel=9 note=36 velocity=119 time=36
note_on channel=9 note=42 velocity=113 time=0
note_on channel=9 note=42 velocity=0 time=22
note_on channel=9 note=36 velocity=0 time=21
note_on channel=9 note=42 velocity=78 time=5
note_on channel=9 note=42 velocity=0 time=15
note_on channel=9 note=40 velocity=127 time=33
note_on channel=9 note=42 velocity=119 time=0
note_on channel=9 note=42 velocity=0 time=20
note_on channel=9 note=40 velocity=0 time=21
note_on channel=9 note=42 velocity=76 time=7
note_on channel=9 note=42 velocity=0 time=14
note_on channel=9 note=36 velocity=113 time=34
note_on channel=9 note=42 velocity=108 time=0
note_on channel=9 note=42 velocity=0 time=18
note_on channel=9 note=36 velocity=0 time=13
note_on channel=9 note=42 velocity=82 time=17
note_on channel=9 note=42 velocity=0 time=13
note_on channel=9 note=40 velocity=127 time=35
note_on channel=9 note=42 velocity=113 time=0
note_on channel=9 note=42 velocity=0 time=19
note_on channel=9 note=40 velocity=0 time=27
note_on channel=9 note=42 velocity=82 time=2
note_on channel=9 note=42 velocity=0 time=17
note_on channel=9 note=40 velocity=117 time=31
note_on channel=9 note=40 velocity=0 time=13
note_on channel=9 note=40 velocity=127 time=11
note_on channel=9 note=40 velocity=0 time=16
note_on channel=9 note=40 velocity=121 time=32
note_on channel=9 note=40 velocity=0 time=12
note_on channel=9 note=40 velocity=127 time=12
note_on channel=9 note=40 velocity=0 time=16
note_on channel=9 note=40 velocity=127 time=8
note_on channel=9 note=40 velocity=0 time=16
note_on channel=9 note=43 velocity=98 time=8
note_on channel=9 note=43 velocity=0 time=15
note_on channel=9 note=41 velocity=115 time=9
note_on channel=9 note=36 velocity=113 time=24
note_on channel=9 note=41 velocity=0 time=2
note_on channel=9 note=36 velocity=0 time=29
note_on channel=9 note=36 velocity=125 time=161
note_on channel=9 note=36 velocity=0 time=47
note_on channel=9 note=40 velocity=127 time=49
note_on channel=9 note=40 velocity=0 time=56
note_on channel=9 note=36 velocity=119 time=40
note_on channel=9 note=36 velocity=0 time=38
note_on channel=9 note=40 velocity=121 time=58
note_on channel=9 note=40 velocity=0 time=42
note_on channel=9 note=36 velocity=113 time=54
note_on channel=9 note=36 velocity=0 time=34
note_on channel=9 note=40 velocity=127 time=62
note_on channel=9 note=40 velocity=0 time=42
note_on channel=9 note=36 velocity=119 time=54
note_on channel=9 note=36 velocity=0 time=30
note_on channel=9 note=40 velocity=127 time=66
note_on channel=9 note=40 velocity=0 time=34
note_on channel=9 note=46 velocity=101 time=14
note_on channel=9 note=36 velocity=108 time=48
note_on channel=9 note=42 velocity=102 time=0
note_on channel=9 note=46 velocity=0 time=11
note_on channel=9 note=42 velocity=0 time=14
note_on channel=9 note=42 velocity=57 time=23
note_on channel=9 note=36 velocity=0 time=5
note_on channel=9 note=42 velocity=0 time=16
note_on channel=9 note=40 velocity=127 time=27
note_on channel=9 note=42 velocity=102 time=0
note_on channel=9 note=42 velocity=0 time=25
note_on channel=9 note=42 velocity=51 time=23
note_on channel=9 note=40 velocity=0 time=3
note_on channel=9 note=42 velocity=0 time=19
note_on channel=9 note=36 velocity=119 time=26
note_on channel=9 note=42 velocity=102 time=0
note_on channel=9 note=42 velocity=0 time=28
note_on channel=9 note=36 velocity=0 time=15
note_on channel=9 note=42 velocity=76 time=5
note_on channel=9 note=42 velocity=0 time=16
note_on channel=9 note=40 velocity=121 time=32
note_on channel=9 note=42 velocity=108 time=0
note_on channel=9 note=42 velocity=0 time=26
note_on channel=9 note=42 velocity=62 time=22
note_on channel=9 note=40 velocity=0 time=3
note_on channel=9 note=42 velocity=0 time=15
note_on channel=9 note=36 velocity=119 time=30
note_on channel=9 note=42 velocity=108 time=0
note_on channel=9 note=42 velocity=0 time=24
note_on channel=9 note=42 velocity=64 time=24
note_on channel=9 note=36 velocity=0 time=2
note_on channel=9 note=42 velocity=0 time=14
note_on channel=9 note=40 velocity=127 time=32
note_on channel=9 note=42 velocity=113 time=0
note_on channel=9 note=42 velocity=0 time=27
note_on channel=9 note=40 velocity=0 time=18
note_on channel=9 note=42 velocity=68 time=3
note_on channel=9 note=42 velocity=0 time=20
note_on channel=9 note=36 velocity=102 time=28
note_on channel=9 note=42 velocity=113 time=0
note_on channel=9 note=42 velocity=0 time=25
note_on channel=9 note=36 velocity=0 time=13
note_on channel=9 note=42 velocity=70 time=10
note_on channel=9 note=42 velocity=0 time=17
note_on channel=9 note=40 velocity=127 time=31
note_on channel=9 note=42 velocity=108 time=0
note_on channel=9 note=42 velocity=0 time=22
note_on channel=9 note=40 velocity=0 time=24
note_on channel=9 note=42 velocity=72 time=2
note_on channel=9 note=42 velocity=0 time=18
note_on channel=9 note=36 velocity=113 time=30
note_on channel=9 note=42 velocity=113 time=0
note_on channel=9 note=42 velocity=0 time=25
note_on channel=9 note=36 velocity=0 time=12
note_on channel=9 note=42 velocity=76 time=11
note_on channel=9 note=42 velocity=0 time=18
note_on channel=9 note=40 velocity=127 time=30
note_on channel=9 note=42 velocity=108 time=0
note_on channel=9 note=42 velocity=0 time=24
note_on channel=9 note=40 velocity=0 time=22
note_on channel=9 note=42 velocity=70 time=2
note_on channel=9 note=42 velocity=0 time=20
note_on channel=9 note=36 velocity=125 time=28
note_on channel=9 note=42 velocity=102 time=0
note_on channel=9 note=42 velocity=0 time=22
note_on channel=9 note=36 velocity=0 time=13
note_on channel=9 note=42 velocity=78 time=13
note_on channel=9 note=42 velocity=0 time=16
note_on channel=9 note=40 velocity=127 time=32
note_on channel=9 note=42 velocity=113 time=0
note_on channel=9 note=42 velocity=0 time=21
note_on channel=9 note=40 velocity=0 time=18
note_on channel=9 note=42 velocity=80 time=9
note_on channel=9 note=42 velocity=0 time=16
note_on channel=9 note=36 velocity=127 time=32
note_on channel=9 note=42 velocity=113 time=0
note_on channel=9 note=42 velocity=0 time=23
note_on channel=9 note=36 velocity=0 time=15
note_on channel=9 note=42 velocity=78 time=10
note_on channel=9 note=42 velocity=0 time=16
note_on channel=9 note=40 velocity=127 time=32
note_on channel=9 note=42 velocity=113 time=0
note_on channel=9 note=42 velocity=0 time=24
note_on channel=9 note=40 velocity=0 time=15
note_on channel=9 note=42 velocity=76 time=9
note_on channel=9 note=42 velocity=0 time=17
note_on channel=9 note=36 velocity=125 time=31
note_on channel=9 note=42 velocity=108 time=0
note_on channel=9 note=42 velocity=0 time=22
note_on channel=9 note=36 velocity=0 time=15
note_on channel=9 note=42 velocity=78 time=11
note_on channel=9 note=42 velocity=0 time=17
note_on channel=9 note=40 velocity=127 time=31
note_on channel=9 note=42 velocity=108 time=0
note_on channel=9 note=42 velocity=0 time=22
note_on channel=9 note=40 velocity=0 time=15
note_on channel=9 note=42 velocity=78 time=11
note_on channel=9 note=42 velocity=0 time=16
note_on channel=9 note=36 velocity=119 time=32
note_on channel=9 note=42 velocity=108 time=0
note_on channel=9 note=42 velocity=0 time=24
note_on channel=9 note=36 velocity=0 time=16
note_on channel=9 note=42 velocity=74 time=8
note_on channel=9 note=42 velocity=0 time=18
note_on channel=9 note=40 velocity=127 time=30
note_on channel=9 note=42 velocity=108 time=0
note_on channel=9 note=42 velocity=0 time=21
note_on channel=9 note=40 velocity=0 time=17
note_on channel=9 note=42 velocity=76 time=10
note_on channel=9 note=42 velocity=0 time=16
note_on channel=9 note=36 velocity=119 time=32
note_on channel=9 note=42 velocity=108 time=0
note_on channel=9 note=42 velocity=0 time=22
note_on channel=9 note=36 velocity=0 time=19
note_on channel=9 note=42 velocity=76 time=7
note_on channel=9 note=42 velocity=0 time=17
note_on channel=9 note=40 velocity=121 time=31
note_on channel=9 note=42 velocity=113 time=0
note_on channel=9 note=42 velocity=0 time=22
note_on channel=9 note=40 velocity=0 time=16
note_on channel=9 note=42 velocity=76 time=10
note_on channel=9 note=42 velocity=0 time=16
note_on channel=9 note=36 velocity=125 time=32
note_on channel=9 note=42 velocity=108 time=0
note_on channel=9 note=42 velocity=0 time=23
note_on channel=9 note=36 velocity=0 time=17
note_on channel=9 note=42 velocity=72 time=8
note_on channel=9 note=42 velocity=0 time=16
note_on channel=9 note=40 velocity=127 time=32
note_on channel=9 note=42 velocity=113 time=0
note_on channel=9 note=42 velocity=0 time=21
note_on channel=9 note=40 velocity=0 time=13
note_on channel=9 note=42 velocity=78 time=14
note_on channel=9 note=42 velocity=0 time=16
note_on channel=9 note=36 velocity=113 time=32
note_on channel=9 note=42 velocity=108 time=0
note_on channel=9 note=42 velocity=0 time=22
note_on channel=9 note=36 velocity=0 time=16
note_on channel=9 note=42 velocity=76 time=10
note_on channel=9 note=42 velocity=0 time=14
note_on channel=9 note=40 velocity=127 time=34
note_on channel=9 note=42 velocity=113 time=0
note_on channel=9 note=42 velocity=0 time=19
note_on channel=9 note=40 velocity=0 time=19
note_on channel=9 note=42 velocity=82 time=10
note_on channel=9 note=42 velocity=0 time=12
note_on channel=9 note=36 velocity=119 time=36
note_on channel=9 note=42 velocity=113 time=0
note_on channel=9 note=42 velocity=0 time=22
note_on channel=9 note=36 velocity=0 time=24
note_on channel=9 note=42 velocity=78 time=2
note_on channel=9 note=42 velocity=0 time=15
note_on channel=9 note=40 velocity=127 time=33
note_on channel=9 note=42 velocity=119 time=0
note_on channel=9 note=42 velocity=0 time=20
note_on channel=9 note=40 velocity=0 time=17
note_on channel=9 note=42 velocity=76 time=11
note_on channel=9 note=42 velocity=0 time=14
note_on channel=9 note=36 velocity=119 time=34
note_on channel=9 note=42 velocity=108 time=0
note_on channel=9 note=42 velocity=0 time=18
note_on channel=9 note=36 velocity=0 time=21
note_on channel=9 note=42 velocity=82 time=9
note_on channel=9 note=42 velocity=0 time=13
note_on channel=9 note=40 velocity=127 time=35
note_on channel=9 note=42 velocity=113 time=0
note_on channel=9 note=42 velocity=0 time=19
note_on channel=9 note=40 velocity=0 time=22
note_on channel=9 note=42 velocity=82 time=7
note_on channel=9 note=42 velocity=0 time=17
note_on channel=9 note=36 velocity=127 time=31
note_on channel=9 note=42 velocity=113 time=0
note_on channel=9 note=42 velocity=0 time=19
note_on channel=9 note=36 velocity=0 time=15
note_on channel=9 note=42 velocity=82 time=14
note_on channel=9 note=42 velocity=0 time=17
note_on channel=9 note=40 velocity=127 time=31
note_on channel=9 note=42 velocity=113 time=0
note_on channel=9 note=42 velocity=0 time=19
note_on channel=9 note=40 velocity=0 time=24
note_on channel=9 note=42 velocity=82 time=5
note_on channel=9 note=42 velocity=0 time=17
note_on channel=9 note=36 velocity=125 time=31
note_on channel=9 note=42 velocity=113 time=0
note_on channel=9 note=42 velocity=0 time=19
note_on channel=9 note=36 velocity=0 time=20
note_on channel=9 note=42 velocity=82 time=9
note_on channel=9 note=42 velocity=0 time=17
note_on channel=9 note=40 velocity=127 time=31
note_on channel=9 note=42 velocity=115 time=0
note_on channel=9 note=40 velocity=0 time=5
note_on channel=9 note=40 velocity=127 time=0
note_on channel=9 note=42 velocity=0 time=12
note_on channel=9 note=40 velocity=0 time=21
note_on channel=9 note=42 velocity=115 time=10
note_on channel=9 note=42 velocity=0 time=17
note_on channel=9 note=36 velocity=125 time=31
note_on channel=9 note=42 velocity=102 time=0
note_on channel=9 note=49 velocity=98 time=0
note_on channel=9 note=42 velocity=0 time=25
note_on channel=9 note=42 velocity=57 time=23
note_on channel=9 note=36 velocity=0 time=3
note_on channel=9 note=42 velocity=0 time=18
note_on channel=9 note=40 velocity=127 time=27
note_on channel=9 note=42 velocity=102 time=0
note_on channel=9 note=42 velocity=0 time=25
note_on channel=9 note=49 velocity=0 time=12
note_on channel=9 note=40 velocity=0 time=8
note_on channel=9 note=42 velocity=51 time=3
note_on channel=9 note=42 velocity=0 time=22
note_on channel=9 note=36 velocity=113 time=26
note_on channel=9 note=42 velocity=102 time=0
note_on channel=9 note=42 velocity=0 time=28
note_on channel=9 note=36 velocity=0 time=12
note_on channel=9 note=42 velocity=76 time=8
note_on channel=9 note=42 velocity=0 time=16
note_on channel=9 note=40 velocity=127 time=32
note_on channel=9 note=42 velocity=108 time=0
note_on channel=9 note=42 velocity=0 time=26
note_on channel=9 note=40 velocity=0 time=11
note_on channel=9 note=42 velocity=62 time=11
note_on channel=9 note=42 velocity=0 time=18
note_on channel=9 note=36 velocity=108 time=30
note_on channel=9 note=42 velocity=108 time=0
note_on channel=9 note=42 velocity=0 time=24
note_on channel=9 note=36 velocity=0 time=10
note_on channel=9 note=42 velocity=64 time=14
note_on channel=9 note=42 velocity=0 time=16
note_on channel=9 note=40 velocity=127 time=32
note_on channel=9 note=42 velocity=113 time=0
note_on channel=9 note=42 velocity=0 time=27
note_on channel=9 note=40 velocity=0 time=11
note_on channel=9 note=42 velocity=68 time=10
note_on channel=9 note=42 velocity=0 time=20
note_on channel=9 note=36 velocity=113 time=28
note_on channel=9 note=42 velocity=113 time=0
note_on channel=9 note=42 velocity=0 time=25
note_on channel=9 note=36 velocity=0 time=10
note_on channel=9 note=42 velocity=70 time=13
note_on channel=9 note=42 velocity=0 time=17
note_on channel=9 note=40 velocity=127 time=31
note_on channel=9 note=42 velocity=108 time=0
note_on channel=9 note=42 velocity=0 time=22
note_on channel=9 note=40 velocity=0 time=13
note_on channel=9 note=42 velocity=72 time=13
note_on channel=9 note=42 velocity=0 time=18
note_on channel=9 note=36 velocity=108 time=30
note_on channel=9 note=42 velocity=113 time=0
note_on channel=9 note=42 velocity=0 time=25
note_on channel=9 note=36 velocity=0 time=14
note_on channel=9 note=42 velocity=76 time=9
note_on channel=9 note=42 velocity=0 time=18
note_on channel=9 note=40 velocity=121 time=30
note_on channel=9 note=42 velocity=108 time=0
note_on channel=9 note=42 velocity=0 time=24
note_on channel=9 note=40 velocity=0 time=6
note_on channel=9 note=42 velocity=70 time=18
note_on channel=9 note=42 velocity=0 time=20
note_on channel=9 note=36 velocity=102 time=28
note_on channel=9 note=42 velocity=102 time=0
note_on channel=9 note=42 velocity=0 time=22
note_on channel=9 note=36 velocity=0 time=18
note_on channel=9 note=42 velocity=78 time=8
note_on channel=9 note=42 velocity=0 time=16
note_on channel=9 note=40 velocity=127 time=32
note_on channel=9 note=42 velocity=113 time=0
note_on channel=9 note=42 velocity=0 time=21
note_on channel=9 note=40 velocity=0 time=12
note_on channel=9 note=42 velocity=80 time=15
note_on channel=9 note=42 velocity=0 time=16
note_on channel=9 note=36 velocity=119 time=32
note_on channel=9 note=42 velocity=113 time=0
note_on channel=9 note=42 velocity=0 time=23
note_on channel=9 note=36 velocity=0 time=17
note_on channel=9 note=42 velocity=78 time=8
note_on channel=9 note=42 velocity=0 time=16
note_on channel=9 note=40 velocity=121 time=32
note_on channel=9 note=42 velocity=113 time=0
note_on channel=9 note=42 velocity=0 time=24
note_on channel=9 note=40 velocity=0 time=13
note_on channel=9 note=42 velocity=76 time=11
note_on channel=9 note=42 velocity=0 time=17
note_on channel=9 note=36 velocity=119 time=31
note_on channel=9 note=42 velocity=108 time=0
note_on channel=9 note=42 velocity=0 time=22
note_on channel=9 note=36 velocity=0 time=21
note_on channel=9 note=42 velocity=78 time=5
note_on channel=9 note=42 velocity=0 time=17
note_on channel=9 note=40 velocity=121 time=31
note_on channel=9 note=42 velocity=111 time=0
note_on channel=9 note=42 velocity=0 time=22
note_on channel=9 note=40 velocity=0 time=7
note_on channel=9 note=46 velocity=97 time=19
note_on channel=9 note=46 velocity=0 time=16
note_on channel=9 note=36 velocity=108 time=32
note_on channel=9 note=42 velocity=111 time=0
note_on channel=9 note=42 velocity=0 time=24
note_on channel=9 note=36 velocity=0 time=8
note_on channel=9 note=42 velocity=74 time=16
note_on channel=9 note=42 velocity=0 time=18
note_on channel=9 note=40 velocity=127 time=30
note_on channel=9 note=42 velocity=108 time=0
note_on channel=9 note=42 velocity=0 time=21
note_on channel=9 note=40 velocity=0 time=11
note_on channel=9 note=42 velocity=76 time=16
note_on channel=9 note=42 velocity=0 time=16
note_on channel=9 note=36 velocity=113 time=32
note_on channel=9 note=42 velocity=108 time=0
note_on channel=9 note=42 velocity=0 time=22
note_on channel=9 note=36 velocity=0 time=16
note_on channel=9 note=42 velocity=76 time=10
note_on channel=9 note=42 velocity=0 time=17
note_on channel=9 note=40 velocity=127 time=31
note_on channel=9 note=42 velocity=113 time=0
note_on channel=9 note=42 velocity=0 time=22
note_on channel=9 note=40 velocity=0 time=13
note_on channel=9 note=42 velocity=76 time=13
note_on channel=9 note=42 velocity=0 time=16
note_on channel=9 note=36 velocity=113 time=32
note_on channel=9 note=42 velocity=108 time=0
note_on channel=9 note=42 velocity=0 time=23
note_on channel=9 note=36 velocity=0 time=12
note_on channel=9 note=42 velocity=72 time=13
note_on channel=9 note=42 velocity=0 time=16
note_on channel=9 note=40 velocity=127 time=32
note_on channel=9 note=42 velocity=113 time=0
note_on channel=9 note=42 velocity=0 time=21
note_on channel=9 note=40 velocity=0 time=16
note_on channel=9 note=42 velocity=78 time=11
note_on channel=9 note=42 velocity=0 time=16
note_on channel=9 note=36 velocity=119 time=32
note_on channel=9 note=42 velocity=108 time=0
note_on channel=9 note=42 velocity=0 time=22
note_on channel=9 note=36 velocity=0 time=8
note_on channel=9 note=42 velocity=76 time=18
note_on channel=9 note=42 velocity=0 time=14
note_on channel=9 note=40 velocity=127 time=34
note_on channel=9 note=42 velocity=113 time=0
note_on channel=9 note=42 velocity=0 time=19
note_on channel=9 note=40 velocity=0 time=15
note_on channel=9 note=42 velocity=82 time=14
note_on channel=9 note=42 velocity=0 time=12
note_on channel=9 note=36 velocity=119 time=36
note_on channel=9 note=42 velocity=113 time=0
note_on channel=9 note=42 velocity=0 time=22
note_on channel=9 note=36 velocity=0 time=21
note_on channel=9 note=42 velocity=78 time=5
note_on channel=9 note=42 velocity=0 time=15
note_on channel=9 note=40 velocity=127 time=33
note_on channel=9 note=42 velocity=119 time=0
note_on channel=9 note=42 velocity=0 time=20
note_on channel=9 note=40 velocity=0 time=21
note_on channel=9 note=42 velocity=76 time=7
note_on channel=9 note=42 velocity=0 time=14
note_on channel=9 note=36 velocity=113 time=34
note_on channel=9 note=42 velocity=108 time=0
note_on channel=9 note=42 velocity=0 time=18
note_on channel=9 note=36 velocity=0 time=13
note_on channel=9 note=42 velocity=82 time=17
note_on channel=9 note=42 velocity=0 time=13
note_on channel=9 note=40 velocity=127 time=35
note_on channel=9 note=42 velocity=113 time=0
note_on channel=9 note=42 velocity=0 time=19
note_on channel=9 note=40 velocity=0 time=27
note_on channel=9 note=42 velocity=82 time=2
note_on channel=9 note=42 velocity=0 time=17
note_on channel=9 note=40 velocity=117 time=31
note_on channel=9 note=40 velocity=0 time=13
note_on channel=9 note=40 velocity=127 time=11
note_on channel=9 note=40 velocity=0 time=16
note_on channel=9 note=40 velocity=121 time=32
note_on channel=9 note=40 velocity=0 time=12
note_on channel=9 note=40 velocity=127 time=12
note_on channel=9 note=40 velocity=0 time=16
note_on channel=9 note=40 velocity=127 time=8
note_on channel=9 note=40 velocity=0 time=16
note_on channel=9 note=43 velocity=98 time=8
note_on channel=9 note=43 velocity=0 time=15
note_on channel=9 note=41 velocity=115 time=9
note_on channel=9 note=36 velocity=113 time=24
note_on channel=9 note=40 velocity=127 time=0
note_on channel=9 note=41 velocity=0 time=2
note_on channel=9 note=40 velocity=0 time=14
note_on channel=9 note=36 velocity=0 time=15
note_on channel=9 note=36 velocity=125 time=161
note_on channel=9 note=36 velocity=0 time=47
note_on channel=9 note=40 velocity=127 time=49
note_on channel=9 note=40 velocity=0 time=56
note_on channel=9 note=36 velocity=119 time=40
note_on channel=9 note=36 velocity=0 time=38
note_on channel=9 note=40 velocity=121 time=58
note_on channel=9 note=40 velocity=0 time=42
note_on channel=9 note=36 velocity=113 time=54
note_on channel=9 note=36 velocity=0 time=34
note_on channel=9 note=40 velocity=127 time=62
note_on channel=9 note=40 velocity=0 time=42
note_on channel=9 note=36 velocity=119 time=54
note_on channel=9 note=36 velocity=0 time=30
note_on channel=9 note=40 velocity=127 time=66
note_on channel=9 note=40 velocity=0 time=34
note_on channel=9 note=36 velocity=125 time=62
note_on channel=9 note=42 velocity=102 time=0
note_on channel=9 note=42 velocity=0 time=25
note_on channel=9 note=36 velocity=0 time=22
note_on channel=9 note=42 velocity=57 time=1
note_on channel=9 note=42 velocity=0 time=21
note_on channel=9 note=40 velocity=127 time=27
note_on channel=9 note=42 velocity=102 time=0
note_on channel=9 note=42 velocity=0 time=25
note_on channel=9 note=42 velocity=51 time=23
note_on channel=9 note=40 velocity=0 time=8
note_on channel=9 note=42 velocity=0 time=14
note_on channel=9 note=36 velocity=119 time=26
note_on channel=9 note=42 velocity=102 time=0
note_on channel=9 note=42 velocity=0 time=28
note_on channel=9 note=36 velocity=0 time=10
note_on channel=9 note=42 velocity=76 time=10
note_on channel=9 note=42 velocity=0 time=16
note_on channel=9 note=40 velocity=121 time=32
note_on channel=9 note=42 velocity=108 time=0
note_on channel=9 note=42 velocity=0 time=26
note_on channel=9 note=40 velocity=0 time=16
note_on channel=9 note=42 velocity=62 time=6
note_on channel=9 note=42 velocity=0 time=18
note_on channel=9 note=36 velocity=113 time=30
note_on channel=9 note=42 velocity=108 time=0
note_on channel=9 note=42 velocity=0 time=24
note_on channel=9 note=36 velocity=0 time=10
note_on channel=9 note=42 velocity=64 time=14
note_on channel=9 note=42 velocity=0 time=16
note_on channel=9 note=40 velocity=127 time=32
note_on channel=9 note=42 velocity=113 time=0
note_on channel=9 note=42 velocity=0 time=27
note_on channel=9 note=40 velocity=0 time=15
note_on channel=9 note=42 velocity=68 time=6
note_on channel=9 note=42 velocity=0 time=20
note_on channel=9 note=36 velocity=119 time=28
note_on channel=9 note=42 velocity=113 time=0
note_on channel=9 note=42 velocity=0 time=25
note_on channel=9 note=36 velocity=0 time=5
note_on channel=9 note=42 velocity=70 time=18
note_on channel=9 note=42 velocity=0 time=17
note_on channel=9 note=40 velocity=127 time=31
note_on channel=9 note=42 velocity=108 time=0
note_on channel=9 note=42 velocity=0 time=22
note_on channel=9 note=40 velocity=0 time=12
note_on channel=9 note=42 velocity=72 time=14
note_on channel=9 note=42 velocity=0 time=18
note_on channel=9 note=36 velocity=108 time=30
note_on channel=9 note=42 velocity=102 time=0
note_on channel=9 note=42 velocity=0 time=25
note_on channel=9 note=42 velocity=57 time=23
note_on channel=9 note=36 velocity=0 time=5
note_on channel=9 note=42 velocity=0 time=16
note_on channel=9 note=40 velocity=127 time=27
note_on channel=9 note=42 velocity=102 time=0
note_on channel=9 note=42 velocity=0 time=25
note_on channel=9 note=42 velocity=51 time=23
note_on channel=9 note=40 velocity=0 time=3
note_on channel=9 note=42 velocity=0 time=19
note_on channel=9 note=36 velocity=119 time=26
note_on channel=9 note=42 velocity=102 time=0
note_on channel=9 note=42 velocity=0 time=28
note_on channel=9 note=36 velocity=0 time=15
note_on channel=9 note=42 velocity=76 time=5
note_on channel=9 note=42 velocity=0 time=16
note_on channel=9 note=40 velocity=121 time=32
note_on channel=9 note=42 velocity=108 time=0
note_on channel=9 note=42 velocity=0 time=26
note_on channel=9 note=42 velocity=62 time=22
note_on channel=9 note=40 velocity=0 time=3
note_on channel=9 note=42 velocity=0 time=15
note_on channel=9 note=36 velocity=119 time=30
note_on channel=9 note=42 velocity=108 time=0
note_on channel=9 note=42 velocity=0 time=24
note_on channel=9 note=42 velocity=64 time=24
note_on channel=9 note=36 velocity=0 time=2
note_on channel=9 note=42 velocity=0 time=14
note_on channel=9 note=40 velocity=127 time=32
note_on channel=9 note=42 velocity=113 time=0
note_on channel=9 note=42 velocity=0 time=27
note_on channel=9 note=40 velocity=0 time=18
note_on channel=9 note=42 velocity=68 time=3
note_on channel=9 note=42 velocity=0 time=20
note_on channel=9 note=36 velocity=102 time=28
note_on channel=9 note=42 velocity=113 time=0
note_on channel=9 note=42 velocity=0 time=25
note_on channel=9 note=36 velocity=0 time=13
note_on channel=9 note=42 velocity=70 time=10
note_on channel=9 note=42 velocity=0 time=17
note_on channel=9 note=40 velocity=127 time=31
note_on channel=9 note=42 velocity=108 time=0
note_on channel=9 note=42 velocity=0 time=22
note_on channel=9 note=40 velocity=0 time=24
note_on channel=9 note=42 velocity=72 time=2
note_on channel=9 note=42 velocity=0 time=18
note_on channel=9 note=36 velocity=113 time=30
note_on channel=9 note=42 velocity=113 time=0
note_on channel=9 note=42 velocity=0 time=25
note_on channel=9 note=36 velocity=0 time=12
note_on channel=9 note=42 velocity=76 time=11
note_on channel=9 note=42 velocity=0 time=18
note_on channel=9 note=40 velocity=127 time=30
note_on channel=9 note=42 velocity=108 time=0
note_on channel=9 note=42 velocity=0 time=24
note_on channel=9 note=40 velocity=0 time=22
note_on channel=9 note=42 velocity=70 time=2
note_on channel=9 note=42 velocity=0 time=20
note_on channel=9 note=36 velocity=125 time=28
note_on channel=9 note=42 velocity=102 time=0
note_on channel=9 note=42 velocity=0 time=22
note_on channel=9 note=36 velocity=0 time=13
note_on channel=9 note=42 velocity=78 time=13
note_on channel=9 note=42 velocity=0 time=16
note_on channel=9 note=40 velocity=127 time=32
note_on channel=9 note=42 velocity=113 time=0
note_on channel=9 note=42 velocity=0 time=21
note_on channel=9 note=40 velocity=0 time=18
note_on channel=9 note=42 velocity=80 time=9
note_on channel=9 note=42 velocity=0 time=16
note_on channel=9 note=36 velocity=127 time=32
note_on channel=9 note=42 velocity=113 time=0
note_on channel=9 note=42 velocity=0 time=23
note_on channel=9 note=36 velocity=0 time=15
note_on channel=9 note=42 velocity=78 time=10
note_on channel=9 note=42 velocity=0 time=16
note_on channel=9 note=40 velocity=127 time=32
note_on channel=9 note=42 velocity=113 time=0
note_on channel=9 note=42 velocity=0 time=24
note_on channel=9 note=40 velocity=0 time=15
note_on channel=9 note=42 velocity=76 time=9
note_on channel=9 note=42 velocity=0 time=17
note_on channel=9 note=36 velocity=125 time=31
note_on channel=9 note=42 velocity=108 time=0
note_on channel=9 note=42 velocity=0 time=22
note_on channel=9 note=36 velocity=0 time=15
note_on channel=9 note=42 velocity=78 time=11
note_on channel=9 note=42 velocity=0 time=17
note_on channel=9 note=40 velocity=127 time=31
note_on channel=9 note=42 velocity=108 time=0
note_on channel=9 note=42 velocity=0 time=22
note_on channel=9 note=40 velocity=0 time=15
note_on channel=9 note=42 velocity=78 time=11
note_on channel=9 note=42 velocity=0 time=16
note_on channel=9 note=36 velocity=119 time=32
note_on channel=9 note=42 velocity=108 time=0
note_on channel=9 note=42 velocity=0 time=24
note_on channel=9 note=36 velocity=0 time=16
note_on channel=9 note=42 velocity=74 time=8
note_on channel=9 note=42 velocity=0 time=18
note_on channel=9 note=40 velocity=127 time=30
note_on channel=9 note=42 velocity=108 time=0
note_on channel=9 note=42 velocity=0 time=21
note_on channel=9 note=40 velocity=0 time=17
note_on channel=9 note=42 velocity=76 time=10
note_on channel=9 note=42 velocity=0 time=16
note_on channel=9 note=36 velocity=119 time=32
note_on channel=9 note=42 velocity=108 time=0
note_on channel=9 note=42 velocity=0 time=22
note_on channel=9 note=36 velocity=0 time=19
note_on channel=9 note=42 velocity=76 time=7
note_on channel=9 note=42 velocity=0 time=17
note_on channel=9 note=40 velocity=121 time=31
note_on channel=9 note=42 velocity=113 time=0
note_on channel=9 note=42 velocity=0 time=22
note_on channel=9 note=40 velocity=0 time=16
note_on channel=9 note=42 velocity=76 time=10
note_on channel=9 note=42 velocity=0 time=16
note_on channel=9 note=36 velocity=125 time=32
note_on channel=9 note=42 velocity=108 time=0
note_on channel=9 note=42 velocity=0 time=23
note_on channel=9 note=36 velocity=0 time=17
note_on channel=9 note=42 velocity=72 time=8
note_on channel=9 note=42 velocity=0 time=16
note_on channel=9 note=40 velocity=127 time=32
note_on channel=9 note=42 velocity=113 time=0
note_on channel=9 note=42 velocity=0 time=21
note_on channel=9 note=40 velocity=0 time=13
note_on channel=9 note=42 velocity=78 time=14
note_on channel=9 note=42 velocity=0 time=16
note_on channel=9 note=36 velocity=113 time=32
note_on channel=9 note=42 velocity=108 time=0
note_on channel=9 note=42 velocity=0 time=22
note_on channel=9 note=36 velocity=0 time=16
note_on channel=9 note=42 velocity=76 time=10
note_on channel=9 note=42 velocity=0 time=14
note_on channel=9 note=40 velocity=127 time=34
note_on channel=9 note=42 velocity=113 time=0
note_on channel=9 note=42 velocity=0 time=19
note_on channel=9 note=40 velocity=0 time=19
note_on channel=9 note=42 velocity=82 time=10
note_on channel=9 note=42 velocity=0 time=12
note_on channel=9 note=36 velocity=119 time=36
note_on channel=9 note=42 velocity=113 time=0
note_on channel=9 note=42 velocity=0 time=22
note_on channel=9 note=36 velocity=0 time=24
note_on channel=9 note=42 velocity=78 time=2
note_on channel=9 note=42 velocity=0 time=15
note_on channel=9 note=40 velocity=127 time=33
note_on channel=9 note=42 velocity=119 time=0
note_on channel=9 note=42 velocity=0 time=20
note_on channel=9 note=40 velocity=0 time=17
note_on channel=9 note=42 velocity=76 time=11
note_on channel=9 note=42 velocity=0 time=14
note_on channel=9 note=36 velocity=119 time=34
note_on channel=9 note=42 velocity=108 time=0
note_on channel=9 note=42 velocity=0 time=18
note_on channel=9 note=36 velocity=0 time=21
note_on channel=9 note=42 velocity=82 time=9
note_on channel=9 note=42 velocity=0 time=13
note_on channel=9 note=40 velocity=127 time=35
note_on channel=9 note=42 velocity=113 time=0
note_on channel=9 note=42 velocity=0 time=19
note_on channel=9 note=40 velocity=0 time=22
note_on channel=9 note=42 velocity=82 time=7
note_on channel=9 note=42 velocity=0 time=17
note_on channel=9 note=36 velocity=127 time=31
note_on channel=9 note=42 velocity=113 time=0
note_on channel=9 note=42 velocity=0 time=19
note_on channel=9 note=36 velocity=0 time=15
note_on channel=9 note=42 velocity=82 time=14
note_on channel=9 note=42 velocity=0 time=17
note_on channel=9 note=40 velocity=127 time=31
note_on channel=9 note=42 velocity=113 time=0
note_on channel=9 note=42 velocity=0 time=19
note_on channel=9 note=40 velocity=0 time=24
note_on channel=9 note=42 velocity=82 time=5
note_on channel=9 note=42 velocity=0 time=17
note_on channel=9 note=36 velocity=125 time=31
note_on channel=9 note=42 velocity=113 time=0
note_on channel=9 note=42 velocity=0 time=19
note_on channel=9 note=36 velocity=0 time=20
note_on channel=9 note=42 velocity=82 time=9
note_on channel=9 note=42 velocity=0 time=17
note_on channel=9 note=40 velocity=127 time=31
note_on channel=9 note=42 velocity=115 time=0
note_on channel=9 note=40 velocity=0 time=5
note_on channel=9 note=40 velocity=127 time=0
note_on channel=9 note=42 velocity=0 time=12
note_on channel=9 note=40 velocity=0 time=21
note_on channel=9 note=42 velocity=115 time=10
note_on channel=9 note=42 velocity=0 time=17
note_on channel=9 note=36 velocity=125 time=31
note_on channel=9 note=42 velocity=102 time=0
note_on channel=9 note=49 velocity=98 time=0
note_on channel=9 note=42 velocity=0 time=25
note_on channel=9 note=42 velocity=69 time=23
note_on channel=9 note=36 velocity=0 time=3
note_on channel=9 note=42 velocity=0 time=18
note_on channel=9 note=40 velocity=127 time=27
note_on channel=9 note=42 velocity=102 time=0
note_on channel=9 note=42 velocity=0 time=25
note_on channel=9 note=49 velocity=0 time=12
note_on channel=9 note=40 velocity=0 time=8
note_on channel=9 note=42 velocity=65 time=3
note_on channel=9 note=42 velocity=0 time=22
note_on channel=9 note=36 velocity=113 time=26
note_on channel=9 note=42 velocity=102 time=0
note_on channel=9 note=42 velocity=0 time=28
note_on channel=9 note=36 velocity=0 time=12
note_on channel=9 note=42 velocity=76 time=8
note_on channel=9 note=42 velocity=0 time=16
note_on channel=9 note=40 velocity=127 time=32
note_on channel=9 note=42 velocity=108 time=0
note_on channel=9 note=42 velocity=0 time=26
note_on channel=9 note=40 velocity=0 time=11
note_on channel=9 note=42 velocity=69 time=11
note_on channel=9 note=42 velocity=0 time=18
note_on channel=9 note=36 velocity=108 time=30
note_on channel=9 note=42 velocity=108 time=0
note_on channel=9 note=42 velocity=0 time=24
note_on channel=9 note=36 velocity=0 time=10
note_on channel=9 note=42 velocity=71 time=14
note_on channel=9 note=42 velocity=0 time=16
note_on channel=9 note=40 velocity=127 time=32
note_on channel=9 note=42 velocity=113 time=0
note_on channel=9 note=42 velocity=0 time=27
note_on channel=9 note=40 velocity=0 time=11
note_on channel=9 note=42 velocity=68 time=10
note_on channel=9 note=42 velocity=0 time=20
note_on channel=9 note=36 velocity=113 time=28
note_on channel=9 note=42 velocity=113 time=0
note_on channel=9 note=42 velocity=0 time=25
note_on channel=9 note=36 velocity=0 time=10
note_on channel=9 note=42 velocity=70 time=13
note_on channel=9 note=42 velocity=0 time=17
note_on channel=9 note=40 velocity=127 time=31
note_on channel=9 note=42 velocity=108 time=0
note_on channel=9 note=42 velocity=0 time=22
note_on channel=9 note=40 velocity=0 time=13
note_on channel=9 note=42 velocity=72 time=13
note_on channel=9 note=42 velocity=0 time=18
note_on channel=9 note=36 velocity=108 time=30
note_on channel=9 note=42 velocity=113 time=0
note_on channel=9 note=42 velocity=0 time=25
note_on channel=9 note=36 velocity=0 time=14
note_on channel=9 note=42 velocity=76 time=9
note_on channel=9 note=42 velocity=0 time=18
note_on channel=9 note=40 velocity=121 time=30
note_on channel=9 note=42 velocity=108 time=0
note_on channel=9 note=42 velocity=0 time=24
note_on channel=9 note=40 velocity=0 time=6
note_on channel=9 note=42 velocity=70 time=18
note_on channel=9 note=42 velocity=0 time=20
note_on channel=9 note=36 velocity=102 time=28
note_on channel=9 note=42 velocity=102 time=0
note_on channel=9 note=42 velocity=0 time=22
note_on channel=9 note=36 velocity=0 time=18
note_on channel=9 note=42 velocity=78 time=8
note_on channel=9 note=42 velocity=0 time=16
note_on channel=9 note=40 velocity=127 time=32
note_on channel=9 note=42 velocity=113 time=0
note_on channel=9 note=42 velocity=0 time=21
note_on channel=9 note=40 velocity=0 time=12
note_on channel=9 note=42 velocity=80 time=15
note_on channel=9 note=42 velocity=0 time=16
note_on channel=9 note=36 velocity=119 time=32
note_on channel=9 note=42 velocity=113 time=0
note_on channel=9 note=42 velocity=0 time=23
note_on channel=9 note=36 velocity=0 time=17
note_on channel=9 note=42 velocity=78 time=8
note_on channel=9 note=42 velocity=0 time=16
note_on channel=9 note=40 velocity=121 time=32
note_on channel=9 note=42 velocity=113 time=0
note_on channel=9 note=42 velocity=0 time=24
note_on channel=9 note=40 velocity=0 time=13
note_on channel=9 note=42 velocity=76 time=11
note_on channel=9 note=42 velocity=0 time=17
note_on channel=9 note=36 velocity=119 time=31
note_on channel=9 note=42 velocity=108 time=0
note_on channel=9 note=42 velocity=0 time=22
note_on channel=9 note=36 velocity=0 time=21
note_on channel=9 note=42 velocity=78 time=5
note_on channel=9 note=42 velocity=0 time=17
note_on channel=9 note=40 velocity=121 time=31
note_on channel=9 note=42 velocity=111 time=0
note_on channel=9 note=42 velocity=0 time=22
note_on channel=9 note=40 velocity=0 time=7
note_on channel=9 note=46 velocity=97 time=19
note_on channel=9 note=46 velocity=0 time=16
note_on channel=9 note=36 velocity=108 time=32
note_on channel=9 note=42 velocity=111 time=0
note_on channel=9 note=42 velocity=0 time=24
note_on channel=9 note=36 velocity=0 time=8
note_on channel=9 note=42 velocity=74 time=16
note_on channel=9 note=42 velocity=0 time=18
note_on channel=9 note=40 velocity=127 time=30
note_on channel=9 note=42 velocity=108 time=0
note_on channel=9 note=42 velocity=0 time=21
note_on channel=9 note=40 velocity=0 time=11
note_on channel=9 note=42 velocity=76 time=16
note_on channel=9 note=42 velocity=0 time=16
note_on channel=9 note=36 velocity=113 time=32
note_on channel=9 note=42 velocity=108 time=0
note_on channel=9 note=42 velocity=0 time=22
note_on channel=9 note=36 velocity=0 time=16
note_on channel=9 note=42 velocity=76 time=10
note_on channel=9 note=42 velocity=0 time=17
note_on channel=9 note=40 velocity=127 time=31
note_on channel=9 note=42 velocity=113 time=0
note_on channel=9 note=42 velocity=0 time=22
note_on channel=9 note=40 velocity=0 time=13
note_on channel=9 note=42 velocity=76 time=13
note_on channel=9 note=42 velocity=0 time=16
note_on channel=9 note=36 velocity=113 time=32
note_on channel=9 note=42 velocity=108 time=0
note_on channel=9 note=42 velocity=0 time=23
note_on channel=9 note=36 velocity=0 time=12
note_on channel=9 note=42 velocity=72 time=13
note_on channel=9 note=42 velocity=0 time=16
note_on channel=9 note=40 velocity=127 time=32
note_on channel=9 note=42 velocity=113 time=0
note_on channel=9 note=42 velocity=0 time=21
note_on channel=9 note=40 velocity=0 time=16
note_on channel=9 note=42 velocity=78 time=11
note_on channel=9 note=42 velocity=0 time=16
note_on channel=9 note=36 velocity=119 time=32
note_on channel=9 note=42 velocity=108 time=0
note_on channel=9 note=42 velocity=0 time=22
note_on channel=9 note=36 velocity=0 time=8
note_on channel=9 note=42 velocity=76 time=18
note_on channel=9 note=42 velocity=0 time=14
note_on channel=9 note=40 velocity=127 time=34
note_on channel=9 note=42 velocity=113 time=0
note_on channel=9 note=42 velocity=0 time=19
note_on channel=9 note=40 velocity=0 time=15
note_on channel=9 note=42 velocity=82 time=14
note_on channel=9 note=42 velocity=0 time=12
note_on channel=9 note=36 velocity=119 time=36
note_on channel=9 note=42 velocity=113 time=0
note_on channel=9 note=42 velocity=0 time=22
note_on channel=9 note=36 velocity=0 time=21
note_on channel=9 note=42 velocity=78 time=5
note_on channel=9 note=42 velocity=0 time=15
note_on channel=9 note=40 velocity=127 time=33
note_on channel=9 note=42 velocity=119 time=0
note_on channel=9 note=42 velocity=0 time=20
note_on channel=9 note=40 velocity=0 time=21
note_on channel=9 note=42 velocity=76 time=7
note_on channel=9 note=42 velocity=0 time=14
note_on channel=9 note=36 velocity=113 time=34
note_on channel=9 note=42 velocity=108 time=0
note_on channel=9 note=42 velocity=0 time=18
note_on channel=9 note=36 velocity=0 time=13
note_on channel=9 note=42 velocity=82 time=17
note_on channel=9 note=42 velocity=0 time=13
note_on channel=9 note=40 velocity=127 time=35
note_on channel=9 note=42 velocity=113 time=0
note_on channel=9 note=42 velocity=0 time=19
note_on channel=9 note=40 velocity=0 time=27
note_on channel=9 note=42 velocity=82 time=2
note_on channel=9 note=42 velocity=0 time=17
note_on channel=9 note=36 velocity=119 time=31
note_on channel=9 note=42 velocity=113 time=0
note_on channel=9 note=42 velocity=0 time=22
note_on channel=9 note=36 velocity=0 time=21
note_on channel=9 note=42 velocity=78 time=5
note_on channel=9 note=42 velocity=0 time=15
note_on channel=9 note=40 velocity=127 time=33
note_on channel=9 note=42 velocity=119 time=0
note_on channel=9 note=42 velocity=0 time=20
note_on channel=9 note=40 velocity=0 time=21
note_on channel=9 note=42 velocity=76 time=7
note_on channel=9 note=42 velocity=0 time=14
note_on channel=9 note=36 velocity=113 time=34
note_on channel=9 note=42 velocity=108 time=0
note_on channel=9 note=42 velocity=0 time=18
note_on channel=9 note=36 velocity=0 time=13
note_on channel=9 note=42 velocity=82 time=17
note_on channel=9 note=42 velocity=0 time=13
note_on channel=9 note=40 velocity=127 time=35
note_on channel=9 note=42 velocity=113 time=0
note_on channel=9 note=42 velocity=0 time=19
note_on channel=9 note=40 velocity=0 time=27
note_on channel=9 note=42 velocity=82 time=2
note_on channel=9 note=42 velocity=0 time=17
note_on channel=9 note=40 velocity=117 time=31
note_on channel=9 note=40 velocity=0 time=13
note_on channel=9 note=40 velocity=127 time=11
note_on channel=9 note=40 velocity=0 time=16
note_on channel=9 note=40 velocity=121 time=32
note_on channel=9 note=40 velocity=0 time=12
note_on channel=9 note=40 velocity=127 time=12
note_on channel=9 note=40 velocity=0 time=16
note_on channel=9 note=40 velocity=127 time=8
note_on channel=9 note=40 velocity=0 time=16
note_on channel=9 note=43 velocity=98 time=8
note_on channel=9 note=43 velocity=0 time=15
note_on channel=9 note=41 velocity=115 time=9
note_on channel=9 note=36 velocity=113 time=24
note_on channel=9 note=40 velocity=127 time=0
note_on channel=9 note=41 velocity=0 time=2
note_on channel=9 note=40 velocity=0 time=14
note_on channel=9 note=36 velocity=0 time=15
note_on channel=9 note=36 velocity=125 time=161
note_on channel=9 note=42 velocity=102 time=0
note_on channel=9 note=42 velocity=0 time=25
note_on channel=9 note=36 velocity=0 time=22
note_on channel=9 note=42 velocity=57 time=1
note_on channel=9 note=42 velocity=0 time=21
note_on channel=9 note=40 velocity=127 time=27
note_on channel=9 note=42 velocity=102 time=0
note_on channel=9 note=42 velocity=0 time=25
note_on channel=9 note=42 velocity=51 time=23
note_on channel=9 note=40 velocity=0 time=8
note_on channel=9 note=42 velocity=0 time=14
note_on channel=9 note=36 velocity=119 time=26
note_on channel=9 note=42 velocity=102 time=0
note_on channel=9 note=42 velocity=0 time=28
note_on channel=9 note=36 velocity=0 time=10
note_on channel=9 note=42 velocity=76 time=10
note_on channel=9 note=42 velocity=0 time=16
note_on channel=9 note=40 velocity=121 time=32
note_on channel=9 note=42 velocity=108 time=0
note_on channel=9 note=42 velocity=0 time=26
note_on channel=9 note=40 velocity=0 time=16
note_on channel=9 note=42 velocity=62 time=6
note_on channel=9 note=42 velocity=0 time=18
note_on channel=9 note=36 velocity=113 time=30
note_on channel=9 note=42 velocity=108 time=0
note_on channel=9 note=42 velocity=0 time=24
note_on channel=9 note=36 velocity=0 time=10
note_on channel=9 note=42 velocity=64 time=14
note_on channel=9 note=42 velocity=0 time=16
note_on channel=9 note=40 velocity=127 time=32
note_on channel=9 note=42 velocity=113 time=0
note_on channel=9 note=42 velocity=0 time=27
note_on channel=9 note=40 velocity=0 time=15
note_on channel=9 note=42 velocity=68 time=6
note_on channel=9 note=42 velocity=0 time=20
note_on channel=9 note=36 velocity=119 time=28
note_on channel=9 note=42 velocity=113 time=0
note_on channel=9 note=42 velocity=0 time=25
note_on channel=9 note=36 velocity=0 time=5
note_on channel=9 note=42 velocity=70 time=18
note_on channel=9 note=42 velocity=0 time=17
note_on channel=9 note=40 velocity=127 time=31
note_on channel=9 note=42 velocity=108 time=0
note_on channel=9 note=42 velocity=0 time=22
note_on channel=9 note=40 velocity=0 time=12
note_on channel=9 note=42 velocity=72 time=14
note_on channel=9 note=42 velocity=0 time=18
note_on channel=9 note=36 velocity=125 time=30
note_on channel=9 note=42 velocity=102 time=0
note_on channel=9 note=42 velocity=0 time=25
note_on channel=9 note=36 velocity=0 time=22
note_on channel=9 note=42 velocity=79 time=1
note_on channel=9 note=42 velocity=0 time=21
note_on channel=9 note=40 velocity=127 time=27
note_on channel=9 note=42 velocity=102 time=0
note_on channel=9 note=54 velocity=106 time=0
note_on channel=9 note=42 velocity=0 time=25
note_on channel=9 note=54 velocity=0 time=22
note_on channel=9 note=42 velocity=81 time=1
note_on channel=9 note=40 velocity=0 time=1
note_on channel=9 note=42 velocity=0 time=21
note_on channel=9 note=36 velocity=125 time=26
note_on channel=9 note=42 velocity=102 time=0
note_on channel=9 note=42 velocity=0 time=28
note_on channel=9 note=36 velocity=0 time=19
note_on channel=9 note=42 velocity=83 time=1
note_on channel=9 note=42 velocity=0 time=16
note_on channel=9 note=40 velocity=127 time=32
note_on channel=9 note=42 velocity=108 time=0
note_on channel=9 note=42 velocity=0 time=26
note_on channel=9 note=40 velocity=0 time=21
note_on channel=9 note=42 velocity=83 time=1
note_on channel=9 note=42 velocity=0 time=18
note_on channel=9 note=36 velocity=119 time=30
note_on channel=9 note=42 velocity=109 time=0
note_on channel=9 note=42 velocity=0 time=24
note_on channel=9 note=36 velocity=0 time=22
note_on channel=9 note=42 velocity=83 time=2
note_on channel=9 note=42 velocity=0 time=16
note_on channel=9 note=40 velocity=121 time=32
note_on channel=9 note=42 velocity=113 time=0
note_on channel=9 note=54 velocity=106 time=0
note_on channel=9 note=42 velocity=0 time=27
note_on channel=9 note=40 velocity=0 time=19
note_on channel=9 note=42 velocity=83 time=2
note_on channel=9 note=54 velocity=0 time=5
note_on channel=9 note=42 velocity=0 time=15
note_on channel=9 note=36 velocity=119 time=28
note_on channel=9 note=42 velocity=113 time=0
note_on channel=9 note=42 velocity=0 time=25
note_on channel=9 note=36 velocity=0 time=16
note_on channel=9 note=42 velocity=87 time=7
note_on channel=9 note=42 velocity=0 time=17
note_on channel=9 note=40 velocity=127 time=31
note_on channel=9 note=42 velocity=108 time=0
note_on channel=9 note=42 velocity=0 time=22
note_on channel=9 note=40 velocity=0 time=17
note_on channel=9 note=42 velocity=85 time=9
note_on channel=9 note=42 velocity=0 time=18
note_on channel=9 note=36 velocity=113 time=30
note_on channel=9 note=42 velocity=113 time=0
note_on channel=9 note=42 velocity=0 time=25
note_on channel=9 note=36 velocity=0 time=22
note_on channel=9 note=42 velocity=76 time=1
note_on channel=9 note=42 velocity=0 time=18
note_on channel=9 note=40 velocity=121 time=30
note_on channel=9 note=42 velocity=108 time=0
note_on channel=9 note=54 velocity=106 time=0
note_on channel=9 note=42 velocity=0 time=24
note_on channel=9 note=40 velocity=0 time=19
note_on channel=9 note=54 velocity=0 time=5
note_on channel=9 note=42 velocity=81 time=0
note_on channel=9 note=42 velocity=0 time=20
note_on channel=9 note=36 velocity=108 time=28
note_on channel=9 note=42 velocity=102 time=0
note_on channel=9 note=42 velocity=0 time=22
note_on channel=9 note=36 velocity=0 time=18
note_on channel=9 note=42 velocity=78 time=8
note_on channel=9 note=42 velocity=0 time=16
note_on channel=9 note=40 velocity=127 time=32
note_on channel=9 note=42 velocity=113 time=0
note_on channel=9 note=42 velocity=0 time=21
note_on channel=9 note=40 velocity=0 time=25
note_on channel=9 note=42 velocity=80 time=2
note_on channel=9 note=42 velocity=0 time=16
note_on channel=9 note=36 velocity=125 time=32
note_on channel=9 note=42 velocity=113 time=0
note_on channel=9 note=42 velocity=0 time=23
note_on channel=9 note=36 velocity=0 time=19
note_on channel=9 note=42 velocity=78 time=6
note_on channel=9 note=42 velocity=0 time=16
note_on channel=9 note=40 velocity=127 time=32
note_on channel=9 note=42 velocity=113 time=0
note_on channel=9 note=54 velocity=100 time=0
note_on channel=9 note=42 velocity=0 time=24
note_on channel=9 note=54 velocity=0 time=22
note_on channel=9 note=42 velocity=76 time=2
note_on channel=9 note=40 velocity=0 time=2
note_on channel=9 note=42 velocity=0 time=15
note_on channel=9 note=36 velocity=119 time=31
note_on channel=9 note=42 velocity=108 time=0
note_on channel=9 note=42 velocity=0 time=22
note_on channel=9 note=42 velocity=78 time=26
note_on channel=9 note=36 velocity=0 time=1
note_on channel=9 note=42 velocity=0 time=16
note_on channel=9 note=36 velocity=91 time=7
note_on channel=9 note=36 velocity=0 time=20
note_on channel=9 note=40 velocity=121 time=4
note_on channel=9 note=42 velocity=108 time=0
note_on channel=9 note=42 velocity=0 time=22
note_on channel=9 note=42 velocity=78 time=26
note_on channel=9 note=40 velocity=0 time=11
note_on channel=9 note=42 velocity=0 time=5
note_on channel=9 note=36 velocity=119 time=32
note_on channel=9 note=42 velocity=108 time=0
note_on channel=9 note=49 velocity=98 time=0
note_on channel=9 note=42 velocity=0 time=24
note_on channel=9 note=42 velocity=74 time=24
note_on channel=9 note=36 velocity=0 time=2
note_on channel=9 note=42 velocity=0 time=16
note_on channel=9 note=40 velocity=121 time=30
note_on channel=9 note=42 velocity=108 time=0
note_on channel=9 note=54 velocity=106 time=0
note_on channel=9 note=42 velocity=0 time=21
note_on channel=9 note=49 velocity=0 time=16
note_on channel=9 note=54 velocity=0 time=10
note_on channel=9 note=42 velocity=76 time=1
note_on channel=9 note=40 velocity=0 time=8
note_on channel=9 note=42 velocity=0 time=8
note_on channel=9 note=36 velocity=119 time=32
note_on channel=9 note=42 velocity=108 time=0
note_on channel=9 note=42 velocity=0 time=22
note_on channel=9 note=36 velocity=0 time=26
note_on channel=9 note=42 velocity=76 time=0
note_on channel=9 note=42 velocity=0 time=17
note_on channel=9 note=40 velocity=121 time=31
note_on channel=9 note=42 velocity=113 time=0
note_on channel=9 note=42 velocity=0 time=22
note_on channel=9 note=42 velocity=76 time=26
note_on channel=9 note=40 velocity=0 time=2
note_on channel=9 note=42 velocity=0 time=14
note_on channel=9 note=36 velocity=108 time=32
note_on channel=9 note=42 velocity=108 time=0
note_on channel=9 note=42 velocity=0 time=23
note_on channel=9 note=36 velocity=0 time=23
note_on channel=9 note=42 velocity=72 time=2
note_on channel=9 note=42 velocity=0 time=16
note_on channel=9 note=40 velocity=127 time=32
note_on channel=9 note=42 velocity=113 time=0
note_on channel=9 note=54 velocity=106 time=0
note_on channel=9 note=42 velocity=0 time=21
note_on channel=9 note=40 velocity=0 time=26
note_on channel=9 note=42 velocity=78 time=1
note_on channel=9 note=54 velocity=0 time=5
note_on channel=9 note=42 velocity=0 time=11
note_on channel=9 note=36 velocity=119 time=32
note_on channel=9 note=42 velocity=108 time=0
note_on channel=9 note=42 velocity=0 time=22
note_on channel=9 note=42 velocity=76 time=26
note_on channel=9 note=36 velocity=0 time=9
note_on channel=9 note=42 velocity=0 time=5
note_on channel=9 note=40 velocity=127 time=34
note_on channel=9 note=42 velocity=113 time=0
note_on channel=9 note=42 velocity=0 time=19
note_on channel=9 note=42 velocity=82 time=29
note_on channel=9 note=40 velocity=0 time=2
note_on channel=9 note=42 velocity=0 time=10
note_on channel=9 note=36 velocity=102 time=36
note_on channel=9 note=42 velocity=113 time=0
note_on channel=9 note=42 velocity=0 time=22
note_on channel=9 note=36 velocity=0 time=21
note_on channel=9 note=42 velocity=78 time=5
note_on channel=9 note=42 velocity=0 time=15
note_on channel=9 note=40 velocity=127 time=33
note_on channel=9 note=42 velocity=119 time=0
note_on channel=9 note=54 velocity=106 time=0
note_on channel=9 note=42 velocity=0 time=20
note_on channel=9 note=54 velocity=0 time=28
note_on channel=9 note=42 velocity=76 time=0
note_on channel=9 note=40 velocity=0 time=4
note_on channel=9 note=42 velocity=0 time=10
note_on channel=9 note=36 velocity=113 time=34
note_on channel=9 note=42 velocity=108 time=0
note_on channel=9 note=42 velocity=0 time=18
note_on channel=9 note=36 velocity=0 time=29
note_on channel=9 note=42 velocity=82 time=1
note_on channel=9 note=42 velocity=0 time=13
note_on channel=9 note=40 velocity=127 time=35
note_on channel=9 note=42 velocity=113 time=0
note_on channel=9 note=42 velocity=0 time=19
note_on channel=9 note=42 velocity=82 time=29
note_on channel=9 note=40 velocity=0 time=1
note_on channel=9 note=42 velocity=0 time=16
note_on channel=9 note=36 velocity=113 time=31
note_on channel=9 note=42 velocity=113 time=0
note_on channel=9 note=42 velocity=0 time=19
note_on channel=9 note=36 velocity=0 time=27
note_on channel=9 note=42 velocity=82 time=2
note_on channel=9 note=42 velocity=0 time=17
note_on channel=9 note=40 velocity=127 time=31
note_on channel=9 note=42 velocity=113 time=0
note_on channel=9 note=54 velocity=100 time=0
note_on channel=9 note=42 velocity=0 time=19
note_on channel=9 note=54 velocity=0 time=27
note_on channel=9 note=42 velocity=82 time=2
note_on channel=9 note=40 velocity=0 time=9
note_on channel=9 note=42 velocity=0 time=8
note_on channel=9 note=36 velocity=113 time=31
note_on channel=9 note=42 velocity=113 time=0
note_on channel=9 note=42 velocity=0 time=19
note_on channel=9 note=36 velocity=0 time=28
note_on channel=9 note=42 velocity=82 time=1
note_on channel=9 note=42 velocity=0 time=17
note_on channel=9 note=36 velocity=84 time=7
note_on channel=9 note=40 velocity=127 time=24
note_on channel=9 note=42 velocity=115 time=0
note_on channel=9 note=36 velocity=0 time=1
note_on channel=9 note=42 velocity=0 time=16
note_on channel=9 note=40 velocity=0 time=18
note_on channel=9 note=36 velocity=96 time=13
note_on channel=9 note=42 velocity=115 time=0
note_on channel=9 note=42 velocity=0 time=17
note_on channel=9 note=36 velocity=0 time=8
note_on channel=9 note=36 velocity=119 time=23
note_on channel=9 note=42 velocity=102 time=0
note_on channel=9 note=49 velocity=98 time=0
note_on channel=9 note=42 velocity=0 time=25
note_on channel=9 note=36 velocity=0 time=20
note_on channel=9 note=42 velocity=75 time=3
note_on channel=9 note=42 velocity=0 time=21
note_on channel=9 note=40 velocity=127 time=27
note_on channel=9 note=42 velocity=102 time=0
note_on channel=9 note=54 velocity=106 time=0
note_on channel=9 note=42 velocity=0 time=25
note_on channel=9 note=49 velocity=0 time=12
note_on channel=9 note=40 velocity=0 time=9
note_on channel=9 note=54 velocity=0 time=1
note_on channel=9 note=42 velocity=71 time=1
note_on channel=9 note=42 velocity=0 time=22
note_on channel=9 note=36 velocity=102 time=26
note_on channel=9 note=42 velocity=102 time=0
note_on channel=9 note=42 velocity=0 time=28
note_on channel=9 note=42 velocity=76 time=20
note_on channel=9 note=36 velocity=0 time=3
note_on channel=9 note=42 velocity=0 time=13
note_on channel=9 note=40 velocity=121 time=32
note_on channel=9 note=42 velocity=108 time=0
note_on channel=9 note=42 velocity=0 time=26
note_on channel=9 note=40 velocity=0 time=22
note_on channel=9 note=42 velocity=71 time=0
note_on channel=9 note=42 velocity=0 time=18
note_on channel=9 note=36 velocity=119 time=30
note_on channel=9 note=42 velocity=108 time=0
note_on channel=9 note=42 velocity=0 time=24
note_on channel=9 note=36 velocity=0 time=20
note_on channel=9 note=42 velocity=73 time=4
note_on channel=9 note=42 velocity=0 time=16
note_on channel=9 note=40 velocity=121 time=32
note_on channel=9 note=42 velocity=113 time=0
note_on channel=9 note=54 velocity=106 time=0
note_on channel=9 note=42 velocity=0 time=27
note_on channel=9 note=40 velocity=0 time=15
note_on channel=9 note=42 velocity=81 time=6
note_on channel=9 note=54 velocity=0 time=5
note_on channel=9 note=42 velocity=0 time=15
note_on channel=9 note=36 velocity=119 time=28
note_on channel=9 note=42 velocity=113 time=0
note_on channel=9 note=42 velocity=0 time=25
note_on channel=9 note=36 velocity=0 time=13
note_on channel=9 note=42 velocity=70 time=10
note_on channel=9 note=42 velocity=0 time=17
note_on channel=9 note=40 velocity=127 time=31
note_on channel=9 note=42 velocity=108 time=0
note_on channel=9 note=42 velocity=0 time=22
note_on channel=9 note=40 velocity=0 time=23
note_on channel=9 note=42 velocity=72 time=3
note_on channel=9 note=42 velocity=0 time=18
note_on channel=9 note=36 velocity=113 time=30
note_on channel=9 note=42 velocity=113 time=0
note_on channel=9 note=42 velocity=0 time=25
note_on channel=9 note=36 velocity=0 time=15
note_on channel=9 note=42 velocity=76 time=8
note_on channel=9 note=42 velocity=0 time=18
note_on channel=9 note=40 velocity=127 time=30
note_on channel=9 note=42 velocity=108 time=0
note_on channel=9 note=54 velocity=106 time=0
note_on channel=9 note=42 velocity=0 time=24
note_on channel=9 note=54 velocity=0 time=24
note_on channel=9 note=40 velocity=0 time=0
note_on channel=9 note=42 velocity=70 time=0
note_on channel=9 note=42 velocity=0 time=20
note_on channel=9 note=36 velocity=108 time=28
note_on channel=9 note=42 velocity=102 time=0
note_on channel=9 note=42 velocity=0 time=22
note_on channel=9 note=36 velocity=0 time=22
note_on channel=9 note=42 velocity=78 time=4
note_on channel=9 note=42 velocity=0 time=16
note_on channel=9 note=40 velocity=127 time=32
note_on channel=9 note=42 velocity=113 time=0
note_on channel=9 note=42 velocity=0 time=21
note_on channel=9 note=40 velocity=0 time=22
note_on channel=9 note=42 velocity=80 time=5
note_on channel=9 note=42 velocity=0 time=16
note_on channel=9 note=36 velocity=108 time=32
note_on channel=9 note=42 velocity=113 time=0
note_on channel=9 note=42 velocity=0 time=23
note_on channel=9 note=36 velocity=0 time=16
note_on channel=9 note=42 velocity=78 time=9
note_on channel=9 note=42 velocity=0 time=16
note_on channel=9 note=40 velocity=127 time=32
note_on channel=9 note=42 velocity=113 time=0
note_on channel=9 note=54 velocity=100 time=0
note_on channel=9 note=42 velocity=0 time=24
note_on channel=9 note=54 velocity=0 time=22
note_on channel=9 note=42 velocity=76 time=2
note_on channel=9 note=40 velocity=0 time=9
note_on channel=9 note=42 velocity=0 time=8
note_on channel=9 note=36 velocity=113 time=31
note_on channel=9 note=42 velocity=108 time=0
note_on channel=9 note=42 velocity=0 time=22
note_on channel=9 note=42 velocity=78 time=26
note_on channel=9 note=36 velocity=0 time=5
note_on channel=9 note=42 velocity=0 time=12
note_on channel=9 note=36 velocity=72 time=7
note_on channel=9 note=36 velocity=0 time=20
note_on channel=9 note=40 velocity=127 time=4
note_on channel=9 note=42 velocity=108 time=0
note_on channel=9 note=42 velocity=0 time=22
note_on channel=9 note=46 velocity=103 time=26
note_on channel=9 note=40 velocity=0 time=7
note_on channel=9 note=46 velocity=0 time=9
note_on channel=9 note=36 velocity=119 time=32
note_on channel=9 note=42 velocity=108 time=0
note_on channel=9 note=49 velocity=98 time=0
note_on channel=9 note=42 velocity=0 time=24
note_on channel=9 note=36 velocity=0 time=18
note_on channel=9 note=42 velocity=74 time=6
note_on channel=9 note=42 velocity=0 time=18
note_on channel=9 note=40 velocity=121 time=30
note_on channel=9 note=42 velocity=108 time=0
note_on channel=9 note=54 velocity=106 time=0
note_on channel=9 note=42 velocity=0 time=21
note_on channel=9 note=49 velocity=0 time=16
note_on channel=9 note=54 velocity=0 time=10
note_on channel=9 note=42 velocity=76 time=1
note_on channel=9 note=40 velocity=0 time=1
note_on channel=9 note=42 velocity=0 time=15
note_on channel=9 note=36 velocity=119 time=32
note_on channel=9 note=42 velocity=108 time=0
note_on channel=9 note=42 velocity=0 time=22
note_on channel=9 note=42 velocity=76 time=26
note_on channel=9 note=36 velocity=0 time=1
note_on channel=9 note=42 velocity=0 time=16
note_on channel=9 note=40 velocity=121 time=31
note_on channel=9 note=42 velocity=113 time=0
note_on channel=9 note=42 velocity=0 time=22
note_on channel=9 note=40 velocity=0 time=24
note_on channel=9 note=42 velocity=76 time=2
note_on channel=9 note=42 velocity=0 time=16
note_on channel=9 note=36 velocity=119 time=32
note_on channel=9 note=42 velocity=108 time=0
note_on channel=9 note=42 velocity=0 time=23
note_on channel=9 note=36 velocity=0 time=12
note_on channel=9 note=42 velocity=72 time=13
note_on channel=9 note=42 velocity=0 time=16
note_on channel=9 note=40 velocity=127 time=32
note_on channel=9 note=42 velocity=113 time=0
note_on channel=9 note=54 velocity=106 time=0
note_on channel=9 note=42 velocity=0 time=21
note_on channel=9 note=40 velocity=0 time=25
note_on channel=9 note=42 velocity=78 time=2
note_on channel=9 note=54 velocity=0 time=5
note_on channel=9 note=42 velocity=0 time=11
note_on channel=9 note=36 velocity=119 time=32
note_on channel=9 note=42 velocity=108 time=0
note_on channel=9 note=42 velocity=0 time=22
note_on channel=9 note=36 velocity=0 time=20
note_on channel=9 note=42 velocity=76 time=6
note_on channel=9 note=42 velocity=0 time=14
note_on channel=9 note=40 velocity=127 time=34
note_on channel=9 note=42 velocity=113 time=0
note_on channel=9 note=42 velocity=0 time=19
note_on channel=9 note=40 velocity=0 time=25
note_on channel=9 note=42 velocity=82 time=4
note_on channel=9 note=42 velocity=0 time=12
note_on channel=9 note=36 velocity=108 time=36
note_on channel=9 note=42 velocity=113 time=0
note_on channel=9 note=42 velocity=0 time=22
control_change channel=9 control=7 value=127 time=2
note_on channel=9 note=36 velocity=0 time=18
control_change channel=9 control=7 value=125 time=6
note_on channel=9 note=42 velocity=78 time=0
note_on channel=9 note=42 velocity=0 time=15
control_change channel=9 control=7 value=125 time=9
control_change channel=9 control=7 value=123 time=24
note_on channel=9 note=40 velocity=127 time=0
note_on channel=9 note=42 velocity=119 time=0
note_on channel=9 note=54 velocity=106 time=0
note_on channel=9 note=42 velocity=0 time=20
control_change channel=9 control=7 value=123 time=4
note_on channel=9 note=54 velocity=0 time=24
control_change channel=9 control=7 value=123 time=0
note_on channel=9 note=42 velocity=76 time=0
note_on channel=9 note=40 velocity=0 time=1
note_on channel=9 note=42 velocity=0 time=13
control_change channel=9 control=7 value=121 time=10
control_change channel=9 control=7 value=119 time=24
note_on channel=9 note=36 velocity=125 time=0
note_on channel=9 note=42 velocity=108 time=0
note_on channel=9 note=42 velocity=0 time=18
control_change channel=9 control=7 value=119 time=6
note_on channel=9 note=36 velocity=0 time=15
control_change channel=9 control=7 value=119 time=9
note_on channel=9 note=42 velocity=82 time=0
note_on channel=9 note=42 velocity=0 time=13
control_change channel=9 control=7 value=119 time=11
control_change channel=9 control=7 value=119 time=24
note_on channel=9 note=40 velocity=127 time=0
note_on channel=9 note=42 velocity=113 time=0
note_on channel=9 note=42 velocity=0 time=19
control_change channel=9 control=7 value=117 time=5
control_change channel=9 control=7 value=117 time=24
note_on channel=9 note=42 velocity=82 time=0
note_on channel=9 note=40 velocity=0 time=1
note_on channel=9 note=42 velocity=0 time=16
control_change channel=9 control=7 value=115 time=7
control_change channel=9 control=7 value=117 time=24
note_on channel=9 note=36 velocity=119 time=0
note_on channel=9 note=42 velocity=113 time=0
note_on channel=9 note=42 velocity=0 time=19
control_change channel=9 control=7 value=113 time=5
note_on channel=9 note=36 velocity=0 time=11
control_change channel=9 control=7 value=113 time=13
note_on channel=9 note=42 velocity=82 time=0
note_on channel=9 note=42 velocity=0 time=17
control_change channel=9 control=7 value=109 time=7
control_change channel=9 control=7 value=109 time=24
note_on channel=9 note=40 velocity=127 time=0
note_on channel=9 note=42 velocity=113 time=0
note_on channel=9 note=54 velocity=100 time=0
note_on channel=9 note=42 velocity=0 time=19
control_change channel=9 control=7 value=107 time=5
note_on channel=9 note=54 velocity=0 time=22
note_on channel=9 note=40 velocity=0 time=0
control_change channel=9 control=7 value=109 time=2
note_on channel=9 note=42 velocity=82 time=0
note_on channel=9 note=42 velocity=0 time=17
control_change channel=9 control=7 value=105 time=7
control_change channel=9 control=7 value=105 time=24
note_on channel=9 note=36 velocity=113 time=0
note_on channel=9 note=42 velocity=113 time=0
note_on channel=9 note=42 velocity=0 time=19
control_change channel=9 control=7 value=103 time=5
note_on channel=9 note=36 velocity=0 time=2
control_change channel=9 control=7 value=101 time=22
note_on channel=9 note=36 velocity=111 time=0
note_on channel=9 note=42 velocity=82 time=0
note_on channel=9 note=42 velocity=0 time=17
control_change channel=9 control=7 value=101 time=7
note_on channel=9 note=36 velocity=0 time=13
control_change channel=9 control=7 value=101 time=11
note_on channel=9 note=40 velocity=127 time=0
note_on channel=9 note=42 velocity=115 time=0
note_on channel=9 note=42 velocity=0 time=17
control_change channel=9 control=7 value=99 time=7
note_on channel=9 note=40 velocity=0 time=17
control_change channel=9 control=7 value=97 time=7
control_change channel=9 control=7 value=99 time=24
control_change channel=9 control=7 value=97 time=24
note_on channel=9 note=36 velocity=119 time=0
note_on channel=9 note=42 velocity=109 time=0
note_on channel=9 note=49 velocity=98 time=0
control_change channel=9 control=7 value=95 time=24
note_on channel=9 note=42 velocity=0 time=1
note_on channel=9 note=36 velocity=0 time=14
control_change channel=9 control=7 value=93 time=9
note_on channel=9 note=42 velocity=57 time=0
note_on channel=9 note=42 velocity=0 time=21
control_change channel=9 control=7 value=93 time=3
control_change channel=9 control=7 value=93 time=24
note_on channel=9 note=40 velocity=127 time=0
note_on channel=9 note=42 velocity=102 time=0
note_on channel=9 note=54 velocity=106 time=0
control_change channel=9 control=7 value=93 time=24
note_on channel=9 note=42 velocity=0 time=1
note_on channel=9 note=49 velocity=0 time=12
note_on channel=9 note=40 velocity=0 time=10
note_on channel=9 note=54 velocity=0 time=0
control_change channel=9 control=7 value=91 time=1
note_on channel=9 note=42 velocity=51 time=0
note_on channel=9 note=42 velocity=0 time=22
control_change channel=9 control=7 value=89 time=2
control_change channel=9 control=7 value=89 time=24
note_on channel=9 note=36 velocity=108 time=0
note_on channel=9 note=42 velocity=102 time=0
control_change channel=9 control=7 value=87 time=24
note_on channel=9 note=42 velocity=0 time=4
note_on channel=9 note=36 velocity=0 time=20
control_change channel=9 control=7 value=89 time=0
note_on channel=9 note=42 velocity=76 time=0
note_on channel=9 note=42 velocity=0 time=16
control_change channel=9 control=7 value=85 time=8
control_change channel=9 control=7 value=85 time=24
note_on channel=9 note=40 velocity=127 time=0
note_on channel=9 note=42 velocity=108 time=0
control_change channel=9 control=7 value=85 time=24
note_on channel=9 note=42 velocity=0 time=2
control_change channel=9 control=7 value=85 time=22
note_on channel=9 note=42 velocity=62 time=0
note_on channel=9 note=40 velocity=0 time=4
note_on channel=9 note=42 velocity=0 time=14
control_change channel=9 control=7 value=83 time=6
control_change channel=9 control=7 value=83 time=24
note_on channel=9 note=36 velocity=113 time=0
note_on channel=9 note=42 velocity=108 time=0
note_on channel=9 note=42 velocity=0 time=24
control_change channel=9 control=7 value=81 time=0
note_on channel=9 note=36 velocity=0 time=21
control_change channel=9 control=7 value=79 time=3
note_on channel=9 note=42 velocity=64 time=0
note_on channel=9 note=42 velocity=0 time=16
control_change channel=9 control=7 value=79 time=8
control_change channel=9 control=7 value=79 time=24
note_on channel=9 note=40 velocity=127 time=0
note_on channel=9 note=42 velocity=113 time=0
note_on channel=9 note=54 velocity=106 time=0
control_change channel=9 control=7 value=79 time=24
note_on channel=9 note=42 velocity=0 time=3
note_on channel=9 note=40 velocity=0 time=19
control_change channel=9 control=7 value=77 time=2
note_on channel=9 note=42 velocity=68 time=0
note_on channel=9 note=54 velocity=0 time=5
note_on channel=9 note=42 velocity=0 time=15
control_change channel=9 control=7 value=77 time=4
control_change channel=9 control=7 value=75 time=24
note_on channel=9 note=36 velocity=125 time=0
note_on channel=9 note=42 velocity=113 time=0
control_change channel=9 control=7 value=75 time=24
note_on channel=9 note=42 velocity=0 time=1
control_change channel=9 control=7 value=73 time=23
note_on channel=9 note=42 velocity=70 time=0
note_on channel=9 note=36 velocity=0 time=6
note_on channel=9 note=42 velocity=0 time=11
control_change channel=9 control=7 value=73 time=7
control_change channel=9 control=7 value=71 time=24
note_on channel=9 note=40 velocity=127 time=0
note_on channel=9 note=42 velocity=108 time=0
note_on channel=9 note=42 velocity=0 time=22
control_change channel=9 control=7 value=71 time=2
control_change channel=9 control=7 value=71 time=24
note_on channel=9 note=42 velocity=72 time=0
note_on channel=9 note=40 velocity=0 time=2
note_on channel=9 note=42 velocity=0 time=16
control_change channel=9 control=7 value=69 time=6
control_change channel=9 control=7 value=69 time=24
note_on channel=9 note=36 velocity=113 time=0
note_on channel=9 note=42 velocity=113 time=0
control_change channel=9 control=7 value=67 time=24
note_on channel=9 note=42 velocity=0 time=1
control_change channel=9 control=7 value=67 time=23
note_on channel=9 note=42 velocity=76 time=0
note_on channel=9 note=36 velocity=0 time=2
note_on channel=9 note=42 velocity=0 time=16
control_change channel=9 control=7 value=65 time=6
control_change channel=9 control=7 value=65 time=24
note_on channel=9 note=40 velocity=127 time=0
note_on channel=9 note=42 velocity=108 time=0
note_on channel=9 note=54 velocity=106 time=0
note_on channel=9 note=42 velocity=0 time=24
control_change channel=9 control=7 value=63 time=0
note_on channel=9 note=40 velocity=0 time=22
note_on channel=9 note=54 velocity=0 time=2
control_change channel=9 control=7 value=63 time=0
note_on channel=9 note=42 velocity=70 time=0
note_on channel=9 note=42 velocity=0 time=20
control_change channel=9 control=7 value=61 time=4
control_change channel=9 control=7 value=61 time=24
note_on channel=9 note=36 velocity=119 time=0
note_on channel=9 note=42 velocity=102 time=0
note_on channel=9 note=42 velocity=0 time=22
control_change channel=9 control=7 value=61 time=2
note_on channel=9 note=36 velocity=0 time=19
control_change channel=9 control=7 value=59 time=5
note_on channel=9 note=42 velocity=78 time=0
note_on channel=9 note=42 velocity=0 time=16
control_change channel=9 control=7 value=59 time=8
control_change channel=9 control=7 value=57 time=24
note_on channel=9 note=40 velocity=121 time=0
note_on channel=9 note=42 velocity=113 time=0
note_on channel=9 note=42 velocity=0 time=21
control_change channel=9 control=7 value=57 time=3
note_on channel=9 note=40 velocity=0 time=22
control_change channel=9 control=7 value=57 time=2
note_on channel=9 note=42 velocity=80 time=0
note_on channel=9 note=42 velocity=0 time=16
control_change channel=9 control=7 value=57 time=8
control_change channel=9 control=7 value=57 time=24
note_on channel=9 note=36 velocity=125 time=0
note_on channel=9 note=42 velocity=113 time=0
note_on channel=9 note=42 velocity=0 time=23
control_change channel=9 control=7 value=55 time=1
note_on channel=9 note=36 velocity=0 time=12
control_change channel=9 control=7 value=55 time=12
note_on channel=9 note=42 velocity=78 time=0
note_on channel=9 note=42 velocity=0 time=16
control_change channel=9 control=7 value=55 time=8
control_change channel=9 control=7 value=53 time=24
note_on channel=9 note=40 velocity=127 time=0
note_on channel=9 note=42 velocity=113 time=0
note_on channel=9 note=54 velocity=100 time=0
note_on channel=9 note=42 velocity=0 time=24
control_change channel=9 control=7 value=51 time=0
note_on channel=9 note=54 velocity=0 time=22
control_change channel=9 control=7 value=51 time=2
note_on channel=9 note=42 velocity=76 time=0
note_on channel=9 note=40 velocity=0 time=5
note_on channel=9 note=42 velocity=0 time=12
control_change channel=9 control=7 value=51 time=7
control_change channel=9 control=7 value=49 time=24
note_on channel=9 note=36 velocity=96 time=0
note_on channel=9 note=42 velocity=108 time=0
note_on channel=9 note=42 velocity=0 time=22
control_change channel=9 control=7 value=49 time=2
note_on channel=9 note=40 velocity=127 time=0
note_on channel=9 note=36 velocity=0 time=4
control_change channel=9 control=7 value=47 time=20
note_on channel=9 note=42 velocity=97 time=0
note_on channel=9 note=42 velocity=0 time=17
note_on channel=9 note=40 velocity=0 time=6
control_change channel=9 control=7 value=47 time=1
control_change channel=9 control=7 value=47 time=24
note_on channel=9 note=40 velocity=127 time=0
note_on channel=9 note=42 velocity=108 time=0
note_on channel=9 note=42 velocity=0 time=22
control_change channel=9 control=7 value=47 time=2
note_on channel=9 note=40 velocity=0 time=9
control_change channel=9 control=7 value=45 time=15
note_on channel=9 note=42 velocity=101 time=0
note_on channel=9 note=42 velocity=0 time=16
control_change channel=9 control=7 value=45 time=8
control_change channel=9 control=7 value=43 time=24
note_on channel=9 note=36 velocity=125 time=0
note_on channel=9 note=42 velocity=108 time=0
note_on channel=9 note=49 velocity=98 time=0
note_on channel=9 note=42 velocity=0 time=24
control_change channel=9 control=7 value=43 time=0
note_on channel=9 note=36 velocity=0 time=23
control_change channel=9 control=7 value=43 time=1
note_on channel=9 note=42 velocity=74 time=0
note_on channel=9 note=42 velocity=0 time=18
control_change channel=9 control=7 value=41 time=6
control_change channel=9 control=7 value=41 time=24
note_on channel=9 note=40 velocity=127 time=0
note_on channel=9 note=42 velocity=108 time=0
note_on channel=9 note=54 velocity=106 time=0
note_on channel=9 note=42 velocity=0 time=21
control_change channel=9 control=7 value=39 time=3
note_on channel=9 note=49 velocity=0 time=13
note_on channel=9 note=40 velocity=0 time=5
note_on channel=9 note=54 velocity=0 time=5
control_change channel=9 control=7 value=39 time=1
note_on channel=9 note=42 velocity=76 time=0
note_on channel=9 note=42 velocity=0 time=16
control_change channel=9 control=7 value=39 time=8
control_change channel=9 control=7 value=39 time=24
note_on channel=9 note=36 velocity=113 time=0
note_on channel=9 note=42 velocity=108 time=0
note_on channel=9 note=42 velocity=0 time=22
control_change channel=9 control=7 value=39 time=2
note_on channel=9 note=36 velocity=0 time=15
control_change channel=9 control=7 value=37 time=9
note_on channel=9 note=42 velocity=76 time=0
note_on channel=9 note=42 velocity=0 time=17
control_change channel=9 control=7 value=35 time=7
control_change channel=9 control=7 value=35 time=24
note_on channel=9 note=40 velocity=121 time=0
note_on channel=9 note=42 velocity=113 time=0
note_on channel=9 note=42 velocity=0 time=22
control_change channel=9 control=7 value=35 time=2
note_on channel=9 note=40 velocity=0 time=17
control_change channel=9 control=7 value=35 time=7
note_on channel=9 note=42 velocity=76 time=0
note_on channel=9 note=42 velocity=0 time=16
control_change channel=9 control=7 value=33 time=8
control_change channel=9 control=7 value=31 time=24
note_on channel=9 note=36 velocity=113 time=0
note_on channel=9 note=42 velocity=108 time=0
note_on channel=9 note=42 velocity=0 time=23
control_change channel=9 control=7 value=31 time=1
note_on channel=9 note=36 velocity=0 time=23
control_change channel=9 control=7 value=31 time=1
note_on channel=9 note=42 velocity=72 time=0
note_on channel=9 note=42 velocity=0 time=16
control_change channel=9 control=7 value=29 time=8
control_change channel=9 control=7 value=29 time=24
note_on channel=9 note=40 velocity=127 time=0
note_on channel=9 note=42 velocity=113 time=0
note_on channel=9 note=54 velocity=106 time=0
note_on channel=9 note=42 velocity=0 time=21
control_change channel=9 control=7 value=29 time=3
note_on channel=9 note=40 velocity=0 time=18
control_change channel=9 control=7 value=27 time=6
note_on channel=9 note=42 velocity=78 time=0
note_on channel=9 note=54 velocity=0 time=5
note_on channel=9 note=42 velocity=0 time=11
control_change channel=9 control=7 value=27 time=8
control_change channel=9 control=7 value=27 time=24
note_on channel=9 note=36 velocity=108 time=0
note_on channel=9 note=42 velocity=108 time=0
note_on channel=9 note=42 velocity=0 time=22
control_change channel=9 control=7 value=27 time=2
note_on channel=9 note=36 velocity=0 time=14
control_change channel=9 control=7 value=25 time=10
note_on channel=9 note=42 velocity=76 time=0
note_on channel=9 note=42 velocity=0 time=14
control_change channel=9 control=7 value=25 time=10
control_change channel=9 control=7 value=23 time=24
note_on channel=9 note=40 velocity=121 time=0
note_on channel=9 note=42 velocity=113 time=0
note_on channel=9 note=42 velocity=0 time=19
control_change channel=9 control=7 value=23 time=5
note_on channel=9 note=40 velocity=0 time=20
control_change channel=9 control=7 value=23 time=4
note_on channel=9 note=42 velocity=82 time=0
note_on channel=9 note=42 velocity=0 time=12
control_change channel=9 control=7 value=21 time=12
control_change channel=9 control=7 value=21 time=24
note_on channel=9 note=36 velocity=113 time=0
note_on channel=9 note=42 velocity=113 time=0
note_on channel=9 note=42 velocity=0 time=22
control_change channel=9 control=7 value=19 time=2
note_on channel=9 note=36 velocity=0 time=19
control_change channel=9 control=7 value=19 time=5
note_on channel=9 note=42 velocity=78 time=0
note_on channel=9 note=42 velocity=0 time=15
control_change channel=9 control=7 value=19 time=9
control_change channel=9 control=7 value=19 time=24
note_on channel=9 note=40 velocity=121 time=0
note_on channel=9 note=42 velocity=119 time=0
note_on channel=9 note=54 velocity=106 time=0
note_on channel=9 note=42 velocity=0 time=20
control_change channel=9 control=7 value=17 time=4
note_on channel=9 note=40 velocity=0 time=19
note_on channel=9 note=54 velocity=0 time=5
control_change channel=9 control=7 value=17 time=0
note_on channel=9 note=42 velocity=76 time=0
note_on channel=9 note=42 velocity=0 time=14
control_change channel=9 control=7 value=15 time=10
control_change channel=9 control=7 value=15 time=24
note_on channel=9 note=36 velocity=119 time=0
note_on channel=9 note=42 velocity=108 time=0
note_on channel=9 note=42 velocity=0 time=18
note_on channel=9 note=36 velocity=0 time=6
control_change channel=9 control=7 value=15 time=0
control_change channel=9 control=7 value=15 time=24
note_on channel=9 note=42 velocity=82 time=0
note_on channel=9 note=42 velocity=0 time=13
control_change channel=9 control=7 value=13 time=11
control_change channel=9 control=7 value=13 time=24
note_on channel=9 note=40 velocity=127 time=0
note_on channel=9 note=42 velocity=113 time=0
note_on channel=9 note=42 velocity=0 time=19
control_change channel=9 control=7 value=11 time=5
note_on channel=9 note=40 velocity=0 time=2
control_change channel=9 control=7 value=11 time=22
note_on channel=9 note=42 velocity=82 time=0
note_on channel=9 note=42 velocity=0 time=17
control_change channel=9 control=7 value=11 time=7
control_change channel=9 control=7 value=9 time=24
note_on channel=9 note=36 velocity=125 time=0
note_on channel=9 note=42 velocity=113 time=0
note_on channel=9 note=42 velocity=0 time=19
control_change channel=9 control=7 value=9 time=5
note_on channel=9 note=36 velocity=0 time=6
control_change channel=9 control=7 value=9 time=18
note_on channel=9 note=42 velocity=82 time=0
note_on channel=9 note=42 velocity=0 time=17
control_change channel=9 control=7 value=9 time=7
control_change channel=9 control=7 value=9 time=24
note_on channel=9 note=40 velocity=127 time=0
note_on channel=9 note=42 velocity=113 time=0
note_on channel=9 note=54 velocity=100 time=0
note_on channel=9 note=42 velocity=0 time=19
control_change channel=9 control=7 value=9 time=5
note_on channel=9 note=54 velocity=0 time=22
control_change channel=9 control=7 value=7 time=2
note_on channel=9 note=42 velocity=93 time=0
note_on channel=9 note=40 velocity=0 time=1
note_on channel=9 note=42 velocity=0 time=16
control_change channel=9 control=7 value=7 time=7
control_change channel=9 control=7 value=5 time=24
note_on channel=9 note=36 velocity=108 time=0
note_on channel=9 note=42 velocity=113 time=0
note_on channel=9 note=42 velocity=0 time=19
control_change channel=9 control=7 value=5 time=5
note_on channel=9 note=40 velocity=127 time=0
note_on channel=9 note=36 velocity=0 time=8
control_change channel=9 control=7 value=5 time=16
note_on channel=9 note=42 velocity=91 time=0
note_on channel=9 note=40 velocity=0 time=6
note_on channel=9 note=42 velocity=0 time=11
control_change channel=9 control=7 value=5 time=7
note_on channel=9 note=36 velocity=93 time=0
note_on channel=9 note=36 velocity=0 time=17
control_change channel=9 control=7 value=3 time=7
note_on channel=9 note=40 velocity=101 time=0
note_on channel=9 note=42 velocity=115 time=0
note_on channel=9 note=40 velocity=0 time=14
note_on channel=9 note=42 velocity=0 time=3
control_change channel=9 control=7 value=3 time=7
note_on channel=9 note=40 velocity=113 time=0
note_on channel=9 note=40 velocity=0 time=8
control_change channel=9 control=7 value=1 time=16
note_on channel=9 note=40 velocity=127 time=0
note_on channel=9 note=42 velocity=115 time=0
note_on channel=9 note=40 velocity=0 time=8
note_on channel=9 note=42 velocity=0 time=9
control_change channel=9 control=7 value=1 time=7
note_on channel=9 note=40 velocity=121 time=0
note_on channel=9 note=40 velocity=0 time=18
<meta message end_of_track time=0>
