<meta message midi_port port=0 time=0>
<meta message track_name name=u'22-Sept-1997' time=0>
<meta message end_of_track time=0>
<meta message track_name name=u'untitled' time=0>
<meta message smpte_offset frame_rate=25 hours=32 minutes=0 seconds=3 frames=0 sub_frames=0 time=0>
<meta message time_signature numerator=4 denominator=4 clocks_per_click=24 notated_32nd_notes_per_beat=8 time=0>
<meta message key_signature key='C' time=0>
<meta message set_tempo tempo=560748 time=0>
<meta message marker text=u'EYE 0F TIGER ' time=0>
<meta message marker text=u'       ' time=8224>
<meta message marker text=u'       ' time=2017>
<meta message end_of_track time=0>
<meta message midi_port port=0 time=0>
<meta message track_name name=u'Bass' time=0>
control_change channel=1 control=0 value=0 time=0
program_change channel=1 program=34 time=0
control_change channel=1 control=7 value=122 time=0
control_change channel=1 control=10 value=64 time=0
note_on channel=1 note=30 velocity=127 time=768
note_on channel=1 note=30 velocity=0 time=63
note_on channel=1 note=30 velocity=121 time=129
note_on channel=1 note=30 velocity=0 time=54
note_on channel=1 note=28 velocity=115 time=18
note_on channel=1 note=28 velocity=0 time=56
note_on channel=1 note=30 velocity=119 time=16
note_on channel=1 note=30 velocity=0 time=51
note_on channel=1 note=30 velocity=121 time=189
note_on channel=1 note=30 velocity=0 time=50
note_on channel=1 note=28 velocity=115 time=22
note_on channel=1 note=28 velocity=0 time=50
note_on channel=1 note=30 velocity=115 time=22
note_on channel=1 note=30 velocity=0 time=56
note_on channel=1 note=30 velocity=121 time=184
note_on channel=1 note=30 velocity=0 time=55
note_on channel=1 note=25 velocity=121 time=17
note_on channel=1 note=25 velocity=0 time=49
note_on channel=1 note=26 velocity=115 time=23
note_on channel=1 note=26 velocity=0 time=428
note_on channel=1 note=30 velocity=121 time=4
note_on channel=1 note=30 velocity=0 time=53
note_on channel=1 note=30 velocity=127 time=139
note_on channel=1 note=30 velocity=0 time=49
note_on channel=1 note=28 velocity=109 time=23
note_on channel=1 note=28 velocity=0 time=52
note_on channel=1 note=30 velocity=121 time=20
note_on channel=1 note=30 velocity=0 time=58
note_on channel=1 note=30 velocity=121 time=230
note_on channel=1 note=30 velocity=0 time=51
note_on channel=1 note=28 velocity=115 time=21
note_on channel=1 note=28 velocity=0 time=48
note_on channel=1 note=30 velocity=115 time=24
note_on channel=1 note=30 velocity=0 time=53
note_on channel=1 note=30 velocity=121 time=139
note_on channel=1 note=30 velocity=0 time=49
note_on channel=1 note=25 velocity=115 time=23
note_on channel=1 note=25 velocity=0 time=50
note_on channel=1 note=26 velocity=121 time=22
note_on channel=1 note=26 velocity=0 time=414
note_on channel=1 note=30 velocity=115 time=18
note_on channel=1 note=30 velocity=0 time=50
note_on channel=1 note=30 velocity=121 time=46
note_on channel=1 note=30 velocity=0 time=42
note_on channel=1 note=30 velocity=127 time=54
note_on channel=1 note=30 velocity=0 time=50
note_on channel=1 note=30 velocity=121 time=46
note_on channel=1 note=30 velocity=0 time=47
note_on channel=1 note=30 velocity=121 time=49
note_on channel=1 note=30 velocity=0 time=51
note_on channel=1 note=30 velocity=115 time=45
note_on channel=1 note=30 velocity=0 time=44
note_on channel=1 note=30 velocity=121 time=52
note_on channel=1 note=30 velocity=0 time=48
note_on channel=1 note=30 velocity=115 time=48
note_on channel=1 note=30 velocity=0 time=51
note_on channel=1 note=30 velocity=109 time=45
note_on channel=1 note=30 velocity=0 time=51
note_on channel=1 note=30 velocity=115 time=45
note_on channel=1 note=30 velocity=0 time=51
note_on channel=1 note=30 velocity=115 time=45
note_on channel=1 note=30 velocity=0 time=59
note_on channel=1 note=25 velocity=127 time=13
note_on channel=1 note=25 velocity=0 time=60
note_on channel=1 note=26 velocity=104 time=12
note_on channel=1 note=26 velocity=0 time=116
note_on channel=1 note=26 velocity=109 time=28
note_on channel=1 note=26 velocity=0 time=46
note_on channel=1 note=26 velocity=104 time=50
note_on channel=1 note=26 velocity=0 time=60
note_on channel=1 note=26 velocity=115 time=36
note_on channel=1 note=26 velocity=0 time=54
note_on channel=1 note=30 velocity=115 time=42
note_on channel=1 note=30 velocity=0 time=54
note_on channel=1 note=30 velocity=121 time=42
note_on channel=1 note=30 velocity=0 time=44
note_on channel=1 note=30 velocity=115 time=52
note_on channel=1 note=30 velocity=0 time=49
note_on channel=1 note=30 velocity=121 time=47
note_on channel=1 note=30 velocity=0 time=47
note_on channel=1 note=30 velocity=121 time=49
note_on channel=1 note=30 velocity=0 time=48
note_on channel=1 note=30 velocity=115 time=48
note_on channel=1 note=30 velocity=0 time=48
note_on channel=1 note=30 velocity=121 time=48
note_on channel=1 note=30 velocity=0 time=53
note_on channel=1 note=30 velocity=109 time=43
note_on channel=1 note=30 velocity=0 time=50
note_on channel=1 note=30 velocity=109 time=46
note_on channel=1 note=30 velocity=0 time=52
note_on channel=1 note=30 velocity=115 time=44
note_on channel=1 note=30 velocity=0 time=54
note_on channel=1 note=30 velocity=121 time=42
note_on channel=1 note=30 velocity=0 time=52
note_on channel=1 note=25 velocity=121 time=20
note_on channel=1 note=25 velocity=0 time=46
note_on channel=1 note=26 velocity=111 time=26
note_on channel=1 note=26 velocity=0 time=102
note_on channel=1 note=26 velocity=104 time=42
note_on channel=1 note=26 velocity=0 time=55
note_on channel=1 note=26 velocity=115 time=41
note_on channel=1 note=26 velocity=0 time=52
note_on channel=1 note=26 velocity=109 time=44
note_on channel=1 note=26 velocity=0 time=67
note_on channel=1 note=30 velocity=121 time=29
note_on channel=1 note=30 velocity=0 time=50
note_on channel=1 note=30 velocity=121 time=46
note_on channel=1 note=30 velocity=0 time=44
note_on channel=1 note=30 velocity=109 time=52
note_on channel=1 note=30 velocity=0 time=53
note_on channel=1 note=30 velocity=121 time=43
note_on channel=1 note=30 velocity=0 time=48
note_on channel=1 note=30 velocity=109 time=48
note_on channel=1 note=30 velocity=0 time=54
note_on channel=1 note=30 velocity=115 time=42
note_on channel=1 note=30 velocity=0 time=53
note_on channel=1 note=30 velocity=115 time=43
note_on channel=1 note=30 velocity=0 time=43
note_on channel=1 note=25 velocity=92 time=29
note_on channel=1 note=28 velocity=109 time=24
note_on channel=1 note=25 velocity=0 time=2
note_on channel=1 note=28 velocity=0 time=19
note_on channel=1 note=25 velocity=98 time=3
note_on channel=1 note=28 velocity=109 time=24
note_on channel=1 note=25 velocity=0 time=5
note_on channel=1 note=28 velocity=0 time=42
note_on channel=1 note=30 velocity=115 time=1
note_on channel=1 note=30 velocity=0 time=50
note_on channel=1 note=30 velocity=115 time=46
note_on channel=1 note=30 velocity=0 time=49
note_on channel=1 note=30 velocity=115 time=47
note_on channel=1 note=30 velocity=0 time=55
note_on channel=1 note=30 velocity=109 time=41
note_on channel=1 note=30 velocity=0 time=49
note_on channel=1 note=30 velocity=104 time=47
note_on channel=1 note=30 velocity=0 time=48
note_on channel=1 note=30 velocity=115 time=48
note_on channel=1 note=30 velocity=0 time=51
note_on channel=1 note=30 velocity=115 time=45
note_on channel=1 note=30 velocity=0 time=52
note_on channel=1 note=30 velocity=115 time=44
note_on channel=1 note=30 velocity=0 time=47
note_on channel=1 note=30 velocity=104 time=49
note_on channel=1 note=30 velocity=0 time=46
note_on channel=1 note=30 velocity=115 time=50
note_on channel=1 note=30 velocity=0 time=49
note_on channel=1 note=30 velocity=109 time=47
note_on channel=1 note=30 velocity=0 time=47
note_on channel=1 note=30 velocity=109 time=49
note_on channel=1 note=30 velocity=0 time=47
note_on channel=1 note=30 velocity=104 time=49
note_on channel=1 note=30 velocity=0 time=52
note_on channel=1 note=30 velocity=115 time=44
note_on channel=1 note=30 velocity=0 time=49
note_on channel=1 note=30 velocity=104 time=47
note_on channel=1 note=30 velocity=0 time=48
note_on channel=1 note=25 velocity=86 time=24
note_on channel=1 note=28 velocity=92 time=24
note_on channel=1 note=25 velocity=0 time=2
note_on channel=1 note=25 velocity=98 time=22
note_on channel=1 note=28 velocity=0 time=2
note_on channel=1 note=28 velocity=101 time=22
note_on channel=1 note=25 velocity=0 time=3
note_on channel=1 note=30 velocity=109 time=45
note_on channel=1 note=28 velocity=0 time=1
note_on channel=1 note=30 velocity=0 time=46
note_on channel=1 note=30 velocity=115 time=49
note_on channel=1 note=30 velocity=0 time=49
note_on channel=1 note=30 velocity=115 time=47
note_on channel=1 note=30 velocity=0 time=50
note_on channel=1 note=30 velocity=115 time=46
note_on channel=1 note=30 velocity=0 time=46
note_on channel=1 note=30 velocity=104 time=50
note_on channel=1 note=30 velocity=0 time=51
note_on channel=1 note=30 velocity=109 time=45
note_on channel=1 note=30 velocity=0 time=50
note_on channel=1 note=30 velocity=115 time=46
note_on channel=1 note=30 velocity=0 time=47
note_on channel=1 note=30 velocity=115 time=49
note_on channel=1 note=30 velocity=0 time=43
note_on channel=1 note=30 velocity=115 time=53
note_on channel=1 note=30 velocity=0 time=42
note_on channel=1 note=30 velocity=115 time=54
note_on channel=1 note=30 velocity=0 time=43
note_on channel=1 note=30 velocity=121 time=53
note_on channel=1 note=30 velocity=0 time=44
note_on channel=1 note=30 velocity=121 time=52
note_on channel=1 note=30 velocity=0 time=46
note_on channel=1 note=30 velocity=121 time=50
note_on channel=1 note=30 velocity=0 time=54
note_on channel=1 note=30 velocity=121 time=42
note_on channel=1 note=30 velocity=0 time=46
note_on channel=1 note=30 velocity=115 time=50
note_on channel=1 note=30 velocity=0 time=47
note_on channel=1 note=25 velocity=78 time=25
note_on channel=1 note=28 velocity=92 time=24
note_on channel=1 note=25 velocity=0 time=2
note_on channel=1 note=25 velocity=99 time=22
note_on channel=1 note=28 velocity=0 time=4
note_on channel=1 note=28 velocity=107 time=20
note_on channel=1 note=25 velocity=0 time=7
note_on channel=1 note=28 velocity=0 time=40
note_on channel=1 note=30 velocity=115 time=1
note_on channel=1 note=30 velocity=0 time=50
note_on channel=1 note=30 velocity=115 time=46
note_on channel=1 note=30 velocity=0 time=49
note_on channel=1 note=30 velocity=115 time=47
note_on channel=1 note=30 velocity=0 time=55
note_on channel=1 note=30 velocity=109 time=41
note_on channel=1 note=30 velocity=0 time=49
note_on channel=1 note=26 velocity=104 time=47
note_on channel=1 note=26 velocity=0 time=48
note_on channel=1 note=26 velocity=115 time=48
note_on channel=1 note=26 velocity=0 time=51
note_on channel=1 note=26 velocity=115 time=45
note_on channel=1 note=26 velocity=0 time=52
note_on channel=1 note=26 velocity=115 time=44
note_on channel=1 note=26 velocity=0 time=47
note_on channel=1 note=28 velocity=104 time=49
note_on channel=1 note=28 velocity=0 time=46
note_on channel=1 note=28 velocity=115 time=50
note_on channel=1 note=28 velocity=0 time=49
note_on channel=1 note=28 velocity=109 time=47
note_on channel=1 note=28 velocity=0 time=47
note_on channel=1 note=28 velocity=109 time=49
note_on channel=1 note=28 velocity=0 time=47
note_on channel=1 note=30 velocity=104 time=49
note_on channel=1 note=30 velocity=0 time=52
note_on channel=1 note=30 velocity=115 time=44
note_on channel=1 note=30 velocity=0 time=49
note_on channel=1 note=30 velocity=104 time=47
note_on channel=1 note=30 velocity=0 time=48
note_on channel=1 note=25 velocity=86 time=24
note_on channel=1 note=28 velocity=92 time=24
note_on channel=1 note=25 velocity=0 time=2
note_on channel=1 note=25 velocity=98 time=22
note_on channel=1 note=28 velocity=0 time=2
note_on channel=1 note=28 velocity=101 time=22
note_on channel=1 note=25 velocity=0 time=3
note_on channel=1 note=30 velocity=109 time=45
note_on channel=1 note=28 velocity=0 time=1
note_on channel=1 note=30 velocity=0 time=46
note_on channel=1 note=30 velocity=115 time=49
note_on channel=1 note=30 velocity=0 time=49
note_on channel=1 note=30 velocity=115 time=47
note_on channel=1 note=30 velocity=0 time=50
note_on channel=1 note=30 velocity=115 time=46
note_on channel=1 note=30 velocity=0 time=46
note_on channel=1 note=26 velocity=104 time=50
note_on channel=1 note=26 velocity=0 time=51
note_on channel=1 note=26 velocity=109 time=45
note_on channel=1 note=26 velocity=0 time=50
note_on channel=1 note=26 velocity=115 time=46
note_on channel=1 note=26 velocity=0 time=47
note_on channel=1 note=26 velocity=115 time=49
note_on channel=1 note=26 velocity=0 time=43
note_on channel=1 note=28 velocity=115 time=53
note_on channel=1 note=28 velocity=0 time=42
note_on channel=1 note=28 velocity=115 time=54
note_on channel=1 note=28 velocity=0 time=43
note_on channel=1 note=28 velocity=121 time=53
note_on channel=1 note=28 velocity=0 time=44
note_on channel=1 note=28 velocity=121 time=52
note_on channel=1 note=28 velocity=0 time=46
note_on channel=1 note=30 velocity=121 time=50
note_on channel=1 note=30 velocity=0 time=54
note_on channel=1 note=30 velocity=121 time=42
note_on channel=1 note=30 velocity=0 time=46
note_on channel=1 note=30 velocity=115 time=50
note_on channel=1 note=30 velocity=0 time=34
note_on channel=1 note=28 velocity=113 time=14
note_on channel=1 note=28 velocity=0 time=48
note_on channel=1 note=30 velocity=113 time=24
note_on channel=1 note=30 velocity=0 time=48
note_on channel=1 note=23 velocity=127 time=24
note_on channel=1 note=23 velocity=0 time=52
note_on channel=1 note=23 velocity=127 time=44
note_on channel=1 note=23 velocity=0 time=55
note_on channel=1 note=23 velocity=127 time=41
note_on channel=1 note=23 velocity=0 time=55
note_on channel=1 note=23 velocity=127 time=41
note_on channel=1 note=23 velocity=0 time=64
note_on channel=1 note=25 velocity=115 time=32
note_on channel=1 note=25 velocity=0 time=69
note_on channel=1 note=25 velocity=109 time=27
note_on channel=1 note=25 velocity=0 time=75
note_on channel=1 note=28 velocity=115 time=21
note_on channel=1 note=28 velocity=0 time=71
note_on channel=1 note=28 velocity=115 time=25
note_on channel=1 note=28 velocity=0 time=74
note_on channel=1 note=23 velocity=119 time=22
note_on channel=1 note=23 velocity=0 time=63
note_on channel=1 note=23 velocity=127 time=33
note_on channel=1 note=23 velocity=0 time=63
note_on channel=1 note=23 velocity=127 time=33
note_on channel=1 note=23 velocity=0 time=65
note_on channel=1 note=23 velocity=127 time=31
note_on channel=1 note=23 velocity=0 time=73
note_on channel=1 note=30 velocity=115 time=23
note_on channel=1 note=28 velocity=115 time=96
note_on channel=1 note=30 velocity=0 time=2
note_on channel=1 note=28 velocity=0 time=173
note_on channel=1 note=28 velocity=117 time=17
note_on channel=1 note=28 velocity=0 time=82
note_on channel=1 note=23 velocity=121 time=14
note_on channel=1 note=23 velocity=0 time=68
note_on channel=1 note=23 velocity=127 time=28
note_on channel=1 note=23 velocity=0 time=65
note_on channel=1 note=23 velocity=127 time=31
note_on channel=1 note=23 velocity=0 time=64
note_on channel=1 note=23 velocity=121 time=32
note_on channel=1 note=23 velocity=0 time=70
note_on channel=1 note=25 velocity=127 time=26
note_on channel=1 note=25 velocity=0 time=78
note_on channel=1 note=25 velocity=109 time=18
note_on channel=1 note=25 velocity=0 time=79
note_on channel=1 note=28 velocity=115 time=17
note_on channel=1 note=28 velocity=0 time=73
note_on channel=1 note=28 velocity=115 time=23
note_on channel=1 note=28 velocity=0 time=75
note_on channel=1 note=35 velocity=115 time=21
note_on channel=1 note=35 velocity=0 time=60
note_on channel=1 note=34 velocity=115 time=12
note_on channel=1 note=34 velocity=0 time=69
note_on channel=1 note=35 velocity=115 time=3
note_on channel=1 note=37 velocity=115 time=48
note_on channel=1 note=35 velocity=0 time=11
note_on channel=1 note=37 velocity=0 time=40
note_on channel=1 note=35 velocity=121 time=21
note_on channel=1 note=35 velocity=0 time=68
note_on channel=1 note=37 velocity=121 time=4
note_on channel=1 note=38 velocity=121 time=48
note_on channel=1 note=37 velocity=0 time=11
note_on channel=1 note=26 velocity=111 time=181
note_on channel=1 note=38 velocity=0 time=4
note_on channel=1 note=26 velocity=0 time=72
note_on channel=1 note=30 velocity=109 time=116
note_on channel=1 note=30 velocity=0 time=48
note_on channel=1 note=30 velocity=92 time=48
note_on channel=1 note=30 velocity=0 time=56
note_on channel=1 note=30 velocity=109 time=40
note_on channel=1 note=30 velocity=0 time=56
note_on channel=1 note=30 velocity=104 time=40
note_on channel=1 note=30 velocity=0 time=55
note_on channel=1 note=30 velocity=104 time=41
note_on channel=1 note=30 velocity=0 time=51
note_on channel=1 note=30 velocity=109 time=45
note_on channel=1 note=30 velocity=0 time=61
note_on channel=1 note=30 velocity=104 time=35
note_on channel=1 note=30 velocity=0 time=56
note_on channel=1 note=25 velocity=76 time=16
note_on channel=1 note=28 velocity=86 time=24
note_on channel=1 note=25 velocity=0 time=6
note_on channel=1 note=25 velocity=104 time=18
note_on channel=1 note=28 velocity=0 time=3
note_on channel=1 note=28 velocity=103 time=21
note_on channel=1 note=25 velocity=0 time=4
note_on channel=1 note=30 velocity=115 time=44
note_on channel=1 note=28 velocity=0 time=7
note_on channel=1 note=30 velocity=0 time=47
note_on channel=1 note=30 velocity=115 time=42
note_on channel=1 note=30 velocity=0 time=52
note_on channel=1 note=30 velocity=115 time=44
note_on channel=1 note=30 velocity=0 time=56
note_on channel=1 note=30 velocity=115 time=40
note_on channel=1 note=30 velocity=0 time=53
note_on channel=1 note=30 velocity=115 time=43
note_on channel=1 note=30 velocity=0 time=58
note_on channel=1 note=30 velocity=115 time=38
note_on channel=1 note=30 velocity=0 time=55
note_on channel=1 note=30 velocity=115 time=41
note_on channel=1 note=30 velocity=0 time=56
note_on channel=1 note=30 velocity=115 time=40
note_on channel=1 note=30 velocity=0 time=54
note_on channel=1 note=30 velocity=115 time=42
note_on channel=1 note=30 velocity=0 time=55
note_on channel=1 note=30 velocity=115 time=41
note_on channel=1 note=30 velocity=0 time=55
note_on channel=1 note=30 velocity=115 time=41
note_on channel=1 note=30 velocity=0 time=53
note_on channel=1 note=30 velocity=109 time=43
note_on channel=1 note=30 velocity=0 time=52
note_on channel=1 note=30 velocity=115 time=44
note_on channel=1 note=30 velocity=0 time=58
note_on channel=1 note=30 velocity=104 time=38
note_on channel=1 note=30 velocity=0 time=47
note_on channel=1 note=30 velocity=92 time=49
note_on channel=1 note=30 velocity=0 time=59
note_on channel=1 note=25 velocity=78 time=13
note_on channel=1 note=28 velocity=98 time=24
note_on channel=1 note=25 velocity=0 time=6
note_on channel=1 note=25 velocity=98 time=18
note_on channel=1 note=28 velocity=0 time=2
note_on channel=1 note=28 velocity=80 time=22
note_on channel=1 note=25 velocity=0 time=5
note_on channel=1 note=30 velocity=98 time=43
note_on channel=1 note=28 velocity=0 time=3
note_on channel=1 note=30 velocity=0 time=48
note_on channel=1 note=30 velocity=115 time=45
note_on channel=1 note=30 velocity=0 time=54
note_on channel=1 note=30 velocity=104 time=42
note_on channel=1 note=30 velocity=0 time=51
note_on channel=1 note=30 velocity=109 time=45
note_on channel=1 note=30 velocity=0 time=51
note_on channel=1 note=30 velocity=98 time=45
note_on channel=1 note=30 velocity=0 time=55
note_on channel=1 note=30 velocity=98 time=41
note_on channel=1 note=30 velocity=0 time=55
note_on channel=1 note=30 velocity=109 time=41
note_on channel=1 note=30 velocity=0 time=56
note_on channel=1 note=30 velocity=109 time=40
note_on channel=1 note=30 velocity=0 time=54
note_on channel=1 note=30 velocity=115 time=42
note_on channel=1 note=30 velocity=0 time=62
note_on channel=1 note=30 velocity=115 time=34
note_on channel=1 note=30 velocity=0 time=53
note_on channel=1 note=30 velocity=109 time=43
note_on channel=1 note=30 velocity=0 time=56
note_on channel=1 note=30 velocity=109 time=40
note_on channel=1 note=30 velocity=0 time=54
note_on channel=1 note=30 velocity=109 time=42
note_on channel=1 note=30 velocity=0 time=58
note_on channel=1 note=30 velocity=104 time=38
note_on channel=1 note=30 velocity=0 time=65
note_on channel=1 note=30 velocity=104 time=31
note_on channel=1 note=28 velocity=109 time=48
note_on channel=1 note=30 velocity=0 time=2
note_on channel=1 note=28 velocity=0 time=62
note_on channel=1 note=30 velocity=115 time=8
note_on channel=1 note=30 velocity=0 time=49
note_on channel=1 note=23 velocity=127 time=23
note_on channel=1 note=23 velocity=0 time=52
note_on channel=1 note=23 velocity=127 time=44
note_on channel=1 note=23 velocity=0 time=55
note_on channel=1 note=23 velocity=127 time=41
note_on channel=1 note=23 velocity=0 time=55
note_on channel=1 note=23 velocity=127 time=41
note_on channel=1 note=23 velocity=0 time=64
note_on channel=1 note=25 velocity=115 time=32
note_on channel=1 note=25 velocity=0 time=69
note_on channel=1 note=25 velocity=109 time=27
note_on channel=1 note=25 velocity=0 time=75
note_on channel=1 note=28 velocity=115 time=21
note_on channel=1 note=28 velocity=0 time=71
note_on channel=1 note=28 velocity=115 time=25
note_on channel=1 note=28 velocity=0 time=74
note_on channel=1 note=23 velocity=119 time=22
note_on channel=1 note=23 velocity=0 time=63
note_on channel=1 note=23 velocity=127 time=33
note_on channel=1 note=23 velocity=0 time=63
note_on channel=1 note=23 velocity=127 time=33
note_on channel=1 note=23 velocity=0 time=65
note_on channel=1 note=23 velocity=127 time=31
note_on channel=1 note=23 velocity=0 time=73
note_on channel=1 note=30 velocity=115 time=23
note_on channel=1 note=28 velocity=115 time=96
note_on channel=1 note=30 velocity=0 time=2
note_on channel=1 note=28 velocity=0 time=173
note_on channel=1 note=28 velocity=117 time=17
note_on channel=1 note=28 velocity=0 time=82
note_on channel=1 note=23 velocity=121 time=14
note_on channel=1 note=23 velocity=0 time=68
note_on channel=1 note=23 velocity=127 time=28
note_on channel=1 note=23 velocity=0 time=65
note_on channel=1 note=23 velocity=127 time=31
note_on channel=1 note=23 velocity=0 time=64
note_on channel=1 note=23 velocity=121 time=32
note_on channel=1 note=23 velocity=0 time=70
note_on channel=1 note=25 velocity=127 time=26
note_on channel=1 note=25 velocity=0 time=78
note_on channel=1 note=25 velocity=109 time=18
note_on channel=1 note=25 velocity=0 time=79
note_on channel=1 note=28 velocity=115 time=17
note_on channel=1 note=28 velocity=0 time=73
note_on channel=1 note=28 velocity=115 time=23
note_on channel=1 note=28 velocity=0 time=75
note_on channel=1 note=35 velocity=115 time=21
note_on channel=1 note=35 velocity=0 time=60
note_on channel=1 note=34 velocity=115 time=12
note_on channel=1 note=34 velocity=0 time=69
note_on channel=1 note=35 velocity=115 time=3
note_on channel=1 note=37 velocity=115 time=48
note_on channel=1 note=35 velocity=0 time=11
note_on channel=1 note=37 velocity=0 time=40
note_on channel=1 note=35 velocity=121 time=21
note_on channel=1 note=35 velocity=0 time=68
note_on channel=1 note=37 velocity=121 time=4
note_on channel=1 note=38 velocity=121 time=48
note_on channel=1 note=37 velocity=0 time=11
note_on channel=1 note=26 velocity=111 time=181
note_on channel=1 note=38 velocity=0 time=4
note_on channel=1 note=26 velocity=0 time=72
note_on channel=1 note=30 velocity=115 time=116
note_on channel=1 note=30 velocity=0 time=54
note_on channel=1 note=30 velocity=115 time=42
note_on channel=1 note=30 velocity=0 time=52
note_on channel=1 note=30 velocity=115 time=44
note_on channel=1 note=30 velocity=0 time=56
note_on channel=1 note=30 velocity=115 time=40
note_on channel=1 note=30 velocity=0 time=53
note_on channel=1 note=30 velocity=115 time=43
note_on channel=1 note=30 velocity=0 time=58
note_on channel=1 note=30 velocity=115 time=38
note_on channel=1 note=30 velocity=0 time=55
note_on channel=1 note=30 velocity=115 time=41
note_on channel=1 note=30 velocity=0 time=56
note_on channel=1 note=30 velocity=115 time=40
note_on channel=1 note=30 velocity=0 time=54
note_on channel=1 note=30 velocity=115 time=42
note_on channel=1 note=30 velocity=0 time=55
note_on channel=1 note=30 velocity=115 time=41
note_on channel=1 note=30 velocity=0 time=55
note_on channel=1 note=30 velocity=115 time=41
note_on channel=1 note=30 velocity=0 time=53
note_on channel=1 note=30 velocity=109 time=43
note_on channel=1 note=30 velocity=0 time=52
note_on channel=1 note=30 velocity=115 time=44
note_on channel=1 note=30 velocity=0 time=58
note_on channel=1 note=30 velocity=104 time=38
note_on channel=1 note=30 velocity=0 time=47
note_on channel=1 note=30 velocity=92 time=49
note_on channel=1 note=30 velocity=0 time=59
note_on channel=1 note=25 velocity=78 time=13
note_on channel=1 note=28 velocity=98 time=24
note_on channel=1 note=25 velocity=0 time=6
note_on channel=1 note=25 velocity=98 time=18
note_on channel=1 note=28 velocity=0 time=2
note_on channel=1 note=28 velocity=80 time=22
note_on channel=1 note=25 velocity=0 time=5
note_on channel=1 note=30 velocity=115 time=43
note_on channel=1 note=28 velocity=0 time=3
note_on channel=1 note=30 velocity=0 time=51
note_on channel=1 note=30 velocity=115 time=42
note_on channel=1 note=30 velocity=0 time=52
note_on channel=1 note=30 velocity=115 time=44
note_on channel=1 note=30 velocity=0 time=56
note_on channel=1 note=30 velocity=115 time=40
note_on channel=1 note=30 velocity=0 time=53
note_on channel=1 note=30 velocity=115 time=43
note_on channel=1 note=30 velocity=0 time=58
note_on channel=1 note=30 velocity=115 time=38
note_on channel=1 note=30 velocity=0 time=55
note_on channel=1 note=30 velocity=115 time=41
note_on channel=1 note=30 velocity=0 time=56
note_on channel=1 note=30 velocity=115 time=40
note_on channel=1 note=30 velocity=0 time=54
note_on channel=1 note=30 velocity=115 time=42
note_on channel=1 note=30 velocity=0 time=55
note_on channel=1 note=30 velocity=115 time=41
note_on channel=1 note=30 velocity=0 time=55
note_on channel=1 note=30 velocity=115 time=41
note_on channel=1 note=30 velocity=0 time=53
note_on channel=1 note=30 velocity=109 time=43
note_on channel=1 note=30 velocity=0 time=52
note_on channel=1 note=30 velocity=115 time=44
note_on channel=1 note=30 velocity=0 time=58
note_on channel=1 note=30 velocity=104 time=38
note_on channel=1 note=30 velocity=0 time=47
note_on channel=1 note=30 velocity=92 time=49
note_on channel=1 note=30 velocity=0 time=59
note_on channel=1 note=25 velocity=78 time=13
note_on channel=1 note=28 velocity=98 time=24
note_on channel=1 note=25 velocity=0 time=6
note_on channel=1 note=25 velocity=98 time=18
note_on channel=1 note=28 velocity=0 time=2
note_on channel=1 note=28 velocity=80 time=22
note_on channel=1 note=25 velocity=0 time=5
note_on channel=1 note=30 velocity=98 time=43
note_on channel=1 note=28 velocity=0 time=3
note_on channel=1 note=30 velocity=0 time=48
note_on channel=1 note=30 velocity=115 time=45
note_on channel=1 note=30 velocity=0 time=54
note_on channel=1 note=30 velocity=104 time=42
note_on channel=1 note=30 velocity=0 time=51
note_on channel=1 note=30 velocity=109 time=45
note_on channel=1 note=30 velocity=0 time=51
note_on channel=1 note=30 velocity=98 time=45
note_on channel=1 note=30 velocity=0 time=55
note_on channel=1 note=30 velocity=98 time=41
note_on channel=1 note=30 velocity=0 time=55
note_on channel=1 note=30 velocity=109 time=41
note_on channel=1 note=30 velocity=0 time=56
note_on channel=1 note=30 velocity=109 time=40
note_on channel=1 note=30 velocity=0 time=54
note_on channel=1 note=30 velocity=115 time=42
note_on channel=1 note=30 velocity=0 time=62
note_on channel=1 note=30 velocity=115 time=34
note_on channel=1 note=30 velocity=0 time=53
note_on channel=1 note=30 velocity=109 time=43
note_on channel=1 note=30 velocity=0 time=56
note_on channel=1 note=30 velocity=109 time=40
note_on channel=1 note=30 velocity=0 time=54
note_on channel=1 note=30 velocity=109 time=42
note_on channel=1 note=30 velocity=0 time=58
note_on channel=1 note=30 velocity=104 time=38
note_on channel=1 note=30 velocity=0 time=65
note_on channel=1 note=30 velocity=104 time=31
note_on channel=1 note=28 velocity=109 time=48
note_on channel=1 note=30 velocity=0 time=2
note_on channel=1 note=28 velocity=0 time=62
note_on channel=1 note=30 velocity=115 time=8
note_on channel=1 note=30 velocity=0 time=49
note_on channel=1 note=23 velocity=127 time=23
note_on channel=1 note=23 velocity=0 time=52
note_on channel=1 note=23 velocity=127 time=44
note_on channel=1 note=23 velocity=0 time=55
note_on channel=1 note=23 velocity=127 time=41
note_on channel=1 note=23 velocity=0 time=55
note_on channel=1 note=23 velocity=127 time=41
note_on channel=1 note=23 velocity=0 time=64
note_on channel=1 note=25 velocity=115 time=32
note_on channel=1 note=25 velocity=0 time=69
note_on channel=1 note=25 velocity=109 time=27
note_on channel=1 note=25 velocity=0 time=75
note_on channel=1 note=28 velocity=115 time=21
note_on channel=1 note=28 velocity=0 time=71
note_on channel=1 note=28 velocity=115 time=25
note_on channel=1 note=28 velocity=0 time=74
note_on channel=1 note=23 velocity=119 time=22
note_on channel=1 note=23 velocity=0 time=63
note_on channel=1 note=23 velocity=127 time=33
note_on channel=1 note=23 velocity=0 time=63
note_on channel=1 note=23 velocity=127 time=33
note_on channel=1 note=23 velocity=0 time=65
note_on channel=1 note=23 velocity=127 time=31
note_on channel=1 note=23 velocity=0 time=73
note_on channel=1 note=30 velocity=115 time=23
note_on channel=1 note=28 velocity=115 time=96
note_on channel=1 note=30 velocity=0 time=2
note_on channel=1 note=28 velocity=0 time=173
note_on channel=1 note=28 velocity=117 time=17
note_on channel=1 note=28 velocity=0 time=82
note_on channel=1 note=23 velocity=121 time=14
note_on channel=1 note=23 velocity=0 time=68
note_on channel=1 note=23 velocity=127 time=28
note_on channel=1 note=23 velocity=0 time=65
note_on channel=1 note=23 velocity=127 time=31
note_on channel=1 note=23 velocity=0 time=64
note_on channel=1 note=23 velocity=121 time=32
note_on channel=1 note=23 velocity=0 time=70
note_on channel=1 note=25 velocity=127 time=26
note_on channel=1 note=25 velocity=0 time=78
note_on channel=1 note=25 velocity=109 time=18
note_on channel=1 note=25 velocity=0 time=79
note_on channel=1 note=28 velocity=115 time=17
note_on channel=1 note=28 velocity=0 time=73
note_on channel=1 note=28 velocity=115 time=23
note_on channel=1 note=28 velocity=0 time=75
note_on channel=1 note=35 velocity=115 time=21
note_on channel=1 note=35 velocity=0 time=60
note_on channel=1 note=34 velocity=115 time=12
note_on channel=1 note=34 velocity=0 time=69
note_on channel=1 note=35 velocity=115 time=3
note_on channel=1 note=37 velocity=115 time=48
note_on channel=1 note=35 velocity=0 time=11
note_on channel=1 note=37 velocity=0 time=40
note_on channel=1 note=35 velocity=121 time=21
note_on channel=1 note=35 velocity=0 time=68
note_on channel=1 note=37 velocity=121 time=4
note_on channel=1 note=38 velocity=121 time=48
note_on channel=1 note=37 velocity=0 time=11
note_on channel=1 note=38 velocity=0 time=373
note_on channel=1 note=26 velocity=113 time=0
note_on channel=1 note=26 velocity=0 time=24
note_on channel=1 note=26 velocity=111 time=0
note_on channel=1 note=26 velocity=0 time=24
note_on channel=1 note=26 velocity=111 time=24
note_on channel=1 note=26 velocity=0 time=24
note_on channel=1 note=26 velocity=113 time=0
note_on channel=1 note=26 velocity=0 time=24
note_on channel=1 note=26 velocity=115 time=0
note_on channel=1 note=26 velocity=0 time=24
note_on channel=1 note=26 velocity=115 time=0
note_on channel=1 note=26 velocity=0 time=24
note_on channel=1 note=26 velocity=111 time=24
note_on channel=1 note=26 velocity=0 time=76
note_on channel=1 note=30 velocity=109 time=116
note_on channel=1 note=30 velocity=0 time=42
note_on channel=1 note=30 velocity=109 time=54
note_on channel=1 note=30 velocity=0 time=51
note_on channel=1 note=30 velocity=115 time=45
note_on channel=1 note=30 velocity=0 time=52
note_on channel=1 note=30 velocity=115 time=44
note_on channel=1 note=30 velocity=0 time=47
note_on channel=1 note=30 velocity=115 time=49
note_on channel=1 note=30 velocity=0 time=50
note_on channel=1 note=30 velocity=115 time=46
note_on channel=1 note=30 velocity=0 time=58
note_on channel=1 note=30 velocity=104 time=38
note_on channel=1 note=30 velocity=0 time=47
note_on channel=1 note=25 velocity=86 time=25
note_on channel=1 note=25 velocity=0 time=24
note_on channel=1 note=28 velocity=80 time=0
note_on channel=1 note=25 velocity=98 time=24
note_on channel=1 note=28 velocity=0 time=2
note_on channel=1 note=28 velocity=92 time=22
note_on channel=1 note=25 velocity=0 time=6
note_on channel=1 note=28 velocity=0 time=42
note_on channel=1 note=30 velocity=104 time=0
note_on channel=1 note=30 velocity=0 time=51
note_on channel=1 note=30 velocity=121 time=45
note_on channel=1 note=30 velocity=0 time=59
note_on channel=1 note=30 velocity=115 time=37
note_on channel=1 note=30 velocity=0 time=57
note_on channel=1 note=30 velocity=109 time=39
note_on channel=1 note=28 velocity=98 time=48
note_on channel=1 note=30 velocity=0 time=4
note_on channel=1 note=28 velocity=0 time=42
note_on channel=1 note=30 velocity=115 time=2
note_on channel=1 note=30 velocity=0 time=53
note_on channel=1 note=30 velocity=104 time=43
note_on channel=1 note=30 velocity=0 time=54
note_on channel=1 note=30 velocity=115 time=42
note_on channel=1 note=30 velocity=0 time=63
note_on channel=1 note=30 velocity=109 time=33
note_on channel=1 note=30 velocity=0 time=47
note_on channel=1 note=28 velocity=92 time=1
note_on channel=1 note=28 velocity=0 time=48
note_on channel=1 note=30 velocity=109 time=0
note_on channel=1 note=30 velocity=0 time=55
note_on channel=1 note=30 velocity=121 time=41
note_on channel=1 note=30 velocity=0 time=60
note_on channel=1 note=30 velocity=109 time=36
note_on channel=1 note=30 velocity=0 time=65
note_on channel=1 note=25 velocity=115 time=31
note_on channel=1 note=25 velocity=0 time=43
note_on channel=1 note=26 velocity=109 time=5
note_on channel=1 note=26 velocity=0 time=92
note_on channel=1 note=26 velocity=98 time=52
note_on channel=1 note=26 velocity=0 time=59
note_on channel=1 note=26 velocity=98 time=37
note_on channel=1 note=26 velocity=0 time=60
note_on channel=1 note=26 velocity=109 time=36
note_on channel=1 note=26 velocity=0 time=90
note_on channel=1 note=30 velocity=115 time=6
note_on channel=1 note=30 velocity=0 time=54
note_on channel=1 note=30 velocity=109 time=42
note_on channel=1 note=30 velocity=0 time=56
note_on channel=1 note=30 velocity=109 time=40
note_on channel=1 note=30 velocity=0 time=63
note_on channel=1 note=30 velocity=115 time=33
note_on channel=1 note=30 velocity=0 time=47
note_on channel=1 note=28 velocity=98 time=1
note_on channel=1 note=28 velocity=0 time=47
note_on channel=1 note=30 velocity=115 time=1
note_on channel=1 note=30 velocity=0 time=51
note_on channel=1 note=30 velocity=104 time=45
note_on channel=1 note=30 velocity=0 time=56
note_on channel=1 note=30 velocity=109 time=40
note_on channel=1 note=30 velocity=0 time=56
note_on channel=1 note=30 velocity=104 time=40
note_on channel=1 note=30 velocity=0 time=48
note_on channel=1 note=28 velocity=86 time=0
note_on channel=1 note=28 velocity=0 time=47
note_on channel=1 note=30 velocity=104 time=1
note_on channel=1 note=30 velocity=0 time=53
note_on channel=1 note=30 velocity=115 time=43
note_on channel=1 note=30 velocity=0 time=61
note_on channel=1 note=30 velocity=115 time=35
note_on channel=1 note=30 velocity=0 time=54
note_on channel=1 note=25 velocity=109 time=18
note_on channel=1 note=25 velocity=0 time=56
note_on channel=1 note=26 velocity=104 time=16
note_on channel=1 note=26 velocity=0 time=114
note_on channel=1 note=26 velocity=109 time=30
note_on channel=1 note=26 velocity=0 time=56
note_on channel=1 note=26 velocity=109 time=40
note_on channel=1 note=26 velocity=0 time=57
note_on channel=1 note=26 velocity=109 time=39
note_on channel=1 note=26 velocity=0 time=66
note_on channel=1 note=30 velocity=104 time=30
note_on channel=1 note=30 velocity=0 time=51
note_on channel=1 note=30 velocity=121 time=45
note_on channel=1 note=30 velocity=0 time=59
note_on channel=1 note=30 velocity=115 time=37
note_on channel=1 note=30 velocity=0 time=57
note_on channel=1 note=30 velocity=109 time=39
note_on channel=1 note=28 velocity=98 time=48
note_on channel=1 note=30 velocity=0 time=4
note_on channel=1 note=28 velocity=0 time=42
note_on channel=1 note=30 velocity=115 time=2
note_on channel=1 note=30 velocity=0 time=53
note_on channel=1 note=30 velocity=104 time=43
note_on channel=1 note=30 velocity=0 time=54
note_on channel=1 note=30 velocity=115 time=42
note_on channel=1 note=30 velocity=0 time=63
note_on channel=1 note=30 velocity=109 time=33
note_on channel=1 note=30 velocity=0 time=47
note_on channel=1 note=28 velocity=92 time=1
note_on channel=1 note=28 velocity=0 time=48
note_on channel=1 note=30 velocity=109 time=0
note_on channel=1 note=30 velocity=0 time=55
note_on channel=1 note=30 velocity=121 time=41
note_on channel=1 note=30 velocity=0 time=60
note_on channel=1 note=30 velocity=109 time=36
note_on channel=1 note=30 velocity=0 time=65
note_on channel=1 note=25 velocity=115 time=31
note_on channel=1 note=25 velocity=0 time=43
note_on channel=1 note=26 velocity=109 time=5
note_on channel=1 note=26 velocity=0 time=92
note_on channel=1 note=26 velocity=98 time=52
note_on channel=1 note=26 velocity=0 time=59
note_on channel=1 note=26 velocity=98 time=37
note_on channel=1 note=26 velocity=0 time=60
note_on channel=1 note=26 velocity=109 time=36
note_on channel=1 note=26 velocity=0 time=90
note_on channel=1 note=30 velocity=115 time=6
note_on channel=1 note=30 velocity=0 time=54
note_on channel=1 note=30 velocity=109 time=42
note_on channel=1 note=30 velocity=0 time=56
note_on channel=1 note=30 velocity=109 time=40
note_on channel=1 note=30 velocity=0 time=63
note_on channel=1 note=30 velocity=115 time=33
note_on channel=1 note=30 velocity=0 time=47
note_on channel=1 note=28 velocity=98 time=1
note_on channel=1 note=28 velocity=0 time=47
note_on channel=1 note=30 velocity=115 time=1
note_on channel=1 note=30 velocity=0 time=51
note_on channel=1 note=30 velocity=104 time=45
note_on channel=1 note=30 velocity=0 time=56
note_on channel=1 note=30 velocity=109 time=40
note_on channel=1 note=30 velocity=0 time=56
note_on channel=1 note=30 velocity=104 time=40
note_on channel=1 note=30 velocity=0 time=48
note_on channel=1 note=28 velocity=86 time=0
note_on channel=1 note=28 velocity=0 time=47
note_on channel=1 note=30 velocity=104 time=1
control_change channel=1 control=7 value=122 time=24
control_change channel=1 control=7 value=121 time=24
note_on channel=1 note=30 velocity=0 time=5
control_change channel=1 control=7 value=121 time=19
control_change channel=1 control=7 value=119 time=24
note_on channel=1 note=30 velocity=115 time=0
control_change channel=1 control=7 value=119 time=24
control_change channel=1 control=7 value=119 time=24
note_on channel=1 note=30 velocity=0 time=13
control_change channel=1 control=7 value=117 time=11
control_change channel=1 control=7 value=117 time=24
note_on channel=1 note=30 velocity=115 time=0
control_change channel=1 control=7 value=116 time=24
control_change channel=1 control=7 value=116 time=24
note_on channel=1 note=30 velocity=0 time=6
control_change channel=1 control=7 value=114 time=18
note_on channel=1 note=25 velocity=109 time=0
control_change channel=1 control=7 value=112 time=24
control_change channel=1 control=7 value=112 time=24
note_on channel=1 note=25 velocity=0 time=8
control_change channel=1 control=7 value=112 time=16
note_on channel=1 note=26 velocity=104 time=0
control_change channel=1 control=7 value=111 time=24
control_change channel=1 control=7 value=111 time=24
control_change channel=1 control=7 value=109 time=24
control_change channel=1 control=7 value=109 time=24
note_on channel=1 note=26 velocity=0 time=18
control_change channel=1 control=7 value=107 time=6
control_change channel=1 control=7 value=106 time=24
note_on channel=1 note=26 velocity=109 time=0
control_change channel=1 control=7 value=106 time=24
control_change channel=1 control=7 value=106 time=24
note_on channel=1 note=26 velocity=0 time=8
control_change channel=1 control=7 value=104 time=16
control_change channel=1 control=7 value=102 time=24
note_on channel=1 note=26 velocity=109 time=0
control_change channel=1 control=7 value=102 time=24
control_change channel=1 control=7 value=101 time=24
note_on channel=1 note=26 velocity=0 time=9
control_change channel=1 control=7 value=99 time=15
control_change channel=1 control=7 value=99 time=24
note_on channel=1 note=26 velocity=109 time=0
control_change channel=1 control=7 value=97 time=24
control_change channel=1 control=7 value=95 time=24
note_on channel=1 note=26 velocity=0 time=18
control_change channel=1 control=7 value=95 time=6
control_change channel=1 control=7 value=94 time=24
note_on channel=1 note=30 velocity=104 time=0
control_change channel=1 control=7 value=92 time=24
control_change channel=1 control=7 value=92 time=24
note_on channel=1 note=30 velocity=0 time=3
control_change channel=1 control=7 value=92 time=21
control_change channel=1 control=7 value=90 time=24
note_on channel=1 note=30 velocity=121 time=0
control_change channel=1 control=7 value=90 time=24
control_change channel=1 control=7 value=89 time=24
note_on channel=1 note=30 velocity=0 time=11
control_change channel=1 control=7 value=89 time=13
control_change channel=1 control=7 value=89 time=24
note_on channel=1 note=30 velocity=115 time=0
control_change channel=1 control=7 value=87 time=24
control_change channel=1 control=7 value=87 time=24
note_on channel=1 note=30 velocity=0 time=9
control_change channel=1 control=7 value=85 time=15
control_change channel=1 control=7 value=85 time=24
note_on channel=1 note=30 velocity=109 time=0
control_change channel=1 control=7 value=84 time=24
control_change channel=1 control=7 value=84 time=24
note_on channel=1 note=28 velocity=98 time=0
note_on channel=1 note=30 velocity=0 time=4
control_change channel=1 control=7 value=82 time=20
note_on channel=1 note=28 velocity=0 time=22
control_change channel=1 control=7 value=82 time=2
note_on channel=1 note=30 velocity=115 time=0
control_change channel=1 control=7 value=82 time=24
control_change channel=1 control=7 value=82 time=24
note_on channel=1 note=30 velocity=0 time=5
control_change channel=1 control=7 value=79 time=19
control_change channel=1 control=7 value=79 time=24
note_on channel=1 note=30 velocity=104 time=0
control_change channel=1 control=7 value=79 time=24
control_change channel=1 control=7 value=79 time=24
note_on channel=1 note=30 velocity=0 time=6
control_change channel=1 control=7 value=77 time=18
control_change channel=1 control=7 value=77 time=24
note_on channel=1 note=30 velocity=115 time=0
control_change channel=1 control=7 value=75 time=24
control_change channel=1 control=7 value=75 time=24
note_on channel=1 note=30 velocity=0 time=15
control_change channel=1 control=7 value=74 time=9
control_change channel=1 control=7 value=74 time=24
note_on channel=1 note=30 velocity=109 time=0
control_change channel=1 control=7 value=72 time=24
note_on channel=1 note=30 velocity=0 time=23
control_change channel=1 control=7 value=72 time=1
note_on channel=1 note=28 velocity=92 time=0
control_change channel=1 control=7 value=72 time=24
note_on channel=1 note=28 velocity=0 time=24
control_change channel=1 control=7 value=70 time=0
note_on channel=1 note=30 velocity=109 time=0
control_change channel=1 control=7 value=70 time=24
control_change channel=1 control=7 value=70 time=24
note_on channel=1 note=30 velocity=0 time=7
control_change channel=1 control=7 value=69 time=17
control_change channel=1 control=7 value=69 time=24
note_on channel=1 note=30 velocity=121 time=0
control_change channel=1 control=7 value=67 time=24
control_change channel=1 control=7 value=67 time=24
note_on channel=1 note=30 velocity=0 time=12
control_change channel=1 control=7 value=65 time=12
control_change channel=1 control=7 value=63 time=24
note_on channel=1 note=30 velocity=109 time=0
control_change channel=1 control=7 value=63 time=24
control_change channel=1 control=7 value=62 time=24
note_on channel=1 note=30 velocity=0 time=17
control_change channel=1 control=7 value=60 time=7
control_change channel=1 control=7 value=60 time=24
note_on channel=1 note=25 velocity=115 time=0
control_change channel=1 control=7 value=58 time=24
note_on channel=1 note=25 velocity=0 time=19
control_change channel=1 control=7 value=58 time=5
note_on channel=1 note=26 velocity=109 time=0
control_change channel=1 control=7 value=57 time=24
control_change channel=1 control=7 value=55 time=24
control_change channel=1 control=7 value=55 time=24
note_on channel=1 note=26 velocity=0 time=20
control_change channel=1 control=7 value=53 time=4
control_change channel=1 control=7 value=53 time=24
control_change channel=1 control=7 value=52 time=24
note_on channel=1 note=26 velocity=98 time=0
control_change channel=1 control=7 value=52 time=24
control_change channel=1 control=7 value=50 time=24
note_on channel=1 note=26 velocity=0 time=11
control_change channel=1 control=7 value=50 time=13
control_change channel=1 control=7 value=48 time=24
note_on channel=1 note=26 velocity=98 time=0
control_change channel=1 control=7 value=48 time=24
control_change channel=1 control=7 value=47 time=24
note_on channel=1 note=26 velocity=0 time=12
control_change channel=1 control=7 value=45 time=12
control_change channel=1 control=7 value=43 time=24
note_on channel=1 note=26 velocity=109 time=0
control_change channel=1 control=7 value=43 time=24
control_change channel=1 control=7 value=43 time=24
control_change channel=1 control=7 value=42 time=24
note_on channel=1 note=26 velocity=0 time=18
control_change channel=1 control=7 value=40 time=6
note_on channel=1 note=30 velocity=115 time=0
control_change channel=1 control=7 value=40 time=24
control_change channel=1 control=7 value=40 time=24
note_on channel=1 note=30 velocity=0 time=6
control_change channel=1 control=7 value=38 time=18
control_change channel=1 control=7 value=38 time=24
note_on channel=1 note=30 velocity=109 time=0
control_change channel=1 control=7 value=37 time=24
control_change channel=1 control=7 value=37 time=24
note_on channel=1 note=30 velocity=0 time=8
control_change channel=1 control=7 value=35 time=16
control_change channel=1 control=7 value=33 time=24
note_on channel=1 note=30 velocity=109 time=0
control_change channel=1 control=7 value=33 time=24
control_change channel=1 control=7 value=31 time=24
note_on channel=1 note=30 velocity=0 time=15
control_change channel=1 control=7 value=31 time=9
control_change channel=1 control=7 value=30 time=24
note_on channel=1 note=30 velocity=115 time=0
control_change channel=1 control=7 value=30 time=24
note_on channel=1 note=30 velocity=0 time=23
control_change channel=1 control=7 value=30 time=1
note_on channel=1 note=28 velocity=98 time=0
control_change channel=1 control=7 value=28 time=24
note_on channel=1 note=28 velocity=0 time=23
control_change channel=1 control=7 value=26 time=1
note_on channel=1 note=30 velocity=115 time=0
control_change channel=1 control=7 value=26 time=24
control_change channel=1 control=7 value=26 time=24
note_on channel=1 note=30 velocity=0 time=3
control_change channel=1 control=7 value=26 time=21
control_change channel=1 control=7 value=25 time=24
note_on channel=1 note=30 velocity=104 time=0
control_change channel=1 control=7 value=25 time=24
control_change channel=1 control=7 value=25 time=24
note_on channel=1 note=30 velocity=0 time=8
control_change channel=1 control=7 value=25 time=16
control_change channel=1 control=7 value=25 time=24
note_on channel=1 note=30 velocity=109 time=0
control_change channel=1 control=7 value=23 time=24
control_change channel=1 control=7 value=21 time=24
note_on channel=1 note=30 velocity=0 time=8
control_change channel=1 control=7 value=21 time=16
control_change channel=1 control=7 value=21 time=24
note_on channel=1 note=30 velocity=104 time=0
control_change channel=1 control=7 value=21 time=24
note_on channel=1 note=30 velocity=0 time=24
control_change channel=1 control=7 value=20 time=0
note_on channel=1 note=28 velocity=86 time=0
control_change channel=1 control=7 value=18 time=24
note_on channel=1 note=28 velocity=0 time=23
control_change channel=1 control=7 value=18 time=1
note_on channel=1 note=30 velocity=104 time=0
control_change channel=1 control=7 value=18 time=24
control_change channel=1 control=7 value=18 time=24
note_on channel=1 note=30 velocity=0 time=5
control_change channel=1 control=7 value=16 time=19
control_change channel=1 control=7 value=15 time=24
note_on channel=1 note=30 velocity=115 time=0
control_change channel=1 control=7 value=15 time=24
control_change channel=1 control=7 value=15 time=24
note_on channel=1 note=30 velocity=0 time=13
control_change channel=1 control=7 value=13 time=11
control_change channel=1 control=7 value=13 time=24
note_on channel=1 note=30 velocity=115 time=0
control_change channel=1 control=7 value=13 time=24
control_change channel=1 control=7 value=13 time=24
note_on channel=1 note=30 velocity=0 time=6
control_change channel=1 control=7 value=13 time=18
note_on channel=1 note=25 velocity=109 time=0
control_change channel=1 control=7 value=11 time=24
control_change channel=1 control=7 value=11 time=24
note_on channel=1 note=25 velocity=0 time=8
control_change channel=1 control=7 value=10 time=16
note_on channel=1 note=26 velocity=104 time=0
control_change channel=1 control=7 value=10 time=24
control_change channel=1 control=7 value=8 time=24
control_change channel=1 control=7 value=8 time=24
control_change channel=1 control=7 value=6 time=24
note_on channel=1 note=26 velocity=0 time=18
control_change channel=1 control=7 value=6 time=6
control_change channel=1 control=7 value=6 time=24
note_on channel=1 note=26 velocity=109 time=0
control_change channel=1 control=7 value=5 time=24
control_change channel=1 control=7 value=3 time=24
note_on channel=1 note=26 velocity=0 time=8
control_change channel=1 control=7 value=3 time=16
control_change channel=1 control=7 value=3 time=24
note_on channel=1 note=26 velocity=109 time=0
control_change channel=1 control=7 value=1 time=24
control_change channel=1 control=7 value=1 time=24
note_on channel=1 note=26 velocity=0 time=9
control_change channel=1 control=7 value=0 time=15
control_change channel=1 control=7 value=0 time=24
note_on channel=1 note=26 velocity=109 time=0
control_change channel=1 control=7 value=0 time=24
control_change channel=1 control=7 value=0 time=24
note_on channel=1 note=26 velocity=0 time=18
control_change channel=1 control=7 value=0 time=6
<meta message end_of_track time=0>
<meta message midi_port port=0 time=0>
<meta message track_name name=u'Piano-2' time=0>
control_change channel=2 control=0 value=0 time=0
program_change channel=2 program=1 time=0
control_change channel=2 control=7 value=106 time=0
control_change channel=2 control=10 value=64 time=0
note_on channel=2 note=42 velocity=104 time=3840
note_on channel=2 note=54 velocity=86 time=0
note_on channel=2 note=57 velocity=98 time=0
note_on channel=2 note=61 velocity=115 time=0
note_on channel=2 note=61 velocity=0 time=56
note_on channel=2 note=54 velocity=0 time=1
note_on channel=2 note=42 velocity=0 time=2
note_on channel=2 note=57 velocity=0 time=1
note_on channel=2 note=42 velocity=98 time=132
note_on channel=2 note=54 velocity=80 time=0
note_on channel=2 note=57 velocity=98 time=0
note_on channel=2 note=61 velocity=115 time=0
note_on channel=2 note=42 velocity=0 time=29
note_on channel=2 note=54 velocity=0 time=14
note_on channel=2 note=61 velocity=0 time=2
note_on channel=2 note=42 velocity=68 time=3
note_on channel=2 note=57 velocity=0 time=10
note_on channel=2 note=42 velocity=0 time=7
note_on channel=2 note=42 velocity=86 time=7
note_on channel=2 note=52 velocity=74 time=0
note_on channel=2 note=56 velocity=86 time=0
note_on channel=2 note=59 velocity=104 time=0
note_on channel=2 note=56 velocity=0 time=41
note_on channel=2 note=52 velocity=0 time=0
note_on channel=2 note=59 velocity=0 time=1
note_on channel=2 note=42 velocity=0 time=2
note_on channel=2 note=42 velocity=104 time=28
note_on channel=2 note=54 velocity=86 time=0
note_on channel=2 note=57 velocity=92 time=0
note_on channel=2 note=61 velocity=115 time=0
note_on channel=2 note=42 velocity=0 time=184
note_on channel=2 note=61 velocity=0 time=28
note_on channel=2 note=54 velocity=0 time=1
note_on channel=2 note=42 velocity=68 time=3
note_on channel=2 note=57 velocity=0 time=2
note_on channel=2 note=42 velocity=0 time=11
note_on channel=2 note=42 velocity=98 time=11
note_on channel=2 note=54 velocity=80 time=0
note_on channel=2 note=57 velocity=98 time=0
note_on channel=2 note=61 velocity=115 time=0
note_on channel=2 note=54 velocity=0 time=40
note_on channel=2 note=61 velocity=0 time=2
note_on channel=2 note=42 velocity=0 time=8
note_on channel=2 note=57 velocity=0 time=4
note_on channel=2 note=42 velocity=92 time=18
note_on channel=2 note=52 velocity=72 time=0
note_on channel=2 note=56 velocity=74 time=0
note_on channel=2 note=59 velocity=98 time=0
note_on channel=2 note=59 velocity=0 time=42
note_on channel=2 note=56 velocity=0 time=1
note_on channel=2 note=52 velocity=0 time=0
note_on channel=2 note=42 velocity=0 time=1
note_on channel=2 note=42 velocity=104 time=28
note_on channel=2 note=54 velocity=78 time=0
note_on channel=2 note=57 velocity=86 time=0
note_on channel=2 note=61 velocity=109 time=0
note_on channel=2 note=61 velocity=0 time=189
note_on channel=2 note=57 velocity=0 time=0
note_on channel=2 note=54 velocity=0 time=5
note_on channel=2 note=42 velocity=0 time=25
note_on channel=2 note=42 velocity=98 time=21
note_on channel=2 note=49 velocity=98 time=0
note_on channel=2 note=54 velocity=86 time=0
note_on channel=2 note=57 velocity=80 time=0
note_on channel=2 note=54 velocity=0 time=47
note_on channel=2 note=57 velocity=0 time=5
note_on channel=2 note=49 velocity=0 time=0
note_on channel=2 note=42 velocity=0 time=15
note_on channel=2 note=37 velocity=92 time=5
note_on channel=2 note=47 velocity=104 time=0
note_on channel=2 note=52 velocity=92 time=0
note_on channel=2 note=56 velocity=98 time=0
note_on channel=2 note=56 velocity=0 time=41
note_on channel=2 note=47 velocity=0 time=4
note_on channel=2 note=52 velocity=0 time=13
note_on channel=2 note=37 velocity=0 time=7
note_on channel=2 note=38 velocity=98 time=7
note_on channel=2 note=45 velocity=98 time=0
note_on channel=2 note=50 velocity=64 time=0
note_on channel=2 note=54 velocity=92 time=0
note_on channel=2 note=38 velocity=0 time=283
note_on channel=2 note=38 velocity=56 time=5
note_on channel=2 note=45 velocity=0 time=16
note_on channel=2 note=50 velocity=0 time=3
note_on channel=2 note=54 velocity=0 time=3
note_on channel=2 note=45 velocity=60 time=50
note_on channel=2 note=50 velocity=50 time=0
note_on channel=2 note=54 velocity=72 time=0
note_on channel=2 note=38 velocity=0 time=19
note_on channel=2 note=38 velocity=92 time=5
note_on channel=2 note=45 velocity=0 time=22
note_on channel=2 note=50 velocity=0 time=3
note_on channel=2 note=54 velocity=0 time=3
note_on channel=2 note=38 velocity=0 time=19
note_on channel=2 note=42 velocity=104 time=1
note_on channel=2 note=54 velocity=92 time=0
note_on channel=2 note=57 velocity=92 time=0
note_on channel=2 note=61 velocity=115 time=0
note_on channel=2 note=61 velocity=0 time=44
note_on channel=2 note=54 velocity=0 time=3
note_on channel=2 note=42 velocity=0 time=3
note_on channel=2 note=57 velocity=0 time=1
note_on channel=2 note=42 velocity=98 time=141
note_on channel=2 note=54 velocity=78 time=0
note_on channel=2 note=57 velocity=92 time=0
note_on channel=2 note=61 velocity=115 time=0
note_on channel=2 note=42 velocity=0 time=28
note_on channel=2 note=54 velocity=0 time=19
note_on channel=2 note=42 velocity=70 time=1
note_on channel=2 note=61 velocity=0 time=5
note_on channel=2 note=57 velocity=0 time=8
note_on channel=2 note=42 velocity=0 time=4
note_on channel=2 note=42 velocity=92 time=7
note_on channel=2 note=52 velocity=80 time=0
note_on channel=2 note=56 velocity=92 time=0
note_on channel=2 note=59 velocity=115 time=0
note_on channel=2 note=56 velocity=0 time=37
note_on channel=2 note=52 velocity=0 time=0
note_on channel=2 note=42 velocity=0 time=2
note_on channel=2 note=59 velocity=0 time=3
note_on channel=2 note=42 velocity=104 time=30
note_on channel=2 note=54 velocity=78 time=0
note_on channel=2 note=57 velocity=86 time=0
note_on channel=2 note=61 velocity=109 time=0
note_on channel=2 note=42 velocity=0 time=171
note_on channel=2 note=42 velocity=74 time=21
note_on channel=2 note=42 velocity=0 time=12
note_on channel=2 note=54 velocity=0 time=8
note_on channel=2 note=61 velocity=0 time=3
note_on channel=2 note=42 velocity=74 time=1
note_on channel=2 note=57 velocity=0 time=2
note_on channel=2 note=42 velocity=0 time=11
note_on channel=2 note=42 velocity=92 time=11
note_on channel=2 note=54 velocity=86 time=0
note_on channel=2 note=57 velocity=98 time=0
note_on channel=2 note=61 velocity=115 time=0
note_on channel=2 note=42 velocity=0 time=31
note_on channel=2 note=42 velocity=104 time=17
note_on channel=2 note=54 velocity=0 time=3
note_on channel=2 note=61 velocity=0 time=0
note_on channel=2 note=57 velocity=0 time=11
note_on channel=2 note=52 velocity=80 time=10
note_on channel=2 note=56 velocity=92 time=0
note_on channel=2 note=59 velocity=109 time=0
note_on channel=2 note=42 velocity=0 time=39
note_on channel=2 note=52 velocity=0 time=3
note_on channel=2 note=56 velocity=0 time=2
note_on channel=2 note=59 velocity=0 time=3
note_on channel=2 note=42 velocity=80 time=1
note_on channel=2 note=42 velocity=0 time=17
note_on channel=2 note=42 velocity=98 time=7
note_on channel=2 note=54 velocity=80 time=0
note_on channel=2 note=57 velocity=92 time=0
note_on channel=2 note=61 velocity=115 time=0
note_on channel=2 note=42 velocity=0 time=165
note_on channel=2 note=42 velocity=104 time=27
note_on channel=2 note=61 velocity=0 time=1
note_on channel=2 note=57 velocity=0 time=0
note_on channel=2 note=54 velocity=0 time=2
note_on channel=2 note=42 velocity=0 time=34
note_on channel=2 note=42 velocity=92 time=11
note_on channel=2 note=49 velocity=109 time=0
note_on channel=2 note=54 velocity=92 time=0
note_on channel=2 note=57 velocity=92 time=0
note_on channel=2 note=54 velocity=0 time=47
note_on channel=2 note=57 velocity=0 time=3
note_on channel=2 note=49 velocity=0 time=5
note_on channel=2 note=42 velocity=0 time=8
note_on channel=2 note=37 velocity=98 time=9
note_on channel=2 note=47 velocity=109 time=0
note_on channel=2 note=52 velocity=80 time=0
note_on channel=2 note=56 velocity=92 time=0
note_on channel=2 note=47 velocity=0 time=39
note_on channel=2 note=56 velocity=0 time=3
note_on channel=2 note=52 velocity=0 time=9
note_on channel=2 note=37 velocity=0 time=6
note_on channel=2 note=38 velocity=104 time=15
note_on channel=2 note=45 velocity=98 time=0
note_on channel=2 note=50 velocity=74 time=0
note_on channel=2 note=54 velocity=109 time=0
note_on channel=2 note=38 velocity=0 time=164
note_on channel=2 note=38 velocity=76 time=28
note_on channel=2 note=38 velocity=0 time=9
note_on channel=2 note=38 velocity=109 time=15
note_on channel=2 note=38 velocity=0 time=29
note_on channel=2 note=38 velocity=80 time=19
note_on channel=2 note=38 velocity=0 time=13
note_on channel=2 note=38 velocity=98 time=11
note_on channel=2 note=54 velocity=0 time=24
note_on channel=2 note=45 velocity=0 time=2
note_on channel=2 note=50 velocity=0 time=6
note_on channel=2 note=45 velocity=104 time=16
note_on channel=2 note=50 velocity=78 time=0
note_on channel=2 note=54 velocity=92 time=0
note_on channel=2 note=38 velocity=0 time=37
note_on channel=2 note=54 velocity=0 time=37
note_on channel=2 note=50 velocity=0 time=0
note_on channel=2 note=45 velocity=0 time=4
note_on channel=2 note=42 velocity=109 time=18
note_on channel=2 note=49 velocity=109 time=0
note_on channel=2 note=54 velocity=92 time=0
note_on channel=2 note=57 velocity=80 time=0
note_on channel=2 note=54 velocity=0 time=82
note_on channel=2 note=49 velocity=0 time=1
note_on channel=2 note=57 velocity=0 time=2
note_on channel=2 note=42 velocity=0 time=4
note_on channel=2 note=42 velocity=92 time=679
note_on channel=2 note=49 velocity=98 time=0
note_on channel=2 note=54 velocity=80 time=0
note_on channel=2 note=56 velocity=92 time=0
note_on channel=2 note=57 velocity=74 time=0
note_on channel=2 note=56 velocity=0 time=331
note_on channel=2 note=54 velocity=0 time=1
note_on channel=2 note=57 velocity=0 time=6
note_on channel=2 note=49 velocity=0 time=1
note_on channel=2 note=42 velocity=0 time=16
note_on channel=2 note=42 velocity=104 time=29
note_on channel=2 note=45 velocity=92 time=0
note_on channel=2 note=50 velocity=60 time=0
note_on channel=2 note=54 velocity=80 time=0
note_on channel=2 note=50 velocity=0 time=347
note_on channel=2 note=45 velocity=0 time=0
note_on channel=2 note=54 velocity=0 time=3
note_on channel=2 note=42 velocity=0 time=1
note_on channel=2 note=42 velocity=109 time=33
note_on channel=2 note=47 velocity=92 time=0
note_on channel=2 note=52 velocity=92 time=0
note_on channel=2 note=56 velocity=92 time=0
note_on channel=2 note=52 velocity=0 time=354
note_on channel=2 note=47 velocity=0 time=3
note_on channel=2 note=56 velocity=0 time=9
note_on channel=2 note=42 velocity=0 time=1
note_on channel=2 note=42 velocity=98 time=17
note_on channel=2 note=49 velocity=104 time=0
note_on channel=2 note=54 velocity=98 time=0
note_on channel=2 note=57 velocity=86 time=0
note_on channel=2 note=49 velocity=0 time=355
note_on channel=2 note=57 velocity=0 time=1
note_on channel=2 note=54 velocity=0 time=2
note_on channel=2 note=42 velocity=0 time=0
note_on channel=2 note=42 velocity=109 time=26
note_on channel=2 note=49 velocity=109 time=0
note_on channel=2 note=54 velocity=92 time=0
note_on channel=2 note=57 velocity=80 time=0
note_on channel=2 note=54 velocity=0 time=328
note_on channel=2 note=49 velocity=0 time=14
note_on channel=2 note=57 velocity=0 time=11
note_on channel=2 note=42 velocity=0 time=9
note_on channel=2 note=42 velocity=98 time=22
note_on channel=2 note=45 velocity=98 time=0
note_on channel=2 note=50 velocity=64 time=0
note_on channel=2 note=54 velocity=86 time=0
note_on channel=2 note=45 velocity=0 time=344
note_on channel=2 note=50 velocity=0 time=2
note_on channel=2 note=54 velocity=0 time=4
note_on channel=2 note=42 velocity=0 time=6
note_on channel=2 note=42 velocity=98 time=28
note_on channel=2 note=47 velocity=86 time=0
note_on channel=2 note=52 velocity=92 time=0
note_on channel=2 note=56 velocity=92 time=0
note_on channel=2 note=52 velocity=0 time=333
note_on channel=2 note=47 velocity=0 time=2
note_on channel=2 note=56 velocity=0 time=11
note_on channel=2 note=42 velocity=0 time=8
note_on channel=2 note=42 velocity=92 time=30
note_on channel=2 note=49 velocity=98 time=0
note_on channel=2 note=54 velocity=92 time=0
note_on channel=2 note=56 velocity=104 time=0
note_on channel=2 note=57 velocity=78 time=0
note_on channel=2 note=54 velocity=0 time=355
note_on channel=2 note=57 velocity=0 time=1
note_on channel=2 note=42 velocity=0 time=1
note_on channel=2 note=49 velocity=0 time=0
note_on channel=2 note=56 velocity=0 time=0
note_on channel=2 note=42 velocity=91 time=27
note_on channel=2 note=49 velocity=91 time=0
note_on channel=2 note=54 velocity=91 time=0
note_on channel=2 note=56 velocity=91 time=0
note_on channel=2 note=57 velocity=91 time=0
note_on channel=2 note=54 velocity=0 time=326
note_on channel=2 note=56 velocity=0 time=1
note_on channel=2 note=57 velocity=0 time=2
note_on channel=2 note=49 velocity=0 time=17
note_on channel=2 note=42 velocity=0 time=22
note_on channel=2 note=38 velocity=93 time=16
note_on channel=2 note=45 velocity=93 time=0
note_on channel=2 note=50 velocity=93 time=0
note_on channel=2 note=54 velocity=93 time=0
note_on channel=2 note=45 velocity=0 time=334
note_on channel=2 note=54 velocity=0 time=13
note_on channel=2 note=50 velocity=0 time=0
note_on channel=2 note=38 velocity=0 time=13
note_on channel=2 note=40 velocity=104 time=24
note_on channel=2 note=47 velocity=92 time=0
note_on channel=2 note=52 velocity=92 time=0
note_on channel=2 note=56 velocity=98 time=0
note_on channel=2 note=52 velocity=0 time=349
note_on channel=2 note=47 velocity=0 time=3
note_on channel=2 note=56 velocity=0 time=12
note_on channel=2 note=42 velocity=98 time=20
note_on channel=2 note=49 velocity=98 time=0
note_on channel=2 note=54 velocity=92 time=0
note_on channel=2 note=57 velocity=92 time=0
note_on channel=2 note=40 velocity=0 time=1
note_on channel=2 note=57 velocity=0 time=355
note_on channel=2 note=49 velocity=0 time=0
note_on channel=2 note=54 velocity=0 time=2
note_on channel=2 note=42 velocity=0 time=5
note_on channel=2 note=42 velocity=98 time=21
note_on channel=2 note=49 velocity=109 time=0
note_on channel=2 note=54 velocity=86 time=0
note_on channel=2 note=57 velocity=76 time=0
note_on channel=2 note=54 velocity=0 time=310
note_on channel=2 note=49 velocity=0 time=31
note_on channel=2 note=57 velocity=0 time=21
note_on channel=2 note=42 velocity=0 time=10
note_on channel=2 note=38 velocity=98 time=12
note_on channel=2 note=45 velocity=98 time=0
note_on channel=2 note=50 velocity=64 time=0
note_on channel=2 note=54 velocity=86 time=0
note_on channel=2 note=45 velocity=0 time=334
note_on channel=2 note=54 velocity=0 time=12
note_on channel=2 note=50 velocity=0 time=1
note_on channel=2 note=38 velocity=0 time=20
note_on channel=2 note=40 velocity=92 time=17
note_on channel=2 note=47 velocity=98 time=0
note_on channel=2 note=52 velocity=86 time=0
note_on channel=2 note=56 velocity=92 time=0
note_on channel=2 note=52 velocity=0 time=354
note_on channel=2 note=47 velocity=0 time=1
note_on channel=2 note=56 velocity=0 time=8
note_on channel=2 note=40 velocity=0 time=15
note_on channel=2 note=42 velocity=104 time=6
note_on channel=2 note=49 velocity=104 time=0
note_on channel=2 note=54 velocity=104 time=0
note_on channel=2 note=57 velocity=92 time=0
note_on channel=2 note=49 velocity=0 time=211
note_on channel=2 note=57 velocity=0 time=2
note_on channel=2 note=54 velocity=0 time=0
note_on channel=2 note=42 velocity=0 time=5
note_on channel=2 note=42 velocity=99 time=22
note_on channel=2 note=47 velocity=99 time=0
note_on channel=2 note=52 velocity=99 time=0
note_on channel=2 note=56 velocity=99 time=0
note_on channel=2 note=47 velocity=0 time=42
note_on channel=2 note=52 velocity=0 time=2
note_on channel=2 note=56 velocity=0 time=2
note_on channel=2 note=42 velocity=0 time=3
note_on channel=2 note=42 velocity=99 time=23
note_on channel=2 note=49 velocity=99 time=0
note_on channel=2 note=54 velocity=99 time=0
note_on channel=2 note=57 velocity=99 time=0
note_on channel=2 note=54 velocity=0 time=41
note_on channel=2 note=49 velocity=0 time=1
note_on channel=2 note=42 velocity=0 time=2
note_on channel=2 note=57 velocity=0 time=4
note_on channel=2 note=35 velocity=115 time=24
note_on channel=2 note=45 velocity=92 time=0
note_on channel=2 note=50 velocity=64 time=0
note_on channel=2 note=54 velocity=92 time=0
note_on channel=2 note=54 velocity=0 time=341
note_on channel=2 note=45 velocity=0 time=3
note_on channel=2 note=50 velocity=0 time=18
note_on channel=2 note=35 velocity=0 time=19
note_on channel=2 note=37 velocity=104 time=3
note_on channel=2 note=49 velocity=98 time=0
note_on channel=2 note=52 velocity=74 time=0
note_on channel=2 note=57 velocity=76 time=0
note_on channel=2 note=52 velocity=0 time=163
note_on channel=2 note=49 velocity=0 time=1
note_on channel=2 note=57 velocity=0 time=6
note_on channel=2 note=37 velocity=0 time=22
note_on channel=2 note=40 velocity=98 time=0
note_on channel=2 note=47 velocity=98 time=0
note_on channel=2 note=52 velocity=92 time=0
note_on channel=2 note=56 velocity=98 time=0
note_on channel=2 note=47 velocity=0 time=145
note_on channel=2 note=56 velocity=0 time=15
note_on channel=2 note=52 velocity=0 time=22
note_on channel=2 note=40 velocity=0 time=1
note_on channel=2 note=35 velocity=98 time=9
note_on channel=2 note=45 velocity=98 time=0
note_on channel=2 note=50 velocity=64 time=0
note_on channel=2 note=54 velocity=86 time=0
note_on channel=2 note=45 velocity=0 time=330
note_on channel=2 note=50 velocity=0 time=19
note_on channel=2 note=54 velocity=0 time=7
note_on channel=2 note=35 velocity=0 time=20
note_on channel=2 note=42 velocity=98 time=8
note_on channel=2 note=49 velocity=98 time=0
note_on channel=2 note=54 velocity=92 time=0
note_on channel=2 note=57 velocity=78 time=0
note_on channel=2 note=57 velocity=0 time=73
note_on channel=2 note=49 velocity=0 time=3
note_on channel=2 note=54 velocity=0 time=2
note_on channel=2 note=42 velocity=0 time=13
note_on channel=2 note=40 velocity=86 time=5
note_on channel=2 note=47 velocity=104 time=0
note_on channel=2 note=52 velocity=70 time=0
note_on channel=2 note=56 velocity=80 time=0
note_on channel=2 note=47 velocity=0 time=116
note_on channel=2 note=52 velocity=0 time=2
note_on channel=2 note=56 velocity=0 time=2
note_on channel=2 note=47 velocity=115 time=24
note_on channel=2 note=52 velocity=72 time=0
note_on channel=2 note=56 velocity=92 time=0
note_on channel=2 note=56 velocity=0 time=44
note_on channel=2 note=47 velocity=0 time=3
note_on channel=2 note=52 velocity=0 time=12
note_on channel=2 note=49 velocity=104 time=13
note_on channel=2 note=52 velocity=78 time=0
note_on channel=2 note=57 velocity=76 time=0
note_on channel=2 note=49 velocity=0 time=38
note_on channel=2 note=57 velocity=0 time=14
note_on channel=2 note=52 velocity=0 time=9
note_on channel=2 note=35 velocity=98 time=11
note_on channel=2 note=45 velocity=104 time=0
note_on channel=2 note=50 velocity=48 time=0
note_on channel=2 note=54 velocity=72 time=0
note_on channel=2 note=40 velocity=0 time=10
note_on channel=2 note=45 velocity=0 time=320
note_on channel=2 note=50 velocity=0 time=17
note_on channel=2 note=54 velocity=0 time=6
note_on channel=2 note=35 velocity=0 time=18
note_on channel=2 note=37 velocity=104 time=13
note_on channel=2 note=49 velocity=104 time=0
note_on channel=2 note=52 velocity=86 time=0
note_on channel=2 note=57 velocity=76 time=0
note_on channel=2 note=37 velocity=0 time=164
note_on channel=2 note=40 velocity=104 time=28
note_on channel=2 note=49 velocity=0 time=16
note_on channel=2 note=52 velocity=0 time=0
note_on channel=2 note=57 velocity=0 time=3
note_on channel=2 note=47 velocity=109 time=29
note_on channel=2 note=52 velocity=92 time=0
note_on channel=2 note=56 velocity=98 time=0
note_on channel=2 note=47 velocity=0 time=43
note_on channel=2 note=56 velocity=0 time=5
note_on channel=2 note=52 velocity=0 time=4
note_on channel=2 note=49 velocity=115 time=20
note_on channel=2 note=52 velocity=92 time=0
note_on channel=2 note=57 velocity=78 time=0
note_on channel=2 note=52 velocity=0 time=41
note_on channel=2 note=49 velocity=0 time=10
note_on channel=2 note=57 velocity=0 time=7
note_on channel=2 note=40 velocity=0 time=7
note_on channel=2 note=35 velocity=115 time=7
note_on channel=2 note=50 velocity=80 time=0
note_on channel=2 note=54 velocity=98 time=0
note_on channel=2 note=59 velocity=115 time=0
note_on channel=2 note=54 velocity=0 time=153
note_on channel=2 note=50 velocity=0 time=2
note_on channel=2 note=59 velocity=0 time=6
note_on channel=2 note=35 velocity=0 time=17
note_on channel=2 note=37 velocity=115 time=14
note_on channel=2 note=52 velocity=86 time=0
note_on channel=2 note=57 velocity=78 time=0
note_on channel=2 note=61 velocity=121 time=0
note_on channel=2 note=61 velocity=0 time=153
note_on channel=2 note=52 velocity=0 time=0
note_on channel=2 note=57 velocity=0 time=3
note_on channel=2 note=38 velocity=98 time=36
note_on channel=2 note=54 velocity=92 time=0
note_on channel=2 note=57 velocity=92 time=0
note_on channel=2 note=62 velocity=78 time=0
note_on channel=2 note=37 velocity=0 time=13
note_on channel=2 note=62 velocity=0 time=258
note_on channel=2 note=54 velocity=0 time=0
note_on channel=2 note=38 velocity=0 time=1
note_on channel=2 note=57 velocity=0 time=2
note_on channel=2 note=42 velocity=98 time=878
note_on channel=2 note=54 velocity=86 time=0
note_on channel=2 note=56 velocity=104 time=0
note_on channel=2 note=57 velocity=92 time=0
note_on channel=2 note=61 velocity=115 time=0
note_on channel=2 note=56 velocity=0 time=313
note_on channel=2 note=54 velocity=0 time=18
note_on channel=2 note=61 velocity=0 time=2
note_on channel=2 note=57 velocity=0 time=8
note_on channel=2 note=42 velocity=0 time=14
note_on channel=2 note=42 velocity=115 time=29
note_on channel=2 note=50 velocity=80 time=0
note_on channel=2 note=54 velocity=98 time=0
note_on channel=2 note=57 velocity=78 time=0
note_on channel=2 note=50 velocity=0 time=181
note_on channel=2 note=54 velocity=0 time=2
note_on channel=2 note=57 velocity=0 time=7
note_on channel=2 note=62 velocity=80 time=50
note_on channel=2 note=66 velocity=104 time=0
note_on channel=2 note=69 velocity=76 time=0
note_on channel=2 note=69 velocity=0 time=81
note_on channel=2 note=66 velocity=0 time=0
note_on channel=2 note=62 velocity=0 time=8
note_on channel=2 note=42 velocity=0 time=30
note_on channel=2 note=42 velocity=115 time=25
note_on channel=2 note=52 velocity=86 time=0
note_on channel=2 note=56 velocity=104 time=0
note_on channel=2 note=59 velocity=115 time=0
note_on channel=2 note=59 velocity=0 time=345
note_on channel=2 note=52 velocity=0 time=3
note_on channel=2 note=56 velocity=0 time=5
note_on channel=2 note=42 velocity=0 time=0
note_on channel=2 note=42 velocity=109 time=31
note_on channel=2 note=49 velocity=115 time=0
note_on channel=2 note=54 velocity=98 time=0
note_on channel=2 note=57 velocity=92 time=0
note_on channel=2 note=42 velocity=0 time=222
note_on channel=2 note=42 velocity=80 time=18
note_on channel=2 note=42 velocity=0 time=13
note_on channel=2 note=42 velocity=86 time=11
note_on channel=2 note=49 velocity=0 time=5
note_on channel=2 note=57 velocity=0 time=1
note_on channel=2 note=54 velocity=0 time=1
note_on channel=2 note=49 velocity=109 time=17
note_on channel=2 note=54 velocity=92 time=0
note_on channel=2 note=57 velocity=76 time=0
note_on channel=2 note=49 velocity=0 time=12
note_on channel=2 note=57 velocity=0 time=3
note_on channel=2 note=54 velocity=0 time=1
note_on channel=2 note=47 velocity=104 time=8
note_on channel=2 note=52 velocity=78 time=0
note_on channel=2 note=56 velocity=98 time=0
note_on channel=2 note=42 velocity=0 time=3
note_on channel=2 note=47 velocity=0 time=57
note_on channel=2 note=52 velocity=0 time=3
note_on channel=2 note=56 velocity=0 time=0
note_on channel=2 note=42 velocity=109 time=9
note_on channel=2 note=54 velocity=92 time=0
note_on channel=2 note=57 velocity=104 time=0
note_on channel=2 note=61 velocity=121 time=0
note_on channel=2 note=61 velocity=0 time=322
note_on channel=2 note=54 velocity=0 time=11
note_on channel=2 note=57 velocity=0 time=1
note_on channel=2 note=42 velocity=0 time=16
note_on channel=2 note=42 velocity=115 time=34
note_on channel=2 note=50 velocity=86 time=0
note_on channel=2 note=54 velocity=92 time=0
note_on channel=2 note=57 velocity=74 time=0
note_on channel=2 note=50 velocity=0 time=187
note_on channel=2 note=54 velocity=0 time=1
note_on channel=2 note=57 velocity=0 time=4
note_on channel=2 note=62 velocity=74 time=48
note_on channel=2 note=66 velocity=92 time=0
note_on channel=2 note=69 velocity=72 time=0
note_on channel=2 note=66 velocity=0 time=76
note_on channel=2 note=69 velocity=0 time=2
note_on channel=2 note=62 velocity=0 time=8
note_on channel=2 note=42 velocity=0 time=29
note_on channel=2 note=42 velocity=115 time=29
note_on channel=2 note=52 velocity=86 time=0
note_on channel=2 note=56 velocity=104 time=0
note_on channel=2 note=59 velocity=115 time=0
note_on channel=2 note=52 velocity=0 time=337
note_on channel=2 note=59 velocity=0 time=10
note_on channel=2 note=56 velocity=0 time=0
note_on channel=2 note=42 velocity=0 time=8
note_on channel=2 note=42 velocity=104 time=29
note_on channel=2 note=54 velocity=78 time=0
note_on channel=2 note=56 velocity=86 time=0
note_on channel=2 note=57 velocity=98 time=0
note_on channel=2 note=61 velocity=109 time=0
note_on channel=2 note=54 velocity=0 time=193
note_on channel=2 note=56 velocity=0 time=7
note_on channel=2 note=61 velocity=0 time=7
note_on channel=2 note=42 velocity=0 time=11
note_on channel=2 note=57 velocity=0 time=2
note_on channel=2 note=40 velocity=109 time=20
note_on channel=2 note=52 velocity=80 time=0
note_on channel=2 note=56 velocity=92 time=0
note_on channel=2 note=59 velocity=104 time=0
note_on channel=2 note=52 velocity=0 time=45
note_on channel=2 note=59 velocity=0 time=6
note_on channel=2 note=40 velocity=0 time=2
note_on channel=2 note=56 velocity=0 time=1
note_on channel=2 note=42 velocity=115 time=18
note_on channel=2 note=54 velocity=78 time=0
note_on channel=2 note=57 velocity=92 time=0
note_on channel=2 note=61 velocity=115 time=0
note_on channel=2 note=61 velocity=0 time=47
note_on channel=2 note=42 velocity=0 time=0
note_on channel=2 note=57 velocity=0 time=4
note_on channel=2 note=54 velocity=0 time=0
note_on channel=2 note=35 velocity=115 time=21
note_on channel=2 note=45 velocity=92 time=0
note_on channel=2 note=50 velocity=64 time=0
note_on channel=2 note=54 velocity=92 time=0
note_on channel=2 note=54 velocity=0 time=341
note_on channel=2 note=45 velocity=0 time=3
note_on channel=2 note=50 velocity=0 time=18
note_on channel=2 note=35 velocity=0 time=19
note_on channel=2 note=37 velocity=104 time=3
note_on channel=2 note=49 velocity=98 time=0
note_on channel=2 note=52 velocity=74 time=0
note_on channel=2 note=57 velocity=76 time=0
note_on channel=2 note=52 velocity=0 time=163
note_on channel=2 note=49 velocity=0 time=1
note_on channel=2 note=57 velocity=0 time=6
note_on channel=2 note=37 velocity=0 time=22
note_on channel=2 note=40 velocity=98 time=0
note_on channel=2 note=47 velocity=98 time=0
note_on channel=2 note=52 velocity=92 time=0
note_on channel=2 note=56 velocity=98 time=0
note_on channel=2 note=47 velocity=0 time=145
note_on channel=2 note=56 velocity=0 time=15
note_on channel=2 note=52 velocity=0 time=22
note_on channel=2 note=40 velocity=0 time=1
note_on channel=2 note=35 velocity=98 time=9
note_on channel=2 note=45 velocity=98 time=0
note_on channel=2 note=50 velocity=64 time=0
note_on channel=2 note=54 velocity=86 time=0
note_on channel=2 note=45 velocity=0 time=330
note_on channel=2 note=50 velocity=0 time=19
note_on channel=2 note=54 velocity=0 time=7
note_on channel=2 note=35 velocity=0 time=20
note_on channel=2 note=42 velocity=98 time=8
note_on channel=2 note=49 velocity=98 time=0
note_on channel=2 note=54 velocity=92 time=0
note_on channel=2 note=57 velocity=78 time=0
note_on channel=2 note=57 velocity=0 time=73
note_on channel=2 note=49 velocity=0 time=3
note_on channel=2 note=54 velocity=0 time=2
note_on channel=2 note=42 velocity=0 time=13
note_on channel=2 note=40 velocity=86 time=5
note_on channel=2 note=47 velocity=104 time=0
note_on channel=2 note=52 velocity=70 time=0
note_on channel=2 note=56 velocity=80 time=0
note_on channel=2 note=47 velocity=0 time=116
note_on channel=2 note=52 velocity=0 time=2
note_on channel=2 note=56 velocity=0 time=2
note_on channel=2 note=47 velocity=115 time=24
note_on channel=2 note=52 velocity=72 time=0
note_on channel=2 note=56 velocity=92 time=0
note_on channel=2 note=56 velocity=0 time=44
note_on channel=2 note=47 velocity=0 time=3
note_on channel=2 note=52 velocity=0 time=12
note_on channel=2 note=49 velocity=104 time=13
note_on channel=2 note=52 velocity=78 time=0
note_on channel=2 note=57 velocity=76 time=0
note_on channel=2 note=49 velocity=0 time=38
note_on channel=2 note=57 velocity=0 time=14
note_on channel=2 note=52 velocity=0 time=9
note_on channel=2 note=35 velocity=98 time=11
note_on channel=2 note=45 velocity=104 time=0
note_on channel=2 note=50 velocity=48 time=0
note_on channel=2 note=54 velocity=72 time=0
note_on channel=2 note=40 velocity=0 time=10
note_on channel=2 note=45 velocity=0 time=320
note_on channel=2 note=50 velocity=0 time=17
note_on channel=2 note=54 velocity=0 time=6
note_on channel=2 note=35 velocity=0 time=18
note_on channel=2 note=37 velocity=104 time=13
note_on channel=2 note=49 velocity=104 time=0
note_on channel=2 note=52 velocity=86 time=0
note_on channel=2 note=57 velocity=76 time=0
note_on channel=2 note=37 velocity=0 time=164
note_on channel=2 note=40 velocity=104 time=28
note_on channel=2 note=49 velocity=0 time=16
note_on channel=2 note=52 velocity=0 time=0
note_on channel=2 note=57 velocity=0 time=3
note_on channel=2 note=47 velocity=109 time=29
note_on channel=2 note=52 velocity=92 time=0
note_on channel=2 note=56 velocity=98 time=0
note_on channel=2 note=47 velocity=0 time=43
note_on channel=2 note=56 velocity=0 time=5
note_on channel=2 note=52 velocity=0 time=4
note_on channel=2 note=49 velocity=115 time=20
note_on channel=2 note=52 velocity=92 time=0
note_on channel=2 note=57 velocity=78 time=0
note_on channel=2 note=52 velocity=0 time=41
note_on channel=2 note=49 velocity=0 time=10
note_on channel=2 note=57 velocity=0 time=7
note_on channel=2 note=40 velocity=0 time=7
note_on channel=2 note=35 velocity=115 time=7
note_on channel=2 note=50 velocity=80 time=0
note_on channel=2 note=54 velocity=98 time=0
note_on channel=2 note=59 velocity=115 time=0
note_on channel=2 note=54 velocity=0 time=153
note_on channel=2 note=50 velocity=0 time=2
note_on channel=2 note=59 velocity=0 time=6
note_on channel=2 note=35 velocity=0 time=17
note_on channel=2 note=37 velocity=115 time=14
note_on channel=2 note=52 velocity=86 time=0
note_on channel=2 note=57 velocity=78 time=0
note_on channel=2 note=61 velocity=121 time=0
note_on channel=2 note=61 velocity=0 time=153
note_on channel=2 note=52 velocity=0 time=0
note_on channel=2 note=57 velocity=0 time=3
note_on channel=2 note=38 velocity=98 time=36
note_on channel=2 note=54 velocity=92 time=0
note_on channel=2 note=57 velocity=92 time=0
note_on channel=2 note=62 velocity=78 time=0
note_on channel=2 note=37 velocity=0 time=13
note_on channel=2 note=62 velocity=0 time=258
note_on channel=2 note=54 velocity=0 time=0
note_on channel=2 note=38 velocity=0 time=1
note_on channel=2 note=57 velocity=0 time=2
note_on channel=2 note=42 velocity=92 time=1646
note_on channel=2 note=49 velocity=98 time=0
note_on channel=2 note=54 velocity=80 time=0
note_on channel=2 note=56 velocity=92 time=0
note_on channel=2 note=57 velocity=74 time=0
note_on channel=2 note=56 velocity=0 time=331
note_on channel=2 note=54 velocity=0 time=1
note_on channel=2 note=57 velocity=0 time=6
note_on channel=2 note=49 velocity=0 time=1
note_on channel=2 note=42 velocity=0 time=16
note_on channel=2 note=42 velocity=104 time=29
note_on channel=2 note=45 velocity=92 time=0
note_on channel=2 note=50 velocity=60 time=0
note_on channel=2 note=54 velocity=80 time=0
note_on channel=2 note=50 velocity=0 time=347
note_on channel=2 note=45 velocity=0 time=0
note_on channel=2 note=54 velocity=0 time=3
note_on channel=2 note=42 velocity=0 time=1
note_on channel=2 note=42 velocity=109 time=33
note_on channel=2 note=47 velocity=92 time=0
note_on channel=2 note=52 velocity=92 time=0
note_on channel=2 note=56 velocity=92 time=0
note_on channel=2 note=52 velocity=0 time=354
note_on channel=2 note=47 velocity=0 time=3
note_on channel=2 note=56 velocity=0 time=9
note_on channel=2 note=42 velocity=0 time=1
note_on channel=2 note=42 velocity=98 time=17
note_on channel=2 note=49 velocity=104 time=0
note_on channel=2 note=54 velocity=98 time=0
note_on channel=2 note=57 velocity=86 time=0
note_on channel=2 note=57 velocity=0 time=216
note_on channel=2 note=54 velocity=0 time=0
note_on channel=2 note=49 velocity=0 time=0
note_on channel=2 note=49 velocity=115 time=24
note_on channel=2 note=54 velocity=80 time=0
note_on channel=2 note=57 velocity=74 time=0
note_on channel=2 note=54 velocity=0 time=10
note_on channel=2 note=57 velocity=0 time=1
note_on channel=2 note=49 velocity=0 time=1
note_on channel=2 note=49 velocity=109 time=12
note_on channel=2 note=54 velocity=86 time=0
note_on channel=2 note=57 velocity=86 time=0
note_on channel=2 note=57 velocity=0 time=33
note_on channel=2 note=49 velocity=0 time=0
note_on channel=2 note=54 velocity=0 time=2
note_on channel=2 note=47 velocity=109 time=13
note_on channel=2 note=52 velocity=66 time=0
note_on channel=2 note=56 velocity=86 time=0
note_on channel=2 note=42 velocity=0 time=46
note_on channel=2 note=47 velocity=0 time=21
note_on channel=2 note=52 velocity=0 time=0
note_on channel=2 note=56 velocity=0 time=3
note_on channel=2 note=42 velocity=109 time=2
note_on channel=2 note=49 velocity=109 time=0
note_on channel=2 note=54 velocity=92 time=0
note_on channel=2 note=57 velocity=80 time=0
note_on channel=2 note=54 velocity=0 time=328
note_on channel=2 note=49 velocity=0 time=14
note_on channel=2 note=57 velocity=0 time=11
note_on channel=2 note=42 velocity=0 time=9
note_on channel=2 note=42 velocity=98 time=22
note_on channel=2 note=45 velocity=98 time=0
note_on channel=2 note=50 velocity=64 time=0
note_on channel=2 note=54 velocity=86 time=0
note_on channel=2 note=45 velocity=0 time=344
note_on channel=2 note=50 velocity=0 time=2
note_on channel=2 note=54 velocity=0 time=4
note_on channel=2 note=42 velocity=0 time=6
note_on channel=2 note=42 velocity=109 time=28
note_on channel=2 note=47 velocity=115 time=0
note_on channel=2 note=52 velocity=92 time=0
note_on channel=2 note=56 velocity=98 time=0
note_on channel=2 note=52 velocity=0 time=345
note_on channel=2 note=47 velocity=0 time=1
note_on channel=2 note=42 velocity=0 time=4
note_on channel=2 note=56 velocity=0 time=1
note_on channel=2 note=42 velocity=109 time=33
note_on channel=2 note=49 velocity=115 time=0
note_on channel=2 note=54 velocity=92 time=0
note_on channel=2 note=57 velocity=98 time=0
note_on channel=2 note=42 velocity=0 time=207
note_on channel=2 note=57 velocity=0 time=8
note_on channel=2 note=49 velocity=0 time=1
note_on channel=2 note=54 velocity=0 time=1
note_on channel=2 note=40 velocity=104 time=23
note_on channel=2 note=47 velocity=115 time=0
note_on channel=2 note=52 velocity=80 time=0
note_on channel=2 note=56 velocity=98 time=0
note_on channel=2 note=52 velocity=0 time=46
note_on channel=2 note=47 velocity=0 time=0
note_on channel=2 note=40 velocity=0 time=2
note_on channel=2 note=56 velocity=0 time=6
note_on channel=2 note=42 velocity=109 time=18
note_on channel=2 note=49 velocity=104 time=0
note_on channel=2 note=54 velocity=80 time=0
note_on channel=2 note=57 velocity=98 time=0
note_on channel=2 note=42 velocity=0 time=40
note_on channel=2 note=54 velocity=0 time=6
note_on channel=2 note=57 velocity=0 time=2
note_on channel=2 note=49 velocity=0 time=1
note_on channel=2 note=35 velocity=115 time=23
note_on channel=2 note=45 velocity=92 time=0
note_on channel=2 note=50 velocity=64 time=0
note_on channel=2 note=54 velocity=92 time=0
note_on channel=2 note=54 velocity=0 time=341
note_on channel=2 note=45 velocity=0 time=3
note_on channel=2 note=50 velocity=0 time=18
note_on channel=2 note=35 velocity=0 time=19
note_on channel=2 note=37 velocity=104 time=3
note_on channel=2 note=49 velocity=98 time=0
note_on channel=2 note=52 velocity=74 time=0
note_on channel=2 note=57 velocity=76 time=0
note_on channel=2 note=52 velocity=0 time=163
note_on channel=2 note=49 velocity=0 time=1
note_on channel=2 note=57 velocity=0 time=6
note_on channel=2 note=37 velocity=0 time=22
note_on channel=2 note=40 velocity=98 time=0
note_on channel=2 note=47 velocity=98 time=0
note_on channel=2 note=52 velocity=92 time=0
note_on channel=2 note=56 velocity=98 time=0
note_on channel=2 note=47 velocity=0 time=145
note_on channel=2 note=56 velocity=0 time=15
note_on channel=2 note=52 velocity=0 time=22
note_on channel=2 note=40 velocity=0 time=1
note_on channel=2 note=35 velocity=98 time=9
note_on channel=2 note=45 velocity=98 time=0
note_on channel=2 note=50 velocity=64 time=0
note_on channel=2 note=54 velocity=86 time=0
note_on channel=2 note=45 velocity=0 time=330
note_on channel=2 note=50 velocity=0 time=19
note_on channel=2 note=54 velocity=0 time=7
note_on channel=2 note=35 velocity=0 time=20
note_on channel=2 note=42 velocity=98 time=8
note_on channel=2 note=49 velocity=98 time=0
note_on channel=2 note=54 velocity=92 time=0
note_on channel=2 note=57 velocity=78 time=0
note_on channel=2 note=57 velocity=0 time=73
note_on channel=2 note=49 velocity=0 time=3
note_on channel=2 note=54 velocity=0 time=2
note_on channel=2 note=42 velocity=0 time=13
note_on channel=2 note=40 velocity=86 time=5
note_on channel=2 note=47 velocity=104 time=0
note_on channel=2 note=52 velocity=70 time=0
note_on channel=2 note=56 velocity=80 time=0
note_on channel=2 note=47 velocity=0 time=116
note_on channel=2 note=52 velocity=0 time=2
note_on channel=2 note=56 velocity=0 time=2
note_on channel=2 note=47 velocity=115 time=24
note_on channel=2 note=52 velocity=72 time=0
note_on channel=2 note=56 velocity=92 time=0
note_on channel=2 note=56 velocity=0 time=44
note_on channel=2 note=47 velocity=0 time=3
note_on channel=2 note=52 velocity=0 time=12
note_on channel=2 note=49 velocity=104 time=13
note_on channel=2 note=52 velocity=78 time=0
note_on channel=2 note=57 velocity=76 time=0
note_on channel=2 note=49 velocity=0 time=38
note_on channel=2 note=57 velocity=0 time=14
note_on channel=2 note=52 velocity=0 time=9
note_on channel=2 note=35 velocity=98 time=11
note_on channel=2 note=45 velocity=104 time=0
note_on channel=2 note=50 velocity=48 time=0
note_on channel=2 note=54 velocity=72 time=0
note_on channel=2 note=40 velocity=0 time=10
note_on channel=2 note=45 velocity=0 time=320
note_on channel=2 note=50 velocity=0 time=17
note_on channel=2 note=54 velocity=0 time=6
note_on channel=2 note=35 velocity=0 time=18
note_on channel=2 note=37 velocity=104 time=13
note_on channel=2 note=49 velocity=104 time=0
note_on channel=2 note=52 velocity=86 time=0
note_on channel=2 note=57 velocity=76 time=0
note_on channel=2 note=37 velocity=0 time=164
note_on channel=2 note=40 velocity=104 time=28
note_on channel=2 note=49 velocity=0 time=16
note_on channel=2 note=52 velocity=0 time=0
note_on channel=2 note=57 velocity=0 time=3
note_on channel=2 note=47 velocity=109 time=29
note_on channel=2 note=52 velocity=92 time=0
note_on channel=2 note=56 velocity=98 time=0
note_on channel=2 note=47 velocity=0 time=43
note_on channel=2 note=56 velocity=0 time=5
note_on channel=2 note=52 velocity=0 time=4
note_on channel=2 note=49 velocity=115 time=20
note_on channel=2 note=52 velocity=92 time=0
note_on channel=2 note=57 velocity=78 time=0
note_on channel=2 note=52 velocity=0 time=41
note_on channel=2 note=49 velocity=0 time=10
note_on channel=2 note=57 velocity=0 time=7
note_on channel=2 note=40 velocity=0 time=7
note_on channel=2 note=35 velocity=115 time=7
note_on channel=2 note=50 velocity=80 time=0
note_on channel=2 note=54 velocity=98 time=0
note_on channel=2 note=59 velocity=115 time=0
note_on channel=2 note=54 velocity=0 time=153
note_on channel=2 note=50 velocity=0 time=2
note_on channel=2 note=59 velocity=0 time=6
note_on channel=2 note=35 velocity=0 time=17
note_on channel=2 note=37 velocity=115 time=14
note_on channel=2 note=52 velocity=86 time=0
note_on channel=2 note=57 velocity=78 time=0
note_on channel=2 note=61 velocity=121 time=0
note_on channel=2 note=61 velocity=0 time=153
note_on channel=2 note=52 velocity=0 time=0
note_on channel=2 note=57 velocity=0 time=3
note_on channel=2 note=38 velocity=98 time=36
note_on channel=2 note=54 velocity=92 time=0
note_on channel=2 note=57 velocity=92 time=0
note_on channel=2 note=62 velocity=78 time=0
note_on channel=2 note=37 velocity=0 time=13
note_on channel=2 note=62 velocity=0 time=258
note_on channel=2 note=54 velocity=0 time=0
note_on channel=2 note=38 velocity=0 time=1
note_on channel=2 note=57 velocity=0 time=2
note_on channel=2 note=42 velocity=104 time=1262
note_on channel=2 note=54 velocity=86 time=0
note_on channel=2 note=57 velocity=98 time=0
note_on channel=2 note=61 velocity=115 time=0
note_on channel=2 note=61 velocity=0 time=56
note_on channel=2 note=54 velocity=0 time=1
note_on channel=2 note=42 velocity=0 time=2
note_on channel=2 note=57 velocity=0 time=1
note_on channel=2 note=42 velocity=98 time=132
note_on channel=2 note=54 velocity=80 time=0
note_on channel=2 note=57 velocity=98 time=0
note_on channel=2 note=61 velocity=115 time=0
note_on channel=2 note=42 velocity=0 time=29
note_on channel=2 note=54 velocity=0 time=14
note_on channel=2 note=61 velocity=0 time=2
note_on channel=2 note=42 velocity=68 time=3
note_on channel=2 note=57 velocity=0 time=10
note_on channel=2 note=42 velocity=0 time=7
note_on channel=2 note=42 velocity=86 time=7
note_on channel=2 note=52 velocity=74 time=0
note_on channel=2 note=56 velocity=86 time=0
note_on channel=2 note=59 velocity=104 time=0
note_on channel=2 note=56 velocity=0 time=41
note_on channel=2 note=52 velocity=0 time=0
note_on channel=2 note=59 velocity=0 time=1
note_on channel=2 note=42 velocity=0 time=2
note_on channel=2 note=42 velocity=104 time=28
note_on channel=2 note=54 velocity=86 time=0
note_on channel=2 note=57 velocity=92 time=0
note_on channel=2 note=61 velocity=115 time=0
note_on channel=2 note=61 velocity=0 time=96
note_on channel=2 note=42 velocity=0 time=0
note_on channel=2 note=54 velocity=0 time=0
note_on channel=2 note=57 velocity=0 time=0
note_on channel=2 note=42 velocity=68 time=120
note_on channel=2 note=42 velocity=0 time=13
note_on channel=2 note=42 velocity=98 time=11
note_on channel=2 note=54 velocity=80 time=0
note_on channel=2 note=57 velocity=98 time=0
note_on channel=2 note=61 velocity=115 time=0
note_on channel=2 note=54 velocity=0 time=40
note_on channel=2 note=61 velocity=0 time=2
note_on channel=2 note=42 velocity=0 time=8
note_on channel=2 note=57 velocity=0 time=4
note_on channel=2 note=42 velocity=92 time=18
note_on channel=2 note=52 velocity=72 time=0
note_on channel=2 note=56 velocity=74 time=0
note_on channel=2 note=59 velocity=98 time=0
note_on channel=2 note=59 velocity=0 time=42
note_on channel=2 note=56 velocity=0 time=1
note_on channel=2 note=52 velocity=0 time=0
note_on channel=2 note=42 velocity=0 time=1
note_on channel=2 note=42 velocity=104 time=28
note_on channel=2 note=54 velocity=78 time=0
note_on channel=2 note=57 velocity=86 time=0
note_on channel=2 note=61 velocity=109 time=0
note_on channel=2 note=61 velocity=0 time=96
note_on channel=2 note=42 velocity=0 time=0
note_on channel=2 note=54 velocity=0 time=0
note_on channel=2 note=57 velocity=0 time=0
note_on channel=2 note=42 velocity=98 time=144
note_on channel=2 note=49 velocity=98 time=0
note_on channel=2 note=54 velocity=86 time=0
note_on channel=2 note=57 velocity=80 time=0
note_on channel=2 note=54 velocity=0 time=47
note_on channel=2 note=57 velocity=0 time=5
note_on channel=2 note=49 velocity=0 time=0
note_on channel=2 note=42 velocity=0 time=15
note_on channel=2 note=37 velocity=92 time=5
note_on channel=2 note=47 velocity=104 time=0
note_on channel=2 note=52 velocity=92 time=0
note_on channel=2 note=56 velocity=98 time=0
note_on channel=2 note=56 velocity=0 time=41
note_on channel=2 note=47 velocity=0 time=4
note_on channel=2 note=52 velocity=0 time=13
note_on channel=2 note=37 velocity=0 time=7
note_on channel=2 note=38 velocity=98 time=7
note_on channel=2 note=45 velocity=98 time=0
note_on channel=2 note=50 velocity=64 time=0
note_on channel=2 note=54 velocity=92 time=0
note_on channel=2 note=38 velocity=0 time=283
note_on channel=2 note=38 velocity=56 time=5
note_on channel=2 note=45 velocity=0 time=16
note_on channel=2 note=50 velocity=0 time=3
note_on channel=2 note=54 velocity=0 time=3
note_on channel=2 note=45 velocity=60 time=50
note_on channel=2 note=50 velocity=50 time=0
note_on channel=2 note=54 velocity=72 time=0
note_on channel=2 note=38 velocity=0 time=19
note_on channel=2 note=38 velocity=92 time=5
note_on channel=2 note=45 velocity=0 time=22
note_on channel=2 note=50 velocity=0 time=3
note_on channel=2 note=54 velocity=0 time=3
note_on channel=2 note=38 velocity=0 time=19
note_on channel=2 note=42 velocity=104 time=1
note_on channel=2 note=54 velocity=92 time=0
note_on channel=2 note=57 velocity=92 time=0
note_on channel=2 note=61 velocity=115 time=0
note_on channel=2 note=61 velocity=0 time=44
note_on channel=2 note=54 velocity=0 time=3
note_on channel=2 note=42 velocity=0 time=3
note_on channel=2 note=57 velocity=0 time=1
note_on channel=2 note=42 velocity=98 time=141
note_on channel=2 note=54 velocity=78 time=0
note_on channel=2 note=57 velocity=92 time=0
note_on channel=2 note=61 velocity=115 time=0
note_on channel=2 note=42 velocity=0 time=28
note_on channel=2 note=54 velocity=0 time=19
note_on channel=2 note=42 velocity=70 time=1
note_on channel=2 note=61 velocity=0 time=5
note_on channel=2 note=57 velocity=0 time=8
note_on channel=2 note=42 velocity=0 time=4
note_on channel=2 note=42 velocity=92 time=7
note_on channel=2 note=52 velocity=80 time=0
note_on channel=2 note=56 velocity=92 time=0
note_on channel=2 note=59 velocity=115 time=0
note_on channel=2 note=56 velocity=0 time=37
note_on channel=2 note=52 velocity=0 time=0
note_on channel=2 note=42 velocity=0 time=2
note_on channel=2 note=59 velocity=0 time=3
note_on channel=2 note=42 velocity=104 time=30
note_on channel=2 note=54 velocity=78 time=0
note_on channel=2 note=57 velocity=86 time=0
note_on channel=2 note=61 velocity=109 time=0
note_on channel=2 note=61 velocity=0 time=96
note_on channel=2 note=42 velocity=0 time=0
note_on channel=2 note=54 velocity=0 time=0
note_on channel=2 note=57 velocity=0 time=0
note_on channel=2 note=42 velocity=74 time=96
note_on channel=2 note=42 velocity=0 time=12
note_on channel=2 note=42 velocity=74 time=12
note_on channel=2 note=42 velocity=0 time=13
note_on channel=2 note=42 velocity=92 time=11
note_on channel=2 note=54 velocity=86 time=0
note_on channel=2 note=57 velocity=98 time=0
note_on channel=2 note=61 velocity=115 time=0
note_on channel=2 note=42 velocity=0 time=31
note_on channel=2 note=42 velocity=104 time=17
note_on channel=2 note=54 velocity=0 time=3
note_on channel=2 note=61 velocity=0 time=0
note_on channel=2 note=57 velocity=0 time=11
note_on channel=2 note=52 velocity=80 time=10
note_on channel=2 note=56 velocity=92 time=0
note_on channel=2 note=59 velocity=109 time=0
note_on channel=2 note=42 velocity=0 time=39
note_on channel=2 note=52 velocity=0 time=3
note_on channel=2 note=56 velocity=0 time=2
note_on channel=2 note=59 velocity=0 time=3
note_on channel=2 note=42 velocity=80 time=1
note_on channel=2 note=42 velocity=0 time=17
note_on channel=2 note=42 velocity=98 time=7
note_on channel=2 note=54 velocity=80 time=0
note_on channel=2 note=57 velocity=92 time=0
note_on channel=2 note=61 velocity=115 time=0
note_on channel=2 note=61 velocity=0 time=96
note_on channel=2 note=42 velocity=0 time=0
note_on channel=2 note=54 velocity=0 time=0
note_on channel=2 note=57 velocity=0 time=0
note_on channel=2 note=42 velocity=104 time=96
note_on channel=2 note=42 velocity=0 time=37
note_on channel=2 note=42 velocity=92 time=11
note_on channel=2 note=49 velocity=109 time=0
note_on channel=2 note=54 velocity=92 time=0
note_on channel=2 note=57 velocity=92 time=0
note_on channel=2 note=54 velocity=0 time=47
note_on channel=2 note=57 velocity=0 time=3
note_on channel=2 note=49 velocity=0 time=5
note_on channel=2 note=42 velocity=0 time=8
note_on channel=2 note=37 velocity=98 time=9
note_on channel=2 note=47 velocity=109 time=0
note_on channel=2 note=52 velocity=80 time=0
note_on channel=2 note=56 velocity=92 time=0
note_on channel=2 note=47 velocity=0 time=39
note_on channel=2 note=56 velocity=0 time=3
note_on channel=2 note=52 velocity=0 time=9
note_on channel=2 note=37 velocity=0 time=6
note_on channel=2 note=38 velocity=104 time=15
note_on channel=2 note=45 velocity=98 time=0
note_on channel=2 note=50 velocity=74 time=0
note_on channel=2 note=54 velocity=109 time=0
note_on channel=2 note=38 velocity=0 time=164
note_on channel=2 note=38 velocity=76 time=28
note_on channel=2 note=38 velocity=0 time=9
note_on channel=2 note=38 velocity=109 time=15
note_on channel=2 note=38 velocity=0 time=29
note_on channel=2 note=38 velocity=80 time=19
note_on channel=2 note=38 velocity=0 time=13
note_on channel=2 note=38 velocity=98 time=11
note_on channel=2 note=54 velocity=0 time=24
note_on channel=2 note=45 velocity=0 time=2
note_on channel=2 note=50 velocity=0 time=6
note_on channel=2 note=45 velocity=104 time=16
note_on channel=2 note=50 velocity=78 time=0
note_on channel=2 note=54 velocity=92 time=0
note_on channel=2 note=38 velocity=0 time=37
note_on channel=2 note=54 velocity=0 time=37
note_on channel=2 note=50 velocity=0 time=0
note_on channel=2 note=45 velocity=0 time=4
note_on channel=2 note=42 velocity=104 time=18
note_on channel=2 note=54 velocity=86 time=0
note_on channel=2 note=57 velocity=98 time=0
note_on channel=2 note=61 velocity=115 time=0
note_on channel=2 note=61 velocity=0 time=56
note_on channel=2 note=54 velocity=0 time=1
note_on channel=2 note=42 velocity=0 time=2
note_on channel=2 note=57 velocity=0 time=1
note_on channel=2 note=42 velocity=98 time=132
note_on channel=2 note=54 velocity=80 time=0
note_on channel=2 note=57 velocity=98 time=0
note_on channel=2 note=61 velocity=115 time=0
note_on channel=2 note=42 velocity=0 time=29
note_on channel=2 note=54 velocity=0 time=14
note_on channel=2 note=61 velocity=0 time=2
note_on channel=2 note=42 velocity=68 time=3
note_on channel=2 note=57 velocity=0 time=10
note_on channel=2 note=42 velocity=0 time=7
note_on channel=2 note=42 velocity=86 time=7
note_on channel=2 note=52 velocity=74 time=0
note_on channel=2 note=56 velocity=86 time=0
note_on channel=2 note=59 velocity=104 time=0
note_on channel=2 note=56 velocity=0 time=41
note_on channel=2 note=52 velocity=0 time=0
note_on channel=2 note=59 velocity=0 time=1
note_on channel=2 note=42 velocity=0 time=2
note_on channel=2 note=42 velocity=104 time=28
note_on channel=2 note=54 velocity=86 time=0
note_on channel=2 note=57 velocity=92 time=0
note_on channel=2 note=61 velocity=115 time=0
note_on channel=2 note=42 velocity=0 time=184
note_on channel=2 note=61 velocity=0 time=28
note_on channel=2 note=54 velocity=0 time=1
note_on channel=2 note=42 velocity=68 time=3
note_on channel=2 note=57 velocity=0 time=2
note_on channel=2 note=42 velocity=0 time=11
note_on channel=2 note=42 velocity=98 time=11
note_on channel=2 note=54 velocity=80 time=0
note_on channel=2 note=57 velocity=98 time=0
note_on channel=2 note=61 velocity=115 time=0
note_on channel=2 note=54 velocity=0 time=40
note_on channel=2 note=61 velocity=0 time=2
note_on channel=2 note=42 velocity=0 time=8
note_on channel=2 note=57 velocity=0 time=4
note_on channel=2 note=42 velocity=92 time=18
note_on channel=2 note=52 velocity=72 time=0
note_on channel=2 note=56 velocity=74 time=0
note_on channel=2 note=59 velocity=98 time=0
note_on channel=2 note=59 velocity=0 time=42
note_on channel=2 note=56 velocity=0 time=1
note_on channel=2 note=52 velocity=0 time=0
note_on channel=2 note=42 velocity=0 time=1
note_on channel=2 note=42 velocity=104 time=28
note_on channel=2 note=54 velocity=78 time=0
note_on channel=2 note=57 velocity=86 time=0
note_on channel=2 note=61 velocity=109 time=0
note_on channel=2 note=61 velocity=0 time=189
note_on channel=2 note=57 velocity=0 time=0
note_on channel=2 note=54 velocity=0 time=5
note_on channel=2 note=42 velocity=0 time=25
note_on channel=2 note=42 velocity=98 time=21
note_on channel=2 note=49 velocity=98 time=0
note_on channel=2 note=54 velocity=86 time=0
note_on channel=2 note=57 velocity=80 time=0
note_on channel=2 note=54 velocity=0 time=47
note_on channel=2 note=57 velocity=0 time=5
note_on channel=2 note=49 velocity=0 time=0
note_on channel=2 note=42 velocity=0 time=15
note_on channel=2 note=37 velocity=92 time=5
note_on channel=2 note=47 velocity=104 time=0
note_on channel=2 note=52 velocity=92 time=0
note_on channel=2 note=56 velocity=98 time=0
note_on channel=2 note=56 velocity=0 time=41
note_on channel=2 note=47 velocity=0 time=4
note_on channel=2 note=52 velocity=0 time=13
note_on channel=2 note=37 velocity=0 time=7
note_on channel=2 note=38 velocity=98 time=7
note_on channel=2 note=45 velocity=98 time=0
note_on channel=2 note=50 velocity=64 time=0
note_on channel=2 note=54 velocity=92 time=0
note_on channel=2 note=38 velocity=0 time=283
note_on channel=2 note=38 velocity=56 time=5
note_on channel=2 note=45 velocity=0 time=16
note_on channel=2 note=50 velocity=0 time=3
note_on channel=2 note=54 velocity=0 time=3
note_on channel=2 note=45 velocity=60 time=50
note_on channel=2 note=50 velocity=50 time=0
note_on channel=2 note=54 velocity=72 time=0
note_on channel=2 note=38 velocity=0 time=19
note_on channel=2 note=38 velocity=92 time=5
note_on channel=2 note=45 velocity=0 time=22
note_on channel=2 note=50 velocity=0 time=3
note_on channel=2 note=54 velocity=0 time=3
note_on channel=2 note=38 velocity=0 time=19
note_on channel=2 note=42 velocity=104 time=1
note_on channel=2 note=54 velocity=92 time=0
note_on channel=2 note=57 velocity=92 time=0
note_on channel=2 note=61 velocity=115 time=0
note_on channel=2 note=61 velocity=0 time=44
note_on channel=2 note=54 velocity=0 time=3
note_on channel=2 note=42 velocity=0 time=3
note_on channel=2 note=57 velocity=0 time=1
note_on channel=2 note=42 velocity=98 time=141
note_on channel=2 note=54 velocity=78 time=0
note_on channel=2 note=57 velocity=92 time=0
note_on channel=2 note=61 velocity=115 time=0
note_on channel=2 note=42 velocity=0 time=28
note_on channel=2 note=54 velocity=0 time=19
note_on channel=2 note=42 velocity=70 time=1
note_on channel=2 note=61 velocity=0 time=5
note_on channel=2 note=57 velocity=0 time=8
note_on channel=2 note=42 velocity=0 time=4
note_on channel=2 note=42 velocity=92 time=7
note_on channel=2 note=52 velocity=80 time=0
note_on channel=2 note=56 velocity=92 time=0
note_on channel=2 note=59 velocity=115 time=0
note_on channel=2 note=56 velocity=0 time=37
note_on channel=2 note=52 velocity=0 time=0
note_on channel=2 note=42 velocity=0 time=2
note_on channel=2 note=59 velocity=0 time=3
note_on channel=2 note=42 velocity=104 time=30
note_on channel=2 note=54 velocity=78 time=0
note_on channel=2 note=57 velocity=86 time=0
note_on channel=2 note=61 velocity=109 time=0
note_on channel=2 note=42 velocity=0 time=171
note_on channel=2 note=42 velocity=74 time=21
note_on channel=2 note=42 velocity=0 time=12
note_on channel=2 note=54 velocity=0 time=8
note_on channel=2 note=61 velocity=0 time=3
note_on channel=2 note=42 velocity=74 time=1
note_on channel=2 note=57 velocity=0 time=2
note_on channel=2 note=42 velocity=0 time=11
note_on channel=2 note=42 velocity=92 time=11
note_on channel=2 note=54 velocity=86 time=0
note_on channel=2 note=57 velocity=98 time=0
note_on channel=2 note=61 velocity=115 time=0
note_on channel=2 note=42 velocity=0 time=31
note_on channel=2 note=42 velocity=104 time=17
note_on channel=2 note=54 velocity=0 time=3
note_on channel=2 note=61 velocity=0 time=0
note_on channel=2 note=57 velocity=0 time=11
note_on channel=2 note=52 velocity=80 time=10
note_on channel=2 note=56 velocity=92 time=0
note_on channel=2 note=59 velocity=109 time=0
note_on channel=2 note=42 velocity=0 time=39
note_on channel=2 note=52 velocity=0 time=3
note_on channel=2 note=56 velocity=0 time=2
note_on channel=2 note=59 velocity=0 time=3
note_on channel=2 note=42 velocity=80 time=1
note_on channel=2 note=42 velocity=0 time=17
note_on channel=2 note=42 velocity=98 time=7
note_on channel=2 note=54 velocity=80 time=0
note_on channel=2 note=57 velocity=92 time=0
note_on channel=2 note=61 velocity=115 time=0
control_change channel=2 control=7 value=106 time=72
control_change channel=2 control=7 value=104 time=24
control_change channel=2 control=7 value=104 time=24
control_change channel=2 control=7 value=102 time=24
note_on channel=2 note=42 velocity=0 time=21
control_change channel=2 control=7 value=102 time=3
control_change channel=2 control=7 value=102 time=24
note_on channel=2 note=42 velocity=104 time=0
note_on channel=2 note=61 velocity=0 time=1
note_on channel=2 note=57 velocity=0 time=0
note_on channel=2 note=54 velocity=0 time=2
control_change channel=2 control=7 value=101 time=21
note_on channel=2 note=42 velocity=0 time=13
control_change channel=2 control=7 value=101 time=11
note_on channel=2 note=42 velocity=92 time=0
note_on channel=2 note=49 velocity=109 time=0
note_on channel=2 note=54 velocity=92 time=0
note_on channel=2 note=57 velocity=92 time=0
control_change channel=2 control=7 value=99 time=24
note_on channel=2 note=54 velocity=0 time=23
control_change channel=2 control=7 value=99 time=1
note_on channel=2 note=57 velocity=0 time=2
note_on channel=2 note=49 velocity=0 time=5
note_on channel=2 note=42 velocity=0 time=8
control_change channel=2 control=7 value=97 time=9
note_on channel=2 note=37 velocity=98 time=0
note_on channel=2 note=47 velocity=109 time=0
note_on channel=2 note=52 velocity=80 time=0
note_on channel=2 note=56 velocity=92 time=0
control_change channel=2 control=7 value=95 time=24
note_on channel=2 note=47 velocity=0 time=15
note_on channel=2 note=56 velocity=0 time=3
control_change channel=2 control=7 value=95 time=6
note_on channel=2 note=52 velocity=0 time=3
note_on channel=2 note=37 velocity=0 time=6
control_change channel=2 control=7 value=95 time=15
note_on channel=2 note=38 velocity=104 time=0
note_on channel=2 note=45 velocity=98 time=0
note_on channel=2 note=50 velocity=74 time=0
note_on channel=2 note=54 velocity=109 time=0
control_change channel=2 control=7 value=94 time=24
control_change channel=2 control=7 value=94 time=24
control_change channel=2 control=7 value=92 time=24
control_change channel=2 control=7 value=92 time=24
control_change channel=2 control=7 value=92 time=24
control_change channel=2 control=7 value=90 time=24
note_on channel=2 note=38 velocity=0 time=20
control_change channel=2 control=7 value=90 time=4
control_change channel=2 control=7 value=89 time=24
note_on channel=2 note=38 velocity=76 time=0
note_on channel=2 note=38 velocity=0 time=9
control_change channel=2 control=7 value=89 time=15
note_on channel=2 note=38 velocity=109 time=0
control_change channel=2 control=7 value=89 time=24
note_on channel=2 note=38 velocity=0 time=5
control_change channel=2 control=7 value=87 time=19
note_on channel=2 note=38 velocity=80 time=0
note_on channel=2 note=38 velocity=0 time=13
control_change channel=2 control=7 value=87 time=11
note_on channel=2 note=38 velocity=98 time=0
note_on channel=2 note=54 velocity=0 time=24
control_change channel=2 control=7 value=85 time=0
note_on channel=2 note=45 velocity=0 time=2
note_on channel=2 note=50 velocity=0 time=6
control_change channel=2 control=7 value=85 time=16
note_on channel=2 note=45 velocity=104 time=0
note_on channel=2 note=50 velocity=78 time=0
note_on channel=2 note=54 velocity=92 time=0
control_change channel=2 control=7 value=84 time=24
note_on channel=2 note=38 velocity=0 time=13
control_change channel=2 control=7 value=84 time=11
control_change channel=2 control=7 value=82 time=24
note_on channel=2 note=54 velocity=0 time=2
note_on channel=2 note=50 velocity=0 time=0
note_on channel=2 note=45 velocity=0 time=4
control_change channel=2 control=7 value=82 time=18
note_on channel=2 note=42 velocity=104 time=0
note_on channel=2 note=54 velocity=86 time=0
note_on channel=2 note=57 velocity=98 time=0
note_on channel=2 note=61 velocity=115 time=0
control_change channel=2 control=7 value=82 time=24
control_change channel=2 control=7 value=80 time=24
note_on channel=2 note=61 velocity=0 time=8
note_on channel=2 note=54 velocity=0 time=1
note_on channel=2 note=42 velocity=0 time=2
note_on channel=2 note=57 velocity=0 time=1
control_change channel=2 control=7 value=80 time=12
control_change channel=2 control=7 value=79 time=24
control_change channel=2 control=7 value=79 time=24
control_change channel=2 control=7 value=79 time=24
control_change channel=2 control=7 value=77 time=24
control_change channel=2 control=7 value=75 time=24
note_on channel=2 note=42 velocity=98 time=0
note_on channel=2 note=54 velocity=80 time=0
note_on channel=2 note=57 velocity=98 time=0
note_on channel=2 note=61 velocity=115 time=0
control_change channel=2 control=7 value=75 time=24
note_on channel=2 note=42 velocity=0 time=5
note_on channel=2 note=54 velocity=0 time=14
note_on channel=2 note=61 velocity=0 time=2
control_change channel=2 control=7 value=75 time=3
note_on channel=2 note=42 velocity=68 time=0
note_on channel=2 note=57 velocity=0 time=10
note_on channel=2 note=42 velocity=0 time=7
control_change channel=2 control=7 value=74 time=7
note_on channel=2 note=42 velocity=86 time=0
note_on channel=2 note=52 velocity=74 time=0
note_on channel=2 note=56 velocity=86 time=0
note_on channel=2 note=59 velocity=104 time=0
control_change channel=2 control=7 value=74 time=24
note_on channel=2 note=56 velocity=0 time=17
note_on channel=2 note=52 velocity=0 time=0
note_on channel=2 note=59 velocity=0 time=1
note_on channel=2 note=42 velocity=0 time=2
control_change channel=2 control=7 value=72 time=4
control_change channel=2 control=7 value=72 time=24
note_on channel=2 note=42 velocity=104 time=0
note_on channel=2 note=54 velocity=86 time=0
note_on channel=2 note=57 velocity=92 time=0
note_on channel=2 note=61 velocity=115 time=0
control_change channel=2 control=7 value=72 time=24
control_change channel=2 control=7 value=70 time=24
control_change channel=2 control=7 value=69 time=24
control_change channel=2 control=7 value=69 time=24
control_change channel=2 control=7 value=69 time=24
control_change channel=2 control=7 value=69 time=24
control_change channel=2 control=7 value=69 time=24
note_on channel=2 note=42 velocity=0 time=16
control_change channel=2 control=7 value=67 time=8
note_on channel=2 note=61 velocity=0 time=20
note_on channel=2 note=54 velocity=0 time=1
control_change channel=2 control=7 value=67 time=3
note_on channel=2 note=42 velocity=68 time=0
note_on channel=2 note=57 velocity=0 time=2
note_on channel=2 note=42 velocity=0 time=11
control_change channel=2 control=7 value=65 time=11
note_on channel=2 note=42 velocity=98 time=0
note_on channel=2 note=54 velocity=80 time=0
note_on channel=2 note=57 velocity=98 time=0
note_on channel=2 note=61 velocity=115 time=0
control_change channel=2 control=7 value=63 time=24
note_on channel=2 note=54 velocity=0 time=16
note_on channel=2 note=61 velocity=0 time=2
control_change channel=2 control=7 value=63 time=6
note_on channel=2 note=42 velocity=0 time=2
note_on channel=2 note=57 velocity=0 time=4
control_change channel=2 control=7 value=63 time=18
note_on channel=2 note=42 velocity=92 time=0
note_on channel=2 note=52 velocity=72 time=0
note_on channel=2 note=56 velocity=74 time=0
note_on channel=2 note=59 velocity=98 time=0
control_change channel=2 control=7 value=62 time=24
note_on channel=2 note=59 velocity=0 time=18
note_on channel=2 note=56 velocity=0 time=1
note_on channel=2 note=52 velocity=0 time=0
note_on channel=2 note=42 velocity=0 time=1
control_change channel=2 control=7 value=62 time=4
control_change channel=2 control=7 value=60 time=24
note_on channel=2 note=42 velocity=104 time=0
note_on channel=2 note=54 velocity=78 time=0
note_on channel=2 note=57 velocity=86 time=0
note_on channel=2 note=61 velocity=109 time=0
control_change channel=2 control=7 value=60 time=24
control_change channel=2 control=7 value=58 time=24
control_change channel=2 control=7 value=57 time=24
control_change channel=2 control=7 value=57 time=24
control_change channel=2 control=7 value=55 time=24
control_change channel=2 control=7 value=55 time=24
control_change channel=2 control=7 value=53 time=24
note_on channel=2 note=61 velocity=0 time=21
note_on channel=2 note=57 velocity=0 time=0
control_change channel=2 control=7 value=53 time=3
note_on channel=2 note=54 velocity=0 time=2
control_change channel=2 control=7 value=52 time=22
note_on channel=2 note=42 velocity=0 time=3
control_change channel=2 control=7 value=52 time=21
note_on channel=2 note=42 velocity=98 time=0
note_on channel=2 note=49 velocity=98 time=0
note_on channel=2 note=54 velocity=86 time=0
note_on channel=2 note=57 velocity=80 time=0
control_change channel=2 control=7 value=50 time=24
note_on channel=2 note=54 velocity=0 time=23
control_change channel=2 control=7 value=50 time=1
note_on channel=2 note=57 velocity=0 time=4
note_on channel=2 note=49 velocity=0 time=0
note_on channel=2 note=42 velocity=0 time=15
control_change channel=2 control=7 value=48 time=5
note_on channel=2 note=37 velocity=92 time=0
note_on channel=2 note=47 velocity=104 time=0
note_on channel=2 note=52 velocity=92 time=0
note_on channel=2 note=56 velocity=98 time=0
control_change channel=2 control=7 value=48 time=24
note_on channel=2 note=56 velocity=0 time=17
note_on channel=2 note=47 velocity=0 time=4
control_change channel=2 control=7 value=47 time=3
note_on channel=2 note=52 velocity=0 time=10
note_on channel=2 note=37 velocity=0 time=7
control_change channel=2 control=7 value=47 time=7
note_on channel=2 note=38 velocity=98 time=0
note_on channel=2 note=45 velocity=98 time=0
note_on channel=2 note=50 velocity=64 time=0
note_on channel=2 note=54 velocity=92 time=0
control_change channel=2 control=7 value=45 time=24
control_change channel=2 control=7 value=45 time=24
control_change channel=2 control=7 value=43 time=24
control_change channel=2 control=7 value=43 time=24
control_change channel=2 control=7 value=43 time=24
control_change channel=2 control=7 value=42 time=24
control_change channel=2 control=7 value=42 time=24
control_change channel=2 control=7 value=40 time=24
control_change channel=2 control=7 value=40 time=24
control_change channel=2 control=7 value=38 time=24
control_change channel=2 control=7 value=38 time=24
note_on channel=2 note=38 velocity=0 time=19
control_change channel=2 control=7 value=38 time=5
note_on channel=2 note=38 velocity=56 time=0
note_on channel=2 note=45 velocity=0 time=16
note_on channel=2 note=50 velocity=0 time=3
note_on channel=2 note=54 velocity=0 time=3
control_change channel=2 control=7 value=37 time=2
control_change channel=2 control=7 value=37 time=24
control_change channel=2 control=7 value=35 time=24
note_on channel=2 note=45 velocity=60 time=0
note_on channel=2 note=50 velocity=50 time=0
note_on channel=2 note=54 velocity=72 time=0
note_on channel=2 note=38 velocity=0 time=19
control_change channel=2 control=7 value=35 time=5
note_on channel=2 note=38 velocity=92 time=0
note_on channel=2 note=45 velocity=0 time=22
control_change channel=2 control=7 value=35 time=2
note_on channel=2 note=50 velocity=0 time=1
note_on channel=2 note=54 velocity=0 time=3
note_on channel=2 note=38 velocity=0 time=19
control_change channel=2 control=7 value=33 time=1
note_on channel=2 note=42 velocity=104 time=0
note_on channel=2 note=54 velocity=92 time=0
note_on channel=2 note=57 velocity=92 time=0
note_on channel=2 note=61 velocity=115 time=0
control_change channel=2 control=7 value=33 time=24
note_on channel=2 note=61 velocity=0 time=20
note_on channel=2 note=54 velocity=0 time=3
control_change channel=2 control=7 value=31 time=1
note_on channel=2 note=42 velocity=0 time=2
note_on channel=2 note=57 velocity=0 time=1
control_change channel=2 control=7 value=31 time=21
control_change channel=2 control=7 value=30 time=24
control_change channel=2 control=7 value=30 time=24
control_change channel=2 control=7 value=30 time=24
control_change channel=2 control=7 value=28 time=24
control_change channel=2 control=7 value=28 time=24
note_on channel=2 note=42 velocity=98 time=0
note_on channel=2 note=54 velocity=78 time=0
note_on channel=2 note=57 velocity=92 time=0
note_on channel=2 note=61 velocity=115 time=0
control_change channel=2 control=7 value=26 time=24
note_on channel=2 note=42 velocity=0 time=4
note_on channel=2 note=54 velocity=0 time=19
control_change channel=2 control=7 value=26 time=1
note_on channel=2 note=42 velocity=70 time=0
note_on channel=2 note=61 velocity=0 time=5
note_on channel=2 note=57 velocity=0 time=8
note_on channel=2 note=42 velocity=0 time=4
control_change channel=2 control=7 value=25 time=7
note_on channel=2 note=42 velocity=92 time=0
note_on channel=2 note=52 velocity=80 time=0
note_on channel=2 note=56 velocity=92 time=0
note_on channel=2 note=59 velocity=115 time=0
control_change channel=2 control=7 value=25 time=24
note_on channel=2 note=56 velocity=0 time=13
note_on channel=2 note=52 velocity=0 time=0
note_on channel=2 note=42 velocity=0 time=2
note_on channel=2 note=59 velocity=0 time=3
control_change channel=2 control=7 value=25 time=6
control_change channel=2 control=7 value=23 time=24
note_on channel=2 note=42 velocity=104 time=0
note_on channel=2 note=54 velocity=78 time=0
note_on channel=2 note=57 velocity=86 time=0
note_on channel=2 note=61 velocity=109 time=0
control_change channel=2 control=7 value=23 time=24
control_change channel=2 control=7 value=21 time=24
control_change channel=2 control=7 value=21 time=24
control_change channel=2 control=7 value=21 time=24
control_change channel=2 control=7 value=20 time=24
control_change channel=2 control=7 value=20 time=24
control_change channel=2 control=7 value=18 time=24
note_on channel=2 note=42 velocity=0 time=3
control_change channel=2 control=7 value=18 time=21
note_on channel=2 note=42 velocity=74 time=0
note_on channel=2 note=42 velocity=0 time=12
note_on channel=2 note=54 velocity=0 time=8
note_on channel=2 note=61 velocity=0 time=3
control_change channel=2 control=7 value=18 time=1
note_on channel=2 note=42 velocity=74 time=0
note_on channel=2 note=57 velocity=0 time=2
note_on channel=2 note=42 velocity=0 time=11
control_change channel=2 control=7 value=16 time=11
note_on channel=2 note=42 velocity=92 time=0
note_on channel=2 note=54 velocity=86 time=0
note_on channel=2 note=57 velocity=98 time=0
note_on channel=2 note=61 velocity=115 time=0
control_change channel=2 control=7 value=16 time=24
note_on channel=2 note=42 velocity=0 time=7
control_change channel=2 control=7 value=15 time=17
note_on channel=2 note=42 velocity=104 time=0
note_on channel=2 note=54 velocity=0 time=3
note_on channel=2 note=61 velocity=0 time=0
note_on channel=2 note=57 velocity=0 time=11
control_change channel=2 control=7 value=15 time=10
note_on channel=2 note=52 velocity=80 time=0
note_on channel=2 note=56 velocity=92 time=0
note_on channel=2 note=59 velocity=109 time=0
control_change channel=2 control=7 value=15 time=24
note_on channel=2 note=42 velocity=0 time=15
note_on channel=2 note=52 velocity=0 time=3
note_on channel=2 note=56 velocity=0 time=2
note_on channel=2 note=59 velocity=0 time=3
control_change channel=2 control=7 value=15 time=1
note_on channel=2 note=42 velocity=80 time=0
note_on channel=2 note=42 velocity=0 time=17
control_change channel=2 control=7 value=13 time=7
note_on channel=2 note=42 velocity=98 time=0
note_on channel=2 note=54 velocity=80 time=0
note_on channel=2 note=57 velocity=92 time=0
note_on channel=2 note=61 velocity=115 time=0
control_change channel=2 control=7 value=11 time=24
control_change channel=2 control=7 value=11 time=24
control_change channel=2 control=7 value=11 time=24
control_change channel=2 control=7 value=11 time=24
control_change channel=2 control=7 value=10 time=24
control_change channel=2 control=7 value=10 time=24
note_on channel=2 note=42 velocity=0 time=21
control_change channel=2 control=7 value=8 time=3
control_change channel=2 control=7 value=8 time=24
note_on channel=2 note=42 velocity=104 time=0
note_on channel=2 note=61 velocity=0 time=1
note_on channel=2 note=57 velocity=0 time=0
note_on channel=2 note=54 velocity=0 time=2
control_change channel=2 control=7 value=8 time=21
note_on channel=2 note=42 velocity=0 time=13
control_change channel=2 control=7 value=8 time=11
note_on channel=2 note=42 velocity=92 time=0
note_on channel=2 note=49 velocity=109 time=0
note_on channel=2 note=54 velocity=92 time=0
note_on channel=2 note=57 velocity=92 time=0
control_change channel=2 control=7 value=8 time=24
note_on channel=2 note=54 velocity=0 time=23
control_change channel=2 control=7 value=6 time=1
note_on channel=2 note=57 velocity=0 time=2
note_on channel=2 note=49 velocity=0 time=5
note_on channel=2 note=42 velocity=0 time=8
control_change channel=2 control=7 value=5 time=9
note_on channel=2 note=37 velocity=98 time=0
note_on channel=2 note=47 velocity=109 time=0
note_on channel=2 note=52 velocity=80 time=0
note_on channel=2 note=56 velocity=92 time=0
control_change channel=2 control=7 value=5 time=24
note_on channel=2 note=47 velocity=0 time=15
note_on channel=2 note=56 velocity=0 time=3
control_change channel=2 control=7 value=5 time=6
note_on channel=2 note=52 velocity=0 time=3
note_on channel=2 note=37 velocity=0 time=6
control_change channel=2 control=7 value=5 time=15
note_on channel=2 note=38 velocity=104 time=0
note_on channel=2 note=45 velocity=98 time=0
note_on channel=2 note=50 velocity=74 time=0
note_on channel=2 note=54 velocity=109 time=0
control_change channel=2 control=7 value=3 time=24
control_change channel=2 control=7 value=3 time=24
control_change channel=2 control=7 value=3 time=24
control_change channel=2 control=7 value=1 time=24
control_change channel=2 control=7 value=1 time=24
control_change channel=2 control=7 value=1 time=24
note_on channel=2 note=38 velocity=0 time=20
control_change channel=2 control=7 value=1 time=4
control_change channel=2 control=7 value=1 time=24
note_on channel=2 note=38 velocity=76 time=0
note_on channel=2 note=38 velocity=0 time=9
control_change channel=2 control=7 value=0 time=15
note_on channel=2 note=38 velocity=109 time=0
control_change channel=2 control=7 value=0 time=24
note_on channel=2 note=38 velocity=0 time=5
control_change channel=2 control=7 value=0 time=19
note_on channel=2 note=38 velocity=80 time=0
note_on channel=2 note=38 velocity=0 time=13
control_change channel=2 control=7 value=0 time=11
note_on channel=2 note=38 velocity=98 time=0
note_on channel=2 note=54 velocity=0 time=24
control_change channel=2 control=7 value=0 time=0
note_on channel=2 note=45 velocity=0 time=2
note_on channel=2 note=50 velocity=0 time=6
control_change channel=2 control=7 value=0 time=16
note_on channel=2 note=45 velocity=104 time=0
note_on channel=2 note=50 velocity=78 time=0
note_on channel=2 note=54 velocity=92 time=0
control_change channel=2 control=7 value=0 time=24
note_on channel=2 note=38 velocity=0 time=13
control_change channel=2 control=7 value=0 time=11
control_change channel=2 control=7 value=0 time=24
note_on channel=2 note=54 velocity=0 time=2
note_on channel=2 note=50 velocity=0 time=0
note_on channel=2 note=45 velocity=0 time=4
<meta message end_of_track time=0>
<meta message midi_port port=0 time=0>
<meta message track_name name=u'Mute Guitar' time=0>
control_change channel=3 control=0 value=0 time=0
program_change channel=3 program=28 time=0
control_change channel=3 control=7 value=120 time=0
control_change channel=3 control=10 value=64 time=0
note_on channel=3 note=42 velocity=90 time=0
note_on channel=3 note=42 velocity=0 time=12
note_on channel=3 note=42 velocity=77 time=12
note_on channel=3 note=42 velocity=0 time=12
note_on channel=3 note=42 velocity=66 time=12
note_on channel=3 note=42 velocity=0 time=9
note_on channel=3 note=42 velocity=54 time=15
note_on channel=3 note=42 velocity=0 time=9
note_on channel=3 note=42 velocity=87 time=15
note_on channel=3 note=42 velocity=0 time=14
note_on channel=3 note=42 velocity=66 time=10
note_on channel=3 note=42 velocity=0 time=9
note_on channel=3 note=42 velocity=74 time=15
note_on channel=3 note=42 velocity=0 time=11
note_on channel=3 note=42 velocity=60 time=13
note_on channel=3 note=42 velocity=0 time=11
note_on channel=3 note=42 velocity=87 time=13
note_on channel=3 note=42 velocity=0 time=13
note_on channel=3 note=42 velocity=64 time=11
note_on channel=3 note=42 velocity=0 time=11
note_on channel=3 note=42 velocity=74 time=13
note_on channel=3 note=42 velocity=0 time=8
note_on channel=3 note=42 velocity=70 time=16
note_on channel=3 note=42 velocity=0 time=12
note_on channel=3 note=42 velocity=94 time=12
note_on channel=3 note=42 velocity=0 time=14
note_on channel=3 note=42 velocity=68 time=10
note_on channel=3 note=42 velocity=0 time=11
note_on channel=3 note=42 velocity=72 time=13
note_on channel=3 note=42 velocity=0 time=8
note_on channel=3 note=42 velocity=70 time=16
note_on channel=3 note=42 velocity=0 time=11
note_on channel=3 note=42 velocity=95 time=13
note_on channel=3 note=42 velocity=0 time=14
note_on channel=3 note=42 velocity=64 time=10
note_on channel=3 note=42 velocity=0 time=8
note_on channel=3 note=42 velocity=74 time=16
note_on channel=3 note=42 velocity=0 time=8
note_on channel=3 note=42 velocity=74 time=16
note_on channel=3 note=42 velocity=0 time=12
note_on channel=3 note=42 velocity=104 time=12
note_on channel=3 note=42 velocity=0 time=14
note_on channel=3 note=42 velocity=74 time=10
note_on channel=3 note=42 velocity=0 time=11
note_on channel=3 note=42 velocity=80 time=13
note_on channel=3 note=42 velocity=0 time=8
note_on channel=3 note=42 velocity=74 time=16
note_on channel=3 note=42 velocity=0 time=11
note_on channel=3 note=42 velocity=106 time=13
note_on channel=3 note=42 velocity=0 time=13
note_on channel=3 note=42 velocity=78 time=11
note_on channel=3 note=42 velocity=0 time=12
note_on channel=3 note=42 velocity=92 time=12
note_on channel=3 note=42 velocity=0 time=7
note_on channel=3 note=42 velocity=86 time=17
note_on channel=3 note=42 velocity=0 time=11
note_on channel=3 note=42 velocity=107 time=13
note_on channel=3 note=42 velocity=0 time=11
note_on channel=3 note=42 velocity=86 time=13
note_on channel=3 note=42 velocity=0 time=10
note_on channel=3 note=42 velocity=92 time=14
note_on channel=3 note=42 velocity=0 time=8
note_on channel=3 note=42 velocity=80 time=16
note_on channel=3 note=42 velocity=0 time=12
note_on channel=3 note=42 velocity=106 time=12
note_on channel=3 note=42 velocity=0 time=14
note_on channel=3 note=42 velocity=78 time=10
note_on channel=3 note=42 velocity=0 time=11
note_on channel=3 note=42 velocity=74 time=13
note_on channel=3 note=42 velocity=0 time=8
note_on channel=3 note=42 velocity=64 time=16
note_on channel=3 note=42 velocity=0 time=9
note_on channel=3 note=42 velocity=109 time=15
note_on channel=3 note=42 velocity=0 time=8
note_on channel=3 note=42 velocity=72 time=16
note_on channel=3 note=42 velocity=0 time=10
note_on channel=3 note=42 velocity=78 time=14
note_on channel=3 note=42 velocity=0 time=8
note_on channel=3 note=42 velocity=74 time=16
note_on channel=3 note=42 velocity=0 time=10
note_on channel=3 note=42 velocity=109 time=14
note_on channel=3 note=42 velocity=0 time=15
note_on channel=3 note=42 velocity=70 time=9
note_on channel=3 note=42 velocity=0 time=8
note_on channel=3 note=42 velocity=76 time=16
note_on channel=3 note=42 velocity=0 time=8
note_on channel=3 note=42 velocity=68 time=16
note_on channel=3 note=42 velocity=0 time=8
note_on channel=3 note=42 velocity=107 time=16
note_on channel=3 note=42 velocity=0 time=12
note_on channel=3 note=42 velocity=72 time=12
note_on channel=3 note=42 velocity=0 time=9
note_on channel=3 note=42 velocity=76 time=15
note_on channel=3 note=42 velocity=0 time=7
note_on channel=3 note=42 velocity=64 time=17
note_on channel=3 note=42 velocity=0 time=8
note_on channel=3 note=42 velocity=107 time=16
note_on channel=3 note=42 velocity=0 time=15
note_on channel=3 note=42 velocity=70 time=9
note_on channel=3 note=42 velocity=0 time=11
note_on channel=3 note=42 velocity=76 time=13
note_on channel=3 note=42 velocity=0 time=9
note_on channel=3 note=42 velocity=68 time=15
note_on channel=3 note=42 velocity=0 time=9
note_on channel=3 note=42 velocity=109 time=15
note_on channel=3 note=42 velocity=0 time=12
note_on channel=3 note=42 velocity=85 time=12
note_on channel=3 note=42 velocity=0 time=11
note_on channel=3 note=42 velocity=78 time=13
note_on channel=3 note=42 velocity=0 time=8
note_on channel=3 note=42 velocity=68 time=16
note_on channel=3 note=42 velocity=0 time=10
note_on channel=3 note=42 velocity=115 time=14
note_on channel=3 note=42 velocity=0 time=15
note_on channel=3 note=42 velocity=60 time=9
note_on channel=3 note=42 velocity=0 time=9
note_on channel=3 note=42 velocity=76 time=15
note_on channel=3 note=42 velocity=0 time=9
note_on channel=3 note=42 velocity=72 time=15
note_on channel=3 note=42 velocity=0 time=11
note_on channel=3 note=42 velocity=109 time=13
note_on channel=3 note=42 velocity=0 time=12
note_on channel=3 note=42 velocity=72 time=12
note_on channel=3 note=42 velocity=0 time=9
note_on channel=3 note=42 velocity=74 time=15
note_on channel=3 note=42 velocity=0 time=8
note_on channel=3 note=42 velocity=72 time=16
note_on channel=3 note=42 velocity=0 time=12
note_on channel=3 note=42 velocity=115 time=12
note_on channel=3 note=42 velocity=0 time=15
note_on channel=3 note=42 velocity=68 time=9
note_on channel=3 note=42 velocity=0 time=9
note_on channel=3 note=42 velocity=86 time=15
note_on channel=3 note=42 velocity=0 time=8
note_on channel=3 note=42 velocity=68 time=16
note_on channel=3 note=42 velocity=0 time=10
note_on channel=3 note=42 velocity=115 time=14
note_on channel=3 note=42 velocity=0 time=11
note_on channel=3 note=42 velocity=78 time=13
note_on channel=3 note=42 velocity=0 time=11
note_on channel=3 note=42 velocity=86 time=13
note_on channel=3 note=42 velocity=0 time=8
note_on channel=3 note=42 velocity=74 time=16
note_on channel=3 note=42 velocity=0 time=8
note_on channel=3 note=42 velocity=115 time=16
note_on channel=3 note=42 velocity=0 time=14
note_on channel=3 note=42 velocity=72 time=10
note_on channel=3 note=42 velocity=0 time=11
note_on channel=3 note=42 velocity=80 time=13
note_on channel=3 note=42 velocity=0 time=8
note_on channel=3 note=42 velocity=70 time=16
note_on channel=3 note=42 velocity=0 time=10
note_on channel=3 note=42 velocity=109 time=14
note_on channel=3 note=42 velocity=0 time=10
note_on channel=3 note=42 velocity=86 time=14
note_on channel=3 note=42 velocity=0 time=10
note_on channel=3 note=42 velocity=80 time=14
note_on channel=3 note=42 velocity=0 time=9
note_on channel=3 note=42 velocity=72 time=15
note_on channel=3 note=42 velocity=0 time=7
note_on channel=3 note=42 velocity=115 time=17
note_on channel=3 note=42 velocity=0 time=11
note_on channel=3 note=42 velocity=72 time=13
note_on channel=3 note=42 velocity=0 time=11
note_on channel=3 note=42 velocity=86 time=13
note_on channel=3 note=42 velocity=0 time=8
note_on channel=3 note=42 velocity=62 time=16
note_on channel=3 note=42 velocity=0 time=7
note_on channel=3 note=42 velocity=109 time=17
note_on channel=3 note=42 velocity=0 time=10
note_on channel=3 note=42 velocity=68 time=14
note_on channel=3 note=42 velocity=0 time=11
note_on channel=3 note=42 velocity=80 time=13
note_on channel=3 note=42 velocity=0 time=8
note_on channel=3 note=42 velocity=72 time=16
note_on channel=3 note=42 velocity=0 time=11
note_on channel=3 note=42 velocity=115 time=13
note_on channel=3 note=42 velocity=0 time=11
note_on channel=3 note=42 velocity=68 time=13
note_on channel=3 note=42 velocity=0 time=9
note_on channel=3 note=42 velocity=78 time=15
note_on channel=3 note=42 velocity=0 time=8
note_on channel=3 note=42 velocity=74 time=16
note_on channel=3 note=42 velocity=0 time=11
note_on channel=3 note=42 velocity=115 time=13
note_on channel=3 note=42 velocity=0 time=11
note_on channel=3 note=42 velocity=70 time=13
note_on channel=3 note=42 velocity=0 time=10
note_on channel=3 note=42 velocity=86 time=14
note_on channel=3 note=42 velocity=0 time=7
note_on channel=3 note=42 velocity=70 time=17
note_on channel=3 note=42 velocity=0 time=10
note_on channel=3 note=42 velocity=115 time=14
note_on channel=3 note=42 velocity=0 time=13
note_on channel=3 note=42 velocity=78 time=11
note_on channel=3 note=42 velocity=0 time=12
note_on channel=3 note=42 velocity=80 time=12
note_on channel=3 note=42 velocity=0 time=8
note_on channel=3 note=42 velocity=68 time=16
note_on channel=3 note=42 velocity=0 time=9
note_on channel=3 note=42 velocity=115 time=15
note_on channel=3 note=42 velocity=0 time=14
note_on channel=3 note=42 velocity=72 time=10
note_on channel=3 note=42 velocity=0 time=11
note_on channel=3 note=42 velocity=78 time=13
note_on channel=3 note=42 velocity=0 time=8
note_on channel=3 note=42 velocity=72 time=16
note_on channel=3 note=42 velocity=0 time=10
note_on channel=3 note=42 velocity=115 time=14
note_on channel=3 note=42 velocity=0 time=12
note_on channel=3 note=42 velocity=66 time=12
note_on channel=3 note=42 velocity=0 time=10
note_on channel=3 note=42 velocity=80 time=14
note_on channel=3 note=42 velocity=0 time=7
note_on channel=3 note=42 velocity=78 time=17
note_on channel=3 note=42 velocity=0 time=11
note_on channel=3 note=42 velocity=115 time=13
note_on channel=3 note=42 velocity=0 time=11
note_on channel=3 note=42 velocity=58 time=13
note_on channel=3 note=42 velocity=0 time=6
note_on channel=3 note=42 velocity=78 time=18
note_on channel=3 note=42 velocity=0 time=9
note_on channel=3 note=42 velocity=72 time=15
note_on channel=3 note=42 velocity=0 time=10
note_on channel=3 note=42 velocity=115 time=14
note_on channel=3 note=42 velocity=0 time=14
note_on channel=3 note=42 velocity=70 time=10
note_on channel=3 note=42 velocity=0 time=10
note_on channel=3 note=42 velocity=80 time=14
note_on channel=3 note=42 velocity=0 time=9
note_on channel=3 note=42 velocity=70 time=15
note_on channel=3 note=42 velocity=0 time=10
note_on channel=3 note=42 velocity=115 time=14
note_on channel=3 note=42 velocity=0 time=12
note_on channel=3 note=42 velocity=74 time=12
note_on channel=3 note=42 velocity=0 time=13
note_on channel=3 note=42 velocity=80 time=11
note_on channel=3 note=42 velocity=0 time=9
note_on channel=3 note=42 velocity=66 time=15
note_on channel=3 note=42 velocity=0 time=9
note_on channel=3 note=42 velocity=115 time=15
note_on channel=3 note=42 velocity=0 time=12
note_on channel=3 note=42 velocity=74 time=12
note_on channel=3 note=42 velocity=0 time=12
note_on channel=3 note=42 velocity=80 time=12
note_on channel=3 note=42 velocity=0 time=9
note_on channel=3 note=42 velocity=70 time=15
note_on channel=3 note=42 velocity=0 time=11
note_on channel=3 note=42 velocity=115 time=13
note_on channel=3 note=42 velocity=0 time=12
note_on channel=3 note=42 velocity=74 time=12
note_on channel=3 note=42 velocity=0 time=13
note_on channel=3 note=42 velocity=80 time=11
note_on channel=3 note=42 velocity=0 time=8
note_on channel=3 note=42 velocity=74 time=16
note_on channel=3 note=42 velocity=0 time=11
note_on channel=3 note=42 velocity=115 time=13
note_on channel=3 note=42 velocity=0 time=12
note_on channel=3 note=42 velocity=76 time=12
note_on channel=3 note=42 velocity=0 time=11
note_on channel=3 note=42 velocity=86 time=13
note_on channel=3 note=42 velocity=0 time=9
note_on channel=3 note=42 velocity=70 time=15
note_on channel=3 note=42 velocity=0 time=12
note_on channel=3 note=42 velocity=109 time=12
note_on channel=3 note=42 velocity=0 time=14
note_on channel=3 note=42 velocity=81 time=10
note_on channel=3 note=42 velocity=0 time=12
note_on channel=3 note=42 velocity=87 time=12
note_on channel=3 note=42 velocity=0 time=10
note_on channel=3 note=42 velocity=76 time=14
note_on channel=3 note=42 velocity=0 time=12
note_on channel=3 note=42 velocity=115 time=12
note_on channel=3 note=42 velocity=0 time=13
note_on channel=3 note=42 velocity=70 time=11
note_on channel=3 note=42 velocity=0 time=12
note_on channel=3 note=42 velocity=92 time=12
note_on channel=3 note=42 velocity=0 time=10
note_on channel=3 note=42 velocity=72 time=14
note_on channel=3 note=42 velocity=0 time=12
note_on channel=3 note=42 velocity=104 time=12
note_on channel=3 note=42 velocity=0 time=14
note_on channel=3 note=42 velocity=74 time=10
note_on channel=3 note=42 velocity=0 time=12
note_on channel=3 note=42 velocity=80 time=12
note_on channel=3 note=42 velocity=0 time=9
note_on channel=3 note=42 velocity=70 time=15
note_on channel=3 note=42 velocity=0 time=10
note_on channel=3 note=42 velocity=115 time=14
note_on channel=3 note=42 velocity=0 time=14
note_on channel=3 note=42 velocity=76 time=10
note_on channel=3 note=42 velocity=0 time=12
note_on channel=3 note=42 velocity=92 time=12
note_on channel=3 note=42 velocity=0 time=11
note_on channel=3 note=42 velocity=72 time=13
note_on channel=3 note=42 velocity=0 time=11
note_on channel=3 note=42 velocity=115 time=13
note_on channel=3 note=42 velocity=0 time=11
note_on channel=3 note=42 velocity=74 time=13
note_on channel=3 note=42 velocity=0 time=11
note_on channel=3 note=42 velocity=72 time=13
note_on channel=3 note=42 velocity=0 time=9
note_on channel=3 note=42 velocity=74 time=15
note_on channel=3 note=42 velocity=0 time=12
note_on channel=3 note=42 velocity=104 time=12
note_on channel=3 note=42 velocity=0 time=14
note_on channel=3 note=42 velocity=78 time=10
note_on channel=3 note=42 velocity=0 time=12
note_on channel=3 note=42 velocity=78 time=12
note_on channel=3 note=42 velocity=0 time=9
note_on channel=3 note=42 velocity=72 time=15
note_on channel=3 note=42 velocity=0 time=10
note_on channel=3 note=42 velocity=115 time=14
note_on channel=3 note=42 velocity=0 time=14
note_on channel=3 note=42 velocity=68 time=10
note_on channel=3 note=42 velocity=0 time=11
note_on channel=3 note=42 velocity=74 time=13
note_on channel=3 note=42 velocity=0 time=8
note_on channel=3 note=42 velocity=70 time=16
note_on channel=3 note=42 velocity=0 time=9
note_on channel=3 note=42 velocity=121 time=15
note_on channel=3 note=42 velocity=0 time=15
note_on channel=3 note=42 velocity=74 time=9
note_on channel=3 note=42 velocity=0 time=12
note_on channel=3 note=42 velocity=86 time=12
note_on channel=3 note=42 velocity=0 time=9
note_on channel=3 note=42 velocity=78 time=15
note_on channel=3 note=42 velocity=0 time=12
note_on channel=3 note=42 velocity=121 time=12
note_on channel=3 note=42 velocity=0 time=15
note_on channel=3 note=42 velocity=76 time=9
note_on channel=3 note=42 velocity=0 time=11
note_on channel=3 note=42 velocity=92 time=13
note_on channel=3 note=42 velocity=0 time=10
note_on channel=3 note=42 velocity=72 time=14
note_on channel=3 note=42 velocity=0 time=9
note_on channel=3 note=42 velocity=121 time=15
note_on channel=3 note=42 velocity=0 time=15
note_on channel=3 note=42 velocity=71 time=9
note_on channel=3 note=42 velocity=0 time=10
note_on channel=3 note=42 velocity=87 time=14
note_on channel=3 note=42 velocity=0 time=11
note_on channel=3 note=42 velocity=68 time=13
note_on channel=3 note=42 velocity=0 time=8
note_on channel=3 note=42 velocity=115 time=16
note_on channel=3 note=42 velocity=0 time=11
note_on channel=3 note=42 velocity=70 time=13
note_on channel=3 note=42 velocity=0 time=10
note_on channel=3 note=42 velocity=89 time=14
note_on channel=3 note=42 velocity=0 time=12
note_on channel=3 note=42 velocity=70 time=12
note_on channel=3 note=42 velocity=0 time=10
note_on channel=3 note=42 velocity=115 time=14
note_on channel=3 note=42 velocity=0 time=13
note_on channel=3 note=42 velocity=75 time=11
note_on channel=3 note=42 velocity=0 time=12
note_on channel=3 note=42 velocity=92 time=12
note_on channel=3 note=42 velocity=0 time=10
note_on channel=3 note=42 velocity=74 time=14
note_on channel=3 note=42 velocity=0 time=11
note_on channel=3 note=42 velocity=115 time=13
note_on channel=3 note=42 velocity=0 time=13
note_on channel=3 note=42 velocity=74 time=11
note_on channel=3 note=42 velocity=0 time=11
note_on channel=3 note=42 velocity=86 time=13
note_on channel=3 note=42 velocity=0 time=8
note_on channel=3 note=42 velocity=66 time=16
note_on channel=3 note=42 velocity=0 time=10
note_on channel=3 note=42 velocity=115 time=14
note_on channel=3 note=42 velocity=0 time=13
note_on channel=3 note=42 velocity=72 time=11
note_on channel=3 note=42 velocity=0 time=10
note_on channel=3 note=42 velocity=86 time=14
note_on channel=3 note=42 velocity=0 time=9
note_on channel=3 note=42 velocity=68 time=15
note_on channel=3 note=42 velocity=0 time=10
note_on channel=3 note=42 velocity=115 time=14
note_on channel=3 note=42 velocity=0 time=12
note_on channel=3 note=42 velocity=70 time=12
note_on channel=3 note=42 velocity=0 time=7
note_on channel=3 note=42 velocity=92 time=17
note_on channel=3 note=42 velocity=0 time=10
note_on channel=3 note=42 velocity=74 time=14
note_on channel=3 note=42 velocity=0 time=10
note_on channel=3 note=42 velocity=115 time=14
note_on channel=3 note=42 velocity=0 time=12
note_on channel=3 note=42 velocity=66 time=12
note_on channel=3 note=42 velocity=0 time=11
note_on channel=3 note=42 velocity=92 time=13
note_on channel=3 note=42 velocity=0 time=11
note_on channel=3 note=42 velocity=72 time=13
note_on channel=3 note=42 velocity=0 time=10
note_on channel=3 note=42 velocity=115 time=14
note_on channel=3 note=42 velocity=0 time=14
note_on channel=3 note=42 velocity=58 time=10
note_on channel=3 note=42 velocity=0 time=9
note_on channel=3 note=42 velocity=92 time=15
note_on channel=3 note=42 velocity=0 time=10
note_on channel=3 note=42 velocity=66 time=14
note_on channel=3 note=42 velocity=0 time=10
note_on channel=3 note=42 velocity=115 time=14
note_on channel=3 note=42 velocity=0 time=14
note_on channel=3 note=42 velocity=68 time=10
note_on channel=3 note=42 velocity=0 time=11
note_on channel=3 note=42 velocity=98 time=13
note_on channel=3 note=42 velocity=0 time=11
note_on channel=3 note=42 velocity=66 time=13
note_on channel=3 note=42 velocity=0 time=11
note_on channel=3 note=42 velocity=115 time=13
note_on channel=3 note=42 velocity=0 time=16
note_on channel=3 note=42 velocity=64 time=8
note_on channel=3 note=42 velocity=0 time=9
note_on channel=3 note=42 velocity=80 time=15
note_on channel=3 note=42 velocity=0 time=12
note_on channel=3 note=42 velocity=66 time=12
note_on channel=3 note=42 velocity=0 time=10
note_on channel=3 note=42 velocity=121 time=14
note_on channel=3 note=42 velocity=0 time=16
note_on channel=3 note=42 velocity=77 time=8
note_on channel=3 note=42 velocity=0 time=12
note_on channel=3 note=42 velocity=83 time=12
note_on channel=3 note=42 velocity=0 time=12
note_on channel=3 note=42 velocity=64 time=12
note_on channel=3 note=42 velocity=0 time=9
note_on channel=3 note=42 velocity=115 time=15
note_on channel=3 note=42 velocity=0 time=15
note_on channel=3 note=42 velocity=75 time=9
note_on channel=3 note=42 velocity=0 time=12
note_on channel=3 note=42 velocity=92 time=12
note_on channel=3 note=42 velocity=0 time=11
note_on channel=3 note=42 velocity=74 time=13
note_on channel=3 note=42 velocity=0 time=12
note_on channel=3 note=42 velocity=115 time=12
note_on channel=3 note=42 velocity=0 time=14
note_on channel=3 note=42 velocity=70 time=10
note_on channel=3 note=42 velocity=0 time=10
note_on channel=3 note=42 velocity=87 time=14
note_on channel=3 note=42 velocity=0 time=12
note_on channel=3 note=42 velocity=74 time=12
note_on channel=3 note=42 velocity=0 time=10
note_on channel=3 note=42 velocity=109 time=14
note_on channel=3 note=42 velocity=0 time=10
note_on channel=3 note=42 velocity=72 time=14
note_on channel=3 note=42 velocity=0 time=12
note_on channel=3 note=42 velocity=83 time=12
note_on channel=3 note=42 velocity=0 time=8
note_on channel=3 note=42 velocity=78 time=16
note_on channel=3 note=42 velocity=0 time=12
note_on channel=3 note=42 velocity=121 time=12
note_on channel=3 note=42 velocity=0 time=15
note_on channel=3 note=42 velocity=74 time=9
note_on channel=3 note=42 velocity=0 time=12
note_on channel=3 note=42 velocity=86 time=12
note_on channel=3 note=42 velocity=0 time=9
note_on channel=3 note=42 velocity=78 time=15
note_on channel=3 note=42 velocity=0 time=12
note_on channel=3 note=42 velocity=121 time=12
note_on channel=3 note=42 velocity=0 time=15
note_on channel=3 note=42 velocity=76 time=9
note_on channel=3 note=42 velocity=0 time=11
note_on channel=3 note=42 velocity=92 time=13
note_on channel=3 note=42 velocity=0 time=10
note_on channel=3 note=42 velocity=72 time=14
note_on channel=3 note=42 velocity=0 time=9
note_on channel=3 note=42 velocity=121 time=15
note_on channel=3 note=42 velocity=0 time=15
note_on channel=3 note=42 velocity=71 time=9
note_on channel=3 note=42 velocity=0 time=10
note_on channel=3 note=42 velocity=87 time=14
note_on channel=3 note=42 velocity=0 time=11
note_on channel=3 note=42 velocity=68 time=13
note_on channel=3 note=42 velocity=0 time=8
note_on channel=3 note=42 velocity=115 time=16
note_on channel=3 note=42 velocity=0 time=11
note_on channel=3 note=42 velocity=70 time=13
note_on channel=3 note=42 velocity=0 time=10
note_on channel=3 note=42 velocity=89 time=14
note_on channel=3 note=42 velocity=0 time=12
note_on channel=3 note=42 velocity=70 time=12
note_on channel=3 note=42 velocity=0 time=10
note_on channel=3 note=42 velocity=115 time=14
note_on channel=3 note=42 velocity=0 time=13
note_on channel=3 note=42 velocity=75 time=11
note_on channel=3 note=42 velocity=0 time=12
note_on channel=3 note=42 velocity=92 time=12
note_on channel=3 note=42 velocity=0 time=10
note_on channel=3 note=42 velocity=74 time=14
note_on channel=3 note=42 velocity=0 time=11
note_on channel=3 note=42 velocity=115 time=13
note_on channel=3 note=42 velocity=0 time=13
note_on channel=3 note=42 velocity=74 time=11
note_on channel=3 note=42 velocity=0 time=11
note_on channel=3 note=42 velocity=86 time=13
note_on channel=3 note=42 velocity=0 time=8
note_on channel=3 note=42 velocity=66 time=16
note_on channel=3 note=42 velocity=0 time=10
note_on channel=3 note=42 velocity=115 time=14
note_on channel=3 note=42 velocity=0 time=13
note_on channel=3 note=42 velocity=72 time=11
note_on channel=3 note=42 velocity=0 time=10
note_on channel=3 note=42 velocity=86 time=14
note_on channel=3 note=42 velocity=0 time=9
note_on channel=3 note=42 velocity=68 time=15
note_on channel=3 note=42 velocity=0 time=10
note_on channel=3 note=42 velocity=115 time=14
note_on channel=3 note=42 velocity=0 time=12
note_on channel=3 note=42 velocity=70 time=12
note_on channel=3 note=42 velocity=0 time=7
note_on channel=3 note=42 velocity=92 time=17
note_on channel=3 note=42 velocity=0 time=10
note_on channel=3 note=42 velocity=74 time=14
note_on channel=3 note=42 velocity=0 time=10
note_on channel=3 note=42 velocity=115 time=14
note_on channel=3 note=42 velocity=0 time=12
note_on channel=3 note=42 velocity=66 time=12
note_on channel=3 note=42 velocity=0 time=11
note_on channel=3 note=42 velocity=92 time=13
note_on channel=3 note=42 velocity=0 time=11
note_on channel=3 note=42 velocity=72 time=13
note_on channel=3 note=42 velocity=0 time=10
note_on channel=3 note=42 velocity=115 time=14
note_on channel=3 note=42 velocity=0 time=14
note_on channel=3 note=42 velocity=58 time=10
note_on channel=3 note=42 velocity=0 time=9
note_on channel=3 note=42 velocity=92 time=15
note_on channel=3 note=42 velocity=0 time=10
note_on channel=3 note=42 velocity=66 time=14
note_on channel=3 note=42 velocity=0 time=10
note_on channel=3 note=42 velocity=115 time=14
note_on channel=3 note=42 velocity=0 time=14
note_on channel=3 note=42 velocity=68 time=10
note_on channel=3 note=42 velocity=0 time=11
note_on channel=3 note=42 velocity=98 time=13
note_on channel=3 note=42 velocity=0 time=11
note_on channel=3 note=42 velocity=66 time=13
note_on channel=3 note=42 velocity=0 time=11
note_on channel=3 note=42 velocity=115 time=13
note_on channel=3 note=42 velocity=0 time=16
note_on channel=3 note=42 velocity=64 time=8
note_on channel=3 note=42 velocity=0 time=9
note_on channel=3 note=42 velocity=80 time=15
note_on channel=3 note=42 velocity=0 time=12
note_on channel=3 note=42 velocity=66 time=12
note_on channel=3 note=42 velocity=0 time=10
note_on channel=3 note=42 velocity=121 time=14
note_on channel=3 note=42 velocity=0 time=16
note_on channel=3 note=42 velocity=77 time=8
note_on channel=3 note=42 velocity=0 time=12
note_on channel=3 note=42 velocity=83 time=12
note_on channel=3 note=42 velocity=0 time=12
note_on channel=3 note=42 velocity=64 time=12
note_on channel=3 note=42 velocity=0 time=9
note_on channel=3 note=42 velocity=115 time=15
note_on channel=3 note=42 velocity=0 time=15
note_on channel=3 note=42 velocity=75 time=9
note_on channel=3 note=42 velocity=0 time=12
note_on channel=3 note=42 velocity=92 time=12
note_on channel=3 note=42 velocity=0 time=11
note_on channel=3 note=42 velocity=74 time=13
note_on channel=3 note=42 velocity=0 time=12
note_on channel=3 note=42 velocity=115 time=12
note_on channel=3 note=42 velocity=0 time=14
note_on channel=3 note=42 velocity=70 time=10
note_on channel=3 note=42 velocity=0 time=10
note_on channel=3 note=42 velocity=87 time=14
note_on channel=3 note=42 velocity=0 time=12
note_on channel=3 note=42 velocity=74 time=12
note_on channel=3 note=42 velocity=0 time=10
note_on channel=3 note=42 velocity=109 time=14
note_on channel=3 note=42 velocity=0 time=10
note_on channel=3 note=42 velocity=72 time=14
note_on channel=3 note=42 velocity=0 time=12
note_on channel=3 note=42 velocity=83 time=12
note_on channel=3 note=42 velocity=0 time=8
note_on channel=3 note=42 velocity=78 time=16
note_on channel=3 note=42 velocity=0 time=12
note_on channel=3 note=42 velocity=121 time=12
note_on channel=3 note=42 velocity=0 time=15
note_on channel=3 note=42 velocity=74 time=9
note_on channel=3 note=42 velocity=0 time=12
note_on channel=3 note=42 velocity=86 time=12
note_on channel=3 note=42 velocity=0 time=9
note_on channel=3 note=42 velocity=78 time=15
note_on channel=3 note=42 velocity=0 time=12
note_on channel=3 note=42 velocity=121 time=12
note_on channel=3 note=42 velocity=0 time=15
note_on channel=3 note=42 velocity=76 time=9
note_on channel=3 note=42 velocity=0 time=11
note_on channel=3 note=42 velocity=92 time=13
note_on channel=3 note=42 velocity=0 time=10
note_on channel=3 note=42 velocity=72 time=14
note_on channel=3 note=42 velocity=0 time=9
note_on channel=3 note=42 velocity=121 time=15
note_on channel=3 note=42 velocity=0 time=15
note_on channel=3 note=42 velocity=71 time=9
note_on channel=3 note=42 velocity=0 time=10
note_on channel=3 note=42 velocity=87 time=14
note_on channel=3 note=42 velocity=0 time=11
note_on channel=3 note=42 velocity=68 time=13
note_on channel=3 note=42 velocity=0 time=8
note_on channel=3 note=42 velocity=115 time=16
note_on channel=3 note=42 velocity=0 time=11
note_on channel=3 note=42 velocity=70 time=13
note_on channel=3 note=42 velocity=0 time=10
note_on channel=3 note=42 velocity=89 time=14
note_on channel=3 note=42 velocity=0 time=12
note_on channel=3 note=42 velocity=70 time=12
note_on channel=3 note=42 velocity=0 time=10
note_on channel=3 note=42 velocity=115 time=14
note_on channel=3 note=42 velocity=0 time=13
note_on channel=3 note=42 velocity=75 time=11
note_on channel=3 note=42 velocity=0 time=12
note_on channel=3 note=42 velocity=92 time=12
note_on channel=3 note=42 velocity=0 time=10
note_on channel=3 note=42 velocity=74 time=14
note_on channel=3 note=42 velocity=0 time=11
note_on channel=3 note=42 velocity=115 time=13
note_on channel=3 note=42 velocity=0 time=13
note_on channel=3 note=42 velocity=74 time=11
note_on channel=3 note=42 velocity=0 time=11
note_on channel=3 note=42 velocity=86 time=13
note_on channel=3 note=42 velocity=0 time=8
note_on channel=3 note=42 velocity=66 time=16
note_on channel=3 note=42 velocity=0 time=10
note_on channel=3 note=42 velocity=115 time=14
note_on channel=3 note=42 velocity=0 time=13
note_on channel=3 note=42 velocity=72 time=11
note_on channel=3 note=42 velocity=0 time=10
note_on channel=3 note=42 velocity=86 time=14
note_on channel=3 note=42 velocity=0 time=9
note_on channel=3 note=42 velocity=68 time=15
note_on channel=3 note=42 velocity=0 time=10
note_on channel=3 note=42 velocity=115 time=14
note_on channel=3 note=42 velocity=0 time=12
note_on channel=3 note=42 velocity=70 time=12
note_on channel=3 note=42 velocity=0 time=7
note_on channel=3 note=42 velocity=92 time=17
note_on channel=3 note=42 velocity=0 time=10
note_on channel=3 note=42 velocity=74 time=14
note_on channel=3 note=42 velocity=0 time=10
note_on channel=3 note=42 velocity=121 time=14
note_on channel=3 note=42 velocity=0 time=15
note_on channel=3 note=42 velocity=74 time=9
note_on channel=3 note=42 velocity=0 time=12
note_on channel=3 note=42 velocity=86 time=12
note_on channel=3 note=42 velocity=0 time=9
note_on channel=3 note=42 velocity=78 time=15
note_on channel=3 note=42 velocity=0 time=12
note_on channel=3 note=42 velocity=121 time=12
note_on channel=3 note=42 velocity=0 time=15
note_on channel=3 note=42 velocity=76 time=9
note_on channel=3 note=42 velocity=0 time=11
note_on channel=3 note=42 velocity=92 time=13
note_on channel=3 note=42 velocity=0 time=10
note_on channel=3 note=42 velocity=72 time=14
note_on channel=3 note=42 velocity=0 time=9
note_on channel=3 note=42 velocity=121 time=15
note_on channel=3 note=42 velocity=0 time=15
note_on channel=3 note=42 velocity=71 time=9
note_on channel=3 note=42 velocity=0 time=10
note_on channel=3 note=42 velocity=87 time=14
note_on channel=3 note=42 velocity=0 time=11
note_on channel=3 note=42 velocity=68 time=13
note_on channel=3 note=42 velocity=0 time=8
note_on channel=3 note=42 velocity=115 time=16
note_on channel=3 note=42 velocity=0 time=11
note_on channel=3 note=42 velocity=70 time=13
note_on channel=3 note=42 velocity=0 time=10
note_on channel=3 note=42 velocity=89 time=14
note_on channel=3 note=42 velocity=0 time=12
note_on channel=3 note=42 velocity=70 time=12
note_on channel=3 note=42 velocity=0 time=10
note_on channel=3 note=42 velocity=115 time=14
note_on channel=3 note=42 velocity=0 time=13
note_on channel=3 note=42 velocity=75 time=11
note_on channel=3 note=42 velocity=0 time=12
note_on channel=3 note=42 velocity=92 time=12
note_on channel=3 note=42 velocity=0 time=10
note_on channel=3 note=42 velocity=74 time=14
note_on channel=3 note=42 velocity=0 time=11
note_on channel=3 note=42 velocity=115 time=13
note_on channel=3 note=42 velocity=0 time=13
note_on channel=3 note=42 velocity=74 time=11
note_on channel=3 note=42 velocity=0 time=11
note_on channel=3 note=42 velocity=86 time=13
note_on channel=3 note=42 velocity=0 time=8
note_on channel=3 note=42 velocity=66 time=16
note_on channel=3 note=42 velocity=0 time=10
note_on channel=3 note=42 velocity=115 time=14
note_on channel=3 note=42 velocity=0 time=13
note_on channel=3 note=42 velocity=72 time=11
note_on channel=3 note=42 velocity=0 time=10
note_on channel=3 note=42 velocity=86 time=14
note_on channel=3 note=42 velocity=0 time=9
note_on channel=3 note=42 velocity=68 time=15
note_on channel=3 note=42 velocity=0 time=10
note_on channel=3 note=42 velocity=115 time=14
note_on channel=3 note=42 velocity=0 time=12
note_on channel=3 note=42 velocity=70 time=12
note_on channel=3 note=42 velocity=0 time=7
note_on channel=3 note=42 velocity=92 time=17
note_on channel=3 note=42 velocity=0 time=10
note_on channel=3 note=42 velocity=74 time=14
note_on channel=3 note=42 velocity=0 time=10
note_on channel=3 note=42 velocity=115 time=14
note_on channel=3 note=42 velocity=0 time=12
note_on channel=3 note=42 velocity=66 time=12
note_on channel=3 note=42 velocity=0 time=11
note_on channel=3 note=42 velocity=92 time=13
note_on channel=3 note=42 velocity=0 time=11
note_on channel=3 note=42 velocity=72 time=13
note_on channel=3 note=42 velocity=0 time=10
note_on channel=3 note=42 velocity=115 time=14
note_on channel=3 note=42 velocity=0 time=14
note_on channel=3 note=42 velocity=58 time=10
note_on channel=3 note=42 velocity=0 time=9
note_on channel=3 note=42 velocity=92 time=15
note_on channel=3 note=42 velocity=0 time=10
note_on channel=3 note=42 velocity=66 time=14
note_on channel=3 note=42 velocity=0 time=10
note_on channel=3 note=42 velocity=115 time=14
note_on channel=3 note=42 velocity=0 time=14
note_on channel=3 note=42 velocity=68 time=10
note_on channel=3 note=42 velocity=0 time=11
note_on channel=3 note=42 velocity=98 time=13
note_on channel=3 note=42 velocity=0 time=11
note_on channel=3 note=42 velocity=66 time=13
note_on channel=3 note=42 velocity=0 time=11
note_on channel=3 note=42 velocity=115 time=13
note_on channel=3 note=42 velocity=0 time=16
note_on channel=3 note=42 velocity=64 time=8
note_on channel=3 note=42 velocity=0 time=9
note_on channel=3 note=42 velocity=80 time=15
note_on channel=3 note=42 velocity=0 time=12
note_on channel=3 note=42 velocity=66 time=12
note_on channel=3 note=42 velocity=0 time=10
note_on channel=3 note=42 velocity=121 time=14
note_on channel=3 note=42 velocity=0 time=16
note_on channel=3 note=42 velocity=77 time=8
note_on channel=3 note=42 velocity=0 time=12
note_on channel=3 note=42 velocity=83 time=12
note_on channel=3 note=42 velocity=0 time=12
note_on channel=3 note=42 velocity=64 time=12
note_on channel=3 note=42 velocity=0 time=9
note_on channel=3 note=42 velocity=115 time=15
note_on channel=3 note=42 velocity=0 time=15
note_on channel=3 note=42 velocity=75 time=9
note_on channel=3 note=42 velocity=0 time=12
note_on channel=3 note=42 velocity=92 time=12
note_on channel=3 note=42 velocity=0 time=11
note_on channel=3 note=42 velocity=74 time=13
note_on channel=3 note=42 velocity=0 time=12
note_on channel=3 note=42 velocity=115 time=12
note_on channel=3 note=42 velocity=0 time=14
note_on channel=3 note=42 velocity=70 time=10
note_on channel=3 note=42 velocity=0 time=10
note_on channel=3 note=42 velocity=87 time=14
note_on channel=3 note=42 velocity=0 time=12
note_on channel=3 note=42 velocity=74 time=12
note_on channel=3 note=42 velocity=0 time=10
note_on channel=3 note=42 velocity=109 time=14
note_on channel=3 note=42 velocity=0 time=10
note_on channel=3 note=42 velocity=72 time=14
note_on channel=3 note=42 velocity=0 time=12
note_on channel=3 note=42 velocity=83 time=12
note_on channel=3 note=42 velocity=0 time=8
note_on channel=3 note=42 velocity=78 time=16
note_on channel=3 note=42 velocity=0 time=12
note_on channel=3 note=42 velocity=121 time=12
note_on channel=3 note=42 velocity=0 time=15
note_on channel=3 note=42 velocity=74 time=9
note_on channel=3 note=42 velocity=0 time=12
note_on channel=3 note=42 velocity=86 time=12
note_on channel=3 note=42 velocity=0 time=9
note_on channel=3 note=42 velocity=78 time=15
note_on channel=3 note=42 velocity=0 time=12
note_on channel=3 note=42 velocity=121 time=12
note_on channel=3 note=42 velocity=0 time=15
note_on channel=3 note=42 velocity=76 time=9
note_on channel=3 note=42 velocity=0 time=11
note_on channel=3 note=42 velocity=92 time=13
note_on channel=3 note=42 velocity=0 time=10
note_on channel=3 note=42 velocity=72 time=14
note_on channel=3 note=42 velocity=0 time=9
note_on channel=3 note=42 velocity=121 time=15
note_on channel=3 note=42 velocity=0 time=15
note_on channel=3 note=42 velocity=71 time=9
note_on channel=3 note=42 velocity=0 time=10
note_on channel=3 note=42 velocity=87 time=14
note_on channel=3 note=42 velocity=0 time=11
note_on channel=3 note=42 velocity=68 time=13
note_on channel=3 note=42 velocity=0 time=8
note_on channel=3 note=42 velocity=115 time=16
note_on channel=3 note=42 velocity=0 time=11
note_on channel=3 note=42 velocity=70 time=13
note_on channel=3 note=42 velocity=0 time=10
note_on channel=3 note=42 velocity=89 time=14
note_on channel=3 note=42 velocity=0 time=12
note_on channel=3 note=42 velocity=70 time=12
note_on channel=3 note=42 velocity=0 time=10
note_on channel=3 note=42 velocity=115 time=14
note_on channel=3 note=42 velocity=0 time=13
note_on channel=3 note=42 velocity=75 time=11
note_on channel=3 note=42 velocity=0 time=12
note_on channel=3 note=42 velocity=92 time=12
note_on channel=3 note=42 velocity=0 time=10
note_on channel=3 note=42 velocity=74 time=14
note_on channel=3 note=42 velocity=0 time=11
note_on channel=3 note=42 velocity=115 time=13
note_on channel=3 note=42 velocity=0 time=13
note_on channel=3 note=42 velocity=74 time=11
note_on channel=3 note=42 velocity=0 time=11
note_on channel=3 note=42 velocity=86 time=13
note_on channel=3 note=42 velocity=0 time=8
note_on channel=3 note=42 velocity=66 time=16
note_on channel=3 note=42 velocity=0 time=10
note_on channel=3 note=42 velocity=115 time=14
note_on channel=3 note=42 velocity=0 time=13
note_on channel=3 note=42 velocity=72 time=11
note_on channel=3 note=42 velocity=0 time=10
note_on channel=3 note=42 velocity=86 time=14
note_on channel=3 note=42 velocity=0 time=9
note_on channel=3 note=42 velocity=68 time=15
note_on channel=3 note=42 velocity=0 time=10
note_on channel=3 note=42 velocity=115 time=14
note_on channel=3 note=42 velocity=0 time=12
note_on channel=3 note=42 velocity=70 time=12
note_on channel=3 note=42 velocity=0 time=7
note_on channel=3 note=42 velocity=92 time=17
note_on channel=3 note=42 velocity=0 time=10
note_on channel=3 note=42 velocity=74 time=14
note_on channel=3 note=42 velocity=0 time=10
note_on channel=3 note=42 velocity=115 time=14
note_on channel=3 note=42 velocity=0 time=12
note_on channel=3 note=42 velocity=66 time=12
note_on channel=3 note=42 velocity=0 time=11
note_on channel=3 note=42 velocity=92 time=13
note_on channel=3 note=42 velocity=0 time=11
note_on channel=3 note=42 velocity=72 time=13
note_on channel=3 note=42 velocity=0 time=10
note_on channel=3 note=42 velocity=115 time=14
note_on channel=3 note=42 velocity=0 time=14
note_on channel=3 note=42 velocity=58 time=10
note_on channel=3 note=42 velocity=0 time=9
note_on channel=3 note=42 velocity=92 time=15
note_on channel=3 note=42 velocity=0 time=10
note_on channel=3 note=42 velocity=66 time=14
note_on channel=3 note=42 velocity=0 time=10
note_on channel=3 note=42 velocity=115 time=14
note_on channel=3 note=42 velocity=0 time=14
note_on channel=3 note=42 velocity=68 time=10
note_on channel=3 note=42 velocity=0 time=11
note_on channel=3 note=42 velocity=98 time=13
note_on channel=3 note=42 velocity=0 time=11
note_on channel=3 note=42 velocity=66 time=13
note_on channel=3 note=42 velocity=0 time=11
note_on channel=3 note=42 velocity=115 time=13
note_on channel=3 note=42 velocity=0 time=16
note_on channel=3 note=42 velocity=64 time=8
note_on channel=3 note=42 velocity=0 time=9
note_on channel=3 note=42 velocity=80 time=15
note_on channel=3 note=42 velocity=0 time=12
note_on channel=3 note=42 velocity=66 time=12
note_on channel=3 note=42 velocity=0 time=10
note_on channel=3 note=42 velocity=121 time=14
note_on channel=3 note=42 velocity=0 time=16
note_on channel=3 note=42 velocity=77 time=8
note_on channel=3 note=42 velocity=0 time=12
note_on channel=3 note=42 velocity=83 time=12
note_on channel=3 note=42 velocity=0 time=12
note_on channel=3 note=42 velocity=64 time=12
note_on channel=3 note=42 velocity=0 time=9
note_on channel=3 note=42 velocity=115 time=15
note_on channel=3 note=42 velocity=0 time=15
note_on channel=3 note=42 velocity=75 time=9
note_on channel=3 note=42 velocity=0 time=12
note_on channel=3 note=42 velocity=92 time=12
note_on channel=3 note=42 velocity=0 time=11
note_on channel=3 note=42 velocity=74 time=13
note_on channel=3 note=42 velocity=0 time=12
note_on channel=3 note=42 velocity=115 time=12
note_on channel=3 note=42 velocity=0 time=14
note_on channel=3 note=42 velocity=70 time=10
note_on channel=3 note=42 velocity=0 time=10
note_on channel=3 note=42 velocity=87 time=14
note_on channel=3 note=42 velocity=0 time=12
note_on channel=3 note=42 velocity=74 time=12
note_on channel=3 note=42 velocity=0 time=10
note_on channel=3 note=42 velocity=109 time=14
note_on channel=3 note=42 velocity=0 time=10
note_on channel=3 note=42 velocity=72 time=14
note_on channel=3 note=42 velocity=0 time=12
note_on channel=3 note=42 velocity=83 time=12
note_on channel=3 note=42 velocity=0 time=8
note_on channel=3 note=42 velocity=78 time=16
note_on channel=3 note=42 velocity=0 time=12
note_on channel=3 note=42 velocity=121 time=12
note_on channel=3 note=42 velocity=0 time=15
note_on channel=3 note=42 velocity=74 time=9
note_on channel=3 note=42 velocity=0 time=12
note_on channel=3 note=42 velocity=86 time=12
note_on channel=3 note=42 velocity=0 time=9
note_on channel=3 note=42 velocity=78 time=15
note_on channel=3 note=42 velocity=0 time=12
note_on channel=3 note=42 velocity=121 time=12
note_on channel=3 note=42 velocity=0 time=15
note_on channel=3 note=42 velocity=76 time=9
note_on channel=3 note=42 velocity=0 time=11
note_on channel=3 note=42 velocity=92 time=13
note_on channel=3 note=42 velocity=0 time=10
note_on channel=3 note=42 velocity=72 time=14
note_on channel=3 note=42 velocity=0 time=9
note_on channel=3 note=42 velocity=121 time=15
note_on channel=3 note=42 velocity=0 time=15
note_on channel=3 note=42 velocity=71 time=9
note_on channel=3 note=42 velocity=0 time=10
note_on channel=3 note=42 velocity=87 time=14
note_on channel=3 note=42 velocity=0 time=11
note_on channel=3 note=42 velocity=68 time=13
note_on channel=3 note=42 velocity=0 time=8
note_on channel=3 note=42 velocity=115 time=16
note_on channel=3 note=42 velocity=0 time=11
note_on channel=3 note=42 velocity=70 time=13
note_on channel=3 note=42 velocity=0 time=10
note_on channel=3 note=42 velocity=89 time=14
note_on channel=3 note=42 velocity=0 time=12
note_on channel=3 note=42 velocity=70 time=12
note_on channel=3 note=42 velocity=0 time=10
note_on channel=3 note=42 velocity=115 time=14
note_on channel=3 note=42 velocity=0 time=13
note_on channel=3 note=42 velocity=75 time=11
note_on channel=3 note=42 velocity=0 time=12
note_on channel=3 note=42 velocity=92 time=12
note_on channel=3 note=42 velocity=0 time=10
note_on channel=3 note=42 velocity=74 time=14
note_on channel=3 note=42 velocity=0 time=11
note_on channel=3 note=42 velocity=115 time=13
note_on channel=3 note=42 velocity=0 time=13
note_on channel=3 note=42 velocity=74 time=11
note_on channel=3 note=42 velocity=0 time=11
note_on channel=3 note=42 velocity=86 time=13
note_on channel=3 note=42 velocity=0 time=8
note_on channel=3 note=42 velocity=66 time=16
note_on channel=3 note=42 velocity=0 time=10
note_on channel=3 note=42 velocity=115 time=14
note_on channel=3 note=42 velocity=0 time=13
note_on channel=3 note=42 velocity=72 time=11
note_on channel=3 note=42 velocity=0 time=10
note_on channel=3 note=42 velocity=86 time=14
note_on channel=3 note=42 velocity=0 time=9
note_on channel=3 note=42 velocity=68 time=15
note_on channel=3 note=42 velocity=0 time=10
note_on channel=3 note=42 velocity=115 time=14
note_on channel=3 note=42 velocity=0 time=12
note_on channel=3 note=42 velocity=70 time=12
note_on channel=3 note=42 velocity=0 time=7
note_on channel=3 note=42 velocity=92 time=17
note_on channel=3 note=42 velocity=0 time=10
note_on channel=3 note=42 velocity=74 time=14
note_on channel=3 note=42 velocity=0 time=10
note_on channel=3 note=42 velocity=115 time=14
note_on channel=3 note=42 velocity=0 time=12
note_on channel=3 note=42 velocity=66 time=12
note_on channel=3 note=42 velocity=0 time=11
note_on channel=3 note=42 velocity=92 time=13
note_on channel=3 note=42 velocity=0 time=11
note_on channel=3 note=42 velocity=72 time=13
note_on channel=3 note=42 velocity=0 time=10
note_on channel=3 note=42 velocity=115 time=14
note_on channel=3 note=42 velocity=0 time=14
note_on channel=3 note=42 velocity=58 time=10
note_on channel=3 note=42 velocity=0 time=9
note_on channel=3 note=42 velocity=92 time=15
note_on channel=3 note=42 velocity=0 time=10
note_on channel=3 note=42 velocity=66 time=14
note_on channel=3 note=42 velocity=0 time=10
note_on channel=3 note=42 velocity=115 time=14
note_on channel=3 note=42 velocity=0 time=14
note_on channel=3 note=42 velocity=68 time=10
note_on channel=3 note=42 velocity=0 time=11
note_on channel=3 note=42 velocity=98 time=13
note_on channel=3 note=42 velocity=0 time=11
note_on channel=3 note=42 velocity=66 time=13
note_on channel=3 note=42 velocity=0 time=11
note_on channel=3 note=42 velocity=115 time=13
note_on channel=3 note=42 velocity=0 time=16
note_on channel=3 note=42 velocity=64 time=8
note_on channel=3 note=42 velocity=0 time=9
note_on channel=3 note=42 velocity=80 time=15
note_on channel=3 note=42 velocity=0 time=12
note_on channel=3 note=42 velocity=66 time=12
note_on channel=3 note=42 velocity=0 time=10
note_on channel=3 note=42 velocity=121 time=14
note_on channel=3 note=42 velocity=0 time=16
note_on channel=3 note=42 velocity=77 time=8
note_on channel=3 note=42 velocity=0 time=12
note_on channel=3 note=42 velocity=83 time=12
note_on channel=3 note=42 velocity=0 time=12
note_on channel=3 note=42 velocity=64 time=12
note_on channel=3 note=42 velocity=0 time=9
note_on channel=3 note=42 velocity=115 time=15
note_on channel=3 note=42 velocity=0 time=15
note_on channel=3 note=42 velocity=75 time=9
note_on channel=3 note=42 velocity=0 time=12
note_on channel=3 note=42 velocity=92 time=12
note_on channel=3 note=42 velocity=0 time=11
note_on channel=3 note=42 velocity=74 time=13
note_on channel=3 note=42 velocity=0 time=12
note_on channel=3 note=42 velocity=115 time=12
note_on channel=3 note=42 velocity=0 time=14
note_on channel=3 note=42 velocity=70 time=10
note_on channel=3 note=42 velocity=0 time=10
note_on channel=3 note=42 velocity=87 time=14
note_on channel=3 note=42 velocity=0 time=12
note_on channel=3 note=42 velocity=74 time=12
note_on channel=3 note=42 velocity=0 time=10
note_on channel=3 note=42 velocity=109 time=14
note_on channel=3 note=42 velocity=0 time=10
note_on channel=3 note=42 velocity=72 time=14
note_on channel=3 note=42 velocity=0 time=12
note_on channel=3 note=42 velocity=83 time=12
note_on channel=3 note=42 velocity=0 time=8
note_on channel=3 note=42 velocity=78 time=16
note_on channel=3 note=42 velocity=0 time=12
note_on channel=3 note=42 velocity=121 time=12
note_on channel=3 note=42 velocity=0 time=15
note_on channel=3 note=42 velocity=74 time=9
note_on channel=3 note=42 velocity=0 time=12
note_on channel=3 note=42 velocity=86 time=12
note_on channel=3 note=42 velocity=0 time=9
note_on channel=3 note=42 velocity=78 time=15
note_on channel=3 note=42 velocity=0 time=12
note_on channel=3 note=42 velocity=121 time=12
note_on channel=3 note=42 velocity=0 time=15
note_on channel=3 note=42 velocity=76 time=9
note_on channel=3 note=42 velocity=0 time=11
note_on channel=3 note=42 velocity=92 time=13
note_on channel=3 note=42 velocity=0 time=10
note_on channel=3 note=42 velocity=72 time=14
note_on channel=3 note=42 velocity=0 time=9
note_on channel=3 note=42 velocity=121 time=15
note_on channel=3 note=42 velocity=0 time=15
note_on channel=3 note=42 velocity=71 time=9
note_on channel=3 note=42 velocity=0 time=10
note_on channel=3 note=42 velocity=87 time=14
note_on channel=3 note=42 velocity=0 time=11
note_on channel=3 note=42 velocity=68 time=13
note_on channel=3 note=42 velocity=0 time=8
note_on channel=3 note=42 velocity=115 time=16
note_on channel=3 note=42 velocity=0 time=11
note_on channel=3 note=42 velocity=70 time=13
note_on channel=3 note=42 velocity=0 time=10
note_on channel=3 note=42 velocity=89 time=14
note_on channel=3 note=42 velocity=0 time=12
note_on channel=3 note=42 velocity=70 time=12
note_on channel=3 note=42 velocity=0 time=10
note_on channel=3 note=42 velocity=115 time=14
note_on channel=3 note=42 velocity=0 time=13
note_on channel=3 note=42 velocity=75 time=11
note_on channel=3 note=42 velocity=0 time=12
note_on channel=3 note=42 velocity=92 time=12
note_on channel=3 note=42 velocity=0 time=10
note_on channel=3 note=42 velocity=74 time=14
note_on channel=3 note=42 velocity=0 time=11
note_on channel=3 note=42 velocity=115 time=13
note_on channel=3 note=42 velocity=0 time=13
note_on channel=3 note=42 velocity=74 time=11
note_on channel=3 note=42 velocity=0 time=11
note_on channel=3 note=42 velocity=86 time=13
note_on channel=3 note=42 velocity=0 time=8
note_on channel=3 note=42 velocity=66 time=16
note_on channel=3 note=42 velocity=0 time=10
note_on channel=3 note=42 velocity=115 time=14
note_on channel=3 note=42 velocity=0 time=13
note_on channel=3 note=42 velocity=72 time=11
note_on channel=3 note=42 velocity=0 time=10
note_on channel=3 note=42 velocity=86 time=14
note_on channel=3 note=42 velocity=0 time=9
note_on channel=3 note=42 velocity=68 time=15
note_on channel=3 note=42 velocity=0 time=10
note_on channel=3 note=42 velocity=115 time=14
note_on channel=3 note=42 velocity=0 time=12
note_on channel=3 note=42 velocity=70 time=12
note_on channel=3 note=42 velocity=0 time=7
note_on channel=3 note=42 velocity=92 time=17
note_on channel=3 note=42 velocity=0 time=10
note_on channel=3 note=42 velocity=74 time=14
note_on channel=3 note=42 velocity=0 time=10
note_on channel=3 note=42 velocity=115 time=14
note_on channel=3 note=42 velocity=0 time=12
note_on channel=3 note=42 velocity=66 time=12
note_on channel=3 note=42 velocity=0 time=11
note_on channel=3 note=42 velocity=92 time=13
note_on channel=3 note=42 velocity=0 time=11
note_on channel=3 note=42 velocity=72 time=13
note_on channel=3 note=42 velocity=0 time=10
note_on channel=3 note=42 velocity=115 time=14
note_on channel=3 note=42 velocity=0 time=14
note_on channel=3 note=42 velocity=58 time=10
note_on channel=3 note=42 velocity=0 time=9
note_on channel=3 note=42 velocity=92 time=15
note_on channel=3 note=42 velocity=0 time=10
note_on channel=3 note=42 velocity=66 time=14
note_on channel=3 note=42 velocity=0 time=10
note_on channel=3 note=42 velocity=115 time=14
note_on channel=3 note=42 velocity=0 time=14
note_on channel=3 note=42 velocity=68 time=10
note_on channel=3 note=42 velocity=0 time=11
note_on channel=3 note=42 velocity=98 time=13
note_on channel=3 note=42 velocity=0 time=11
note_on channel=3 note=42 velocity=66 time=13
note_on channel=3 note=42 velocity=0 time=11
note_on channel=3 note=42 velocity=115 time=13
note_on channel=3 note=42 velocity=0 time=16
note_on channel=3 note=42 velocity=64 time=8
note_on channel=3 note=42 velocity=0 time=9
note_on channel=3 note=42 velocity=80 time=15
note_on channel=3 note=42 velocity=0 time=12
note_on channel=3 note=42 velocity=66 time=12
note_on channel=3 note=42 velocity=0 time=10
note_on channel=3 note=42 velocity=121 time=14
note_on channel=3 note=42 velocity=0 time=16
note_on channel=3 note=42 velocity=77 time=8
note_on channel=3 note=42 velocity=0 time=12
note_on channel=3 note=42 velocity=83 time=12
note_on channel=3 note=42 velocity=0 time=12
note_on channel=3 note=42 velocity=64 time=12
note_on channel=3 note=42 velocity=0 time=9
note_on channel=3 note=42 velocity=115 time=15
note_on channel=3 note=42 velocity=0 time=15
note_on channel=3 note=42 velocity=75 time=9
note_on channel=3 note=42 velocity=0 time=12
note_on channel=3 note=42 velocity=92 time=12
note_on channel=3 note=42 velocity=0 time=11
note_on channel=3 note=42 velocity=74 time=13
note_on channel=3 note=42 velocity=0 time=12
note_on channel=3 note=42 velocity=115 time=12
note_on channel=3 note=42 velocity=0 time=14
note_on channel=3 note=42 velocity=70 time=10
note_on channel=3 note=42 velocity=0 time=10
note_on channel=3 note=42 velocity=87 time=14
note_on channel=3 note=42 velocity=0 time=12
note_on channel=3 note=42 velocity=74 time=12
note_on channel=3 note=42 velocity=0 time=10
note_on channel=3 note=42 velocity=109 time=14
note_on channel=3 note=42 velocity=0 time=10
note_on channel=3 note=42 velocity=72 time=14
note_on channel=3 note=42 velocity=0 time=12
note_on channel=3 note=42 velocity=83 time=12
note_on channel=3 note=42 velocity=0 time=8
note_on channel=3 note=42 velocity=78 time=16
note_on channel=3 note=42 velocity=0 time=12
note_on channel=3 note=42 velocity=121 time=3084
note_on channel=3 note=42 velocity=0 time=15
note_on channel=3 note=42 velocity=74 time=9
note_on channel=3 note=42 velocity=0 time=12
note_on channel=3 note=42 velocity=86 time=12
note_on channel=3 note=42 velocity=0 time=9
note_on channel=3 note=42 velocity=78 time=15
note_on channel=3 note=42 velocity=0 time=12
note_on channel=3 note=42 velocity=121 time=12
note_on channel=3 note=42 velocity=0 time=15
note_on channel=3 note=42 velocity=76 time=9
note_on channel=3 note=42 velocity=0 time=11
note_on channel=3 note=42 velocity=92 time=13
note_on channel=3 note=42 velocity=0 time=10
note_on channel=3 note=42 velocity=72 time=14
note_on channel=3 note=42 velocity=0 time=9
note_on channel=3 note=42 velocity=121 time=15
note_on channel=3 note=42 velocity=0 time=15
note_on channel=3 note=42 velocity=71 time=9
note_on channel=3 note=42 velocity=0 time=10
note_on channel=3 note=42 velocity=87 time=14
note_on channel=3 note=42 velocity=0 time=11
note_on channel=3 note=42 velocity=68 time=13
note_on channel=3 note=42 velocity=0 time=8
note_on channel=3 note=42 velocity=115 time=16
note_on channel=3 note=42 velocity=0 time=11
note_on channel=3 note=42 velocity=70 time=13
note_on channel=3 note=42 velocity=0 time=10
note_on channel=3 note=42 velocity=89 time=14
note_on channel=3 note=42 velocity=0 time=12
note_on channel=3 note=42 velocity=70 time=12
note_on channel=3 note=42 velocity=0 time=10
note_on channel=3 note=42 velocity=115 time=14
note_on channel=3 note=42 velocity=0 time=13
note_on channel=3 note=42 velocity=75 time=11
note_on channel=3 note=42 velocity=0 time=12
note_on channel=3 note=42 velocity=92 time=12
note_on channel=3 note=42 velocity=0 time=10
note_on channel=3 note=42 velocity=74 time=14
note_on channel=3 note=42 velocity=0 time=11
note_on channel=3 note=42 velocity=115 time=13
note_on channel=3 note=42 velocity=0 time=13
note_on channel=3 note=42 velocity=74 time=11
note_on channel=3 note=42 velocity=0 time=11
note_on channel=3 note=42 velocity=86 time=13
note_on channel=3 note=42 velocity=0 time=8
note_on channel=3 note=42 velocity=66 time=16
note_on channel=3 note=42 velocity=0 time=10
note_on channel=3 note=42 velocity=115 time=14
note_on channel=3 note=42 velocity=0 time=13
note_on channel=3 note=42 velocity=72 time=11
note_on channel=3 note=42 velocity=0 time=10
note_on channel=3 note=42 velocity=86 time=14
note_on channel=3 note=42 velocity=0 time=9
note_on channel=3 note=42 velocity=68 time=15
note_on channel=3 note=42 velocity=0 time=10
note_on channel=3 note=42 velocity=115 time=14
note_on channel=3 note=42 velocity=0 time=12
note_on channel=3 note=42 velocity=70 time=12
note_on channel=3 note=42 velocity=0 time=7
note_on channel=3 note=42 velocity=92 time=17
note_on channel=3 note=42 velocity=0 time=10
note_on channel=3 note=42 velocity=74 time=14
note_on channel=3 note=42 velocity=0 time=10
note_on channel=3 note=42 velocity=121 time=14
note_on channel=3 note=42 velocity=0 time=15
note_on channel=3 note=42 velocity=74 time=9
note_on channel=3 note=42 velocity=0 time=12
note_on channel=3 note=42 velocity=86 time=12
note_on channel=3 note=42 velocity=0 time=9
note_on channel=3 note=42 velocity=78 time=15
note_on channel=3 note=42 velocity=0 time=12
note_on channel=3 note=42 velocity=121 time=12
note_on channel=3 note=42 velocity=0 time=15
note_on channel=3 note=42 velocity=76 time=9
note_on channel=3 note=42 velocity=0 time=11
note_on channel=3 note=42 velocity=92 time=13
note_on channel=3 note=42 velocity=0 time=10
note_on channel=3 note=42 velocity=72 time=14
note_on channel=3 note=42 velocity=0 time=9
note_on channel=3 note=42 velocity=121 time=15
note_on channel=3 note=42 velocity=0 time=15
note_on channel=3 note=42 velocity=71 time=9
note_on channel=3 note=42 velocity=0 time=10
note_on channel=3 note=42 velocity=87 time=14
note_on channel=3 note=42 velocity=0 time=11
note_on channel=3 note=42 velocity=68 time=13
note_on channel=3 note=42 velocity=0 time=8
note_on channel=3 note=42 velocity=115 time=16
note_on channel=3 note=42 velocity=0 time=11
note_on channel=3 note=42 velocity=70 time=13
note_on channel=3 note=42 velocity=0 time=10
note_on channel=3 note=42 velocity=89 time=14
note_on channel=3 note=42 velocity=0 time=12
note_on channel=3 note=42 velocity=70 time=12
note_on channel=3 note=42 velocity=0 time=10
note_on channel=3 note=42 velocity=115 time=14
note_on channel=3 note=42 velocity=0 time=13
note_on channel=3 note=42 velocity=75 time=11
note_on channel=3 note=42 velocity=0 time=12
note_on channel=3 note=42 velocity=92 time=12
note_on channel=3 note=42 velocity=0 time=10
note_on channel=3 note=42 velocity=74 time=14
note_on channel=3 note=42 velocity=0 time=11
note_on channel=3 note=42 velocity=115 time=13
note_on channel=3 note=42 velocity=0 time=13
note_on channel=3 note=42 velocity=74 time=11
note_on channel=3 note=42 velocity=0 time=11
note_on channel=3 note=42 velocity=86 time=13
note_on channel=3 note=42 velocity=0 time=8
note_on channel=3 note=42 velocity=66 time=16
note_on channel=3 note=42 velocity=0 time=10
note_on channel=3 note=42 velocity=115 time=14
note_on channel=3 note=42 velocity=0 time=13
note_on channel=3 note=42 velocity=72 time=11
note_on channel=3 note=42 velocity=0 time=10
note_on channel=3 note=42 velocity=86 time=14
note_on channel=3 note=42 velocity=0 time=9
note_on channel=3 note=42 velocity=68 time=15
note_on channel=3 note=42 velocity=0 time=10
note_on channel=3 note=42 velocity=115 time=14
note_on channel=3 note=42 velocity=0 time=12
note_on channel=3 note=42 velocity=70 time=12
note_on channel=3 note=42 velocity=0 time=7
note_on channel=3 note=42 velocity=92 time=17
note_on channel=3 note=42 velocity=0 time=10
note_on channel=3 note=42 velocity=74 time=14
note_on channel=3 note=42 velocity=0 time=10
note_on channel=3 note=42 velocity=115 time=14
note_on channel=3 note=42 velocity=0 time=12
note_on channel=3 note=42 velocity=66 time=12
note_on channel=3 note=42 velocity=0 time=11
note_on channel=3 note=42 velocity=92 time=13
note_on channel=3 note=42 velocity=0 time=11
note_on channel=3 note=42 velocity=72 time=13
note_on channel=3 note=42 velocity=0 time=10
note_on channel=3 note=42 velocity=115 time=14
note_on channel=3 note=42 velocity=0 time=14
note_on channel=3 note=42 velocity=58 time=10
note_on channel=3 note=42 velocity=0 time=9
note_on channel=3 note=42 velocity=92 time=15
note_on channel=3 note=42 velocity=0 time=10
note_on channel=3 note=42 velocity=66 time=14
note_on channel=3 note=42 velocity=0 time=10
note_on channel=3 note=42 velocity=115 time=14
note_on channel=3 note=42 velocity=0 time=14
note_on channel=3 note=42 velocity=68 time=10
note_on channel=3 note=42 velocity=0 time=11
note_on channel=3 note=42 velocity=98 time=13
note_on channel=3 note=42 velocity=0 time=11
note_on channel=3 note=42 velocity=66 time=13
note_on channel=3 note=42 velocity=0 time=11
note_on channel=3 note=42 velocity=115 time=13
note_on channel=3 note=42 velocity=0 time=16
note_on channel=3 note=42 velocity=64 time=8
note_on channel=3 note=42 velocity=0 time=9
note_on channel=3 note=42 velocity=80 time=15
note_on channel=3 note=42 velocity=0 time=12
note_on channel=3 note=42 velocity=66 time=12
note_on channel=3 note=42 velocity=0 time=10
note_on channel=3 note=42 velocity=121 time=14
note_on channel=3 note=42 velocity=0 time=16
note_on channel=3 note=42 velocity=77 time=8
note_on channel=3 note=42 velocity=0 time=12
note_on channel=3 note=42 velocity=83 time=12
note_on channel=3 note=42 velocity=0 time=12
note_on channel=3 note=42 velocity=64 time=12
note_on channel=3 note=42 velocity=0 time=9
note_on channel=3 note=42 velocity=115 time=15
note_on channel=3 note=42 velocity=0 time=15
note_on channel=3 note=42 velocity=75 time=9
note_on channel=3 note=42 velocity=0 time=12
note_on channel=3 note=42 velocity=92 time=12
note_on channel=3 note=42 velocity=0 time=11
note_on channel=3 note=42 velocity=74 time=13
note_on channel=3 note=42 velocity=0 time=12
note_on channel=3 note=42 velocity=115 time=12
note_on channel=3 note=42 velocity=0 time=14
note_on channel=3 note=42 velocity=70 time=10
note_on channel=3 note=42 velocity=0 time=10
note_on channel=3 note=42 velocity=87 time=14
note_on channel=3 note=42 velocity=0 time=12
note_on channel=3 note=42 velocity=74 time=12
note_on channel=3 note=42 velocity=0 time=10
note_on channel=3 note=42 velocity=109 time=14
note_on channel=3 note=42 velocity=0 time=10
note_on channel=3 note=42 velocity=72 time=14
note_on channel=3 note=42 velocity=0 time=12
note_on channel=3 note=42 velocity=83 time=12
note_on channel=3 note=42 velocity=0 time=8
note_on channel=3 note=42 velocity=78 time=16
note_on channel=3 note=42 velocity=0 time=12
note_on channel=3 note=42 velocity=121 time=12
note_on channel=3 note=42 velocity=0 time=15
note_on channel=3 note=42 velocity=74 time=9
note_on channel=3 note=42 velocity=0 time=12
note_on channel=3 note=42 velocity=86 time=12
note_on channel=3 note=42 velocity=0 time=9
note_on channel=3 note=42 velocity=78 time=15
note_on channel=3 note=42 velocity=0 time=12
note_on channel=3 note=42 velocity=121 time=12
note_on channel=3 note=42 velocity=0 time=15
note_on channel=3 note=42 velocity=76 time=9
note_on channel=3 note=42 velocity=0 time=11
note_on channel=3 note=42 velocity=92 time=13
note_on channel=3 note=42 velocity=0 time=10
note_on channel=3 note=42 velocity=72 time=14
note_on channel=3 note=42 velocity=0 time=9
note_on channel=3 note=42 velocity=121 time=15
note_on channel=3 note=42 velocity=0 time=15
note_on channel=3 note=42 velocity=71 time=9
note_on channel=3 note=42 velocity=0 time=10
note_on channel=3 note=42 velocity=87 time=14
note_on channel=3 note=42 velocity=0 time=11
note_on channel=3 note=42 velocity=68 time=13
note_on channel=3 note=42 velocity=0 time=8
note_on channel=3 note=42 velocity=115 time=16
note_on channel=3 note=42 velocity=0 time=11
note_on channel=3 note=42 velocity=70 time=13
note_on channel=3 note=42 velocity=0 time=10
note_on channel=3 note=42 velocity=89 time=14
note_on channel=3 note=42 velocity=0 time=12
note_on channel=3 note=42 velocity=70 time=12
note_on channel=3 note=42 velocity=0 time=10
note_on channel=3 note=42 velocity=115 time=14
note_on channel=3 note=42 velocity=0 time=13
note_on channel=3 note=42 velocity=75 time=11
note_on channel=3 note=42 velocity=0 time=12
note_on channel=3 note=42 velocity=92 time=12
note_on channel=3 note=42 velocity=0 time=10
note_on channel=3 note=42 velocity=74 time=14
note_on channel=3 note=42 velocity=0 time=11
note_on channel=3 note=42 velocity=115 time=13
note_on channel=3 note=42 velocity=0 time=13
note_on channel=3 note=42 velocity=74 time=11
note_on channel=3 note=42 velocity=0 time=11
note_on channel=3 note=42 velocity=86 time=13
note_on channel=3 note=42 velocity=0 time=8
note_on channel=3 note=42 velocity=66 time=16
note_on channel=3 note=42 velocity=0 time=10
note_on channel=3 note=42 velocity=115 time=14
note_on channel=3 note=42 velocity=0 time=13
note_on channel=3 note=42 velocity=72 time=11
note_on channel=3 note=42 velocity=0 time=10
note_on channel=3 note=42 velocity=86 time=14
note_on channel=3 note=42 velocity=0 time=9
note_on channel=3 note=42 velocity=68 time=15
note_on channel=3 note=42 velocity=0 time=10
note_on channel=3 note=42 velocity=115 time=14
note_on channel=3 note=42 velocity=0 time=12
note_on channel=3 note=42 velocity=70 time=12
note_on channel=3 note=42 velocity=0 time=7
note_on channel=3 note=42 velocity=92 time=17
note_on channel=3 note=42 velocity=0 time=10
note_on channel=3 note=42 velocity=74 time=14
note_on channel=3 note=42 velocity=0 time=10
note_on channel=3 note=42 velocity=115 time=14
note_on channel=3 note=42 velocity=0 time=12
note_on channel=3 note=42 velocity=66 time=12
note_on channel=3 note=42 velocity=0 time=11
note_on channel=3 note=42 velocity=92 time=13
note_on channel=3 note=42 velocity=0 time=11
note_on channel=3 note=42 velocity=72 time=13
note_on channel=3 note=42 velocity=0 time=10
note_on channel=3 note=42 velocity=115 time=14
note_on channel=3 note=42 velocity=0 time=14
note_on channel=3 note=42 velocity=58 time=10
note_on channel=3 note=42 velocity=0 time=9
note_on channel=3 note=42 velocity=92 time=15
note_on channel=3 note=42 velocity=0 time=10
note_on channel=3 note=42 velocity=66 time=14
note_on channel=3 note=42 velocity=0 time=10
note_on channel=3 note=42 velocity=115 time=14
note_on channel=3 note=42 velocity=0 time=14
note_on channel=3 note=42 velocity=68 time=10
note_on channel=3 note=42 velocity=0 time=11
note_on channel=3 note=42 velocity=98 time=13
note_on channel=3 note=42 velocity=0 time=11
note_on channel=3 note=42 velocity=66 time=13
note_on channel=3 note=42 velocity=0 time=11
note_on channel=3 note=42 velocity=115 time=13
note_on channel=3 note=42 velocity=0 time=16
note_on channel=3 note=42 velocity=64 time=8
note_on channel=3 note=42 velocity=0 time=9
note_on channel=3 note=42 velocity=80 time=15
note_on channel=3 note=42 velocity=0 time=12
note_on channel=3 note=42 velocity=66 time=12
note_on channel=3 note=42 velocity=0 time=10
note_on channel=3 note=42 velocity=121 time=14
note_on channel=3 note=42 velocity=0 time=16
note_on channel=3 note=42 velocity=77 time=8
note_on channel=3 note=42 velocity=0 time=12
note_on channel=3 note=42 velocity=83 time=12
note_on channel=3 note=42 velocity=0 time=12
note_on channel=3 note=42 velocity=64 time=12
note_on channel=3 note=42 velocity=0 time=9
note_on channel=3 note=42 velocity=115 time=15
note_on channel=3 note=42 velocity=0 time=15
note_on channel=3 note=42 velocity=75 time=9
note_on channel=3 note=42 velocity=0 time=12
note_on channel=3 note=42 velocity=92 time=12
note_on channel=3 note=42 velocity=0 time=11
note_on channel=3 note=42 velocity=74 time=13
note_on channel=3 note=42 velocity=0 time=12
note_on channel=3 note=42 velocity=115 time=12
note_on channel=3 note=42 velocity=0 time=14
note_on channel=3 note=42 velocity=70 time=10
note_on channel=3 note=42 velocity=0 time=10
note_on channel=3 note=42 velocity=87 time=14
note_on channel=3 note=42 velocity=0 time=12
note_on channel=3 note=42 velocity=74 time=12
note_on channel=3 note=42 velocity=0 time=10
note_on channel=3 note=42 velocity=109 time=14
note_on channel=3 note=42 velocity=0 time=10
note_on channel=3 note=42 velocity=72 time=14
note_on channel=3 note=42 velocity=0 time=12
note_on channel=3 note=42 velocity=83 time=12
note_on channel=3 note=42 velocity=0 time=8
note_on channel=3 note=42 velocity=78 time=16
note_on channel=3 note=42 velocity=0 time=12
note_on channel=3 note=42 velocity=121 time=3084
note_on channel=3 note=42 velocity=0 time=15
note_on channel=3 note=42 velocity=74 time=9
note_on channel=3 note=42 velocity=0 time=12
note_on channel=3 note=42 velocity=86 time=12
note_on channel=3 note=42 velocity=0 time=9
note_on channel=3 note=42 velocity=78 time=15
note_on channel=3 note=42 velocity=0 time=12
note_on channel=3 note=42 velocity=121 time=12
note_on channel=3 note=42 velocity=0 time=15
note_on channel=3 note=42 velocity=76 time=9
note_on channel=3 note=42 velocity=0 time=11
note_on channel=3 note=42 velocity=92 time=13
note_on channel=3 note=42 velocity=0 time=10
note_on channel=3 note=42 velocity=72 time=14
note_on channel=3 note=42 velocity=0 time=9
note_on channel=3 note=42 velocity=121 time=15
note_on channel=3 note=42 velocity=0 time=15
note_on channel=3 note=42 velocity=71 time=9
note_on channel=3 note=42 velocity=0 time=10
note_on channel=3 note=42 velocity=87 time=14
note_on channel=3 note=42 velocity=0 time=11
note_on channel=3 note=42 velocity=68 time=13
note_on channel=3 note=42 velocity=0 time=8
note_on channel=3 note=42 velocity=115 time=16
note_on channel=3 note=42 velocity=0 time=11
note_on channel=3 note=42 velocity=70 time=13
note_on channel=3 note=42 velocity=0 time=10
note_on channel=3 note=42 velocity=89 time=14
note_on channel=3 note=42 velocity=0 time=12
note_on channel=3 note=42 velocity=70 time=12
note_on channel=3 note=42 velocity=0 time=10
note_on channel=3 note=42 velocity=115 time=14
note_on channel=3 note=42 velocity=0 time=13
note_on channel=3 note=42 velocity=75 time=11
note_on channel=3 note=42 velocity=0 time=12
note_on channel=3 note=42 velocity=92 time=12
note_on channel=3 note=42 velocity=0 time=10
note_on channel=3 note=42 velocity=74 time=14
note_on channel=3 note=42 velocity=0 time=11
note_on channel=3 note=42 velocity=115 time=13
note_on channel=3 note=42 velocity=0 time=13
note_on channel=3 note=42 velocity=74 time=11
note_on channel=3 note=42 velocity=0 time=11
note_on channel=3 note=42 velocity=86 time=13
note_on channel=3 note=42 velocity=0 time=8
note_on channel=3 note=42 velocity=66 time=16
note_on channel=3 note=42 velocity=0 time=10
note_on channel=3 note=42 velocity=115 time=14
note_on channel=3 note=42 velocity=0 time=13
note_on channel=3 note=42 velocity=72 time=11
note_on channel=3 note=42 velocity=0 time=10
note_on channel=3 note=42 velocity=86 time=14
note_on channel=3 note=42 velocity=0 time=9
note_on channel=3 note=42 velocity=68 time=15
note_on channel=3 note=42 velocity=0 time=10
note_on channel=3 note=42 velocity=115 time=14
note_on channel=3 note=42 velocity=0 time=12
note_on channel=3 note=42 velocity=70 time=12
note_on channel=3 note=42 velocity=0 time=7
note_on channel=3 note=42 velocity=92 time=17
note_on channel=3 note=42 velocity=0 time=10
note_on channel=3 note=42 velocity=74 time=14
note_on channel=3 note=42 velocity=0 time=10
note_on channel=3 note=42 velocity=115 time=14
note_on channel=3 note=42 velocity=0 time=12
note_on channel=3 note=42 velocity=66 time=12
note_on channel=3 note=42 velocity=0 time=11
note_on channel=3 note=42 velocity=92 time=13
note_on channel=3 note=42 velocity=0 time=11
note_on channel=3 note=42 velocity=72 time=13
note_on channel=3 note=42 velocity=0 time=10
note_on channel=3 note=42 velocity=115 time=14
note_on channel=3 note=42 velocity=0 time=14
note_on channel=3 note=42 velocity=58 time=10
note_on channel=3 note=42 velocity=0 time=9
note_on channel=3 note=42 velocity=92 time=15
note_on channel=3 note=42 velocity=0 time=10
note_on channel=3 note=42 velocity=66 time=14
note_on channel=3 note=42 velocity=0 time=10
note_on channel=3 note=42 velocity=115 time=14
note_on channel=3 note=42 velocity=0 time=14
note_on channel=3 note=42 velocity=68 time=10
note_on channel=3 note=42 velocity=0 time=11
note_on channel=3 note=42 velocity=98 time=13
note_on channel=3 note=42 velocity=0 time=11
note_on channel=3 note=42 velocity=66 time=13
note_on channel=3 note=42 velocity=0 time=11
note_on channel=3 note=42 velocity=115 time=13
note_on channel=3 note=42 velocity=0 time=16
note_on channel=3 note=42 velocity=64 time=8
note_on channel=3 note=42 velocity=0 time=9
note_on channel=3 note=42 velocity=80 time=15
note_on channel=3 note=42 velocity=0 time=12
note_on channel=3 note=42 velocity=66 time=12
note_on channel=3 note=42 velocity=0 time=10
note_on channel=3 note=42 velocity=121 time=14
note_on channel=3 note=42 velocity=0 time=16
note_on channel=3 note=42 velocity=77 time=8
note_on channel=3 note=42 velocity=0 time=12
note_on channel=3 note=42 velocity=83 time=12
note_on channel=3 note=42 velocity=0 time=12
note_on channel=3 note=42 velocity=64 time=12
note_on channel=3 note=42 velocity=0 time=9
note_on channel=3 note=42 velocity=115 time=15
note_on channel=3 note=42 velocity=0 time=15
note_on channel=3 note=42 velocity=75 time=9
note_on channel=3 note=42 velocity=0 time=12
note_on channel=3 note=42 velocity=92 time=12
note_on channel=3 note=42 velocity=0 time=11
note_on channel=3 note=42 velocity=74 time=13
note_on channel=3 note=42 velocity=0 time=12
note_on channel=3 note=42 velocity=115 time=12
note_on channel=3 note=42 velocity=0 time=14
note_on channel=3 note=42 velocity=70 time=10
note_on channel=3 note=42 velocity=0 time=10
note_on channel=3 note=42 velocity=87 time=14
note_on channel=3 note=42 velocity=0 time=12
note_on channel=3 note=42 velocity=74 time=12
note_on channel=3 note=42 velocity=0 time=10
note_on channel=3 note=42 velocity=109 time=14
note_on channel=3 note=42 velocity=0 time=10
note_on channel=3 note=42 velocity=72 time=14
note_on channel=3 note=42 velocity=0 time=12
note_on channel=3 note=42 velocity=83 time=12
note_on channel=3 note=42 velocity=0 time=8
note_on channel=3 note=42 velocity=78 time=16
note_on channel=3 note=42 velocity=0 time=12
note_on channel=3 note=42 velocity=121 time=1548
note_on channel=3 note=42 velocity=0 time=15
note_on channel=3 note=42 velocity=74 time=9
note_on channel=3 note=42 velocity=0 time=12
note_on channel=3 note=42 velocity=86 time=12
note_on channel=3 note=42 velocity=0 time=9
note_on channel=3 note=42 velocity=78 time=15
note_on channel=3 note=42 velocity=0 time=12
note_on channel=3 note=42 velocity=121 time=12
note_on channel=3 note=42 velocity=0 time=15
note_on channel=3 note=42 velocity=76 time=9
note_on channel=3 note=42 velocity=0 time=11
note_on channel=3 note=42 velocity=92 time=13
note_on channel=3 note=42 velocity=0 time=10
note_on channel=3 note=42 velocity=72 time=14
note_on channel=3 note=42 velocity=0 time=9
note_on channel=3 note=42 velocity=121 time=15
note_on channel=3 note=42 velocity=0 time=15
note_on channel=3 note=42 velocity=71 time=9
note_on channel=3 note=42 velocity=0 time=10
note_on channel=3 note=42 velocity=87 time=14
note_on channel=3 note=42 velocity=0 time=11
note_on channel=3 note=42 velocity=68 time=13
note_on channel=3 note=42 velocity=0 time=8
note_on channel=3 note=42 velocity=115 time=16
note_on channel=3 note=42 velocity=0 time=11
note_on channel=3 note=42 velocity=70 time=13
note_on channel=3 note=42 velocity=0 time=10
note_on channel=3 note=42 velocity=89 time=14
note_on channel=3 note=42 velocity=0 time=12
note_on channel=3 note=42 velocity=70 time=12
note_on channel=3 note=42 velocity=0 time=10
note_on channel=3 note=42 velocity=115 time=14
note_on channel=3 note=42 velocity=0 time=13
note_on channel=3 note=42 velocity=75 time=11
note_on channel=3 note=42 velocity=0 time=12
note_on channel=3 note=42 velocity=92 time=12
note_on channel=3 note=42 velocity=0 time=10
note_on channel=3 note=42 velocity=74 time=14
note_on channel=3 note=42 velocity=0 time=11
note_on channel=3 note=42 velocity=115 time=13
note_on channel=3 note=42 velocity=0 time=13
note_on channel=3 note=42 velocity=74 time=11
note_on channel=3 note=42 velocity=0 time=11
note_on channel=3 note=42 velocity=86 time=13
note_on channel=3 note=42 velocity=0 time=8
note_on channel=3 note=42 velocity=66 time=16
note_on channel=3 note=42 velocity=0 time=10
note_on channel=3 note=42 velocity=115 time=14
note_on channel=3 note=42 velocity=0 time=13
note_on channel=3 note=42 velocity=72 time=11
note_on channel=3 note=42 velocity=0 time=10
note_on channel=3 note=42 velocity=86 time=14
note_on channel=3 note=42 velocity=0 time=9
note_on channel=3 note=42 velocity=68 time=15
note_on channel=3 note=42 velocity=0 time=10
note_on channel=3 note=42 velocity=115 time=14
note_on channel=3 note=42 velocity=0 time=12
note_on channel=3 note=42 velocity=70 time=12
note_on channel=3 note=42 velocity=0 time=7
note_on channel=3 note=42 velocity=92 time=17
note_on channel=3 note=42 velocity=0 time=10
note_on channel=3 note=42 velocity=74 time=14
note_on channel=3 note=42 velocity=0 time=10
note_on channel=3 note=42 velocity=115 time=14
note_on channel=3 note=42 velocity=0 time=12
note_on channel=3 note=42 velocity=66 time=12
note_on channel=3 note=42 velocity=0 time=11
note_on channel=3 note=42 velocity=92 time=13
note_on channel=3 note=42 velocity=0 time=11
note_on channel=3 note=42 velocity=72 time=13
note_on channel=3 note=42 velocity=0 time=10
note_on channel=3 note=42 velocity=115 time=14
note_on channel=3 note=42 velocity=0 time=14
note_on channel=3 note=42 velocity=58 time=10
note_on channel=3 note=42 velocity=0 time=9
note_on channel=3 note=42 velocity=92 time=15
note_on channel=3 note=42 velocity=0 time=10
note_on channel=3 note=42 velocity=66 time=14
note_on channel=3 note=42 velocity=0 time=10
note_on channel=3 note=42 velocity=115 time=14
note_on channel=3 note=42 velocity=0 time=14
note_on channel=3 note=42 velocity=68 time=10
note_on channel=3 note=42 velocity=0 time=11
note_on channel=3 note=42 velocity=98 time=13
note_on channel=3 note=42 velocity=0 time=11
note_on channel=3 note=42 velocity=66 time=13
note_on channel=3 note=42 velocity=0 time=11
note_on channel=3 note=42 velocity=115 time=13
note_on channel=3 note=42 velocity=0 time=16
note_on channel=3 note=42 velocity=64 time=8
note_on channel=3 note=42 velocity=0 time=9
note_on channel=3 note=42 velocity=80 time=15
note_on channel=3 note=42 velocity=0 time=12
note_on channel=3 note=42 velocity=66 time=12
note_on channel=3 note=42 velocity=0 time=10
note_on channel=3 note=42 velocity=121 time=14
note_on channel=3 note=42 velocity=0 time=16
note_on channel=3 note=42 velocity=77 time=8
note_on channel=3 note=42 velocity=0 time=12
note_on channel=3 note=42 velocity=83 time=12
note_on channel=3 note=42 velocity=0 time=12
note_on channel=3 note=42 velocity=64 time=12
note_on channel=3 note=42 velocity=0 time=9
note_on channel=3 note=42 velocity=115 time=15
note_on channel=3 note=42 velocity=0 time=15
note_on channel=3 note=42 velocity=75 time=9
note_on channel=3 note=42 velocity=0 time=12
note_on channel=3 note=42 velocity=92 time=12
note_on channel=3 note=42 velocity=0 time=11
note_on channel=3 note=42 velocity=74 time=13
note_on channel=3 note=42 velocity=0 time=12
note_on channel=3 note=42 velocity=115 time=12
note_on channel=3 note=42 velocity=0 time=14
note_on channel=3 note=42 velocity=70 time=10
note_on channel=3 note=42 velocity=0 time=10
note_on channel=3 note=42 velocity=87 time=14
note_on channel=3 note=42 velocity=0 time=12
note_on channel=3 note=42 velocity=74 time=12
note_on channel=3 note=42 velocity=0 time=10
note_on channel=3 note=42 velocity=109 time=14
note_on channel=3 note=42 velocity=0 time=10
note_on channel=3 note=42 velocity=72 time=14
note_on channel=3 note=42 velocity=0 time=12
note_on channel=3 note=42 velocity=83 time=12
note_on channel=3 note=42 velocity=0 time=8
note_on channel=3 note=42 velocity=78 time=16
note_on channel=3 note=42 velocity=0 time=12
note_on channel=3 note=42 velocity=121 time=3468
note_on channel=3 note=42 velocity=0 time=15
note_on channel=3 note=42 velocity=74 time=9
note_on channel=3 note=42 velocity=0 time=12
note_on channel=3 note=42 velocity=86 time=12
note_on channel=3 note=42 velocity=0 time=9
note_on channel=3 note=42 velocity=78 time=15
note_on channel=3 note=42 velocity=0 time=12
note_on channel=3 note=42 velocity=121 time=12
note_on channel=3 note=42 velocity=0 time=15
note_on channel=3 note=42 velocity=76 time=9
note_on channel=3 note=42 velocity=0 time=11
note_on channel=3 note=42 velocity=92 time=13
note_on channel=3 note=42 velocity=0 time=10
note_on channel=3 note=42 velocity=72 time=14
note_on channel=3 note=42 velocity=0 time=9
note_on channel=3 note=42 velocity=121 time=15
note_on channel=3 note=42 velocity=0 time=15
note_on channel=3 note=42 velocity=71 time=9
note_on channel=3 note=42 velocity=0 time=10
note_on channel=3 note=42 velocity=87 time=14
note_on channel=3 note=42 velocity=0 time=11
note_on channel=3 note=42 velocity=68 time=13
note_on channel=3 note=42 velocity=0 time=8
note_on channel=3 note=42 velocity=115 time=16
note_on channel=3 note=42 velocity=0 time=11
note_on channel=3 note=42 velocity=70 time=13
note_on channel=3 note=42 velocity=0 time=10
note_on channel=3 note=42 velocity=89 time=14
note_on channel=3 note=42 velocity=0 time=12
note_on channel=3 note=42 velocity=70 time=12
note_on channel=3 note=42 velocity=0 time=10
note_on channel=3 note=42 velocity=115 time=14
note_on channel=3 note=42 velocity=0 time=13
note_on channel=3 note=42 velocity=75 time=11
note_on channel=3 note=42 velocity=0 time=12
note_on channel=3 note=42 velocity=92 time=12
note_on channel=3 note=42 velocity=0 time=10
note_on channel=3 note=42 velocity=74 time=14
note_on channel=3 note=42 velocity=0 time=11
note_on channel=3 note=42 velocity=115 time=13
note_on channel=3 note=42 velocity=0 time=13
note_on channel=3 note=42 velocity=74 time=11
note_on channel=3 note=42 velocity=0 time=11
note_on channel=3 note=42 velocity=86 time=13
note_on channel=3 note=42 velocity=0 time=8
note_on channel=3 note=42 velocity=66 time=16
note_on channel=3 note=42 velocity=0 time=10
note_on channel=3 note=42 velocity=115 time=14
note_on channel=3 note=42 velocity=0 time=13
note_on channel=3 note=42 velocity=72 time=11
note_on channel=3 note=42 velocity=0 time=10
note_on channel=3 note=42 velocity=86 time=14
note_on channel=3 note=42 velocity=0 time=9
note_on channel=3 note=42 velocity=68 time=15
note_on channel=3 note=42 velocity=0 time=10
note_on channel=3 note=42 velocity=115 time=14
note_on channel=3 note=42 velocity=0 time=12
note_on channel=3 note=42 velocity=70 time=12
note_on channel=3 note=42 velocity=0 time=7
note_on channel=3 note=42 velocity=92 time=17
note_on channel=3 note=42 velocity=0 time=10
note_on channel=3 note=42 velocity=74 time=14
note_on channel=3 note=42 velocity=0 time=10
note_on channel=3 note=42 velocity=115 time=14
note_on channel=3 note=42 velocity=0 time=12
note_on channel=3 note=42 velocity=66 time=12
note_on channel=3 note=42 velocity=0 time=11
note_on channel=3 note=42 velocity=92 time=13
note_on channel=3 note=42 velocity=0 time=11
note_on channel=3 note=42 velocity=72 time=13
note_on channel=3 note=42 velocity=0 time=10
note_on channel=3 note=42 velocity=115 time=14
note_on channel=3 note=42 velocity=0 time=14
note_on channel=3 note=42 velocity=58 time=10
note_on channel=3 note=42 velocity=0 time=9
note_on channel=3 note=42 velocity=92 time=15
note_on channel=3 note=42 velocity=0 time=10
note_on channel=3 note=42 velocity=66 time=14
note_on channel=3 note=42 velocity=0 time=10
note_on channel=3 note=42 velocity=115 time=14
note_on channel=3 note=42 velocity=0 time=14
note_on channel=3 note=42 velocity=68 time=10
note_on channel=3 note=42 velocity=0 time=11
note_on channel=3 note=42 velocity=98 time=13
note_on channel=3 note=42 velocity=0 time=11
note_on channel=3 note=42 velocity=66 time=13
note_on channel=3 note=42 velocity=0 time=11
note_on channel=3 note=42 velocity=115 time=13
note_on channel=3 note=42 velocity=0 time=16
note_on channel=3 note=42 velocity=64 time=8
note_on channel=3 note=42 velocity=0 time=9
note_on channel=3 note=42 velocity=80 time=15
note_on channel=3 note=42 velocity=0 time=12
note_on channel=3 note=42 velocity=66 time=12
note_on channel=3 note=42 velocity=0 time=10
note_on channel=3 note=42 velocity=121 time=14
note_on channel=3 note=42 velocity=0 time=16
note_on channel=3 note=42 velocity=77 time=8
note_on channel=3 note=42 velocity=0 time=12
note_on channel=3 note=42 velocity=83 time=12
note_on channel=3 note=42 velocity=0 time=12
note_on channel=3 note=42 velocity=64 time=12
note_on channel=3 note=42 velocity=0 time=9
note_on channel=3 note=42 velocity=115 time=15
note_on channel=3 note=42 velocity=0 time=15
note_on channel=3 note=42 velocity=75 time=9
note_on channel=3 note=42 velocity=0 time=12
note_on channel=3 note=42 velocity=92 time=12
note_on channel=3 note=42 velocity=0 time=11
note_on channel=3 note=42 velocity=74 time=13
note_on channel=3 note=42 velocity=0 time=12
note_on channel=3 note=42 velocity=115 time=12
note_on channel=3 note=42 velocity=0 time=14
note_on channel=3 note=42 velocity=70 time=10
note_on channel=3 note=42 velocity=0 time=10
note_on channel=3 note=42 velocity=87 time=14
note_on channel=3 note=42 velocity=0 time=12
note_on channel=3 note=42 velocity=74 time=12
note_on channel=3 note=42 velocity=0 time=10
note_on channel=3 note=42 velocity=109 time=14
note_on channel=3 note=42 velocity=0 time=10
note_on channel=3 note=42 velocity=72 time=14
note_on channel=3 note=42 velocity=0 time=12
note_on channel=3 note=42 velocity=83 time=12
note_on channel=3 note=42 velocity=0 time=8
note_on channel=3 note=42 velocity=78 time=16
note_on channel=3 note=42 velocity=0 time=12
note_on channel=3 note=42 velocity=121 time=12
note_on channel=3 note=42 velocity=0 time=15
note_on channel=3 note=42 velocity=74 time=9
note_on channel=3 note=42 velocity=0 time=12
note_on channel=3 note=42 velocity=86 time=12
note_on channel=3 note=42 velocity=0 time=9
note_on channel=3 note=42 velocity=78 time=15
note_on channel=3 note=42 velocity=0 time=12
note_on channel=3 note=42 velocity=121 time=12
note_on channel=3 note=42 velocity=0 time=15
note_on channel=3 note=42 velocity=76 time=9
note_on channel=3 note=42 velocity=0 time=11
note_on channel=3 note=42 velocity=92 time=13
note_on channel=3 note=42 velocity=0 time=10
note_on channel=3 note=42 velocity=72 time=14
note_on channel=3 note=42 velocity=0 time=9
note_on channel=3 note=42 velocity=121 time=15
note_on channel=3 note=42 velocity=0 time=15
note_on channel=3 note=42 velocity=71 time=9
note_on channel=3 note=42 velocity=0 time=10
note_on channel=3 note=42 velocity=87 time=14
note_on channel=3 note=42 velocity=0 time=11
note_on channel=3 note=42 velocity=68 time=13
note_on channel=3 note=42 velocity=0 time=8
note_on channel=3 note=42 velocity=115 time=16
note_on channel=3 note=42 velocity=0 time=11
note_on channel=3 note=42 velocity=70 time=13
note_on channel=3 note=42 velocity=0 time=10
note_on channel=3 note=42 velocity=89 time=14
note_on channel=3 note=42 velocity=0 time=12
note_on channel=3 note=42 velocity=70 time=12
note_on channel=3 note=42 velocity=0 time=10
note_on channel=3 note=42 velocity=115 time=14
note_on channel=3 note=42 velocity=0 time=13
note_on channel=3 note=42 velocity=75 time=11
note_on channel=3 note=42 velocity=0 time=12
note_on channel=3 note=42 velocity=92 time=12
note_on channel=3 note=42 velocity=0 time=10
note_on channel=3 note=42 velocity=74 time=14
note_on channel=3 note=42 velocity=0 time=11
note_on channel=3 note=42 velocity=115 time=13
note_on channel=3 note=42 velocity=0 time=13
note_on channel=3 note=42 velocity=74 time=11
note_on channel=3 note=42 velocity=0 time=11
note_on channel=3 note=42 velocity=86 time=13
note_on channel=3 note=42 velocity=0 time=8
note_on channel=3 note=42 velocity=66 time=16
note_on channel=3 note=42 velocity=0 time=10
note_on channel=3 note=42 velocity=115 time=14
note_on channel=3 note=42 velocity=0 time=13
note_on channel=3 note=42 velocity=72 time=11
note_on channel=3 note=42 velocity=0 time=10
note_on channel=3 note=42 velocity=86 time=14
note_on channel=3 note=42 velocity=0 time=9
note_on channel=3 note=42 velocity=68 time=15
note_on channel=3 note=42 velocity=0 time=10
note_on channel=3 note=42 velocity=115 time=14
note_on channel=3 note=42 velocity=0 time=12
note_on channel=3 note=42 velocity=70 time=12
note_on channel=3 note=42 velocity=0 time=7
note_on channel=3 note=42 velocity=92 time=17
note_on channel=3 note=42 velocity=0 time=10
note_on channel=3 note=42 velocity=74 time=14
note_on channel=3 note=42 velocity=0 time=10
note_on channel=3 note=42 velocity=115 time=14
note_on channel=3 note=42 velocity=0 time=12
note_on channel=3 note=42 velocity=66 time=12
note_on channel=3 note=42 velocity=0 time=11
note_on channel=3 note=42 velocity=92 time=13
note_on channel=3 note=42 velocity=0 time=11
note_on channel=3 note=42 velocity=72 time=13
note_on channel=3 note=42 velocity=0 time=10
note_on channel=3 note=42 velocity=115 time=14
note_on channel=3 note=42 velocity=0 time=14
note_on channel=3 note=42 velocity=58 time=10
note_on channel=3 note=42 velocity=0 time=9
note_on channel=3 note=42 velocity=92 time=15
note_on channel=3 note=42 velocity=0 time=10
note_on channel=3 note=42 velocity=66 time=14
note_on channel=3 note=42 velocity=0 time=10
note_on channel=3 note=42 velocity=115 time=14
note_on channel=3 note=42 velocity=0 time=14
note_on channel=3 note=42 velocity=68 time=10
note_on channel=3 note=42 velocity=0 time=11
note_on channel=3 note=42 velocity=98 time=13
note_on channel=3 note=42 velocity=0 time=11
note_on channel=3 note=42 velocity=66 time=13
note_on channel=3 note=42 velocity=0 time=11
note_on channel=3 note=42 velocity=115 time=13
note_on channel=3 note=42 velocity=0 time=16
note_on channel=3 note=42 velocity=64 time=8
note_on channel=3 note=42 velocity=0 time=9
note_on channel=3 note=42 velocity=80 time=15
note_on channel=3 note=42 velocity=0 time=12
note_on channel=3 note=42 velocity=66 time=12
note_on channel=3 note=42 velocity=0 time=10
note_on channel=3 note=42 velocity=121 time=14
note_on channel=3 note=42 velocity=0 time=16
note_on channel=3 note=42 velocity=77 time=8
note_on channel=3 note=42 velocity=0 time=12
note_on channel=3 note=42 velocity=83 time=12
note_on channel=3 note=42 velocity=0 time=12
note_on channel=3 note=42 velocity=64 time=12
note_on channel=3 note=42 velocity=0 time=9
note_on channel=3 note=42 velocity=115 time=15
note_on channel=3 note=42 velocity=0 time=15
note_on channel=3 note=42 velocity=75 time=9
note_on channel=3 note=42 velocity=0 time=12
note_on channel=3 note=42 velocity=92 time=12
note_on channel=3 note=42 velocity=0 time=11
note_on channel=3 note=42 velocity=74 time=13
note_on channel=3 note=42 velocity=0 time=12
note_on channel=3 note=42 velocity=115 time=12
note_on channel=3 note=42 velocity=0 time=14
note_on channel=3 note=42 velocity=70 time=10
note_on channel=3 note=42 velocity=0 time=10
note_on channel=3 note=42 velocity=87 time=14
note_on channel=3 note=42 velocity=0 time=12
note_on channel=3 note=42 velocity=74 time=12
note_on channel=3 note=42 velocity=0 time=10
note_on channel=3 note=42 velocity=109 time=14
note_on channel=3 note=42 velocity=0 time=10
note_on channel=3 note=42 velocity=72 time=14
note_on channel=3 note=42 velocity=0 time=12
note_on channel=3 note=42 velocity=83 time=12
note_on channel=3 note=42 velocity=0 time=8
note_on channel=3 note=42 velocity=78 time=16
note_on channel=3 note=42 velocity=0 time=12
note_on channel=3 note=42 velocity=115 time=12
note_on channel=3 note=42 velocity=0 time=12
note_on channel=3 note=42 velocity=66 time=12
note_on channel=3 note=42 velocity=0 time=11
note_on channel=3 note=42 velocity=92 time=13
note_on channel=3 note=42 velocity=0 time=11
note_on channel=3 note=42 velocity=72 time=13
note_on channel=3 note=42 velocity=0 time=10
note_on channel=3 note=42 velocity=115 time=14
note_on channel=3 note=42 velocity=0 time=14
note_on channel=3 note=42 velocity=58 time=10
note_on channel=3 note=42 velocity=0 time=9
note_on channel=3 note=42 velocity=92 time=15
note_on channel=3 note=42 velocity=0 time=10
note_on channel=3 note=42 velocity=66 time=14
note_on channel=3 note=42 velocity=0 time=10
note_on channel=3 note=42 velocity=115 time=14
note_on channel=3 note=42 velocity=0 time=14
note_on channel=3 note=42 velocity=68 time=10
note_on channel=3 note=42 velocity=0 time=11
note_on channel=3 note=42 velocity=98 time=13
note_on channel=3 note=42 velocity=0 time=11
note_on channel=3 note=42 velocity=66 time=13
note_on channel=3 note=42 velocity=0 time=11
note_on channel=3 note=42 velocity=115 time=13
note_on channel=3 note=42 velocity=0 time=16
note_on channel=3 note=42 velocity=64 time=8
note_on channel=3 note=42 velocity=0 time=9
note_on channel=3 note=42 velocity=80 time=15
note_on channel=3 note=42 velocity=0 time=12
note_on channel=3 note=42 velocity=66 time=12
note_on channel=3 note=42 velocity=0 time=10
note_on channel=3 note=42 velocity=121 time=14
note_on channel=3 note=42 velocity=0 time=16
note_on channel=3 note=42 velocity=77 time=8
note_on channel=3 note=42 velocity=0 time=12
note_on channel=3 note=42 velocity=83 time=12
note_on channel=3 note=42 velocity=0 time=12
note_on channel=3 note=42 velocity=64 time=12
note_on channel=3 note=42 velocity=0 time=9
note_on channel=3 note=42 velocity=115 time=15
note_on channel=3 note=42 velocity=0 time=15
note_on channel=3 note=42 velocity=75 time=9
note_on channel=3 note=42 velocity=0 time=12
note_on channel=3 note=42 velocity=92 time=12
note_on channel=3 note=42 velocity=0 time=11
note_on channel=3 note=42 velocity=74 time=13
note_on channel=3 note=42 velocity=0 time=12
note_on channel=3 note=42 velocity=115 time=12
note_on channel=3 note=42 velocity=0 time=14
note_on channel=3 note=42 velocity=70 time=10
note_on channel=3 note=42 velocity=0 time=10
note_on channel=3 note=42 velocity=87 time=14
note_on channel=3 note=42 velocity=0 time=12
note_on channel=3 note=42 velocity=74 time=12
note_on channel=3 note=42 velocity=0 time=10
note_on channel=3 note=42 velocity=109 time=14
note_on channel=3 note=42 velocity=0 time=10
note_on channel=3 note=42 velocity=72 time=14
note_on channel=3 note=42 velocity=0 time=12
note_on channel=3 note=42 velocity=83 time=12
note_on channel=3 note=42 velocity=0 time=8
note_on channel=3 note=42 velocity=78 time=16
note_on channel=3 note=42 velocity=0 time=12
note_on channel=3 note=42 velocity=121 time=12
note_on channel=3 note=42 velocity=0 time=15
note_on channel=3 note=42 velocity=74 time=9
note_on channel=3 note=42 velocity=0 time=12
note_on channel=3 note=42 velocity=86 time=12
note_on channel=3 note=42 velocity=0 time=9
note_on channel=3 note=42 velocity=78 time=15
note_on channel=3 note=42 velocity=0 time=12
note_on channel=3 note=42 velocity=121 time=12
note_on channel=3 note=42 velocity=0 time=15
note_on channel=3 note=42 velocity=76 time=9
note_on channel=3 note=42 velocity=0 time=11
note_on channel=3 note=42 velocity=92 time=13
note_on channel=3 note=42 velocity=0 time=10
note_on channel=3 note=42 velocity=72 time=14
note_on channel=3 note=42 velocity=0 time=9
note_on channel=3 note=42 velocity=121 time=15
note_on channel=3 note=42 velocity=0 time=15
note_on channel=3 note=42 velocity=71 time=9
note_on channel=3 note=42 velocity=0 time=10
note_on channel=3 note=42 velocity=87 time=14
note_on channel=3 note=42 velocity=0 time=11
note_on channel=3 note=42 velocity=68 time=13
note_on channel=3 note=42 velocity=0 time=8
note_on channel=3 note=42 velocity=115 time=16
note_on channel=3 note=42 velocity=0 time=11
note_on channel=3 note=42 velocity=70 time=13
note_on channel=3 note=42 velocity=0 time=10
note_on channel=3 note=42 velocity=89 time=14
note_on channel=3 note=42 velocity=0 time=12
note_on channel=3 note=42 velocity=70 time=12
note_on channel=3 note=42 velocity=0 time=10
note_on channel=3 note=42 velocity=115 time=14
note_on channel=3 note=42 velocity=0 time=13
note_on channel=3 note=42 velocity=75 time=11
note_on channel=3 note=42 velocity=0 time=12
note_on channel=3 note=42 velocity=92 time=12
note_on channel=3 note=42 velocity=0 time=10
note_on channel=3 note=42 velocity=74 time=14
note_on channel=3 note=42 velocity=0 time=11
note_on channel=3 note=42 velocity=115 time=13
note_on channel=3 note=42 velocity=0 time=13
note_on channel=3 note=42 velocity=74 time=11
note_on channel=3 note=42 velocity=0 time=11
note_on channel=3 note=42 velocity=86 time=13
note_on channel=3 note=42 velocity=0 time=8
note_on channel=3 note=42 velocity=66 time=16
note_on channel=3 note=42 velocity=0 time=10
note_on channel=3 note=42 velocity=115 time=14
note_on channel=3 note=42 velocity=0 time=13
note_on channel=3 note=42 velocity=72 time=11
note_on channel=3 note=42 velocity=0 time=10
note_on channel=3 note=42 velocity=86 time=14
note_on channel=3 note=42 velocity=0 time=9
note_on channel=3 note=42 velocity=68 time=15
note_on channel=3 note=42 velocity=0 time=10
note_on channel=3 note=42 velocity=115 time=14
note_on channel=3 note=42 velocity=0 time=12
note_on channel=3 note=42 velocity=70 time=12
note_on channel=3 note=42 velocity=0 time=7
note_on channel=3 note=42 velocity=92 time=17
note_on channel=3 note=42 velocity=0 time=10
note_on channel=3 note=42 velocity=74 time=14
note_on channel=3 note=42 velocity=0 time=10
note_on channel=3 note=42 velocity=115 time=14
note_on channel=3 note=42 velocity=0 time=12
note_on channel=3 note=42 velocity=66 time=12
note_on channel=3 note=42 velocity=0 time=11
note_on channel=3 note=42 velocity=92 time=13
note_on channel=3 note=42 velocity=0 time=11
note_on channel=3 note=42 velocity=72 time=13
note_on channel=3 note=42 velocity=0 time=10
note_on channel=3 note=42 velocity=115 time=14
note_on channel=3 note=42 velocity=0 time=14
note_on channel=3 note=42 velocity=58 time=10
note_on channel=3 note=42 velocity=0 time=9
note_on channel=3 note=42 velocity=92 time=15
note_on channel=3 note=42 velocity=0 time=10
note_on channel=3 note=42 velocity=66 time=14
note_on channel=3 note=42 velocity=0 time=10
note_on channel=3 note=42 velocity=115 time=14
note_on channel=3 note=42 velocity=0 time=14
note_on channel=3 note=42 velocity=68 time=10
note_on channel=3 note=42 velocity=0 time=11
note_on channel=3 note=42 velocity=98 time=13
note_on channel=3 note=42 velocity=0 time=11
note_on channel=3 note=42 velocity=66 time=13
note_on channel=3 note=42 velocity=0 time=11
note_on channel=3 note=42 velocity=115 time=13
note_on channel=3 note=42 velocity=0 time=16
note_on channel=3 note=42 velocity=64 time=8
note_on channel=3 note=42 velocity=0 time=9
note_on channel=3 note=42 velocity=80 time=15
note_on channel=3 note=42 velocity=0 time=12
note_on channel=3 note=42 velocity=66 time=12
note_on channel=3 note=42 velocity=0 time=10
note_on channel=3 note=42 velocity=121 time=14
note_on channel=3 note=42 velocity=0 time=16
note_on channel=3 note=42 velocity=77 time=8
note_on channel=3 note=42 velocity=0 time=12
note_on channel=3 note=42 velocity=83 time=12
note_on channel=3 note=42 velocity=0 time=12
note_on channel=3 note=42 velocity=64 time=12
note_on channel=3 note=42 velocity=0 time=9
note_on channel=3 note=42 velocity=115 time=15
note_on channel=3 note=42 velocity=0 time=15
note_on channel=3 note=42 velocity=75 time=9
note_on channel=3 note=42 velocity=0 time=12
note_on channel=3 note=42 velocity=92 time=12
note_on channel=3 note=42 velocity=0 time=11
note_on channel=3 note=42 velocity=74 time=13
note_on channel=3 note=42 velocity=0 time=12
note_on channel=3 note=42 velocity=115 time=12
note_on channel=3 note=42 velocity=0 time=14
note_on channel=3 note=42 velocity=70 time=10
note_on channel=3 note=42 velocity=0 time=10
note_on channel=3 note=42 velocity=87 time=14
note_on channel=3 note=42 velocity=0 time=12
note_on channel=3 note=42 velocity=74 time=12
note_on channel=3 note=42 velocity=0 time=10
note_on channel=3 note=42 velocity=109 time=14
note_on channel=3 note=42 velocity=0 time=10
note_on channel=3 note=42 velocity=72 time=14
note_on channel=3 note=42 velocity=0 time=12
note_on channel=3 note=42 velocity=83 time=12
note_on channel=3 note=42 velocity=0 time=8
note_on channel=3 note=42 velocity=78 time=16
note_on channel=3 note=42 velocity=0 time=12
note_on channel=3 note=42 velocity=115 time=12
note_on channel=3 note=42 velocity=0 time=12
note_on channel=3 note=42 velocity=66 time=12
note_on channel=3 note=42 velocity=0 time=11
note_on channel=3 note=42 velocity=92 time=13
note_on channel=3 note=42 velocity=0 time=11
note_on channel=3 note=42 velocity=72 time=13
note_on channel=3 note=42 velocity=0 time=10
note_on channel=3 note=42 velocity=115 time=14
note_on channel=3 note=42 velocity=0 time=14
note_on channel=3 note=42 velocity=58 time=10
note_on channel=3 note=42 velocity=0 time=9
note_on channel=3 note=42 velocity=92 time=15
note_on channel=3 note=42 velocity=0 time=10
note_on channel=3 note=42 velocity=66 time=14
note_on channel=3 note=42 velocity=0 time=10
note_on channel=3 note=42 velocity=115 time=14
note_on channel=3 note=42 velocity=0 time=14
note_on channel=3 note=42 velocity=68 time=10
note_on channel=3 note=42 velocity=0 time=11
note_on channel=3 note=42 velocity=98 time=13
note_on channel=3 note=42 velocity=0 time=11
note_on channel=3 note=42 velocity=66 time=13
note_on channel=3 note=42 velocity=0 time=11
note_on channel=3 note=42 velocity=115 time=13
note_on channel=3 note=42 velocity=0 time=16
note_on channel=3 note=42 velocity=64 time=8
note_on channel=3 note=42 velocity=0 time=9
note_on channel=3 note=42 velocity=80 time=15
note_on channel=3 note=42 velocity=0 time=12
note_on channel=3 note=42 velocity=66 time=12
note_on channel=3 note=42 velocity=0 time=10
note_on channel=3 note=42 velocity=121 time=14
note_on channel=3 note=42 velocity=0 time=16
note_on channel=3 note=42 velocity=77 time=8
note_on channel=3 note=42 velocity=0 time=12
note_on channel=3 note=42 velocity=83 time=12
note_on channel=3 note=42 velocity=0 time=12
note_on channel=3 note=42 velocity=64 time=12
note_on channel=3 note=42 velocity=0 time=9
note_on channel=3 note=42 velocity=115 time=15
note_on channel=3 note=42 velocity=0 time=15
note_on channel=3 note=42 velocity=75 time=9
note_on channel=3 note=42 velocity=0 time=12
note_on channel=3 note=42 velocity=92 time=12
note_on channel=3 note=42 velocity=0 time=11
note_on channel=3 note=42 velocity=74 time=13
note_on channel=3 note=42 velocity=0 time=12
note_on channel=3 note=42 velocity=115 time=12
note_on channel=3 note=42 velocity=0 time=14
note_on channel=3 note=42 velocity=70 time=10
note_on channel=3 note=42 velocity=0 time=10
note_on channel=3 note=42 velocity=87 time=14
note_on channel=3 note=42 velocity=0 time=12
note_on channel=3 note=42 velocity=74 time=12
note_on channel=3 note=42 velocity=0 time=10
note_on channel=3 note=42 velocity=109 time=14
note_on channel=3 note=42 velocity=0 time=10
note_on channel=3 note=42 velocity=72 time=14
note_on channel=3 note=42 velocity=0 time=12
note_on channel=3 note=42 velocity=83 time=12
note_on channel=3 note=42 velocity=0 time=8
note_on channel=3 note=42 velocity=78 time=16
note_on channel=3 note=42 velocity=0 time=12
note_on channel=3 note=42 velocity=121 time=12
note_on channel=3 note=42 velocity=0 time=15
note_on channel=3 note=42 velocity=74 time=9
note_on channel=3 note=42 velocity=0 time=12
note_on channel=3 note=42 velocity=86 time=12
note_on channel=3 note=42 velocity=0 time=9
note_on channel=3 note=42 velocity=78 time=15
note_on channel=3 note=42 velocity=0 time=12
control_change channel=3 control=7 value=114 time=12
note_on channel=3 note=42 velocity=121 time=0
note_on channel=3 note=42 velocity=0 time=15
control_change channel=3 control=7 value=114 time=9
note_on channel=3 note=42 velocity=76 time=0
note_on channel=3 note=42 velocity=0 time=11
control_change channel=3 control=7 value=112 time=13
note_on channel=3 note=42 velocity=92 time=0
note_on channel=3 note=42 velocity=0 time=10
control_change channel=3 control=7 value=111 time=14
note_on channel=3 note=42 velocity=72 time=0
note_on channel=3 note=42 velocity=0 time=9
control_change channel=3 control=7 value=111 time=15
note_on channel=3 note=42 velocity=121 time=0
note_on channel=3 note=42 velocity=0 time=15
control_change channel=3 control=7 value=109 time=9
note_on channel=3 note=42 velocity=71 time=0
note_on channel=3 note=42 velocity=0 time=10
control_change channel=3 control=7 value=107 time=14
note_on channel=3 note=42 velocity=87 time=0
note_on channel=3 note=42 velocity=0 time=11
control_change channel=3 control=7 value=107 time=13
note_on channel=3 note=42 velocity=68 time=0
note_on channel=3 note=42 velocity=0 time=8
control_change channel=3 control=7 value=106 time=16
note_on channel=3 note=42 velocity=115 time=0
note_on channel=3 note=42 velocity=0 time=11
control_change channel=3 control=7 value=107 time=13
note_on channel=3 note=42 velocity=70 time=0
note_on channel=3 note=42 velocity=0 time=10
control_change channel=3 control=7 value=104 time=14
note_on channel=3 note=42 velocity=89 time=0
note_on channel=3 note=42 velocity=0 time=12
control_change channel=3 control=7 value=104 time=12
note_on channel=3 note=42 velocity=70 time=0
note_on channel=3 note=42 velocity=0 time=10
control_change channel=3 control=7 value=102 time=14
note_on channel=3 note=42 velocity=115 time=0
note_on channel=3 note=42 velocity=0 time=13
control_change channel=3 control=7 value=104 time=11
note_on channel=3 note=42 velocity=75 time=0
note_on channel=3 note=42 velocity=0 time=12
control_change channel=3 control=7 value=101 time=12
note_on channel=3 note=42 velocity=92 time=0
note_on channel=3 note=42 velocity=0 time=10
control_change channel=3 control=7 value=102 time=14
note_on channel=3 note=42 velocity=74 time=0
note_on channel=3 note=42 velocity=0 time=11
control_change channel=3 control=7 value=99 time=13
note_on channel=3 note=42 velocity=115 time=0
note_on channel=3 note=42 velocity=0 time=13
control_change channel=3 control=7 value=101 time=11
note_on channel=3 note=42 velocity=74 time=0
note_on channel=3 note=42 velocity=0 time=11
control_change channel=3 control=7 value=97 time=13
note_on channel=3 note=42 velocity=86 time=0
note_on channel=3 note=42 velocity=0 time=8
control_change channel=3 control=7 value=99 time=16
note_on channel=3 note=42 velocity=66 time=0
note_on channel=3 note=42 velocity=0 time=10
control_change channel=3 control=7 value=95 time=14
note_on channel=3 note=42 velocity=115 time=0
note_on channel=3 note=42 velocity=0 time=13
control_change channel=3 control=7 value=97 time=11
note_on channel=3 note=42 velocity=72 time=0
note_on channel=3 note=42 velocity=0 time=10
control_change channel=3 control=7 value=95 time=14
note_on channel=3 note=42 velocity=86 time=0
note_on channel=3 note=42 velocity=0 time=9
control_change channel=3 control=7 value=95 time=15
note_on channel=3 note=42 velocity=68 time=0
note_on channel=3 note=42 velocity=0 time=10
control_change channel=3 control=7 value=94 time=14
note_on channel=3 note=42 velocity=115 time=0
note_on channel=3 note=42 velocity=0 time=12
control_change channel=3 control=7 value=94 time=12
note_on channel=3 note=42 velocity=70 time=0
note_on channel=3 note=42 velocity=0 time=7
control_change channel=3 control=7 value=92 time=17
note_on channel=3 note=42 velocity=92 time=0
note_on channel=3 note=42 velocity=0 time=10
control_change channel=3 control=7 value=90 time=14
note_on channel=3 note=42 velocity=74 time=0
note_on channel=3 note=42 velocity=0 time=10
control_change channel=3 control=7 value=90 time=14
note_on channel=3 note=42 velocity=115 time=0
note_on channel=3 note=42 velocity=0 time=12
control_change channel=3 control=7 value=90 time=12
note_on channel=3 note=42 velocity=66 time=0
note_on channel=3 note=42 velocity=0 time=11
control_change channel=3 control=7 value=89 time=13
note_on channel=3 note=42 velocity=92 time=0
note_on channel=3 note=42 velocity=0 time=11
control_change channel=3 control=7 value=89 time=13
note_on channel=3 note=42 velocity=72 time=0
note_on channel=3 note=42 velocity=0 time=10
control_change channel=3 control=7 value=89 time=14
note_on channel=3 note=42 velocity=115 time=0
note_on channel=3 note=42 velocity=0 time=14
control_change channel=3 control=7 value=87 time=10
note_on channel=3 note=42 velocity=58 time=0
note_on channel=3 note=42 velocity=0 time=9
control_change channel=3 control=7 value=87 time=15
note_on channel=3 note=42 velocity=92 time=0
note_on channel=3 note=42 velocity=0 time=10
control_change channel=3 control=7 value=85 time=14
note_on channel=3 note=42 velocity=66 time=0
note_on channel=3 note=42 velocity=0 time=10
control_change channel=3 control=7 value=85 time=14
note_on channel=3 note=42 velocity=115 time=0
note_on channel=3 note=42 velocity=0 time=14
control_change channel=3 control=7 value=84 time=10
note_on channel=3 note=42 velocity=68 time=0
note_on channel=3 note=42 velocity=0 time=11
control_change channel=3 control=7 value=82 time=13
note_on channel=3 note=42 velocity=98 time=0
note_on channel=3 note=42 velocity=0 time=11
control_change channel=3 control=7 value=82 time=13
note_on channel=3 note=42 velocity=66 time=0
note_on channel=3 note=42 velocity=0 time=11
control_change channel=3 control=7 value=82 time=13
note_on channel=3 note=42 velocity=115 time=0
note_on channel=3 note=42 velocity=0 time=16
control_change channel=3 control=7 value=80 time=8
note_on channel=3 note=42 velocity=64 time=0
note_on channel=3 note=42 velocity=0 time=9
control_change channel=3 control=7 value=80 time=15
note_on channel=3 note=42 velocity=80 time=0
note_on channel=3 note=42 velocity=0 time=12
control_change channel=3 control=7 value=79 time=12
note_on channel=3 note=42 velocity=66 time=0
note_on channel=3 note=42 velocity=0 time=10
control_change channel=3 control=7 value=79 time=14
note_on channel=3 note=42 velocity=121 time=0
note_on channel=3 note=42 velocity=0 time=16
control_change channel=3 control=7 value=77 time=8
note_on channel=3 note=42 velocity=77 time=0
note_on channel=3 note=42 velocity=0 time=12
control_change channel=3 control=7 value=77 time=12
note_on channel=3 note=42 velocity=83 time=0
note_on channel=3 note=42 velocity=0 time=12
control_change channel=3 control=7 value=75 time=12
note_on channel=3 note=42 velocity=64 time=0
note_on channel=3 note=42 velocity=0 time=9
control_change channel=3 control=7 value=75 time=15
note_on channel=3 note=42 velocity=115 time=0
note_on channel=3 note=42 velocity=0 time=15
control_change channel=3 control=7 value=75 time=9
note_on channel=3 note=42 velocity=75 time=0
note_on channel=3 note=42 velocity=0 time=12
control_change channel=3 control=7 value=74 time=12
note_on channel=3 note=42 velocity=92 time=0
note_on channel=3 note=42 velocity=0 time=11
control_change channel=3 control=7 value=72 time=13
note_on channel=3 note=42 velocity=74 time=0
note_on channel=3 note=42 velocity=0 time=12
control_change channel=3 control=7 value=72 time=12
note_on channel=3 note=42 velocity=115 time=0
note_on channel=3 note=42 velocity=0 time=14
control_change channel=3 control=7 value=70 time=10
note_on channel=3 note=42 velocity=70 time=0
note_on channel=3 note=42 velocity=0 time=10
control_change channel=3 control=7 value=69 time=14
note_on channel=3 note=42 velocity=87 time=0
note_on channel=3 note=42 velocity=0 time=12
control_change channel=3 control=7 value=69 time=12
note_on channel=3 note=42 velocity=74 time=0
note_on channel=3 note=42 velocity=0 time=10
control_change channel=3 control=7 value=67 time=14
note_on channel=3 note=42 velocity=109 time=0
note_on channel=3 note=42 velocity=0 time=10
control_change channel=3 control=7 value=65 time=14
note_on channel=3 note=42 velocity=72 time=0
note_on channel=3 note=42 velocity=0 time=12
control_change channel=3 control=7 value=65 time=12
note_on channel=3 note=42 velocity=83 time=0
note_on channel=3 note=42 velocity=0 time=8
control_change channel=3 control=7 value=63 time=16
note_on channel=3 note=42 velocity=78 time=0
note_on channel=3 note=42 velocity=0 time=12
control_change channel=3 control=7 value=62 time=12
note_on channel=3 note=42 velocity=115 time=0
note_on channel=3 note=42 velocity=0 time=12
control_change channel=3 control=7 value=62 time=12
note_on channel=3 note=42 velocity=66 time=0
note_on channel=3 note=42 velocity=0 time=11
control_change channel=3 control=7 value=62 time=13
note_on channel=3 note=42 velocity=92 time=0
note_on channel=3 note=42 velocity=0 time=11
control_change channel=3 control=7 value=60 time=13
note_on channel=3 note=42 velocity=72 time=0
note_on channel=3 note=42 velocity=0 time=10
control_change channel=3 control=7 value=58 time=14
note_on channel=3 note=42 velocity=115 time=0
note_on channel=3 note=42 velocity=0 time=14
control_change channel=3 control=7 value=58 time=10
note_on channel=3 note=42 velocity=58 time=0
note_on channel=3 note=42 velocity=0 time=9
control_change channel=3 control=7 value=58 time=15
note_on channel=3 note=42 velocity=92 time=0
note_on channel=3 note=42 velocity=0 time=10
control_change channel=3 control=7 value=57 time=14
note_on channel=3 note=42 velocity=66 time=0
note_on channel=3 note=42 velocity=0 time=10
control_change channel=3 control=7 value=55 time=14
note_on channel=3 note=42 velocity=115 time=0
note_on channel=3 note=42 velocity=0 time=14
control_change channel=3 control=7 value=55 time=10
note_on channel=3 note=42 velocity=68 time=0
note_on channel=3 note=42 velocity=0 time=11
control_change channel=3 control=7 value=55 time=13
note_on channel=3 note=42 velocity=98 time=0
note_on channel=3 note=42 velocity=0 time=11
control_change channel=3 control=7 value=53 time=13
note_on channel=3 note=42 velocity=66 time=0
note_on channel=3 note=42 velocity=0 time=11
control_change channel=3 control=7 value=52 time=13
note_on channel=3 note=42 velocity=115 time=0
note_on channel=3 note=42 velocity=0 time=16
control_change channel=3 control=7 value=52 time=8
note_on channel=3 note=42 velocity=64 time=0
note_on channel=3 note=42 velocity=0 time=9
control_change channel=3 control=7 value=52 time=15
note_on channel=3 note=42 velocity=80 time=0
note_on channel=3 note=42 velocity=0 time=12
control_change channel=3 control=7 value=50 time=12
note_on channel=3 note=42 velocity=66 time=0
note_on channel=3 note=42 velocity=0 time=10
control_change channel=3 control=7 value=50 time=14
note_on channel=3 note=42 velocity=121 time=0
note_on channel=3 note=42 velocity=0 time=16
control_change channel=3 control=7 value=48 time=8
note_on channel=3 note=42 velocity=77 time=0
note_on channel=3 note=42 velocity=0 time=12
control_change channel=3 control=7 value=48 time=12
note_on channel=3 note=42 velocity=83 time=0
note_on channel=3 note=42 velocity=0 time=12
control_change channel=3 control=7 value=48 time=12
note_on channel=3 note=42 velocity=64 time=0
note_on channel=3 note=42 velocity=0 time=9
control_change channel=3 control=7 value=47 time=15
note_on channel=3 note=42 velocity=115 time=0
note_on channel=3 note=42 velocity=0 time=15
control_change channel=3 control=7 value=47 time=9
note_on channel=3 note=42 velocity=75 time=0
note_on channel=3 note=42 velocity=0 time=12
control_change channel=3 control=7 value=45 time=12
note_on channel=3 note=42 velocity=92 time=0
note_on channel=3 note=42 velocity=0 time=11
control_change channel=3 control=7 value=45 time=13
note_on channel=3 note=42 velocity=74 time=0
note_on channel=3 note=42 velocity=0 time=12
control_change channel=3 control=7 value=43 time=12
note_on channel=3 note=42 velocity=115 time=0
note_on channel=3 note=42 velocity=0 time=14
control_change channel=3 control=7 value=43 time=10
note_on channel=3 note=42 velocity=70 time=0
note_on channel=3 note=42 velocity=0 time=10
control_change channel=3 control=7 value=42 time=14
note_on channel=3 note=42 velocity=87 time=0
note_on channel=3 note=42 velocity=0 time=12
control_change channel=3 control=7 value=42 time=12
note_on channel=3 note=42 velocity=74 time=0
note_on channel=3 note=42 velocity=0 time=10
control_change channel=3 control=7 value=42 time=14
note_on channel=3 note=42 velocity=109 time=0
note_on channel=3 note=42 velocity=0 time=10
control_change channel=3 control=7 value=40 time=14
note_on channel=3 note=42 velocity=72 time=0
note_on channel=3 note=42 velocity=0 time=12
control_change channel=3 control=7 value=38 time=12
note_on channel=3 note=42 velocity=83 time=0
note_on channel=3 note=42 velocity=0 time=8
control_change channel=3 control=7 value=38 time=16
note_on channel=3 note=42 velocity=78 time=0
note_on channel=3 note=42 velocity=0 time=12
control_change channel=3 control=7 value=37 time=12
note_on channel=3 note=42 velocity=121 time=0
note_on channel=3 note=42 velocity=0 time=15
control_change channel=3 control=7 value=37 time=9
note_on channel=3 note=42 velocity=74 time=0
note_on channel=3 note=42 velocity=0 time=12
control_change channel=3 control=7 value=35 time=12
note_on channel=3 note=42 velocity=86 time=0
note_on channel=3 note=42 velocity=0 time=9
control_change channel=3 control=7 value=35 time=15
note_on channel=3 note=42 velocity=78 time=0
note_on channel=3 note=42 velocity=0 time=12
control_change channel=3 control=7 value=35 time=12
note_on channel=3 note=42 velocity=121 time=0
note_on channel=3 note=42 velocity=0 time=15
control_change channel=3 control=7 value=35 time=9
note_on channel=3 note=42 velocity=76 time=0
note_on channel=3 note=42 velocity=0 time=11
control_change channel=3 control=7 value=33 time=13
note_on channel=3 note=42 velocity=92 time=0
note_on channel=3 note=42 velocity=0 time=10
control_change channel=3 control=7 value=33 time=14
note_on channel=3 note=42 velocity=72 time=0
note_on channel=3 note=42 velocity=0 time=9
control_change channel=3 control=7 value=31 time=15
note_on channel=3 note=42 velocity=121 time=0
note_on channel=3 note=42 velocity=0 time=15
control_change channel=3 control=7 value=31 time=9
note_on channel=3 note=42 velocity=71 time=0
note_on channel=3 note=42 velocity=0 time=10
control_change channel=3 control=7 value=31 time=14
note_on channel=3 note=42 velocity=87 time=0
note_on channel=3 note=42 velocity=0 time=11
control_change channel=3 control=7 value=31 time=13
note_on channel=3 note=42 velocity=68 time=0
note_on channel=3 note=42 velocity=0 time=8
control_change channel=3 control=7 value=30 time=16
note_on channel=3 note=42 velocity=115 time=0
note_on channel=3 note=42 velocity=0 time=11
control_change channel=3 control=7 value=30 time=13
note_on channel=3 note=42 velocity=70 time=0
note_on channel=3 note=42 velocity=0 time=10
control_change channel=3 control=7 value=30 time=14
note_on channel=3 note=42 velocity=89 time=0
note_on channel=3 note=42 velocity=0 time=12
control_change channel=3 control=7 value=28 time=12
note_on channel=3 note=42 velocity=70 time=0
note_on channel=3 note=42 velocity=0 time=10
control_change channel=3 control=7 value=28 time=14
note_on channel=3 note=42 velocity=115 time=0
note_on channel=3 note=42 velocity=0 time=13
control_change channel=3 control=7 value=28 time=11
note_on channel=3 note=42 velocity=75 time=0
note_on channel=3 note=42 velocity=0 time=12
control_change channel=3 control=7 value=28 time=12
note_on channel=3 note=42 velocity=92 time=0
note_on channel=3 note=42 velocity=0 time=10
control_change channel=3 control=7 value=28 time=14
note_on channel=3 note=42 velocity=74 time=0
note_on channel=3 note=42 velocity=0 time=11
control_change channel=3 control=7 value=26 time=13
note_on channel=3 note=42 velocity=115 time=0
note_on channel=3 note=42 velocity=0 time=13
control_change channel=3 control=7 value=26 time=11
note_on channel=3 note=42 velocity=74 time=0
note_on channel=3 note=42 velocity=0 time=11
control_change channel=3 control=7 value=26 time=13
note_on channel=3 note=42 velocity=86 time=0
note_on channel=3 note=42 velocity=0 time=8
control_change channel=3 control=7 value=25 time=16
note_on channel=3 note=42 velocity=66 time=0
note_on channel=3 note=42 velocity=0 time=10
control_change channel=3 control=7 value=23 time=14
note_on channel=3 note=42 velocity=115 time=0
note_on channel=3 note=42 velocity=0 time=13
control_change channel=3 control=7 value=23 time=11
note_on channel=3 note=42 velocity=72 time=0
note_on channel=3 note=42 velocity=0 time=10
control_change channel=3 control=7 value=21 time=14
note_on channel=3 note=42 velocity=86 time=0
note_on channel=3 note=42 velocity=0 time=9
control_change channel=3 control=7 value=21 time=15
note_on channel=3 note=42 velocity=68 time=0
note_on channel=3 note=42 velocity=0 time=10
control_change channel=3 control=7 value=21 time=14
note_on channel=3 note=42 velocity=115 time=0
note_on channel=3 note=42 velocity=0 time=12
control_change channel=3 control=7 value=21 time=12
note_on channel=3 note=42 velocity=70 time=0
note_on channel=3 note=42 velocity=0 time=7
control_change channel=3 control=7 value=20 time=17
note_on channel=3 note=42 velocity=92 time=0
note_on channel=3 note=42 velocity=0 time=10
control_change channel=3 control=7 value=20 time=14
note_on channel=3 note=42 velocity=74 time=0
note_on channel=3 note=42 velocity=0 time=10
control_change channel=3 control=7 value=18 time=14
note_on channel=3 note=42 velocity=115 time=0
note_on channel=3 note=42 velocity=0 time=12
control_change channel=3 control=7 value=18 time=12
note_on channel=3 note=42 velocity=66 time=0
note_on channel=3 note=42 velocity=0 time=11
control_change channel=3 control=7 value=18 time=13
note_on channel=3 note=42 velocity=92 time=0
note_on channel=3 note=42 velocity=0 time=11
control_change channel=3 control=7 value=16 time=13
note_on channel=3 note=42 velocity=72 time=0
note_on channel=3 note=42 velocity=0 time=10
control_change channel=3 control=7 value=16 time=14
note_on channel=3 note=42 velocity=115 time=0
note_on channel=3 note=42 velocity=0 time=14
control_change channel=3 control=7 value=16 time=10
note_on channel=3 note=42 velocity=58 time=0
note_on channel=3 note=42 velocity=0 time=9
control_change channel=3 control=7 value=16 time=15
note_on channel=3 note=42 velocity=92 time=0
note_on channel=3 note=42 velocity=0 time=10
control_change channel=3 control=7 value=16 time=14
note_on channel=3 note=42 velocity=66 time=0
note_on channel=3 note=42 velocity=0 time=10
control_change channel=3 control=7 value=15 time=14
note_on channel=3 note=42 velocity=115 time=0
note_on channel=3 note=42 velocity=0 time=14
control_change channel=3 control=7 value=15 time=10
note_on channel=3 note=42 velocity=68 time=0
note_on channel=3 note=42 velocity=0 time=11
control_change channel=3 control=7 value=15 time=13
note_on channel=3 note=42 velocity=98 time=0
note_on channel=3 note=42 velocity=0 time=11
control_change channel=3 control=7 value=15 time=13
note_on channel=3 note=42 velocity=66 time=0
note_on channel=3 note=42 velocity=0 time=11
control_change channel=3 control=7 value=13 time=13
note_on channel=3 note=42 velocity=115 time=0
note_on channel=3 note=42 velocity=0 time=16
control_change channel=3 control=7 value=13 time=8
note_on channel=3 note=42 velocity=64 time=0
note_on channel=3 note=42 velocity=0 time=9
control_change channel=3 control=7 value=11 time=15
note_on channel=3 note=42 velocity=80 time=0
note_on channel=3 note=42 velocity=0 time=12
control_change channel=3 control=7 value=11 time=12
note_on channel=3 note=42 velocity=66 time=0
note_on channel=3 note=42 velocity=0 time=10
control_change channel=3 control=7 value=10 time=14
note_on channel=3 note=42 velocity=121 time=0
note_on channel=3 note=42 velocity=0 time=16
control_change channel=3 control=7 value=10 time=8
note_on channel=3 note=42 velocity=77 time=0
note_on channel=3 note=42 velocity=0 time=12
control_change channel=3 control=7 value=10 time=12
note_on channel=3 note=42 velocity=83 time=0
note_on channel=3 note=42 velocity=0 time=12
control_change channel=3 control=7 value=8 time=12
note_on channel=3 note=42 velocity=64 time=0
note_on channel=3 note=42 velocity=0 time=9
control_change channel=3 control=7 value=8 time=15
note_on channel=3 note=42 velocity=115 time=0
note_on channel=3 note=42 velocity=0 time=15
control_change channel=3 control=7 value=8 time=9
note_on channel=3 note=42 velocity=75 time=0
note_on channel=3 note=42 velocity=0 time=12
control_change channel=3 control=7 value=6 time=12
note_on channel=3 note=42 velocity=92 time=0
note_on channel=3 note=42 velocity=0 time=11
control_change channel=3 control=7 value=6 time=13
note_on channel=3 note=42 velocity=74 time=0
note_on channel=3 note=42 velocity=0 time=12
control_change channel=3 control=7 value=5 time=12
note_on channel=3 note=42 velocity=115 time=0
note_on channel=3 note=42 velocity=0 time=14
control_change channel=3 control=7 value=3 time=10
note_on channel=3 note=42 velocity=70 time=0
note_on channel=3 note=42 velocity=0 time=10
control_change channel=3 control=7 value=1 time=14
note_on channel=3 note=42 velocity=87 time=0
note_on channel=3 note=42 velocity=0 time=12
control_change channel=3 control=7 value=1 time=12
note_on channel=3 note=42 velocity=74 time=0
note_on channel=3 note=42 velocity=0 time=10
control_change channel=3 control=7 value=0 time=14
note_on channel=3 note=42 velocity=109 time=0
note_on channel=3 note=42 velocity=0 time=10
control_change channel=3 control=7 value=0 time=14
note_on channel=3 note=42 velocity=72 time=0
note_on channel=3 note=42 velocity=0 time=12
control_change channel=3 control=7 value=0 time=12
note_on channel=3 note=42 velocity=83 time=0
note_on channel=3 note=42 velocity=0 time=8
control_change channel=3 control=7 value=0 time=16
note_on channel=3 note=42 velocity=78 time=0
note_on channel=3 note=42 velocity=0 time=12
<meta message end_of_track time=0>
<meta message midi_port port=0 time=0>
<meta message track_name name=u'Overdrive' time=0>
control_change channel=4 control=0 value=0 time=0
program_change channel=4 program=29 time=0
control_change channel=4 control=7 value=99 time=0
control_change channel=4 control=10 value=84 time=0
note_on channel=4 note=54 velocity=109 time=768
note_on channel=4 note=61 velocity=115 time=0
note_on channel=4 note=66 velocity=104 time=0
note_on channel=4 note=61 velocity=0 time=48
note_on channel=4 note=54 velocity=0 time=2
note_on channel=4 note=66 velocity=0 time=1
note_on channel=4 note=54 velocity=109 time=141
note_on channel=4 note=61 velocity=121 time=0
note_on channel=4 note=66 velocity=86 time=0
note_on channel=4 note=66 velocity=0 time=44
note_on channel=4 note=61 velocity=0 time=7
note_on channel=4 note=54 velocity=0 time=2
note_on channel=4 note=52 velocity=98 time=19
note_on channel=4 note=59 velocity=98 time=0
note_on channel=4 note=64 velocity=86 time=0
note_on channel=4 note=59 velocity=0 time=45
note_on channel=4 note=52 velocity=0 time=1
note_on channel=4 note=64 velocity=0 time=3
note_on channel=4 note=54 velocity=98 time=23
note_on channel=4 note=61 velocity=121 time=0
note_on channel=4 note=66 velocity=80 time=0
note_on channel=4 note=54 velocity=0 time=58
note_on channel=4 note=66 velocity=0 time=2
note_on channel=4 note=61 velocity=0 time=2
note_on channel=4 note=54 velocity=98 time=178
note_on channel=4 note=61 velocity=121 time=0
note_on channel=4 note=66 velocity=92 time=0
note_on channel=4 note=66 velocity=0 time=50
note_on channel=4 note=54 velocity=0 time=0
note_on channel=4 note=61 velocity=0 time=6
note_on channel=4 note=52 velocity=101 time=16
note_on channel=4 note=59 velocity=101 time=0
note_on channel=4 note=64 velocity=101 time=0
note_on channel=4 note=52 velocity=0 time=50
note_on channel=4 note=59 velocity=0 time=2
note_on channel=4 note=64 velocity=0 time=5
note_on channel=4 note=54 velocity=98 time=15
note_on channel=4 note=61 velocity=121 time=0
note_on channel=4 note=66 velocity=86 time=0
note_on channel=4 note=54 velocity=0 time=53
note_on channel=4 note=66 velocity=0 time=4
note_on channel=4 note=61 velocity=0 time=0
note_on channel=4 note=54 velocity=97 time=183
note_on channel=4 note=61 velocity=97 time=0
note_on channel=4 note=66 velocity=97 time=0
note_on channel=4 note=66 velocity=0 time=37
note_on channel=4 note=61 velocity=0 time=7
note_on channel=4 note=54 velocity=0 time=6
note_on channel=4 note=49 velocity=109 time=22
note_on channel=4 note=56 velocity=109 time=0
note_on channel=4 note=61 velocity=115 time=0
note_on channel=4 note=56 velocity=0 time=32
note_on channel=4 note=61 velocity=0 time=7
note_on channel=4 note=49 velocity=0 time=9
note_on channel=4 note=50 velocity=111 time=24
note_on channel=4 note=57 velocity=111 time=0
note_on channel=4 note=62 velocity=111 time=0
note_on channel=4 note=57 velocity=0 time=408
note_on channel=4 note=62 velocity=0 time=5
note_on channel=4 note=50 velocity=0 time=19
note_on channel=4 note=54 velocity=104 time=0
note_on channel=4 note=61 velocity=127 time=0
note_on channel=4 note=66 velocity=92 time=0
note_on channel=4 note=66 velocity=0 time=57
note_on channel=4 note=54 velocity=0 time=0
note_on channel=4 note=61 velocity=0 time=1
note_on channel=4 note=54 velocity=104 time=134
note_on channel=4 note=61 velocity=121 time=0
note_on channel=4 note=66 velocity=86 time=0
note_on channel=4 note=66 velocity=0 time=48
note_on channel=4 note=54 velocity=0 time=2
note_on channel=4 note=61 velocity=0 time=5
note_on channel=4 note=52 velocity=105 time=17
note_on channel=4 note=59 velocity=105 time=0
note_on channel=4 note=64 velocity=105 time=0
note_on channel=4 note=59 velocity=0 time=52
note_on channel=4 note=52 velocity=0 time=1
note_on channel=4 note=64 velocity=0 time=3
note_on channel=4 note=54 velocity=105 time=16
note_on channel=4 note=61 velocity=105 time=0
note_on channel=4 note=66 velocity=105 time=0
note_on channel=4 note=54 velocity=0 time=57
note_on channel=4 note=66 velocity=0 time=2
note_on channel=4 note=61 velocity=0 time=1
note_on channel=4 note=54 velocity=104 time=228
note_on channel=4 note=61 velocity=115 time=0
note_on channel=4 note=66 velocity=92 time=0
note_on channel=4 note=66 velocity=0 time=45
note_on channel=4 note=54 velocity=0 time=1
note_on channel=4 note=61 velocity=0 time=5
note_on channel=4 note=52 velocity=105 time=21
note_on channel=4 note=59 velocity=105 time=0
note_on channel=4 note=64 velocity=105 time=0
note_on channel=4 note=59 velocity=0 time=49
note_on channel=4 note=64 velocity=0 time=1
note_on channel=4 note=52 velocity=0 time=0
note_on channel=4 note=54 velocity=99 time=22
note_on channel=4 note=61 velocity=99 time=0
note_on channel=4 note=66 velocity=99 time=0
note_on channel=4 note=54 velocity=0 time=55
note_on channel=4 note=66 velocity=0 time=3
note_on channel=4 note=61 velocity=0 time=1
note_on channel=4 note=54 velocity=101 time=133
note_on channel=4 note=61 velocity=101 time=0
note_on channel=4 note=66 velocity=101 time=0
note_on channel=4 note=66 velocity=0 time=47
note_on channel=4 note=61 velocity=0 time=4
note_on channel=4 note=54 velocity=0 time=1
note_on channel=4 note=49 velocity=101 time=20
note_on channel=4 note=56 velocity=101 time=0
note_on channel=4 note=61 velocity=101 time=0
note_on channel=4 note=61 velocity=0 time=45
note_on channel=4 note=56 velocity=0 time=6
note_on channel=4 note=49 velocity=0 time=10
note_on channel=4 note=50 velocity=103 time=11
note_on channel=4 note=57 velocity=103 time=0
note_on channel=4 note=62 velocity=103 time=0
note_on channel=4 note=57 velocity=0 time=421
note_on channel=4 note=62 velocity=0 time=1
note_on channel=4 note=50 velocity=0 time=0
note_on channel=4 note=54 velocity=109 time=10
note_on channel=4 note=61 velocity=115 time=0
note_on channel=4 note=66 velocity=98 time=0
note_on channel=4 note=54 velocity=0 time=66
note_on channel=4 note=61 velocity=0 time=1
note_on channel=4 note=66 velocity=0 time=3
note_on channel=4 note=54 velocity=64 time=74
note_on channel=4 note=64 velocity=68 time=0
note_on channel=4 note=64 velocity=0 time=10
note_on channel=4 note=54 velocity=0 time=0
note_on channel=4 note=54 velocity=56 time=14
note_on channel=4 note=64 velocity=74 time=0
note_on channel=4 note=54 velocity=0 time=10
note_on channel=4 note=64 velocity=0 time=4
note_on channel=4 note=54 velocity=101 time=10
note_on channel=4 note=64 velocity=101 time=0
note_on channel=4 note=69 velocity=101 time=0
note_on channel=4 note=64 velocity=0 time=44
note_on channel=4 note=54 velocity=0 time=0
note_on channel=4 note=69 velocity=0 time=5
note_on channel=4 note=54 velocity=99 time=23
note_on channel=4 note=64 velocity=99 time=0
note_on channel=4 note=68 velocity=99 time=0
note_on channel=4 note=64 velocity=0 time=46
note_on channel=4 note=68 velocity=0 time=2
note_on channel=4 note=54 velocity=0 time=1
note_on channel=4 note=54 velocity=99 time=23
note_on channel=4 note=64 velocity=99 time=0
note_on channel=4 note=69 velocity=99 time=0
note_on channel=4 note=69 velocity=0 time=190
note_on channel=4 note=64 velocity=0 time=1
note_on channel=4 note=54 velocity=0 time=0
note_on channel=4 note=54 velocity=99 time=49
note_on channel=4 note=64 velocity=99 time=0
note_on channel=4 note=69 velocity=99 time=0
note_on channel=4 note=64 velocity=0 time=46
note_on channel=4 note=54 velocity=0 time=0
note_on channel=4 note=69 velocity=0 time=5
note_on channel=4 note=54 velocity=99 time=21
note_on channel=4 note=64 velocity=99 time=0
note_on channel=4 note=68 velocity=99 time=0
note_on channel=4 note=64 velocity=0 time=50
note_on channel=4 note=54 velocity=0 time=1
note_on channel=4 note=68 velocity=0 time=1
note_on channel=4 note=54 velocity=95 time=20
note_on channel=4 note=64 velocity=95 time=0
note_on channel=4 note=69 velocity=95 time=0
note_on channel=4 note=69 velocity=0 time=198
note_on channel=4 note=54 velocity=0 time=1
note_on channel=4 note=64 velocity=0 time=4
note_on channel=4 note=54 velocity=105 time=37
note_on channel=4 note=61 velocity=105 time=0
note_on channel=4 note=66 velocity=105 time=0
note_on channel=4 note=66 velocity=0 time=57
note_on channel=4 note=61 velocity=0 time=1
note_on channel=4 note=54 velocity=0 time=1
note_on channel=4 note=49 velocity=105 time=13
note_on channel=4 note=56 velocity=105 time=0
note_on channel=4 note=61 velocity=105 time=0
note_on channel=4 note=61 velocity=0 time=53
note_on channel=4 note=56 velocity=0 time=0
note_on channel=4 note=49 velocity=0 time=8
note_on channel=4 note=50 velocity=105 time=11
note_on channel=4 note=57 velocity=105 time=0
note_on channel=4 note=62 velocity=105 time=0
note_on channel=4 note=57 velocity=0 time=401
note_on channel=4 note=62 velocity=0 time=11
note_on channel=4 note=50 velocity=0 time=19
note_on channel=4 note=54 velocity=101 time=1
note_on channel=4 note=61 velocity=101 time=0
note_on channel=4 note=66 velocity=101 time=0
note_on channel=4 note=61 velocity=0 time=86
note_on channel=4 note=54 velocity=0 time=0
note_on channel=4 note=66 velocity=0 time=6
note_on channel=4 note=54 velocity=70 time=52
note_on channel=4 note=64 velocity=66 time=0
note_on channel=4 note=54 velocity=0 time=7
note_on channel=4 note=64 velocity=0 time=1
note_on channel=4 note=54 velocity=66 time=16
note_on channel=4 note=64 velocity=68 time=0
note_on channel=4 note=54 velocity=0 time=9
note_on channel=4 note=64 velocity=0 time=2
note_on channel=4 note=54 velocity=101 time=13
note_on channel=4 note=64 velocity=101 time=0
note_on channel=4 note=69 velocity=101 time=0
note_on channel=4 note=54 velocity=0 time=41
note_on channel=4 note=69 velocity=0 time=2
note_on channel=4 note=64 velocity=0 time=1
note_on channel=4 note=54 velocity=103 time=28
note_on channel=4 note=64 velocity=103 time=0
note_on channel=4 note=68 velocity=103 time=0
note_on channel=4 note=68 velocity=0 time=45
note_on channel=4 note=64 velocity=0 time=0
note_on channel=4 note=54 velocity=0 time=1
note_on channel=4 note=54 velocity=105 time=26
note_on channel=4 note=64 velocity=105 time=0
note_on channel=4 note=69 velocity=105 time=0
note_on channel=4 note=69 velocity=0 time=197
note_on channel=4 note=64 velocity=0 time=1
note_on channel=4 note=54 velocity=0 time=3
note_on channel=4 note=54 velocity=98 time=39
note_on channel=4 note=64 velocity=98 time=0
note_on channel=4 note=69 velocity=78 time=0
note_on channel=4 note=54 velocity=0 time=44
note_on channel=4 note=69 velocity=0 time=5
note_on channel=4 note=64 velocity=0 time=0
note_on channel=4 note=54 velocity=98 time=23
note_on channel=4 note=64 velocity=86 time=0
note_on channel=4 note=68 velocity=80 time=0
note_on channel=4 note=64 velocity=0 time=42
note_on channel=4 note=54 velocity=0 time=0
note_on channel=4 note=68 velocity=0 time=1
note_on channel=4 note=54 velocity=109 time=29
note_on channel=4 note=64 velocity=98 time=0
note_on channel=4 note=69 velocity=80 time=0
note_on channel=4 note=69 velocity=0 time=193
note_on channel=4 note=64 velocity=0 time=0
note_on channel=4 note=54 velocity=0 time=3
note_on channel=4 note=54 velocity=104 time=44
note_on channel=4 note=61 velocity=121 time=0
note_on channel=4 note=66 velocity=92 time=0
note_on channel=4 note=66 velocity=0 time=50
note_on channel=4 note=61 velocity=0 time=0
note_on channel=4 note=54 velocity=0 time=9
note_on channel=4 note=49 velocity=98 time=13
note_on channel=4 note=56 velocity=98 time=0
note_on channel=4 note=61 velocity=115 time=0
note_on channel=4 note=61 velocity=0 time=54
note_on channel=4 note=56 velocity=0 time=1
note_on channel=4 note=49 velocity=0 time=2
note_on channel=4 note=50 velocity=99 time=15
note_on channel=4 note=57 velocity=99 time=0
note_on channel=4 note=62 velocity=99 time=0
note_on channel=4 note=57 velocity=0 time=408
note_on channel=4 note=62 velocity=0 time=1
note_on channel=4 note=50 velocity=0 time=20
note_on channel=4 note=54 velocity=104 time=3
note_on channel=4 note=61 velocity=127 time=0
note_on channel=4 note=66 velocity=98 time=0
note_on channel=4 note=66 velocity=0 time=133
note_on channel=4 note=61 velocity=0 time=1
note_on channel=4 note=54 velocity=0 time=2
note_on channel=4 note=47 velocity=115 time=6776
note_on channel=4 note=54 velocity=98 time=0
note_on channel=4 note=59 velocity=115 time=0
note_on channel=4 note=59 velocity=0 time=308
note_on channel=4 note=64 velocity=98 time=28
note_on channel=4 note=64 velocity=0 time=13
note_on channel=4 note=47 velocity=0 time=3
note_on channel=4 note=64 velocity=95 time=8
note_on channel=4 note=54 velocity=0 time=5
note_on channel=4 note=64 velocity=0 time=9
note_on channel=4 note=49 velocity=103 time=10
note_on channel=4 note=64 velocity=103 time=0
note_on channel=4 note=69 velocity=103 time=0
note_on channel=4 note=69 velocity=0 time=169
note_on channel=4 note=64 velocity=0 time=5
note_on channel=4 note=49 velocity=0 time=15
note_on channel=4 note=52 velocity=98 time=3
note_on channel=4 note=59 velocity=104 time=0
note_on channel=4 note=68 velocity=98 time=0
note_on channel=4 note=59 velocity=0 time=174
note_on channel=4 note=52 velocity=0 time=7
note_on channel=4 note=68 velocity=0 time=3
note_on channel=4 note=47 velocity=115 time=8
note_on channel=4 note=54 velocity=98 time=0
note_on channel=4 note=59 velocity=115 time=0
note_on channel=4 note=47 velocity=0 time=306
note_on channel=4 note=54 velocity=0 time=2
note_on channel=4 note=59 velocity=0 time=27
note_on channel=4 note=54 velocity=104 time=1
note_on channel=4 note=54 velocity=0 time=12
note_on channel=4 note=54 velocity=86 time=12
note_on channel=4 note=54 velocity=0 time=13
note_on channel=4 note=54 velocity=105 time=11
note_on channel=4 note=61 velocity=105 time=0
note_on channel=4 note=66 velocity=105 time=0
note_on channel=4 note=66 velocity=0 time=70
note_on channel=4 note=61 velocity=0 time=10
note_on channel=4 note=54 velocity=0 time=9
note_on channel=4 note=52 velocity=109 time=7
note_on channel=4 note=59 velocity=109 time=0
note_on channel=4 note=64 velocity=98 time=0
note_on channel=4 note=59 velocity=0 time=288
note_on channel=4 note=47 velocity=115 time=0
note_on channel=4 note=54 velocity=115 time=0
note_on channel=4 note=52 velocity=0 time=6
note_on channel=4 note=64 velocity=0 time=2
note_on channel=4 note=64 velocity=92 time=328
note_on channel=4 note=64 velocity=0 time=13
note_on channel=4 note=47 velocity=0 time=8
note_on channel=4 note=64 velocity=76 time=3
note_on channel=4 note=54 velocity=0 time=4
note_on channel=4 note=64 velocity=0 time=8
note_on channel=4 note=49 velocity=115 time=12
note_on channel=4 note=64 velocity=80 time=0
note_on channel=4 note=69 velocity=80 time=0
note_on channel=4 note=69 velocity=0 time=178
note_on channel=4 note=64 velocity=0 time=10
note_on channel=4 note=52 velocity=92 time=4
note_on channel=4 note=59 velocity=109 time=0
note_on channel=4 note=68 velocity=92 time=0
note_on channel=4 note=49 velocity=0 time=5
note_on channel=4 note=59 velocity=0 time=164
note_on channel=4 note=68 velocity=0 time=1
note_on channel=4 note=52 velocity=0 time=1
note_on channel=4 note=47 velocity=109 time=21
note_on channel=4 note=59 velocity=109 time=0
note_on channel=4 note=47 velocity=0 time=58
note_on channel=4 note=59 velocity=0 time=1
note_on channel=4 note=46 velocity=98 time=13
note_on channel=4 note=58 velocity=78 time=0
note_on channel=4 note=58 velocity=0 time=62
note_on channel=4 note=47 velocity=109 time=10
note_on channel=4 note=59 velocity=104 time=0
note_on channel=4 note=46 velocity=0 time=1
note_on channel=4 note=49 velocity=98 time=47
note_on channel=4 note=61 velocity=115 time=0
note_on channel=4 note=59 velocity=0 time=4
note_on channel=4 note=47 velocity=0 time=6
note_on channel=4 note=61 velocity=0 time=59
note_on channel=4 note=47 velocity=115 time=3
note_on channel=4 note=59 velocity=109 time=0
note_on channel=4 note=49 velocity=0 time=2
note_on channel=4 note=47 velocity=0 time=56
note_on channel=4 note=59 velocity=0 time=12
note_on channel=4 note=49 velocity=115 time=2
note_on channel=4 note=61 velocity=121 time=0
note_on channel=4 note=61 velocity=0 time=45
note_on channel=4 note=50 velocity=109 time=3
note_on channel=4 note=62 velocity=104 time=0
note_on channel=4 note=49 velocity=0 time=3
note_on channel=4 note=62 velocity=0 time=234
note_on channel=4 note=50 velocity=0 time=2
note_on channel=4 note=54 velocity=98 time=865
note_on channel=4 note=66 velocity=76 time=0
note_on channel=4 note=54 velocity=0 time=11
note_on channel=4 note=66 velocity=0 time=4
note_on channel=4 note=54 velocity=86 time=9
note_on channel=4 note=66 velocity=74 time=0
note_on channel=4 note=54 velocity=0 time=14
note_on channel=4 note=66 velocity=0 time=3
note_on channel=4 note=54 velocity=104 time=7
note_on channel=4 note=69 velocity=98 time=0
note_on channel=4 note=73 velocity=115 time=0
note_on channel=4 note=73 velocity=0 time=742
note_on channel=4 note=69 velocity=0 time=3
note_on channel=4 note=54 velocity=0 time=0
note_on channel=4 note=54 velocity=92 time=23
note_on channel=4 note=68 velocity=98 time=0
note_on channel=4 note=71 velocity=109 time=0
note_on channel=4 note=54 velocity=0 time=366
note_on channel=4 note=68 velocity=0 time=2
note_on channel=4 note=71 velocity=0 time=4
note_on channel=4 note=54 velocity=115 time=12
note_on channel=4 note=66 velocity=76 time=0
note_on channel=4 note=69 velocity=86 time=0
note_on channel=4 note=54 velocity=0 time=321
note_on channel=4 note=54 velocity=98 time=15
note_on channel=4 note=69 velocity=0 time=10
note_on channel=4 note=66 velocity=0 time=2
note_on channel=4 note=54 velocity=0 time=1
note_on channel=4 note=54 velocity=98 time=11
note_on channel=4 note=54 velocity=0 time=13
note_on channel=4 note=54 velocity=115 time=11
note_on channel=4 note=69 velocity=104 time=0
note_on channel=4 note=73 velocity=115 time=0
note_on channel=4 note=73 velocity=0 time=745
note_on channel=4 note=54 velocity=0 time=2
note_on channel=4 note=69 velocity=0 time=2
note_on channel=4 note=54 velocity=109 time=19
note_on channel=4 note=68 velocity=104 time=0
note_on channel=4 note=71 velocity=115 time=0
note_on channel=4 note=54 velocity=0 time=363
note_on channel=4 note=71 velocity=0 time=2
note_on channel=4 note=68 velocity=0 time=0
note_on channel=4 note=54 velocity=104 time=19
note_on channel=4 note=66 velocity=78 time=0
note_on channel=4 note=69 velocity=86 time=0
note_on channel=4 note=69 velocity=0 time=379
note_on channel=4 note=66 velocity=0 time=3
note_on channel=4 note=54 velocity=0 time=2
note_on channel=4 note=47 velocity=115 time=0
note_on channel=4 note=54 velocity=98 time=0
note_on channel=4 note=59 velocity=115 time=0
note_on channel=4 note=59 velocity=0 time=308
note_on channel=4 note=64 velocity=98 time=28
note_on channel=4 note=64 velocity=0 time=13
note_on channel=4 note=47 velocity=0 time=3
note_on channel=4 note=64 velocity=95 time=8
note_on channel=4 note=54 velocity=0 time=5
note_on channel=4 note=64 velocity=0 time=9
note_on channel=4 note=49 velocity=103 time=10
note_on channel=4 note=64 velocity=103 time=0
note_on channel=4 note=69 velocity=103 time=0
note_on channel=4 note=69 velocity=0 time=169
note_on channel=4 note=64 velocity=0 time=5
note_on channel=4 note=49 velocity=0 time=15
note_on channel=4 note=52 velocity=98 time=3
note_on channel=4 note=59 velocity=104 time=0
note_on channel=4 note=68 velocity=98 time=0
note_on channel=4 note=59 velocity=0 time=174
note_on channel=4 note=52 velocity=0 time=7
note_on channel=4 note=68 velocity=0 time=3
note_on channel=4 note=47 velocity=115 time=8
note_on channel=4 note=54 velocity=98 time=0
note_on channel=4 note=59 velocity=115 time=0
note_on channel=4 note=47 velocity=0 time=306
note_on channel=4 note=54 velocity=0 time=2
note_on channel=4 note=59 velocity=0 time=27
note_on channel=4 note=54 velocity=104 time=1
note_on channel=4 note=54 velocity=0 time=12
note_on channel=4 note=54 velocity=86 time=12
note_on channel=4 note=54 velocity=0 time=13
note_on channel=4 note=54 velocity=105 time=11
note_on channel=4 note=61 velocity=105 time=0
note_on channel=4 note=66 velocity=105 time=0
note_on channel=4 note=66 velocity=0 time=70
note_on channel=4 note=61 velocity=0 time=10
note_on channel=4 note=54 velocity=0 time=9
note_on channel=4 note=52 velocity=109 time=7
note_on channel=4 note=59 velocity=109 time=0
note_on channel=4 note=64 velocity=98 time=0
note_on channel=4 note=59 velocity=0 time=288
note_on channel=4 note=47 velocity=115 time=0
note_on channel=4 note=54 velocity=115 time=0
note_on channel=4 note=52 velocity=0 time=6
note_on channel=4 note=64 velocity=0 time=2
note_on channel=4 note=64 velocity=92 time=328
note_on channel=4 note=64 velocity=0 time=13
note_on channel=4 note=47 velocity=0 time=8
note_on channel=4 note=64 velocity=76 time=3
note_on channel=4 note=54 velocity=0 time=4
note_on channel=4 note=64 velocity=0 time=8
note_on channel=4 note=49 velocity=115 time=12
note_on channel=4 note=64 velocity=80 time=0
note_on channel=4 note=69 velocity=80 time=0
note_on channel=4 note=69 velocity=0 time=178
note_on channel=4 note=64 velocity=0 time=10
note_on channel=4 note=52 velocity=92 time=4
note_on channel=4 note=59 velocity=109 time=0
note_on channel=4 note=68 velocity=92 time=0
note_on channel=4 note=49 velocity=0 time=5
note_on channel=4 note=59 velocity=0 time=164
note_on channel=4 note=68 velocity=0 time=1
note_on channel=4 note=52 velocity=0 time=1
note_on channel=4 note=47 velocity=109 time=21
note_on channel=4 note=59 velocity=109 time=0
note_on channel=4 note=47 velocity=0 time=58
note_on channel=4 note=59 velocity=0 time=1
note_on channel=4 note=46 velocity=98 time=13
note_on channel=4 note=58 velocity=78 time=0
note_on channel=4 note=58 velocity=0 time=62
note_on channel=4 note=47 velocity=109 time=10
note_on channel=4 note=59 velocity=104 time=0
note_on channel=4 note=46 velocity=0 time=1
note_on channel=4 note=49 velocity=98 time=47
note_on channel=4 note=61 velocity=115 time=0
note_on channel=4 note=59 velocity=0 time=4
note_on channel=4 note=47 velocity=0 time=6
note_on channel=4 note=61 velocity=0 time=59
note_on channel=4 note=47 velocity=115 time=3
note_on channel=4 note=59 velocity=109 time=0
note_on channel=4 note=49 velocity=0 time=2
note_on channel=4 note=47 velocity=0 time=56
note_on channel=4 note=59 velocity=0 time=12
note_on channel=4 note=49 velocity=115 time=2
note_on channel=4 note=61 velocity=121 time=0
note_on channel=4 note=61 velocity=0 time=45
note_on channel=4 note=50 velocity=109 time=3
note_on channel=4 note=62 velocity=104 time=0
note_on channel=4 note=49 velocity=0 time=3
note_on channel=4 note=62 velocity=0 time=234
note_on channel=4 note=50 velocity=0 time=2
note_on channel=4 note=47 velocity=115 time=4753
note_on channel=4 note=54 velocity=98 time=0
note_on channel=4 note=59 velocity=115 time=0
note_on channel=4 note=59 velocity=0 time=308
note_on channel=4 note=64 velocity=98 time=28
note_on channel=4 note=64 velocity=0 time=13
note_on channel=4 note=47 velocity=0 time=3
note_on channel=4 note=64 velocity=95 time=8
note_on channel=4 note=54 velocity=0 time=5
note_on channel=4 note=64 velocity=0 time=9
note_on channel=4 note=49 velocity=103 time=10
note_on channel=4 note=64 velocity=103 time=0
note_on channel=4 note=69 velocity=103 time=0
note_on channel=4 note=69 velocity=0 time=169
note_on channel=4 note=64 velocity=0 time=5
note_on channel=4 note=49 velocity=0 time=15
note_on channel=4 note=52 velocity=98 time=3
note_on channel=4 note=59 velocity=104 time=0
note_on channel=4 note=68 velocity=98 time=0
note_on channel=4 note=59 velocity=0 time=174
note_on channel=4 note=52 velocity=0 time=7
note_on channel=4 note=68 velocity=0 time=3
note_on channel=4 note=47 velocity=115 time=8
note_on channel=4 note=54 velocity=98 time=0
note_on channel=4 note=59 velocity=115 time=0
note_on channel=4 note=47 velocity=0 time=306
note_on channel=4 note=54 velocity=0 time=2
note_on channel=4 note=59 velocity=0 time=27
note_on channel=4 note=54 velocity=104 time=1
note_on channel=4 note=54 velocity=0 time=12
note_on channel=4 note=54 velocity=86 time=12
note_on channel=4 note=54 velocity=0 time=13
note_on channel=4 note=54 velocity=105 time=11
note_on channel=4 note=61 velocity=105 time=0
note_on channel=4 note=66 velocity=105 time=0
note_on channel=4 note=66 velocity=0 time=70
note_on channel=4 note=61 velocity=0 time=10
note_on channel=4 note=54 velocity=0 time=9
note_on channel=4 note=52 velocity=109 time=7
note_on channel=4 note=59 velocity=109 time=0
note_on channel=4 note=64 velocity=98 time=0
note_on channel=4 note=59 velocity=0 time=288
note_on channel=4 note=47 velocity=115 time=0
note_on channel=4 note=54 velocity=115 time=0
note_on channel=4 note=52 velocity=0 time=6
note_on channel=4 note=64 velocity=0 time=2
note_on channel=4 note=64 velocity=92 time=328
note_on channel=4 note=64 velocity=0 time=13
note_on channel=4 note=47 velocity=0 time=8
note_on channel=4 note=64 velocity=76 time=3
note_on channel=4 note=54 velocity=0 time=4
note_on channel=4 note=64 velocity=0 time=8
note_on channel=4 note=49 velocity=115 time=12
note_on channel=4 note=64 velocity=80 time=0
note_on channel=4 note=69 velocity=80 time=0
note_on channel=4 note=69 velocity=0 time=178
note_on channel=4 note=64 velocity=0 time=10
note_on channel=4 note=52 velocity=92 time=4
note_on channel=4 note=59 velocity=109 time=0
note_on channel=4 note=68 velocity=92 time=0
note_on channel=4 note=49 velocity=0 time=5
note_on channel=4 note=59 velocity=0 time=164
note_on channel=4 note=68 velocity=0 time=1
note_on channel=4 note=52 velocity=0 time=1
note_on channel=4 note=47 velocity=109 time=21
note_on channel=4 note=59 velocity=109 time=0
note_on channel=4 note=47 velocity=0 time=58
note_on channel=4 note=59 velocity=0 time=1
note_on channel=4 note=46 velocity=98 time=13
note_on channel=4 note=58 velocity=78 time=0
note_on channel=4 note=58 velocity=0 time=62
note_on channel=4 note=47 velocity=109 time=10
note_on channel=4 note=59 velocity=104 time=0
note_on channel=4 note=46 velocity=0 time=1
note_on channel=4 note=49 velocity=98 time=47
note_on channel=4 note=61 velocity=115 time=0
note_on channel=4 note=59 velocity=0 time=4
note_on channel=4 note=47 velocity=0 time=6
note_on channel=4 note=61 velocity=0 time=59
note_on channel=4 note=47 velocity=115 time=3
note_on channel=4 note=59 velocity=109 time=0
note_on channel=4 note=49 velocity=0 time=2
note_on channel=4 note=47 velocity=0 time=56
note_on channel=4 note=59 velocity=0 time=12
note_on channel=4 note=49 velocity=115 time=2
note_on channel=4 note=61 velocity=121 time=0
note_on channel=4 note=61 velocity=0 time=45
note_on channel=4 note=50 velocity=109 time=3
note_on channel=4 note=62 velocity=104 time=0
note_on channel=4 note=49 velocity=0 time=3
note_on channel=4 note=62 velocity=0 time=381
note_on channel=4 note=50 velocity=0 time=0
note_on channel=4 note=50 velocity=107 time=0
note_on channel=4 note=57 velocity=107 time=0
note_on channel=4 note=62 velocity=107 time=0
note_on channel=4 note=57 velocity=0 time=13
note_on channel=4 note=50 velocity=0 time=2
note_on channel=4 note=62 velocity=0 time=1
note_on channel=4 note=50 velocity=109 time=8
note_on channel=4 note=57 velocity=109 time=0
note_on channel=4 note=62 velocity=109 time=0
note_on channel=4 note=50 velocity=0 time=23
note_on channel=4 note=57 velocity=0 time=2
note_on channel=4 note=62 velocity=0 time=2
note_on channel=4 note=50 velocity=98 time=21
note_on channel=4 note=57 velocity=92 time=0
note_on channel=4 note=62 velocity=80 time=0
note_on channel=4 note=57 velocity=0 time=10
note_on channel=4 note=62 velocity=0 time=4
note_on channel=4 note=50 velocity=0 time=0
note_on channel=4 note=50 velocity=101 time=10
note_on channel=4 note=57 velocity=101 time=0
note_on channel=4 note=62 velocity=101 time=0
note_on channel=4 note=62 velocity=0 time=11
note_on channel=4 note=57 velocity=0 time=1
note_on channel=4 note=50 velocity=0 time=0
note_on channel=4 note=50 velocity=101 time=12
note_on channel=4 note=57 velocity=101 time=0
note_on channel=4 note=62 velocity=101 time=0
note_on channel=4 note=57 velocity=0 time=9
note_on channel=4 note=50 velocity=0 time=2
note_on channel=4 note=62 velocity=0 time=3
note_on channel=4 note=50 velocity=101 time=10
note_on channel=4 note=57 velocity=101 time=0
note_on channel=4 note=62 velocity=101 time=0
note_on channel=4 note=57 velocity=0 time=11
note_on channel=4 note=62 velocity=0 time=2
note_on channel=4 note=50 velocity=0 time=1
note_on channel=4 note=50 velocity=101 time=10
note_on channel=4 note=57 velocity=101 time=0
note_on channel=4 note=62 velocity=101 time=0
note_on channel=4 note=57 velocity=0 time=7
note_on channel=4 note=50 velocity=0 time=3
note_on channel=4 note=62 velocity=0 time=3
note_on channel=4 note=50 velocity=105 time=11
note_on channel=4 note=57 velocity=105 time=0
note_on channel=4 note=62 velocity=105 time=0
note_on channel=4 note=57 velocity=0 time=45
note_on channel=4 note=50 velocity=0 time=5
note_on channel=4 note=62 velocity=0 time=1
note_on channel=4 note=54 velocity=109 time=909
note_on channel=4 note=61 velocity=115 time=0
note_on channel=4 note=66 velocity=104 time=0
note_on channel=4 note=61 velocity=0 time=48
note_on channel=4 note=54 velocity=0 time=2
note_on channel=4 note=66 velocity=0 time=1
note_on channel=4 note=54 velocity=109 time=141
note_on channel=4 note=61 velocity=121 time=0
note_on channel=4 note=66 velocity=86 time=0
note_on channel=4 note=66 velocity=0 time=44
note_on channel=4 note=61 velocity=0 time=7
note_on channel=4 note=54 velocity=0 time=2
note_on channel=4 note=52 velocity=98 time=19
note_on channel=4 note=59 velocity=98 time=0
note_on channel=4 note=64 velocity=86 time=0
note_on channel=4 note=59 velocity=0 time=45
note_on channel=4 note=52 velocity=0 time=1
note_on channel=4 note=64 velocity=0 time=3
note_on channel=4 note=54 velocity=98 time=23
note_on channel=4 note=61 velocity=121 time=0
note_on channel=4 note=66 velocity=80 time=0
note_on channel=4 note=54 velocity=0 time=58
note_on channel=4 note=66 velocity=0 time=2
note_on channel=4 note=61 velocity=0 time=2
note_on channel=4 note=54 velocity=98 time=178
note_on channel=4 note=61 velocity=121 time=0
note_on channel=4 note=66 velocity=92 time=0
note_on channel=4 note=66 velocity=0 time=50
note_on channel=4 note=54 velocity=0 time=0
note_on channel=4 note=61 velocity=0 time=6
note_on channel=4 note=52 velocity=101 time=16
note_on channel=4 note=59 velocity=101 time=0
note_on channel=4 note=64 velocity=101 time=0
note_on channel=4 note=52 velocity=0 time=50
note_on channel=4 note=59 velocity=0 time=2
note_on channel=4 note=64 velocity=0 time=5
note_on channel=4 note=54 velocity=98 time=15
note_on channel=4 note=61 velocity=121 time=0
note_on channel=4 note=66 velocity=86 time=0
note_on channel=4 note=54 velocity=0 time=53
note_on channel=4 note=66 velocity=0 time=4
note_on channel=4 note=61 velocity=0 time=0
note_on channel=4 note=54 velocity=97 time=183
note_on channel=4 note=61 velocity=97 time=0
note_on channel=4 note=66 velocity=97 time=0
note_on channel=4 note=66 velocity=0 time=37
note_on channel=4 note=61 velocity=0 time=7
note_on channel=4 note=54 velocity=0 time=6
note_on channel=4 note=49 velocity=109 time=22
note_on channel=4 note=56 velocity=109 time=0
note_on channel=4 note=61 velocity=115 time=0
note_on channel=4 note=56 velocity=0 time=32
note_on channel=4 note=61 velocity=0 time=7
note_on channel=4 note=49 velocity=0 time=9
note_on channel=4 note=50 velocity=111 time=24
note_on channel=4 note=57 velocity=111 time=0
note_on channel=4 note=62 velocity=111 time=0
note_on channel=4 note=57 velocity=0 time=408
note_on channel=4 note=62 velocity=0 time=5
note_on channel=4 note=50 velocity=0 time=19
note_on channel=4 note=54 velocity=104 time=0
note_on channel=4 note=61 velocity=127 time=0
note_on channel=4 note=66 velocity=92 time=0
note_on channel=4 note=66 velocity=0 time=57
note_on channel=4 note=54 velocity=0 time=0
note_on channel=4 note=61 velocity=0 time=1
note_on channel=4 note=54 velocity=104 time=134
note_on channel=4 note=61 velocity=121 time=0
note_on channel=4 note=66 velocity=86 time=0
note_on channel=4 note=66 velocity=0 time=48
note_on channel=4 note=54 velocity=0 time=2
note_on channel=4 note=61 velocity=0 time=5
note_on channel=4 note=52 velocity=105 time=17
note_on channel=4 note=59 velocity=105 time=0
note_on channel=4 note=64 velocity=105 time=0
note_on channel=4 note=59 velocity=0 time=52
note_on channel=4 note=52 velocity=0 time=1
note_on channel=4 note=64 velocity=0 time=3
note_on channel=4 note=54 velocity=105 time=16
note_on channel=4 note=61 velocity=105 time=0
note_on channel=4 note=66 velocity=105 time=0
note_on channel=4 note=54 velocity=0 time=57
note_on channel=4 note=66 velocity=0 time=2
note_on channel=4 note=61 velocity=0 time=1
note_on channel=4 note=54 velocity=104 time=180
note_on channel=4 note=61 velocity=115 time=0
note_on channel=4 note=66 velocity=92 time=0
note_on channel=4 note=66 velocity=0 time=45
note_on channel=4 note=54 velocity=0 time=1
note_on channel=4 note=61 velocity=0 time=5
note_on channel=4 note=52 velocity=105 time=21
note_on channel=4 note=59 velocity=105 time=0
note_on channel=4 note=64 velocity=105 time=0
note_on channel=4 note=59 velocity=0 time=49
note_on channel=4 note=64 velocity=0 time=1
note_on channel=4 note=52 velocity=0 time=0
note_on channel=4 note=54 velocity=99 time=22
note_on channel=4 note=61 velocity=99 time=0
note_on channel=4 note=66 velocity=99 time=0
note_on channel=4 note=54 velocity=0 time=55
note_on channel=4 note=66 velocity=0 time=3
note_on channel=4 note=61 velocity=0 time=1
note_on channel=4 note=54 velocity=101 time=181
note_on channel=4 note=61 velocity=101 time=0
note_on channel=4 note=66 velocity=101 time=0
note_on channel=4 note=66 velocity=0 time=47
note_on channel=4 note=61 velocity=0 time=4
note_on channel=4 note=54 velocity=0 time=1
note_on channel=4 note=49 velocity=101 time=20
note_on channel=4 note=56 velocity=101 time=0
note_on channel=4 note=61 velocity=101 time=0
note_on channel=4 note=61 velocity=0 time=45
note_on channel=4 note=56 velocity=0 time=6
note_on channel=4 note=49 velocity=0 time=10
note_on channel=4 note=50 velocity=103 time=11
note_on channel=4 note=57 velocity=103 time=0
note_on channel=4 note=62 velocity=103 time=0
note_on channel=4 note=57 velocity=0 time=421
note_on channel=4 note=62 velocity=0 time=1
note_on channel=4 note=50 velocity=0 time=0
note_on channel=4 note=54 velocity=104 time=10
note_on channel=4 note=61 velocity=115 time=0
note_on channel=4 note=66 velocity=92 time=0
note_on channel=4 note=54 velocity=0 time=73
note_on channel=4 note=61 velocity=0 time=2
note_on channel=4 note=66 velocity=0 time=1
note_on channel=4 note=54 velocity=99 time=68
note_on channel=4 note=61 velocity=99 time=0
note_on channel=4 note=61 velocity=0 time=11
note_on channel=4 note=54 velocity=0 time=1
note_on channel=4 note=54 velocity=99 time=12
note_on channel=4 note=61 velocity=99 time=0
note_on channel=4 note=54 velocity=0 time=13
note_on channel=4 note=61 velocity=0 time=2
note_on channel=4 note=54 velocity=103 time=9
note_on channel=4 note=66 velocity=103 time=0
note_on channel=4 note=69 velocity=103 time=0
note_on channel=4 note=69 velocity=0 time=37
note_on channel=4 note=54 velocity=0 time=0
note_on channel=4 note=66 velocity=0 time=3
note_on channel=4 note=54 velocity=103 time=32
note_on channel=4 note=64 velocity=103 time=0
note_on channel=4 note=68 velocity=103 time=0
note_on channel=4 note=68 velocity=0 time=46
note_on channel=4 note=64 velocity=0 time=0
note_on channel=4 note=54 velocity=0 time=1
note_on channel=4 note=54 velocity=103 time=25
note_on channel=4 note=66 velocity=103 time=0
note_on channel=4 note=69 velocity=103 time=0
note_on channel=4 note=66 velocity=0 time=164
note_on channel=4 note=69 velocity=0 time=4
note_on channel=4 note=54 velocity=0 time=1
note_on channel=4 note=54 velocity=103 time=23
note_on channel=4 note=61 velocity=103 time=0
note_on channel=4 note=54 velocity=0 time=12
note_on channel=4 note=61 velocity=0 time=1
note_on channel=4 note=54 velocity=103 time=11
note_on channel=4 note=61 velocity=103 time=0
note_on channel=4 note=54 velocity=0 time=13
note_on channel=4 note=61 velocity=0 time=2
note_on channel=4 note=54 velocity=103 time=9
note_on channel=4 note=66 velocity=103 time=0
note_on channel=4 note=69 velocity=103 time=0
note_on channel=4 note=69 velocity=0 time=46
note_on channel=4 note=66 velocity=0 time=4
note_on channel=4 note=54 velocity=0 time=2
note_on channel=4 note=54 velocity=103 time=20
note_on channel=4 note=64 velocity=103 time=0
note_on channel=4 note=68 velocity=103 time=0
note_on channel=4 note=54 velocity=0 time=51
note_on channel=4 note=64 velocity=0 time=2
note_on channel=4 note=68 velocity=0 time=1
note_on channel=4 note=54 velocity=103 time=18
note_on channel=4 note=66 velocity=103 time=0
note_on channel=4 note=69 velocity=103 time=0
note_on channel=4 note=54 velocity=0 time=173
note_on channel=4 note=69 velocity=0 time=8
note_on channel=4 note=66 velocity=0 time=1
note_on channel=4 note=54 velocity=103 time=10
note_on channel=4 note=61 velocity=103 time=0
note_on channel=4 note=54 velocity=0 time=9
note_on channel=4 note=61 velocity=0 time=3
note_on channel=4 note=54 velocity=103 time=12
note_on channel=4 note=61 velocity=103 time=0
note_on channel=4 note=54 velocity=0 time=12
note_on channel=4 note=61 velocity=0 time=1
note_on channel=4 note=54 velocity=103 time=11
note_on channel=4 note=61 velocity=103 time=0
note_on channel=4 note=66 velocity=103 time=0
note_on channel=4 note=54 velocity=0 time=45
note_on channel=4 note=66 velocity=0 time=1
note_on channel=4 note=61 velocity=0 time=1
note_on channel=4 note=49 velocity=103 time=25
note_on channel=4 note=56 velocity=103 time=0
note_on channel=4 note=61 velocity=103 time=0
note_on channel=4 note=61 velocity=0 time=52
note_on channel=4 note=56 velocity=0 time=1
note_on channel=4 note=49 velocity=0 time=0
note_on channel=4 note=50 velocity=103 time=19
note_on channel=4 note=57 velocity=103 time=0
note_on channel=4 note=62 velocity=103 time=0
note_on channel=4 note=57 velocity=0 time=400
note_on channel=4 note=62 velocity=0 time=4
note_on channel=4 note=50 velocity=0 time=16
note_on channel=4 note=54 velocity=99 time=12
note_on channel=4 note=61 velocity=99 time=0
note_on channel=4 note=66 velocity=99 time=0
note_on channel=4 note=61 velocity=0 time=69
note_on channel=4 note=54 velocity=0 time=2
note_on channel=4 note=66 velocity=0 time=4
note_on channel=4 note=54 velocity=99 time=69
note_on channel=4 note=61 velocity=99 time=0
note_on channel=4 note=61 velocity=0 time=9
note_on channel=4 note=54 velocity=0 time=1
note_on channel=4 note=54 velocity=101 time=14
note_on channel=4 note=61 velocity=101 time=0
note_on channel=4 note=54 velocity=0 time=14
note_on channel=4 note=61 velocity=0 time=4
note_on channel=4 note=54 velocity=103 time=6
note_on channel=4 note=66 velocity=103 time=0
note_on channel=4 note=69 velocity=103 time=0
note_on channel=4 note=69 velocity=0 time=42
note_on channel=4 note=66 velocity=0 time=3
note_on channel=4 note=54 velocity=0 time=0
note_on channel=4 note=54 velocity=103 time=27
note_on channel=4 note=64 velocity=103 time=0
note_on channel=4 note=68 velocity=103 time=0
note_on channel=4 note=64 velocity=0 time=48
note_on channel=4 note=54 velocity=0 time=0
note_on channel=4 note=68 velocity=0 time=2
note_on channel=4 note=54 velocity=103 time=22
note_on channel=4 note=66 velocity=103 time=0
note_on channel=4 note=69 velocity=103 time=0
note_on channel=4 note=69 velocity=0 time=164
note_on channel=4 note=54 velocity=0 time=3
note_on channel=4 note=66 velocity=0 time=2
note_on channel=4 note=54 velocity=103 time=23
note_on channel=4 note=61 velocity=103 time=0
note_on channel=4 note=61 velocity=0 time=12
note_on channel=4 note=54 velocity=0 time=2
note_on channel=4 note=54 velocity=103 time=10
note_on channel=4 note=61 velocity=103 time=0
note_on channel=4 note=61 velocity=0 time=14
note_on channel=4 note=54 velocity=0 time=0
note_on channel=4 note=54 velocity=103 time=10
note_on channel=4 note=66 velocity=103 time=0
note_on channel=4 note=69 velocity=103 time=0
note_on channel=4 note=69 velocity=0 time=45
note_on channel=4 note=66 velocity=0 time=4
note_on channel=4 note=54 velocity=0 time=0
note_on channel=4 note=54 velocity=103 time=23
note_on channel=4 note=64 velocity=103 time=0
note_on channel=4 note=68 velocity=103 time=0
note_on channel=4 note=54 velocity=0 time=48
note_on channel=4 note=64 velocity=0 time=4
note_on channel=4 note=68 velocity=0 time=1
note_on channel=4 note=54 velocity=101 time=19
note_on channel=4 note=66 velocity=101 time=0
note_on channel=4 note=69 velocity=101 time=0
control_change channel=4 control=7 value=97 time=72
control_change channel=4 control=7 value=97 time=24
control_change channel=4 control=7 value=97 time=24
control_change channel=4 control=7 value=95 time=24
note_on channel=4 note=54 velocity=0 time=21
note_on channel=4 note=66 velocity=0 time=1
note_on channel=4 note=69 velocity=0 time=1
control_change channel=4 control=7 value=95 time=1
control_change channel=4 control=7 value=95 time=24
note_on channel=4 note=54 velocity=103 time=0
note_on channel=4 note=61 velocity=103 time=0
note_on channel=4 note=54 velocity=0 time=11
note_on channel=4 note=61 velocity=0 time=6
control_change channel=4 control=7 value=93 time=7
note_on channel=4 note=54 velocity=103 time=0
note_on channel=4 note=54 velocity=0 time=11
control_change channel=4 control=7 value=93 time=13
note_on channel=4 note=54 velocity=101 time=0
note_on channel=4 note=61 velocity=101 time=0
note_on channel=4 note=66 velocity=101 time=0
control_change channel=4 control=7 value=91 time=24
note_on channel=4 note=66 velocity=0 time=16
note_on channel=4 note=61 velocity=0 time=7
control_change channel=4 control=7 value=91 time=1
note_on channel=4 note=54 velocity=0 time=6
control_change channel=4 control=7 value=91 time=18
note_on channel=4 note=49 velocity=101 time=0
note_on channel=4 note=56 velocity=101 time=0
note_on channel=4 note=61 velocity=101 time=0
control_change channel=4 control=7 value=89 time=24
note_on channel=4 note=61 velocity=0 time=24
note_on channel=4 note=56 velocity=0 time=0
control_change channel=4 control=7 value=89 time=0
note_on channel=4 note=49 velocity=0 time=8
control_change channel=4 control=7 value=87 time=16
note_on channel=4 note=50 velocity=97 time=0
note_on channel=4 note=57 velocity=97 time=0
note_on channel=4 note=62 velocity=97 time=0
control_change channel=4 control=7 value=87 time=24
control_change channel=4 control=7 value=87 time=24
control_change channel=4 control=7 value=85 time=24
control_change channel=4 control=7 value=85 time=24
control_change channel=4 control=7 value=85 time=24
control_change channel=4 control=7 value=83 time=24
control_change channel=4 control=7 value=83 time=24
control_change channel=4 control=7 value=83 time=24
control_change channel=4 control=7 value=81 time=24
control_change channel=4 control=7 value=81 time=24
control_change channel=4 control=7 value=79 time=24
control_change channel=4 control=7 value=79 time=24
control_change channel=4 control=7 value=79 time=24
control_change channel=4 control=7 value=77 time=24
control_change channel=4 control=7 value=77 time=24
control_change channel=4 control=7 value=77 time=24
note_on channel=4 note=62 velocity=0 time=18
note_on channel=4 note=57 velocity=0 time=2
note_on channel=4 note=50 velocity=0 time=1
control_change channel=4 control=7 value=75 time=3
control_change channel=4 control=7 value=75 time=24
note_on channel=4 note=54 velocity=104 time=0
note_on channel=4 note=61 velocity=115 time=0
note_on channel=4 note=66 velocity=92 time=0
control_change channel=4 control=7 value=73 time=24
control_change channel=4 control=7 value=71 time=24
control_change channel=4 control=7 value=73 time=24
note_on channel=4 note=54 velocity=0 time=1
note_on channel=4 note=61 velocity=0 time=2
note_on channel=4 note=66 velocity=0 time=1
control_change channel=4 control=7 value=71 time=20
control_change channel=4 control=7 value=71 time=24
control_change channel=4 control=7 value=69 time=24
note_on channel=4 note=54 velocity=99 time=0
note_on channel=4 note=61 velocity=99 time=0
note_on channel=4 note=61 velocity=0 time=11
note_on channel=4 note=54 velocity=0 time=1
control_change channel=4 control=7 value=71 time=12
note_on channel=4 note=54 velocity=99 time=0
note_on channel=4 note=61 velocity=99 time=0
note_on channel=4 note=54 velocity=0 time=13
note_on channel=4 note=61 velocity=0 time=2
control_change channel=4 control=7 value=69 time=9
note_on channel=4 note=54 velocity=103 time=0
note_on channel=4 note=66 velocity=103 time=0
note_on channel=4 note=69 velocity=103 time=0
control_change channel=4 control=7 value=67 time=24
note_on channel=4 note=69 velocity=0 time=13
note_on channel=4 note=54 velocity=0 time=0
note_on channel=4 note=66 velocity=0 time=3
control_change channel=4 control=7 value=67 time=8
control_change channel=4 control=7 value=67 time=24
note_on channel=4 note=54 velocity=103 time=0
note_on channel=4 note=64 velocity=103 time=0
note_on channel=4 note=68 velocity=103 time=0
control_change channel=4 control=7 value=67 time=24
note_on channel=4 note=68 velocity=0 time=22
note_on channel=4 note=64 velocity=0 time=0
note_on channel=4 note=54 velocity=0 time=1
control_change channel=4 control=7 value=65 time=1
control_change channel=4 control=7 value=63 time=24
note_on channel=4 note=54 velocity=103 time=0
note_on channel=4 note=66 velocity=103 time=0
note_on channel=4 note=69 velocity=103 time=0
control_change channel=4 control=7 value=63 time=24
control_change channel=4 control=7 value=63 time=24
control_change channel=4 control=7 value=63 time=24
control_change channel=4 control=7 value=61 time=24
control_change channel=4 control=7 value=59 time=24
control_change channel=4 control=7 value=59 time=24
note_on channel=4 note=66 velocity=0 time=20
note_on channel=4 note=69 velocity=0 time=4
control_change channel=4 control=7 value=59 time=0
note_on channel=4 note=54 velocity=0 time=1
control_change channel=4 control=7 value=59 time=23
note_on channel=4 note=54 velocity=103 time=0
note_on channel=4 note=61 velocity=103 time=0
note_on channel=4 note=54 velocity=0 time=12
note_on channel=4 note=61 velocity=0 time=1
control_change channel=4 control=7 value=57 time=11
note_on channel=4 note=54 velocity=103 time=0
note_on channel=4 note=61 velocity=103 time=0
note_on channel=4 note=54 velocity=0 time=13
note_on channel=4 note=61 velocity=0 time=2
control_change channel=4 control=7 value=55 time=9
note_on channel=4 note=54 velocity=103 time=0
note_on channel=4 note=66 velocity=103 time=0
note_on channel=4 note=69 velocity=103 time=0
control_change channel=4 control=7 value=55 time=24
note_on channel=4 note=69 velocity=0 time=22
control_change channel=4 control=7 value=55 time=2
note_on channel=4 note=66 velocity=0 time=2
note_on channel=4 note=54 velocity=0 time=2
control_change channel=4 control=7 value=55 time=20
note_on channel=4 note=54 velocity=103 time=0
note_on channel=4 note=64 velocity=103 time=0
note_on channel=4 note=68 velocity=103 time=0
control_change channel=4 control=7 value=53 time=24
control_change channel=4 control=7 value=51 time=24
note_on channel=4 note=54 velocity=0 time=3
note_on channel=4 note=64 velocity=0 time=2
note_on channel=4 note=68 velocity=0 time=1
control_change channel=4 control=7 value=51 time=18
note_on channel=4 note=54 velocity=103 time=0
note_on channel=4 note=66 velocity=103 time=0
note_on channel=4 note=69 velocity=103 time=0
control_change channel=4 control=7 value=49 time=24
control_change channel=4 control=7 value=49 time=24
control_change channel=4 control=7 value=47 time=24
control_change channel=4 control=7 value=47 time=24
control_change channel=4 control=7 value=47 time=24
control_change channel=4 control=7 value=47 time=24
control_change channel=4 control=7 value=47 time=24
note_on channel=4 note=54 velocity=0 time=5
note_on channel=4 note=69 velocity=0 time=8
note_on channel=4 note=66 velocity=0 time=1
control_change channel=4 control=7 value=45 time=10
note_on channel=4 note=54 velocity=103 time=0
note_on channel=4 note=61 velocity=103 time=0
note_on channel=4 note=54 velocity=0 time=9
note_on channel=4 note=61 velocity=0 time=3
control_change channel=4 control=7 value=43 time=12
note_on channel=4 note=54 velocity=103 time=0
note_on channel=4 note=61 velocity=103 time=0
note_on channel=4 note=54 velocity=0 time=12
note_on channel=4 note=61 velocity=0 time=1
control_change channel=4 control=7 value=43 time=11
note_on channel=4 note=54 velocity=103 time=0
note_on channel=4 note=61 velocity=103 time=0
note_on channel=4 note=66 velocity=103 time=0
control_change channel=4 control=7 value=43 time=24
note_on channel=4 note=54 velocity=0 time=21
note_on channel=4 note=66 velocity=0 time=1
note_on channel=4 note=61 velocity=0 time=1
control_change channel=4 control=7 value=43 time=1
control_change channel=4 control=7 value=41 time=24
note_on channel=4 note=49 velocity=103 time=0
note_on channel=4 note=56 velocity=103 time=0
note_on channel=4 note=61 velocity=103 time=0
control_change channel=4 control=7 value=39 time=24
control_change channel=4 control=7 value=39 time=24
note_on channel=4 note=61 velocity=0 time=4
note_on channel=4 note=56 velocity=0 time=1
note_on channel=4 note=49 velocity=0 time=0
control_change channel=4 control=7 value=39 time=19
note_on channel=4 note=50 velocity=103 time=0
note_on channel=4 note=57 velocity=103 time=0
note_on channel=4 note=62 velocity=103 time=0
control_change channel=4 control=7 value=39 time=24
control_change channel=4 control=7 value=37 time=24
control_change channel=4 control=7 value=35 time=24
control_change channel=4 control=7 value=35 time=24
control_change channel=4 control=7 value=35 time=24
control_change channel=4 control=7 value=35 time=24
control_change channel=4 control=7 value=33 time=24
control_change channel=4 control=7 value=33 time=24
control_change channel=4 control=7 value=31 time=24
control_change channel=4 control=7 value=31 time=24
control_change channel=4 control=7 value=31 time=24
control_change channel=4 control=7 value=31 time=24
control_change channel=4 control=7 value=29 time=24
control_change channel=4 control=7 value=27 time=24
control_change channel=4 control=7 value=27 time=24
control_change channel=4 control=7 value=27 time=24
note_on channel=4 note=57 velocity=0 time=16
note_on channel=4 note=62 velocity=0 time=4
control_change channel=4 control=7 value=27 time=4
note_on channel=4 note=50 velocity=0 time=12
control_change channel=4 control=7 value=27 time=12
note_on channel=4 note=54 velocity=99 time=0
note_on channel=4 note=61 velocity=99 time=0
note_on channel=4 note=66 velocity=99 time=0
control_change channel=4 control=7 value=25 time=24
control_change channel=4 control=7 value=25 time=24
note_on channel=4 note=61 velocity=0 time=21
note_on channel=4 note=54 velocity=0 time=2
control_change channel=4 control=7 value=25 time=1
note_on channel=4 note=66 velocity=0 time=3
control_change channel=4 control=7 value=23 time=21
control_change channel=4 control=7 value=23 time=24
control_change channel=4 control=7 value=23 time=24
note_on channel=4 note=54 velocity=99 time=0
note_on channel=4 note=61 velocity=99 time=0
note_on channel=4 note=61 velocity=0 time=9
note_on channel=4 note=54 velocity=0 time=1
control_change channel=4 control=7 value=23 time=14
note_on channel=4 note=54 velocity=101 time=0
note_on channel=4 note=61 velocity=101 time=0
note_on channel=4 note=54 velocity=0 time=14
note_on channel=4 note=61 velocity=0 time=4
control_change channel=4 control=7 value=23 time=6
note_on channel=4 note=54 velocity=103 time=0
note_on channel=4 note=66 velocity=103 time=0
note_on channel=4 note=69 velocity=103 time=0
control_change channel=4 control=7 value=21 time=24
note_on channel=4 note=69 velocity=0 time=18
note_on channel=4 note=66 velocity=0 time=3
note_on channel=4 note=54 velocity=0 time=0
control_change channel=4 control=7 value=21 time=3
control_change channel=4 control=7 value=21 time=24
note_on channel=4 note=54 velocity=103 time=0
note_on channel=4 note=64 velocity=103 time=0
note_on channel=4 note=68 velocity=103 time=0
control_change channel=4 control=7 value=19 time=24
note_on channel=4 note=64 velocity=0 time=24
note_on channel=4 note=54 velocity=0 time=0
control_change channel=4 control=7 value=19 time=0
note_on channel=4 note=68 velocity=0 time=2
control_change channel=4 control=7 value=19 time=22
note_on channel=4 note=54 velocity=103 time=0
note_on channel=4 note=66 velocity=103 time=0
note_on channel=4 note=69 velocity=103 time=0
control_change channel=4 control=7 value=17 time=24
control_change channel=4 control=7 value=17 time=24
control_change channel=4 control=7 value=17 time=24
control_change channel=4 control=7 value=17 time=24
control_change channel=4 control=7 value=17 time=24
control_change channel=4 control=7 value=15 time=24
note_on channel=4 note=69 velocity=0 time=20
note_on channel=4 note=54 velocity=0 time=3
control_change channel=4 control=7 value=15 time=1
note_on channel=4 note=66 velocity=0 time=1
control_change channel=4 control=7 value=15 time=23
note_on channel=4 note=54 velocity=103 time=0
note_on channel=4 note=61 velocity=103 time=0
note_on channel=4 note=61 velocity=0 time=12
note_on channel=4 note=54 velocity=0 time=2
control_change channel=4 control=7 value=15 time=10
note_on channel=4 note=54 velocity=103 time=0
note_on channel=4 note=61 velocity=103 time=0
note_on channel=4 note=61 velocity=0 time=14
note_on channel=4 note=54 velocity=0 time=0
control_change channel=4 control=7 value=15 time=10
note_on channel=4 note=54 velocity=103 time=0
note_on channel=4 note=66 velocity=103 time=0
note_on channel=4 note=69 velocity=103 time=0
control_change channel=4 control=7 value=15 time=24
note_on channel=4 note=69 velocity=0 time=21
control_change channel=4 control=7 value=13 time=3
note_on channel=4 note=66 velocity=0 time=1
note_on channel=4 note=54 velocity=0 time=0
control_change channel=4 control=7 value=13 time=23
note_on channel=4 note=54 velocity=103 time=0
note_on channel=4 note=64 velocity=103 time=0
note_on channel=4 note=68 velocity=103 time=0
control_change channel=4 control=7 value=13 time=24
note_on channel=4 note=54 velocity=0 time=24
control_change channel=4 control=7 value=13 time=0
note_on channel=4 note=64 velocity=0 time=4
note_on channel=4 note=68 velocity=0 time=1
control_change channel=4 control=7 value=13 time=19
note_on channel=4 note=54 velocity=101 time=0
note_on channel=4 note=66 velocity=101 time=0
note_on channel=4 note=69 velocity=101 time=0
control_change channel=4 control=7 value=11 time=24
control_change channel=4 control=7 value=11 time=24
control_change channel=4 control=7 value=11 time=24
control_change channel=4 control=7 value=9 time=24
control_change channel=4 control=7 value=9 time=24
control_change channel=4 control=7 value=9 time=24
note_on channel=4 note=54 velocity=0 time=21
note_on channel=4 note=66 velocity=0 time=1
note_on channel=4 note=69 velocity=0 time=1
control_change channel=4 control=7 value=9 time=1
control_change channel=4 control=7 value=9 time=24
note_on channel=4 note=54 velocity=103 time=0
note_on channel=4 note=61 velocity=103 time=0
note_on channel=4 note=54 velocity=0 time=11
note_on channel=4 note=61 velocity=0 time=6
control_change channel=4 control=7 value=9 time=7
note_on channel=4 note=54 velocity=103 time=0
note_on channel=4 note=54 velocity=0 time=11
control_change channel=4 control=7 value=9 time=13
note_on channel=4 note=54 velocity=101 time=0
note_on channel=4 note=61 velocity=101 time=0
note_on channel=4 note=66 velocity=101 time=0
control_change channel=4 control=7 value=7 time=24
note_on channel=4 note=66 velocity=0 time=16
note_on channel=4 note=61 velocity=0 time=7
control_change channel=4 control=7 value=7 time=1
note_on channel=4 note=54 velocity=0 time=6
control_change channel=4 control=7 value=7 time=18
note_on channel=4 note=49 velocity=101 time=0
note_on channel=4 note=56 velocity=101 time=0
note_on channel=4 note=61 velocity=101 time=0
control_change channel=4 control=7 value=7 time=24
note_on channel=4 note=61 velocity=0 time=24
note_on channel=4 note=56 velocity=0 time=0
control_change channel=4 control=7 value=5 time=0
note_on channel=4 note=49 velocity=0 time=8
control_change channel=4 control=7 value=5 time=16
note_on channel=4 note=50 velocity=97 time=0
note_on channel=4 note=57 velocity=97 time=0
note_on channel=4 note=62 velocity=97 time=0
control_change channel=4 control=7 value=5 time=24
control_change channel=4 control=7 value=5 time=24
control_change channel=4 control=7 value=3 time=24
control_change channel=4 control=7 value=3 time=24
control_change channel=4 control=7 value=3 time=24
control_change channel=4 control=7 value=1 time=24
control_change channel=4 control=7 value=1 time=24
control_change channel=4 control=7 value=0 time=24
control_change channel=4 control=7 value=0 time=24
control_change channel=4 control=7 value=0 time=24
control_change channel=4 control=7 value=0 time=24
control_change channel=4 control=7 value=0 time=24
control_change channel=4 control=7 value=0 time=24
control_change channel=4 control=7 value=0 time=24
control_change channel=4 control=7 value=0 time=24
control_change channel=4 control=7 value=0 time=24
note_on channel=4 note=62 velocity=0 time=18
note_on channel=4 note=57 velocity=0 time=2
note_on channel=4 note=50 velocity=0 time=1
<meta message end_of_track time=0>
<meta message midi_port port=0 time=0>
<meta message track_name name=u'Distort Guitar' time=0>
control_change channel=5 control=0 value=0 time=0
program_change channel=5 program=30 time=0
control_change channel=5 control=7 value=97 time=0
control_change channel=5 control=10 value=44 time=0
note_on channel=5 note=42 velocity=109 time=768
note_on channel=5 note=49 velocity=115 time=0
note_on channel=5 note=54 velocity=104 time=0
note_on channel=5 note=49 velocity=0 time=48
note_on channel=5 note=42 velocity=0 time=2
note_on channel=5 note=54 velocity=0 time=1
note_on channel=5 note=42 velocity=109 time=141
note_on channel=5 note=49 velocity=121 time=0
note_on channel=5 note=54 velocity=86 time=0
note_on channel=5 note=54 velocity=0 time=44
note_on channel=5 note=49 velocity=0 time=7
note_on channel=5 note=42 velocity=0 time=2
note_on channel=5 note=40 velocity=98 time=19
note_on channel=5 note=47 velocity=98 time=0
note_on channel=5 note=52 velocity=86 time=0
note_on channel=5 note=47 velocity=0 time=45
note_on channel=5 note=40 velocity=0 time=1
note_on channel=5 note=52 velocity=0 time=3
note_on channel=5 note=42 velocity=98 time=23
note_on channel=5 note=49 velocity=121 time=0
note_on channel=5 note=54 velocity=80 time=0
note_on channel=5 note=42 velocity=0 time=58
note_on channel=5 note=54 velocity=0 time=2
note_on channel=5 note=49 velocity=0 time=2
note_on channel=5 note=42 velocity=98 time=178
note_on channel=5 note=49 velocity=121 time=0
note_on channel=5 note=54 velocity=92 time=0
note_on channel=5 note=54 velocity=0 time=50
note_on channel=5 note=42 velocity=0 time=0
note_on channel=5 note=49 velocity=0 time=6
note_on channel=5 note=40 velocity=101 time=16
note_on channel=5 note=47 velocity=101 time=0
note_on channel=5 note=52 velocity=101 time=0
note_on channel=5 note=40 velocity=0 time=50
note_on channel=5 note=47 velocity=0 time=2
note_on channel=5 note=52 velocity=0 time=5
note_on channel=5 note=42 velocity=98 time=15
note_on channel=5 note=49 velocity=121 time=0
note_on channel=5 note=54 velocity=86 time=0
note_on channel=5 note=42 velocity=0 time=53
note_on channel=5 note=54 velocity=0 time=4
note_on channel=5 note=49 velocity=0 time=0
note_on channel=5 note=42 velocity=97 time=183
note_on channel=5 note=49 velocity=97 time=0
note_on channel=5 note=54 velocity=97 time=0
note_on channel=5 note=54 velocity=0 time=37
note_on channel=5 note=49 velocity=0 time=7
note_on channel=5 note=42 velocity=0 time=6
note_on channel=5 note=37 velocity=109 time=22
note_on channel=5 note=44 velocity=109 time=0
note_on channel=5 note=49 velocity=115 time=0
note_on channel=5 note=44 velocity=0 time=32
note_on channel=5 note=49 velocity=0 time=7
note_on channel=5 note=37 velocity=0 time=9
note_on channel=5 note=38 velocity=111 time=24
note_on channel=5 note=45 velocity=111 time=0
note_on channel=5 note=50 velocity=111 time=0
note_on channel=5 note=45 velocity=0 time=408
note_on channel=5 note=50 velocity=0 time=5
note_on channel=5 note=38 velocity=0 time=19
note_on channel=5 note=42 velocity=104 time=0
note_on channel=5 note=49 velocity=127 time=0
note_on channel=5 note=54 velocity=92 time=0
note_on channel=5 note=54 velocity=0 time=57
note_on channel=5 note=42 velocity=0 time=0
note_on channel=5 note=49 velocity=0 time=1
note_on channel=5 note=42 velocity=104 time=134
note_on channel=5 note=49 velocity=121 time=0
note_on channel=5 note=54 velocity=86 time=0
note_on channel=5 note=54 velocity=0 time=48
note_on channel=5 note=42 velocity=0 time=2
note_on channel=5 note=49 velocity=0 time=5
note_on channel=5 note=40 velocity=105 time=17
note_on channel=5 note=47 velocity=105 time=0
note_on channel=5 note=52 velocity=105 time=0
note_on channel=5 note=47 velocity=0 time=52
note_on channel=5 note=40 velocity=0 time=1
note_on channel=5 note=52 velocity=0 time=3
note_on channel=5 note=42 velocity=105 time=16
note_on channel=5 note=49 velocity=105 time=0
note_on channel=5 note=54 velocity=105 time=0
note_on channel=5 note=42 velocity=0 time=57
note_on channel=5 note=54 velocity=0 time=2
note_on channel=5 note=49 velocity=0 time=1
note_on channel=5 note=42 velocity=104 time=228
note_on channel=5 note=49 velocity=115 time=0
note_on channel=5 note=54 velocity=92 time=0
note_on channel=5 note=54 velocity=0 time=45
note_on channel=5 note=42 velocity=0 time=1
note_on channel=5 note=49 velocity=0 time=5
note_on channel=5 note=40 velocity=105 time=21
note_on channel=5 note=47 velocity=105 time=0
note_on channel=5 note=52 velocity=105 time=0
note_on channel=5 note=47 velocity=0 time=49
note_on channel=5 note=52 velocity=0 time=1
note_on channel=5 note=40 velocity=0 time=0
note_on channel=5 note=42 velocity=99 time=22
note_on channel=5 note=49 velocity=99 time=0
note_on channel=5 note=54 velocity=99 time=0
note_on channel=5 note=42 velocity=0 time=55
note_on channel=5 note=54 velocity=0 time=3
note_on channel=5 note=49 velocity=0 time=1
note_on channel=5 note=42 velocity=101 time=133
note_on channel=5 note=49 velocity=101 time=0
note_on channel=5 note=54 velocity=101 time=0
note_on channel=5 note=54 velocity=0 time=47
note_on channel=5 note=49 velocity=0 time=4
note_on channel=5 note=42 velocity=0 time=1
note_on channel=5 note=37 velocity=101 time=20
note_on channel=5 note=44 velocity=101 time=0
note_on channel=5 note=49 velocity=101 time=0
note_on channel=5 note=49 velocity=0 time=45
note_on channel=5 note=44 velocity=0 time=6
note_on channel=5 note=37 velocity=0 time=10
note_on channel=5 note=38 velocity=103 time=11
note_on channel=5 note=45 velocity=103 time=0
note_on channel=5 note=50 velocity=103 time=0
note_on channel=5 note=45 velocity=0 time=421
note_on channel=5 note=50 velocity=0 time=1
note_on channel=5 note=38 velocity=0 time=0
note_on channel=5 note=42 velocity=115 time=10
note_on channel=5 note=49 velocity=121 time=0
note_on channel=5 note=54 velocity=92 time=0
note_on channel=5 note=54 velocity=0 time=72
note_on channel=5 note=49 velocity=0 time=0
note_on channel=5 note=42 velocity=0 time=0
note_on channel=5 note=42 velocity=103 time=888
note_on channel=5 note=49 velocity=103 time=0
note_on channel=5 note=54 velocity=103 time=0
note_on channel=5 note=54 velocity=0 time=49
note_on channel=5 note=49 velocity=0 time=7
note_on channel=5 note=42 velocity=0 time=14
note_on channel=5 note=37 velocity=92 time=2
note_on channel=5 note=44 velocity=104 time=0
note_on channel=5 note=49 velocity=115 time=0
note_on channel=5 note=44 velocity=0 time=51
note_on channel=5 note=49 velocity=0 time=3
note_on channel=5 note=37 velocity=0 time=16
note_on channel=5 note=38 velocity=104 time=2
note_on channel=5 note=45 velocity=98 time=0
note_on channel=5 note=50 velocity=92 time=0
note_on channel=5 note=45 velocity=0 time=402
note_on channel=5 note=50 velocity=0 time=6
note_on channel=5 note=38 velocity=0 time=15
note_on channel=5 note=42 velocity=98 time=9
note_on channel=5 note=49 velocity=115 time=0
note_on channel=5 note=54 velocity=92 time=0
note_on channel=5 note=49 velocity=0 time=107
note_on channel=5 note=54 velocity=0 time=4
note_on channel=5 note=42 velocity=0 time=1
note_on channel=5 note=42 velocity=105 time=848
note_on channel=5 note=49 velocity=105 time=0
note_on channel=5 note=54 velocity=105 time=0
note_on channel=5 note=54 velocity=0 time=49
note_on channel=5 note=49 velocity=0 time=6
note_on channel=5 note=42 velocity=0 time=12
note_on channel=5 note=37 velocity=92 time=5
note_on channel=5 note=44 velocity=104 time=0
note_on channel=5 note=49 velocity=109 time=0
note_on channel=5 note=49 velocity=0 time=55
note_on channel=5 note=44 velocity=0 time=0
note_on channel=5 note=37 velocity=0 time=11
note_on channel=5 note=38 velocity=107 time=6
note_on channel=5 note=45 velocity=107 time=0
note_on channel=5 note=50 velocity=107 time=0
note_on channel=5 note=50 velocity=0 time=406
note_on channel=5 note=45 velocity=0 time=2
note_on channel=5 note=38 velocity=0 time=19
note_on channel=5 note=42 velocity=109 time=5
note_on channel=5 note=49 velocity=109 time=0
note_on channel=5 note=54 velocity=109 time=0
note_on channel=5 note=54 velocity=0 time=108
note_on channel=5 note=49 velocity=0 time=3
note_on channel=5 note=42 velocity=0 time=16
note_on channel=5 note=35 velocity=115 time=6785
note_on channel=5 note=42 velocity=98 time=0
note_on channel=5 note=47 velocity=115 time=0
note_on channel=5 note=47 velocity=0 time=308
note_on channel=5 note=52 velocity=98 time=28
note_on channel=5 note=52 velocity=0 time=13
note_on channel=5 note=35 velocity=0 time=3
note_on channel=5 note=52 velocity=95 time=8
note_on channel=5 note=42 velocity=0 time=5
note_on channel=5 note=52 velocity=0 time=9
note_on channel=5 note=37 velocity=103 time=10
note_on channel=5 note=52 velocity=103 time=0
note_on channel=5 note=57 velocity=103 time=0
note_on channel=5 note=57 velocity=0 time=169
note_on channel=5 note=52 velocity=0 time=5
note_on channel=5 note=37 velocity=0 time=15
note_on channel=5 note=40 velocity=98 time=3
note_on channel=5 note=47 velocity=104 time=0
note_on channel=5 note=56 velocity=98 time=0
note_on channel=5 note=47 velocity=0 time=174
note_on channel=5 note=40 velocity=0 time=7
note_on channel=5 note=56 velocity=0 time=3
note_on channel=5 note=35 velocity=115 time=8
note_on channel=5 note=42 velocity=98 time=0
note_on channel=5 note=47 velocity=115 time=0
note_on channel=5 note=35 velocity=0 time=306
note_on channel=5 note=42 velocity=0 time=2
note_on channel=5 note=47 velocity=0 time=27
note_on channel=5 note=42 velocity=104 time=1
note_on channel=5 note=42 velocity=0 time=12
note_on channel=5 note=42 velocity=86 time=12
note_on channel=5 note=42 velocity=0 time=13
note_on channel=5 note=42 velocity=105 time=11
note_on channel=5 note=49 velocity=105 time=0
note_on channel=5 note=54 velocity=105 time=0
note_on channel=5 note=54 velocity=0 time=70
note_on channel=5 note=49 velocity=0 time=10
note_on channel=5 note=42 velocity=0 time=9
note_on channel=5 note=40 velocity=109 time=7
note_on channel=5 note=47 velocity=109 time=0
note_on channel=5 note=52 velocity=98 time=0
note_on channel=5 note=47 velocity=0 time=288
note_on channel=5 note=35 velocity=115 time=0
note_on channel=5 note=42 velocity=115 time=0
note_on channel=5 note=40 velocity=0 time=6
note_on channel=5 note=52 velocity=0 time=2
note_on channel=5 note=52 velocity=92 time=328
note_on channel=5 note=52 velocity=0 time=13
note_on channel=5 note=35 velocity=0 time=8
note_on channel=5 note=52 velocity=76 time=3
note_on channel=5 note=42 velocity=0 time=4
note_on channel=5 note=52 velocity=0 time=8
note_on channel=5 note=37 velocity=115 time=12
note_on channel=5 note=52 velocity=80 time=0
note_on channel=5 note=57 velocity=80 time=0
note_on channel=5 note=57 velocity=0 time=178
note_on channel=5 note=52 velocity=0 time=10
note_on channel=5 note=40 velocity=92 time=4
note_on channel=5 note=47 velocity=109 time=0
note_on channel=5 note=56 velocity=92 time=0
note_on channel=5 note=37 velocity=0 time=5
note_on channel=5 note=47 velocity=0 time=164
note_on channel=5 note=56 velocity=0 time=1
note_on channel=5 note=40 velocity=0 time=1
note_on channel=5 note=35 velocity=109 time=21
note_on channel=5 note=47 velocity=109 time=0
note_on channel=5 note=35 velocity=0 time=58
note_on channel=5 note=47 velocity=0 time=1
note_on channel=5 note=34 velocity=98 time=13
note_on channel=5 note=46 velocity=78 time=0
note_on channel=5 note=46 velocity=0 time=62
note_on channel=5 note=35 velocity=109 time=10
note_on channel=5 note=47 velocity=104 time=0
note_on channel=5 note=34 velocity=0 time=1
note_on channel=5 note=37 velocity=98 time=47
note_on channel=5 note=49 velocity=115 time=0
note_on channel=5 note=47 velocity=0 time=4
note_on channel=5 note=35 velocity=0 time=6
note_on channel=5 note=49 velocity=0 time=59
note_on channel=5 note=35 velocity=115 time=3
note_on channel=5 note=47 velocity=109 time=0
note_on channel=5 note=37 velocity=0 time=2
note_on channel=5 note=35 velocity=0 time=56
note_on channel=5 note=47 velocity=0 time=12
note_on channel=5 note=37 velocity=115 time=2
note_on channel=5 note=49 velocity=121 time=0
note_on channel=5 note=49 velocity=0 time=45
note_on channel=5 note=38 velocity=109 time=3
note_on channel=5 note=50 velocity=104 time=0
note_on channel=5 note=37 velocity=0 time=3
note_on channel=5 note=50 velocity=0 time=234
note_on channel=5 note=38 velocity=0 time=2
note_on channel=5 note=35 velocity=115 time=3985
note_on channel=5 note=42 velocity=98 time=0
note_on channel=5 note=47 velocity=115 time=0
note_on channel=5 note=47 velocity=0 time=308
note_on channel=5 note=52 velocity=98 time=28
note_on channel=5 note=52 velocity=0 time=13
note_on channel=5 note=35 velocity=0 time=3
note_on channel=5 note=52 velocity=95 time=8
note_on channel=5 note=42 velocity=0 time=5
note_on channel=5 note=52 velocity=0 time=9
note_on channel=5 note=37 velocity=103 time=10
note_on channel=5 note=52 velocity=103 time=0
note_on channel=5 note=57 velocity=103 time=0
note_on channel=5 note=57 velocity=0 time=169
note_on channel=5 note=52 velocity=0 time=5
note_on channel=5 note=37 velocity=0 time=15
note_on channel=5 note=40 velocity=98 time=3
note_on channel=5 note=47 velocity=104 time=0
note_on channel=5 note=56 velocity=98 time=0
note_on channel=5 note=47 velocity=0 time=174
note_on channel=5 note=40 velocity=0 time=7
note_on channel=5 note=56 velocity=0 time=3
note_on channel=5 note=35 velocity=115 time=8
note_on channel=5 note=42 velocity=98 time=0
note_on channel=5 note=47 velocity=115 time=0
note_on channel=5 note=35 velocity=0 time=306
note_on channel=5 note=42 velocity=0 time=2
note_on channel=5 note=47 velocity=0 time=27
note_on channel=5 note=42 velocity=104 time=1
note_on channel=5 note=42 velocity=0 time=12
note_on channel=5 note=42 velocity=86 time=12
note_on channel=5 note=42 velocity=0 time=13
note_on channel=5 note=42 velocity=105 time=11
note_on channel=5 note=49 velocity=105 time=0
note_on channel=5 note=54 velocity=105 time=0
note_on channel=5 note=54 velocity=0 time=70
note_on channel=5 note=49 velocity=0 time=10
note_on channel=5 note=42 velocity=0 time=9
note_on channel=5 note=40 velocity=109 time=7
note_on channel=5 note=47 velocity=109 time=0
note_on channel=5 note=52 velocity=98 time=0
note_on channel=5 note=47 velocity=0 time=288
note_on channel=5 note=35 velocity=115 time=0
note_on channel=5 note=42 velocity=115 time=0
note_on channel=5 note=40 velocity=0 time=6
note_on channel=5 note=52 velocity=0 time=2
note_on channel=5 note=52 velocity=92 time=328
note_on channel=5 note=52 velocity=0 time=13
note_on channel=5 note=35 velocity=0 time=8
note_on channel=5 note=52 velocity=76 time=3
note_on channel=5 note=42 velocity=0 time=4
note_on channel=5 note=52 velocity=0 time=8
note_on channel=5 note=37 velocity=115 time=12
note_on channel=5 note=52 velocity=80 time=0
note_on channel=5 note=57 velocity=80 time=0
note_on channel=5 note=57 velocity=0 time=178
note_on channel=5 note=52 velocity=0 time=10
note_on channel=5 note=40 velocity=92 time=4
note_on channel=5 note=47 velocity=109 time=0
note_on channel=5 note=56 velocity=92 time=0
note_on channel=5 note=37 velocity=0 time=5
note_on channel=5 note=47 velocity=0 time=164
note_on channel=5 note=56 velocity=0 time=1
note_on channel=5 note=40 velocity=0 time=1
note_on channel=5 note=35 velocity=109 time=21
note_on channel=5 note=47 velocity=109 time=0
note_on channel=5 note=35 velocity=0 time=58
note_on channel=5 note=47 velocity=0 time=1
note_on channel=5 note=34 velocity=98 time=13
note_on channel=5 note=46 velocity=78 time=0
note_on channel=5 note=46 velocity=0 time=62
note_on channel=5 note=35 velocity=109 time=10
note_on channel=5 note=47 velocity=104 time=0
note_on channel=5 note=34 velocity=0 time=1
note_on channel=5 note=37 velocity=98 time=47
note_on channel=5 note=49 velocity=115 time=0
note_on channel=5 note=47 velocity=0 time=4
note_on channel=5 note=35 velocity=0 time=6
note_on channel=5 note=49 velocity=0 time=59
note_on channel=5 note=35 velocity=115 time=3
note_on channel=5 note=47 velocity=109 time=0
note_on channel=5 note=37 velocity=0 time=2
note_on channel=5 note=35 velocity=0 time=56
note_on channel=5 note=47 velocity=0 time=12
note_on channel=5 note=37 velocity=115 time=2
note_on channel=5 note=49 velocity=121 time=0
note_on channel=5 note=49 velocity=0 time=45
note_on channel=5 note=38 velocity=109 time=3
note_on channel=5 note=50 velocity=104 time=0
note_on channel=5 note=37 velocity=0 time=3
note_on channel=5 note=50 velocity=0 time=234
note_on channel=5 note=38 velocity=0 time=2
note_on channel=5 note=35 velocity=115 time=4753
note_on channel=5 note=42 velocity=98 time=0
note_on channel=5 note=47 velocity=115 time=0
note_on channel=5 note=47 velocity=0 time=308
note_on channel=5 note=52 velocity=98 time=28
note_on channel=5 note=52 velocity=0 time=13
note_on channel=5 note=35 velocity=0 time=3
note_on channel=5 note=52 velocity=95 time=8
note_on channel=5 note=42 velocity=0 time=5
note_on channel=5 note=52 velocity=0 time=9
note_on channel=5 note=37 velocity=103 time=10
note_on channel=5 note=52 velocity=103 time=0
note_on channel=5 note=57 velocity=103 time=0
note_on channel=5 note=57 velocity=0 time=169
note_on channel=5 note=52 velocity=0 time=5
note_on channel=5 note=37 velocity=0 time=15
note_on channel=5 note=40 velocity=98 time=3
note_on channel=5 note=47 velocity=104 time=0
note_on channel=5 note=56 velocity=98 time=0
note_on channel=5 note=47 velocity=0 time=174
note_on channel=5 note=40 velocity=0 time=7
note_on channel=5 note=56 velocity=0 time=3
note_on channel=5 note=35 velocity=115 time=8
note_on channel=5 note=42 velocity=98 time=0
note_on channel=5 note=47 velocity=115 time=0
note_on channel=5 note=35 velocity=0 time=306
note_on channel=5 note=42 velocity=0 time=2
note_on channel=5 note=47 velocity=0 time=27
note_on channel=5 note=42 velocity=104 time=1
note_on channel=5 note=42 velocity=0 time=12
note_on channel=5 note=42 velocity=86 time=12
note_on channel=5 note=42 velocity=0 time=13
note_on channel=5 note=42 velocity=105 time=11
note_on channel=5 note=49 velocity=105 time=0
note_on channel=5 note=54 velocity=105 time=0
note_on channel=5 note=54 velocity=0 time=70
note_on channel=5 note=49 velocity=0 time=10
note_on channel=5 note=42 velocity=0 time=9
note_on channel=5 note=40 velocity=109 time=7
note_on channel=5 note=47 velocity=109 time=0
note_on channel=5 note=52 velocity=98 time=0
note_on channel=5 note=47 velocity=0 time=288
note_on channel=5 note=35 velocity=115 time=0
note_on channel=5 note=42 velocity=115 time=0
note_on channel=5 note=40 velocity=0 time=6
note_on channel=5 note=52 velocity=0 time=2
note_on channel=5 note=52 velocity=92 time=328
note_on channel=5 note=52 velocity=0 time=13
note_on channel=5 note=35 velocity=0 time=8
note_on channel=5 note=52 velocity=76 time=3
note_on channel=5 note=42 velocity=0 time=4
note_on channel=5 note=52 velocity=0 time=8
note_on channel=5 note=37 velocity=115 time=12
note_on channel=5 note=52 velocity=80 time=0
note_on channel=5 note=57 velocity=80 time=0
note_on channel=5 note=57 velocity=0 time=178
note_on channel=5 note=52 velocity=0 time=10
note_on channel=5 note=40 velocity=92 time=4
note_on channel=5 note=47 velocity=109 time=0
note_on channel=5 note=56 velocity=92 time=0
note_on channel=5 note=37 velocity=0 time=5
note_on channel=5 note=47 velocity=0 time=164
note_on channel=5 note=56 velocity=0 time=1
note_on channel=5 note=40 velocity=0 time=1
note_on channel=5 note=35 velocity=109 time=21
note_on channel=5 note=47 velocity=109 time=0
note_on channel=5 note=35 velocity=0 time=58
note_on channel=5 note=47 velocity=0 time=1
note_on channel=5 note=34 velocity=98 time=13
note_on channel=5 note=46 velocity=78 time=0
note_on channel=5 note=46 velocity=0 time=62
note_on channel=5 note=35 velocity=109 time=10
note_on channel=5 note=47 velocity=104 time=0
note_on channel=5 note=34 velocity=0 time=1
note_on channel=5 note=37 velocity=98 time=47
note_on channel=5 note=49 velocity=115 time=0
note_on channel=5 note=47 velocity=0 time=4
note_on channel=5 note=35 velocity=0 time=6
note_on channel=5 note=49 velocity=0 time=59
note_on channel=5 note=35 velocity=115 time=3
note_on channel=5 note=47 velocity=109 time=0
note_on channel=5 note=37 velocity=0 time=2
note_on channel=5 note=35 velocity=0 time=56
note_on channel=5 note=47 velocity=0 time=12
note_on channel=5 note=37 velocity=115 time=2
note_on channel=5 note=49 velocity=121 time=0
note_on channel=5 note=49 velocity=0 time=45
note_on channel=5 note=38 velocity=109 time=3
note_on channel=5 note=50 velocity=104 time=0
note_on channel=5 note=37 velocity=0 time=3
note_on channel=5 note=50 velocity=0 time=381
note_on channel=5 note=38 velocity=0 time=0
note_on channel=5 note=38 velocity=107 time=0
note_on channel=5 note=45 velocity=107 time=0
note_on channel=5 note=50 velocity=107 time=0
note_on channel=5 note=45 velocity=0 time=13
note_on channel=5 note=38 velocity=0 time=2
note_on channel=5 note=50 velocity=0 time=1
note_on channel=5 note=38 velocity=109 time=8
note_on channel=5 note=45 velocity=109 time=0
note_on channel=5 note=50 velocity=109 time=0
note_on channel=5 note=38 velocity=0 time=23
note_on channel=5 note=45 velocity=0 time=2
note_on channel=5 note=50 velocity=0 time=2
note_on channel=5 note=38 velocity=98 time=21
note_on channel=5 note=45 velocity=92 time=0
note_on channel=5 note=50 velocity=80 time=0
note_on channel=5 note=45 velocity=0 time=10
note_on channel=5 note=50 velocity=0 time=4
note_on channel=5 note=38 velocity=0 time=0
note_on channel=5 note=38 velocity=101 time=10
note_on channel=5 note=45 velocity=101 time=0
note_on channel=5 note=50 velocity=101 time=0
note_on channel=5 note=50 velocity=0 time=11
note_on channel=5 note=45 velocity=0 time=1
note_on channel=5 note=38 velocity=0 time=0
note_on channel=5 note=38 velocity=101 time=12
note_on channel=5 note=45 velocity=101 time=0
note_on channel=5 note=50 velocity=101 time=0
note_on channel=5 note=45 velocity=0 time=9
note_on channel=5 note=38 velocity=0 time=2
note_on channel=5 note=50 velocity=0 time=3
note_on channel=5 note=38 velocity=101 time=10
note_on channel=5 note=45 velocity=101 time=0
note_on channel=5 note=50 velocity=101 time=0
note_on channel=5 note=45 velocity=0 time=11
note_on channel=5 note=50 velocity=0 time=2
note_on channel=5 note=38 velocity=0 time=1
note_on channel=5 note=38 velocity=101 time=10
note_on channel=5 note=45 velocity=101 time=0
note_on channel=5 note=50 velocity=101 time=0
note_on channel=5 note=45 velocity=0 time=7
note_on channel=5 note=38 velocity=0 time=3
note_on channel=5 note=50 velocity=0 time=3
note_on channel=5 note=38 velocity=105 time=11
note_on channel=5 note=45 velocity=105 time=0
note_on channel=5 note=50 velocity=105 time=0
note_on channel=5 note=45 velocity=0 time=45
note_on channel=5 note=38 velocity=0 time=5
note_on channel=5 note=50 velocity=0 time=1
note_on channel=5 note=42 velocity=109 time=909
note_on channel=5 note=49 velocity=115 time=0
note_on channel=5 note=54 velocity=104 time=0
note_on channel=5 note=49 velocity=0 time=48
note_on channel=5 note=42 velocity=0 time=2
note_on channel=5 note=54 velocity=0 time=1
note_on channel=5 note=42 velocity=109 time=141
note_on channel=5 note=49 velocity=121 time=0
note_on channel=5 note=54 velocity=86 time=0
note_on channel=5 note=54 velocity=0 time=44
note_on channel=5 note=49 velocity=0 time=7
note_on channel=5 note=42 velocity=0 time=2
note_on channel=5 note=40 velocity=98 time=19
note_on channel=5 note=47 velocity=98 time=0
note_on channel=5 note=52 velocity=86 time=0
note_on channel=5 note=47 velocity=0 time=45
note_on channel=5 note=40 velocity=0 time=1
note_on channel=5 note=52 velocity=0 time=3
note_on channel=5 note=42 velocity=98 time=23
note_on channel=5 note=49 velocity=121 time=0
note_on channel=5 note=54 velocity=80 time=0
note_on channel=5 note=42 velocity=0 time=58
note_on channel=5 note=54 velocity=0 time=2
note_on channel=5 note=49 velocity=0 time=2
note_on channel=5 note=42 velocity=98 time=178
note_on channel=5 note=49 velocity=121 time=0
note_on channel=5 note=54 velocity=92 time=0
note_on channel=5 note=54 velocity=0 time=50
note_on channel=5 note=42 velocity=0 time=0
note_on channel=5 note=49 velocity=0 time=6
note_on channel=5 note=40 velocity=101 time=16
note_on channel=5 note=47 velocity=101 time=0
note_on channel=5 note=52 velocity=101 time=0
note_on channel=5 note=40 velocity=0 time=50
note_on channel=5 note=47 velocity=0 time=2
note_on channel=5 note=52 velocity=0 time=5
note_on channel=5 note=42 velocity=98 time=15
note_on channel=5 note=49 velocity=121 time=0
note_on channel=5 note=54 velocity=86 time=0
note_on channel=5 note=42 velocity=0 time=53
note_on channel=5 note=54 velocity=0 time=4
note_on channel=5 note=49 velocity=0 time=0
note_on channel=5 note=42 velocity=97 time=183
note_on channel=5 note=49 velocity=97 time=0
note_on channel=5 note=54 velocity=97 time=0
note_on channel=5 note=54 velocity=0 time=37
note_on channel=5 note=49 velocity=0 time=7
note_on channel=5 note=42 velocity=0 time=6
note_on channel=5 note=37 velocity=109 time=22
note_on channel=5 note=44 velocity=109 time=0
note_on channel=5 note=49 velocity=115 time=0
note_on channel=5 note=44 velocity=0 time=32
note_on channel=5 note=49 velocity=0 time=7
note_on channel=5 note=37 velocity=0 time=9
note_on channel=5 note=38 velocity=111 time=24
note_on channel=5 note=45 velocity=111 time=0
note_on channel=5 note=50 velocity=111 time=0
note_on channel=5 note=45 velocity=0 time=408
note_on channel=5 note=50 velocity=0 time=5
note_on channel=5 note=38 velocity=0 time=19
note_on channel=5 note=42 velocity=104 time=0
note_on channel=5 note=49 velocity=127 time=0
note_on channel=5 note=54 velocity=92 time=0
note_on channel=5 note=54 velocity=0 time=57
note_on channel=5 note=42 velocity=0 time=0
note_on channel=5 note=49 velocity=0 time=1
note_on channel=5 note=42 velocity=104 time=134
note_on channel=5 note=49 velocity=121 time=0
note_on channel=5 note=54 velocity=86 time=0
note_on channel=5 note=54 velocity=0 time=48
note_on channel=5 note=42 velocity=0 time=2
note_on channel=5 note=49 velocity=0 time=5
note_on channel=5 note=40 velocity=105 time=17
note_on channel=5 note=47 velocity=105 time=0
note_on channel=5 note=52 velocity=105 time=0
note_on channel=5 note=47 velocity=0 time=52
note_on channel=5 note=40 velocity=0 time=1
note_on channel=5 note=52 velocity=0 time=3
note_on channel=5 note=42 velocity=105 time=16
note_on channel=5 note=49 velocity=105 time=0
note_on channel=5 note=54 velocity=105 time=0
note_on channel=5 note=42 velocity=0 time=57
note_on channel=5 note=54 velocity=0 time=2
note_on channel=5 note=49 velocity=0 time=1
note_on channel=5 note=42 velocity=104 time=180
note_on channel=5 note=49 velocity=115 time=0
note_on channel=5 note=54 velocity=92 time=0
note_on channel=5 note=54 velocity=0 time=45
note_on channel=5 note=42 velocity=0 time=1
note_on channel=5 note=49 velocity=0 time=5
note_on channel=5 note=40 velocity=105 time=21
note_on channel=5 note=47 velocity=105 time=0
note_on channel=5 note=52 velocity=105 time=0
note_on channel=5 note=47 velocity=0 time=49
note_on channel=5 note=52 velocity=0 time=1
note_on channel=5 note=40 velocity=0 time=0
note_on channel=5 note=42 velocity=99 time=22
note_on channel=5 note=49 velocity=99 time=0
note_on channel=5 note=54 velocity=99 time=0
note_on channel=5 note=42 velocity=0 time=55
note_on channel=5 note=54 velocity=0 time=3
note_on channel=5 note=49 velocity=0 time=1
note_on channel=5 note=42 velocity=101 time=181
note_on channel=5 note=49 velocity=101 time=0
note_on channel=5 note=54 velocity=101 time=0
note_on channel=5 note=54 velocity=0 time=47
note_on channel=5 note=49 velocity=0 time=4
note_on channel=5 note=42 velocity=0 time=1
note_on channel=5 note=37 velocity=101 time=20
note_on channel=5 note=44 velocity=101 time=0
note_on channel=5 note=49 velocity=101 time=0
note_on channel=5 note=49 velocity=0 time=45
note_on channel=5 note=44 velocity=0 time=6
note_on channel=5 note=37 velocity=0 time=10
note_on channel=5 note=38 velocity=103 time=11
note_on channel=5 note=45 velocity=103 time=0
note_on channel=5 note=50 velocity=103 time=0
note_on channel=5 note=45 velocity=0 time=421
note_on channel=5 note=50 velocity=0 time=1
note_on channel=5 note=38 velocity=0 time=0
note_on channel=5 note=42 velocity=104 time=10
note_on channel=5 note=49 velocity=115 time=0
note_on channel=5 note=54 velocity=92 time=0
note_on channel=5 note=42 velocity=0 time=73
note_on channel=5 note=49 velocity=0 time=2
note_on channel=5 note=54 velocity=0 time=1
note_on channel=5 note=42 velocity=99 time=68
note_on channel=5 note=49 velocity=99 time=0
note_on channel=5 note=49 velocity=0 time=11
note_on channel=5 note=42 velocity=0 time=1
note_on channel=5 note=42 velocity=99 time=12
note_on channel=5 note=49 velocity=99 time=0
note_on channel=5 note=42 velocity=0 time=13
note_on channel=5 note=49 velocity=0 time=2
note_on channel=5 note=42 velocity=103 time=9
note_on channel=5 note=54 velocity=103 time=0
note_on channel=5 note=57 velocity=103 time=0
note_on channel=5 note=57 velocity=0 time=37
note_on channel=5 note=42 velocity=0 time=0
note_on channel=5 note=54 velocity=0 time=3
note_on channel=5 note=42 velocity=103 time=32
note_on channel=5 note=52 velocity=103 time=0
note_on channel=5 note=56 velocity=103 time=0
note_on channel=5 note=56 velocity=0 time=46
note_on channel=5 note=52 velocity=0 time=0
note_on channel=5 note=42 velocity=0 time=1
note_on channel=5 note=42 velocity=103 time=25
note_on channel=5 note=54 velocity=103 time=0
note_on channel=5 note=57 velocity=103 time=0
note_on channel=5 note=54 velocity=0 time=164
note_on channel=5 note=57 velocity=0 time=4
note_on channel=5 note=42 velocity=0 time=1
note_on channel=5 note=42 velocity=103 time=23
note_on channel=5 note=49 velocity=103 time=0
note_on channel=5 note=42 velocity=0 time=12
note_on channel=5 note=49 velocity=0 time=1
note_on channel=5 note=42 velocity=103 time=11
note_on channel=5 note=49 velocity=103 time=0
note_on channel=5 note=42 velocity=0 time=13
note_on channel=5 note=49 velocity=0 time=2
note_on channel=5 note=42 velocity=103 time=9
note_on channel=5 note=54 velocity=103 time=0
note_on channel=5 note=57 velocity=103 time=0
note_on channel=5 note=57 velocity=0 time=46
note_on channel=5 note=54 velocity=0 time=4
note_on channel=5 note=42 velocity=0 time=2
note_on channel=5 note=42 velocity=103 time=20
note_on channel=5 note=52 velocity=103 time=0
note_on channel=5 note=56 velocity=103 time=0
note_on channel=5 note=42 velocity=0 time=51
note_on channel=5 note=52 velocity=0 time=2
note_on channel=5 note=56 velocity=0 time=1
note_on channel=5 note=42 velocity=103 time=18
note_on channel=5 note=54 velocity=103 time=0
note_on channel=5 note=57 velocity=103 time=0
note_on channel=5 note=42 velocity=0 time=173
note_on channel=5 note=57 velocity=0 time=8
note_on channel=5 note=54 velocity=0 time=1
note_on channel=5 note=42 velocity=103 time=10
note_on channel=5 note=49 velocity=103 time=0
note_on channel=5 note=42 velocity=0 time=9
note_on channel=5 note=49 velocity=0 time=3
note_on channel=5 note=42 velocity=103 time=12
note_on channel=5 note=49 velocity=103 time=0
note_on channel=5 note=42 velocity=0 time=12
note_on channel=5 note=49 velocity=0 time=1
note_on channel=5 note=42 velocity=103 time=11
note_on channel=5 note=49 velocity=103 time=0
note_on channel=5 note=54 velocity=103 time=0
note_on channel=5 note=42 velocity=0 time=45
note_on channel=5 note=54 velocity=0 time=1
note_on channel=5 note=49 velocity=0 time=1
note_on channel=5 note=37 velocity=103 time=25
note_on channel=5 note=44 velocity=103 time=0
note_on channel=5 note=49 velocity=103 time=0
note_on channel=5 note=49 velocity=0 time=52
note_on channel=5 note=44 velocity=0 time=1
note_on channel=5 note=37 velocity=0 time=0
note_on channel=5 note=38 velocity=103 time=19
note_on channel=5 note=45 velocity=103 time=0
note_on channel=5 note=50 velocity=103 time=0
note_on channel=5 note=45 velocity=0 time=400
note_on channel=5 note=50 velocity=0 time=4
note_on channel=5 note=38 velocity=0 time=16
note_on channel=5 note=42 velocity=99 time=12
note_on channel=5 note=49 velocity=99 time=0
note_on channel=5 note=54 velocity=99 time=0
note_on channel=5 note=49 velocity=0 time=69
note_on channel=5 note=42 velocity=0 time=2
note_on channel=5 note=54 velocity=0 time=4
note_on channel=5 note=42 velocity=99 time=69
note_on channel=5 note=49 velocity=99 time=0
note_on channel=5 note=49 velocity=0 time=9
note_on channel=5 note=42 velocity=0 time=1
note_on channel=5 note=42 velocity=101 time=14
note_on channel=5 note=49 velocity=101 time=0
note_on channel=5 note=42 velocity=0 time=14
note_on channel=5 note=49 velocity=0 time=4
note_on channel=5 note=42 velocity=103 time=6
note_on channel=5 note=54 velocity=103 time=0
note_on channel=5 note=57 velocity=103 time=0
note_on channel=5 note=57 velocity=0 time=42
note_on channel=5 note=54 velocity=0 time=3
note_on channel=5 note=42 velocity=0 time=0
note_on channel=5 note=42 velocity=103 time=27
note_on channel=5 note=52 velocity=103 time=0
note_on channel=5 note=56 velocity=103 time=0
note_on channel=5 note=52 velocity=0 time=48
note_on channel=5 note=42 velocity=0 time=0
note_on channel=5 note=56 velocity=0 time=2
note_on channel=5 note=42 velocity=103 time=22
note_on channel=5 note=54 velocity=103 time=0
note_on channel=5 note=57 velocity=103 time=0
note_on channel=5 note=57 velocity=0 time=164
note_on channel=5 note=42 velocity=0 time=3
note_on channel=5 note=54 velocity=0 time=2
note_on channel=5 note=42 velocity=103 time=23
note_on channel=5 note=49 velocity=103 time=0
note_on channel=5 note=49 velocity=0 time=12
note_on channel=5 note=42 velocity=0 time=2
note_on channel=5 note=42 velocity=103 time=10
note_on channel=5 note=49 velocity=103 time=0
note_on channel=5 note=49 velocity=0 time=14
note_on channel=5 note=42 velocity=0 time=0
note_on channel=5 note=42 velocity=103 time=10
note_on channel=5 note=54 velocity=103 time=0
note_on channel=5 note=57 velocity=103 time=0
note_on channel=5 note=57 velocity=0 time=45
note_on channel=5 note=54 velocity=0 time=4
note_on channel=5 note=42 velocity=0 time=0
note_on channel=5 note=42 velocity=103 time=23
note_on channel=5 note=52 velocity=103 time=0
note_on channel=5 note=56 velocity=103 time=0
note_on channel=5 note=42 velocity=0 time=48
note_on channel=5 note=52 velocity=0 time=4
note_on channel=5 note=56 velocity=0 time=1
note_on channel=5 note=42 velocity=101 time=19
note_on channel=5 note=54 velocity=101 time=0
note_on channel=5 note=57 velocity=101 time=0
control_change channel=5 control=7 value=99 time=72
control_change channel=5 control=7 value=99 time=24
control_change channel=5 control=7 value=99 time=24
control_change channel=5 control=7 value=97 time=24
note_on channel=5 note=42 velocity=0 time=21
note_on channel=5 note=54 velocity=0 time=1
note_on channel=5 note=57 velocity=0 time=1
control_change channel=5 control=7 value=97 time=1
control_change channel=5 control=7 value=95 time=24
note_on channel=5 note=42 velocity=103 time=0
note_on channel=5 note=49 velocity=103 time=0
note_on channel=5 note=42 velocity=0 time=11
note_on channel=5 note=49 velocity=0 time=6
control_change channel=5 control=7 value=95 time=7
note_on channel=5 note=42 velocity=103 time=0
note_on channel=5 note=42 velocity=0 time=11
control_change channel=5 control=7 value=95 time=13
note_on channel=5 note=42 velocity=101 time=0
note_on channel=5 note=49 velocity=101 time=0
note_on channel=5 note=54 velocity=101 time=0
control_change channel=5 control=7 value=95 time=24
note_on channel=5 note=54 velocity=0 time=16
note_on channel=5 note=49 velocity=0 time=7
control_change channel=5 control=7 value=95 time=1
note_on channel=5 note=42 velocity=0 time=6
control_change channel=5 control=7 value=93 time=18
note_on channel=5 note=37 velocity=101 time=0
note_on channel=5 note=44 velocity=101 time=0
note_on channel=5 note=49 velocity=101 time=0
control_change channel=5 control=7 value=93 time=24
note_on channel=5 note=49 velocity=0 time=24
note_on channel=5 note=44 velocity=0 time=0
control_change channel=5 control=7 value=93 time=0
note_on channel=5 note=37 velocity=0 time=8
control_change channel=5 control=7 value=91 time=16
note_on channel=5 note=38 velocity=97 time=0
note_on channel=5 note=45 velocity=97 time=0
note_on channel=5 note=50 velocity=97 time=0
control_change channel=5 control=7 value=91 time=24
control_change channel=5 control=7 value=91 time=24
control_change channel=5 control=7 value=91 time=24
control_change channel=5 control=7 value=89 time=24
control_change channel=5 control=7 value=89 time=24
control_change channel=5 control=7 value=89 time=24
control_change channel=5 control=7 value=87 time=24
control_change channel=5 control=7 value=87 time=24
control_change channel=5 control=7 value=87 time=24
control_change channel=5 control=7 value=85 time=24
control_change channel=5 control=7 value=85 time=24
control_change channel=5 control=7 value=85 time=24
control_change channel=5 control=7 value=83 time=24
control_change channel=5 control=7 value=83 time=24
control_change channel=5 control=7 value=83 time=24
control_change channel=5 control=7 value=81 time=24
note_on channel=5 note=50 velocity=0 time=18
note_on channel=5 note=45 velocity=0 time=2
note_on channel=5 note=38 velocity=0 time=1
control_change channel=5 control=7 value=81 time=3
control_change channel=5 control=7 value=79 time=24
note_on channel=5 note=42 velocity=104 time=0
note_on channel=5 note=49 velocity=115 time=0
note_on channel=5 note=54 velocity=92 time=0
control_change channel=5 control=7 value=79 time=24
control_change channel=5 control=7 value=79 time=24
control_change channel=5 control=7 value=79 time=24
note_on channel=5 note=42 velocity=0 time=1
note_on channel=5 note=49 velocity=0 time=2
note_on channel=5 note=54 velocity=0 time=1
control_change channel=5 control=7 value=77 time=20
control_change channel=5 control=7 value=77 time=24
control_change channel=5 control=7 value=75 time=24
note_on channel=5 note=42 velocity=99 time=0
note_on channel=5 note=49 velocity=99 time=0
note_on channel=5 note=49 velocity=0 time=11
note_on channel=5 note=42 velocity=0 time=1
control_change channel=5 control=7 value=75 time=12
note_on channel=5 note=42 velocity=99 time=0
note_on channel=5 note=49 velocity=99 time=0
note_on channel=5 note=42 velocity=0 time=13
note_on channel=5 note=49 velocity=0 time=2
control_change channel=5 control=7 value=75 time=9
note_on channel=5 note=42 velocity=103 time=0
note_on channel=5 note=54 velocity=103 time=0
note_on channel=5 note=57 velocity=103 time=0
control_change channel=5 control=7 value=73 time=24
note_on channel=5 note=57 velocity=0 time=13
note_on channel=5 note=42 velocity=0 time=0
note_on channel=5 note=54 velocity=0 time=3
control_change channel=5 control=7 value=73 time=8
control_change channel=5 control=7 value=73 time=24
note_on channel=5 note=42 velocity=103 time=0
note_on channel=5 note=52 velocity=103 time=0
note_on channel=5 note=56 velocity=103 time=0
control_change channel=5 control=7 value=71 time=24
note_on channel=5 note=56 velocity=0 time=22
note_on channel=5 note=52 velocity=0 time=0
note_on channel=5 note=42 velocity=0 time=1
control_change channel=5 control=7 value=71 time=1
control_change channel=5 control=7 value=71 time=24
note_on channel=5 note=42 velocity=103 time=0
note_on channel=5 note=54 velocity=103 time=0
note_on channel=5 note=57 velocity=103 time=0
control_change channel=5 control=7 value=71 time=24
control_change channel=5 control=7 value=69 time=24
control_change channel=5 control=7 value=69 time=24
control_change channel=5 control=7 value=69 time=24
control_change channel=5 control=7 value=67 time=24
control_change channel=5 control=7 value=67 time=24
note_on channel=5 note=54 velocity=0 time=20
note_on channel=5 note=57 velocity=0 time=4
control_change channel=5 control=7 value=67 time=0
note_on channel=5 note=42 velocity=0 time=1
control_change channel=5 control=7 value=67 time=23
note_on channel=5 note=42 velocity=103 time=0
note_on channel=5 note=49 velocity=103 time=0
note_on channel=5 note=42 velocity=0 time=12
note_on channel=5 note=49 velocity=0 time=1
control_change channel=5 control=7 value=67 time=11
note_on channel=5 note=42 velocity=103 time=0
note_on channel=5 note=49 velocity=103 time=0
note_on channel=5 note=42 velocity=0 time=13
note_on channel=5 note=49 velocity=0 time=2
control_change channel=5 control=7 value=65 time=9
note_on channel=5 note=42 velocity=103 time=0
note_on channel=5 note=54 velocity=103 time=0
note_on channel=5 note=57 velocity=103 time=0
control_change channel=5 control=7 value=65 time=24
note_on channel=5 note=57 velocity=0 time=22
control_change channel=5 control=7 value=65 time=2
note_on channel=5 note=54 velocity=0 time=2
note_on channel=5 note=42 velocity=0 time=2
control_change channel=5 control=7 value=63 time=20
note_on channel=5 note=42 velocity=103 time=0
note_on channel=5 note=52 velocity=103 time=0
note_on channel=5 note=56 velocity=103 time=0
control_change channel=5 control=7 value=63 time=24
control_change channel=5 control=7 value=63 time=24
note_on channel=5 note=42 velocity=0 time=3
note_on channel=5 note=52 velocity=0 time=2
note_on channel=5 note=56 velocity=0 time=1
control_change channel=5 control=7 value=63 time=18
note_on channel=5 note=42 velocity=103 time=0
note_on channel=5 note=54 velocity=103 time=0
note_on channel=5 note=57 velocity=103 time=0
control_change channel=5 control=7 value=61 time=24
control_change channel=5 control=7 value=61 time=24
control_change channel=5 control=7 value=61 time=24
control_change channel=5 control=7 value=59 time=24
control_change channel=5 control=7 value=59 time=24
control_change channel=5 control=7 value=59 time=24
control_change channel=5 control=7 value=57 time=24
note_on channel=5 note=42 velocity=0 time=5
note_on channel=5 note=57 velocity=0 time=8
note_on channel=5 note=54 velocity=0 time=1
control_change channel=5 control=7 value=57 time=10
note_on channel=5 note=42 velocity=103 time=0
note_on channel=5 note=49 velocity=103 time=0
note_on channel=5 note=42 velocity=0 time=9
note_on channel=5 note=49 velocity=0 time=3
control_change channel=5 control=7 value=55 time=12
note_on channel=5 note=42 velocity=103 time=0
note_on channel=5 note=49 velocity=103 time=0
note_on channel=5 note=42 velocity=0 time=12
note_on channel=5 note=49 velocity=0 time=1
control_change channel=5 control=7 value=55 time=11
note_on channel=5 note=42 velocity=103 time=0
note_on channel=5 note=49 velocity=103 time=0
note_on channel=5 note=54 velocity=103 time=0
control_change channel=5 control=7 value=55 time=24
note_on channel=5 note=42 velocity=0 time=21
note_on channel=5 note=54 velocity=0 time=1
note_on channel=5 note=49 velocity=0 time=1
control_change channel=5 control=7 value=55 time=1
control_change channel=5 control=7 value=53 time=24
note_on channel=5 note=37 velocity=103 time=0
note_on channel=5 note=44 velocity=103 time=0
note_on channel=5 note=49 velocity=103 time=0
control_change channel=5 control=7 value=53 time=24
control_change channel=5 control=7 value=53 time=24
note_on channel=5 note=49 velocity=0 time=4
note_on channel=5 note=44 velocity=0 time=1
note_on channel=5 note=37 velocity=0 time=0
control_change channel=5 control=7 value=53 time=19
note_on channel=5 note=38 velocity=103 time=0
note_on channel=5 note=45 velocity=103 time=0
note_on channel=5 note=50 velocity=103 time=0
control_change channel=5 control=7 value=51 time=24
control_change channel=5 control=7 value=51 time=24
control_change channel=5 control=7 value=51 time=24
control_change channel=5 control=7 value=49 time=24
control_change channel=5 control=7 value=49 time=24
control_change channel=5 control=7 value=49 time=24
control_change channel=5 control=7 value=49 time=24
control_change channel=5 control=7 value=47 time=24
control_change channel=5 control=7 value=47 time=24
control_change channel=5 control=7 value=47 time=24
control_change channel=5 control=7 value=45 time=24
control_change channel=5 control=7 value=45 time=24
control_change channel=5 control=7 value=45 time=24
control_change channel=5 control=7 value=43 time=24
control_change channel=5 control=7 value=43 time=24
control_change channel=5 control=7 value=41 time=24
note_on channel=5 note=45 velocity=0 time=16
note_on channel=5 note=50 velocity=0 time=4
control_change channel=5 control=7 value=41 time=4
note_on channel=5 note=38 velocity=0 time=12
control_change channel=5 control=7 value=41 time=12
note_on channel=5 note=42 velocity=99 time=0
note_on channel=5 note=49 velocity=99 time=0
note_on channel=5 note=54 velocity=99 time=0
control_change channel=5 control=7 value=41 time=24
control_change channel=5 control=7 value=39 time=24
note_on channel=5 note=49 velocity=0 time=21
note_on channel=5 note=42 velocity=0 time=2
control_change channel=5 control=7 value=39 time=1
note_on channel=5 note=54 velocity=0 time=3
control_change channel=5 control=7 value=37 time=21
control_change channel=5 control=7 value=37 time=24
control_change channel=5 control=7 value=37 time=24
note_on channel=5 note=42 velocity=99 time=0
note_on channel=5 note=49 velocity=99 time=0
note_on channel=5 note=49 velocity=0 time=9
note_on channel=5 note=42 velocity=0 time=1
control_change channel=5 control=7 value=37 time=14
note_on channel=5 note=42 velocity=101 time=0
note_on channel=5 note=49 velocity=101 time=0
note_on channel=5 note=42 velocity=0 time=14
note_on channel=5 note=49 velocity=0 time=4
control_change channel=5 control=7 value=37 time=6
note_on channel=5 note=42 velocity=103 time=0
note_on channel=5 note=54 velocity=103 time=0
note_on channel=5 note=57 velocity=103 time=0
control_change channel=5 control=7 value=35 time=24
note_on channel=5 note=57 velocity=0 time=18
note_on channel=5 note=54 velocity=0 time=3
note_on channel=5 note=42 velocity=0 time=0
control_change channel=5 control=7 value=35 time=3
control_change channel=5 control=7 value=33 time=24
note_on channel=5 note=42 velocity=103 time=0
note_on channel=5 note=52 velocity=103 time=0
note_on channel=5 note=56 velocity=103 time=0
control_change channel=5 control=7 value=33 time=24
note_on channel=5 note=52 velocity=0 time=24
note_on channel=5 note=42 velocity=0 time=0
control_change channel=5 control=7 value=33 time=0
note_on channel=5 note=56 velocity=0 time=2
control_change channel=5 control=7 value=33 time=22
note_on channel=5 note=42 velocity=103 time=0
note_on channel=5 note=54 velocity=103 time=0
note_on channel=5 note=57 velocity=103 time=0
control_change channel=5 control=7 value=31 time=24
control_change channel=5 control=7 value=31 time=24
control_change channel=5 control=7 value=31 time=24
control_change channel=5 control=7 value=29 time=24
control_change channel=5 control=7 value=29 time=24
control_change channel=5 control=7 value=29 time=24
note_on channel=5 note=57 velocity=0 time=20
note_on channel=5 note=42 velocity=0 time=3
control_change channel=5 control=7 value=29 time=1
note_on channel=5 note=54 velocity=0 time=1
control_change channel=5 control=7 value=29 time=23
note_on channel=5 note=42 velocity=103 time=0
note_on channel=5 note=49 velocity=103 time=0
note_on channel=5 note=49 velocity=0 time=12
note_on channel=5 note=42 velocity=0 time=2
control_change channel=5 control=7 value=29 time=10
note_on channel=5 note=42 velocity=103 time=0
note_on channel=5 note=49 velocity=103 time=0
note_on channel=5 note=49 velocity=0 time=14
note_on channel=5 note=42 velocity=0 time=0
control_change channel=5 control=7 value=27 time=10
note_on channel=5 note=42 velocity=103 time=0
note_on channel=5 note=54 velocity=103 time=0
note_on channel=5 note=57 velocity=103 time=0
control_change channel=5 control=7 value=27 time=24
note_on channel=5 note=57 velocity=0 time=21
control_change channel=5 control=7 value=25 time=3
note_on channel=5 note=54 velocity=0 time=1
note_on channel=5 note=42 velocity=0 time=0
control_change channel=5 control=7 value=25 time=23
note_on channel=5 note=42 velocity=103 time=0
note_on channel=5 note=52 velocity=103 time=0
note_on channel=5 note=56 velocity=103 time=0
control_change channel=5 control=7 value=25 time=24
note_on channel=5 note=42 velocity=0 time=24
control_change channel=5 control=7 value=25 time=0
note_on channel=5 note=52 velocity=0 time=4
note_on channel=5 note=56 velocity=0 time=1
control_change channel=5 control=7 value=23 time=19
note_on channel=5 note=42 velocity=101 time=0
note_on channel=5 note=54 velocity=101 time=0
note_on channel=5 note=57 velocity=101 time=0
control_change channel=5 control=7 value=23 time=24
control_change channel=5 control=7 value=23 time=24
control_change channel=5 control=7 value=21 time=24
control_change channel=5 control=7 value=21 time=24
control_change channel=5 control=7 value=21 time=24
control_change channel=5 control=7 value=21 time=24
note_on channel=5 note=42 velocity=0 time=21
note_on channel=5 note=54 velocity=0 time=1
note_on channel=5 note=57 velocity=0 time=1
control_change channel=5 control=7 value=19 time=1
control_change channel=5 control=7 value=19 time=24
note_on channel=5 note=42 velocity=103 time=0
note_on channel=5 note=49 velocity=103 time=0
note_on channel=5 note=42 velocity=0 time=11
note_on channel=5 note=49 velocity=0 time=6
control_change channel=5 control=7 value=19 time=7
note_on channel=5 note=42 velocity=103 time=0
note_on channel=5 note=42 velocity=0 time=11
control_change channel=5 control=7 value=17 time=13
note_on channel=5 note=42 velocity=101 time=0
note_on channel=5 note=49 velocity=101 time=0
note_on channel=5 note=54 velocity=101 time=0
control_change channel=5 control=7 value=17 time=24
note_on channel=5 note=54 velocity=0 time=16
note_on channel=5 note=49 velocity=0 time=7
control_change channel=5 control=7 value=15 time=1
note_on channel=5 note=42 velocity=0 time=6
control_change channel=5 control=7 value=15 time=18
note_on channel=5 note=37 velocity=101 time=0
note_on channel=5 note=44 velocity=101 time=0
note_on channel=5 note=49 velocity=101 time=0
control_change channel=5 control=7 value=15 time=24
note_on channel=5 note=49 velocity=0 time=24
note_on channel=5 note=44 velocity=0 time=0
control_change channel=5 control=7 value=15 time=0
note_on channel=5 note=37 velocity=0 time=8
control_change channel=5 control=7 value=13 time=16
note_on channel=5 note=38 velocity=97 time=0
note_on channel=5 note=45 velocity=97 time=0
note_on channel=5 note=50 velocity=97 time=0
control_change channel=5 control=7 value=13 time=24
control_change channel=5 control=7 value=11 time=24
control_change channel=5 control=7 value=11 time=24
control_change channel=5 control=7 value=11 time=24
control_change channel=5 control=7 value=11 time=24
control_change channel=5 control=7 value=11 time=24
control_change channel=5 control=7 value=9 time=24
control_change channel=5 control=7 value=9 time=24
control_change channel=5 control=7 value=7 time=24
control_change channel=5 control=7 value=7 time=24
control_change channel=5 control=7 value=7 time=24
control_change channel=5 control=7 value=7 time=24
control_change channel=5 control=7 value=5 time=24
control_change channel=5 control=7 value=5 time=24
control_change channel=5 control=7 value=3 time=24
control_change channel=5 control=7 value=3 time=24
note_on channel=5 note=50 velocity=0 time=18
note_on channel=5 note=45 velocity=0 time=2
note_on channel=5 note=38 velocity=0 time=1
control_change channel=5 control=7 value=3 time=3
<meta message end_of_track time=0>
<meta message midi_port port=0 time=0>
<meta message track_name name=u'Strings' time=0>
control_change channel=6 control=0 value=0 time=0
program_change channel=6 program=48 time=0
control_change channel=6 control=7 value=27 time=0
control_change channel=6 control=10 value=64 time=0
control_change channel=6 control=7 value=29 time=32664
control_change channel=6 control=7 value=29 time=24
control_change channel=6 control=7 value=31 time=24
control_change channel=6 control=7 value=31 time=24
control_change channel=6 control=7 value=33 time=24
control_change channel=6 control=7 value=35 time=24
control_change channel=6 control=7 value=35 time=24
control_change channel=6 control=7 value=37 time=24
note_on channel=6 note=66 velocity=76 time=0
note_on channel=6 note=81 velocity=86 time=0
control_change channel=6 control=7 value=39 time=24
control_change channel=6 control=7 value=41 time=24
control_change channel=6 control=7 value=43 time=24
control_change channel=6 control=7 value=45 time=24
control_change channel=6 control=7 value=47 time=24
control_change channel=6 control=7 value=47 time=24
control_change channel=6 control=7 value=49 time=24
control_change channel=6 control=7 value=51 time=24
control_change channel=6 control=7 value=51 time=24
control_change channel=6 control=7 value=53 time=24
control_change channel=6 control=7 value=53 time=24
control_change channel=6 control=7 value=55 time=24
control_change channel=6 control=7 value=55 time=24
control_change channel=6 control=7 value=59 time=24
control_change channel=6 control=7 value=59 time=24
control_change channel=6 control=7 value=61 time=24
control_change channel=6 control=7 value=63 time=24
control_change channel=6 control=7 value=63 time=24
control_change channel=6 control=7 value=65 time=24
control_change channel=6 control=7 value=67 time=24
control_change channel=6 control=7 value=67 time=24
control_change channel=6 control=7 value=69 time=24
control_change channel=6 control=7 value=71 time=24
control_change channel=6 control=7 value=73 time=24
control_change channel=6 control=7 value=73 time=24
control_change channel=6 control=7 value=75 time=24
control_change channel=6 control=7 value=77 time=24
control_change channel=6 control=7 value=79 time=24
control_change channel=6 control=7 value=83 time=24
control_change channel=6 control=7 value=85 time=24
control_change channel=6 control=7 value=87 time=24
control_change channel=6 control=7 value=87 time=24
control_change channel=6 control=7 value=87 time=24
control_change channel=6 control=7 value=89 time=24
control_change channel=6 control=7 value=91 time=24
control_change channel=6 control=7 value=91 time=24
control_change channel=6 control=7 value=93 time=24
control_change channel=6 control=7 value=97 time=24
control_change channel=6 control=7 value=97 time=24
control_change channel=6 control=7 value=99 time=24
note_on channel=6 note=86 velocity=92 time=0
control_change channel=6 control=7 value=101 time=24
control_change channel=6 control=7 value=103 time=48
control_change channel=6 control=7 value=103 time=24
control_change channel=6 control=7 value=105 time=24
control_change channel=6 control=7 value=107 time=24
control_change channel=6 control=7 value=107 time=24
control_change channel=6 control=7 value=107 time=24
control_change channel=6 control=7 value=107 time=24
control_change channel=6 control=7 value=107 time=24
control_change channel=6 control=7 value=107 time=24
control_change channel=6 control=7 value=107 time=24
control_change channel=6 control=7 value=107 time=24
control_change channel=6 control=7 value=107 time=24
note_on channel=6 note=81 velocity=0 time=24
note_on channel=6 note=66 velocity=0 time=0
control_change channel=6 control=7 value=107 time=0
note_on channel=6 note=86 velocity=0 time=10
control_change channel=6 control=7 value=105 time=14
note_on channel=6 note=66 velocity=74 time=0
note_on channel=6 note=81 velocity=66 time=0
note_on channel=6 note=85 velocity=104 time=0
control_change channel=6 control=7 value=105 time=24
control_change channel=6 control=7 value=111 time=24
control_change channel=6 control=7 value=99 time=24
note_on channel=6 note=66 velocity=0 time=24
control_change channel=6 control=7 value=95 time=0
note_on channel=6 note=81 velocity=0 time=6
note_on channel=6 note=85 velocity=0 time=1
control_change channel=6 control=7 value=87 time=17
control_change channel=6 control=7 value=79 time=24
control_change channel=6 control=7 value=37 time=24
control_change channel=6 control=7 value=31 time=24
control_change channel=6 control=7 value=21 time=24
control_change channel=6 control=7 value=19 time=24
control_change channel=6 control=7 value=25 time=24
control_change channel=6 control=7 value=27 time=24
control_change channel=6 control=7 value=29 time=24
control_change channel=6 control=7 value=31 time=24
control_change channel=6 control=7 value=33 time=24
control_change channel=6 control=7 value=35 time=24
control_change channel=6 control=7 value=37 time=24
control_change channel=6 control=7 value=39 time=24
control_change channel=6 control=7 value=41 time=24
control_change channel=6 control=7 value=45 time=24
note_on channel=6 note=66 velocity=74 time=0
note_on channel=6 note=81 velocity=70 time=0
control_change channel=6 control=7 value=47 time=24
control_change channel=6 control=7 value=49 time=24
control_change channel=6 control=7 value=51 time=24
control_change channel=6 control=7 value=53 time=24
control_change channel=6 control=7 value=55 time=24
control_change channel=6 control=7 value=57 time=24
control_change channel=6 control=7 value=59 time=24
control_change channel=6 control=7 value=63 time=24
control_change channel=6 control=7 value=65 time=24
control_change channel=6 control=7 value=67 time=24
control_change channel=6 control=7 value=74 time=24
control_change channel=6 control=7 value=75 time=24
control_change channel=6 control=7 value=79 time=24
control_change channel=6 control=7 value=80 time=24
control_change channel=6 control=7 value=82 time=24
control_change channel=6 control=7 value=84 time=24
control_change channel=6 control=7 value=87 time=24
control_change channel=6 control=7 value=89 time=24
control_change channel=6 control=7 value=90 time=24
control_change channel=6 control=7 value=92 time=24
control_change channel=6 control=7 value=92 time=24
control_change channel=6 control=7 value=94 time=24
control_change channel=6 control=7 value=95 time=24
control_change channel=6 control=7 value=97 time=24
control_change channel=6 control=7 value=99 time=24
control_change channel=6 control=7 value=99 time=24
control_change channel=6 control=7 value=101 time=24
control_change channel=6 control=7 value=102 time=24
note_on channel=6 note=86 velocity=86 time=0
control_change channel=6 control=7 value=104 time=24
control_change channel=6 control=7 value=106 time=24
control_change channel=6 control=7 value=106 time=24
control_change channel=6 control=7 value=106 time=24
control_change channel=6 control=7 value=107 time=24
control_change channel=6 control=7 value=107 time=24
control_change channel=6 control=7 value=109 time=24
control_change channel=6 control=7 value=109 time=24
control_change channel=6 control=7 value=109 time=24
control_change channel=6 control=7 value=109 time=24
control_change channel=6 control=7 value=109 time=24
control_change channel=6 control=7 value=109 time=24
control_change channel=6 control=7 value=107 time=24
control_change channel=6 control=7 value=107 time=24
control_change channel=6 control=7 value=107 time=24
note_on channel=6 note=86 velocity=0 time=7
note_on channel=6 note=66 velocity=0 time=0
note_on channel=6 note=81 velocity=0 time=6
control_change channel=6 control=7 value=107 time=11
note_on channel=6 note=66 velocity=70 time=0
note_on channel=6 note=81 velocity=58 time=0
note_on channel=6 note=85 velocity=98 time=0
control_change channel=6 control=7 value=107 time=24
control_change channel=6 control=7 value=105 time=24
control_change channel=6 control=7 value=103 time=24
control_change channel=6 control=7 value=101 time=24
note_on channel=6 note=66 velocity=0 time=2
note_on channel=6 note=81 velocity=0 time=5
note_on channel=6 note=85 velocity=0 time=1
control_change channel=6 control=7 value=89 time=16
control_change channel=6 control=7 value=85 time=24
control_change channel=6 control=7 value=83 time=24
control_change channel=6 control=7 value=77 time=24
control_change channel=6 control=7 value=65 time=24
control_change channel=6 control=7 value=51 time=24
control_change channel=6 control=7 value=39 time=24
control_change channel=6 control=7 value=33 time=24
control_change channel=6 control=7 value=6 time=24
control_change channel=6 control=7 value=6 time=24
control_change channel=6 control=7 value=6 time=24
control_change channel=6 control=7 value=6 time=24
control_change channel=6 control=7 value=6 time=24
control_change channel=6 control=7 value=8 time=24
control_change channel=6 control=7 value=8 time=24
control_change channel=6 control=7 value=10 time=24
control_change channel=6 control=7 value=11 time=24
control_change channel=6 control=7 value=15 time=24
control_change channel=6 control=7 value=18 time=24
control_change channel=6 control=7 value=21 time=24
note_on channel=6 note=66 velocity=74 time=0
note_on channel=6 note=81 velocity=80 time=0
control_change channel=6 control=7 value=25 time=24
control_change channel=6 control=7 value=28 time=24
control_change channel=6 control=7 value=31 time=24
control_change channel=6 control=7 value=33 time=24
control_change channel=6 control=7 value=38 time=24
control_change channel=6 control=7 value=40 time=24
control_change channel=6 control=7 value=45 time=24
control_change channel=6 control=7 value=45 time=24
control_change channel=6 control=7 value=52 time=24
control_change channel=6 control=7 value=55 time=24
control_change channel=6 control=7 value=58 time=24
control_change channel=6 control=7 value=62 time=24
control_change channel=6 control=7 value=67 time=24
control_change channel=6 control=7 value=69 time=24
control_change channel=6 control=7 value=74 time=24
control_change channel=6 control=7 value=75 time=24
control_change channel=6 control=7 value=80 time=24
control_change channel=6 control=7 value=82 time=24
control_change channel=6 control=7 value=87 time=24
control_change channel=6 control=7 value=89 time=24
control_change channel=6 control=7 value=95 time=24
control_change channel=6 control=7 value=97 time=24
control_change channel=6 control=7 value=102 time=24
control_change channel=6 control=7 value=104 time=24
note_on channel=6 note=86 velocity=92 time=0
control_change channel=6 control=7 value=107 time=24
control_change channel=6 control=7 value=109 time=24
control_change channel=6 control=7 value=109 time=24
control_change channel=6 control=7 value=111 time=24
control_change channel=6 control=7 value=111 time=24
control_change channel=6 control=7 value=111 time=24
control_change channel=6 control=7 value=111 time=24
control_change channel=6 control=7 value=111 time=24
control_change channel=6 control=7 value=111 time=24
control_change channel=6 control=7 value=111 time=24
control_change channel=6 control=7 value=111 time=24
control_change channel=6 control=7 value=111 time=24
control_change channel=6 control=7 value=111 time=24
control_change channel=6 control=7 value=111 time=24
control_change channel=6 control=7 value=111 time=24
note_on channel=6 note=86 velocity=0 time=1
note_on channel=6 note=66 velocity=0 time=5
note_on channel=6 note=81 velocity=0 time=5
control_change channel=6 control=7 value=111 time=13
note_on channel=6 note=66 velocity=74 time=0
note_on channel=6 note=81 velocity=70 time=0
note_on channel=6 note=85 velocity=104 time=0
control_change channel=6 control=7 value=111 time=24
control_change channel=6 control=7 value=111 time=24
control_change channel=6 control=7 value=111 time=24
note_on channel=6 note=66 velocity=0 time=22
control_change channel=6 control=7 value=111 time=2
note_on channel=6 note=85 velocity=0 time=5
note_on channel=6 note=81 velocity=0 time=1
control_change channel=6 control=7 value=109 time=18
control_change channel=6 control=7 value=102 time=24
control_change channel=6 control=7 value=99 time=24
control_change channel=6 control=7 value=94 time=24
control_change channel=6 control=7 value=89 time=24
control_change channel=6 control=7 value=63 time=24
control_change channel=6 control=7 value=58 time=24
control_change channel=6 control=7 value=38 time=24
control_change channel=6 control=7 value=31 time=24
control_change channel=6 control=7 value=16 time=24
control_change channel=6 control=7 value=13 time=24
control_change channel=6 control=7 value=10 time=24
control_change channel=6 control=7 value=6 time=24
control_change channel=6 control=7 value=5 time=24
control_change channel=6 control=7 value=3 time=24
control_change channel=6 control=7 value=5 time=24
control_change channel=6 control=7 value=5 time=24
control_change channel=6 control=7 value=6 time=24
control_change channel=6 control=7 value=6 time=24
control_change channel=6 control=7 value=10 time=24
note_on channel=6 note=66 velocity=72 time=0
note_on channel=6 note=81 velocity=80 time=0
control_change channel=6 control=7 value=11 time=24
control_change channel=6 control=7 value=13 time=24
control_change channel=6 control=7 value=16 time=24
control_change channel=6 control=7 value=20 time=24
control_change channel=6 control=7 value=25 time=24
control_change channel=6 control=7 value=28 time=24
control_change channel=6 control=7 value=30 time=24
control_change channel=6 control=7 value=33 time=24
control_change channel=6 control=7 value=37 time=24
control_change channel=6 control=7 value=40 time=24
control_change channel=6 control=7 value=42 time=24
control_change channel=6 control=7 value=43 time=24
control_change channel=6 control=7 value=47 time=24
control_change channel=6 control=7 value=48 time=24
control_change channel=6 control=7 value=50 time=24
control_change channel=6 control=7 value=53 time=24
control_change channel=6 control=7 value=57 time=24
control_change channel=6 control=7 value=58 time=24
control_change channel=6 control=7 value=60 time=24
control_change channel=6 control=7 value=63 time=24
control_change channel=6 control=7 value=65 time=24
control_change channel=6 control=7 value=69 time=24
control_change channel=6 control=7 value=69 time=24
control_change channel=6 control=7 value=70 time=24
note_on channel=6 note=86 velocity=80 time=0
control_change channel=6 control=7 value=72 time=24
control_change channel=6 control=7 value=72 time=24
control_change channel=6 control=7 value=72 time=24
control_change channel=6 control=7 value=72 time=24
control_change channel=6 control=7 value=72 time=24
control_change channel=6 control=7 value=72 time=24
control_change channel=6 control=7 value=72 time=24
control_change channel=6 control=7 value=72 time=24
control_change channel=6 control=7 value=72 time=24
control_change channel=6 control=7 value=72 time=24
control_change channel=6 control=7 value=72 time=24
control_change channel=6 control=7 value=72 time=24
control_change channel=6 control=7 value=72 time=24
control_change channel=6 control=7 value=69 time=24
control_change channel=6 control=7 value=65 time=24
note_on channel=6 note=66 velocity=0 time=4
note_on channel=6 note=86 velocity=0 time=8
note_on channel=6 note=81 velocity=0 time=3
control_change channel=6 control=7 value=63 time=9
control_change channel=6 control=7 value=63 time=0
control_change channel=6 control=7 value=58 time=24
control_change channel=6 control=7 value=58 time=0
control_change channel=6 control=7 value=42 time=24
control_change channel=6 control=7 value=42 time=0
control_change channel=6 control=7 value=40 time=24
control_change channel=6 control=7 value=40 time=0
control_change channel=6 control=7 value=30 time=24
control_change channel=6 control=7 value=30 time=0
control_change channel=6 control=7 value=23 time=24
control_change channel=6 control=7 value=15 time=24
control_change channel=6 control=7 value=13 time=24
control_change channel=6 control=7 value=11 time=24
note_on channel=6 note=66 velocity=76 time=0
note_on channel=6 note=81 velocity=86 time=0
control_change channel=6 control=7 value=10 time=24
control_change channel=6 control=7 value=10 time=24
control_change channel=6 control=7 value=8 time=24
control_change channel=6 control=7 value=8 time=24
control_change channel=6 control=7 value=8 time=24
control_change channel=6 control=7 value=8 time=24
control_change channel=6 control=7 value=8 time=24
control_change channel=6 control=7 value=10 time=24
control_change channel=6 control=7 value=11 time=24
control_change channel=6 control=7 value=13 time=24
control_change channel=6 control=7 value=15 time=24
control_change channel=6 control=7 value=15 time=24
control_change channel=6 control=7 value=16 time=24
control_change channel=6 control=7 value=16 time=24
control_change channel=6 control=7 value=18 time=24
control_change channel=6 control=7 value=20 time=24
control_change channel=6 control=7 value=20 time=24
control_change channel=6 control=7 value=21 time=24
control_change channel=6 control=7 value=23 time=24
control_change channel=6 control=7 value=25 time=24
control_change channel=6 control=7 value=26 time=24
control_change channel=6 control=7 value=28 time=24
control_change channel=6 control=7 value=30 time=24
control_change channel=6 control=7 value=38 time=24
control_change channel=6 control=7 value=38 time=24
control_change channel=6 control=7 value=38 time=24
control_change channel=6 control=7 value=40 time=24
control_change channel=6 control=7 value=40 time=24
control_change channel=6 control=7 value=40 time=24
control_change channel=6 control=7 value=42 time=24
control_change channel=6 control=7 value=42 time=24
control_change channel=6 control=7 value=43 time=24
control_change channel=6 control=7 value=43 time=24
control_change channel=6 control=7 value=45 time=24
control_change channel=6 control=7 value=47 time=24
control_change channel=6 control=7 value=47 time=24
control_change channel=6 control=7 value=47 time=24
control_change channel=6 control=7 value=48 time=24
control_change channel=6 control=7 value=48 time=24
control_change channel=6 control=7 value=48 time=24
note_on channel=6 note=86 velocity=92 time=0
control_change channel=6 control=7 value=48 time=24
control_change channel=6 control=7 value=48 time=48
control_change channel=6 control=7 value=48 time=24
control_change channel=6 control=7 value=48 time=24
control_change channel=6 control=7 value=48 time=24
control_change channel=6 control=7 value=48 time=24
control_change channel=6 control=7 value=48 time=24
control_change channel=6 control=7 value=48 time=24
control_change channel=6 control=7 value=48 time=24
control_change channel=6 control=7 value=48 time=24
control_change channel=6 control=7 value=47 time=24
control_change channel=6 control=7 value=45 time=24
control_change channel=6 control=7 value=45 time=24
note_on channel=6 note=81 velocity=0 time=24
note_on channel=6 note=66 velocity=0 time=0
control_change channel=6 control=7 value=43 time=0
note_on channel=6 note=86 velocity=0 time=10
control_change channel=6 control=7 value=42 time=14
note_on channel=6 note=66 velocity=74 time=0
note_on channel=6 note=81 velocity=66 time=0
note_on channel=6 note=85 velocity=104 time=0
control_change channel=6 control=7 value=42 time=24
control_change channel=6 control=7 value=42 time=24
control_change channel=6 control=7 value=40 time=24
note_on channel=6 note=66 velocity=0 time=24
control_change channel=6 control=7 value=38 time=0
note_on channel=6 note=81 velocity=0 time=6
note_on channel=6 note=85 velocity=0 time=1
control_change channel=6 control=7 value=38 time=17
control_change channel=6 control=7 value=35 time=24
control_change channel=6 control=7 value=35 time=24
control_change channel=6 control=7 value=31 time=24
control_change channel=6 control=7 value=30 time=24
control_change channel=6 control=7 value=26 time=24
control_change channel=6 control=7 value=25 time=24
control_change channel=6 control=7 value=21 time=24
control_change channel=6 control=7 value=21 time=24
control_change channel=6 control=7 value=18 time=24
control_change channel=6 control=7 value=15 time=24
control_change channel=6 control=7 value=11 time=24
control_change channel=6 control=7 value=13 time=24
control_change channel=6 control=7 value=11 time=24
control_change channel=6 control=7 value=11 time=24
control_change channel=6 control=7 value=9 time=24
note_on channel=6 note=66 velocity=74 time=0
note_on channel=6 note=81 velocity=70 time=0
control_change channel=6 control=7 value=7 time=24
control_change channel=6 control=7 value=7 time=24
control_change channel=6 control=7 value=5 time=24
control_change channel=6 control=7 value=5 time=24
control_change channel=6 control=7 value=5 time=24
control_change channel=6 control=7 value=5 time=24
control_change channel=6 control=7 value=5 time=24
control_change channel=6 control=7 value=5 time=24
control_change channel=6 control=7 value=5 time=24
control_change channel=6 control=7 value=5 time=24
control_change channel=6 control=7 value=5 time=24
control_change channel=6 control=7 value=5 time=24
control_change channel=6 control=7 value=9 time=24
control_change channel=6 control=7 value=9 time=24
control_change channel=6 control=7 value=9 time=24
control_change channel=6 control=7 value=11 time=24
control_change channel=6 control=7 value=11 time=24
control_change channel=6 control=7 value=11 time=24
control_change channel=6 control=7 value=11 time=24
control_change channel=6 control=7 value=11 time=24
control_change channel=6 control=7 value=11 time=24
control_change channel=6 control=7 value=13 time=24
control_change channel=6 control=7 value=15 time=24
control_change channel=6 control=7 value=15 time=24
control_change channel=6 control=7 value=15 time=24
control_change channel=6 control=7 value=15 time=24
control_change channel=6 control=7 value=15 time=24
control_change channel=6 control=7 value=15 time=24
note_on channel=6 note=86 velocity=86 time=0
control_change channel=6 control=7 value=15 time=24
control_change channel=6 control=7 value=15 time=24
control_change channel=6 control=7 value=13 time=24
control_change channel=6 control=7 value=11 time=24
control_change channel=6 control=7 value=9 time=24
control_change channel=6 control=7 value=5 time=24
control_change channel=6 control=7 value=5 time=24
control_change channel=6 control=7 value=3 time=24
control_change channel=6 control=7 value=1 time=24
control_change channel=6 control=7 value=0 time=24
control_change channel=6 control=7 value=0 time=24
control_change channel=6 control=7 value=0 time=24
control_change channel=6 control=7 value=0 time=24
control_change channel=6 control=7 value=0 time=24
control_change channel=6 control=7 value=0 time=24
note_on channel=6 note=86 velocity=0 time=7
note_on channel=6 note=66 velocity=0 time=0
note_on channel=6 note=81 velocity=0 time=6
<meta message end_of_track time=0>
<meta message midi_port port=0 time=0>
<meta message track_name name=u'Brass' time=0>
control_change channel=7 control=0 value=0 time=0
program_change channel=7 program=63 time=0
control_change channel=7 control=7 value=127 time=0
control_change channel=7 control=10 value=64 time=0
note_on channel=7 note=61 velocity=101 time=7776
note_on channel=7 note=61 velocity=0 time=48
note_on channel=7 note=64 velocity=101 time=0
note_on channel=7 note=61 velocity=101 time=24
note_on channel=7 note=64 velocity=0 time=10
note_on channel=7 note=61 velocity=0 time=48
note_on channel=7 note=59 velocity=105 time=158
note_on channel=7 note=59 velocity=0 time=43
note_on channel=7 note=57 velocity=81 time=5
note_on channel=7 note=61 velocity=105 time=48
note_on channel=7 note=57 velocity=0 time=4
note_on channel=7 note=61 velocity=0 time=43
note_on channel=7 note=59 velocity=105 time=1
note_on channel=7 note=57 velocity=73 time=48
note_on channel=7 note=59 velocity=0 time=3
note_on channel=7 note=57 velocity=0 time=41
note_on channel=7 note=59 velocity=104 time=244
note_on channel=7 note=59 velocity=0 time=23
note_on channel=7 note=57 velocity=86 time=1
note_on channel=7 note=57 velocity=0 time=58
note_on channel=7 note=59 velocity=115 time=14
note_on channel=7 note=59 velocity=0 time=49
note_on channel=7 note=59 velocity=115 time=47
note_on channel=7 note=59 velocity=0 time=22
note_on channel=7 note=61 velocity=104 time=2
note_on channel=7 note=61 velocity=0 time=55
note_on channel=7 note=59 velocity=109 time=17
note_on channel=7 note=57 velocity=98 time=96
note_on channel=7 note=59 velocity=0 time=1
note_on channel=7 note=57 velocity=0 time=48
note_on channel=7 note=61 velocity=93 time=335
note_on channel=7 note=61 velocity=0 time=33
note_on channel=7 note=64 velocity=78 time=15
note_on channel=7 note=64 velocity=0 time=18
note_on channel=7 note=66 velocity=103 time=6
note_on channel=7 note=61 velocity=98 time=72
note_on channel=7 note=66 velocity=0 time=5
note_on channel=7 note=61 velocity=0 time=43
note_on channel=7 note=59 velocity=98 time=0
note_on channel=7 note=59 velocity=0 time=43
note_on channel=7 note=57 velocity=64 time=5
note_on channel=7 note=57 velocity=0 time=44
note_on channel=7 note=61 velocity=109 time=4
note_on channel=7 note=61 velocity=0 time=69
note_on channel=7 note=59 velocity=101 time=3
note_on channel=7 note=59 velocity=0 time=49
note_on channel=7 note=59 velocity=95 time=23
note_on channel=7 note=59 velocity=0 time=45
note_on channel=7 note=57 velocity=80 time=3
note_on channel=7 note=57 velocity=0 time=51
note_on channel=7 note=54 velocity=78 time=45
note_on channel=7 note=54 velocity=0 time=30
note_on channel=7 note=57 velocity=91 time=18
note_on channel=7 note=57 velocity=0 time=17
note_on channel=7 note=59 velocity=115 time=7
note_on channel=7 note=59 velocity=0 time=97
note_on channel=7 note=59 velocity=115 time=23
note_on channel=7 note=59 velocity=0 time=38
note_on channel=7 note=57 velocity=70 time=10
note_on channel=7 note=57 velocity=0 time=21
note_on channel=7 note=59 velocity=115 time=3
note_on channel=7 note=59 velocity=0 time=102
note_on channel=7 note=59 velocity=115 time=18
note_on channel=7 note=59 velocity=0 time=45
note_on channel=7 note=57 velocity=86 time=3
note_on channel=7 note=57 velocity=0 time=21
note_on channel=7 note=61 velocity=115 time=3
note_on channel=7 note=61 velocity=0 time=201
note_on channel=7 note=61 velocity=104 time=255
note_on channel=7 note=61 velocity=0 time=36
note_on channel=7 note=61 velocity=115 time=12
note_on channel=7 note=61 velocity=0 time=38
note_on channel=7 note=64 velocity=81 time=10
note_on channel=7 note=61 velocity=115 time=24
note_on channel=7 note=64 velocity=0 time=7
note_on channel=7 note=61 velocity=0 time=60
note_on channel=7 note=57 velocity=78 time=101
note_on channel=7 note=57 velocity=0 time=29
note_on channel=7 note=59 velocity=104 time=19
note_on channel=7 note=59 velocity=0 time=43
note_on channel=7 note=57 velocity=93 time=5
note_on channel=7 note=57 velocity=0 time=39
note_on channel=7 note=61 velocity=104 time=9
note_on channel=7 note=59 velocity=93 time=48
note_on channel=7 note=61 velocity=0 time=4
note_on channel=7 note=59 velocity=0 time=43
note_on channel=7 note=57 velocity=78 time=1
note_on channel=7 note=57 velocity=0 time=59
note_on channel=7 note=59 velocity=92 time=181
note_on channel=7 note=59 velocity=0 time=28
note_on channel=7 note=59 velocity=109 time=20
note_on channel=7 note=59 velocity=0 time=26
note_on channel=7 note=59 velocity=98 time=22
note_on channel=7 note=59 velocity=0 time=26
note_on channel=7 note=59 velocity=115 time=22
note_on channel=7 note=59 velocity=0 time=48
note_on channel=7 note=57 velocity=78 time=0
note_on channel=7 note=57 velocity=0 time=45
note_on channel=7 note=61 velocity=98 time=3
note_on channel=7 note=59 velocity=115 time=48
note_on channel=7 note=61 velocity=0 time=3
note_on channel=7 note=57 velocity=80 time=93
note_on channel=7 note=59 velocity=0 time=4
note_on channel=7 note=57 velocity=0 time=78
note_on channel=7 note=61 velocity=81 time=350
note_on channel=7 note=61 velocity=0 time=45
note_on channel=7 note=64 velocity=66 time=3
note_on channel=7 note=66 velocity=109 time=24
note_on channel=7 note=64 velocity=0 time=1
note_on channel=7 note=66 velocity=0 time=80
note_on channel=7 note=59 velocity=109 time=39
note_on channel=7 note=59 velocity=0 time=41
note_on channel=7 note=57 velocity=85 time=7
note_on channel=7 note=57 velocity=0 time=45
note_on channel=7 note=61 velocity=98 time=3
note_on channel=7 note=61 velocity=0 time=72
note_on channel=7 note=59 velocity=92 time=0
note_on channel=7 note=59 velocity=0 time=48
note_on channel=7 note=59 velocity=104 time=24
note_on channel=7 note=59 velocity=0 time=45
note_on channel=7 note=57 velocity=92 time=3
note_on channel=7 note=57 velocity=0 time=42
note_on channel=7 note=54 velocity=78 time=54
note_on channel=7 note=57 velocity=104 time=24
note_on channel=7 note=54 velocity=0 time=4
note_on channel=7 note=57 velocity=0 time=49
note_on channel=7 note=59 velocity=121 time=19
note_on channel=7 note=59 velocity=0 time=56
note_on channel=7 note=59 velocity=115 time=40
note_on channel=7 note=59 velocity=0 time=22
note_on channel=7 note=59 velocity=92 time=26
note_on channel=7 note=59 velocity=0 time=12
note_on channel=7 note=59 velocity=121 time=12
note_on channel=7 note=59 velocity=0 time=47
note_on channel=7 note=59 velocity=115 time=73
note_on channel=7 note=59 velocity=0 time=28
note_on channel=7 note=57 velocity=92 time=20
note_on channel=7 note=57 velocity=0 time=20
note_on channel=7 note=61 velocity=121 time=4
note_on channel=7 note=61 velocity=0 time=199
note_on channel=7 note=59 velocity=127 time=65
note_on channel=7 note=59 velocity=0 time=51
note_on channel=7 note=61 velocity=115 time=21
note_on channel=7 note=61 velocity=0 time=65
note_on channel=7 note=62 velocity=98 time=55
note_on channel=7 note=62 velocity=0 time=30
note_on channel=7 note=62 velocity=113 time=18
note_on channel=7 note=62 velocity=0 time=28
note_on channel=7 note=62 velocity=113 time=20
note_on channel=7 note=62 velocity=0 time=12
note_on channel=7 note=62 velocity=113 time=12
note_on channel=7 note=61 velocity=115 time=72
note_on channel=7 note=62 velocity=0 time=6
note_on channel=7 note=59 velocity=98 time=42
note_on channel=7 note=61 velocity=0 time=3
note_on channel=7 note=57 velocity=86 time=45
note_on channel=7 note=59 velocity=0 time=5
note_on channel=7 note=57 velocity=0 time=28
note_on channel=7 note=57 velocity=109 time=15
note_on channel=7 note=59 velocity=109 time=48
note_on channel=7 note=57 velocity=0 time=9
note_on channel=7 note=59 velocity=0 time=36
note_on channel=7 note=61 velocity=92 time=3
note_on channel=7 note=59 velocity=115 time=48
note_on channel=7 note=61 velocity=0 time=3
note_on channel=7 note=59 velocity=0 time=69
note_on channel=7 note=59 velocity=115 time=24
note_on channel=7 note=61 velocity=121 time=72
note_on channel=7 note=59 velocity=0 time=8
note_on channel=7 note=61 velocity=0 time=63
note_on channel=7 note=62 velocity=98 time=1
note_on channel=7 note=62 velocity=0 time=70
note_on channel=7 note=62 velocity=104 time=26
note_on channel=7 note=62 velocity=0 time=33
note_on channel=7 note=62 velocity=74 time=15
note_on channel=7 note=62 velocity=0 time=12
note_on channel=7 note=62 velocity=111 time=12
note_on channel=7 note=61 velocity=107 time=72
note_on channel=7 note=62 velocity=0 time=8
note_on channel=7 note=61 velocity=0 time=38
note_on channel=7 note=59 velocity=104 time=2
note_on channel=7 note=57 velocity=92 time=48
note_on channel=7 note=59 velocity=0 time=1
note_on channel=7 note=57 velocity=0 time=44
note_on channel=7 note=61 velocity=115 time=3
note_on channel=7 note=61 velocity=0 time=93
note_on channel=7 note=59 velocity=121 time=3
note_on channel=7 note=59 velocity=0 time=103
note_on channel=7 note=59 velocity=115 time=41
note_on channel=7 note=59 velocity=0 time=70
note_on channel=7 note=61 velocity=115 time=2
note_on channel=7 note=61 velocity=0 time=40
note_on channel=7 note=62 velocity=104 time=32
note_on channel=7 note=62 velocity=0 time=72
note_on channel=7 note=62 velocity=98 time=24
note_on channel=7 note=62 velocity=0 time=25
note_on channel=7 note=62 velocity=76 time=23
note_on channel=7 note=62 velocity=0 time=11
note_on channel=7 note=62 velocity=105 time=13
note_on channel=7 note=61 velocity=103 time=72
note_on channel=7 note=62 velocity=0 time=9
note_on channel=7 note=61 velocity=0 time=39
note_on channel=7 note=59 velocity=98 time=0
note_on channel=7 note=57 velocity=86 time=48
note_on channel=7 note=59 velocity=0 time=5
note_on channel=7 note=57 velocity=0 time=25
note_on channel=7 note=57 velocity=98 time=18
note_on channel=7 note=59 velocity=104 time=48
note_on channel=7 note=57 velocity=0 time=9
note_on channel=7 note=59 velocity=0 time=33
note_on channel=7 note=61 velocity=92 time=6
note_on channel=7 note=59 velocity=115 time=48
note_on channel=7 note=61 velocity=0 time=4
note_on channel=7 note=59 velocity=0 time=59
note_on channel=7 note=59 velocity=121 time=33
note_on channel=7 note=61 velocity=115 time=72
note_on channel=7 note=59 velocity=0 time=7
note_on channel=7 note=61 velocity=0 time=44
note_on channel=7 note=62 velocity=111 time=21
note_on channel=7 note=62 velocity=0 time=67
note_on channel=7 note=61 velocity=115 time=5
note_on channel=7 note=62 velocity=104 time=72
note_on channel=7 note=61 velocity=0 time=1
note_on channel=7 note=64 velocity=98 time=47
note_on channel=7 note=62 velocity=0 time=13
note_on channel=7 note=62 velocity=115 time=59
note_on channel=7 note=64 velocity=0 time=10
note_on channel=7 note=64 velocity=98 time=62
note_on channel=7 note=62 velocity=0 time=2
note_on channel=7 note=64 velocity=0 time=40
note_on channel=7 note=66 velocity=111 time=6
note_on channel=7 note=66 velocity=0 time=231
note_on channel=7 note=59 velocity=109 time=57
note_on channel=7 note=59 velocity=0 time=35
note_on channel=7 note=57 velocity=72 time=13
note_on channel=7 note=57 velocity=0 time=17
note_on channel=7 note=59 velocity=104 time=7
note_on channel=7 note=59 velocity=0 time=90
note_on channel=7 note=57 velocity=71 time=6
note_on channel=7 note=57 velocity=0 time=14
note_on channel=7 note=57 velocity=89 time=10
note_on channel=7 note=57 velocity=0 time=199
note_on channel=7 note=61 velocity=99 time=569
note_on channel=7 note=61 velocity=0 time=44
note_on channel=7 note=64 velocity=76 time=4
note_on channel=7 note=64 velocity=0 time=19
note_on channel=7 note=61 velocity=121 time=5
note_on channel=7 note=61 velocity=0 time=74
note_on channel=7 note=59 velocity=121 time=142
note_on channel=7 note=59 velocity=0 time=47
note_on channel=7 note=57 velocity=86 time=1
note_on channel=7 note=57 velocity=0 time=34
note_on channel=7 note=61 velocity=98 time=14
note_on channel=7 note=61 velocity=0 time=42
note_on channel=7 note=59 velocity=109 time=6
note_on channel=7 note=57 velocity=74 time=48
note_on channel=7 note=59 velocity=0 time=5
note_on channel=7 note=57 velocity=0 time=49
note_on channel=7 note=59 velocity=121 time=234
note_on channel=7 note=59 velocity=0 time=31
note_on channel=7 note=57 velocity=78 time=17
note_on channel=7 note=57 velocity=0 time=18
note_on channel=7 note=59 velocity=121 time=6
note_on channel=7 note=59 velocity=0 time=73
note_on channel=7 note=59 velocity=115 time=47
note_on channel=7 note=59 velocity=0 time=21
note_on channel=7 note=61 velocity=121 time=3
note_on channel=7 note=61 velocity=0 time=52
note_on channel=7 note=59 velocity=127 time=20
note_on channel=7 note=59 velocity=0 time=96
note_on channel=7 note=57 velocity=109 time=0
note_on channel=7 note=57 velocity=0 time=61
note_on channel=7 note=61 velocity=115 time=323
note_on channel=7 note=61 velocity=0 time=40
note_on channel=7 note=64 velocity=76 time=8
note_on channel=7 note=64 velocity=0 time=22
note_on channel=7 note=66 velocity=104 time=2
note_on channel=7 note=66 velocity=0 time=95
note_on channel=7 note=59 velocity=115 time=25
note_on channel=7 note=59 velocity=0 time=48
note_on channel=7 note=57 velocity=99 time=0
note_on channel=7 note=57 velocity=0 time=30
note_on channel=7 note=61 velocity=104 time=18
note_on channel=7 note=61 velocity=0 time=61
note_on channel=7 note=59 velocity=109 time=11
note_on channel=7 note=59 velocity=0 time=56
note_on channel=7 note=57 velocity=86 time=16
note_on channel=7 note=57 velocity=0 time=36
note_on channel=7 note=61 velocity=115 time=12
note_on channel=7 note=61 velocity=0 time=69
note_on channel=7 note=54 velocity=80 time=27
note_on channel=7 note=54 velocity=0 time=41
note_on channel=7 note=57 velocity=95 time=7
note_on channel=7 note=57 velocity=0 time=19
note_on channel=7 note=59 velocity=109 time=5
note_on channel=7 note=59 velocity=0 time=89
note_on channel=7 note=59 velocity=115 time=31
note_on channel=7 note=59 velocity=0 time=37
note_on channel=7 note=57 velocity=107 time=11
note_on channel=7 note=57 velocity=0 time=20
note_on channel=7 note=59 velocity=127 time=4
note_on channel=7 note=59 velocity=0 time=94
note_on channel=7 note=59 velocity=115 time=26
note_on channel=7 note=59 velocity=0 time=44
note_on channel=7 note=57 velocity=86 time=4
note_on channel=7 note=57 velocity=0 time=16
note_on channel=7 note=61 velocity=121 time=8
note_on channel=7 note=61 velocity=0 time=215
note_on channel=7 note=59 velocity=127 time=49
note_on channel=7 note=59 velocity=0 time=51
note_on channel=7 note=61 velocity=117 time=21
note_on channel=7 note=61 velocity=0 time=65
note_on channel=7 note=62 velocity=113 time=55
note_on channel=7 note=62 velocity=0 time=30
note_on channel=7 note=62 velocity=117 time=18
note_on channel=7 note=62 velocity=0 time=28
note_on channel=7 note=62 velocity=117 time=20
note_on channel=7 note=62 velocity=0 time=12
note_on channel=7 note=62 velocity=117 time=12
note_on channel=7 note=61 velocity=115 time=72
note_on channel=7 note=62 velocity=0 time=6
note_on channel=7 note=59 velocity=111 time=42
note_on channel=7 note=61 velocity=0 time=3
note_on channel=7 note=57 velocity=107 time=45
note_on channel=7 note=59 velocity=0 time=5
note_on channel=7 note=57 velocity=0 time=28
note_on channel=7 note=57 velocity=104 time=15
note_on channel=7 note=59 velocity=109 time=48
note_on channel=7 note=57 velocity=0 time=9
note_on channel=7 note=59 velocity=0 time=36
note_on channel=7 note=61 velocity=92 time=3
note_on channel=7 note=59 velocity=115 time=48
note_on channel=7 note=61 velocity=0 time=3
note_on channel=7 note=59 velocity=0 time=69
note_on channel=7 note=59 velocity=115 time=24
note_on channel=7 note=61 velocity=121 time=72
note_on channel=7 note=59 velocity=0 time=8
note_on channel=7 note=61 velocity=0 time=63
note_on channel=7 note=62 velocity=115 time=1
note_on channel=7 note=62 velocity=0 time=70
note_on channel=7 note=62 velocity=104 time=26
note_on channel=7 note=62 velocity=0 time=33
note_on channel=7 note=62 velocity=93 time=15
note_on channel=7 note=62 velocity=0 time=12
note_on channel=7 note=62 velocity=115 time=12
note_on channel=7 note=61 velocity=115 time=72
note_on channel=7 note=62 velocity=0 time=8
note_on channel=7 note=61 velocity=0 time=38
note_on channel=7 note=59 velocity=104 time=2
note_on channel=7 note=57 velocity=92 time=48
note_on channel=7 note=59 velocity=0 time=1
note_on channel=7 note=57 velocity=0 time=44
note_on channel=7 note=61 velocity=115 time=3
note_on channel=7 note=61 velocity=0 time=93
note_on channel=7 note=59 velocity=121 time=3
note_on channel=7 note=59 velocity=0 time=103
note_on channel=7 note=59 velocity=115 time=41
note_on channel=7 note=59 velocity=0 time=70
note_on channel=7 note=61 velocity=115 time=2
note_on channel=7 note=61 velocity=0 time=40
note_on channel=7 note=62 velocity=117 time=32
note_on channel=7 note=62 velocity=0 time=72
note_on channel=7 note=62 velocity=115 time=24
note_on channel=7 note=62 velocity=0 time=25
note_on channel=7 note=62 velocity=99 time=23
note_on channel=7 note=62 velocity=0 time=11
note_on channel=7 note=62 velocity=115 time=13
note_on channel=7 note=61 velocity=115 time=72
note_on channel=7 note=62 velocity=0 time=9
note_on channel=7 note=61 velocity=0 time=39
note_on channel=7 note=59 velocity=98 time=0
note_on channel=7 note=57 velocity=86 time=48
note_on channel=7 note=59 velocity=0 time=5
note_on channel=7 note=57 velocity=0 time=25
note_on channel=7 note=57 velocity=98 time=18
note_on channel=7 note=59 velocity=104 time=48
note_on channel=7 note=57 velocity=0 time=9
note_on channel=7 note=59 velocity=0 time=33
note_on channel=7 note=61 velocity=111 time=6
note_on channel=7 note=59 velocity=115 time=48
note_on channel=7 note=61 velocity=0 time=4
note_on channel=7 note=59 velocity=0 time=59
note_on channel=7 note=59 velocity=121 time=33
note_on channel=7 note=61 velocity=115 time=72
note_on channel=7 note=59 velocity=0 time=7
note_on channel=7 note=61 velocity=0 time=44
note_on channel=7 note=62 velocity=111 time=21
note_on channel=7 note=62 velocity=0 time=67
note_on channel=7 note=61 velocity=115 time=5
note_on channel=7 note=62 velocity=104 time=72
note_on channel=7 note=61 velocity=0 time=1
note_on channel=7 note=64 velocity=111 time=47
note_on channel=7 note=62 velocity=0 time=13
note_on channel=7 note=62 velocity=115 time=59
note_on channel=7 note=64 velocity=0 time=10
note_on channel=7 note=64 velocity=98 time=62
note_on channel=7 note=62 velocity=0 time=2
note_on channel=7 note=64 velocity=0 time=40
note_on channel=7 note=66 velocity=113 time=6
note_on channel=7 note=66 velocity=0 time=231
note_on channel=7 note=59 velocity=109 time=57
note_on channel=7 note=59 velocity=0 time=35
note_on channel=7 note=57 velocity=99 time=13
note_on channel=7 note=57 velocity=0 time=17
note_on channel=7 note=59 velocity=104 time=7
note_on channel=7 note=59 velocity=0 time=90
note_on channel=7 note=57 velocity=58 time=6
note_on channel=7 note=57 velocity=0 time=14
note_on channel=7 note=57 velocity=93 time=10
note_on channel=7 note=57 velocity=0 time=199
note_on channel=7 note=61 velocity=93 time=1337
note_on channel=7 note=61 velocity=0 time=29
note_on channel=7 note=64 velocity=76 time=19
note_on channel=7 note=61 velocity=115 time=24
note_on channel=7 note=64 velocity=0 time=4
note_on channel=7 note=61 velocity=0 time=80
note_on channel=7 note=59 velocity=115 time=132
note_on channel=7 note=59 velocity=0 time=45
note_on channel=7 note=57 velocity=80 time=3
note_on channel=7 note=57 velocity=0 time=27
note_on channel=7 note=61 velocity=109 time=21
note_on channel=7 note=61 velocity=0 time=46
note_on channel=7 note=59 velocity=115 time=2
note_on channel=7 note=57 velocity=74 time=48
note_on channel=7 note=59 velocity=0 time=3
note_on channel=7 note=57 velocity=0 time=49
note_on channel=7 note=59 velocity=95 time=236
note_on channel=7 note=59 velocity=0 time=35
note_on channel=7 note=57 velocity=86 time=13
note_on channel=7 note=57 velocity=0 time=19
note_on channel=7 note=59 velocity=121 time=5
note_on channel=7 note=59 velocity=0 time=101
note_on channel=7 note=59 velocity=121 time=19
note_on channel=7 note=59 velocity=0 time=32
note_on channel=7 note=61 velocity=109 time=16
note_on channel=7 note=61 velocity=0 time=37
note_on channel=7 note=59 velocity=121 time=11
note_on channel=7 note=57 velocity=92 time=96
note_on channel=7 note=59 velocity=0 time=9
note_on channel=7 note=57 velocity=0 time=81
note_on channel=7 note=61 velocity=115 time=294
note_on channel=7 note=64 velocity=66 time=48
note_on channel=7 note=61 velocity=0 time=2
note_on channel=7 note=66 velocity=98 time=22
note_on channel=7 note=64 velocity=0 time=2
note_on channel=7 note=66 velocity=0 time=104
note_on channel=7 note=59 velocity=97 time=14
note_on channel=7 note=57 velocity=78 time=48
note_on channel=7 note=59 velocity=0 time=4
note_on channel=7 note=57 velocity=0 time=39
note_on channel=7 note=61 velocity=111 time=5
note_on channel=7 note=59 velocity=104 time=72
note_on channel=7 note=61 velocity=0 time=3
note_on channel=7 note=59 velocity=0 time=68
note_on channel=7 note=57 velocity=98 time=1
note_on channel=7 note=57 velocity=0 time=41
note_on channel=7 note=61 velocity=109 time=7
note_on channel=7 note=61 velocity=0 time=60
note_on channel=7 note=54 velocity=92 time=36
note_on channel=7 note=54 velocity=0 time=34
note_on channel=7 note=57 velocity=86 time=14
note_on channel=7 note=57 velocity=0 time=18
note_on channel=7 note=59 velocity=121 time=6
note_on channel=7 note=59 velocity=0 time=92
note_on channel=7 note=59 velocity=115 time=28
note_on channel=7 note=59 velocity=0 time=41
note_on channel=7 note=57 velocity=80 time=7
note_on channel=7 note=57 velocity=0 time=17
note_on channel=7 note=59 velocity=121 time=7
note_on channel=7 note=59 velocity=0 time=104
note_on channel=7 note=59 velocity=121 time=16
note_on channel=7 note=59 velocity=0 time=40
note_on channel=7 note=57 velocity=98 time=8
note_on channel=7 note=57 velocity=0 time=16
note_on channel=7 note=61 velocity=121 time=8
note_on channel=7 note=61 velocity=0 time=225
note_on channel=7 note=59 velocity=127 time=39
note_on channel=7 note=59 velocity=0 time=51
note_on channel=7 note=61 velocity=115 time=21
note_on channel=7 note=61 velocity=0 time=65
note_on channel=7 note=62 velocity=117 time=55
note_on channel=7 note=62 velocity=0 time=30
note_on channel=7 note=62 velocity=117 time=18
note_on channel=7 note=62 velocity=0 time=28
note_on channel=7 note=62 velocity=86 time=20
note_on channel=7 note=62 velocity=0 time=12
note_on channel=7 note=62 velocity=115 time=12
note_on channel=7 note=61 velocity=115 time=72
note_on channel=7 note=62 velocity=0 time=6
note_on channel=7 note=59 velocity=98 time=42
note_on channel=7 note=61 velocity=0 time=3
note_on channel=7 note=57 velocity=86 time=45
note_on channel=7 note=59 velocity=0 time=5
note_on channel=7 note=57 velocity=0 time=28
note_on channel=7 note=57 velocity=104 time=15
note_on channel=7 note=59 velocity=109 time=48
note_on channel=7 note=57 velocity=0 time=9
note_on channel=7 note=59 velocity=0 time=36
note_on channel=7 note=61 velocity=92 time=3
note_on channel=7 note=59 velocity=115 time=48
note_on channel=7 note=61 velocity=0 time=3
note_on channel=7 note=59 velocity=0 time=69
note_on channel=7 note=59 velocity=103 time=24
note_on channel=7 note=61 velocity=111 time=72
note_on channel=7 note=59 velocity=0 time=8
note_on channel=7 note=61 velocity=0 time=63
note_on channel=7 note=62 velocity=117 time=1
note_on channel=7 note=62 velocity=0 time=70
note_on channel=7 note=62 velocity=113 time=26
note_on channel=7 note=62 velocity=0 time=33
note_on channel=7 note=62 velocity=101 time=15
note_on channel=7 note=62 velocity=0 time=12
note_on channel=7 note=62 velocity=113 time=12
note_on channel=7 note=61 velocity=115 time=72
note_on channel=7 note=62 velocity=0 time=8
note_on channel=7 note=61 velocity=0 time=38
note_on channel=7 note=59 velocity=104 time=2
note_on channel=7 note=57 velocity=92 time=48
note_on channel=7 note=59 velocity=0 time=1
note_on channel=7 note=57 velocity=0 time=44
note_on channel=7 note=61 velocity=115 time=3
note_on channel=7 note=61 velocity=0 time=93
note_on channel=7 note=59 velocity=111 time=3
note_on channel=7 note=59 velocity=0 time=103
note_on channel=7 note=59 velocity=115 time=41
note_on channel=7 note=59 velocity=0 time=70
note_on channel=7 note=61 velocity=115 time=2
note_on channel=7 note=61 velocity=0 time=40
note_on channel=7 note=62 velocity=121 time=32
note_on channel=7 note=62 velocity=0 time=72
note_on channel=7 note=62 velocity=112 time=24
note_on channel=7 note=62 velocity=0 time=25
note_on channel=7 note=62 velocity=97 time=23
note_on channel=7 note=62 velocity=0 time=11
note_on channel=7 note=62 velocity=114 time=13
note_on channel=7 note=61 velocity=105 time=72
note_on channel=7 note=62 velocity=0 time=9
note_on channel=7 note=61 velocity=0 time=39
note_on channel=7 note=59 velocity=105 time=0
note_on channel=7 note=57 velocity=92 time=48
note_on channel=7 note=59 velocity=0 time=5
note_on channel=7 note=57 velocity=0 time=25
note_on channel=7 note=57 velocity=82 time=18
note_on channel=7 note=59 velocity=101 time=48
note_on channel=7 note=57 velocity=0 time=9
note_on channel=7 note=59 velocity=0 time=33
note_on channel=7 note=61 velocity=107 time=6
note_on channel=7 note=59 velocity=107 time=48
note_on channel=7 note=61 velocity=0 time=4
note_on channel=7 note=59 velocity=0 time=59
note_on channel=7 note=59 velocity=107 time=33
note_on channel=7 note=61 velocity=109 time=72
note_on channel=7 note=59 velocity=0 time=7
note_on channel=7 note=61 velocity=0 time=44
note_on channel=7 note=62 velocity=109 time=21
note_on channel=7 note=62 velocity=0 time=67
note_on channel=7 note=61 velocity=109 time=5
note_on channel=7 note=62 velocity=109 time=72
note_on channel=7 note=61 velocity=0 time=1
note_on channel=7 note=64 velocity=116 time=47
note_on channel=7 note=62 velocity=0 time=13
note_on channel=7 note=62 velocity=119 time=59
note_on channel=7 note=64 velocity=0 time=10
note_on channel=7 note=64 velocity=119 time=62
note_on channel=7 note=62 velocity=0 time=2
note_on channel=7 note=64 velocity=0 time=40
note_on channel=7 note=66 velocity=117 time=6
note_on channel=7 note=66 velocity=0 time=384
note_on channel=7 note=59 velocity=109 time=288
note_on channel=7 note=59 velocity=0 time=35
note_on channel=7 note=57 velocity=87 time=13
note_on channel=7 note=57 velocity=0 time=17
note_on channel=7 note=59 velocity=105 time=7
note_on channel=7 note=59 velocity=0 time=90
note_on channel=7 note=57 velocity=77 time=6
note_on channel=7 note=57 velocity=0 time=14
note_on channel=7 note=57 velocity=97 time=10
note_on channel=7 note=57 velocity=0 time=199
note_on channel=7 note=54 velocity=76 time=1769
note_on channel=7 note=54 velocity=0 time=38
note_on channel=7 note=61 velocity=109 time=10
note_on channel=7 note=59 velocity=115 time=48
note_on channel=7 note=61 velocity=0 time=8
note_on channel=7 note=59 velocity=0 time=40
note_on channel=7 note=57 velocity=92 time=0
note_on channel=7 note=57 velocity=0 time=38
note_on channel=7 note=59 velocity=121 time=10
note_on channel=7 note=57 velocity=74 time=96
note_on channel=7 note=59 velocity=0 time=7
note_on channel=7 note=57 velocity=0 time=30
note_on channel=7 note=57 velocity=92 time=11
note_on channel=7 note=57 velocity=0 time=51
note_on channel=7 note=54 velocity=76 time=1149
note_on channel=7 note=54 velocity=0 time=43
note_on channel=7 note=61 velocity=109 time=5
note_on channel=7 note=59 velocity=115 time=48
note_on channel=7 note=61 velocity=0 time=6
note_on channel=7 note=57 velocity=92 time=42
note_on channel=7 note=59 velocity=0 time=1
note_on channel=7 note=57 velocity=0 time=44
note_on channel=7 note=59 velocity=121 time=3
note_on channel=7 note=57 velocity=80 time=96
note_on channel=7 note=59 velocity=0 time=10
note_on channel=7 note=57 velocity=0 time=29
note_on channel=7 note=57 velocity=80 time=9
note_on channel=7 note=57 velocity=0 time=45
note_on channel=7 note=54 velocity=74 time=3
note_on channel=7 note=54 velocity=0 time=54
note_on channel=7 note=54 velocity=74 time=1098
note_on channel=7 note=54 velocity=0 time=38
note_on channel=7 note=61 velocity=109 time=10
note_on channel=7 note=59 velocity=115 time=48
note_on channel=7 note=61 velocity=0 time=2
note_on channel=7 note=59 velocity=0 time=44
note_on channel=7 note=57 velocity=86 time=2
note_on channel=7 note=57 velocity=0 time=40
note_on channel=7 note=59 velocity=115 time=8
note_on channel=7 note=57 velocity=92 time=96
note_on channel=7 note=59 velocity=0 time=4
note_on channel=7 note=57 velocity=0 time=37
note_on channel=7 note=57 velocity=80 time=7
note_on channel=7 note=57 velocity=0 time=47
note_on channel=7 note=59 velocity=80 time=1
note_on channel=7 note=59 velocity=0 time=42
control_change channel=7 control=7 value=127 time=606
control_change channel=7 control=7 value=125 time=24
control_change channel=7 control=7 value=123 time=24
control_change channel=7 control=7 value=121 time=24
control_change channel=7 control=7 value=121 time=24
control_change channel=7 control=7 value=119 time=24
control_change channel=7 control=7 value=117 time=24
control_change channel=7 control=7 value=115 time=24
control_change channel=7 control=7 value=113 time=24
control_change channel=7 control=7 value=111 time=24
control_change channel=7 control=7 value=109 time=24
control_change channel=7 control=7 value=107 time=24
control_change channel=7 control=7 value=105 time=24
control_change channel=7 control=7 value=103 time=24
control_change channel=7 control=7 value=103 time=24
control_change channel=7 control=7 value=99 time=24
control_change channel=7 control=7 value=99 time=24
control_change channel=7 control=7 value=97 time=24
control_change channel=7 control=7 value=95 time=24
control_change channel=7 control=7 value=93 time=24
control_change channel=7 control=7 value=91 time=24
control_change channel=7 control=7 value=87 time=24
note_on channel=7 note=54 velocity=76 time=0
control_change channel=7 control=7 value=85 time=24
note_on channel=7 note=54 velocity=0 time=18
control_change channel=7 control=7 value=81 time=6
note_on channel=7 note=61 velocity=115 time=0
control_change channel=7 control=7 value=79 time=24
note_on channel=7 note=61 velocity=0 time=24
control_change channel=7 control=7 value=75 time=0
note_on channel=7 note=59 velocity=109 time=0
control_change channel=7 control=7 value=75 time=24
note_on channel=7 note=59 velocity=0 time=22
control_change channel=7 control=7 value=71 time=2
note_on channel=7 note=57 velocity=92 time=0
control_change channel=7 control=7 value=67 time=24
note_on channel=7 note=57 velocity=0 time=14
control_change channel=7 control=7 value=63 time=10
note_on channel=7 note=59 velocity=121 time=0
control_change channel=7 control=7 value=59 time=24
control_change channel=7 control=7 value=57 time=24
control_change channel=7 control=7 value=55 time=24
control_change channel=7 control=7 value=53 time=24
note_on channel=7 note=57 velocity=78 time=0
note_on channel=7 note=59 velocity=0 time=3
control_change channel=7 control=7 value=51 time=21
note_on channel=7 note=57 velocity=0 time=13
control_change channel=7 control=7 value=47 time=11
note_on channel=7 note=57 velocity=98 time=0
control_change channel=7 control=7 value=45 time=24
control_change channel=7 control=7 value=43 time=24
note_on channel=7 note=54 velocity=74 time=0
note_on channel=7 note=57 velocity=0 time=3
control_change channel=7 control=7 value=41 time=21
note_on channel=7 note=54 velocity=0 time=20
control_change channel=7 control=7 value=39 time=4
control_change channel=7 control=7 value=39 time=24
control_change channel=7 control=7 value=37 time=24
control_change channel=7 control=7 value=35 time=24
control_change channel=7 control=7 value=31 time=24
control_change channel=7 control=7 value=29 time=24
control_change channel=7 control=7 value=27 time=24
control_change channel=7 control=7 value=25 time=24
control_change channel=7 control=7 value=23 time=24
<meta message end_of_track time=0>
<meta message midi_port port=0 time=0>
<meta message track_name name=u'Drums' time=0>
program_change channel=9 program=16 time=0
control_change channel=9 control=7 value=127 time=0
control_change channel=9 control=10 value=64 time=0
note_on channel=9 note=36 velocity=119 time=768
note_on channel=9 note=49 velocity=104 time=0
note_on channel=9 note=49 velocity=0 time=53
note_on channel=9 note=36 velocity=0 time=1
note_on channel=9 note=36 velocity=119 time=138
note_on channel=9 note=49 velocity=98 time=0
note_on channel=9 note=49 velocity=0 time=41
note_on channel=9 note=36 velocity=0 time=2
note_on channel=9 note=36 velocity=119 time=29
note_on channel=9 note=57 velocity=115 time=0
note_on channel=9 note=36 velocity=0 time=41
note_on channel=9 note=57 velocity=0 time=11
note_on channel=9 note=36 velocity=127 time=20
note_on channel=9 note=49 velocity=98 time=0
note_on channel=9 note=49 velocity=0 time=42
note_on channel=9 note=36 velocity=0 time=4
note_on channel=9 note=36 velocity=119 time=194
note_on channel=9 note=49 velocity=104 time=0
note_on channel=9 note=36 velocity=0 time=39
note_on channel=9 note=49 velocity=0 time=5
note_on channel=9 note=36 velocity=108 time=28
note_on channel=9 note=57 velocity=115 time=0
note_on channel=9 note=36 velocity=0 time=41
note_on channel=9 note=57 velocity=0 time=27
note_on channel=9 note=36 velocity=119 time=4
note_on channel=9 note=49 velocity=98 time=0
note_on channel=9 note=49 velocity=0 time=36
note_on channel=9 note=36 velocity=0 time=10
note_on channel=9 note=36 velocity=125 time=194
note_on channel=9 note=49 velocity=92 time=0
note_on channel=9 note=36 velocity=0 time=41
note_on channel=9 note=49 velocity=0 time=18
note_on channel=9 note=36 velocity=119 time=13
note_on channel=9 note=57 velocity=115 time=0
note_on channel=9 note=36 velocity=0 time=38
note_on channel=9 note=57 velocity=0 time=10
note_on channel=9 note=36 velocity=127 time=24
note_on channel=9 note=49 velocity=92 time=0
note_on channel=9 note=49 velocity=0 time=72
note_on channel=9 note=36 velocity=0 time=22
note_on channel=9 note=36 velocity=127 time=338
note_on channel=9 note=49 velocity=92 time=0
note_on channel=9 note=49 velocity=0 time=50
note_on channel=9 note=36 velocity=0 time=5
note_on channel=9 note=36 velocity=125 time=137
note_on channel=9 note=49 velocity=98 time=0
note_on channel=9 note=49 velocity=0 time=38
note_on channel=9 note=36 velocity=0 time=5
note_on channel=9 note=36 velocity=119 time=29
note_on channel=9 note=57 velocity=104 time=0
note_on channel=9 note=36 velocity=0 time=38
note_on channel=9 note=57 velocity=0 time=5
note_on channel=9 note=36 velocity=125 time=29
note_on channel=9 note=49 velocity=98 time=0
note_on channel=9 note=49 velocity=0 time=36
note_on channel=9 note=36 velocity=0 time=5
note_on channel=9 note=36 velocity=127 time=247
note_on channel=9 note=49 velocity=98 time=0
note_on channel=9 note=36 velocity=0 time=43
note_on channel=9 note=49 velocity=0 time=10
note_on channel=9 note=36 velocity=125 time=19
note_on channel=9 note=57 velocity=115 time=0
note_on channel=9 note=36 velocity=0 time=38
note_on channel=9 note=57 velocity=0 time=4
note_on channel=9 note=36 velocity=127 time=30
note_on channel=9 note=49 velocity=98 time=0
note_on channel=9 note=49 velocity=0 time=37
note_on channel=9 note=36 velocity=0 time=5
note_on channel=9 note=36 velocity=125 time=150
note_on channel=9 note=49 velocity=98 time=0
note_on channel=9 note=36 velocity=0 time=41
note_on channel=9 note=49 velocity=0 time=1
note_on channel=9 note=36 velocity=125 time=30
note_on channel=9 note=57 velocity=115 time=0
note_on channel=9 note=57 velocity=0 time=39
note_on channel=9 note=36 velocity=0 time=2
note_on channel=9 note=36 velocity=127 time=31
note_on channel=9 note=49 velocity=98 time=0
note_on channel=9 note=49 velocity=0 time=45
note_on channel=9 note=36 velocity=0 time=6
note_on channel=9 note=36 velocity=117 time=381
note_on channel=9 note=42 velocity=113 time=0
note_on channel=9 note=42 velocity=0 time=30
note_on channel=9 note=42 velocity=64 time=18
note_on channel=9 note=36 velocity=0 time=11
note_on channel=9 note=42 velocity=0 time=7
note_on channel=9 note=40 velocity=121 time=30
note_on channel=9 note=42 velocity=108 time=0
note_on channel=9 note=54 velocity=106 time=0
note_on channel=9 note=42 velocity=0 time=26
note_on channel=9 note=40 velocity=0 time=21
note_on channel=9 note=42 velocity=58 time=1
note_on channel=9 note=42 velocity=0 time=13
note_on channel=9 note=36 velocity=119 time=35
note_on channel=9 note=42 velocity=113 time=0
note_on channel=9 note=54 velocity=0 time=21
note_on channel=9 note=42 velocity=0 time=3
note_on channel=9 note=42 velocity=47 time=24
note_on channel=9 note=36 velocity=0 time=1
note_on channel=9 note=42 velocity=0 time=11
note_on channel=9 note=40 velocity=121 time=36
note_on channel=9 note=42 velocity=119 time=0
note_on channel=9 note=42 velocity=0 time=24
note_on channel=9 note=42 velocity=47 time=24
note_on channel=9 note=40 velocity=0 time=12
note_on channel=9 note=42 velocity=0 time=2
note_on channel=9 note=36 velocity=113 time=34
note_on channel=9 note=42 velocity=113 time=0
note_on channel=9 note=42 velocity=0 time=26
note_on channel=9 note=42 velocity=53 time=22
note_on channel=9 note=36 velocity=0 time=7
note_on channel=9 note=42 velocity=0 time=8
note_on channel=9 note=40 velocity=121 time=33
note_on channel=9 note=42 velocity=119 time=0
note_on channel=9 note=54 velocity=111 time=0
note_on channel=9 note=42 velocity=0 time=28
note_on channel=9 note=42 velocity=48 time=20
note_on channel=9 note=54 velocity=0 time=1
note_on channel=9 note=42 velocity=0 time=15
note_on channel=9 note=40 velocity=0 time=1
note_on channel=9 note=36 velocity=108 time=31
note_on channel=9 note=42 velocity=113 time=0
note_on channel=9 note=42 velocity=0 time=24
note_on channel=9 note=42 velocity=66 time=24
note_on channel=9 note=36 velocity=0 time=7
note_on channel=9 note=42 velocity=0 time=10
note_on channel=9 note=40 velocity=115 time=31
note_on channel=9 note=42 velocity=108 time=0
note_on channel=9 note=42 velocity=0 time=24
note_on channel=9 note=42 velocity=70 time=24
note_on channel=9 note=42 velocity=0 time=16
note_on channel=9 note=40 velocity=0 time=3
note_on channel=9 note=36 velocity=119 time=29
note_on channel=9 note=42 velocity=113 time=0
note_on channel=9 note=42 velocity=0 time=25
note_on channel=9 note=42 velocity=64 time=23
note_on channel=9 note=36 velocity=0 time=1
note_on channel=9 note=42 velocity=0 time=13
note_on channel=9 note=40 velocity=127 time=34
note_on channel=9 note=42 velocity=113 time=0
note_on channel=9 note=54 velocity=111 time=0
note_on channel=9 note=42 velocity=0 time=23
note_on channel=9 note=42 velocity=72 time=25
note_on channel=9 note=54 velocity=0 time=1
note_on channel=9 note=42 velocity=0 time=13
note_on channel=9 note=40 velocity=0 time=3
note_on channel=9 note=36 velocity=108 time=31
note_on channel=9 note=42 velocity=119 time=0
note_on channel=9 note=42 velocity=0 time=21
note_on channel=9 note=42 velocity=51 time=27
note_on channel=9 note=36 velocity=0 time=12
note_on channel=9 note=42 velocity=0 time=1
note_on channel=9 note=40 velocity=121 time=35
note_on channel=9 note=42 velocity=108 time=0
note_on channel=9 note=42 velocity=0 time=20
note_on channel=9 note=42 velocity=58 time=28
note_on channel=9 note=42 velocity=0 time=15
note_on channel=9 note=40 velocity=0 time=3
note_on channel=9 note=36 velocity=108 time=30
note_on channel=9 note=42 velocity=113 time=0
note_on channel=9 note=42 velocity=0 time=21
note_on channel=9 note=42 velocity=56 time=27
note_on channel=9 note=36 velocity=0 time=10
note_on channel=9 note=42 velocity=0 time=6
note_on channel=9 note=40 velocity=121 time=32
note_on channel=9 note=42 velocity=113 time=0
note_on channel=9 note=54 velocity=111 time=0
note_on channel=9 note=42 velocity=0 time=21
note_on channel=9 note=42 velocity=58 time=27
note_on channel=9 note=40 velocity=0 time=16
note_on channel=9 note=42 velocity=0 time=2
note_on channel=9 note=36 velocity=102 time=30
note_on channel=9 note=42 velocity=113 time=0
note_on channel=9 note=42 velocity=0 time=20
note_on channel=9 note=54 velocity=0 time=4
note_on channel=9 note=42 velocity=76 time=24
note_on channel=9 note=36 velocity=0 time=10
note_on channel=9 note=42 velocity=0 time=4
note_on channel=9 note=40 velocity=121 time=34
note_on channel=9 note=42 velocity=113 time=0
note_on channel=9 note=42 velocity=0 time=23
note_on channel=9 note=42 velocity=72 time=25
note_on channel=9 note=42 velocity=0 time=14
note_on channel=9 note=40 velocity=0 time=3
note_on channel=9 note=36 velocity=113 time=31
note_on channel=9 note=42 velocity=113 time=0
note_on channel=9 note=42 velocity=0 time=20
note_on channel=9 note=42 velocity=56 time=28
note_on channel=9 note=36 velocity=0 time=5
note_on channel=9 note=42 velocity=0 time=13
note_on channel=9 note=40 velocity=121 time=30
note_on channel=9 note=42 velocity=113 time=0
note_on channel=9 note=54 velocity=106 time=0
note_on channel=9 note=42 velocity=0 time=24
note_on channel=9 note=54 velocity=0 time=21
note_on channel=9 note=42 velocity=74 time=3
note_on channel=9 note=40 velocity=0 time=12
note_on channel=9 note=42 velocity=0 time=3
note_on channel=9 note=36 velocity=119 time=33
note_on channel=9 note=42 velocity=108 time=0
note_on channel=9 note=42 velocity=0 time=21
note_on channel=9 note=36 velocity=0 time=3
note_on channel=9 note=42 velocity=74 time=24
note_on channel=9 note=42 velocity=0 time=16
note_on channel=9 note=40 velocity=127 time=32
note_on channel=9 note=42 velocity=102 time=0
note_on channel=9 note=42 velocity=0 time=19
note_on channel=9 note=42 velocity=78 time=29
note_on channel=9 note=40 velocity=0 time=10
note_on channel=9 note=42 velocity=0 time=5
note_on channel=9 note=36 velocity=119 time=33
note_on channel=9 note=42 velocity=108 time=0
note_on channel=9 note=42 velocity=0 time=22
note_on channel=9 note=42 velocity=74 time=26
note_on channel=9 note=36 velocity=0 time=8
note_on channel=9 note=42 velocity=0 time=7
note_on channel=9 note=40 velocity=127 time=33
note_on channel=9 note=42 velocity=108 time=0
note_on channel=9 note=54 velocity=100 time=0
note_on channel=9 note=42 velocity=0 time=24
note_on channel=9 note=42 velocity=68 time=24
note_on channel=9 note=54 velocity=0 time=13
note_on channel=9 note=40 velocity=0 time=0
note_on channel=9 note=42 velocity=0 time=3
note_on channel=9 note=36 velocity=113 time=32
note_on channel=9 note=42 velocity=108 time=0
note_on channel=9 note=42 velocity=0 time=24
note_on channel=9 note=42 velocity=78 time=24
note_on channel=9 note=36 velocity=0 time=8
note_on channel=9 note=42 velocity=0 time=8
note_on channel=9 note=40 velocity=121 time=32
note_on channel=9 note=42 velocity=102 time=0
note_on channel=9 note=42 velocity=0 time=23
note_on channel=9 note=42 velocity=76 time=25
note_on channel=9 note=40 velocity=0 time=12
note_on channel=9 note=42 velocity=0 time=5
note_on channel=9 note=36 velocity=108 time=31
note_on channel=9 note=42 velocity=102 time=0
note_on channel=9 note=42 velocity=0 time=24
note_on channel=9 note=42 velocity=72 time=24
note_on channel=9 note=36 velocity=0 time=8
note_on channel=9 note=42 velocity=0 time=7
note_on channel=9 note=40 velocity=127 time=33
note_on channel=9 note=42 velocity=108 time=0
note_on channel=9 note=54 velocity=106 time=0
note_on channel=9 note=42 velocity=0 time=22
note_on channel=9 note=54 velocity=0 time=22
note_on channel=9 note=42 velocity=68 time=4
note_on channel=9 note=40 velocity=0 time=4
note_on channel=9 note=42 velocity=0 time=11
note_on channel=9 note=36 velocity=119 time=33
note_on channel=9 note=42 velocity=102 time=0
note_on channel=9 note=42 velocity=0 time=23
note_on channel=9 note=42 velocity=64 time=25
note_on channel=9 note=36 velocity=0 time=8
note_on channel=9 note=42 velocity=0 time=9
note_on channel=9 note=40 velocity=127 time=31
note_on channel=9 note=42 velocity=102 time=0
note_on channel=9 note=42 velocity=0 time=22
note_on channel=9 note=42 velocity=76 time=26
note_on channel=9 note=40 velocity=0 time=12
note_on channel=9 note=42 velocity=0 time=4
note_on channel=9 note=36 velocity=102 time=32
note_on channel=9 note=42 velocity=113 time=0
note_on channel=9 note=42 velocity=0 time=20
note_on channel=9 note=42 velocity=78 time=28
note_on channel=9 note=36 velocity=0 time=8
note_on channel=9 note=42 velocity=0 time=5
note_on channel=9 note=40 velocity=127 time=35
note_on channel=9 note=42 velocity=108 time=0
note_on channel=9 note=54 velocity=106 time=0
note_on channel=9 note=42 velocity=0 time=22
note_on channel=9 note=54 velocity=0 time=24
note_on channel=9 note=42 velocity=76 time=2
note_on channel=9 note=40 velocity=0 time=11
note_on channel=9 note=42 velocity=0 time=1
note_on channel=9 note=36 velocity=113 time=36
note_on channel=9 note=42 velocity=108 time=0
note_on channel=9 note=42 velocity=0 time=19
note_on channel=9 note=42 velocity=72 time=29
note_on channel=9 note=36 velocity=0 time=3
note_on channel=9 note=42 velocity=0 time=10
note_on channel=9 note=36 velocity=102 time=11
note_on channel=9 note=36 velocity=0 time=19
note_on channel=9 note=40 velocity=121 time=5
note_on channel=9 note=46 velocity=104 time=0
note_on channel=9 note=54 velocity=106 time=0
note_on channel=9 note=46 velocity=0 time=23
note_on channel=9 note=54 velocity=0 time=28
note_on channel=9 note=40 velocity=0 time=6
note_on channel=9 note=36 velocity=102 time=39
note_on channel=9 note=42 velocity=102 time=0
note_on channel=9 note=42 velocity=0 time=23
note_on channel=9 note=42 velocity=43 time=25
note_on channel=9 note=36 velocity=0 time=12
note_on channel=9 note=42 velocity=0 time=3
note_on channel=9 note=40 velocity=121 time=33
note_on channel=9 note=42 velocity=108 time=0
note_on channel=9 note=42 velocity=0 time=21
note_on channel=9 note=42 velocity=74 time=27
note_on channel=9 note=40 velocity=0 time=11
note_on channel=9 note=42 velocity=0 time=5
note_on channel=9 note=36 velocity=113 time=32
note_on channel=9 note=42 velocity=108 time=0
note_on channel=9 note=42 velocity=0 time=22
note_on channel=9 note=42 velocity=76 time=26
note_on channel=9 note=36 velocity=0 time=8
note_on channel=9 note=42 velocity=0 time=8
note_on channel=9 note=40 velocity=121 time=32
note_on channel=9 note=42 velocity=113 time=0
note_on channel=9 note=42 velocity=0 time=23
note_on channel=9 note=42 velocity=68 time=25
note_on channel=9 note=42 velocity=0 time=16
note_on channel=9 note=40 velocity=0 time=2
note_on channel=9 note=36 velocity=113 time=30
note_on channel=9 note=42 velocity=108 time=0
note_on channel=9 note=42 velocity=0 time=22
note_on channel=9 note=36 velocity=0 time=25
note_on channel=9 note=42 velocity=74 time=1
note_on channel=9 note=42 velocity=0 time=15
note_on channel=9 note=40 velocity=121 time=33
note_on channel=9 note=42 velocity=108 time=0
note_on channel=9 note=42 velocity=0 time=22
note_on channel=9 note=42 velocity=62 time=26
note_on channel=9 note=40 velocity=0 time=11
note_on channel=9 note=42 velocity=0 time=7
note_on channel=9 note=36 velocity=108 time=30
note_on channel=9 note=42 velocity=102 time=0
note_on channel=9 note=42 velocity=0 time=22
note_on channel=9 note=42 velocity=96 time=26
note_on channel=9 note=36 velocity=0 time=8
note_on channel=9 note=42 velocity=0 time=9
note_on channel=9 note=40 velocity=127 time=31
note_on channel=9 note=42 velocity=102 time=0
note_on channel=9 note=42 velocity=0 time=19
note_on channel=9 note=40 velocity=0 time=27
note_on channel=9 note=42 velocity=90 time=2
note_on channel=9 note=42 velocity=0 time=19
note_on channel=9 note=42 velocity=108 time=28
note_on channel=9 note=36 velocity=113 time=1
note_on channel=9 note=42 velocity=0 time=27
note_on channel=9 note=42 velocity=41 time=21
note_on channel=9 note=36 velocity=0 time=3
note_on channel=9 note=42 velocity=0 time=18
note_on channel=9 note=40 velocity=127 time=27
note_on channel=9 note=42 velocity=102 time=0
note_on channel=9 note=42 velocity=0 time=25
note_on channel=9 note=40 velocity=0 time=15
note_on channel=9 note=42 velocity=51 time=8
note_on channel=9 note=42 velocity=0 time=22
note_on channel=9 note=36 velocity=113 time=26
note_on channel=9 note=42 velocity=102 time=0
note_on channel=9 note=42 velocity=0 time=28
note_on channel=9 note=36 velocity=0 time=7
note_on channel=9 note=42 velocity=76 time=13
note_on channel=9 note=42 velocity=0 time=16
note_on channel=9 note=40 velocity=127 time=32
note_on channel=9 note=42 velocity=108 time=0
note_on channel=9 note=42 velocity=0 time=26
note_on channel=9 note=40 velocity=0 time=13
note_on channel=9 note=42 velocity=62 time=9
note_on channel=9 note=42 velocity=0 time=18
note_on channel=9 note=36 velocity=119 time=30
note_on channel=9 note=42 velocity=108 time=0
note_on channel=9 note=42 velocity=0 time=24
note_on channel=9 note=36 velocity=0 time=9
note_on channel=9 note=42 velocity=64 time=15
note_on channel=9 note=42 velocity=0 time=16
note_on channel=9 note=40 velocity=121 time=32
note_on channel=9 note=42 velocity=113 time=0
note_on channel=9 note=42 velocity=0 time=27
note_on channel=9 note=40 velocity=0 time=13
note_on channel=9 note=42 velocity=68 time=8
note_on channel=9 note=42 velocity=0 time=20
note_on channel=9 note=36 velocity=119 time=28
note_on channel=9 note=42 velocity=113 time=0
note_on channel=9 note=42 velocity=0 time=25
note_on channel=9 note=36 velocity=0 time=12
note_on channel=9 note=42 velocity=70 time=11
note_on channel=9 note=42 velocity=0 time=17
note_on channel=9 note=40 velocity=127 time=31
note_on channel=9 note=42 velocity=108 time=0
note_on channel=9 note=42 velocity=0 time=22
note_on channel=9 note=40 velocity=0 time=19
note_on channel=9 note=42 velocity=72 time=7
note_on channel=9 note=42 velocity=0 time=18
note_on channel=9 note=36 velocity=113 time=30
note_on channel=9 note=42 velocity=113 time=0
note_on channel=9 note=42 velocity=0 time=25
note_on channel=9 note=36 velocity=0 time=11
note_on channel=9 note=42 velocity=76 time=12
note_on channel=9 note=42 velocity=0 time=18
note_on channel=9 note=40 velocity=127 time=30
note_on channel=9 note=42 velocity=108 time=0
note_on channel=9 note=42 velocity=0 time=24
note_on channel=9 note=40 velocity=0 time=14
note_on channel=9 note=42 velocity=70 time=10
note_on channel=9 note=42 velocity=0 time=20
note_on channel=9 note=36 velocity=108 time=28
note_on channel=9 note=42 velocity=102 time=0
note_on channel=9 note=42 velocity=0 time=22
note_on channel=9 note=36 velocity=0 time=5
note_on channel=9 note=42 velocity=78 time=21
note_on channel=9 note=42 velocity=0 time=16
note_on channel=9 note=40 velocity=127 time=32
note_on channel=9 note=42 velocity=113 time=0
note_on channel=9 note=42 velocity=0 time=21
note_on channel=9 note=40 velocity=0 time=14
note_on channel=9 note=42 velocity=80 time=13
note_on channel=9 note=42 velocity=0 time=16
note_on channel=9 note=36 velocity=119 time=32
note_on channel=9 note=42 velocity=113 time=0
note_on channel=9 note=42 velocity=0 time=23
note_on channel=9 note=36 velocity=0 time=10
note_on channel=9 note=42 velocity=78 time=15
note_on channel=9 note=42 velocity=0 time=16
note_on channel=9 note=40 velocity=127 time=32
note_on channel=9 note=42 velocity=113 time=0
note_on channel=9 note=42 velocity=0 time=24
note_on channel=9 note=40 velocity=0 time=14
note_on channel=9 note=42 velocity=76 time=10
note_on channel=9 note=42 velocity=0 time=17
note_on channel=9 note=36 velocity=113 time=31
note_on channel=9 note=42 velocity=108 time=0
note_on channel=9 note=42 velocity=0 time=22
note_on channel=9 note=36 velocity=0 time=12
note_on channel=9 note=42 velocity=78 time=14
note_on channel=9 note=42 velocity=0 time=17
note_on channel=9 note=40 velocity=127 time=31
note_on channel=9 note=42 velocity=108 time=0
note_on channel=9 note=42 velocity=0 time=22
note_on channel=9 note=40 velocity=0 time=13
note_on channel=9 note=42 velocity=78 time=13
note_on channel=9 note=42 velocity=0 time=16
note_on channel=9 note=36 velocity=125 time=32
note_on channel=9 note=42 velocity=108 time=0
note_on channel=9 note=42 velocity=0 time=24
note_on channel=9 note=36 velocity=0 time=13
note_on channel=9 note=42 velocity=74 time=11
note_on channel=9 note=42 velocity=0 time=18
note_on channel=9 note=40 velocity=127 time=30
note_on channel=9 note=42 velocity=108 time=0
note_on channel=9 note=42 velocity=0 time=21
note_on channel=9 note=40 velocity=0 time=15
note_on channel=9 note=42 velocity=76 time=12
note_on channel=9 note=42 velocity=0 time=16
note_on channel=9 note=36 velocity=113 time=32
note_on channel=9 note=42 velocity=108 time=0
note_on channel=9 note=42 velocity=0 time=22
note_on channel=9 note=36 velocity=0 time=15
note_on channel=9 note=42 velocity=76 time=11
note_on channel=9 note=42 velocity=0 time=17
note_on channel=9 note=40 velocity=121 time=31
note_on channel=9 note=42 velocity=113 time=0
note_on channel=9 note=42 velocity=0 time=22
note_on channel=9 note=40 velocity=0 time=18
note_on channel=9 note=42 velocity=76 time=8
note_on channel=9 note=42 velocity=0 time=16
note_on channel=9 note=36 velocity=119 time=32
note_on channel=9 note=42 velocity=108 time=0
note_on channel=9 note=42 velocity=0 time=23
note_on channel=9 note=36 velocity=0 time=9
note_on channel=9 note=42 velocity=72 time=16
note_on channel=9 note=42 velocity=0 time=16
note_on channel=9 note=40 velocity=127 time=32
note_on channel=9 note=42 velocity=113 time=0
note_on channel=9 note=42 velocity=0 time=21
note_on channel=9 note=40 velocity=0 time=24
note_on channel=9 note=42 velocity=78 time=3
note_on channel=9 note=42 velocity=0 time=16
note_on channel=9 note=36 velocity=108 time=32
note_on channel=9 note=42 velocity=108 time=0
note_on channel=9 note=42 velocity=0 time=22
note_on channel=9 note=36 velocity=0 time=11
note_on channel=9 note=42 velocity=76 time=15
note_on channel=9 note=42 velocity=0 time=14
note_on channel=9 note=40 velocity=127 time=34
note_on channel=9 note=42 velocity=113 time=0
note_on channel=9 note=42 velocity=0 time=19
note_on channel=9 note=40 velocity=0 time=19
note_on channel=9 note=42 velocity=82 time=10
note_on channel=9 note=42 velocity=0 time=12
note_on channel=9 note=36 velocity=127 time=36
note_on channel=9 note=42 velocity=113 time=0
note_on channel=9 note=42 velocity=0 time=22
note_on channel=9 note=36 velocity=0 time=17
note_on channel=9 note=42 velocity=78 time=9
note_on channel=9 note=42 velocity=0 time=15
note_on channel=9 note=40 velocity=127 time=33
note_on channel=9 note=42 velocity=119 time=0
note_on channel=9 note=42 velocity=0 time=20
note_on channel=9 note=40 velocity=0 time=16
note_on channel=9 note=42 velocity=76 time=12
note_on channel=9 note=42 velocity=0 time=14
note_on channel=9 note=36 velocity=119 time=34
note_on channel=9 note=42 velocity=108 time=0
note_on channel=9 note=42 velocity=0 time=18
note_on channel=9 note=36 velocity=0 time=14
note_on channel=9 note=42 velocity=82 time=16
note_on channel=9 note=42 velocity=0 time=13
note_on channel=9 note=40 velocity=127 time=35
note_on channel=9 note=42 velocity=113 time=0
note_on channel=9 note=42 velocity=0 time=19
note_on channel=9 note=40 velocity=0 time=24
note_on channel=9 note=42 velocity=82 time=5
note_on channel=9 note=42 velocity=0 time=17
note_on channel=9 note=36 velocity=125 time=31
note_on channel=9 note=42 velocity=113 time=0
note_on channel=9 note=42 velocity=0 time=19
note_on channel=9 note=36 velocity=0 time=16
note_on channel=9 note=42 velocity=82 time=13
note_on channel=9 note=42 velocity=0 time=17
note_on channel=9 note=40 velocity=127 time=31
note_on channel=9 note=42 velocity=113 time=0
note_on channel=9 note=42 velocity=0 time=19
note_on channel=9 note=40 velocity=0 time=28
note_on channel=9 note=42 velocity=82 time=1
note_on channel=9 note=42 velocity=0 time=17
note_on channel=9 note=40 velocity=127 time=31
note_on channel=9 note=46 velocity=92 time=0
note_on channel=9 note=46 velocity=0 time=11
note_on channel=9 note=40 velocity=0 time=15
note_on channel=9 note=43 velocity=121 time=22
note_on channel=9 note=43 velocity=0 time=32
note_on channel=9 note=40 velocity=121 time=16
note_on channel=9 note=40 velocity=0 time=14
note_on channel=9 note=40 velocity=121 time=10
note_on channel=9 note=40 velocity=0 time=22
note_on channel=9 note=36 velocity=125 time=2
note_on channel=9 note=46 velocity=86 time=0
note_on channel=9 note=46 velocity=0 time=15
note_on channel=9 note=36 velocity=0 time=20
note_on channel=9 note=36 velocity=108 time=13
note_on channel=9 note=42 velocity=102 time=0
note_on channel=9 note=42 velocity=0 time=25
note_on channel=9 note=42 velocity=57 time=23
note_on channel=9 note=36 velocity=0 time=5
note_on channel=9 note=42 velocity=0 time=16
note_on channel=9 note=40 velocity=127 time=27
note_on channel=9 note=42 velocity=102 time=0
note_on channel=9 note=42 velocity=0 time=25
note_on channel=9 note=42 velocity=51 time=23
note_on channel=9 note=40 velocity=0 time=3
note_on channel=9 note=42 velocity=0 time=19
note_on channel=9 note=36 velocity=119 time=26
note_on channel=9 note=42 velocity=102 time=0
note_on channel=9 note=42 velocity=0 time=28
note_on channel=9 note=36 velocity=0 time=15
note_on channel=9 note=42 velocity=76 time=5
note_on channel=9 note=42 velocity=0 time=16
note_on channel=9 note=40 velocity=121 time=32
note_on channel=9 note=42 velocity=108 time=0
note_on channel=9 note=42 velocity=0 time=26
note_on channel=9 note=42 velocity=62 time=22
note_on channel=9 note=40 velocity=0 time=3
note_on channel=9 note=42 velocity=0 time=15
note_on channel=9 note=36 velocity=119 time=30
note_on channel=9 note=42 velocity=108 time=0
note_on channel=9 note=42 velocity=0 time=24
note_on channel=9 note=42 velocity=64 time=24
note_on channel=9 note=36 velocity=0 time=2
note_on channel=9 note=42 velocity=0 time=14
note_on channel=9 note=40 velocity=127 time=32
note_on channel=9 note=42 velocity=113 time=0
note_on channel=9 note=42 velocity=0 time=27
note_on channel=9 note=40 velocity=0 time=18
note_on channel=9 note=42 velocity=68 time=3
note_on channel=9 note=42 velocity=0 time=20
note_on channel=9 note=36 velocity=102 time=28
note_on channel=9 note=42 velocity=113 time=0
note_on channel=9 note=42 velocity=0 time=25
note_on channel=9 note=36 velocity=0 time=13
note_on channel=9 note=42 velocity=70 time=10
note_on channel=9 note=42 velocity=0 time=17
note_on channel=9 note=40 velocity=127 time=31
note_on channel=9 note=42 velocity=108 time=0
note_on channel=9 note=42 velocity=0 time=22
note_on channel=9 note=40 velocity=0 time=24
note_on channel=9 note=42 velocity=72 time=2
note_on channel=9 note=42 velocity=0 time=18
note_on channel=9 note=36 velocity=113 time=30
note_on channel=9 note=42 velocity=113 time=0
note_on channel=9 note=42 velocity=0 time=25
note_on channel=9 note=36 velocity=0 time=12
note_on channel=9 note=42 velocity=76 time=11
note_on channel=9 note=42 velocity=0 time=18
note_on channel=9 note=40 velocity=127 time=30
note_on channel=9 note=42 velocity=108 time=0
note_on channel=9 note=42 velocity=0 time=24
note_on channel=9 note=40 velocity=0 time=22
note_on channel=9 note=42 velocity=70 time=2
note_on channel=9 note=42 velocity=0 time=20
note_on channel=9 note=36 velocity=125 time=28
note_on channel=9 note=42 velocity=102 time=0
note_on channel=9 note=42 velocity=0 time=22
note_on channel=9 note=36 velocity=0 time=13
note_on channel=9 note=42 velocity=78 time=13
note_on channel=9 note=42 velocity=0 time=16
note_on channel=9 note=40 velocity=127 time=32
note_on channel=9 note=42 velocity=113 time=0
note_on channel=9 note=42 velocity=0 time=21
note_on channel=9 note=40 velocity=0 time=18
note_on channel=9 note=42 velocity=80 time=9
note_on channel=9 note=42 velocity=0 time=16
note_on channel=9 note=36 velocity=127 time=32
note_on channel=9 note=42 velocity=113 time=0
note_on channel=9 note=42 velocity=0 time=23
note_on channel=9 note=36 velocity=0 time=15
note_on channel=9 note=42 velocity=78 time=10
note_on channel=9 note=42 velocity=0 time=16
note_on channel=9 note=40 velocity=127 time=32
note_on channel=9 note=42 velocity=113 time=0
note_on channel=9 note=42 velocity=0 time=24
note_on channel=9 note=40 velocity=0 time=15
note_on channel=9 note=42 velocity=76 time=9
note_on channel=9 note=42 velocity=0 time=17
note_on channel=9 note=36 velocity=125 time=31
note_on channel=9 note=42 velocity=108 time=0
note_on channel=9 note=42 velocity=0 time=22
note_on channel=9 note=36 velocity=0 time=15
note_on channel=9 note=42 velocity=78 time=11
note_on channel=9 note=42 velocity=0 time=17
note_on channel=9 note=40 velocity=127 time=31
note_on channel=9 note=42 velocity=108 time=0
note_on channel=9 note=42 velocity=0 time=22
note_on channel=9 note=40 velocity=0 time=15
note_on channel=9 note=42 velocity=78 time=11
note_on channel=9 note=42 velocity=0 time=16
note_on channel=9 note=36 velocity=119 time=32
note_on channel=9 note=42 velocity=108 time=0
note_on channel=9 note=42 velocity=0 time=24
note_on channel=9 note=36 velocity=0 time=16
note_on channel=9 note=42 velocity=74 time=8
note_on channel=9 note=42 velocity=0 time=18
note_on channel=9 note=40 velocity=127 time=30
note_on channel=9 note=42 velocity=108 time=0
note_on channel=9 note=42 velocity=0 time=21
note_on channel=9 note=40 velocity=0 time=17
note_on channel=9 note=42 velocity=76 time=10
note_on channel=9 note=42 velocity=0 time=16
note_on channel=9 note=36 velocity=119 time=32
note_on channel=9 note=42 velocity=108 time=0
note_on channel=9 note=42 velocity=0 time=22
note_on channel=9 note=36 velocity=0 time=19
note_on channel=9 note=42 velocity=76 time=7
note_on channel=9 note=42 velocity=0 time=17
note_on channel=9 note=40 velocity=121 time=31
note_on channel=9 note=42 velocity=113 time=0
note_on channel=9 note=42 velocity=0 time=22
note_on channel=9 note=40 velocity=0 time=16
note_on channel=9 note=42 velocity=76 time=10
note_on channel=9 note=42 velocity=0 time=16
note_on channel=9 note=36 velocity=125 time=32
note_on channel=9 note=42 velocity=108 time=0
note_on channel=9 note=42 velocity=0 time=23
note_on channel=9 note=36 velocity=0 time=17
note_on channel=9 note=42 velocity=72 time=8
note_on channel=9 note=42 velocity=0 time=16
note_on channel=9 note=40 velocity=127 time=32
note_on channel=9 note=42 velocity=113 time=0
note_on channel=9 note=42 velocity=0 time=21
note_on channel=9 note=40 velocity=0 time=13
note_on channel=9 note=42 velocity=78 time=14
note_on channel=9 note=42 velocity=0 time=16
note_on channel=9 note=36 velocity=113 time=32
note_on channel=9 note=42 velocity=108 time=0
note_on channel=9 note=42 velocity=0 time=22
note_on channel=9 note=36 velocity=0 time=16
note_on channel=9 note=42 velocity=76 time=10
note_on channel=9 note=42 velocity=0 time=14
note_on channel=9 note=40 velocity=127 time=34
note_on channel=9 note=42 velocity=113 time=0
note_on channel=9 note=42 velocity=0 time=19
note_on channel=9 note=40 velocity=0 time=19
note_on channel=9 note=42 velocity=82 time=10
note_on channel=9 note=42 velocity=0 time=12
note_on channel=9 note=36 velocity=119 time=36
note_on channel=9 note=42 velocity=113 time=0
note_on channel=9 note=42 velocity=0 time=22
note_on channel=9 note=36 velocity=0 time=24
note_on channel=9 note=42 velocity=78 time=2
note_on channel=9 note=42 velocity=0 time=15
note_on channel=9 note=40 velocity=127 time=33
note_on channel=9 note=42 velocity=119 time=0
note_on channel=9 note=42 velocity=0 time=20
note_on channel=9 note=40 velocity=0 time=17
note_on channel=9 note=42 velocity=76 time=11
note_on channel=9 note=42 velocity=0 time=14
note_on channel=9 note=36 velocity=119 time=34
note_on channel=9 note=42 velocity=108 time=0
note_on channel=9 note=42 velocity=0 time=18
note_on channel=9 note=36 velocity=0 time=21
note_on channel=9 note=42 velocity=82 time=9
note_on channel=9 note=42 velocity=0 time=13
note_on channel=9 note=40 velocity=127 time=35
note_on channel=9 note=42 velocity=113 time=0
note_on channel=9 note=42 velocity=0 time=19
note_on channel=9 note=40 velocity=0 time=22
note_on channel=9 note=42 velocity=82 time=7
note_on channel=9 note=42 velocity=0 time=17
note_on channel=9 note=36 velocity=127 time=31
note_on channel=9 note=42 velocity=113 time=0
note_on channel=9 note=42 velocity=0 time=19
note_on channel=9 note=36 velocity=0 time=15
note_on channel=9 note=42 velocity=82 time=14
note_on channel=9 note=42 velocity=0 time=17
note_on channel=9 note=40 velocity=127 time=31
note_on channel=9 note=42 velocity=113 time=0
note_on channel=9 note=42 velocity=0 time=19
note_on channel=9 note=40 velocity=0 time=24
note_on channel=9 note=42 velocity=82 time=5
note_on channel=9 note=42 velocity=0 time=17
note_on channel=9 note=36 velocity=125 time=31
note_on channel=9 note=42 velocity=113 time=0
note_on channel=9 note=42 velocity=0 time=19
note_on channel=9 note=36 velocity=0 time=20
note_on channel=9 note=42 velocity=82 time=9
note_on channel=9 note=42 velocity=0 time=17
note_on channel=9 note=40 velocity=127 time=31
note_on channel=9 note=42 velocity=115 time=0
note_on channel=9 note=40 velocity=0 time=5
note_on channel=9 note=40 velocity=127 time=0
note_on channel=9 note=42 velocity=0 time=12
note_on channel=9 note=40 velocity=0 time=21
note_on channel=9 note=36 velocity=125 time=58
note_on channel=9 note=42 velocity=102 time=0
note_on channel=9 note=49 velocity=98 time=0
note_on channel=9 note=42 velocity=0 time=25
note_on channel=9 note=42 velocity=57 time=23
note_on channel=9 note=36 velocity=0 time=3
note_on channel=9 note=42 velocity=0 time=18
note_on channel=9 note=40 velocity=127 time=27
note_on channel=9 note=42 velocity=102 time=0
note_on channel=9 note=42 velocity=0 time=25
note_on channel=9 note=49 velocity=0 time=12
note_on channel=9 note=40 velocity=0 time=8
note_on channel=9 note=42 velocity=51 time=3
note_on channel=9 note=42 velocity=0 time=22
note_on channel=9 note=36 velocity=113 time=26
note_on channel=9 note=42 velocity=102 time=0
note_on channel=9 note=42 velocity=0 time=28
note_on channel=9 note=36 velocity=0 time=12
note_on channel=9 note=42 velocity=76 time=8
note_on channel=9 note=42 velocity=0 time=16
note_on channel=9 note=40 velocity=127 time=32
note_on channel=9 note=42 velocity=108 time=0
note_on channel=9 note=42 velocity=0 time=26
note_on channel=9 note=40 velocity=0 time=11
note_on channel=9 note=42 velocity=62 time=11
note_on channel=9 note=42 velocity=0 time=18
note_on channel=9 note=36 velocity=108 time=30
note_on channel=9 note=42 velocity=108 time=0
note_on channel=9 note=42 velocity=0 time=24
note_on channel=9 note=36 velocity=0 time=10
note_on channel=9 note=42 velocity=64 time=14
note_on channel=9 note=42 velocity=0 time=16
note_on channel=9 note=40 velocity=127 time=32
note_on channel=9 note=42 velocity=113 time=0
note_on channel=9 note=42 velocity=0 time=27
note_on channel=9 note=40 velocity=0 time=11
note_on channel=9 note=42 velocity=68 time=10
note_on channel=9 note=42 velocity=0 time=20
note_on channel=9 note=36 velocity=113 time=28
note_on channel=9 note=42 velocity=113 time=0
note_on channel=9 note=42 velocity=0 time=25
note_on channel=9 note=36 velocity=0 time=10
note_on channel=9 note=42 velocity=70 time=13
note_on channel=9 note=42 velocity=0 time=17
note_on channel=9 note=40 velocity=127 time=31
note_on channel=9 note=42 velocity=108 time=0
note_on channel=9 note=42 velocity=0 time=22
note_on channel=9 note=40 velocity=0 time=13
note_on channel=9 note=42 velocity=72 time=13
note_on channel=9 note=42 velocity=0 time=18
note_on channel=9 note=36 velocity=108 time=30
note_on channel=9 note=42 velocity=113 time=0
note_on channel=9 note=42 velocity=0 time=25
note_on channel=9 note=36 velocity=0 time=14
note_on channel=9 note=42 velocity=76 time=9
note_on channel=9 note=42 velocity=0 time=18
note_on channel=9 note=40 velocity=121 time=30
note_on channel=9 note=42 velocity=108 time=0
note_on channel=9 note=42 velocity=0 time=24
note_on channel=9 note=40 velocity=0 time=6
note_on channel=9 note=42 velocity=70 time=18
note_on channel=9 note=42 velocity=0 time=20
note_on channel=9 note=36 velocity=102 time=28
note_on channel=9 note=42 velocity=102 time=0
note_on channel=9 note=42 velocity=0 time=22
note_on channel=9 note=36 velocity=0 time=18
note_on channel=9 note=42 velocity=78 time=8
note_on channel=9 note=42 velocity=0 time=16
note_on channel=9 note=40 velocity=127 time=32
note_on channel=9 note=42 velocity=113 time=0
note_on channel=9 note=42 velocity=0 time=21
note_on channel=9 note=40 velocity=0 time=12
note_on channel=9 note=42 velocity=80 time=15
note_on channel=9 note=42 velocity=0 time=16
note_on channel=9 note=36 velocity=119 time=32
note_on channel=9 note=42 velocity=113 time=0
note_on channel=9 note=42 velocity=0 time=23
note_on channel=9 note=36 velocity=0 time=17
note_on channel=9 note=42 velocity=78 time=8
note_on channel=9 note=42 velocity=0 time=16
note_on channel=9 note=40 velocity=121 time=32
note_on channel=9 note=42 velocity=113 time=0
note_on channel=9 note=42 velocity=0 time=24
note_on channel=9 note=40 velocity=0 time=13
note_on channel=9 note=42 velocity=76 time=11
note_on channel=9 note=42 velocity=0 time=17
note_on channel=9 note=36 velocity=119 time=31
note_on channel=9 note=42 velocity=108 time=0
note_on channel=9 note=42 velocity=0 time=22
note_on channel=9 note=36 velocity=0 time=21
note_on channel=9 note=42 velocity=78 time=5
note_on channel=9 note=42 velocity=0 time=17
note_on channel=9 note=40 velocity=121 time=31
note_on channel=9 note=42 velocity=111 time=0
note_on channel=9 note=42 velocity=0 time=22
note_on channel=9 note=40 velocity=0 time=7
note_on channel=9 note=46 velocity=97 time=19
note_on channel=9 note=46 velocity=0 time=16
note_on channel=9 note=36 velocity=108 time=32
note_on channel=9 note=42 velocity=111 time=0
note_on channel=9 note=42 velocity=0 time=24
note_on channel=9 note=36 velocity=0 time=8
note_on channel=9 note=42 velocity=74 time=16
note_on channel=9 note=42 velocity=0 time=18
note_on channel=9 note=40 velocity=127 time=30
note_on channel=9 note=42 velocity=108 time=0
note_on channel=9 note=42 velocity=0 time=21
note_on channel=9 note=40 velocity=0 time=11
note_on channel=9 note=42 velocity=76 time=16
note_on channel=9 note=42 velocity=0 time=16
note_on channel=9 note=36 velocity=113 time=32
note_on channel=9 note=42 velocity=108 time=0
note_on channel=9 note=42 velocity=0 time=22
note_on channel=9 note=36 velocity=0 time=16
note_on channel=9 note=42 velocity=76 time=10
note_on channel=9 note=42 velocity=0 time=17
note_on channel=9 note=40 velocity=127 time=31
note_on channel=9 note=42 velocity=113 time=0
note_on channel=9 note=42 velocity=0 time=22
note_on channel=9 note=40 velocity=0 time=13
note_on channel=9 note=42 velocity=76 time=13
note_on channel=9 note=42 velocity=0 time=16
note_on channel=9 note=36 velocity=113 time=32
note_on channel=9 note=42 velocity=108 time=0
note_on channel=9 note=42 velocity=0 time=23
note_on channel=9 note=36 velocity=0 time=12
note_on channel=9 note=42 velocity=72 time=13
note_on channel=9 note=42 velocity=0 time=16
note_on channel=9 note=40 velocity=127 time=32
note_on channel=9 note=42 velocity=113 time=0
note_on channel=9 note=42 velocity=0 time=21
note_on channel=9 note=40 velocity=0 time=16
note_on channel=9 note=42 velocity=78 time=11
note_on channel=9 note=42 velocity=0 time=16
note_on channel=9 note=36 velocity=119 time=32
note_on channel=9 note=42 velocity=108 time=0
note_on channel=9 note=42 velocity=0 time=22
note_on channel=9 note=36 velocity=0 time=8
note_on channel=9 note=42 velocity=76 time=18
note_on channel=9 note=42 velocity=0 time=14
note_on channel=9 note=40 velocity=127 time=34
note_on channel=9 note=42 velocity=113 time=0
note_on channel=9 note=42 velocity=0 time=19
note_on channel=9 note=40 velocity=0 time=15
note_on channel=9 note=42 velocity=82 time=14
note_on channel=9 note=42 velocity=0 time=12
note_on channel=9 note=36 velocity=119 time=36
note_on channel=9 note=42 velocity=113 time=0
note_on channel=9 note=42 velocity=0 time=22
note_on channel=9 note=36 velocity=0 time=21
note_on channel=9 note=42 velocity=78 time=5
note_on channel=9 note=42 velocity=0 time=15
note_on channel=9 note=40 velocity=127 time=33
note_on channel=9 note=42 velocity=119 time=0
note_on channel=9 note=42 velocity=0 time=20
note_on channel=9 note=40 velocity=0 time=21
note_on channel=9 note=42 velocity=76 time=7
note_on channel=9 note=42 velocity=0 time=14
note_on channel=9 note=36 velocity=113 time=34
note_on channel=9 note=42 velocity=108 time=0
note_on channel=9 note=42 velocity=0 time=18
note_on channel=9 note=36 velocity=0 time=13
note_on channel=9 note=42 velocity=82 time=17
note_on channel=9 note=42 velocity=0 time=13
note_on channel=9 note=40 velocity=127 time=35
note_on channel=9 note=42 velocity=113 time=0
note_on channel=9 note=42 velocity=0 time=19
note_on channel=9 note=40 velocity=0 time=27
note_on channel=9 note=42 velocity=82 time=2
note_on channel=9 note=42 velocity=0 time=17
note_on channel=9 note=40 velocity=117 time=31
note_on channel=9 note=40 velocity=0 time=13
note_on channel=9 note=40 velocity=127 time=11
note_on channel=9 note=40 velocity=0 time=16
note_on channel=9 note=40 velocity=121 time=32
note_on channel=9 note=40 velocity=0 time=12
note_on channel=9 note=40 velocity=127 time=12
note_on channel=9 note=40 velocity=0 time=16
note_on channel=9 note=40 velocity=127 time=8
note_on channel=9 note=40 velocity=0 time=16
note_on channel=9 note=43 velocity=98 time=8
note_on channel=9 note=43 velocity=0 time=15
note_on channel=9 note=41 velocity=115 time=9
note_on channel=9 note=36 velocity=113 time=24
note_on channel=9 note=41 velocity=0 time=2
note_on channel=9 note=36 velocity=0 time=29
note_on channel=9 note=36 velocity=125 time=161
note_on channel=9 note=36 velocity=0 time=47
note_on channel=9 note=40 velocity=127 time=49
note_on channel=9 note=40 velocity=0 time=56
note_on channel=9 note=36 velocity=119 time=40
note_on channel=9 note=36 velocity=0 time=38
note_on channel=9 note=40 velocity=121 time=58
note_on channel=9 note=40 velocity=0 time=42
note_on channel=9 note=36 velocity=113 time=54
note_on channel=9 note=36 velocity=0 time=34
note_on channel=9 note=40 velocity=127 time=62
note_on channel=9 note=40 velocity=0 time=42
note_on channel=9 note=36 velocity=119 time=54
note_on channel=9 note=36 velocity=0 time=30
note_on channel=9 note=40 velocity=127 time=66
note_on channel=9 note=40 velocity=0 time=34
note_on channel=9 note=46 velocity=101 time=14
note_on channel=9 note=36 velocity=108 time=48
note_on channel=9 note=42 velocity=102 time=0
note_on channel=9 note=46 velocity=0 time=11
note_on channel=9 note=42 velocity=0 time=14
note_on channel=9 note=42 velocity=57 time=23
note_on channel=9 note=36 velocity=0 time=5
note_on channel=9 note=42 velocity=0 time=16
note_on channel=9 note=40 velocity=127 time=27
note_on channel=9 note=42 velocity=102 time=0
note_on channel=9 note=42 velocity=0 time=25
note_on channel=9 note=42 velocity=51 time=23
note_on channel=9 note=40 velocity=0 time=3
note_on channel=9 note=42 velocity=0 time=19
note_on channel=9 note=36 velocity=119 time=26
note_on channel=9 note=42 velocity=102 time=0
note_on channel=9 note=42 velocity=0 time=28
note_on channel=9 note=36 velocity=0 time=15
note_on channel=9 note=42 velocity=76 time=5
note_on channel=9 note=42 velocity=0 time=16
note_on channel=9 note=40 velocity=121 time=32
note_on channel=9 note=42 velocity=108 time=0
note_on channel=9 note=42 velocity=0 time=26
note_on channel=9 note=42 velocity=62 time=22
note_on channel=9 note=40 velocity=0 time=3
note_on channel=9 note=42 velocity=0 time=15
note_on channel=9 note=36 velocity=119 time=30
note_on channel=9 note=42 velocity=108 time=0
note_on channel=9 note=42 velocity=0 time=24
note_on channel=9 note=42 velocity=64 time=24
note_on channel=9 note=36 velocity=0 time=2
note_on channel=9 note=42 velocity=0 time=14
note_on channel=9 note=40 velocity=127 time=32
note_on channel=9 note=42 velocity=113 time=0
note_on channel=9 note=42 velocity=0 time=27
note_on channel=9 note=40 velocity=0 time=18
note_on channel=9 note=42 velocity=68 time=3
note_on channel=9 note=42 velocity=0 time=20
note_on channel=9 note=36 velocity=102 time=28
note_on channel=9 note=42 velocity=113 time=0
note_on channel=9 note=42 velocity=0 time=25
note_on channel=9 note=36 velocity=0 time=13
note_on channel=9 note=42 velocity=70 time=10
note_on channel=9 note=42 velocity=0 time=17
note_on channel=9 note=40 velocity=127 time=31
note_on channel=9 note=42 velocity=108 time=0
note_on channel=9 note=42 velocity=0 time=22
note_on channel=9 note=40 velocity=0 time=24
note_on channel=9 note=42 velocity=72 time=2
note_on channel=9 note=42 velocity=0 time=18
note_on channel=9 note=36 velocity=113 time=30
note_on channel=9 note=42 velocity=113 time=0
note_on channel=9 note=42 velocity=0 time=25
note_on channel=9 note=36 velocity=0 time=12
note_on channel=9 note=42 velocity=76 time=11
note_on channel=9 note=42 velocity=0 time=18
note_on channel=9 note=40 velocity=127 time=30
note_on channel=9 note=42 velocity=108 time=0
note_on channel=9 note=42 velocity=0 time=24
note_on channel=9 note=40 velocity=0 time=22
note_on channel=9 note=42 velocity=70 time=2
note_on channel=9 note=42 velocity=0 time=20
note_on channel=9 note=36 velocity=125 time=28
note_on channel=9 note=42 velocity=102 time=0
note_on channel=9 note=42 velocity=0 time=22
note_on channel=9 note=36 velocity=0 time=13
note_on channel=9 note=42 velocity=78 time=13
note_on channel=9 note=42 velocity=0 time=16
note_on channel=9 note=40 velocity=127 time=32
note_on channel=9 note=42 velocity=113 time=0
note_on channel=9 note=42 velocity=0 time=21
note_on channel=9 note=40 velocity=0 time=18
note_on channel=9 note=42 velocity=80 time=9
note_on channel=9 note=42 velocity=0 time=16
note_on channel=9 note=36 velocity=127 time=32
note_on channel=9 note=42 velocity=113 time=0
note_on channel=9 note=42 velocity=0 time=23
note_on channel=9 note=36 velocity=0 time=15
note_on channel=9 note=42 velocity=78 time=10
note_on channel=9 note=42 velocity=0 time=16
note_on channel=9 note=40 velocity=127 time=32
note_on channel=9 note=42 velocity=113 time=0
note_on channel=9 note=42 velocity=0 time=24
note_on channel=9 note=40 velocity=0 time=15
note_on channel=9 note=42 velocity=76 time=9
note_on channel=9 note=42 velocity=0 time=17
note_on channel=9 note=36 velocity=125 time=31
note_on channel=9 note=42 velocity=108 time=0
note_on channel=9 note=42 velocity=0 time=22
note_on channel=9 note=36 velocity=0 time=15
note_on channel=9 note=42 velocity=78 time=11
note_on channel=9 note=42 velocity=0 time=17
note_on channel=9 note=40 velocity=127 time=31
note_on channel=9 note=42 velocity=108 time=0
note_on channel=9 note=42 velocity=0 time=22
note_on channel=9 note=40 velocity=0 time=15
note_on channel=9 note=42 velocity=78 time=11
note_on channel=9 note=42 velocity=0 time=16
note_on channel=9 note=36 velocity=119 time=32
note_on channel=9 note=42 velocity=108 time=0
note_on channel=9 note=42 velocity=0 time=24
note_on channel=9 note=36 velocity=0 time=16
note_on channel=9 note=42 velocity=74 time=8
note_on channel=9 note=42 velocity=0 time=18
note_on channel=9 note=40 velocity=127 time=30
note_on channel=9 note=42 velocity=108 time=0
note_on channel=9 note=42 velocity=0 time=21
note_on channel=9 note=40 velocity=0 time=17
note_on channel=9 note=42 velocity=76 time=10
note_on channel=9 note=42 velocity=0 time=16
note_on channel=9 note=36 velocity=119 time=32
note_on channel=9 note=42 velocity=108 time=0
note_on channel=9 note=42 velocity=0 time=22
note_on channel=9 note=36 velocity=0 time=19
note_on channel=9 note=42 velocity=76 time=7
note_on channel=9 note=42 velocity=0 time=17
note_on channel=9 note=40 velocity=121 time=31
note_on channel=9 note=42 velocity=113 time=0
note_on channel=9 note=42 velocity=0 time=22
note_on channel=9 note=40 velocity=0 time=16
note_on channel=9 note=42 velocity=76 time=10
note_on channel=9 note=42 velocity=0 time=16
note_on channel=9 note=36 velocity=125 time=32
note_on channel=9 note=42 velocity=108 time=0
note_on channel=9 note=42 velocity=0 time=23
note_on channel=9 note=36 velocity=0 time=17
note_on channel=9 note=42 velocity=72 time=8
note_on channel=9 note=42 velocity=0 time=16
note_on channel=9 note=40 velocity=127 time=32
note_on channel=9 note=42 velocity=113 time=0
note_on channel=9 note=42 velocity=0 time=21
note_on channel=9 note=40 velocity=0 time=13
note_on channel=9 note=42 velocity=78 time=14
note_on channel=9 note=42 velocity=0 time=16
note_on channel=9 note=36 velocity=113 time=32
note_on channel=9 note=42 velocity=108 time=0
note_on channel=9 note=42 velocity=0 time=22
note_on channel=9 note=36 velocity=0 time=16
note_on channel=9 note=42 velocity=76 time=10
note_on channel=9 note=42 velocity=0 time=14
note_on channel=9 note=40 velocity=127 time=34
note_on channel=9 note=42 velocity=113 time=0
note_on channel=9 note=42 velocity=0 time=19
note_on channel=9 note=40 velocity=0 time=19
note_on channel=9 note=42 velocity=82 time=10
note_on channel=9 note=42 velocity=0 time=12
note_on channel=9 note=36 velocity=119 time=36
note_on channel=9 note=42 velocity=113 time=0
note_on channel=9 note=42 velocity=0 time=22
note_on channel=9 note=36 velocity=0 time=24
note_on channel=9 note=42 velocity=78 time=2
note_on channel=9 note=42 velocity=0 time=15
note_on channel=9 note=40 velocity=127 time=33
note_on channel=9 note=42 velocity=119 time=0
note_on channel=9 note=42 velocity=0 time=20
note_on channel=9 note=40 velocity=0 time=17
note_on channel=9 note=42 velocity=76 time=11
note_on channel=9 note=42 velocity=0 time=14
note_on channel=9 note=36 velocity=119 time=34
note_on channel=9 note=42 velocity=108 time=0
note_on channel=9 note=42 velocity=0 time=18
note_on channel=9 note=36 velocity=0 time=21
note_on channel=9 note=42 velocity=82 time=9
note_on channel=9 note=42 velocity=0 time=13
note_on channel=9 note=40 velocity=127 time=35
note_on channel=9 note=42 velocity=113 time=0
note_on channel=9 note=42 velocity=0 time=19
note_on channel=9 note=40 velocity=0 time=22
note_on channel=9 note=42 velocity=82 time=7
note_on channel=9 note=42 velocity=0 time=17
note_on channel=9 note=36 velocity=127 time=31
note_on channel=9 note=42 velocity=113 time=0
note_on channel=9 note=42 velocity=0 time=19
note_on channel=9 note=36 velocity=0 time=15
note_on channel=9 note=42 velocity=82 time=14
note_on channel=9 note=42 velocity=0 time=17
note_on channel=9 note=40 velocity=127 time=31
note_on channel=9 note=42 velocity=113 time=0
note_on channel=9 note=42 velocity=0 time=19
note_on channel=9 note=40 velocity=0 time=24
note_on channel=9 note=42 velocity=82 time=5
note_on channel=9 note=42 velocity=0 time=17
note_on channel=9 note=36 velocity=125 time=31
note_on channel=9 note=42 velocity=113 time=0
note_on channel=9 note=42 velocity=0 time=19
note_on channel=9 note=36 velocity=0 time=20
note_on channel=9 note=42 velocity=82 time=9
note_on channel=9 note=42 velocity=0 time=17
note_on channel=9 note=40 velocity=127 time=31
note_on channel=9 note=42 velocity=115 time=0
note_on channel=9 note=40 velocity=0 time=5
note_on channel=9 note=40 velocity=127 time=0
note_on channel=9 note=42 velocity=0 time=12
note_on channel=9 note=40 velocity=0 time=21
note_on channel=9 note=42 velocity=115 time=10
note_on channel=9 note=42 velocity=0 time=17
note_on channel=9 note=36 velocity=125 time=31
note_on channel=9 note=42 velocity=102 time=0
note_on channel=9 note=49 velocity=98 time=0
note_on channel=9 note=42 velocity=0 time=25
note_on channel=9 note=42 velocity=57 time=23
note_on channel=9 note=36 velocity=0 time=3
note_on channel=9 note=42 velocity=0 time=18
note_on channel=9 note=40 velocity=127 time=27
note_on channel=9 note=42 velocity=102 time=0
note_on channel=9 note=42 velocity=0 time=25
note_on channel=9 note=49 velocity=0 time=12
note_on channel=9 note=40 velocity=0 time=8
note_on channel=9 note=42 velocity=51 time=3
note_on channel=9 note=42 velocity=0 time=22
note_on channel=9 note=36 velocity=113 time=26
note_on channel=9 note=42 velocity=102 time=0
note_on channel=9 note=42 velocity=0 time=28
note_on channel=9 note=36 velocity=0 time=12
note_on channel=9 note=42 velocity=76 time=8
note_on channel=9 note=42 velocity=0 time=16
note_on channel=9 note=40 velocity=127 time=32
note_on channel=9 note=42 velocity=108 time=0
note_on channel=9 note=42 velocity=0 time=26
note_on channel=9 note=40 velocity=0 time=11
note_on channel=9 note=42 velocity=62 time=11
note_on channel=9 note=42 velocity=0 time=18
note_on channel=9 note=36 velocity=108 time=30
note_on channel=9 note=42 velocity=108 time=0
note_on channel=9 note=42 velocity=0 time=24
note_on channel=9 note=36 velocity=0 time=10
note_on channel=9 note=42 velocity=64 time=14
note_on channel=9 note=42 velocity=0 time=16
note_on channel=9 note=40 velocity=127 time=32
note_on channel=9 note=42 velocity=113 time=0
note_on channel=9 note=42 velocity=0 time=27
note_on channel=9 note=40 velocity=0 time=11
note_on channel=9 note=42 velocity=68 time=10
note_on channel=9 note=42 velocity=0 time=20
note_on channel=9 note=36 velocity=113 time=28
note_on channel=9 note=42 velocity=113 time=0
note_on channel=9 note=42 velocity=0 time=25
note_on channel=9 note=36 velocity=0 time=10
note_on channel=9 note=42 velocity=70 time=13
note_on channel=9 note=42 velocity=0 time=17
note_on channel=9 note=40 velocity=127 time=31
note_on channel=9 note=42 velocity=108 time=0
note_on channel=9 note=42 velocity=0 time=22
note_on channel=9 note=40 velocity=0 time=13
note_on channel=9 note=42 velocity=72 time=13
note_on channel=9 note=42 velocity=0 time=18
note_on channel=9 note=36 velocity=108 time=30
note_on channel=9 note=42 velocity=113 time=0
note_on channel=9 note=42 velocity=0 time=25
note_on channel=9 note=36 velocity=0 time=14
note_on channel=9 note=42 velocity=76 time=9
note_on channel=9 note=42 velocity=0 time=18
note_on channel=9 note=40 velocity=121 time=30
note_on channel=9 note=42 velocity=108 time=0
note_on channel=9 note=42 velocity=0 time=24
note_on channel=9 note=40 velocity=0 time=6
note_on channel=9 note=42 velocity=70 time=18
note_on channel=9 note=42 velocity=0 time=20
note_on channel=9 note=36 velocity=102 time=28
note_on channel=9 note=42 velocity=102 time=0
note_on channel=9 note=42 velocity=0 time=22
note_on channel=9 note=36 velocity=0 time=18
note_on channel=9 note=42 velocity=78 time=8
note_on channel=9 note=42 velocity=0 time=16
note_on channel=9 note=40 velocity=127 time=32
note_on channel=9 note=42 velocity=113 time=0
note_on channel=9 note=42 velocity=0 time=21
note_on channel=9 note=40 velocity=0 time=12
note_on channel=9 note=42 velocity=80 time=15
note_on channel=9 note=42 velocity=0 time=16
note_on channel=9 note=36 velocity=119 time=32
note_on channel=9 note=42 velocity=113 time=0
note_on channel=9 note=42 velocity=0 time=23
note_on channel=9 note=36 velocity=0 time=17
note_on channel=9 note=42 velocity=78 time=8
note_on channel=9 note=42 velocity=0 time=16
note_on channel=9 note=40 velocity=121 time=32
note_on channel=9 note=42 velocity=113 time=0
note_on channel=9 note=42 velocity=0 time=24
note_on channel=9 note=40 velocity=0 time=13
note_on channel=9 note=42 velocity=76 time=11
note_on channel=9 note=42 velocity=0 time=17
note_on channel=9 note=36 velocity=119 time=31
note_on channel=9 note=42 velocity=108 time=0
note_on channel=9 note=42 velocity=0 time=22
note_on channel=9 note=36 velocity=0 time=21
note_on channel=9 note=42 velocity=78 time=5
note_on channel=9 note=42 velocity=0 time=17
note_on channel=9 note=40 velocity=121 time=31
note_on channel=9 note=42 velocity=111 time=0
note_on channel=9 note=42 velocity=0 time=22
note_on channel=9 note=40 velocity=0 time=7
note_on channel=9 note=46 velocity=97 time=19
note_on channel=9 note=46 velocity=0 time=16
note_on channel=9 note=36 velocity=108 time=32
note_on channel=9 note=42 velocity=111 time=0
note_on channel=9 note=42 velocity=0 time=24
note_on channel=9 note=36 velocity=0 time=8
note_on channel=9 note=42 velocity=74 time=16
note_on channel=9 note=42 velocity=0 time=18
note_on channel=9 note=40 velocity=127 time=30
note_on channel=9 note=42 velocity=108 time=0
note_on channel=9 note=42 velocity=0 time=21
note_on channel=9 note=40 velocity=0 time=11
note_on channel=9 note=42 velocity=76 time=16
note_on channel=9 note=42 velocity=0 time=16
note_on channel=9 note=36 velocity=113 time=32
note_on channel=9 note=42 velocity=108 time=0
note_on channel=9 note=42 velocity=0 time=22
note_on channel=9 note=36 velocity=0 time=16
note_on channel=9 note=42 velocity=76 time=10
note_on channel=9 note=42 velocity=0 time=17
note_on channel=9 note=40 velocity=127 time=31
note_on channel=9 note=42 velocity=113 time=0
note_on channel=9 note=42 velocity=0 time=22
note_on channel=9 note=40 velocity=0 time=13
note_on channel=9 note=42 velocity=76 time=13
note_on channel=9 note=42 velocity=0 time=16
note_on channel=9 note=36 velocity=113 time=32
note_on channel=9 note=42 velocity=108 time=0
note_on channel=9 note=42 velocity=0 time=23
note_on channel=9 note=36 velocity=0 time=12
note_on channel=9 note=42 velocity=72 time=13
note_on channel=9 note=42 velocity=0 time=16
note_on channel=9 note=40 velocity=127 time=32
note_on channel=9 note=42 velocity=113 time=0
note_on channel=9 note=42 velocity=0 time=21
note_on channel=9 note=40 velocity=0 time=16
note_on channel=9 note=42 velocity=78 time=11
note_on channel=9 note=42 velocity=0 time=16
note_on channel=9 note=36 velocity=119 time=32
note_on channel=9 note=42 velocity=108 time=0
note_on channel=9 note=42 velocity=0 time=22
note_on channel=9 note=36 velocity=0 time=8
note_on channel=9 note=42 velocity=76 time=18
note_on channel=9 note=42 velocity=0 time=14
note_on channel=9 note=40 velocity=127 time=34
note_on channel=9 note=42 velocity=113 time=0
note_on channel=9 note=42 velocity=0 time=19
note_on channel=9 note=40 velocity=0 time=15
note_on channel=9 note=42 velocity=82 time=14
note_on channel=9 note=42 velocity=0 time=12
note_on channel=9 note=36 velocity=119 time=36
note_on channel=9 note=42 velocity=113 time=0
note_on channel=9 note=42 velocity=0 time=22
note_on channel=9 note=36 velocity=0 time=21
note_on channel=9 note=42 velocity=78 time=5
note_on channel=9 note=42 velocity=0 time=15
note_on channel=9 note=40 velocity=127 time=33
note_on channel=9 note=42 velocity=119 time=0
note_on channel=9 note=42 velocity=0 time=20
note_on channel=9 note=40 velocity=0 time=21
note_on channel=9 note=42 velocity=76 time=7
note_on channel=9 note=42 velocity=0 time=14
note_on channel=9 note=36 velocity=113 time=34
note_on channel=9 note=42 velocity=108 time=0
note_on channel=9 note=42 velocity=0 time=18
note_on channel=9 note=36 velocity=0 time=13
note_on channel=9 note=42 velocity=82 time=17
note_on channel=9 note=42 velocity=0 time=13
note_on channel=9 note=40 velocity=127 time=35
note_on channel=9 note=42 velocity=113 time=0
note_on channel=9 note=42 velocity=0 time=19
note_on channel=9 note=40 velocity=0 time=27
note_on channel=9 note=42 velocity=82 time=2
note_on channel=9 note=42 velocity=0 time=17
note_on channel=9 note=40 velocity=117 time=31
note_on channel=9 note=40 velocity=0 time=13
note_on channel=9 note=40 velocity=127 time=11
note_on channel=9 note=40 velocity=0 time=16
note_on channel=9 note=40 velocity=121 time=32
note_on channel=9 note=40 velocity=0 time=12
note_on channel=9 note=40 velocity=127 time=12
note_on channel=9 note=40 velocity=0 time=16
note_on channel=9 note=40 velocity=127 time=8
note_on channel=9 note=40 velocity=0 time=16
note_on channel=9 note=43 velocity=98 time=8
note_on channel=9 note=43 velocity=0 time=15
note_on channel=9 note=41 velocity=115 time=9
note_on channel=9 note=36 velocity=113 time=24
note_on channel=9 note=40 velocity=127 time=0
note_on channel=9 note=41 velocity=0 time=2
note_on channel=9 note=40 velocity=0 time=14
note_on channel=9 note=36 velocity=0 time=15
note_on channel=9 note=36 velocity=125 time=161
note_on channel=9 note=36 velocity=0 time=47
note_on channel=9 note=40 velocity=127 time=49
note_on channel=9 note=40 velocity=0 time=56
note_on channel=9 note=36 velocity=119 time=40
note_on channel=9 note=36 velocity=0 time=38
note_on channel=9 note=40 velocity=121 time=58
note_on channel=9 note=40 velocity=0 time=42
note_on channel=9 note=36 velocity=113 time=54
note_on channel=9 note=36 velocity=0 time=34
note_on channel=9 note=40 velocity=127 time=62
note_on channel=9 note=40 velocity=0 time=42
note_on channel=9 note=36 velocity=119 time=54
note_on channel=9 note=36 velocity=0 time=30
note_on channel=9 note=40 velocity=127 time=66
note_on channel=9 note=40 velocity=0 time=34
note_on channel=9 note=36 velocity=125 time=62
note_on channel=9 note=42 velocity=102 time=0
note_on channel=9 note=42 velocity=0 time=25
note_on channel=9 note=36 velocity=0 time=22
note_on channel=9 note=42 velocity=57 time=1
note_on channel=9 note=42 velocity=0 time=21
note_on channel=9 note=40 velocity=127 time=27
note_on channel=9 note=42 velocity=102 time=0
note_on channel=9 note=42 velocity=0 time=25
note_on channel=9 note=42 velocity=51 time=23
note_on channel=9 note=40 velocity=0 time=8
note_on channel=9 note=42 velocity=0 time=14
note_on channel=9 note=36 velocity=119 time=26
note_on channel=9 note=42 velocity=102 time=0
note_on channel=9 note=42 velocity=0 time=28
note_on channel=9 note=36 velocity=0 time=10
note_on channel=9 note=42 velocity=76 time=10
note_on channel=9 note=42 velocity=0 time=16
note_on channel=9 note=40 velocity=121 time=32
note_on channel=9 note=42 velocity=108 time=0
note_on channel=9 note=42 velocity=0 time=26
note_on channel=9 note=40 velocity=0 time=16
note_on channel=9 note=42 velocity=62 time=6
note_on channel=9 note=42 velocity=0 time=18
note_on channel=9 note=36 velocity=113 time=30
note_on channel=9 note=42 velocity=108 time=0
note_on channel=9 note=42 velocity=0 time=24
note_on channel=9 note=36 velocity=0 time=10
note_on channel=9 note=42 velocity=64 time=14
note_on channel=9 note=42 velocity=0 time=16
note_on channel=9 note=40 velocity=127 time=32
note_on channel=9 note=42 velocity=113 time=0
note_on channel=9 note=42 velocity=0 time=27
note_on channel=9 note=40 velocity=0 time=15
note_on channel=9 note=42 velocity=68 time=6
note_on channel=9 note=42 velocity=0 time=20
note_on channel=9 note=36 velocity=119 time=28
note_on channel=9 note=42 velocity=113 time=0
note_on channel=9 note=42 velocity=0 time=25
note_on channel=9 note=36 velocity=0 time=5
note_on channel=9 note=42 velocity=70 time=18
note_on channel=9 note=42 velocity=0 time=17
note_on channel=9 note=40 velocity=127 time=31
note_on channel=9 note=42 velocity=108 time=0
note_on channel=9 note=42 velocity=0 time=22
note_on channel=9 note=40 velocity=0 time=12
note_on channel=9 note=42 velocity=72 time=14
note_on channel=9 note=42 velocity=0 time=18
note_on channel=9 note=36 velocity=108 time=30
note_on channel=9 note=42 velocity=102 time=0
note_on channel=9 note=42 velocity=0 time=25
note_on channel=9 note=42 velocity=57 time=23
note_on channel=9 note=36 velocity=0 time=5
note_on channel=9 note=42 velocity=0 time=16
note_on channel=9 note=40 velocity=127 time=27
note_on channel=9 note=42 velocity=102 time=0
note_on channel=9 note=42 velocity=0 time=25
note_on channel=9 note=42 velocity=51 time=23
note_on channel=9 note=40 velocity=0 time=3
note_on channel=9 note=42 velocity=0 time=19
note_on channel=9 note=36 velocity=119 time=26
note_on channel=9 note=42 velocity=102 time=0
note_on channel=9 note=42 velocity=0 time=28
note_on channel=9 note=36 velocity=0 time=15
note_on channel=9 note=42 velocity=76 time=5
note_on channel=9 note=42 velocity=0 time=16
note_on channel=9 note=40 velocity=121 time=32
note_on channel=9 note=42 velocity=108 time=0
note_on channel=9 note=42 velocity=0 time=26
note_on channel=9 note=42 velocity=62 time=22
note_on channel=9 note=40 velocity=0 time=3
note_on channel=9 note=42 velocity=0 time=15
note_on channel=9 note=36 velocity=119 time=30
note_on channel=9 note=42 velocity=108 time=0
note_on channel=9 note=42 velocity=0 time=24
note_on channel=9 note=42 velocity=64 time=24
note_on channel=9 note=36 velocity=0 time=2
note_on channel=9 note=42 velocity=0 time=14
note_on channel=9 note=40 velocity=127 time=32
note_on channel=9 note=42 velocity=113 time=0
note_on channel=9 note=42 velocity=0 time=27
note_on channel=9 note=40 velocity=0 time=18
note_on channel=9 note=42 velocity=68 time=3
note_on channel=9 note=42 velocity=0 time=20
note_on channel=9 note=36 velocity=102 time=28
note_on channel=9 note=42 velocity=113 time=0
note_on channel=9 note=42 velocity=0 time=25
note_on channel=9 note=36 velocity=0 time=13
note_on channel=9 note=42 velocity=70 time=10
note_on channel=9 note=42 velocity=0 time=17
note_on channel=9 note=40 velocity=127 time=31
note_on channel=9 note=42 velocity=108 time=0
note_on channel=9 note=42 velocity=0 time=22
note_on channel=9 note=40 velocity=0 time=24
note_on channel=9 note=42 velocity=72 time=2
note_on channel=9 note=42 velocity=0 time=18
note_on channel=9 note=36 velocity=113 time=30
note_on channel=9 note=42 velocity=113 time=0
note_on channel=9 note=42 velocity=0 time=25
note_on channel=9 note=36 velocity=0 time=12
note_on channel=9 note=42 velocity=76 time=11
note_on channel=9 note=42 velocity=0 time=18
note_on channel=9 note=40 velocity=127 time=30
note_on channel=9 note=42 velocity=108 time=0
note_on channel=9 note=42 velocity=0 time=24
note_on channel=9 note=40 velocity=0 time=22
note_on channel=9 note=42 velocity=70 time=2
note_on channel=9 note=42 velocity=0 time=20
note_on channel=9 note=36 velocity=125 time=28
note_on channel=9 note=42 velocity=102 time=0
note_on channel=9 note=42 velocity=0 time=22
note_on channel=9 note=36 velocity=0 time=13
note_on channel=9 note=42 velocity=78 time=13
note_on channel=9 note=42 velocity=0 time=16
note_on channel=9 note=40 velocity=127 time=32
note_on channel=9 note=42 velocity=113 time=0
note_on channel=9 note=42 velocity=0 time=21
note_on channel=9 note=40 velocity=0 time=18
note_on channel=9 note=42 velocity=80 time=9
note_on channel=9 note=42 velocity=0 time=16
note_on channel=9 note=36 velocity=127 time=32
note_on channel=9 note=42 velocity=113 time=0
note_on channel=9 note=42 velocity=0 time=23
note_on channel=9 note=36 velocity=0 time=15
note_on channel=9 note=42 velocity=78 time=10
note_on channel=9 note=42 velocity=0 time=16
note_on channel=9 note=40 velocity=127 time=32
note_on channel=9 note=42 velocity=113 time=0
note_on channel=9 note=42 velocity=0 time=24
note_on channel=9 note=40 velocity=0 time=15
note_on channel=9 note=42 velocity=76 time=9
note_on channel=9 note=42 velocity=0 time=17
note_on channel=9 note=36 velocity=125 time=31
note_on channel=9 note=42 velocity=108 time=0
note_on channel=9 note=42 velocity=0 time=22
note_on channel=9 note=36 velocity=0 time=15
note_on channel=9 note=42 velocity=78 time=11
note_on channel=9 note=42 velocity=0 time=17
note_on channel=9 note=40 velocity=127 time=31
note_on channel=9 note=42 velocity=108 time=0
note_on channel=9 note=42 velocity=0 time=22
note_on channel=9 note=40 velocity=0 time=15
note_on channel=9 note=42 velocity=78 time=11
note_on channel=9 note=42 velocity=0 time=16
note_on channel=9 note=36 velocity=119 time=32
note_on channel=9 note=42 velocity=108 time=0
note_on channel=9 note=42 velocity=0 time=24
note_on channel=9 note=36 velocity=0 time=16
note_on channel=9 note=42 velocity=74 time=8
note_on channel=9 note=42 velocity=0 time=18
note_on channel=9 note=40 velocity=127 time=30
note_on channel=9 note=42 velocity=108 time=0
note_on channel=9 note=42 velocity=0 time=21
note_on channel=9 note=40 velocity=0 time=17
note_on channel=9 note=42 velocity=76 time=10
note_on channel=9 note=42 velocity=0 time=16
note_on channel=9 note=36 velocity=119 time=32
note_on channel=9 note=42 velocity=108 time=0
note_on channel=9 note=42 velocity=0 time=22
note_on channel=9 note=36 velocity=0 time=19
note_on channel=9 note=42 velocity=76 time=7
note_on channel=9 note=42 velocity=0 time=17
note_on channel=9 note=40 velocity=121 time=31
note_on channel=9 note=42 velocity=113 time=0
note_on channel=9 note=42 velocity=0 time=22
note_on channel=9 note=40 velocity=0 time=16
note_on channel=9 note=42 velocity=76 time=10
note_on channel=9 note=42 velocity=0 time=16
note_on channel=9 note=36 velocity=125 time=32
note_on channel=9 note=42 velocity=108 time=0
note_on channel=9 note=42 velocity=0 time=23
note_on channel=9 note=36 velocity=0 time=17
note_on channel=9 note=42 velocity=72 time=8
note_on channel=9 note=42 velocity=0 time=16
note_on channel=9 note=40 velocity=127 time=32
note_on channel=9 note=42 velocity=113 time=0
note_on channel=9 note=42 velocity=0 time=21
note_on channel=9 note=40 velocity=0 time=13
note_on channel=9 note=42 velocity=78 time=14
note_on channel=9 note=42 velocity=0 time=16
note_on channel=9 note=36 velocity=113 time=32
note_on channel=9 note=42 velocity=108 time=0
note_on channel=9 note=42 velocity=0 time=22
note_on channel=9 note=36 velocity=0 time=16
note_on channel=9 note=42 velocity=76 time=10
note_on channel=9 note=42 velocity=0 time=14
note_on channel=9 note=40 velocity=127 time=34
note_on channel=9 note=42 velocity=113 time=0
note_on channel=9 note=42 velocity=0 time=19
note_on channel=9 note=40 velocity=0 time=19
note_on channel=9 note=42 velocity=82 time=10
note_on channel=9 note=42 velocity=0 time=12
note_on channel=9 note=36 velocity=119 time=36
note_on channel=9 note=42 velocity=113 time=0
note_on channel=9 note=42 velocity=0 time=22
note_on channel=9 note=36 velocity=0 time=24
note_on channel=9 note=42 velocity=78 time=2
note_on channel=9 note=42 velocity=0 time=15
note_on channel=9 note=40 velocity=127 time=33
note_on channel=9 note=42 velocity=119 time=0
note_on channel=9 note=42 velocity=0 time=20
note_on channel=9 note=40 velocity=0 time=17
note_on channel=9 note=42 velocity=76 time=11
note_on channel=9 note=42 velocity=0 time=14
note_on channel=9 note=36 velocity=119 time=34
note_on channel=9 note=42 velocity=108 time=0
note_on channel=9 note=42 velocity=0 time=18
note_on channel=9 note=36 velocity=0 time=21
note_on channel=9 note=42 velocity=82 time=9
note_on channel=9 note=42 velocity=0 time=13
note_on channel=9 note=40 velocity=127 time=35
note_on channel=9 note=42 velocity=113 time=0
note_on channel=9 note=42 velocity=0 time=19
note_on channel=9 note=40 velocity=0 time=22
note_on channel=9 note=42 velocity=82 time=7
note_on channel=9 note=42 velocity=0 time=17
note_on channel=9 note=36 velocity=127 time=31
note_on channel=9 note=42 velocity=113 time=0
note_on channel=9 note=42 velocity=0 time=19
note_on channel=9 note=36 velocity=0 time=15
note_on channel=9 note=42 velocity=82 time=14
note_on channel=9 note=42 velocity=0 time=17
note_on channel=9 note=40 velocity=127 time=31
note_on channel=9 note=42 velocity=113 time=0
note_on channel=9 note=42 velocity=0 time=19
note_on channel=9 note=40 velocity=0 time=24
note_on channel=9 note=42 velocity=82 time=5
note_on channel=9 note=42 velocity=0 time=17
note_on channel=9 note=36 velocity=125 time=31
note_on channel=9 note=42 velocity=113 time=0
note_on channel=9 note=42 velocity=0 time=19
note_on channel=9 note=36 velocity=0 time=20
note_on channel=9 note=42 velocity=82 time=9
note_on channel=9 note=42 velocity=0 time=17
note_on channel=9 note=40 velocity=127 time=31
note_on channel=9 note=42 velocity=115 time=0
note_on channel=9 note=40 velocity=0 time=5
note_on channel=9 note=40 velocity=127 time=0
note_on channel=9 note=42 velocity=0 time=12
note_on channel=9 note=40 velocity=0 time=21
note_on channel=9 note=42 velocity=115 time=10
note_on channel=9 note=42 velocity=0 time=17
note_on channel=9 note=36 velocity=125 time=31
note_on channel=9 note=42 velocity=102 time=0
note_on channel=9 note=49 velocity=98 time=0
note_on channel=9 note=42 velocity=0 time=25
note_on channel=9 note=42 velocity=69 time=23
note_on channel=9 note=36 velocity=0 time=3
note_on channel=9 note=42 velocity=0 time=18
note_on channel=9 note=40 velocity=127 time=27
note_on channel=9 note=42 velocity=102 time=0
note_on channel=9 note=42 velocity=0 time=25
note_on channel=9 note=49 velocity=0 time=12
note_on channel=9 note=40 velocity=0 time=8
note_on channel=9 note=42 velocity=65 time=3
note_on channel=9 note=42 velocity=0 time=22
note_on channel=9 note=36 velocity=113 time=26
note_on channel=9 note=42 velocity=102 time=0
note_on channel=9 note=42 velocity=0 time=28
note_on channel=9 note=36 velocity=0 time=12
note_on channel=9 note=42 velocity=76 time=8
note_on channel=9 note=42 velocity=0 time=16
note_on channel=9 note=40 velocity=127 time=32
note_on channel=9 note=42 velocity=108 time=0
note_on channel=9 note=42 velocity=0 time=26
note_on channel=9 note=40 velocity=0 time=11
note_on channel=9 note=42 velocity=69 time=11
note_on channel=9 note=42 velocity=0 time=18
note_on channel=9 note=36 velocity=108 time=30
note_on channel=9 note=42 velocity=108 time=0
note_on channel=9 note=42 velocity=0 time=24
note_on channel=9 note=36 velocity=0 time=10
note_on channel=9 note=42 velocity=71 time=14
note_on channel=9 note=42 velocity=0 time=16
note_on channel=9 note=40 velocity=127 time=32
note_on channel=9 note=42 velocity=113 time=0
note_on channel=9 note=42 velocity=0 time=27
note_on channel=9 note=40 velocity=0 time=11
note_on channel=9 note=42 velocity=68 time=10
note_on channel=9 note=42 velocity=0 time=20
note_on channel=9 note=36 velocity=113 time=28
note_on channel=9 note=42 velocity=113 time=0
note_on channel=9 note=42 velocity=0 time=25
note_on channel=9 note=36 velocity=0 time=10
note_on channel=9 note=42 velocity=70 time=13
note_on channel=9 note=42 velocity=0 time=17
note_on channel=9 note=40 velocity=127 time=31
note_on channel=9 note=42 velocity=108 time=0
note_on channel=9 note=42 velocity=0 time=22
note_on channel=9 note=40 velocity=0 time=13
note_on channel=9 note=42 velocity=72 time=13
note_on channel=9 note=42 velocity=0 time=18
note_on channel=9 note=36 velocity=108 time=30
note_on channel=9 note=42 velocity=113 time=0
note_on channel=9 note=42 velocity=0 time=25
note_on channel=9 note=36 velocity=0 time=14
note_on channel=9 note=42 velocity=76 time=9
note_on channel=9 note=42 velocity=0 time=18
note_on channel=9 note=40 velocity=121 time=30
note_on channel=9 note=42 velocity=108 time=0
note_on channel=9 note=42 velocity=0 time=24
note_on channel=9 note=40 velocity=0 time=6
note_on channel=9 note=42 velocity=70 time=18
note_on channel=9 note=42 velocity=0 time=20
note_on channel=9 note=36 velocity=102 time=28
note_on channel=9 note=42 velocity=102 time=0
note_on channel=9 note=42 velocity=0 time=22
note_on channel=9 note=36 velocity=0 time=18
note_on channel=9 note=42 velocity=78 time=8
note_on channel=9 note=42 velocity=0 time=16
note_on channel=9 note=40 velocity=127 time=32
note_on channel=9 note=42 velocity=113 time=0
note_on channel=9 note=42 velocity=0 time=21
note_on channel=9 note=40 velocity=0 time=12
note_on channel=9 note=42 velocity=80 time=15
note_on channel=9 note=42 velocity=0 time=16
note_on channel=9 note=36 velocity=119 time=32
note_on channel=9 note=42 velocity=113 time=0
note_on channel=9 note=42 velocity=0 time=23
note_on channel=9 note=36 velocity=0 time=17
note_on channel=9 note=42 velocity=78 time=8
note_on channel=9 note=42 velocity=0 time=16
note_on channel=9 note=40 velocity=121 time=32
note_on channel=9 note=42 velocity=113 time=0
note_on channel=9 note=42 velocity=0 time=24
note_on channel=9 note=40 velocity=0 time=13
note_on channel=9 note=42 velocity=76 time=11
note_on channel=9 note=42 velocity=0 time=17
note_on channel=9 note=36 velocity=119 time=31
note_on channel=9 note=42 velocity=108 time=0
note_on channel=9 note=42 velocity=0 time=22
note_on channel=9 note=36 velocity=0 time=21
note_on channel=9 note=42 velocity=78 time=5
note_on channel=9 note=42 velocity=0 time=17
note_on channel=9 note=40 velocity=121 time=31
note_on channel=9 note=42 velocity=111 time=0
note_on channel=9 note=42 velocity=0 time=22
note_on channel=9 note=40 velocity=0 time=7
note_on channel=9 note=46 velocity=97 time=19
note_on channel=9 note=46 velocity=0 time=16
note_on channel=9 note=36 velocity=108 time=32
note_on channel=9 note=42 velocity=111 time=0
note_on channel=9 note=42 velocity=0 time=24
note_on channel=9 note=36 velocity=0 time=8
note_on channel=9 note=42 velocity=74 time=16
note_on channel=9 note=42 velocity=0 time=18
note_on channel=9 note=40 velocity=127 time=30
note_on channel=9 note=42 velocity=108 time=0
note_on channel=9 note=42 velocity=0 time=21
note_on channel=9 note=40 velocity=0 time=11
note_on channel=9 note=42 velocity=76 time=16
note_on channel=9 note=42 velocity=0 time=16
note_on channel=9 note=36 velocity=113 time=32
note_on channel=9 note=42 velocity=108 time=0
note_on channel=9 note=42 velocity=0 time=22
note_on channel=9 note=36 velocity=0 time=16
note_on channel=9 note=42 velocity=76 time=10
note_on channel=9 note=42 velocity=0 time=17
note_on channel=9 note=40 velocity=127 time=31
note_on channel=9 note=42 velocity=113 time=0
note_on channel=9 note=42 velocity=0 time=22
note_on channel=9 note=40 velocity=0 time=13
note_on channel=9 note=42 velocity=76 time=13
note_on channel=9 note=42 velocity=0 time=16
note_on channel=9 note=36 velocity=113 time=32
note_on channel=9 note=42 velocity=108 time=0
note_on channel=9 note=42 velocity=0 time=23
note_on channel=9 note=36 velocity=0 time=12
note_on channel=9 note=42 velocity=72 time=13
note_on channel=9 note=42 velocity=0 time=16
note_on channel=9 note=40 velocity=127 time=32
note_on channel=9 note=42 velocity=113 time=0
note_on channel=9 note=42 velocity=0 time=21
note_on channel=9 note=40 velocity=0 time=16
note_on channel=9 note=42 velocity=78 time=11
note_on channel=9 note=42 velocity=0 time=16
note_on channel=9 note=36 velocity=119 time=32
note_on channel=9 note=42 velocity=108 time=0
note_on channel=9 note=42 velocity=0 time=22
note_on channel=9 note=36 velocity=0 time=8
note_on channel=9 note=42 velocity=76 time=18
note_on channel=9 note=42 velocity=0 time=14
note_on channel=9 note=40 velocity=127 time=34
note_on channel=9 note=42 velocity=113 time=0
note_on channel=9 note=42 velocity=0 time=19
note_on channel=9 note=40 velocity=0 time=15
note_on channel=9 note=42 velocity=82 time=14
note_on channel=9 note=42 velocity=0 time=12
note_on channel=9 note=36 velocity=119 time=36
note_on channel=9 note=42 velocity=113 time=0
note_on channel=9 note=42 velocity=0 time=22
note_on channel=9 note=36 velocity=0 time=21
note_on channel=9 note=42 velocity=78 time=5
note_on channel=9 note=42 velocity=0 time=15
note_on channel=9 note=40 velocity=127 time=33
note_on channel=9 note=42 velocity=119 time=0
note_on channel=9 note=42 velocity=0 time=20
note_on channel=9 note=40 velocity=0 time=21
note_on channel=9 note=42 velocity=76 time=7
note_on channel=9 note=42 velocity=0 time=14
note_on channel=9 note=36 velocity=113 time=34
note_on channel=9 note=42 velocity=108 time=0
note_on channel=9 note=42 velocity=0 time=18
note_on channel=9 note=36 velocity=0 time=13
note_on channel=9 note=42 velocity=82 time=17
note_on channel=9 note=42 velocity=0 time=13
note_on channel=9 note=40 velocity=127 time=35
note_on channel=9 note=42 velocity=113 time=0
note_on channel=9 note=42 velocity=0 time=19
note_on channel=9 note=40 velocity=0 time=27
note_on channel=9 note=42 velocity=82 time=2
note_on channel=9 note=42 velocity=0 time=17
note_on channel=9 note=36 velocity=119 time=31
note_on channel=9 note=42 velocity=113 time=0
note_on channel=9 note=42 velocity=0 time=22
note_on channel=9 note=36 velocity=0 time=21
note_on channel=9 note=42 velocity=78 time=5
note_on channel=9 note=42 velocity=0 time=15
note_on channel=9 note=40 velocity=127 time=33
note_on channel=9 note=42 velocity=119 time=0
note_on channel=9 note=42 velocity=0 time=20
note_on channel=9 note=40 velocity=0 time=21
note_on channel=9 note=42 velocity=76 time=7
note_on channel=9 note=42 velocity=0 time=14
note_on channel=9 note=36 velocity=113 time=34
note_on channel=9 note=42 velocity=108 time=0
note_on channel=9 note=42 velocity=0 time=18
note_on channel=9 note=36 velocity=0 time=13
note_on channel=9 note=42 velocity=82 time=17
note_on channel=9 note=42 velocity=0 time=13
note_on channel=9 note=40 velocity=127 time=35
note_on channel=9 note=42 velocity=113 time=0
note_on channel=9 note=42 velocity=0 time=19
note_on channel=9 note=40 velocity=0 time=27
note_on channel=9 note=42 velocity=82 time=2
note_on channel=9 note=42 velocity=0 time=17
note_on channel=9 note=40 velocity=117 time=31
note_on channel=9 note=40 velocity=0 time=13
note_on channel=9 note=40 velocity=127 time=11
note_on channel=9 note=40 velocity=0 time=16
note_on channel=9 note=40 velocity=121 time=32
note_on channel=9 note=40 velocity=0 time=12
note_on channel=9 note=40 velocity=127 time=12
note_on channel=9 note=40 velocity=0 time=16
note_on channel=9 note=40 velocity=127 time=8
note_on channel=9 note=40 velocity=0 time=16
note_on channel=9 note=43 velocity=98 time=8
note_on channel=9 note=43 velocity=0 time=15
note_on channel=9 note=41 velocity=115 time=9
note_on channel=9 note=36 velocity=113 time=24
note_on channel=9 note=40 velocity=127 time=0
note_on channel=9 note=41 velocity=0 time=2
note_on channel=9 note=40 velocity=0 time=14
note_on channel=9 note=36 velocity=0 time=15
note_on channel=9 note=36 velocity=125 time=161
note_on channel=9 note=42 velocity=102 time=0
note_on channel=9 note=42 velocity=0 time=25
note_on channel=9 note=36 velocity=0 time=22
note_on channel=9 note=42 velocity=57 time=1
note_on channel=9 note=42 velocity=0 time=21
note_on channel=9 note=40 velocity=127 time=27
note_on channel=9 note=42 velocity=102 time=0
note_on channel=9 note=42 velocity=0 time=25
note_on channel=9 note=42 velocity=51 time=23
note_on channel=9 note=40 velocity=0 time=8
note_on channel=9 note=42 velocity=0 time=14
note_on channel=9 note=36 velocity=119 time=26
note_on channel=9 note=42 velocity=102 time=0
note_on channel=9 note=42 velocity=0 time=28
note_on channel=9 note=36 velocity=0 time=10
note_on channel=9 note=42 velocity=76 time=10
note_on channel=9 note=42 velocity=0 time=16
note_on channel=9 note=40 velocity=121 time=32
note_on channel=9 note=42 velocity=108 time=0
note_on channel=9 note=42 velocity=0 time=26
note_on channel=9 note=40 velocity=0 time=16
note_on channel=9 note=42 velocity=62 time=6
note_on channel=9 note=42 velocity=0 time=18
note_on channel=9 note=36 velocity=113 time=30
note_on channel=9 note=42 velocity=108 time=0
note_on channel=9 note=42 velocity=0 time=24
note_on channel=9 note=36 velocity=0 time=10
note_on channel=9 note=42 velocity=64 time=14
note_on channel=9 note=42 velocity=0 time=16
note_on channel=9 note=40 velocity=127 time=32
note_on channel=9 note=42 velocity=113 time=0
note_on channel=9 note=42 velocity=0 time=27
note_on channel=9 note=40 velocity=0 time=15
note_on channel=9 note=42 velocity=68 time=6
note_on channel=9 note=42 velocity=0 time=20
note_on channel=9 note=36 velocity=119 time=28
note_on channel=9 note=42 velocity=113 time=0
note_on channel=9 note=42 velocity=0 time=25
note_on channel=9 note=36 velocity=0 time=5
note_on channel=9 note=42 velocity=70 time=18
note_on channel=9 note=42 velocity=0 time=17
note_on channel=9 note=40 velocity=127 time=31
note_on channel=9 note=42 velocity=108 time=0
note_on channel=9 note=42 velocity=0 time=22
note_on channel=9 note=40 velocity=0 time=12
note_on channel=9 note=42 velocity=72 time=14
note_on channel=9 note=42 velocity=0 time=18
note_on channel=9 note=36 velocity=125 time=30
note_on channel=9 note=42 velocity=102 time=0
note_on channel=9 note=42 velocity=0 time=25
note_on channel=9 note=36 velocity=0 time=22
note_on channel=9 note=42 velocity=79 time=1
note_on channel=9 note=42 velocity=0 time=21
note_on channel=9 note=40 velocity=127 time=27
note_on channel=9 note=42 velocity=102 time=0
note_on channel=9 note=54 velocity=106 time=0
note_on channel=9 note=42 velocity=0 time=25
note_on channel=9 note=54 velocity=0 time=22
note_on channel=9 note=42 velocity=81 time=1
note_on channel=9 note=40 velocity=0 time=1
note_on channel=9 note=42 velocity=0 time=21
note_on channel=9 note=36 velocity=125 time=26
note_on channel=9 note=42 velocity=102 time=0
note_on channel=9 note=42 velocity=0 time=28
note_on channel=9 note=36 velocity=0 time=19
note_on channel=9 note=42 velocity=83 time=1
note_on channel=9 note=42 velocity=0 time=16
note_on channel=9 note=40 velocity=127 time=32
note_on channel=9 note=42 velocity=108 time=0
note_on channel=9 note=42 velocity=0 time=26
note_on channel=9 note=40 velocity=0 time=21
note_on channel=9 note=42 velocity=83 time=1
note_on channel=9 note=42 velocity=0 time=18
note_on channel=9 note=36 velocity=119 time=30
note_on channel=9 note=42 velocity=109 time=0
note_on channel=9 note=42 velocity=0 time=24
note_on channel=9 note=36 velocity=0 time=22
note_on channel=9 note=42 velocity=83 time=2
note_on channel=9 note=42 velocity=0 time=16
note_on channel=9 note=40 velocity=121 time=32
note_on channel=9 note=42 velocity=113 time=0
note_on channel=9 note=54 velocity=106 time=0
note_on channel=9 note=42 velocity=0 time=27
note_on channel=9 note=40 velocity=0 time=19
note_on channel=9 note=42 velocity=83 time=2
note_on channel=9 note=54 velocity=0 time=5
note_on channel=9 note=42 velocity=0 time=15
note_on channel=9 note=36 velocity=119 time=28
note_on channel=9 note=42 velocity=113 time=0
note_on channel=9 note=42 velocity=0 time=25
note_on channel=9 note=36 velocity=0 time=16
note_on channel=9 note=42 velocity=87 time=7
note_on channel=9 note=42 velocity=0 time=17
note_on channel=9 note=40 velocity=127 time=31
note_on channel=9 note=42 velocity=108 time=0
note_on channel=9 note=42 velocity=0 time=22
note_on channel=9 note=40 velocity=0 time=17
note_on channel=9 note=42 velocity=85 time=9
note_on channel=9 note=42 velocity=0 time=18
note_on channel=9 note=36 velocity=113 time=30
note_on channel=9 note=42 velocity=113 time=0
note_on channel=9 note=42 velocity=0 time=25
note_on channel=9 note=36 velocity=0 time=22
note_on channel=9 note=42 velocity=76 time=1
note_on channel=9 note=42 velocity=0 time=18
note_on channel=9 note=40 velocity=121 time=30
note_on channel=9 note=42 velocity=108 time=0
note_on channel=9 note=54 velocity=106 time=0
note_on channel=9 note=42 velocity=0 time=24
note_on channel=9 note=40 velocity=0 time=19
note_on channel=9 note=54 velocity=0 time=5
note_on channel=9 note=42 velocity=81 time=0
note_on channel=9 note=42 velocity=0 time=20
note_on channel=9 note=36 velocity=108 time=28
note_on channel=9 note=42 velocity=102 time=0
note_on channel=9 note=42 velocity=0 time=22
note_on channel=9 note=36 velocity=0 time=18
note_on channel=9 note=42 velocity=78 time=8
note_on channel=9 note=42 velocity=0 time=16
note_on channel=9 note=40 velocity=127 time=32
note_on channel=9 note=42 velocity=113 time=0
note_on channel=9 note=42 velocity=0 time=21
note_on channel=9 note=40 velocity=0 time=25
note_on channel=9 note=42 velocity=80 time=2
note_on channel=9 note=42 velocity=0 time=16
note_on channel=9 note=36 velocity=125 time=32
note_on channel=9 note=42 velocity=113 time=0
note_on channel=9 note=42 velocity=0 time=23
note_on channel=9 note=36 velocity=0 time=19
note_on channel=9 note=42 velocity=78 time=6
note_on channel=9 note=42 velocity=0 time=16
note_on channel=9 note=40 velocity=127 time=32
note_on channel=9 note=42 velocity=113 time=0
note_on channel=9 note=54 velocity=100 time=0
note_on channel=9 note=42 velocity=0 time=24
note_on channel=9 note=54 velocity=0 time=22
note_on channel=9 note=42 velocity=76 time=2
note_on channel=9 note=40 velocity=0 time=2
note_on channel=9 note=42 velocity=0 time=15
note_on channel=9 note=36 velocity=119 time=31
note_on channel=9 note=42 velocity=108 time=0
note_on channel=9 note=42 velocity=0 time=22
note_on channel=9 note=42 velocity=78 time=26
note_on channel=9 note=36 velocity=0 time=1
note_on channel=9 note=42 velocity=0 time=16
note_on channel=9 note=36 velocity=91 time=7
note_on channel=9 note=36 velocity=0 time=20
note_on channel=9 note=40 velocity=121 time=4
note_on channel=9 note=42 velocity=108 time=0
note_on channel=9 note=42 velocity=0 time=22
note_on channel=9 note=42 velocity=78 time=26
note_on channel=9 note=40 velocity=0 time=11
note_on channel=9 note=42 velocity=0 time=5
note_on channel=9 note=36 velocity=119 time=32
note_on channel=9 note=42 velocity=108 time=0
note_on channel=9 note=49 velocity=98 time=0
note_on channel=9 note=42 velocity=0 time=24
note_on channel=9 note=42 velocity=74 time=24
note_on channel=9 note=36 velocity=0 time=2
note_on channel=9 note=42 velocity=0 time=16
note_on channel=9 note=40 velocity=121 time=30
note_on channel=9 note=42 velocity=108 time=0
note_on channel=9 note=54 velocity=106 time=0
note_on channel=9 note=42 velocity=0 time=21
note_on channel=9 note=49 velocity=0 time=16
note_on channel=9 note=54 velocity=0 time=10
note_on channel=9 note=42 velocity=76 time=1
note_on channel=9 note=40 velocity=0 time=8
note_on channel=9 note=42 velocity=0 time=8
note_on channel=9 note=36 velocity=119 time=32
note_on channel=9 note=42 velocity=108 time=0
note_on channel=9 note=42 velocity=0 time=22
note_on channel=9 note=36 velocity=0 time=26
note_on channel=9 note=42 velocity=76 time=0
note_on channel=9 note=42 velocity=0 time=17
note_on channel=9 note=40 velocity=121 time=31
note_on channel=9 note=42 velocity=113 time=0
note_on channel=9 note=42 velocity=0 time=22
note_on channel=9 note=42 velocity=76 time=26
note_on channel=9 note=40 velocity=0 time=2
note_on channel=9 note=42 velocity=0 time=14
note_on channel=9 note=36 velocity=108 time=32
note_on channel=9 note=42 velocity=108 time=0
note_on channel=9 note=42 velocity=0 time=23
note_on channel=9 note=36 velocity=0 time=23
note_on channel=9 note=42 velocity=72 time=2
note_on channel=9 note=42 velocity=0 time=16
note_on channel=9 note=40 velocity=127 time=32
note_on channel=9 note=42 velocity=113 time=0
note_on channel=9 note=54 velocity=106 time=0
note_on channel=9 note=42 velocity=0 time=21
note_on channel=9 note=40 velocity=0 time=26
note_on channel=9 note=42 velocity=78 time=1
note_on channel=9 note=54 velocity=0 time=5
note_on channel=9 note=42 velocity=0 time=11
note_on channel=9 note=36 velocity=119 time=32
note_on channel=9 note=42 velocity=108 time=0
note_on channel=9 note=42 velocity=0 time=22
note_on channel=9 note=42 velocity=76 time=26
note_on channel=9 note=36 velocity=0 time=9
note_on channel=9 note=42 velocity=0 time=5
note_on channel=9 note=40 velocity=127 time=34
note_on channel=9 note=42 velocity=113 time=0
note_on channel=9 note=42 velocity=0 time=19
note_on channel=9 note=42 velocity=82 time=29
note_on channel=9 note=40 velocity=0 time=2
note_on channel=9 note=42 velocity=0 time=10
note_on channel=9 note=36 velocity=102 time=36
note_on channel=9 note=42 velocity=113 time=0
note_on channel=9 note=42 velocity=0 time=22
note_on channel=9 note=36 velocity=0 time=21
note_on channel=9 note=42 velocity=78 time=5
note_on channel=9 note=42 velocity=0 time=15
note_on channel=9 note=40 velocity=127 time=33
note_on channel=9 note=42 velocity=119 time=0
note_on channel=9 note=54 velocity=106 time=0
note_on channel=9 note=42 velocity=0 time=20
note_on channel=9 note=54 velocity=0 time=28
note_on channel=9 note=42 velocity=76 time=0
note_on channel=9 note=40 velocity=0 time=4
note_on channel=9 note=42 velocity=0 time=10
note_on channel=9 note=36 velocity=113 time=34
note_on channel=9 note=42 velocity=108 time=0
note_on channel=9 note=42 velocity=0 time=18
note_on channel=9 note=36 velocity=0 time=29
note_on channel=9 note=42 velocity=82 time=1
note_on channel=9 note=42 velocity=0 time=13
note_on channel=9 note=40 velocity=127 time=35
note_on channel=9 note=42 velocity=113 time=0
note_on channel=9 note=42 velocity=0 time=19
note_on channel=9 note=42 velocity=82 time=29
note_on channel=9 note=40 velocity=0 time=1
note_on channel=9 note=42 velocity=0 time=16
note_on channel=9 note=36 velocity=113 time=31
note_on channel=9 note=42 velocity=113 time=0
note_on channel=9 note=42 velocity=0 time=19
note_on channel=9 note=36 velocity=0 time=27
note_on channel=9 note=42 velocity=82 time=2
note_on channel=9 note=42 velocity=0 time=17
note_on channel=9 note=40 velocity=127 time=31
note_on channel=9 note=42 velocity=113 time=0
note_on channel=9 note=54 velocity=100 time=0
note_on channel=9 note=42 velocity=0 time=19
note_on channel=9 note=54 velocity=0 time=27
note_on channel=9 note=42 velocity=82 time=2
note_on channel=9 note=40 velocity=0 time=9
note_on channel=9 note=42 velocity=0 time=8
note_on channel=9 note=36 velocity=113 time=31
note_on channel=9 note=42 velocity=113 time=0
note_on channel=9 note=42 velocity=0 time=19
note_on channel=9 note=36 velocity=0 time=28
note_on channel=9 note=42 velocity=82 time=1
note_on channel=9 note=42 velocity=0 time=17
note_on channel=9 note=36 velocity=84 time=7
note_on channel=9 note=40 velocity=127 time=24
note_on channel=9 note=42 velocity=115 time=0
note_on channel=9 note=36 velocity=0 time=1
note_on channel=9 note=42 velocity=0 time=16
note_on channel=9 note=40 velocity=0 time=18
note_on channel=9 note=36 velocity=96 time=13
note_on channel=9 note=42 velocity=115 time=0
note_on channel=9 note=42 velocity=0 time=17
note_on channel=9 note=36 velocity=0 time=8
note_on channel=9 note=36 velocity=119 time=23
note_on channel=9 note=42 velocity=102 time=0
note_on channel=9 note=49 velocity=98 time=0
note_on channel=9 note=42 velocity=0 time=25
note_on channel=9 note=36 velocity=0 time=20
note_on channel=9 note=42 velocity=75 time=3
note_on channel=9 note=42 velocity=0 time=21
note_on channel=9 note=40 velocity=127 time=27
note_on channel=9 note=42 velocity=102 time=0
note_on channel=9 note=54 velocity=106 time=0
note_on channel=9 note=42 velocity=0 time=25
note_on channel=9 note=49 velocity=0 time=12
note_on channel=9 note=40 velocity=0 time=9
note_on channel=9 note=54 velocity=0 time=1
note_on channel=9 note=42 velocity=71 time=1
note_on channel=9 note=42 velocity=0 time=22
note_on channel=9 note=36 velocity=102 time=26
note_on channel=9 note=42 velocity=102 time=0
note_on channel=9 note=42 velocity=0 time=28
note_on channel=9 note=42 velocity=76 time=20
note_on channel=9 note=36 velocity=0 time=3
note_on channel=9 note=42 velocity=0 time=13
note_on channel=9 note=40 velocity=121 time=32
note_on channel=9 note=42 velocity=108 time=0
note_on channel=9 note=42 velocity=0 time=26
note_on channel=9 note=40 velocity=0 time=22
note_on channel=9 note=42 velocity=71 time=0
note_on channel=9 note=42 velocity=0 time=18
note_on channel=9 note=36 velocity=119 time=30
note_on channel=9 note=42 velocity=108 time=0
note_on channel=9 note=42 velocity=0 time=24
note_on channel=9 note=36 velocity=0 time=20
note_on channel=9 note=42 velocity=73 time=4
note_on channel=9 note=42 velocity=0 time=16
note_on channel=9 note=40 velocity=121 time=32
note_on channel=9 note=42 velocity=113 time=0
note_on channel=9 note=54 velocity=106 time=0
note_on channel=9 note=42 velocity=0 time=27
note_on channel=9 note=40 velocity=0 time=15
note_on channel=9 note=42 velocity=81 time=6
note_on channel=9 note=54 velocity=0 time=5
note_on channel=9 note=42 velocity=0 time=15
note_on channel=9 note=36 velocity=119 time=28
note_on channel=9 note=42 velocity=113 time=0
note_on channel=9 note=42 velocity=0 time=25
note_on channel=9 note=36 velocity=0 time=13
note_on channel=9 note=42 velocity=70 time=10
note_on channel=9 note=42 velocity=0 time=17
note_on channel=9 note=40 velocity=127 time=31
note_on channel=9 note=42 velocity=108 time=0
note_on channel=9 note=42 velocity=0 time=22
note_on channel=9 note=40 velocity=0 time=23
note_on channel=9 note=42 velocity=72 time=3
note_on channel=9 note=42 velocity=0 time=18
note_on channel=9 note=36 velocity=113 time=30
note_on channel=9 note=42 velocity=113 time=0
note_on channel=9 note=42 velocity=0 time=25
note_on channel=9 note=36 velocity=0 time=15
note_on channel=9 note=42 velocity=76 time=8
note_on channel=9 note=42 velocity=0 time=18
note_on channel=9 note=40 velocity=127 time=30
note_on channel=9 note=42 velocity=108 time=0
note_on channel=9 note=54 velocity=106 time=0
note_on channel=9 note=42 velocity=0 time=24
note_on channel=9 note=54 velocity=0 time=24
note_on channel=9 note=40 velocity=0 time=0
note_on channel=9 note=42 velocity=70 time=0
note_on channel=9 note=42 velocity=0 time=20
note_on channel=9 note=36 velocity=108 time=28
note_on channel=9 note=42 velocity=102 time=0
note_on channel=9 note=42 velocity=0 time=22
note_on channel=9 note=36 velocity=0 time=22
note_on channel=9 note=42 velocity=78 time=4
note_on channel=9 note=42 velocity=0 time=16
note_on channel=9 note=40 velocity=127 time=32
note_on channel=9 note=42 velocity=113 time=0
note_on channel=9 note=42 velocity=0 time=21
note_on channel=9 note=40 velocity=0 time=22
note_on channel=9 note=42 velocity=80 time=5
note_on channel=9 note=42 velocity=0 time=16
note_on channel=9 note=36 velocity=108 time=32
note_on channel=9 note=42 velocity=113 time=0
note_on channel=9 note=42 velocity=0 time=23
note_on channel=9 note=36 velocity=0 time=16
note_on channel=9 note=42 velocity=78 time=9
note_on channel=9 note=42 velocity=0 time=16
note_on channel=9 note=40 velocity=127 time=32
note_on channel=9 note=42 velocity=113 time=0
note_on channel=9 note=54 velocity=100 time=0
note_on channel=9 note=42 velocity=0 time=24
note_on channel=9 note=54 velocity=0 time=22
note_on channel=9 note=42 velocity=76 time=2
note_on channel=9 note=40 velocity=0 time=9
note_on channel=9 note=42 velocity=0 time=8
note_on channel=9 note=36 velocity=113 time=31
note_on channel=9 note=42 velocity=108 time=0
note_on channel=9 note=42 velocity=0 time=22
note_on channel=9 note=42 velocity=78 time=26
note_on channel=9 note=36 velocity=0 time=5
note_on channel=9 note=42 velocity=0 time=12
note_on channel=9 note=36 velocity=72 time=7
note_on channel=9 note=36 velocity=0 time=20
note_on channel=9 note=40 velocity=127 time=4
note_on channel=9 note=42 velocity=108 time=0
note_on channel=9 note=42 velocity=0 time=22
note_on channel=9 note=46 velocity=103 time=26
note_on channel=9 note=40 velocity=0 time=7
note_on channel=9 note=46 velocity=0 time=9
note_on channel=9 note=36 velocity=119 time=32
note_on channel=9 note=42 velocity=108 time=0
note_on channel=9 note=49 velocity=98 time=0
note_on channel=9 note=42 velocity=0 time=24
note_on channel=9 note=36 velocity=0 time=18
note_on channel=9 note=42 velocity=74 time=6
note_on channel=9 note=42 velocity=0 time=18
note_on channel=9 note=40 velocity=121 time=30
note_on channel=9 note=42 velocity=108 time=0
note_on channel=9 note=54 velocity=106 time=0
note_on channel=9 note=42 velocity=0 time=21
note_on channel=9 note=49 velocity=0 time=16
note_on channel=9 note=54 velocity=0 time=10
note_on channel=9 note=42 velocity=76 time=1
note_on channel=9 note=40 velocity=0 time=1
note_on channel=9 note=42 velocity=0 time=15
note_on channel=9 note=36 velocity=119 time=32
note_on channel=9 note=42 velocity=108 time=0
note_on channel=9 note=42 velocity=0 time=22
note_on channel=9 note=42 velocity=76 time=26
note_on channel=9 note=36 velocity=0 time=1
note_on channel=9 note=42 velocity=0 time=16
note_on channel=9 note=40 velocity=121 time=31
note_on channel=9 note=42 velocity=113 time=0
note_on channel=9 note=42 velocity=0 time=22
note_on channel=9 note=40 velocity=0 time=24
note_on channel=9 note=42 velocity=76 time=2
note_on channel=9 note=42 velocity=0 time=16
note_on channel=9 note=36 velocity=119 time=32
note_on channel=9 note=42 velocity=108 time=0
note_on channel=9 note=42 velocity=0 time=23
note_on channel=9 note=36 velocity=0 time=12
note_on channel=9 note=42 velocity=72 time=13
note_on channel=9 note=42 velocity=0 time=16
note_on channel=9 note=40 velocity=127 time=32
note_on channel=9 note=42 velocity=113 time=0
note_on channel=9 note=54 velocity=106 time=0
note_on channel=9 note=42 velocity=0 time=21
note_on channel=9 note=40 velocity=0 time=25
note_on channel=9 note=42 velocity=78 time=2
note_on channel=9 note=54 velocity=0 time=5
note_on channel=9 note=42 velocity=0 time=11
note_on channel=9 note=36 velocity=119 time=32
note_on channel=9 note=42 velocity=108 time=0
note_on channel=9 note=42 velocity=0 time=22
note_on channel=9 note=36 velocity=0 time=20
note_on channel=9 note=42 velocity=76 time=6
note_on channel=9 note=42 velocity=0 time=14
note_on channel=9 note=40 velocity=127 time=34
note_on channel=9 note=42 velocity=113 time=0
note_on channel=9 note=42 velocity=0 time=19
note_on channel=9 note=40 velocity=0 time=25
note_on channel=9 note=42 velocity=82 time=4
note_on channel=9 note=42 velocity=0 time=12
note_on channel=9 note=36 velocity=108 time=36
note_on channel=9 note=42 velocity=113 time=0
note_on channel=9 note=42 velocity=0 time=22
control_change channel=9 control=7 value=127 time=2
note_on channel=9 note=36 velocity=0 time=18
control_change channel=9 control=7 value=125 time=6
note_on channel=9 note=42 velocity=78 time=0
note_on channel=9 note=42 velocity=0 time=15
control_change channel=9 control=7 value=125 time=9
control_change channel=9 control=7 value=123 time=24
note_on channel=9 note=40 velocity=127 time=0
note_on channel=9 note=42 velocity=119 time=0
note_on channel=9 note=54 velocity=106 time=0
note_on channel=9 note=42 velocity=0 time=20
control_change channel=9 control=7 value=123 time=4
note_on channel=9 note=54 velocity=0 time=24
control_change channel=9 control=7 value=123 time=0
note_on channel=9 note=42 velocity=76 time=0
note_on channel=9 note=40 velocity=0 time=1
note_on channel=9 note=42 velocity=0 time=13
control_change channel=9 control=7 value=121 time=10
control_change channel=9 control=7 value=119 time=24
note_on channel=9 note=36 velocity=125 time=0
note_on channel=9 note=42 velocity=108 time=0
note_on channel=9 note=42 velocity=0 time=18
control_change channel=9 control=7 value=119 time=6
note_on channel=9 note=36 velocity=0 time=15
control_change channel=9 control=7 value=119 time=9
note_on channel=9 note=42 velocity=82 time=0
note_on channel=9 note=42 velocity=0 time=13
control_change channel=9 control=7 value=119 time=11
control_change channel=9 control=7 value=119 time=24
note_on channel=9 note=40 velocity=127 time=0
note_on channel=9 note=42 velocity=113 time=0
note_on channel=9 note=42 velocity=0 time=19
control_change channel=9 control=7 value=117 time=5
control_change channel=9 control=7 value=117 time=24
note_on channel=9 note=42 velocity=82 time=0
note_on channel=9 note=40 velocity=0 time=1
note_on channel=9 note=42 velocity=0 time=16
control_change channel=9 control=7 value=115 time=7
control_change channel=9 control=7 value=117 time=24
note_on channel=9 note=36 velocity=119 time=0
note_on channel=9 note=42 velocity=113 time=0
note_on channel=9 note=42 velocity=0 time=19
control_change channel=9 control=7 value=113 time=5
note_on channel=9 note=36 velocity=0 time=11
control_change channel=9 control=7 value=113 time=13
note_on channel=9 note=42 velocity=82 time=0
note_on channel=9 note=42 velocity=0 time=17
control_change channel=9 control=7 value=109 time=7
control_change channel=9 control=7 value=109 time=24
note_on channel=9 note=40 velocity=127 time=0
note_on channel=9 note=42 velocity=113 time=0
note_on channel=9 note=54 velocity=100 time=0
note_on channel=9 note=42 velocity=0 time=19
control_change channel=9 control=7 value=107 time=5
note_on channel=9 note=54 velocity=0 time=22
note_on channel=9 note=40 velocity=0 time=0
control_change channel=9 control=7 value=109 time=2
note_on channel=9 note=42 velocity=82 time=0
note_on channel=9 note=42 velocity=0 time=17
control_change channel=9 control=7 value=105 time=7
control_change channel=9 control=7 value=105 time=24
note_on channel=9 note=36 velocity=113 time=0
note_on channel=9 note=42 velocity=113 time=0
note_on channel=9 note=42 velocity=0 time=19
control_change channel=9 control=7 value=103 time=5
note_on channel=9 note=36 velocity=0 time=2
control_change channel=9 control=7 value=101 time=22
note_on channel=9 note=36 velocity=111 time=0
note_on channel=9 note=42 velocity=82 time=0
note_on channel=9 note=42 velocity=0 time=17
control_change channel=9 control=7 value=101 time=7
note_on channel=9 note=36 velocity=0 time=13
control_change channel=9 control=7 value=101 time=11
note_on channel=9 note=40 velocity=127 time=0
note_on channel=9 note=42 velocity=115 time=0
note_on channel=9 note=42 velocity=0 time=17
control_change channel=9 control=7 value=99 time=7
note_on channel=9 note=40 velocity=0 time=17
control_change channel=9 control=7 value=97 time=7
control_change channel=9 control=7 value=99 time=24
control_change channel=9 control=7 value=97 time=24
note_on channel=9 note=36 velocity=119 time=0
note_on channel=9 note=42 velocity=109 time=0
note_on channel=9 note=49 velocity=98 time=0
control_change channel=9 control=7 value=95 time=24
note_on channel=9 note=42 velocity=0 time=1
note_on channel=9 note=36 velocity=0 time=14
control_change channel=9 control=7 value=93 time=9
note_on channel=9 note=42 velocity=57 time=0
note_on channel=9 note=42 velocity=0 time=21
control_change channel=9 control=7 value=93 time=3
control_change channel=9 control=7 value=93 time=24
note_on channel=9 note=40 velocity=127 time=0
note_on channel=9 note=42 velocity=102 time=0
note_on channel=9 note=54 velocity=106 time=0
control_change channel=9 control=7 value=93 time=24
note_on channel=9 note=42 velocity=0 time=1
note_on channel=9 note=49 velocity=0 time=12
note_on channel=9 note=40 velocity=0 time=10
note_on channel=9 note=54 velocity=0 time=0
control_change channel=9 control=7 value=91 time=1
note_on channel=9 note=42 velocity=51 time=0
note_on channel=9 note=42 velocity=0 time=22
control_change channel=9 control=7 value=89 time=2
control_change channel=9 control=7 value=89 time=24
note_on channel=9 note=36 velocity=108 time=0
note_on channel=9 note=42 velocity=102 time=0
control_change channel=9 control=7 value=87 time=24
note_on channel=9 note=42 velocity=0 time=4
note_on channel=9 note=36 velocity=0 time=20
control_change channel=9 control=7 value=89 time=0
note_on channel=9 note=42 velocity=76 time=0
note_on channel=9 note=42 velocity=0 time=16
control_change channel=9 control=7 value=85 time=8
control_change channel=9 control=7 value=85 time=24
note_on channel=9 note=40 velocity=127 time=0
note_on channel=9 note=42 velocity=108 time=0
control_change channel=9 control=7 value=85 time=24
note_on channel=9 note=42 velocity=0 time=2
control_change channel=9 control=7 value=85 time=22
note_on channel=9 note=42 velocity=62 time=0
note_on channel=9 note=40 velocity=0 time=4
note_on channel=9 note=42 velocity=0 time=14
control_change channel=9 control=7 value=83 time=6
control_change channel=9 control=7 value=83 time=24
note_on channel=9 note=36 velocity=113 time=0
note_on channel=9 note=42 velocity=108 time=0
note_on channel=9 note=42 velocity=0 time=24
control_change channel=9 control=7 value=81 time=0
note_on channel=9 note=36 velocity=0 time=21
control_change channel=9 control=7 value=79 time=3
note_on channel=9 note=42 velocity=64 time=0
note_on channel=9 note=42 velocity=0 time=16
control_change channel=9 control=7 value=79 time=8
control_change channel=9 control=7 value=79 time=24
note_on channel=9 note=40 velocity=127 time=0
note_on channel=9 note=42 velocity=113 time=0
note_on channel=9 note=54 velocity=106 time=0
control_change channel=9 control=7 value=79 time=24
note_on channel=9 note=42 velocity=0 time=3
note_on channel=9 note=40 velocity=0 time=19
control_change channel=9 control=7 value=77 time=2
note_on channel=9 note=42 velocity=68 time=0
note_on channel=9 note=54 velocity=0 time=5
note_on channel=9 note=42 velocity=0 time=15
control_change channel=9 control=7 value=77 time=4
control_change channel=9 control=7 value=75 time=24
note_on channel=9 note=36 velocity=125 time=0
note_on channel=9 note=42 velocity=113 time=0
control_change channel=9 control=7 value=75 time=24
note_on channel=9 note=42 velocity=0 time=1
control_change channel=9 control=7 value=73 time=23
note_on channel=9 note=42 velocity=70 time=0
note_on channel=9 note=36 velocity=0 time=6
note_on channel=9 note=42 velocity=0 time=11
control_change channel=9 control=7 value=73 time=7
control_change channel=9 control=7 value=71 time=24
note_on channel=9 note=40 velocity=127 time=0
note_on channel=9 note=42 velocity=108 time=0
note_on channel=9 note=42 velocity=0 time=22
control_change channel=9 control=7 value=71 time=2
control_change channel=9 control=7 value=71 time=24
note_on channel=9 note=42 velocity=72 time=0
note_on channel=9 note=40 velocity=0 time=2
note_on channel=9 note=42 velocity=0 time=16
control_change channel=9 control=7 value=69 time=6
control_change channel=9 control=7 value=69 time=24
note_on channel=9 note=36 velocity=113 time=0
note_on channel=9 note=42 velocity=113 time=0
control_change channel=9 control=7 value=67 time=24
note_on channel=9 note=42 velocity=0 time=1
control_change channel=9 control=7 value=67 time=23
note_on channel=9 note=42 velocity=76 time=0
note_on channel=9 note=36 velocity=0 time=2
note_on channel=9 note=42 velocity=0 time=16
control_change channel=9 control=7 value=65 time=6
control_change channel=9 control=7 value=65 time=24
note_on channel=9 note=40 velocity=127 time=0
note_on channel=9 note=42 velocity=108 time=0
note_on channel=9 note=54 velocity=106 time=0
note_on channel=9 note=42 velocity=0 time=24
control_change channel=9 control=7 value=63 time=0
note_on channel=9 note=40 velocity=0 time=22
note_on channel=9 note=54 velocity=0 time=2
control_change channel=9 control=7 value=63 time=0
note_on channel=9 note=42 velocity=70 time=0
note_on channel=9 note=42 velocity=0 time=20
control_change channel=9 control=7 value=61 time=4
control_change channel=9 control=7 value=61 time=24
note_on channel=9 note=36 velocity=119 time=0
note_on channel=9 note=42 velocity=102 time=0
note_on channel=9 note=42 velocity=0 time=22
control_change channel=9 control=7 value=61 time=2
note_on channel=9 note=36 velocity=0 time=19
control_change channel=9 control=7 value=59 time=5
note_on channel=9 note=42 velocity=78 time=0
note_on channel=9 note=42 velocity=0 time=16
control_change channel=9 control=7 value=59 time=8
control_change channel=9 control=7 value=57 time=24
note_on channel=9 note=40 velocity=121 time=0
note_on channel=9 note=42 velocity=113 time=0
note_on channel=9 note=42 velocity=0 time=21
control_change channel=9 control=7 value=57 time=3
note_on channel=9 note=40 velocity=0 time=22
control_change channel=9 control=7 value=57 time=2
note_on channel=9 note=42 velocity=80 time=0
note_on channel=9 note=42 velocity=0 time=16
control_change channel=9 control=7 value=57 time=8
control_change channel=9 control=7 value=57 time=24
note_on channel=9 note=36 velocity=125 time=0
note_on channel=9 note=42 velocity=113 time=0
note_on channel=9 note=42 velocity=0 time=23
control_change channel=9 control=7 value=55 time=1
note_on channel=9 note=36 velocity=0 time=12
control_change channel=9 control=7 value=55 time=12
note_on channel=9 note=42 velocity=78 time=0
note_on channel=9 note=42 velocity=0 time=16
control_change channel=9 control=7 value=55 time=8
control_change channel=9 control=7 value=53 time=24
note_on channel=9 note=40 velocity=127 time=0
note_on channel=9 note=42 velocity=113 time=0
note_on channel=9 note=54 velocity=100 time=0
note_on channel=9 note=42 velocity=0 time=24
control_change channel=9 control=7 value=51 time=0
note_on channel=9 note=54 velocity=0 time=22
control_change channel=9 control=7 value=51 time=2
note_on channel=9 note=42 velocity=76 time=0
note_on channel=9 note=40 velocity=0 time=5
note_on channel=9 note=42 velocity=0 time=12
control_change channel=9 control=7 value=51 time=7
control_change channel=9 control=7 value=49 time=24
note_on channel=9 note=36 velocity=96 time=0
note_on channel=9 note=42 velocity=108 time=0
note_on channel=9 note=42 velocity=0 time=22
control_change channel=9 control=7 value=49 time=2
note_on channel=9 note=40 velocity=127 time=0
note_on channel=9 note=36 velocity=0 time=4
control_change channel=9 control=7 value=47 time=20
note_on channel=9 note=42 velocity=97 time=0
note_on channel=9 note=42 velocity=0 time=17
note_on channel=9 note=40 velocity=0 time=6
control_change channel=9 control=7 value=47 time=1
control_change channel=9 control=7 value=47 time=24
note_on channel=9 note=40 velocity=127 time=0
note_on channel=9 note=42 velocity=108 time=0
note_on channel=9 note=42 velocity=0 time=22
control_change channel=9 control=7 value=47 time=2
note_on channel=9 note=40 velocity=0 time=9
control_change channel=9 control=7 value=45 time=15
note_on channel=9 note=42 velocity=101 time=0
note_on channel=9 note=42 velocity=0 time=16
control_change channel=9 control=7 value=45 time=8
control_change channel=9 control=7 value=43 time=24
note_on channel=9 note=36 velocity=125 time=0
note_on channel=9 note=42 velocity=108 time=0
note_on channel=9 note=49 velocity=98 time=0
note_on channel=9 note=42 velocity=0 time=24
control_change channel=9 control=7 value=43 time=0
note_on channel=9 note=36 velocity=0 time=23
control_change channel=9 control=7 value=43 time=1
note_on channel=9 note=42 velocity=74 time=0
note_on channel=9 note=42 velocity=0 time=18
control_change channel=9 control=7 value=41 time=6
control_change channel=9 control=7 value=41 time=24
note_on channel=9 note=40 velocity=127 time=0
note_on channel=9 note=42 velocity=108 time=0
note_on channel=9 note=54 velocity=106 time=0
note_on channel=9 note=42 velocity=0 time=21
control_change channel=9 control=7 value=39 time=3
note_on channel=9 note=49 velocity=0 time=13
note_on channel=9 note=40 velocity=0 time=5
note_on channel=9 note=54 velocity=0 time=5
control_change channel=9 control=7 value=39 time=1
note_on channel=9 note=42 velocity=76 time=0
note_on channel=9 note=42 velocity=0 time=16
control_change channel=9 control=7 value=39 time=8
control_change channel=9 control=7 value=39 time=24
note_on channel=9 note=36 velocity=113 time=0
note_on channel=9 note=42 velocity=108 time=0
note_on channel=9 note=42 velocity=0 time=22
control_change channel=9 control=7 value=39 time=2
note_on channel=9 note=36 velocity=0 time=15
control_change channel=9 control=7 value=37 time=9
note_on channel=9 note=42 velocity=76 time=0
note_on channel=9 note=42 velocity=0 time=17
control_change channel=9 control=7 value=35 time=7
control_change channel=9 control=7 value=35 time=24
note_on channel=9 note=40 velocity=121 time=0
note_on channel=9 note=42 velocity=113 time=0
note_on channel=9 note=42 velocity=0 time=22
control_change channel=9 control=7 value=35 time=2
note_on channel=9 note=40 velocity=0 time=17
control_change channel=9 control=7 value=35 time=7
note_on channel=9 note=42 velocity=76 time=0
note_on channel=9 note=42 velocity=0 time=16
control_change channel=9 control=7 value=33 time=8
control_change channel=9 control=7 value=31 time=24
note_on channel=9 note=36 velocity=113 time=0
note_on channel=9 note=42 velocity=108 time=0
note_on channel=9 note=42 velocity=0 time=23
control_change channel=9 control=7 value=31 time=1
note_on channel=9 note=36 velocity=0 time=23
control_change channel=9 control=7 value=31 time=1
note_on channel=9 note=42 velocity=72 time=0
note_on channel=9 note=42 velocity=0 time=16
control_change channel=9 control=7 value=29 time=8
control_change channel=9 control=7 value=29 time=24
note_on channel=9 note=40 velocity=127 time=0
note_on channel=9 note=42 velocity=113 time=0
note_on channel=9 note=54 velocity=106 time=0
note_on channel=9 note=42 velocity=0 time=21
control_change channel=9 control=7 value=29 time=3
note_on channel=9 note=40 velocity=0 time=18
control_change channel=9 control=7 value=27 time=6
note_on channel=9 note=42 velocity=78 time=0
note_on channel=9 note=54 velocity=0 time=5
note_on channel=9 note=42 velocity=0 time=11
control_change channel=9 control=7 value=27 time=8
control_change channel=9 control=7 value=27 time=24
note_on channel=9 note=36 velocity=108 time=0
note_on channel=9 note=42 velocity=108 time=0
note_on channel=9 note=42 velocity=0 time=22
control_change channel=9 control=7 value=27 time=2
note_on channel=9 note=36 velocity=0 time=14
control_change channel=9 control=7 value=25 time=10
note_on channel=9 note=42 velocity=76 time=0
note_on channel=9 note=42 velocity=0 time=14
control_change channel=9 control=7 value=25 time=10
control_change channel=9 control=7 value=23 time=24
note_on channel=9 note=40 velocity=121 time=0
note_on channel=9 note=42 velocity=113 time=0
note_on channel=9 note=42 velocity=0 time=19
control_change channel=9 control=7 value=23 time=5
note_on channel=9 note=40 velocity=0 time=20
control_change channel=9 control=7 value=23 time=4
note_on channel=9 note=42 velocity=82 time=0
note_on channel=9 note=42 velocity=0 time=12
control_change channel=9 control=7 value=21 time=12
control_change channel=9 control=7 value=21 time=24
note_on channel=9 note=36 velocity=113 time=0
note_on channel=9 note=42 velocity=113 time=0
note_on channel=9 note=42 velocity=0 time=22
control_change channel=9 control=7 value=19 time=2
note_on channel=9 note=36 velocity=0 time=19
control_change channel=9 control=7 value=19 time=5
note_on channel=9 note=42 velocity=78 time=0
note_on channel=9 note=42 velocity=0 time=15
control_change channel=9 control=7 value=19 time=9
control_change channel=9 control=7 value=19 time=24
note_on channel=9 note=40 velocity=121 time=0
note_on channel=9 note=42 velocity=119 time=0
note_on channel=9 note=54 velocity=106 time=0
note_on channel=9 note=42 velocity=0 time=20
control_change channel=9 control=7 value=17 time=4
note_on channel=9 note=40 velocity=0 time=19
note_on channel=9 note=54 velocity=0 time=5
control_change channel=9 control=7 value=17 time=0
note_on channel=9 note=42 velocity=76 time=0
note_on channel=9 note=42 velocity=0 time=14
control_change channel=9 control=7 value=15 time=10
control_change channel=9 control=7 value=15 time=24
note_on channel=9 note=36 velocity=119 time=0
note_on channel=9 note=42 velocity=108 time=0
note_on channel=9 note=42 velocity=0 time=18
note_on channel=9 note=36 velocity=0 time=6
control_change channel=9 control=7 value=15 time=0
control_change channel=9 control=7 value=15 time=24
note_on channel=9 note=42 velocity=82 time=0
note_on channel=9 note=42 velocity=0 time=13
control_change channel=9 control=7 value=13 time=11
control_change channel=9 control=7 value=13 time=24
note_on channel=9 note=40 velocity=127 time=0
note_on channel=9 note=42 velocity=113 time=0
note_on channel=9 note=42 velocity=0 time=19
control_change channel=9 control=7 value=11 time=5
note_on channel=9 note=40 velocity=0 time=2
control_change channel=9 control=7 value=11 time=22
note_on channel=9 note=42 velocity=82 time=0
note_on channel=9 note=42 velocity=0 time=17
control_change channel=9 control=7 value=11 time=7
control_change channel=9 control=7 value=9 time=24
note_on channel=9 note=36 velocity=125 time=0
note_on channel=9 note=42 velocity=113 time=0
note_on channel=9 note=42 velocity=0 time=19
control_change channel=9 control=7 value=9 time=5
note_on channel=9 note=36 velocity=0 time=6
control_change channel=9 control=7 value=9 time=18
note_on channel=9 note=42 velocity=82 time=0
note_on channel=9 note=42 velocity=0 time=17
control_change channel=9 control=7 value=9 time=7
control_change channel=9 control=7 value=9 time=24
note_on channel=9 note=40 velocity=127 time=0
note_on channel=9 note=42 velocity=113 time=0
note_on channel=9 note=54 velocity=100 time=0
note_on channel=9 note=42 velocity=0 time=19
control_change channel=9 control=7 value=9 time=5
note_on channel=9 note=54 velocity=0 time=22
control_change channel=9 control=7 value=7 time=2
note_on channel=9 note=42 velocity=93 time=0
note_on channel=9 note=40 velocity=0 time=1
note_on channel=9 note=42 velocity=0 time=16
control_change channel=9 control=7 value=7 time=7
control_change channel=9 control=7 value=5 time=24
note_on channel=9 note=36 velocity=108 time=0
note_on channel=9 note=42 velocity=113 time=0
note_on channel=9 note=42 velocity=0 time=19
control_change channel=9 control=7 value=5 time=5
note_on channel=9 note=40 velocity=127 time=0
note_on channel=9 note=36 velocity=0 time=8
control_change channel=9 control=7 value=5 time=16
note_on channel=9 note=42 velocity=91 time=0
note_on channel=9 note=40 velocity=0 time=6
note_on channel=9 note=42 velocity=0 time=11
control_change channel=9 control=7 value=5 time=7
note_on channel=9 note=36 velocity=93 time=0
note_on channel=9 note=36 velocity=0 time=17
control_change channel=9 control=7 value=3 time=7
note_on channel=9 note=40 velocity=101 time=0
note_on channel=9 note=42 velocity=115 time=0
note_on channel=9 note=40 velocity=0 time=14
note_on channel=9 note=42 velocity=0 time=3
control_change channel=9 control=7 value=3 time=7
note_on channel=9 note=40 velocity=113 time=0
note_on channel=9 note=40 velocity=0 time=8
control_change channel=9 control=7 value=1 time=16
note_on channel=9 note=40 velocity=127 time=0
note_on channel=9 note=42 velocity=115 time=0
note_on channel=9 note=40 velocity=0 time=8
note_on channel=9 note=42 velocity=0 time=9
control_change channel=9 control=7 value=1 time=7
note_on channel=9 note=40 velocity=121 time=0
note_on channel=9 note=40 velocity=0 time=18
<meta message end_of_track time=0>
<meta message midi_port port=0 time=0>
<meta message track_name name=u'Reverse Cym' time=0>
control_change channel=10 control=0 value=0 time=0
program_change channel=10 program=119 time=0
control_change channel=10 control=7 value=127 time=0
control_change channel=10 control=10 value=64 time=0
note_on channel=10 note=58 velocity=127 time=514
note_on channel=10 note=58 velocity=0 time=362
note_on channel=10 note=58 velocity=127 time=24214
note_on channel=10 note=58 velocity=0 time=362
<meta message end_of_track time=0>
<meta message midi_port port=0 time=0>
<meta message track_name name=u'Nylon Guitar' time=0>
control_change channel=15 control=0 value=0 time=0
program_change channel=15 program=24 time=0
control_change channel=15 control=7 value=0 time=0
control_change channel=15 control=10 value=64 time=0
control_change channel=15 control=7 value=0 time=3840
note_on channel=15 note=42 velocity=104 time=0
note_on channel=15 note=54 velocity=86 time=0
note_on channel=15 note=57 velocity=98 time=0
note_on channel=15 note=61 velocity=115 time=0
note_on channel=15 note=61 velocity=0 time=56
note_on channel=15 note=54 velocity=0 time=1
note_on channel=15 note=42 velocity=0 time=2
note_on channel=15 note=57 velocity=0 time=1
note_on channel=15 note=42 velocity=98 time=132
note_on channel=15 note=54 velocity=80 time=0
note_on channel=15 note=57 velocity=98 time=0
note_on channel=15 note=61 velocity=115 time=0
note_on channel=15 note=42 velocity=0 time=29
note_on channel=15 note=54 velocity=0 time=14
note_on channel=15 note=61 velocity=0 time=2
note_on channel=15 note=42 velocity=68 time=3
note_on channel=15 note=57 velocity=0 time=10
note_on channel=15 note=42 velocity=0 time=7
note_on channel=15 note=42 velocity=86 time=7
note_on channel=15 note=52 velocity=74 time=0
note_on channel=15 note=56 velocity=86 time=0
note_on channel=15 note=59 velocity=104 time=0
note_on channel=15 note=56 velocity=0 time=41
note_on channel=15 note=52 velocity=0 time=0
note_on channel=15 note=59 velocity=0 time=1
note_on channel=15 note=42 velocity=0 time=2
note_on channel=15 note=42 velocity=104 time=28
note_on channel=15 note=54 velocity=86 time=0
note_on channel=15 note=57 velocity=92 time=0
note_on channel=15 note=61 velocity=115 time=0
note_on channel=15 note=42 velocity=0 time=184
note_on channel=15 note=61 velocity=0 time=28
note_on channel=15 note=54 velocity=0 time=1
note_on channel=15 note=42 velocity=68 time=3
note_on channel=15 note=57 velocity=0 time=2
note_on channel=15 note=42 velocity=0 time=11
note_on channel=15 note=42 velocity=98 time=11
note_on channel=15 note=54 velocity=80 time=0
note_on channel=15 note=57 velocity=98 time=0
note_on channel=15 note=61 velocity=115 time=0
note_on channel=15 note=54 velocity=0 time=40
note_on channel=15 note=61 velocity=0 time=2
note_on channel=15 note=42 velocity=0 time=8
note_on channel=15 note=57 velocity=0 time=4
note_on channel=15 note=42 velocity=92 time=18
note_on channel=15 note=52 velocity=72 time=0
note_on channel=15 note=56 velocity=74 time=0
note_on channel=15 note=59 velocity=98 time=0
note_on channel=15 note=59 velocity=0 time=42
note_on channel=15 note=56 velocity=0 time=1
note_on channel=15 note=52 velocity=0 time=0
note_on channel=15 note=42 velocity=0 time=1
note_on channel=15 note=42 velocity=104 time=28
note_on channel=15 note=54 velocity=78 time=0
note_on channel=15 note=57 velocity=86 time=0
note_on channel=15 note=61 velocity=109 time=0
note_on channel=15 note=61 velocity=0 time=189
note_on channel=15 note=57 velocity=0 time=0
note_on channel=15 note=54 velocity=0 time=5
note_on channel=15 note=42 velocity=0 time=25
note_on channel=15 note=42 velocity=98 time=21
note_on channel=15 note=49 velocity=98 time=0
note_on channel=15 note=54 velocity=86 time=0
note_on channel=15 note=57 velocity=80 time=0
note_on channel=15 note=54 velocity=0 time=47
note_on channel=15 note=57 velocity=0 time=5
note_on channel=15 note=49 velocity=0 time=0
note_on channel=15 note=42 velocity=0 time=15
note_on channel=15 note=37 velocity=92 time=5
note_on channel=15 note=47 velocity=104 time=0
note_on channel=15 note=52 velocity=92 time=0
note_on channel=15 note=56 velocity=98 time=0
note_on channel=15 note=56 velocity=0 time=41
note_on channel=15 note=47 velocity=0 time=4
note_on channel=15 note=52 velocity=0 time=13
note_on channel=15 note=37 velocity=0 time=7
note_on channel=15 note=38 velocity=98 time=7
note_on channel=15 note=45 velocity=98 time=0
note_on channel=15 note=50 velocity=64 time=0
note_on channel=15 note=54 velocity=92 time=0
note_on channel=15 note=38 velocity=0 time=283
note_on channel=15 note=38 velocity=56 time=5
note_on channel=15 note=45 velocity=0 time=16
note_on channel=15 note=50 velocity=0 time=3
note_on channel=15 note=54 velocity=0 time=3
note_on channel=15 note=45 velocity=60 time=50
note_on channel=15 note=50 velocity=50 time=0
note_on channel=15 note=54 velocity=72 time=0
note_on channel=15 note=38 velocity=0 time=19
note_on channel=15 note=38 velocity=92 time=5
note_on channel=15 note=45 velocity=0 time=22
note_on channel=15 note=50 velocity=0 time=3
note_on channel=15 note=54 velocity=0 time=3
note_on channel=15 note=38 velocity=0 time=19
note_on channel=15 note=42 velocity=104 time=1
note_on channel=15 note=54 velocity=92 time=0
note_on channel=15 note=57 velocity=92 time=0
note_on channel=15 note=61 velocity=115 time=0
note_on channel=15 note=61 velocity=0 time=44
note_on channel=15 note=54 velocity=0 time=3
note_on channel=15 note=42 velocity=0 time=3
note_on channel=15 note=57 velocity=0 time=1
note_on channel=15 note=42 velocity=98 time=141
note_on channel=15 note=54 velocity=78 time=0
note_on channel=15 note=57 velocity=92 time=0
note_on channel=15 note=61 velocity=115 time=0
note_on channel=15 note=42 velocity=0 time=28
note_on channel=15 note=54 velocity=0 time=19
note_on channel=15 note=42 velocity=70 time=1
note_on channel=15 note=61 velocity=0 time=5
note_on channel=15 note=57 velocity=0 time=8
note_on channel=15 note=42 velocity=0 time=4
note_on channel=15 note=42 velocity=92 time=7
note_on channel=15 note=52 velocity=80 time=0
note_on channel=15 note=56 velocity=92 time=0
note_on channel=15 note=59 velocity=115 time=0
note_on channel=15 note=56 velocity=0 time=37
note_on channel=15 note=52 velocity=0 time=0
note_on channel=15 note=42 velocity=0 time=2
note_on channel=15 note=59 velocity=0 time=3
note_on channel=15 note=42 velocity=104 time=30
note_on channel=15 note=54 velocity=78 time=0
note_on channel=15 note=57 velocity=86 time=0
note_on channel=15 note=61 velocity=109 time=0
note_on channel=15 note=42 velocity=0 time=171
note_on channel=15 note=42 velocity=74 time=21
note_on channel=15 note=42 velocity=0 time=12
note_on channel=15 note=54 velocity=0 time=8
note_on channel=15 note=61 velocity=0 time=3
note_on channel=15 note=42 velocity=74 time=1
note_on channel=15 note=57 velocity=0 time=2
note_on channel=15 note=42 velocity=0 time=11
note_on channel=15 note=42 velocity=92 time=11
note_on channel=15 note=54 velocity=86 time=0
note_on channel=15 note=57 velocity=98 time=0
note_on channel=15 note=61 velocity=115 time=0
note_on channel=15 note=42 velocity=0 time=31
note_on channel=15 note=42 velocity=104 time=17
note_on channel=15 note=54 velocity=0 time=3
note_on channel=15 note=61 velocity=0 time=0
note_on channel=15 note=57 velocity=0 time=11
note_on channel=15 note=52 velocity=80 time=10
note_on channel=15 note=56 velocity=92 time=0
note_on channel=15 note=59 velocity=109 time=0
note_on channel=15 note=42 velocity=0 time=39
note_on channel=15 note=52 velocity=0 time=3
note_on channel=15 note=56 velocity=0 time=2
note_on channel=15 note=59 velocity=0 time=3
note_on channel=15 note=42 velocity=80 time=1
note_on channel=15 note=42 velocity=0 time=17
note_on channel=15 note=42 velocity=98 time=7
note_on channel=15 note=54 velocity=80 time=0
note_on channel=15 note=57 velocity=92 time=0
note_on channel=15 note=61 velocity=115 time=0
note_on channel=15 note=42 velocity=0 time=165
note_on channel=15 note=42 velocity=104 time=27
note_on channel=15 note=61 velocity=0 time=1
note_on channel=15 note=57 velocity=0 time=0
note_on channel=15 note=54 velocity=0 time=2
note_on channel=15 note=42 velocity=0 time=34
note_on channel=15 note=42 velocity=92 time=11
note_on channel=15 note=49 velocity=109 time=0
note_on channel=15 note=54 velocity=92 time=0
note_on channel=15 note=57 velocity=92 time=0
note_on channel=15 note=54 velocity=0 time=47
note_on channel=15 note=57 velocity=0 time=3
note_on channel=15 note=49 velocity=0 time=5
note_on channel=15 note=42 velocity=0 time=8
note_on channel=15 note=37 velocity=98 time=9
note_on channel=15 note=47 velocity=109 time=0
note_on channel=15 note=52 velocity=80 time=0
note_on channel=15 note=56 velocity=92 time=0
note_on channel=15 note=47 velocity=0 time=39
note_on channel=15 note=56 velocity=0 time=3
note_on channel=15 note=52 velocity=0 time=9
note_on channel=15 note=37 velocity=0 time=6
note_on channel=15 note=38 velocity=104 time=15
note_on channel=15 note=45 velocity=98 time=0
note_on channel=15 note=50 velocity=74 time=0
note_on channel=15 note=54 velocity=109 time=0
note_on channel=15 note=38 velocity=0 time=164
note_on channel=15 note=38 velocity=76 time=28
note_on channel=15 note=38 velocity=0 time=9
note_on channel=15 note=38 velocity=109 time=15
note_on channel=15 note=38 velocity=0 time=29
note_on channel=15 note=38 velocity=80 time=19
note_on channel=15 note=38 velocity=0 time=13
note_on channel=15 note=38 velocity=98 time=11
note_on channel=15 note=54 velocity=0 time=24
note_on channel=15 note=45 velocity=0 time=2
note_on channel=15 note=50 velocity=0 time=6
note_on channel=15 note=45 velocity=104 time=16
note_on channel=15 note=50 velocity=78 time=0
note_on channel=15 note=54 velocity=92 time=0
note_on channel=15 note=38 velocity=0 time=37
note_on channel=15 note=54 velocity=0 time=37
note_on channel=15 note=50 velocity=0 time=0
note_on channel=15 note=45 velocity=0 time=4
note_on channel=15 note=42 velocity=109 time=18
note_on channel=15 note=49 velocity=109 time=0
note_on channel=15 note=54 velocity=92 time=0
note_on channel=15 note=57 velocity=80 time=0
note_on channel=15 note=54 velocity=0 time=82
note_on channel=15 note=49 velocity=0 time=1
note_on channel=15 note=57 velocity=0 time=2
note_on channel=15 note=42 velocity=0 time=4
note_on channel=15 note=42 velocity=92 time=679
note_on channel=15 note=49 velocity=98 time=0
note_on channel=15 note=54 velocity=80 time=0
note_on channel=15 note=56 velocity=92 time=0
note_on channel=15 note=57 velocity=74 time=0
note_on channel=15 note=56 velocity=0 time=331
note_on channel=15 note=54 velocity=0 time=1
note_on channel=15 note=57 velocity=0 time=6
note_on channel=15 note=49 velocity=0 time=1
note_on channel=15 note=42 velocity=0 time=16
note_on channel=15 note=42 velocity=104 time=29
note_on channel=15 note=45 velocity=92 time=0
note_on channel=15 note=50 velocity=60 time=0
note_on channel=15 note=54 velocity=80 time=0
note_on channel=15 note=50 velocity=0 time=347
note_on channel=15 note=45 velocity=0 time=0
note_on channel=15 note=54 velocity=0 time=3
note_on channel=15 note=42 velocity=0 time=1
note_on channel=15 note=42 velocity=109 time=33
note_on channel=15 note=47 velocity=92 time=0
note_on channel=15 note=52 velocity=92 time=0
note_on channel=15 note=56 velocity=92 time=0
note_on channel=15 note=52 velocity=0 time=354
note_on channel=15 note=47 velocity=0 time=3
note_on channel=15 note=56 velocity=0 time=9
note_on channel=15 note=42 velocity=0 time=1
note_on channel=15 note=42 velocity=98 time=17
note_on channel=15 note=49 velocity=104 time=0
note_on channel=15 note=54 velocity=98 time=0
note_on channel=15 note=57 velocity=86 time=0
note_on channel=15 note=49 velocity=0 time=355
note_on channel=15 note=57 velocity=0 time=1
note_on channel=15 note=54 velocity=0 time=2
note_on channel=15 note=42 velocity=0 time=0
note_on channel=15 note=42 velocity=109 time=26
note_on channel=15 note=49 velocity=109 time=0
note_on channel=15 note=54 velocity=92 time=0
note_on channel=15 note=57 velocity=80 time=0
note_on channel=15 note=54 velocity=0 time=328
note_on channel=15 note=49 velocity=0 time=14
note_on channel=15 note=57 velocity=0 time=11
note_on channel=15 note=42 velocity=0 time=9
note_on channel=15 note=42 velocity=98 time=22
note_on channel=15 note=45 velocity=98 time=0
note_on channel=15 note=50 velocity=64 time=0
note_on channel=15 note=54 velocity=86 time=0
note_on channel=15 note=45 velocity=0 time=344
note_on channel=15 note=50 velocity=0 time=2
note_on channel=15 note=54 velocity=0 time=4
note_on channel=15 note=42 velocity=0 time=6
note_on channel=15 note=42 velocity=98 time=28
note_on channel=15 note=47 velocity=86 time=0
note_on channel=15 note=52 velocity=92 time=0
note_on channel=15 note=56 velocity=92 time=0
note_on channel=15 note=52 velocity=0 time=333
note_on channel=15 note=47 velocity=0 time=2
note_on channel=15 note=56 velocity=0 time=11
note_on channel=15 note=42 velocity=0 time=8
note_on channel=15 note=42 velocity=92 time=30
note_on channel=15 note=49 velocity=98 time=0
note_on channel=15 note=54 velocity=92 time=0
note_on channel=15 note=56 velocity=104 time=0
note_on channel=15 note=57 velocity=78 time=0
note_on channel=15 note=54 velocity=0 time=355
note_on channel=15 note=57 velocity=0 time=1
note_on channel=15 note=42 velocity=0 time=1
note_on channel=15 note=49 velocity=0 time=0
note_on channel=15 note=56 velocity=0 time=0
note_on channel=15 note=42 velocity=91 time=27
note_on channel=15 note=49 velocity=91 time=0
note_on channel=15 note=54 velocity=91 time=0
note_on channel=15 note=56 velocity=91 time=0
note_on channel=15 note=57 velocity=91 time=0
note_on channel=15 note=54 velocity=0 time=326
note_on channel=15 note=56 velocity=0 time=1
note_on channel=15 note=57 velocity=0 time=2
note_on channel=15 note=49 velocity=0 time=17
note_on channel=15 note=42 velocity=0 time=22
note_on channel=15 note=38 velocity=93 time=16
note_on channel=15 note=45 velocity=93 time=0
note_on channel=15 note=50 velocity=93 time=0
note_on channel=15 note=54 velocity=93 time=0
note_on channel=15 note=45 velocity=0 time=334
note_on channel=15 note=54 velocity=0 time=13
note_on channel=15 note=50 velocity=0 time=0
note_on channel=15 note=38 velocity=0 time=13
note_on channel=15 note=40 velocity=104 time=24
note_on channel=15 note=47 velocity=92 time=0
note_on channel=15 note=52 velocity=92 time=0
note_on channel=15 note=56 velocity=98 time=0
note_on channel=15 note=52 velocity=0 time=349
note_on channel=15 note=47 velocity=0 time=3
note_on channel=15 note=56 velocity=0 time=12
note_on channel=15 note=42 velocity=98 time=20
note_on channel=15 note=49 velocity=98 time=0
note_on channel=15 note=54 velocity=92 time=0
note_on channel=15 note=57 velocity=92 time=0
note_on channel=15 note=40 velocity=0 time=1
note_on channel=15 note=57 velocity=0 time=355
note_on channel=15 note=49 velocity=0 time=0
note_on channel=15 note=54 velocity=0 time=2
note_on channel=15 note=42 velocity=0 time=5
note_on channel=15 note=42 velocity=98 time=21
note_on channel=15 note=49 velocity=109 time=0
note_on channel=15 note=54 velocity=86 time=0
note_on channel=15 note=57 velocity=76 time=0
note_on channel=15 note=54 velocity=0 time=310
note_on channel=15 note=49 velocity=0 time=31
note_on channel=15 note=57 velocity=0 time=21
note_on channel=15 note=42 velocity=0 time=10
note_on channel=15 note=38 velocity=98 time=12
note_on channel=15 note=45 velocity=98 time=0
note_on channel=15 note=50 velocity=64 time=0
note_on channel=15 note=54 velocity=86 time=0
note_on channel=15 note=45 velocity=0 time=334
note_on channel=15 note=54 velocity=0 time=12
note_on channel=15 note=50 velocity=0 time=1
note_on channel=15 note=38 velocity=0 time=20
note_on channel=15 note=40 velocity=92 time=17
note_on channel=15 note=47 velocity=98 time=0
note_on channel=15 note=52 velocity=86 time=0
note_on channel=15 note=56 velocity=92 time=0
note_on channel=15 note=52 velocity=0 time=354
note_on channel=15 note=47 velocity=0 time=1
note_on channel=15 note=56 velocity=0 time=8
note_on channel=15 note=40 velocity=0 time=15
control_change channel=15 control=0 value=0 time=6
program_change channel=15 program=20 time=0
note_on channel=15 note=42 velocity=104 time=0
note_on channel=15 note=49 velocity=104 time=0
note_on channel=15 note=54 velocity=104 time=0
note_on channel=15 note=57 velocity=92 time=0
note_on channel=15 note=49 velocity=0 time=211
note_on channel=15 note=57 velocity=0 time=2
note_on channel=15 note=54 velocity=0 time=0
note_on channel=15 note=42 velocity=0 time=5
note_on channel=15 note=42 velocity=99 time=22
note_on channel=15 note=47 velocity=99 time=0
note_on channel=15 note=52 velocity=99 time=0
note_on channel=15 note=56 velocity=99 time=0
note_on channel=15 note=47 velocity=0 time=42
note_on channel=15 note=52 velocity=0 time=2
note_on channel=15 note=56 velocity=0 time=2
note_on channel=15 note=42 velocity=0 time=3
note_on channel=15 note=42 velocity=99 time=23
note_on channel=15 note=49 velocity=99 time=0
note_on channel=15 note=54 velocity=99 time=0
note_on channel=15 note=57 velocity=99 time=0
note_on channel=15 note=54 velocity=0 time=41
note_on channel=15 note=49 velocity=0 time=1
note_on channel=15 note=42 velocity=0 time=2
note_on channel=15 note=57 velocity=0 time=4
note_on channel=15 note=35 velocity=115 time=24
note_on channel=15 note=45 velocity=92 time=0
note_on channel=15 note=50 velocity=64 time=0
note_on channel=15 note=54 velocity=92 time=0
note_on channel=15 note=54 velocity=0 time=341
note_on channel=15 note=45 velocity=0 time=3
note_on channel=15 note=50 velocity=0 time=18
note_on channel=15 note=35 velocity=0 time=19
note_on channel=15 note=37 velocity=104 time=3
note_on channel=15 note=49 velocity=98 time=0
note_on channel=15 note=52 velocity=74 time=0
note_on channel=15 note=57 velocity=76 time=0
note_on channel=15 note=52 velocity=0 time=163
note_on channel=15 note=49 velocity=0 time=1
note_on channel=15 note=57 velocity=0 time=6
note_on channel=15 note=37 velocity=0 time=22
note_on channel=15 note=40 velocity=98 time=0
note_on channel=15 note=47 velocity=98 time=0
note_on channel=15 note=52 velocity=92 time=0
note_on channel=15 note=56 velocity=98 time=0
note_on channel=15 note=47 velocity=0 time=145
note_on channel=15 note=56 velocity=0 time=15
note_on channel=15 note=52 velocity=0 time=22
note_on channel=15 note=40 velocity=0 time=1
note_on channel=15 note=35 velocity=98 time=9
note_on channel=15 note=45 velocity=98 time=0
note_on channel=15 note=50 velocity=64 time=0
note_on channel=15 note=54 velocity=86 time=0
note_on channel=15 note=45 velocity=0 time=330
note_on channel=15 note=50 velocity=0 time=19
note_on channel=15 note=54 velocity=0 time=7
note_on channel=15 note=35 velocity=0 time=20
note_on channel=15 note=42 velocity=98 time=8
note_on channel=15 note=49 velocity=98 time=0
note_on channel=15 note=54 velocity=92 time=0
note_on channel=15 note=57 velocity=78 time=0
note_on channel=15 note=57 velocity=0 time=73
note_on channel=15 note=49 velocity=0 time=3
note_on channel=15 note=54 velocity=0 time=2
note_on channel=15 note=42 velocity=0 time=13
note_on channel=15 note=40 velocity=86 time=5
note_on channel=15 note=47 velocity=104 time=0
note_on channel=15 note=52 velocity=70 time=0
note_on channel=15 note=56 velocity=80 time=0
note_on channel=15 note=47 velocity=0 time=116
note_on channel=15 note=52 velocity=0 time=2
note_on channel=15 note=56 velocity=0 time=2
note_on channel=15 note=47 velocity=115 time=24
note_on channel=15 note=52 velocity=72 time=0
note_on channel=15 note=56 velocity=92 time=0
note_on channel=15 note=56 velocity=0 time=44
note_on channel=15 note=47 velocity=0 time=3
note_on channel=15 note=52 velocity=0 time=12
note_on channel=15 note=49 velocity=104 time=13
note_on channel=15 note=52 velocity=78 time=0
note_on channel=15 note=57 velocity=76 time=0
note_on channel=15 note=49 velocity=0 time=38
note_on channel=15 note=57 velocity=0 time=14
note_on channel=15 note=52 velocity=0 time=9
note_on channel=15 note=35 velocity=98 time=11
note_on channel=15 note=45 velocity=104 time=0
note_on channel=15 note=50 velocity=48 time=0
note_on channel=15 note=54 velocity=72 time=0
note_on channel=15 note=40 velocity=0 time=10
note_on channel=15 note=45 velocity=0 time=320
note_on channel=15 note=50 velocity=0 time=17
note_on channel=15 note=54 velocity=0 time=6
note_on channel=15 note=35 velocity=0 time=18
note_on channel=15 note=37 velocity=104 time=13
note_on channel=15 note=49 velocity=104 time=0
note_on channel=15 note=52 velocity=86 time=0
note_on channel=15 note=57 velocity=76 time=0
note_on channel=15 note=37 velocity=0 time=164
note_on channel=15 note=40 velocity=104 time=28
note_on channel=15 note=49 velocity=0 time=16
note_on channel=15 note=52 velocity=0 time=0
note_on channel=15 note=57 velocity=0 time=3
note_on channel=15 note=47 velocity=109 time=29
note_on channel=15 note=52 velocity=92 time=0
note_on channel=15 note=56 velocity=98 time=0
note_on channel=15 note=47 velocity=0 time=43
note_on channel=15 note=56 velocity=0 time=5
note_on channel=15 note=52 velocity=0 time=4
note_on channel=15 note=49 velocity=115 time=20
note_on channel=15 note=52 velocity=92 time=0
note_on channel=15 note=57 velocity=78 time=0
note_on channel=15 note=52 velocity=0 time=41
note_on channel=15 note=49 velocity=0 time=10
note_on channel=15 note=57 velocity=0 time=7
note_on channel=15 note=40 velocity=0 time=7
note_on channel=15 note=35 velocity=115 time=7
note_on channel=15 note=50 velocity=80 time=0
note_on channel=15 note=54 velocity=98 time=0
note_on channel=15 note=59 velocity=115 time=0
note_on channel=15 note=54 velocity=0 time=153
note_on channel=15 note=50 velocity=0 time=2
note_on channel=15 note=59 velocity=0 time=6
note_on channel=15 note=35 velocity=0 time=17
note_on channel=15 note=37 velocity=115 time=14
note_on channel=15 note=52 velocity=86 time=0
note_on channel=15 note=57 velocity=78 time=0
note_on channel=15 note=61 velocity=121 time=0
note_on channel=15 note=61 velocity=0 time=153
note_on channel=15 note=52 velocity=0 time=0
note_on channel=15 note=57 velocity=0 time=3
note_on channel=15 note=38 velocity=98 time=36
note_on channel=15 note=54 velocity=92 time=0
note_on channel=15 note=57 velocity=92 time=0
note_on channel=15 note=62 velocity=78 time=0
note_on channel=15 note=37 velocity=0 time=13
note_on channel=15 note=62 velocity=0 time=258
note_on channel=15 note=54 velocity=0 time=0
note_on channel=15 note=38 velocity=0 time=1
note_on channel=15 note=57 velocity=0 time=2
control_change channel=15 control=0 value=0 time=552
program_change channel=15 program=24 time=0
note_on channel=15 note=42 velocity=98 time=326
note_on channel=15 note=54 velocity=86 time=0
note_on channel=15 note=56 velocity=104 time=0
note_on channel=15 note=57 velocity=92 time=0
note_on channel=15 note=61 velocity=115 time=0
note_on channel=15 note=56 velocity=0 time=313
note_on channel=15 note=54 velocity=0 time=18
note_on channel=15 note=61 velocity=0 time=2
note_on channel=15 note=57 velocity=0 time=8
note_on channel=15 note=42 velocity=0 time=14
note_on channel=15 note=42 velocity=115 time=29
note_on channel=15 note=50 velocity=80 time=0
note_on channel=15 note=54 velocity=98 time=0
note_on channel=15 note=57 velocity=78 time=0
note_on channel=15 note=50 velocity=0 time=181
note_on channel=15 note=54 velocity=0 time=2
note_on channel=15 note=57 velocity=0 time=7
note_on channel=15 note=62 velocity=80 time=50
note_on channel=15 note=66 velocity=104 time=0
note_on channel=15 note=69 velocity=76 time=0
note_on channel=15 note=69 velocity=0 time=81
note_on channel=15 note=66 velocity=0 time=0
note_on channel=15 note=62 velocity=0 time=8
note_on channel=15 note=42 velocity=0 time=30
note_on channel=15 note=42 velocity=115 time=25
note_on channel=15 note=52 velocity=86 time=0
note_on channel=15 note=56 velocity=104 time=0
note_on channel=15 note=59 velocity=115 time=0
note_on channel=15 note=59 velocity=0 time=345
note_on channel=15 note=52 velocity=0 time=3
note_on channel=15 note=56 velocity=0 time=5
note_on channel=15 note=42 velocity=0 time=0
note_on channel=15 note=42 velocity=109 time=31
note_on channel=15 note=49 velocity=115 time=0
note_on channel=15 note=54 velocity=98 time=0
note_on channel=15 note=57 velocity=92 time=0
note_on channel=15 note=42 velocity=0 time=222
note_on channel=15 note=42 velocity=80 time=18
note_on channel=15 note=42 velocity=0 time=13
note_on channel=15 note=42 velocity=86 time=11
note_on channel=15 note=49 velocity=0 time=5
note_on channel=15 note=57 velocity=0 time=1
note_on channel=15 note=54 velocity=0 time=1
note_on channel=15 note=49 velocity=109 time=17
note_on channel=15 note=54 velocity=92 time=0
note_on channel=15 note=57 velocity=76 time=0
note_on channel=15 note=49 velocity=0 time=12
note_on channel=15 note=57 velocity=0 time=3
note_on channel=15 note=54 velocity=0 time=1
note_on channel=15 note=47 velocity=104 time=8
note_on channel=15 note=52 velocity=78 time=0
note_on channel=15 note=56 velocity=98 time=0
note_on channel=15 note=42 velocity=0 time=3
note_on channel=15 note=47 velocity=0 time=57
note_on channel=15 note=52 velocity=0 time=3
note_on channel=15 note=56 velocity=0 time=0
note_on channel=15 note=42 velocity=109 time=9
note_on channel=15 note=54 velocity=92 time=0
note_on channel=15 note=57 velocity=104 time=0
note_on channel=15 note=61 velocity=121 time=0
note_on channel=15 note=61 velocity=0 time=322
note_on channel=15 note=54 velocity=0 time=11
note_on channel=15 note=57 velocity=0 time=1
note_on channel=15 note=42 velocity=0 time=16
note_on channel=15 note=42 velocity=115 time=34
note_on channel=15 note=50 velocity=86 time=0
note_on channel=15 note=54 velocity=92 time=0
note_on channel=15 note=57 velocity=74 time=0
note_on channel=15 note=50 velocity=0 time=187
note_on channel=15 note=54 velocity=0 time=1
note_on channel=15 note=57 velocity=0 time=4
note_on channel=15 note=62 velocity=74 time=48
note_on channel=15 note=66 velocity=92 time=0
note_on channel=15 note=69 velocity=72 time=0
note_on channel=15 note=66 velocity=0 time=76
note_on channel=15 note=69 velocity=0 time=2
note_on channel=15 note=62 velocity=0 time=8
note_on channel=15 note=42 velocity=0 time=29
note_on channel=15 note=42 velocity=115 time=29
note_on channel=15 note=52 velocity=86 time=0
note_on channel=15 note=56 velocity=104 time=0
note_on channel=15 note=59 velocity=115 time=0
note_on channel=15 note=52 velocity=0 time=337
note_on channel=15 note=59 velocity=0 time=10
note_on channel=15 note=56 velocity=0 time=0
note_on channel=15 note=42 velocity=0 time=8
note_on channel=15 note=42 velocity=104 time=29
note_on channel=15 note=54 velocity=78 time=0
note_on channel=15 note=56 velocity=86 time=0
note_on channel=15 note=57 velocity=98 time=0
note_on channel=15 note=61 velocity=109 time=0
control_change channel=15 control=0 value=0 time=109
program_change channel=15 program=20 time=0
note_on channel=15 note=54 velocity=0 time=84
note_on channel=15 note=56 velocity=0 time=7
note_on channel=15 note=61 velocity=0 time=7
note_on channel=15 note=42 velocity=0 time=11
note_on channel=15 note=57 velocity=0 time=2
note_on channel=15 note=40 velocity=109 time=20
note_on channel=15 note=52 velocity=80 time=0
note_on channel=15 note=56 velocity=92 time=0
note_on channel=15 note=59 velocity=104 time=0
note_on channel=15 note=52 velocity=0 time=45
note_on channel=15 note=59 velocity=0 time=6
note_on channel=15 note=40 velocity=0 time=2
note_on channel=15 note=56 velocity=0 time=1
note_on channel=15 note=42 velocity=115 time=18
note_on channel=15 note=54 velocity=78 time=0
note_on channel=15 note=57 velocity=92 time=0
note_on channel=15 note=61 velocity=115 time=0
note_on channel=15 note=61 velocity=0 time=47
note_on channel=15 note=42 velocity=0 time=0
note_on channel=15 note=57 velocity=0 time=4
note_on channel=15 note=54 velocity=0 time=0
note_on channel=15 note=35 velocity=115 time=21
note_on channel=15 note=45 velocity=92 time=0
note_on channel=15 note=50 velocity=64 time=0
note_on channel=15 note=54 velocity=92 time=0
note_on channel=15 note=54 velocity=0 time=341
note_on channel=15 note=45 velocity=0 time=3
note_on channel=15 note=50 velocity=0 time=18
note_on channel=15 note=35 velocity=0 time=19
note_on channel=15 note=37 velocity=104 time=3
note_on channel=15 note=49 velocity=98 time=0
note_on channel=15 note=52 velocity=74 time=0
note_on channel=15 note=57 velocity=76 time=0
note_on channel=15 note=52 velocity=0 time=163
note_on channel=15 note=49 velocity=0 time=1
note_on channel=15 note=57 velocity=0 time=6
note_on channel=15 note=37 velocity=0 time=22
note_on channel=15 note=40 velocity=98 time=0
note_on channel=15 note=47 velocity=98 time=0
note_on channel=15 note=52 velocity=92 time=0
note_on channel=15 note=56 velocity=98 time=0
note_on channel=15 note=47 velocity=0 time=145
note_on channel=15 note=56 velocity=0 time=15
note_on channel=15 note=52 velocity=0 time=22
note_on channel=15 note=40 velocity=0 time=1
note_on channel=15 note=35 velocity=98 time=9
note_on channel=15 note=45 velocity=98 time=0
note_on channel=15 note=50 velocity=64 time=0
note_on channel=15 note=54 velocity=86 time=0
note_on channel=15 note=45 velocity=0 time=330
note_on channel=15 note=50 velocity=0 time=19
note_on channel=15 note=54 velocity=0 time=7
note_on channel=15 note=35 velocity=0 time=20
note_on channel=15 note=42 velocity=98 time=8
note_on channel=15 note=49 velocity=98 time=0
note_on channel=15 note=54 velocity=92 time=0
note_on channel=15 note=57 velocity=78 time=0
note_on channel=15 note=57 velocity=0 time=73
note_on channel=15 note=49 velocity=0 time=3
note_on channel=15 note=54 velocity=0 time=2
note_on channel=15 note=42 velocity=0 time=13
note_on channel=15 note=40 velocity=86 time=5
note_on channel=15 note=47 velocity=104 time=0
note_on channel=15 note=52 velocity=70 time=0
note_on channel=15 note=56 velocity=80 time=0
note_on channel=15 note=47 velocity=0 time=116
note_on channel=15 note=52 velocity=0 time=2
note_on channel=15 note=56 velocity=0 time=2
note_on channel=15 note=47 velocity=115 time=24
note_on channel=15 note=52 velocity=72 time=0
note_on channel=15 note=56 velocity=92 time=0
note_on channel=15 note=56 velocity=0 time=44
note_on channel=15 note=47 velocity=0 time=3
note_on channel=15 note=52 velocity=0 time=12
note_on channel=15 note=49 velocity=104 time=13
note_on channel=15 note=52 velocity=78 time=0
note_on channel=15 note=57 velocity=76 time=0
note_on channel=15 note=49 velocity=0 time=38
note_on channel=15 note=57 velocity=0 time=14
note_on channel=15 note=52 velocity=0 time=9
note_on channel=15 note=35 velocity=98 time=11
note_on channel=15 note=45 velocity=104 time=0
note_on channel=15 note=50 velocity=48 time=0
note_on channel=15 note=54 velocity=72 time=0
note_on channel=15 note=40 velocity=0 time=10
note_on channel=15 note=45 velocity=0 time=320
note_on channel=15 note=50 velocity=0 time=17
note_on channel=15 note=54 velocity=0 time=6
note_on channel=15 note=35 velocity=0 time=18
note_on channel=15 note=37 velocity=104 time=13
note_on channel=15 note=49 velocity=104 time=0
note_on channel=15 note=52 velocity=86 time=0
note_on channel=15 note=57 velocity=76 time=0
note_on channel=15 note=37 velocity=0 time=164
note_on channel=15 note=40 velocity=104 time=28
note_on channel=15 note=49 velocity=0 time=16
note_on channel=15 note=52 velocity=0 time=0
note_on channel=15 note=57 velocity=0 time=3
note_on channel=15 note=47 velocity=109 time=29
note_on channel=15 note=52 velocity=92 time=0
note_on channel=15 note=56 velocity=98 time=0
note_on channel=15 note=47 velocity=0 time=43
note_on channel=15 note=56 velocity=0 time=5
note_on channel=15 note=52 velocity=0 time=4
note_on channel=15 note=49 velocity=115 time=20
note_on channel=15 note=52 velocity=92 time=0
note_on channel=15 note=57 velocity=78 time=0
note_on channel=15 note=52 velocity=0 time=41
note_on channel=15 note=49 velocity=0 time=10
note_on channel=15 note=57 velocity=0 time=7
note_on channel=15 note=40 velocity=0 time=7
note_on channel=15 note=35 velocity=115 time=7
note_on channel=15 note=50 velocity=80 time=0
note_on channel=15 note=54 velocity=98 time=0
note_on channel=15 note=59 velocity=115 time=0
note_on channel=15 note=54 velocity=0 time=153
note_on channel=15 note=50 velocity=0 time=2
note_on channel=15 note=59 velocity=0 time=6
note_on channel=15 note=35 velocity=0 time=17
note_on channel=15 note=37 velocity=115 time=14
note_on channel=15 note=52 velocity=86 time=0
note_on channel=15 note=57 velocity=78 time=0
note_on channel=15 note=61 velocity=121 time=0
note_on channel=15 note=61 velocity=0 time=153
note_on channel=15 note=52 velocity=0 time=0
note_on channel=15 note=57 velocity=0 time=3
note_on channel=15 note=38 velocity=98 time=36
note_on channel=15 note=54 velocity=92 time=0
note_on channel=15 note=57 velocity=92 time=0
note_on channel=15 note=62 velocity=78 time=0
note_on channel=15 note=37 velocity=0 time=13
note_on channel=15 note=62 velocity=0 time=258
note_on channel=15 note=54 velocity=0 time=0
note_on channel=15 note=38 velocity=0 time=1
note_on channel=15 note=57 velocity=0 time=2
control_change channel=15 control=0 value=0 time=528
program_change channel=15 program=24 time=0
note_on channel=15 note=42 velocity=92 time=1118
note_on channel=15 note=49 velocity=98 time=0
note_on channel=15 note=54 velocity=80 time=0
note_on channel=15 note=56 velocity=92 time=0
note_on channel=15 note=57 velocity=74 time=0
note_on channel=15 note=56 velocity=0 time=331
note_on channel=15 note=54 velocity=0 time=1
note_on channel=15 note=57 velocity=0 time=6
note_on channel=15 note=49 velocity=0 time=1
note_on channel=15 note=42 velocity=0 time=16
note_on channel=15 note=42 velocity=104 time=29
note_on channel=15 note=45 velocity=92 time=0
note_on channel=15 note=50 velocity=60 time=0
note_on channel=15 note=54 velocity=80 time=0
note_on channel=15 note=50 velocity=0 time=347
note_on channel=15 note=45 velocity=0 time=0
note_on channel=15 note=54 velocity=0 time=3
note_on channel=15 note=42 velocity=0 time=1
note_on channel=15 note=42 velocity=109 time=33
note_on channel=15 note=47 velocity=92 time=0
note_on channel=15 note=52 velocity=92 time=0
note_on channel=15 note=56 velocity=92 time=0
note_on channel=15 note=52 velocity=0 time=354
note_on channel=15 note=47 velocity=0 time=3
note_on channel=15 note=56 velocity=0 time=9
note_on channel=15 note=42 velocity=0 time=1
note_on channel=15 note=42 velocity=98 time=17
note_on channel=15 note=49 velocity=104 time=0
note_on channel=15 note=54 velocity=98 time=0
note_on channel=15 note=57 velocity=86 time=0
note_on channel=15 note=57 velocity=0 time=216
note_on channel=15 note=54 velocity=0 time=0
note_on channel=15 note=49 velocity=0 time=0
note_on channel=15 note=49 velocity=115 time=24
note_on channel=15 note=54 velocity=80 time=0
note_on channel=15 note=57 velocity=74 time=0
note_on channel=15 note=54 velocity=0 time=10
note_on channel=15 note=57 velocity=0 time=1
note_on channel=15 note=49 velocity=0 time=1
note_on channel=15 note=49 velocity=109 time=12
note_on channel=15 note=54 velocity=86 time=0
note_on channel=15 note=57 velocity=86 time=0
note_on channel=15 note=57 velocity=0 time=33
note_on channel=15 note=49 velocity=0 time=0
note_on channel=15 note=54 velocity=0 time=2
note_on channel=15 note=47 velocity=109 time=13
note_on channel=15 note=52 velocity=66 time=0
note_on channel=15 note=56 velocity=86 time=0
note_on channel=15 note=42 velocity=0 time=46
note_on channel=15 note=47 velocity=0 time=21
note_on channel=15 note=52 velocity=0 time=0
note_on channel=15 note=56 velocity=0 time=3
note_on channel=15 note=42 velocity=109 time=2
note_on channel=15 note=49 velocity=109 time=0
note_on channel=15 note=54 velocity=92 time=0
note_on channel=15 note=57 velocity=80 time=0
note_on channel=15 note=54 velocity=0 time=328
note_on channel=15 note=49 velocity=0 time=14
note_on channel=15 note=57 velocity=0 time=11
note_on channel=15 note=42 velocity=0 time=9
note_on channel=15 note=42 velocity=98 time=22
note_on channel=15 note=45 velocity=98 time=0
note_on channel=15 note=50 velocity=64 time=0
note_on channel=15 note=54 velocity=86 time=0
note_on channel=15 note=45 velocity=0 time=344
note_on channel=15 note=50 velocity=0 time=2
note_on channel=15 note=54 velocity=0 time=4
note_on channel=15 note=42 velocity=0 time=6
note_on channel=15 note=42 velocity=109 time=28
note_on channel=15 note=47 velocity=115 time=0
note_on channel=15 note=52 velocity=92 time=0
note_on channel=15 note=56 velocity=98 time=0
note_on channel=15 note=52 velocity=0 time=345
note_on channel=15 note=47 velocity=0 time=1
note_on channel=15 note=42 velocity=0 time=4
note_on channel=15 note=56 velocity=0 time=1
note_on channel=15 note=42 velocity=109 time=33
note_on channel=15 note=49 velocity=115 time=0
note_on channel=15 note=54 velocity=92 time=0
note_on channel=15 note=57 velocity=98 time=0
control_change channel=15 control=0 value=0 time=133
program_change channel=15 program=20 time=0
note_on channel=15 note=42 velocity=0 time=74
note_on channel=15 note=57 velocity=0 time=8
note_on channel=15 note=49 velocity=0 time=1
note_on channel=15 note=54 velocity=0 time=1
note_on channel=15 note=40 velocity=104 time=23
note_on channel=15 note=47 velocity=115 time=0
note_on channel=15 note=52 velocity=80 time=0
note_on channel=15 note=56 velocity=98 time=0
note_on channel=15 note=52 velocity=0 time=46
note_on channel=15 note=47 velocity=0 time=0
note_on channel=15 note=40 velocity=0 time=2
note_on channel=15 note=56 velocity=0 time=6
note_on channel=15 note=42 velocity=109 time=18
note_on channel=15 note=49 velocity=104 time=0
note_on channel=15 note=54 velocity=80 time=0
note_on channel=15 note=57 velocity=98 time=0
note_on channel=15 note=42 velocity=0 time=40
note_on channel=15 note=54 velocity=0 time=6
note_on channel=15 note=57 velocity=0 time=2
note_on channel=15 note=49 velocity=0 time=1
note_on channel=15 note=35 velocity=115 time=23
note_on channel=15 note=45 velocity=92 time=0
note_on channel=15 note=50 velocity=64 time=0
note_on channel=15 note=54 velocity=92 time=0
note_on channel=15 note=54 velocity=0 time=341
note_on channel=15 note=45 velocity=0 time=3
note_on channel=15 note=50 velocity=0 time=18
note_on channel=15 note=35 velocity=0 time=19
note_on channel=15 note=37 velocity=104 time=3
note_on channel=15 note=49 velocity=98 time=0
note_on channel=15 note=52 velocity=74 time=0
note_on channel=15 note=57 velocity=76 time=0
note_on channel=15 note=52 velocity=0 time=163
note_on channel=15 note=49 velocity=0 time=1
note_on channel=15 note=57 velocity=0 time=6
note_on channel=15 note=37 velocity=0 time=22
note_on channel=15 note=40 velocity=98 time=0
note_on channel=15 note=47 velocity=98 time=0
note_on channel=15 note=52 velocity=92 time=0
note_on channel=15 note=56 velocity=98 time=0
note_on channel=15 note=47 velocity=0 time=145
note_on channel=15 note=56 velocity=0 time=15
note_on channel=15 note=52 velocity=0 time=22
note_on channel=15 note=40 velocity=0 time=1
note_on channel=15 note=35 velocity=98 time=9
note_on channel=15 note=45 velocity=98 time=0
note_on channel=15 note=50 velocity=64 time=0
note_on channel=15 note=54 velocity=86 time=0
note_on channel=15 note=45 velocity=0 time=330
note_on channel=15 note=50 velocity=0 time=19
note_on channel=15 note=54 velocity=0 time=7
note_on channel=15 note=35 velocity=0 time=20
note_on channel=15 note=42 velocity=98 time=8
note_on channel=15 note=49 velocity=98 time=0
note_on channel=15 note=54 velocity=92 time=0
note_on channel=15 note=57 velocity=78 time=0
note_on channel=15 note=57 velocity=0 time=73
note_on channel=15 note=49 velocity=0 time=3
note_on channel=15 note=54 velocity=0 time=2
note_on channel=15 note=42 velocity=0 time=13
note_on channel=15 note=40 velocity=86 time=5
note_on channel=15 note=47 velocity=104 time=0
note_on channel=15 note=52 velocity=70 time=0
note_on channel=15 note=56 velocity=80 time=0
note_on channel=15 note=47 velocity=0 time=116
note_on channel=15 note=52 velocity=0 time=2
note_on channel=15 note=56 velocity=0 time=2
note_on channel=15 note=47 velocity=115 time=24
note_on channel=15 note=52 velocity=72 time=0
note_on channel=15 note=56 velocity=92 time=0
note_on channel=15 note=56 velocity=0 time=44
note_on channel=15 note=47 velocity=0 time=3
note_on channel=15 note=52 velocity=0 time=12
note_on channel=15 note=49 velocity=104 time=13
note_on channel=15 note=52 velocity=78 time=0
note_on channel=15 note=57 velocity=76 time=0
note_on channel=15 note=49 velocity=0 time=38
note_on channel=15 note=57 velocity=0 time=14
note_on channel=15 note=52 velocity=0 time=9
note_on channel=15 note=35 velocity=98 time=11
note_on channel=15 note=45 velocity=104 time=0
note_on channel=15 note=50 velocity=48 time=0
note_on channel=15 note=54 velocity=72 time=0
note_on channel=15 note=40 velocity=0 time=10
note_on channel=15 note=45 velocity=0 time=320
note_on channel=15 note=50 velocity=0 time=17
note_on channel=15 note=54 velocity=0 time=6
note_on channel=15 note=35 velocity=0 time=18
note_on channel=15 note=37 velocity=104 time=13
note_on channel=15 note=49 velocity=104 time=0
note_on channel=15 note=52 velocity=86 time=0
note_on channel=15 note=57 velocity=76 time=0
note_on channel=15 note=37 velocity=0 time=164
note_on channel=15 note=40 velocity=104 time=28
note_on channel=15 note=49 velocity=0 time=16
note_on channel=15 note=52 velocity=0 time=0
note_on channel=15 note=57 velocity=0 time=3
note_on channel=15 note=47 velocity=109 time=29
note_on channel=15 note=52 velocity=92 time=0
note_on channel=15 note=56 velocity=98 time=0
note_on channel=15 note=47 velocity=0 time=43
note_on channel=15 note=56 velocity=0 time=5
note_on channel=15 note=52 velocity=0 time=4
note_on channel=15 note=49 velocity=115 time=20
note_on channel=15 note=52 velocity=92 time=0
note_on channel=15 note=57 velocity=78 time=0
note_on channel=15 note=52 velocity=0 time=41
note_on channel=15 note=49 velocity=0 time=10
note_on channel=15 note=57 velocity=0 time=7
note_on channel=15 note=40 velocity=0 time=7
note_on channel=15 note=35 velocity=115 time=7
note_on channel=15 note=50 velocity=80 time=0
note_on channel=15 note=54 velocity=98 time=0
note_on channel=15 note=59 velocity=115 time=0
note_on channel=15 note=54 velocity=0 time=153
note_on channel=15 note=50 velocity=0 time=2
note_on channel=15 note=59 velocity=0 time=6
note_on channel=15 note=35 velocity=0 time=17
note_on channel=15 note=37 velocity=115 time=14
note_on channel=15 note=52 velocity=86 time=0
note_on channel=15 note=57 velocity=78 time=0
note_on channel=15 note=61 velocity=121 time=0
note_on channel=15 note=61 velocity=0 time=153
note_on channel=15 note=52 velocity=0 time=0
note_on channel=15 note=57 velocity=0 time=3
note_on channel=15 note=38 velocity=98 time=36
note_on channel=15 note=54 velocity=92 time=0
note_on channel=15 note=57 velocity=92 time=0
note_on channel=15 note=62 velocity=78 time=0
note_on channel=15 note=37 velocity=0 time=13
note_on channel=15 note=62 velocity=0 time=258
note_on channel=15 note=54 velocity=0 time=0
note_on channel=15 note=38 velocity=0 time=1
note_on channel=15 note=57 velocity=0 time=2
note_on channel=15 note=42 velocity=104 time=1262
note_on channel=15 note=54 velocity=86 time=0
note_on channel=15 note=57 velocity=98 time=0
note_on channel=15 note=61 velocity=115 time=0
note_on channel=15 note=61 velocity=0 time=56
note_on channel=15 note=54 velocity=0 time=1
note_on channel=15 note=42 velocity=0 time=2
note_on channel=15 note=57 velocity=0 time=1
note_on channel=15 note=42 velocity=98 time=132
note_on channel=15 note=54 velocity=80 time=0
note_on channel=15 note=57 velocity=98 time=0
note_on channel=15 note=61 velocity=115 time=0
note_on channel=15 note=42 velocity=0 time=29
note_on channel=15 note=54 velocity=0 time=14
note_on channel=15 note=61 velocity=0 time=2
note_on channel=15 note=42 velocity=68 time=3
note_on channel=15 note=57 velocity=0 time=10
note_on channel=15 note=42 velocity=0 time=7
note_on channel=15 note=42 velocity=86 time=7
note_on channel=15 note=52 velocity=74 time=0
note_on channel=15 note=56 velocity=86 time=0
note_on channel=15 note=59 velocity=104 time=0
note_on channel=15 note=56 velocity=0 time=41
note_on channel=15 note=52 velocity=0 time=0
note_on channel=15 note=59 velocity=0 time=1
note_on channel=15 note=42 velocity=0 time=2
note_on channel=15 note=42 velocity=104 time=28
note_on channel=15 note=54 velocity=86 time=0
note_on channel=15 note=57 velocity=92 time=0
note_on channel=15 note=61 velocity=115 time=0
note_on channel=15 note=61 velocity=0 time=96
note_on channel=15 note=42 velocity=0 time=0
note_on channel=15 note=54 velocity=0 time=0
note_on channel=15 note=57 velocity=0 time=0
note_on channel=15 note=42 velocity=68 time=120
note_on channel=15 note=42 velocity=0 time=13
note_on channel=15 note=42 velocity=98 time=11
note_on channel=15 note=54 velocity=80 time=0
note_on channel=15 note=57 velocity=98 time=0
note_on channel=15 note=61 velocity=115 time=0
note_on channel=15 note=54 velocity=0 time=40
note_on channel=15 note=61 velocity=0 time=2
note_on channel=15 note=42 velocity=0 time=8
note_on channel=15 note=57 velocity=0 time=4
note_on channel=15 note=42 velocity=92 time=18
note_on channel=15 note=52 velocity=72 time=0
note_on channel=15 note=56 velocity=74 time=0
note_on channel=15 note=59 velocity=98 time=0
note_on channel=15 note=59 velocity=0 time=42
note_on channel=15 note=56 velocity=0 time=1
note_on channel=15 note=52 velocity=0 time=0
note_on channel=15 note=42 velocity=0 time=1
note_on channel=15 note=42 velocity=104 time=28
note_on channel=15 note=54 velocity=78 time=0
note_on channel=15 note=57 velocity=86 time=0
note_on channel=15 note=61 velocity=109 time=0
note_on channel=15 note=61 velocity=0 time=96
note_on channel=15 note=42 velocity=0 time=0
note_on channel=15 note=54 velocity=0 time=0
note_on channel=15 note=57 velocity=0 time=0
note_on channel=15 note=42 velocity=98 time=144
note_on channel=15 note=49 velocity=98 time=0
note_on channel=15 note=54 velocity=86 time=0
note_on channel=15 note=57 velocity=80 time=0
note_on channel=15 note=54 velocity=0 time=47
note_on channel=15 note=57 velocity=0 time=5
note_on channel=15 note=49 velocity=0 time=0
note_on channel=15 note=42 velocity=0 time=15
note_on channel=15 note=37 velocity=92 time=5
note_on channel=15 note=47 velocity=104 time=0
note_on channel=15 note=52 velocity=92 time=0
note_on channel=15 note=56 velocity=98 time=0
note_on channel=15 note=56 velocity=0 time=41
note_on channel=15 note=47 velocity=0 time=4
note_on channel=15 note=52 velocity=0 time=13
note_on channel=15 note=37 velocity=0 time=7
note_on channel=15 note=38 velocity=98 time=7
note_on channel=15 note=45 velocity=98 time=0
note_on channel=15 note=50 velocity=64 time=0
note_on channel=15 note=54 velocity=92 time=0
note_on channel=15 note=38 velocity=0 time=283
note_on channel=15 note=38 velocity=56 time=5
note_on channel=15 note=45 velocity=0 time=16
note_on channel=15 note=50 velocity=0 time=3
note_on channel=15 note=54 velocity=0 time=3
note_on channel=15 note=45 velocity=60 time=50
note_on channel=15 note=50 velocity=50 time=0
note_on channel=15 note=54 velocity=72 time=0
note_on channel=15 note=38 velocity=0 time=19
note_on channel=15 note=38 velocity=92 time=5
note_on channel=15 note=45 velocity=0 time=22
note_on channel=15 note=50 velocity=0 time=3
note_on channel=15 note=54 velocity=0 time=3
note_on channel=15 note=38 velocity=0 time=19
note_on channel=15 note=42 velocity=104 time=1
note_on channel=15 note=54 velocity=92 time=0
note_on channel=15 note=57 velocity=92 time=0
note_on channel=15 note=61 velocity=115 time=0
note_on channel=15 note=61 velocity=0 time=44
note_on channel=15 note=54 velocity=0 time=3
note_on channel=15 note=42 velocity=0 time=3
note_on channel=15 note=57 velocity=0 time=1
note_on channel=15 note=42 velocity=98 time=141
note_on channel=15 note=54 velocity=78 time=0
note_on channel=15 note=57 velocity=92 time=0
note_on channel=15 note=61 velocity=115 time=0
note_on channel=15 note=42 velocity=0 time=28
note_on channel=15 note=54 velocity=0 time=19
note_on channel=15 note=42 velocity=70 time=1
note_on channel=15 note=61 velocity=0 time=5
note_on channel=15 note=57 velocity=0 time=8
note_on channel=15 note=42 velocity=0 time=4
note_on channel=15 note=42 velocity=92 time=7
note_on channel=15 note=52 velocity=80 time=0
note_on channel=15 note=56 velocity=92 time=0
note_on channel=15 note=59 velocity=115 time=0
note_on channel=15 note=56 velocity=0 time=37
note_on channel=15 note=52 velocity=0 time=0
note_on channel=15 note=42 velocity=0 time=2
note_on channel=15 note=59 velocity=0 time=3
note_on channel=15 note=42 velocity=104 time=30
note_on channel=15 note=54 velocity=78 time=0
note_on channel=15 note=57 velocity=86 time=0
note_on channel=15 note=61 velocity=109 time=0
note_on channel=15 note=61 velocity=0 time=96
note_on channel=15 note=42 velocity=0 time=0
note_on channel=15 note=54 velocity=0 time=0
note_on channel=15 note=57 velocity=0 time=0
note_on channel=15 note=42 velocity=74 time=96
note_on channel=15 note=42 velocity=0 time=12
note_on channel=15 note=42 velocity=74 time=12
note_on channel=15 note=42 velocity=0 time=13
note_on channel=15 note=42 velocity=92 time=11
note_on channel=15 note=54 velocity=86 time=0
note_on channel=15 note=57 velocity=98 time=0
note_on channel=15 note=61 velocity=115 time=0
note_on channel=15 note=42 velocity=0 time=31
note_on channel=15 note=42 velocity=104 time=17
note_on channel=15 note=54 velocity=0 time=3
note_on channel=15 note=61 velocity=0 time=0
note_on channel=15 note=57 velocity=0 time=11
note_on channel=15 note=52 velocity=80 time=10
note_on channel=15 note=56 velocity=92 time=0
note_on channel=15 note=59 velocity=109 time=0
note_on channel=15 note=42 velocity=0 time=39
note_on channel=15 note=52 velocity=0 time=3
note_on channel=15 note=56 velocity=0 time=2
note_on channel=15 note=59 velocity=0 time=3
note_on channel=15 note=42 velocity=80 time=1
note_on channel=15 note=42 velocity=0 time=17
note_on channel=15 note=42 velocity=98 time=7
note_on channel=15 note=54 velocity=80 time=0
note_on channel=15 note=57 velocity=92 time=0
note_on channel=15 note=61 velocity=115 time=0
note_on channel=15 note=61 velocity=0 time=96
note_on channel=15 note=42 velocity=0 time=0
note_on channel=15 note=54 velocity=0 time=0
note_on channel=15 note=57 velocity=0 time=0
note_on channel=15 note=42 velocity=104 time=96
note_on channel=15 note=42 velocity=0 time=37
note_on channel=15 note=42 velocity=92 time=11
note_on channel=15 note=49 velocity=109 time=0
note_on channel=15 note=54 velocity=92 time=0
note_on channel=15 note=57 velocity=92 time=0
note_on channel=15 note=54 velocity=0 time=47
note_on channel=15 note=57 velocity=0 time=3
note_on channel=15 note=49 velocity=0 time=5
note_on channel=15 note=42 velocity=0 time=8
note_on channel=15 note=37 velocity=98 time=9
note_on channel=15 note=47 velocity=109 time=0
note_on channel=15 note=52 velocity=80 time=0
note_on channel=15 note=56 velocity=92 time=0
note_on channel=15 note=47 velocity=0 time=39
note_on channel=15 note=56 velocity=0 time=3
note_on channel=15 note=52 velocity=0 time=9
note_on channel=15 note=37 velocity=0 time=6
note_on channel=15 note=38 velocity=104 time=15
note_on channel=15 note=45 velocity=98 time=0
note_on channel=15 note=50 velocity=74 time=0
note_on channel=15 note=54 velocity=109 time=0
note_on channel=15 note=38 velocity=0 time=164
note_on channel=15 note=38 velocity=76 time=28
note_on channel=15 note=38 velocity=0 time=9
note_on channel=15 note=38 velocity=109 time=15
note_on channel=15 note=38 velocity=0 time=29
note_on channel=15 note=38 velocity=80 time=19
note_on channel=15 note=38 velocity=0 time=13
note_on channel=15 note=38 velocity=98 time=11
note_on channel=15 note=54 velocity=0 time=24
note_on channel=15 note=45 velocity=0 time=2
note_on channel=15 note=50 velocity=0 time=6
note_on channel=15 note=45 velocity=104 time=16
note_on channel=15 note=50 velocity=78 time=0
note_on channel=15 note=54 velocity=92 time=0
note_on channel=15 note=38 velocity=0 time=37
note_on channel=15 note=54 velocity=0 time=37
note_on channel=15 note=50 velocity=0 time=0
note_on channel=15 note=45 velocity=0 time=4
note_on channel=15 note=42 velocity=104 time=18
note_on channel=15 note=54 velocity=86 time=0
note_on channel=15 note=57 velocity=98 time=0
note_on channel=15 note=61 velocity=115 time=0
note_on channel=15 note=61 velocity=0 time=56
note_on channel=15 note=54 velocity=0 time=1
note_on channel=15 note=42 velocity=0 time=2
note_on channel=15 note=57 velocity=0 time=1
note_on channel=15 note=42 velocity=98 time=132
note_on channel=15 note=54 velocity=80 time=0
note_on channel=15 note=57 velocity=98 time=0
note_on channel=15 note=61 velocity=115 time=0
note_on channel=15 note=42 velocity=0 time=29
note_on channel=15 note=54 velocity=0 time=14
note_on channel=15 note=61 velocity=0 time=2
note_on channel=15 note=42 velocity=68 time=3
note_on channel=15 note=57 velocity=0 time=10
note_on channel=15 note=42 velocity=0 time=7
note_on channel=15 note=42 velocity=86 time=7
note_on channel=15 note=52 velocity=74 time=0
note_on channel=15 note=56 velocity=86 time=0
note_on channel=15 note=59 velocity=104 time=0
note_on channel=15 note=56 velocity=0 time=41
note_on channel=15 note=52 velocity=0 time=0
note_on channel=15 note=59 velocity=0 time=1
note_on channel=15 note=42 velocity=0 time=2
note_on channel=15 note=42 velocity=104 time=28
note_on channel=15 note=54 velocity=86 time=0
note_on channel=15 note=57 velocity=92 time=0
note_on channel=15 note=61 velocity=115 time=0
note_on channel=15 note=42 velocity=0 time=184
note_on channel=15 note=61 velocity=0 time=28
note_on channel=15 note=54 velocity=0 time=1
note_on channel=15 note=42 velocity=68 time=3
note_on channel=15 note=57 velocity=0 time=2
note_on channel=15 note=42 velocity=0 time=11
note_on channel=15 note=42 velocity=98 time=11
note_on channel=15 note=54 velocity=80 time=0
note_on channel=15 note=57 velocity=98 time=0
note_on channel=15 note=61 velocity=115 time=0
note_on channel=15 note=54 velocity=0 time=40
note_on channel=15 note=61 velocity=0 time=2
note_on channel=15 note=42 velocity=0 time=8
note_on channel=15 note=57 velocity=0 time=4
note_on channel=15 note=42 velocity=92 time=18
note_on channel=15 note=52 velocity=72 time=0
note_on channel=15 note=56 velocity=74 time=0
note_on channel=15 note=59 velocity=98 time=0
note_on channel=15 note=59 velocity=0 time=42
note_on channel=15 note=56 velocity=0 time=1
note_on channel=15 note=52 velocity=0 time=0
note_on channel=15 note=42 velocity=0 time=1
note_on channel=15 note=42 velocity=104 time=28
note_on channel=15 note=54 velocity=78 time=0
note_on channel=15 note=57 velocity=86 time=0
note_on channel=15 note=61 velocity=109 time=0
note_on channel=15 note=61 velocity=0 time=189
note_on channel=15 note=57 velocity=0 time=0
note_on channel=15 note=54 velocity=0 time=5
note_on channel=15 note=42 velocity=0 time=25
note_on channel=15 note=42 velocity=98 time=21
note_on channel=15 note=49 velocity=98 time=0
note_on channel=15 note=54 velocity=86 time=0
note_on channel=15 note=57 velocity=80 time=0
note_on channel=15 note=54 velocity=0 time=47
note_on channel=15 note=57 velocity=0 time=5
note_on channel=15 note=49 velocity=0 time=0
note_on channel=15 note=42 velocity=0 time=15
note_on channel=15 note=37 velocity=92 time=5
note_on channel=15 note=47 velocity=104 time=0
note_on channel=15 note=52 velocity=92 time=0
note_on channel=15 note=56 velocity=98 time=0
note_on channel=15 note=56 velocity=0 time=41
note_on channel=15 note=47 velocity=0 time=4
note_on channel=15 note=52 velocity=0 time=13
note_on channel=15 note=37 velocity=0 time=7
note_on channel=15 note=38 velocity=98 time=7
note_on channel=15 note=45 velocity=98 time=0
note_on channel=15 note=50 velocity=64 time=0
note_on channel=15 note=54 velocity=92 time=0
note_on channel=15 note=38 velocity=0 time=283
note_on channel=15 note=38 velocity=56 time=5
note_on channel=15 note=45 velocity=0 time=16
note_on channel=15 note=50 velocity=0 time=3
note_on channel=15 note=54 velocity=0 time=3
note_on channel=15 note=45 velocity=60 time=50
note_on channel=15 note=50 velocity=50 time=0
note_on channel=15 note=54 velocity=72 time=0
note_on channel=15 note=38 velocity=0 time=19
note_on channel=15 note=38 velocity=92 time=5
note_on channel=15 note=45 velocity=0 time=22
note_on channel=15 note=50 velocity=0 time=3
note_on channel=15 note=54 velocity=0 time=3
note_on channel=15 note=38 velocity=0 time=19
note_on channel=15 note=42 velocity=104 time=1
note_on channel=15 note=54 velocity=92 time=0
note_on channel=15 note=57 velocity=92 time=0
note_on channel=15 note=61 velocity=115 time=0
note_on channel=15 note=61 velocity=0 time=44
note_on channel=15 note=54 velocity=0 time=3
note_on channel=15 note=42 velocity=0 time=3
note_on channel=15 note=57 velocity=0 time=1
note_on channel=15 note=42 velocity=98 time=141
note_on channel=15 note=54 velocity=78 time=0
note_on channel=15 note=57 velocity=92 time=0
note_on channel=15 note=61 velocity=115 time=0
note_on channel=15 note=42 velocity=0 time=28
note_on channel=15 note=54 velocity=0 time=19
note_on channel=15 note=42 velocity=70 time=1
note_on channel=15 note=61 velocity=0 time=5
note_on channel=15 note=57 velocity=0 time=8
note_on channel=15 note=42 velocity=0 time=4
note_on channel=15 note=42 velocity=92 time=7
note_on channel=15 note=52 velocity=80 time=0
note_on channel=15 note=56 velocity=92 time=0
note_on channel=15 note=59 velocity=115 time=0
note_on channel=15 note=56 velocity=0 time=37
note_on channel=15 note=52 velocity=0 time=0
note_on channel=15 note=42 velocity=0 time=2
note_on channel=15 note=59 velocity=0 time=3
note_on channel=15 note=42 velocity=104 time=30
note_on channel=15 note=54 velocity=78 time=0
note_on channel=15 note=57 velocity=86 time=0
note_on channel=15 note=61 velocity=109 time=0
note_on channel=15 note=42 velocity=0 time=171
note_on channel=15 note=42 velocity=74 time=21
note_on channel=15 note=42 velocity=0 time=12
note_on channel=15 note=54 velocity=0 time=8
note_on channel=15 note=61 velocity=0 time=3
note_on channel=15 note=42 velocity=74 time=1
note_on channel=15 note=57 velocity=0 time=2
note_on channel=15 note=42 velocity=0 time=11
note_on channel=15 note=42 velocity=92 time=11
note_on channel=15 note=54 velocity=86 time=0
note_on channel=15 note=57 velocity=98 time=0
note_on channel=15 note=61 velocity=115 time=0
note_on channel=15 note=42 velocity=0 time=31
note_on channel=15 note=42 velocity=104 time=17
note_on channel=15 note=54 velocity=0 time=3
note_on channel=15 note=61 velocity=0 time=0
note_on channel=15 note=57 velocity=0 time=11
note_on channel=15 note=52 velocity=80 time=10
note_on channel=15 note=56 velocity=92 time=0
note_on channel=15 note=59 velocity=109 time=0
note_on channel=15 note=42 velocity=0 time=39
note_on channel=15 note=52 velocity=0 time=3
note_on channel=15 note=56 velocity=0 time=2
note_on channel=15 note=59 velocity=0 time=3
note_on channel=15 note=42 velocity=80 time=1
note_on channel=15 note=42 velocity=0 time=17
note_on channel=15 note=42 velocity=98 time=7
note_on channel=15 note=54 velocity=80 time=0
note_on channel=15 note=57 velocity=92 time=0
note_on channel=15 note=61 velocity=115 time=0
control_change channel=15 control=7 value=106 time=72
control_change channel=15 control=7 value=104 time=24
control_change channel=15 control=7 value=104 time=24
control_change channel=15 control=7 value=102 time=24
note_on channel=15 note=42 velocity=0 time=21
control_change channel=15 control=7 value=102 time=3
control_change channel=15 control=7 value=102 time=24
note_on channel=15 note=42 velocity=104 time=0
note_on channel=15 note=61 velocity=0 time=1
note_on channel=15 note=57 velocity=0 time=0
note_on channel=15 note=54 velocity=0 time=2
control_change channel=15 control=7 value=101 time=21
note_on channel=15 note=42 velocity=0 time=13
control_change channel=15 control=7 value=101 time=11
note_on channel=15 note=42 velocity=92 time=0
note_on channel=15 note=49 velocity=109 time=0
note_on channel=15 note=54 velocity=92 time=0
note_on channel=15 note=57 velocity=92 time=0
control_change channel=15 control=7 value=99 time=24
note_on channel=15 note=54 velocity=0 time=23
control_change channel=15 control=7 value=99 time=1
note_on channel=15 note=57 velocity=0 time=2
note_on channel=15 note=49 velocity=0 time=5
note_on channel=15 note=42 velocity=0 time=8
control_change channel=15 control=7 value=97 time=9
note_on channel=15 note=37 velocity=98 time=0
note_on channel=15 note=47 velocity=109 time=0
note_on channel=15 note=52 velocity=80 time=0
note_on channel=15 note=56 velocity=92 time=0
control_change channel=15 control=7 value=95 time=24
note_on channel=15 note=47 velocity=0 time=15
note_on channel=15 note=56 velocity=0 time=3
control_change channel=15 control=7 value=95 time=6
note_on channel=15 note=52 velocity=0 time=3
note_on channel=15 note=37 velocity=0 time=6
control_change channel=15 control=7 value=95 time=15
note_on channel=15 note=38 velocity=104 time=0
note_on channel=15 note=45 velocity=98 time=0
note_on channel=15 note=50 velocity=74 time=0
note_on channel=15 note=54 velocity=109 time=0
control_change channel=15 control=7 value=94 time=24
control_change channel=15 control=7 value=94 time=24
control_change channel=15 control=7 value=92 time=24
control_change channel=15 control=7 value=92 time=24
control_change channel=15 control=7 value=92 time=24
control_change channel=15 control=7 value=90 time=24
note_on channel=15 note=38 velocity=0 time=20
control_change channel=15 control=7 value=90 time=4
control_change channel=15 control=7 value=89 time=24
note_on channel=15 note=38 velocity=76 time=0
note_on channel=15 note=38 velocity=0 time=9
control_change channel=15 control=7 value=89 time=15
note_on channel=15 note=38 velocity=109 time=0
control_change channel=15 control=7 value=89 time=24
note_on channel=15 note=38 velocity=0 time=5
control_change channel=15 control=7 value=87 time=19
note_on channel=15 note=38 velocity=80 time=0
note_on channel=15 note=38 velocity=0 time=13
control_change channel=15 control=7 value=87 time=11
note_on channel=15 note=38 velocity=98 time=0
note_on channel=15 note=54 velocity=0 time=24
control_change channel=15 control=7 value=85 time=0
note_on channel=15 note=45 velocity=0 time=2
note_on channel=15 note=50 velocity=0 time=6
control_change channel=15 control=7 value=85 time=16
note_on channel=15 note=45 velocity=104 time=0
note_on channel=15 note=50 velocity=78 time=0
note_on channel=15 note=54 velocity=92 time=0
control_change channel=15 control=7 value=84 time=24
note_on channel=15 note=38 velocity=0 time=13
control_change channel=15 control=7 value=84 time=11
control_change channel=15 control=7 value=82 time=24
note_on channel=15 note=54 velocity=0 time=2
note_on channel=15 note=50 velocity=0 time=0
note_on channel=15 note=45 velocity=0 time=4
control_change channel=15 control=7 value=82 time=18
note_on channel=15 note=42 velocity=104 time=0
note_on channel=15 note=54 velocity=86 time=0
note_on channel=15 note=57 velocity=98 time=0
note_on channel=15 note=61 velocity=115 time=0
control_change channel=15 control=7 value=82 time=24
control_change channel=15 control=7 value=80 time=24
note_on channel=15 note=61 velocity=0 time=8
note_on channel=15 note=54 velocity=0 time=1
note_on channel=15 note=42 velocity=0 time=2
note_on channel=15 note=57 velocity=0 time=1
control_change channel=15 control=7 value=80 time=12
control_change channel=15 control=7 value=79 time=24
control_change channel=15 control=7 value=79 time=24
control_change channel=15 control=7 value=79 time=24
control_change channel=15 control=7 value=77 time=24
control_change channel=15 control=7 value=75 time=24
note_on channel=15 note=42 velocity=98 time=0
note_on channel=15 note=54 velocity=80 time=0
note_on channel=15 note=57 velocity=98 time=0
note_on channel=15 note=61 velocity=115 time=0
control_change channel=15 control=7 value=75 time=24
note_on channel=15 note=42 velocity=0 time=5
note_on channel=15 note=54 velocity=0 time=14
note_on channel=15 note=61 velocity=0 time=2
control_change channel=15 control=7 value=75 time=3
note_on channel=15 note=42 velocity=68 time=0
note_on channel=15 note=57 velocity=0 time=10
note_on channel=15 note=42 velocity=0 time=7
control_change channel=15 control=7 value=74 time=7
note_on channel=15 note=42 velocity=86 time=0
note_on channel=15 note=52 velocity=74 time=0
note_on channel=15 note=56 velocity=86 time=0
note_on channel=15 note=59 velocity=104 time=0
control_change channel=15 control=7 value=74 time=24
note_on channel=15 note=56 velocity=0 time=17
note_on channel=15 note=52 velocity=0 time=0
note_on channel=15 note=59 velocity=0 time=1
note_on channel=15 note=42 velocity=0 time=2
control_change channel=15 control=7 value=72 time=4
control_change channel=15 control=7 value=72 time=24
note_on channel=15 note=42 velocity=104 time=0
note_on channel=15 note=54 velocity=86 time=0
note_on channel=15 note=57 velocity=92 time=0
note_on channel=15 note=61 velocity=115 time=0
control_change channel=15 control=7 value=72 time=24
control_change channel=15 control=7 value=70 time=24
control_change channel=15 control=7 value=69 time=24
control_change channel=15 control=7 value=69 time=24
control_change channel=15 control=7 value=69 time=24
control_change channel=15 control=7 value=69 time=24
control_change channel=15 control=7 value=69 time=24
note_on channel=15 note=42 velocity=0 time=16
control_change channel=15 control=7 value=67 time=8
note_on channel=15 note=61 velocity=0 time=20
note_on channel=15 note=54 velocity=0 time=1
control_change channel=15 control=7 value=67 time=3
note_on channel=15 note=42 velocity=68 time=0
note_on channel=15 note=57 velocity=0 time=2
note_on channel=15 note=42 velocity=0 time=11
control_change channel=15 control=7 value=65 time=11
note_on channel=15 note=42 velocity=98 time=0
note_on channel=15 note=54 velocity=80 time=0
note_on channel=15 note=57 velocity=98 time=0
note_on channel=15 note=61 velocity=115 time=0
control_change channel=15 control=7 value=63 time=24
note_on channel=15 note=54 velocity=0 time=16
note_on channel=15 note=61 velocity=0 time=2
control_change channel=15 control=7 value=63 time=6
note_on channel=15 note=42 velocity=0 time=2
note_on channel=15 note=57 velocity=0 time=4
control_change channel=15 control=7 value=63 time=18
note_on channel=15 note=42 velocity=92 time=0
note_on channel=15 note=52 velocity=72 time=0
note_on channel=15 note=56 velocity=74 time=0
note_on channel=15 note=59 velocity=98 time=0
control_change channel=15 control=7 value=62 time=24
note_on channel=15 note=59 velocity=0 time=18
note_on channel=15 note=56 velocity=0 time=1
note_on channel=15 note=52 velocity=0 time=0
note_on channel=15 note=42 velocity=0 time=1
control_change channel=15 control=7 value=62 time=4
control_change channel=15 control=7 value=60 time=24
note_on channel=15 note=42 velocity=104 time=0
note_on channel=15 note=54 velocity=78 time=0
note_on channel=15 note=57 velocity=86 time=0
note_on channel=15 note=61 velocity=109 time=0
control_change channel=15 control=7 value=60 time=24
control_change channel=15 control=7 value=58 time=24
control_change channel=15 control=7 value=57 time=24
control_change channel=15 control=7 value=57 time=24
control_change channel=15 control=7 value=55 time=24
control_change channel=15 control=7 value=55 time=24
control_change channel=15 control=7 value=53 time=24
note_on channel=15 note=61 velocity=0 time=21
note_on channel=15 note=57 velocity=0 time=0
control_change channel=15 control=7 value=53 time=3
note_on channel=15 note=54 velocity=0 time=2
control_change channel=15 control=7 value=52 time=22
note_on channel=15 note=42 velocity=0 time=3
control_change channel=15 control=7 value=52 time=21
note_on channel=15 note=42 velocity=98 time=0
note_on channel=15 note=49 velocity=98 time=0
note_on channel=15 note=54 velocity=86 time=0
note_on channel=15 note=57 velocity=80 time=0
control_change channel=15 control=7 value=50 time=24
note_on channel=15 note=54 velocity=0 time=23
control_change channel=15 control=7 value=50 time=1
note_on channel=15 note=57 velocity=0 time=4
note_on channel=15 note=49 velocity=0 time=0
note_on channel=15 note=42 velocity=0 time=15
control_change channel=15 control=7 value=48 time=5
note_on channel=15 note=37 velocity=92 time=0
note_on channel=15 note=47 velocity=104 time=0
note_on channel=15 note=52 velocity=92 time=0
note_on channel=15 note=56 velocity=98 time=0
control_change channel=15 control=7 value=48 time=24
note_on channel=15 note=56 velocity=0 time=17
note_on channel=15 note=47 velocity=0 time=4
control_change channel=15 control=7 value=47 time=3
note_on channel=15 note=52 velocity=0 time=10
note_on channel=15 note=37 velocity=0 time=7
control_change channel=15 control=7 value=47 time=7
note_on channel=15 note=38 velocity=98 time=0
note_on channel=15 note=45 velocity=98 time=0
note_on channel=15 note=50 velocity=64 time=0
note_on channel=15 note=54 velocity=92 time=0
control_change channel=15 control=7 value=45 time=24
control_change channel=15 control=7 value=45 time=24
control_change channel=15 control=7 value=43 time=24
control_change channel=15 control=7 value=43 time=24
control_change channel=15 control=7 value=43 time=24
control_change channel=15 control=7 value=42 time=24
control_change channel=15 control=7 value=42 time=24
control_change channel=15 control=7 value=40 time=24
control_change channel=15 control=7 value=40 time=24
control_change channel=15 control=7 value=38 time=24
control_change channel=15 control=7 value=38 time=24
note_on channel=15 note=38 velocity=0 time=19
control_change channel=15 control=7 value=38 time=5
note_on channel=15 note=38 velocity=56 time=0
note_on channel=15 note=45 velocity=0 time=16
note_on channel=15 note=50 velocity=0 time=3
note_on channel=15 note=54 velocity=0 time=3
control_change channel=15 control=7 value=37 time=2
control_change channel=15 control=7 value=37 time=24
control_change channel=15 control=7 value=35 time=24
note_on channel=15 note=45 velocity=60 time=0
note_on channel=15 note=50 velocity=50 time=0
note_on channel=15 note=54 velocity=72 time=0
note_on channel=15 note=38 velocity=0 time=19
control_change channel=15 control=7 value=35 time=5
note_on channel=15 note=38 velocity=92 time=0
note_on channel=15 note=45 velocity=0 time=22
control_change channel=15 control=7 value=35 time=2
note_on channel=15 note=50 velocity=0 time=1
note_on channel=15 note=54 velocity=0 time=3
note_on channel=15 note=38 velocity=0 time=19
control_change channel=15 control=7 value=33 time=1
note_on channel=15 note=42 velocity=104 time=0
note_on channel=15 note=54 velocity=92 time=0
note_on channel=15 note=57 velocity=92 time=0
note_on channel=15 note=61 velocity=115 time=0
control_change channel=15 control=7 value=33 time=24
note_on channel=15 note=61 velocity=0 time=20
note_on channel=15 note=54 velocity=0 time=3
control_change channel=15 control=7 value=31 time=1
note_on channel=15 note=42 velocity=0 time=2
note_on channel=15 note=57 velocity=0 time=1
control_change channel=15 control=7 value=31 time=21
control_change channel=15 control=7 value=30 time=24
control_change channel=15 control=7 value=30 time=24
control_change channel=15 control=7 value=30 time=24
control_change channel=15 control=7 value=28 time=24
control_change channel=15 control=7 value=28 time=24
note_on channel=15 note=42 velocity=98 time=0
note_on channel=15 note=54 velocity=78 time=0
note_on channel=15 note=57 velocity=92 time=0
note_on channel=15 note=61 velocity=115 time=0
control_change channel=15 control=7 value=26 time=24
note_on channel=15 note=42 velocity=0 time=4
note_on channel=15 note=54 velocity=0 time=19
control_change channel=15 control=7 value=26 time=1
note_on channel=15 note=42 velocity=70 time=0
note_on channel=15 note=61 velocity=0 time=5
note_on channel=15 note=57 velocity=0 time=8
note_on channel=15 note=42 velocity=0 time=4
control_change channel=15 control=7 value=25 time=7
note_on channel=15 note=42 velocity=92 time=0
note_on channel=15 note=52 velocity=80 time=0
note_on channel=15 note=56 velocity=92 time=0
note_on channel=15 note=59 velocity=115 time=0
control_change channel=15 control=7 value=25 time=24
note_on channel=15 note=56 velocity=0 time=13
note_on channel=15 note=52 velocity=0 time=0
note_on channel=15 note=42 velocity=0 time=2
note_on channel=15 note=59 velocity=0 time=3
control_change channel=15 control=7 value=25 time=6
control_change channel=15 control=7 value=23 time=24
note_on channel=15 note=42 velocity=104 time=0
note_on channel=15 note=54 velocity=78 time=0
note_on channel=15 note=57 velocity=86 time=0
note_on channel=15 note=61 velocity=109 time=0
control_change channel=15 control=7 value=23 time=24
control_change channel=15 control=7 value=21 time=24
control_change channel=15 control=7 value=21 time=24
control_change channel=15 control=7 value=21 time=24
control_change channel=15 control=7 value=20 time=24
control_change channel=15 control=7 value=20 time=24
control_change channel=15 control=7 value=18 time=24
note_on channel=15 note=42 velocity=0 time=3
control_change channel=15 control=7 value=18 time=21
note_on channel=15 note=42 velocity=74 time=0
note_on channel=15 note=42 velocity=0 time=12
note_on channel=15 note=54 velocity=0 time=8
note_on channel=15 note=61 velocity=0 time=3
control_change channel=15 control=7 value=18 time=1
note_on channel=15 note=42 velocity=74 time=0
note_on channel=15 note=57 velocity=0 time=2
note_on channel=15 note=42 velocity=0 time=11
control_change channel=15 control=7 value=16 time=11
note_on channel=15 note=42 velocity=92 time=0
note_on channel=15 note=54 velocity=86 time=0
note_on channel=15 note=57 velocity=98 time=0
note_on channel=15 note=61 velocity=115 time=0
control_change channel=15 control=7 value=16 time=24
note_on channel=15 note=42 velocity=0 time=7
control_change channel=15 control=7 value=15 time=17
note_on channel=15 note=42 velocity=104 time=0
note_on channel=15 note=54 velocity=0 time=3
note_on channel=15 note=61 velocity=0 time=0
note_on channel=15 note=57 velocity=0 time=11
control_change channel=15 control=7 value=15 time=10
note_on channel=15 note=52 velocity=80 time=0
note_on channel=15 note=56 velocity=92 time=0
note_on channel=15 note=59 velocity=109 time=0
control_change channel=15 control=7 value=15 time=24
note_on channel=15 note=42 velocity=0 time=15
note_on channel=15 note=52 velocity=0 time=3
note_on channel=15 note=56 velocity=0 time=2
note_on channel=15 note=59 velocity=0 time=3
control_change channel=15 control=7 value=15 time=1
note_on channel=15 note=42 velocity=80 time=0
note_on channel=15 note=42 velocity=0 time=17
control_change channel=15 control=7 value=13 time=7
note_on channel=15 note=42 velocity=98 time=0
note_on channel=15 note=54 velocity=80 time=0
note_on channel=15 note=57 velocity=92 time=0
note_on channel=15 note=61 velocity=115 time=0
control_change channel=15 control=7 value=11 time=24
control_change channel=15 control=7 value=11 time=24
control_change channel=15 control=7 value=11 time=24
control_change channel=15 control=7 value=11 time=24
control_change channel=15 control=7 value=10 time=24
control_change channel=15 control=7 value=10 time=24
note_on channel=15 note=42 velocity=0 time=21
control_change channel=15 control=7 value=8 time=3
control_change channel=15 control=7 value=8 time=24
note_on channel=15 note=42 velocity=104 time=0
note_on channel=15 note=61 velocity=0 time=1
note_on channel=15 note=57 velocity=0 time=0
note_on channel=15 note=54 velocity=0 time=2
control_change channel=15 control=7 value=8 time=21
note_on channel=15 note=42 velocity=0 time=13
control_change channel=15 control=7 value=8 time=11
note_on channel=15 note=42 velocity=92 time=0
note_on channel=15 note=49 velocity=109 time=0
note_on channel=15 note=54 velocity=92 time=0
note_on channel=15 note=57 velocity=92 time=0
control_change channel=15 control=7 value=8 time=24
note_on channel=15 note=54 velocity=0 time=23
control_change channel=15 control=7 value=6 time=1
note_on channel=15 note=57 velocity=0 time=2
note_on channel=15 note=49 velocity=0 time=5
note_on channel=15 note=42 velocity=0 time=8
control_change channel=15 control=7 value=5 time=9
note_on channel=15 note=37 velocity=98 time=0
note_on channel=15 note=47 velocity=109 time=0
note_on channel=15 note=52 velocity=80 time=0
note_on channel=15 note=56 velocity=92 time=0
control_change channel=15 control=7 value=5 time=24
note_on channel=15 note=47 velocity=0 time=15
note_on channel=15 note=56 velocity=0 time=3
control_change channel=15 control=7 value=5 time=6
note_on channel=15 note=52 velocity=0 time=3
note_on channel=15 note=37 velocity=0 time=6
control_change channel=15 control=7 value=5 time=15
note_on channel=15 note=38 velocity=104 time=0
note_on channel=15 note=45 velocity=98 time=0
note_on channel=15 note=50 velocity=74 time=0
note_on channel=15 note=54 velocity=109 time=0
control_change channel=15 control=7 value=3 time=24
control_change channel=15 control=7 value=3 time=24
control_change channel=15 control=7 value=3 time=24
control_change channel=15 control=7 value=1 time=24
control_change channel=15 control=7 value=1 time=24
control_change channel=15 control=7 value=1 time=24
note_on channel=15 note=38 velocity=0 time=20
control_change channel=15 control=7 value=1 time=4
control_change channel=15 control=7 value=1 time=24
note_on channel=15 note=38 velocity=76 time=0
note_on channel=15 note=38 velocity=0 time=9
control_change channel=15 control=7 value=0 time=15
note_on channel=15 note=38 velocity=109 time=0
control_change channel=15 control=7 value=0 time=24
note_on channel=15 note=38 velocity=0 time=5
control_change channel=15 control=7 value=0 time=19
note_on channel=15 note=38 velocity=80 time=0
note_on channel=15 note=38 velocity=0 time=13
control_change channel=15 control=7 value=0 time=11
note_on channel=15 note=38 velocity=98 time=0
note_on channel=15 note=54 velocity=0 time=24
control_change channel=15 control=7 value=0 time=0
note_on channel=15 note=45 velocity=0 time=2
note_on channel=15 note=50 velocity=0 time=6
control_change channel=15 control=7 value=0 time=16
note_on channel=15 note=45 velocity=104 time=0
note_on channel=15 note=50 velocity=78 time=0
note_on channel=15 note=54 velocity=92 time=0
control_change channel=15 control=7 value=0 time=24
note_on channel=15 note=38 velocity=0 time=13
control_change channel=15 control=7 value=0 time=11
control_change channel=15 control=7 value=0 time=24
note_on channel=15 note=54 velocity=0 time=2
note_on channel=15 note=50 velocity=0 time=0
note_on channel=15 note=45 velocity=0 time=4
<meta message end_of_track time=0>
<meta message midi_port port=0 time=0>
<meta message track_name name=u'||||||||||||||||||||||||||||||||||||||' time=0>
<meta message end_of_track time=0>
<meta message midi_port port=0 time=0>
<meta message track_name name=u'Eye of The Tiger' time=0>
<meta message end_of_track time=0>
<meta message midi_port port=0 time=0>
<meta message track_name name=u'Sequenced by' time=0>
<meta message end_of_track time=0>
<meta message midi_port port=0 time=0>
<meta message track_name name=u'P.Wolmarans' time=0>
<meta message end_of_track time=0>
<meta message midi_port port=0 time=0>
<meta message track_name name=u'22-Sept-1997' time=0>
<meta message end_of_track time=0>
